<svg width="3501" height="2001" viewBox="0 0 3501 2001" fill="none" xmlns="http://www.w3.org/2000/svg">
<g clip-path="url(#clip0_101_22)">
<rect x="0.15625" y="0.691406" width="3500" height="2000" fill="white"/>
<path d="M1509.38 62.187C1521.56 58.8642 1540.95 54.4338 1552.3 52.4955C1565.87 50.0034 1589.96 49.1727 1622.91 49.7265C1665.83 50.5572 1676.63 51.6648 1701.83 58.0335C1717.89 62.187 1745.3 71.0478 1762.74 77.9704C1780.19 84.8929 1799.85 93.7537 1818.12 103.999H2245.38C2665.44 103.999 2672.64 103.999 2694.51 109.537C2708.91 113.137 2724.42 119.782 2738.54 128.366C2750.45 135.566 2766.51 148.303 2773.98 156.61C2781.74 164.917 2791.98 180.424 2797.24 191.223C2802.23 202.022 2807.77 218.636 2809.15 228.604C2811.09 240.788 2812.2 446.802 2812.2 865.476C2812.2 1376.91 2811.37 1487.39 2808.32 1502.35C2806.38 1512.32 2800.57 1528.1 2795.86 1537.51C2791.15 1547.21 2780.35 1561.88 2772.05 1570.19C2762.35 1579.88 2749.34 1589.02 2714.17 1606.19L2463.3 1607.57L2480.75 1628.89C2490.44 1640.8 2503.45 1657.97 2509.54 1667.1C2515.91 1676.24 2527.27 1696.18 2534.74 1711.41C2542.5 1726.64 2553.29 1752.94 2558.83 1769.56C2564.37 1786.17 2575.45 1832.14 2597.6 1943.45L2911.33 1941.23L2917.97 1947.6C2921.57 1950.93 2925.45 1952.86 2926.83 1951.76C2928.22 1950.37 2928.49 1952.31 2927.39 1955.63C2926.56 1959.23 2926.56 1962 2927.94 1962C2929.05 1962 2929.33 1966.71 2928.77 1972.52C2928.22 1978.06 2925.73 1985.54 2923.23 1989.14C2920.74 1992.74 2914.37 1996.62 2909.11 1998C2903.85 1999.11 2355.59 1999.66 1690.75 1999.11C714.121 1998.28 481.247 1997.45 478.201 1994.68C476.263 1992.74 472.663 1987.2 470.448 1982.77C467.956 1977.51 466.848 1970.86 467.956 1964.77C468.787 1959.51 472.386 1952.31 475.986 1948.99C481.524 1943.45 485.401 1942.9 548.534 1941.23L557.118 1888.62C562.102 1859.55 569.855 1822.17 574.563 1805.55C579.547 1788.94 590.346 1760.7 598.653 1743.25C607.237 1725.81 621.913 1699.5 631.604 1685.1C641.296 1670.7 659.294 1647.17 671.478 1633.04C683.938 1619.2 693.907 1607.29 693.907 1606.74C693.907 1606.46 662.34 1606.46 624.128 1607.02C561.271 1607.57 552.134 1607.29 536.073 1602.31C525.274 1598.99 511.152 1591.79 500.907 1584.31C491.216 1577.39 478.478 1564.93 472.663 1556.9C466.571 1549.14 457.987 1535.02 453.557 1525.88C449.127 1516.75 444.696 1505.95 443.589 1501.79C442.758 1497.36 441.927 1205.79 441.373 213.375L447.188 198.145C450.511 189.838 455.772 178.208 459.095 172.67C462.695 166.855 472.94 154.672 482.078 145.257C492.877 134.458 505.337 125.043 518.075 118.952C528.874 113.691 544.934 108.153 554.072 106.768C564.317 105.107 729.904 103.999 1416.62 103.999L1432.4 94.5844C1441.26 89.6002 1457.04 81.5701 1467.84 76.8628C1478.64 72.1554 1497.2 65.5098 1509.38 62.187Z" fill="#2929CF"/>
<path d="M2603.41 2031.23C2605.91 2022.09 2606.74 2021.26 2622.52 2018.49C2631.66 2016.55 2646.89 2015.17 2656.58 2014.89C2665.99 2014.61 2676.79 2015.72 2680.67 2017.38C2684.55 2018.77 2689.53 2023.75 2691.74 2028.46C2693.96 2032.89 2695.9 2040.37 2695.9 2045.07C2695.9 2050.33 2692.85 2056.7 2679.84 2071.38L2649.66 2071.1C2632.21 2071.1 2617.26 2069.72 2613.66 2067.78C2609.78 2065.84 2606.18 2060.03 2604.24 2052.55C2602.31 2045.35 2602.03 2037.32 2603.41 2031.23Z" fill="#2929CF"/>
<path fill-rule="evenodd" clip-rule="evenodd" d="M441.097 591.342C441.651 744.468 441.651 996.171 441.097 1150.68C440.82 1305.19 440.543 1180.03 440.543 872.397C440.543 564.76 440.82 438.216 441.097 591.342ZM623.298 1608.68C653.757 1608.68 666.771 1609.23 652.372 1609.51C637.973 1610.06 613.052 1610.06 596.992 1609.51C580.932 1609.23 592.839 1608.68 623.298 1608.68ZM2623.9 1608.68C2659.62 1608.68 2674.02 1609.23 2655.75 1609.51C2637.47 1610.06 2608.12 1610.06 2590.68 1609.51C2573.23 1609.23 2588.18 1608.68 2623.9 1608.68ZM2643.29 1818.29C2645.5 1818.29 2684.27 1821.06 2729.13 1824.93C2773.98 1828.81 2832.69 1834.35 2859.27 1837.67C2885.85 1840.72 2926.56 1845.7 2949.26 1848.75C2972.25 1851.79 2998.27 1856.5 3007.41 1859.55C3016.55 1862.59 3029.01 1869.24 3035.1 1874.22C3042.3 1880.32 3048.67 1889.18 3053.1 1899.97C3057.81 1911.05 3060.02 1921.3 3059.75 1931.54C3059.75 1939.85 3057.53 1953.14 3055.04 1960.62C3052.55 1968.37 3046.46 1978.61 3041.47 1983.6C3033.44 1991.63 3030.67 1992.46 3017.1 1992.46C3008.52 1992.46 2986.64 1988.31 2967.26 1983.05C2941.79 1976.12 2932.1 1974.46 2930.43 1976.68C2929.05 1978.61 2928.5 1976.12 2929.05 1971.14C2929.6 1966.15 2929.05 1962 2927.94 1962C2926.56 1962 2926.56 1959.23 2927.66 1955.91C2928.77 1952.03 2928.5 1950.37 2926.83 1951.48C2925.45 1952.59 2921.85 1951.2 2918.8 1947.88C2915.76 1944.83 2911.05 1942.34 2908.56 1942.62C2905.79 1942.62 2903.57 1941.23 2903.57 1939.85C2903.57 1938.19 2890.01 1937.08 2868.41 1937.08C2840.44 1937.08 2829.37 1935.7 2816.35 1931.26C2807.21 1928.22 2783.4 1922.13 2763.74 1917.42C2744.08 1912.71 2718.33 1905.51 2706.97 1901.91C2695.62 1898.04 2677.62 1890.28 2667.1 1884.75C2656.58 1879.21 2641.9 1869.24 2634.7 1862.32C2627.23 1855.12 2620.86 1846.26 2619.75 1841.55C2618.37 1835.73 2619.47 1831.3 2622.52 1827.15C2625.01 1823.83 2629.72 1820.5 2633.04 1819.95C2636.37 1819.4 2641.07 1818.57 2643.29 1818.29ZM2712.51 1941.23C2777.31 1941.23 2803.34 1941.51 2770.66 1941.79C2737.99 1942.34 2684.82 1942.34 2652.98 1941.79C2621.14 1941.51 2647.72 1941.23 2712.51 1941.23ZM1019.27 1999.38C1142.76 1999.38 1193.71 1999.66 1132.79 1999.94C1071.88 2000.49 971.085 2000.49 908.505 1999.94C845.926 1999.66 895.768 1999.38 1019.27 1999.38ZM1388.93 1999.38C1453.72 1999.38 1479.75 1999.66 1447.08 1999.94C1414.4 2000.49 1361.51 2000.49 1329.39 1999.94C1297.27 1999.66 1324.13 1999.38 1388.93 1999.38ZM1879.04 1999.38C2062.63 1999.38 2137.39 1999.66 2045.18 1999.94C1952.97 2000.49 1802.89 2000.49 1711.52 1999.94C1620.14 1999.66 1695.46 1999.38 1879.04 1999.38ZM2493.76 2016.55C2499.02 2016.83 2530.31 2017.66 2562.99 2017.66C2595.66 2017.93 2619.2 2018.77 2615.04 2019.04C2609.51 2019.87 2606.46 2022.37 2604.24 2027.9C2602.58 2032.06 2602.03 2040.64 2602.86 2047.29C2603.69 2053.65 2606.74 2061.13 2609.51 2063.9C2613.94 2068.61 2613.66 2068.88 2600.37 2069.44C2592.89 2069.72 2551.08 2070.55 2507.61 2071.38C2457.76 2072.21 2425.92 2071.93 2421.21 2069.99C2416.78 2068.61 2414.01 2065.84 2414.84 2064.45C2415.68 2063.07 2414.84 2061.68 2413.46 2061.68C2412.08 2061.68 2409.86 2057.53 2409.03 2052.82C2407.92 2047.84 2408.2 2041.75 2409.58 2039.53C2410.97 2037.32 2412.35 2033.44 2412.63 2031.23C2413.18 2029.01 2415.68 2024.86 2418.17 2022.09C2422.32 2018.21 2428.97 2017.1 2453.61 2016.55C2470.22 2016 2488.5 2016 2493.76 2016.55Z" fill="#DFDFEE"/>
<path fill-rule="evenodd" clip-rule="evenodd" d="M1614.05 109.535C1638.69 109.535 1661.95 111.197 1676.9 113.966C1689.92 116.458 1714.01 123.103 1730.9 128.641C1747.79 134.456 1765.51 141.102 1779.36 148.301L1769.39 157.993C1763.85 163.254 1758.87 167.684 1758.31 167.684C1757.76 167.684 1746.96 162.7 1734.22 156.885C1721.76 151.07 1701 143.04 1687.98 139.164C1674.97 135.287 1651.98 128.641 1636.75 124.765C1621.52 120.888 1601.31 116.735 1591.62 115.627C1582.2 114.519 1574.45 112.858 1574.45 111.75C1574.45 110.366 1592.17 109.535 1613.77 109.535L1614.05 109.535ZM1861.32 161.039C1864.37 162.423 2042.14 164.085 2271.13 164.915C2596.49 166.3 2677.62 167.13 2686.48 170.176C2692.58 172.115 2701.99 175.991 2707.25 178.76C2712.51 181.529 2721.65 188.729 2727.19 194.544C2732.73 200.359 2740.2 211.158 2749.89 232.756L2751 789.326C2751.28 1095.3 2750.73 1380.23 2746.85 1498.19L2738.82 1511.76C2734.39 1519.24 2726.91 1528.37 2722.48 1531.7C2718.05 1535.3 2709.47 1540 2703.65 1542.22C2697.28 1544.99 2679.84 1547.2 2620.03 1550.25L2611.17 1525.61C2606.18 1512.04 2599.26 1489.05 2595.38 1474.66C2591.51 1460.26 2586.52 1438.94 2584.31 1427.58C2582.09 1416.23 2577.66 1389.65 2574.34 1368.6C2571.29 1347.83 2568.8 1326.24 2568.8 1320.98C2568.8 1314.33 2571.02 1308.79 2576 1303.53C2579.88 1299.38 2586.52 1291.07 2590.68 1284.98C2595.11 1278.89 2600.92 1266.98 2603.69 1258.67C2607.57 1247.04 2608.95 1235.69 2608.95 1211.6C2608.95 1182.53 2608.12 1178.09 2600.65 1160.37C2594.55 1145.97 2587.91 1136.28 2574.34 1122.71C2563.54 1111.92 2550.25 1101.67 2541.11 1097.24C2532.8 1093.36 2517.85 1088.66 2507.88 1086.72C2494.04 1084.23 2486.01 1083.95 2473.27 1086.44C2464.13 1088.38 2449.18 1093.36 2440.04 1097.79C2428.97 1103.05 2418.44 1111.36 2408.75 1121.88C2400.72 1131.02 2390.75 1145.97 2379.12 1172.28L2348.67 1173.66C2332.05 1174.5 2310.73 1177.26 2301.59 1179.76C2292.45 1182.25 2277.5 1187.79 2268.36 1192.22C2259.23 1196.65 2242.34 1206.34 2230.98 1214.09C2219.63 1221.57 2198.31 1238.18 2183.91 1250.92C2169.51 1263.66 2150.68 1278.33 2142.37 1283.87C2134.07 1289.41 2120.78 1297.16 2113.3 1300.76C2105.55 1304.64 2089.49 1311.01 2077.3 1314.88C2065.12 1318.76 2051.83 1322.64 2047.4 1323.47C2043.24 1324.3 2036.88 1328.18 2033 1332.05C2028.01 1337.04 2026.08 1342.02 2026.08 1350.05C2026.08 1356.14 2028.29 1364.45 2030.78 1368.33C2033.83 1372.48 2040.2 1376.36 2046.01 1378.02C2053.49 1379.68 2060.97 1379.4 2072.32 1376.36C2081.18 1374.14 2096.41 1369.71 2106.38 1366.66C2116.35 1363.34 2132.41 1356.97 2142.37 1352.27C2152.34 1347.56 2165.91 1339.8 2172.83 1335.1C2179.76 1330.39 2200.8 1313.78 2219.91 1297.72C2239.01 1281.93 2261.44 1265.04 2269.75 1260.33C2278.06 1255.35 2292.45 1248.43 2301.59 1244.27C2310.73 1240.4 2327.62 1235.69 2338.97 1234.03C2350.33 1232.37 2363.9 1230.15 2368.6 1229.6C2375.53 1228.49 2377.74 1229.32 2377.74 1232.37C2377.74 1234.58 2381.62 1244.27 2386.6 1253.69C2391.31 1263.38 2401.55 1277.78 2409.31 1286.09C2417.06 1294.12 2430.91 1306.3 2440.04 1312.95C2449.18 1319.59 2463.86 1327.34 2472.44 1330.67C2481.3 1333.71 2493.48 1336.21 2499.58 1336.21C2507.61 1336.21 2510.65 1337.31 2510.65 1340.36C2510.65 1342.57 2512.59 1359.19 2515.08 1376.91C2517.3 1394.91 2523.39 1429.52 2528.65 1453.89C2533.91 1478.26 2541.94 1509.27 2554.13 1548.03L2391.59 1549.42L2361.68 1530.59C2345.34 1520.34 2312.11 1501.79 2287.75 1489.61C2263.38 1477.15 2221.57 1458.87 2194.99 1448.9C2168.4 1438.66 2124.1 1424.26 2096.69 1416.51C2069.27 1408.48 2037.71 1400.45 2026.63 1398.23C2015.55 1396.02 1989.8 1394.35 1930.55 1394.35L1911.99 1365.83C1901.75 1350.33 1888.73 1327.62 1883.2 1315.44C1877.66 1303.25 1870.74 1283.87 1867.69 1272.52C1864.92 1261.17 1861.6 1240.67 1860.77 1226.83C1859.66 1208.28 1860.21 1198.03 1863.54 1186.68C1866.03 1178.37 1876.83 1156.5 1887.9 1138.22C1898.7 1119.95 1912.82 1094.47 1919.47 1081.46C1926.12 1068.44 1934.7 1048.51 1938.85 1037.15C1942.73 1025.8 1951.04 998.386 1957.13 976.234C1962.94 954.082 1967.93 931.93 1967.93 918.085L1986.76 917.254C2000.88 916.701 2009.46 914.762 2023.31 907.84C2034.94 902.302 2047.67 892.887 2059.3 880.98C2069.27 870.735 2082.01 854.952 2087.55 845.26C2093.36 835.846 2101.67 818.124 2106.1 805.94C2110.53 793.757 2116.9 771.328 2120.22 756.098C2124.38 736.161 2126.59 713.732 2127.7 677.182C2128.53 648.107 2127.98 618.202 2126.59 607.956C2124.93 597.988 2119.95 581.928 2115.24 571.959C2110.81 561.991 2102.78 549.807 2097.52 544.546C2092.53 539.562 2084.23 533.47 2079.52 531.532C2074.53 529.317 2066.5 527.655 2062.07 527.655C2057.64 527.655 2051 529.04 2047.67 530.701C2044.07 532.639 2040.48 535.408 2039.37 537.07C2038.26 538.731 2037.15 526.824 2037.15 510.21C2037.15 493.873 2035.77 468.398 2034.11 453.446C2032.45 438.77 2027.74 409.695 2023.31 389.205C2018.05 364.007 2011.68 342.686 2003.37 324.133C1996.72 308.904 1985.1 287.028 1977.62 275.676C1970.14 264.046 1950.21 241.063 1932.21 222.788C1914.49 205.343 1891.5 184.852 1880.7 177.376C1869.9 169.9 1859.94 162.7 1858.55 161.316C1856.71 159.47 1857.63 159.377 1861.32 161.039ZM1328.84 162.7C1329.67 162.423 1317.76 174.884 1301.98 190.39C1282.6 209.773 1267.65 228.049 1255.19 247.155C1245.22 262.938 1231.93 286.475 1226.11 299.766C1220.02 313.334 1211.43 335.486 1206.73 349.054C1202.3 362.622 1195.93 385.882 1192.61 400.281C1189.28 414.68 1184.85 439.047 1182.91 454.276C1180.7 469.506 1178.76 492.766 1178.76 530.424L1171.84 527.655C1167.96 525.994 1159.38 524.886 1152.46 524.886C1145.53 524.886 1136.12 526.824 1131.69 529.04C1127.26 531.255 1118.67 539.839 1112.58 547.592C1106.77 555.622 1099.84 567.806 1097.35 574.728C1094.58 581.651 1090.71 597.157 1088.49 609.341C1086.28 621.525 1084.61 649.491 1084.61 671.643C1084.61 693.796 1086.55 723.147 1088.77 736.715C1090.98 750.283 1095.41 771.605 1098.46 783.788C1101.51 795.972 1108.98 816.186 1115.07 828.646C1123.66 846.645 1131.41 857.167 1150.52 876.827C1166.85 893.995 1179.31 904.24 1189.84 909.224C1202.02 915.039 1209.22 916.701 1245.22 916.701V926.392C1245.22 931.653 1249.09 951.036 1253.52 969.312C1257.95 987.587 1266.81 1015 1272.91 1030.23C1279 1045.46 1292.84 1074.26 1303.64 1093.92C1314.16 1113.58 1327.18 1139.05 1332.44 1149.85C1337.7 1160.93 1343.52 1177.26 1345.18 1185.85C1347.12 1195.54 1347.39 1211.32 1346.29 1225.44C1345.18 1238.46 1340.75 1261.17 1336.32 1275.84C1331.89 1290.79 1323.58 1312.67 1317.49 1324.3C1311.67 1336.21 1301.7 1353.93 1295.34 1363.9C1288.97 1373.86 1283.15 1384.39 1282.32 1387.43C1280.94 1392.69 1278.72 1392.97 1218.08 1392.97C1155.78 1392.97 1154.95 1392.97 1119.23 1402.38C1099.57 1407.37 1060.8 1419.55 1033.39 1428.97C1005.97 1438.66 973.577 1450.01 961.394 1454.72C949.21 1459.15 933.704 1465.52 926.781 1468.56C919.858 1471.61 906.29 1477.42 896.322 1481.58C886.354 1485.73 860.048 1498.47 837.619 1509.54C814.913 1520.9 789.715 1534.47 766.179 1549.42L663.172 1548.59C571.794 1548.03 558.78 1547.48 550.196 1543.33C544.935 1540.56 534.967 1533.91 528.321 1528.1C521.398 1522.28 513.091 1511.48 503.123 1489.89V221.68L508.938 210.604C512.261 204.512 518.629 195.374 523.614 190.39C528.321 185.406 539.12 177.93 562.657 166.3L944.78 164.915C1154.95 164.085 1327.73 163.254 1328.84 162.7ZM1898.43 268.753C1921.68 291.459 1923.9 294.505 1922.52 301.981C1921.68 306.412 1919.75 317.764 1918.36 326.902C1916.7 336.04 1914.21 376.467 1912.55 416.895C1910.61 465.629 1907.84 501.35 1903.96 523.502C1900.92 541.777 1896.21 560.606 1893.44 565.037C1890.95 569.467 1886.24 573.621 1883.2 574.174C1880.43 574.728 1874.89 572.236 1871.57 568.636C1867.97 565.037 1863.81 560.053 1862.43 557.284C1860.77 554.238 1861.87 547.315 1865.47 536.516C1868.52 527.932 1873.5 507.165 1876.55 490.274C1879.32 473.383 1883.2 444.862 1884.86 426.586C1887.07 402.219 1887.07 380.898 1884.86 346.285C1883.2 320.257 1880.7 290.351 1879.32 279.275C1877.93 268.199 1876 255.739 1875.17 251.585C1873.5 245.216 1877.38 247.985 1898.43 268.753ZM1969.31 450.123C1971.53 469.229 1973.19 496.642 1973.19 511.041C1973.47 525.44 1972.63 544.823 1969.87 570.575L1948.82 548.423L1952.97 536.516C1955.19 530.147 1958.79 509.103 1961 489.443C1963.22 470.06 1965.44 445.693 1965.44 434.893C1965.71 417.449 1966.27 419.11 1969.31 450.123ZM2034.11 549.807C2036.04 549.807 2043.24 558.945 2049.89 569.744C2056.26 580.82 2063.18 593.834 2064.84 598.265C2066.5 602.695 2068.72 617.094 2069.55 630.108C2070.38 643.123 2069.55 669.151 2067.61 688.258C2065.95 707.364 2062.63 732.285 2060.41 743.638C2058.2 754.991 2054.6 771.328 2052.11 779.635C2049.61 787.942 2044.08 801.787 2039.92 810.094C2035.49 818.401 2026.63 830.585 2019.98 836.676C2013.62 843.045 2002.54 852.183 1995.62 856.89C1988.69 861.597 1982.33 865.474 1981.22 865.474C1979.83 865.474 1979.83 860.767 1980.66 854.952C1981.5 849.414 1987.03 826.708 1993.13 804.556C1999.22 782.404 2007.52 745.576 2011.95 722.87C2016.39 699.887 2020.82 676.351 2021.65 670.259C2022.75 664.167 2025.8 636.2 2028.57 607.956C2031.61 579.712 2033.28 555.068 2032.45 553.13C2031.34 551.469 2032.45 549.807 2034.11 549.807ZM1182.91 554.238L1185.13 581.651C1186.24 596.88 1189.84 629.832 1192.61 655.029C1195.65 680.227 1201.74 719.27 1206.17 742.253C1210.6 764.959 1218.63 801.51 1223.62 823.108C1228.6 844.706 1232.2 862.705 1231.37 862.705C1230.54 862.705 1224.45 859.382 1217.53 854.952C1210.6 850.521 1200.91 842.768 1195.65 837.507C1190.39 832.246 1182.91 823.108 1178.76 817.016C1174.61 810.925 1167.96 797.633 1164.08 787.111C1159.93 776.866 1154.12 756.375 1151.07 741.422C1148.3 726.747 1144.98 700.995 1143.87 684.104C1142.76 666.106 1143.32 643.677 1145.26 629.278C1146.92 615.986 1150.79 600.48 1153.56 594.665C1156.33 589.127 1164.36 577.497 1170.73 569.19L1182.91 554.238ZM1247.43 581.928L1255.46 593.004C1259.89 599.096 1269.86 608.51 1277.34 614.048C1284.81 619.309 1293.12 624.57 1295.89 625.678C1298.66 626.786 1301.15 631.216 1301.98 636.477C1302.81 641.461 1304.75 662.229 1306.41 682.996C1308.07 703.487 1311.95 738.377 1315 760.529C1318.04 782.404 1324.69 816.74 1329.95 836.676C1335.21 856.336 1344.62 886.242 1351.27 903.133C1357.92 919.747 1368.16 942.729 1374.25 954.359C1380.62 965.712 1390.87 982.603 1397.51 991.741C1404.16 1000.88 1416.62 1016.38 1425.2 1026.08C1433.51 1035.77 1451.78 1052.38 1465.35 1063.18C1479.2 1073.7 1501.07 1087.55 1513.81 1094.19C1526.82 1100.56 1546.76 1108.59 1558.11 1111.64C1569.74 1114.96 1590.79 1119.39 1605.19 1121.61C1619.86 1124.1 1645.89 1126.04 1663.34 1126.04C1694.35 1126.31 1695.18 1126.59 1685.49 1130.74C1680.23 1132.96 1665.83 1137.39 1653.65 1140.71C1636.75 1145.14 1624.57 1146.53 1601.03 1146.25C1577.5 1145.97 1565.31 1144.31 1547.04 1138.78C1534.3 1135.18 1513.53 1127.42 1501.35 1121.88C1489.17 1116.35 1468.68 1104.72 1455.94 1096.13C1442.92 1087.27 1420.49 1068.44 1405.82 1054.04C1391.42 1039.37 1370.65 1015.28 1359.85 1000.05C1349.05 984.818 1334.38 961.005 1327.73 947.437C1320.81 933.592 1310.57 909.224 1305.03 893.441C1299.49 877.381 1288.69 837.507 1281.21 804.833C1273.74 771.882 1263.77 722.039 1259.34 694.073C1254.63 665.829 1250.2 629.001 1249.09 612.387L1247.43 581.928ZM1836.95 1102.5C1837.51 1103.05 1834.18 1109.98 1829.75 1117.73C1825.05 1125.21 1818.12 1139.33 1814.52 1148.74C1810.65 1158.43 1805.66 1175.05 1803.45 1186.12C1800.96 1197.2 1799.29 1211.6 1799.29 1217.97C1799.29 1224.61 1800.96 1240.95 1803.45 1254.8C1805.66 1268.36 1810.09 1288.86 1813.14 1300.48C1816.46 1311.84 1823.39 1330.39 1828.65 1342.02C1833.91 1353.37 1843.32 1369.16 1849.14 1377.19C1855.23 1385.22 1859.94 1392.14 1859.38 1392.42C1859.11 1392.97 1743.91 1392.97 1347.95 1391.86L1360.41 1370.26C1367.33 1358.63 1376.74 1338.97 1381.45 1326.79C1386.16 1314.61 1393.64 1290.24 1398.34 1272.79C1405.54 1245.66 1406.65 1235.69 1406.93 1206.34C1406.93 1178.93 1405.82 1167.85 1401.39 1153.73C1398.34 1143.76 1394.47 1133.24 1393.36 1130.19C1391.14 1125.48 1391.42 1125.21 1396.4 1128.25C1399.45 1130.19 1410.53 1138.5 1421.33 1146.81C1431.85 1155.11 1450.68 1167.3 1462.86 1173.39C1475.04 1179.76 1495.26 1188.62 1507.72 1192.77C1520.46 1197.2 1542.88 1202.74 1557.56 1205.23C1576.67 1208.28 1593.56 1209.11 1615.16 1208C1631.77 1207.17 1655.86 1203.85 1668.32 1200.8C1681.06 1197.75 1701 1191.39 1712.62 1186.96C1724.53 1182.53 1744.19 1172.83 1756.38 1165.63C1768.56 1158.16 1789.05 1143.48 1802.06 1132.68C1814.8 1121.61 1827.82 1110.25 1830.86 1106.93C1833.63 1103.61 1836.68 1101.67 1836.95 1102.5ZM2482.96 1145.42C2486.29 1145.42 2486.01 1146.25 2481.85 1148.47C2478.81 1150.13 2473.27 1154.28 2469.67 1157.6C2466.07 1160.65 2460.26 1167.57 2456.93 1173.11C2453.33 1178.37 2449.18 1187.79 2447.52 1193.88C2445.86 1199.97 2444.2 1210.77 2443.64 1217.97C2443.37 1225.17 2442.26 1230.15 2441.43 1229.04C2440.32 1227.94 2438.1 1222.68 2436.44 1217.41C2434.78 1211.88 2433.12 1203.85 2433.12 1199.42C2433.12 1194.43 2437 1185.29 2442.26 1177.26C2447.24 1169.51 2457.49 1159.27 2464.96 1154.28C2472.44 1149.3 2480.47 1145.42 2482.96 1145.42ZM2533.91 1185.02C2539.17 1187.23 2544.71 1192.49 2547.48 1198.03C2550.25 1203.57 2552.46 1213.82 2552.19 1221.57C2552.19 1229.04 2549.97 1240.4 2547.2 1246.49C2544.43 1252.58 2538.62 1260.89 2534.47 1265.04C2530.31 1269.2 2524.77 1272.79 2522.28 1272.79C2519.79 1272.79 2515.08 1273.35 2511.48 1274.18C2506.5 1275.29 2505.39 1274.18 2505.39 1269.2C2505.67 1265.87 2504.84 1250.64 2504.01 1235.41C2502.35 1210.49 2502.62 1206.62 2507.88 1198.03C2510.93 1192.77 2516.19 1186.96 2519.51 1185.02C2524.22 1182.53 2526.99 1182.53 2533.91 1185.02ZM1225.83 1449.18C1226.66 1449.46 1226.66 1450.57 1226.11 1451.12C1225.28 1451.95 1208.39 1458.87 1188.73 1466.9C1168.79 1474.66 1142.76 1484.62 1130.58 1489.05C1118.4 1493.76 1097.63 1501.51 1084.89 1506.5C1071.88 1511.76 1043.91 1522.84 1022.59 1531.14C1001.27 1539.73 970.531 1551.91 954.748 1558.83C938.688 1565.48 905.737 1580.99 881.369 1593.17C857.002 1605.35 823.774 1624.18 807.991 1634.7C791.93 1645.5 769.778 1662.67 758.425 1673.19C747.072 1683.72 731.289 1702.27 723.259 1714.45C715.229 1726.64 704.984 1745.19 700.276 1755.99C695.846 1766.51 688.37 1786.45 683.662 1800.29C679.232 1813.86 673.417 1833.24 671.202 1843.21C668.71 1852.9 664.833 1874.22 662.618 1890.28C660.126 1906.07 658.464 1923.51 659.849 1938.74L636.866 1939.29C617.206 1939.85 613.883 1939.29 612.222 1935.14C611.391 1932.65 613.329 1913.54 616.652 1893.05C619.975 1872.28 625.79 1843.49 629.39 1828.53C633.266 1813.86 641.02 1791.43 646.558 1778.69C652.372 1766.23 662.895 1746.02 670.371 1733.83C677.847 1721.65 692.523 1700.88 703.322 1688.15C714.121 1675.13 732.397 1655.47 744.027 1644.4C755.38 1633.32 775.593 1616.98 788.608 1608.4C801.345 1599.81 834.573 1581.26 861.986 1567.42C889.399 1553.57 934.257 1533.64 961.671 1522.56C989.084 1511.76 1027.57 1497.36 1047.51 1490.16C1067.17 1483.24 1099.01 1472.99 1118.12 1467.73C1136.95 1462.47 1168.79 1456.1 1188.45 1453.33C1207.84 1450.57 1224.73 1448.63 1225.83 1449.18Z" fill="white"/>
<path d="M502.015 337.985C501.738 357.645 501.184 340.477 501.184 299.219C501.184 257.961 501.738 241.901 502.015 263.222C502.569 284.543 502.569 318.325 502.015 337.985Z" fill="#DFDFEE"/>
<path d="M2750.45 307.526C2750.17 319.71 2749.62 308.634 2749.62 282.605C2749.62 256.576 2750.17 246.885 2750.45 260.453C2751 274.021 2751 295.342 2750.45 307.526Z" fill="#DFDFEE"/>
<path d="M502.015 1208.84C501.738 1360.3 501.461 1237.08 501.461 934.706C501.461 632.331 501.738 508.279 502.015 659.19C502.569 810.101 502.569 1057.37 502.015 1208.84Z" fill="#DFDFEE"/>
<path d="M1786.28 1393.53C1768 1394.08 1738.65 1394.08 1721.21 1393.53C1703.76 1393.25 1718.72 1392.7 1754.44 1392.7C1790.16 1392.7 1804.56 1393.25 1786.28 1393.53Z" fill="#DFDFEE"/>
<path d="M2750.45 1462.2C2750.17 1476.05 2749.62 1465.25 2749.62 1438.67C2749.62 1412.08 2750.17 1400.73 2750.45 1413.74C2751 1426.76 2751 1448.36 2750.45 1462.2Z" fill="#DFDFEE"/>
<path d="M1188.17 1466.63C1207.83 1458.88 1224.73 1451.13 1225.28 1449.74C1225.83 1448.08 1227.49 1447.8 1229.43 1448.91C1231.09 1449.74 1383.11 1450.57 1567.53 1450.3C1751.67 1450.02 1926.11 1450.85 1954.64 1451.96C1996.45 1453.62 2006.97 1454.73 2008.91 1458.05C2010.57 1460.82 2012.51 1461.37 2014.72 1459.43C2016.94 1457.49 2018.88 1458.05 2020.54 1460.82C2021.92 1463.31 2026.63 1464.97 2032.44 1464.97C2037.98 1464.69 2041.58 1465.25 2040.75 1466.36C2040.2 1467.19 2057.92 1473 2080.35 1479.37C2103.89 1486.02 2123.54 1490.17 2126.87 1489.34C2130.19 1488.23 2131.58 1488.51 2130.47 1490.17C2129.64 1491.55 2132.13 1492.94 2136.01 1492.94C2140.16 1493.21 2146.53 1494.88 2150.4 1496.81C2154.28 1498.75 2168.4 1504.57 2182.25 1509.55C2195.82 1514.54 2220.18 1524.23 2236.24 1530.87C2252.3 1537.52 2270.86 1546.1 2277.78 1549.7C2284.7 1553.03 2302.15 1562.72 2316.54 1571.02C2330.94 1579.33 2355.86 1595.67 2371.92 1607.3C2387.99 1618.93 2405.71 1632.77 2411.52 1638.03C2417.34 1643.3 2430.07 1657.14 2439.49 1668.49C2448.9 1679.85 2461.36 1696.74 2466.9 1705.87C2472.44 1715.01 2483.24 1738.83 2490.99 1758.49C2498.75 1778.15 2507.61 1804.45 2510.38 1816.63C2513.42 1828.82 2518.13 1849.86 2521.17 1863.71C2524.22 1877.55 2528.65 1899.71 2530.87 1913.55C2533.36 1927.4 2534.47 1939.02 2533.91 1939.86C2533.08 1940.69 2532.53 1939.86 2532.53 1938.47C2532.53 1936.81 2526.99 1936.53 2517.85 1937.64C2510.1 1938.47 2088.38 1939.58 659.295 1939.86L658.464 1929.61C658.187 1923.8 659.571 1906.07 662.064 1890.01C664.556 1873.95 668.432 1852.91 670.647 1842.94C673.14 1832.97 678.678 1813.87 683.385 1800.02C687.815 1786.18 695.292 1766.52 699.999 1755.72C704.429 1744.92 714.675 1726.37 722.705 1714.18C731.012 1702 746.795 1683.45 757.871 1672.92C769.224 1662.68 791.376 1645.23 807.436 1634.71C823.497 1623.91 856.448 1605.08 880.815 1592.9C905.182 1580.72 938.133 1565.21 954.194 1558.56C970.254 1551.92 1000.71 1539.46 1022.03 1531.15C1043.36 1522.57 1071.32 1511.49 1084.34 1506.51C1097.35 1501.24 1117.84 1493.49 1130.03 1489.06C1142.21 1484.63 1168.24 1474.39 1188.17 1466.63Z" fill="#DFDFEE"/>
<path d="M1945.5 1936.25C1751.39 1936.8 1434.34 1936.8 1240.79 1936.25C1047.51 1935.97 1206.17 1935.7 1593.83 1935.7C1981.5 1935.7 2139.61 1935.97 1945.5 1936.25Z" fill="white"/>
<path d="M2237.63 437.111C2245.1 432.958 2256.46 428.25 2262.55 426.035C2269.2 423.82 2282.76 422.712 2297.16 423.266C2315.16 423.82 2324.3 425.758 2335.93 431.019C2344.24 434.896 2356.7 443.48 2363.34 450.125C2369.99 457.048 2378.85 469.509 2382.72 477.816C2389.91 492.734 2389.92 494.146 2390.75 564.55L2390.75 565.039C2391.31 604.636 2390.48 649.494 2388.82 664.724C2387.15 679.953 2383.28 699.89 2380.23 709.028C2377.19 718.165 2371.37 731.733 2360.3 753.332L2368.88 769.946C2375.25 781.853 2377.46 790.16 2377.46 799.574C2377.46 807.05 2376.08 815.357 2374.69 818.403C2373.31 821.449 2367.49 825.88 2362.23 828.095C2354.76 831.418 2350.05 831.695 2341.47 829.479C2333.99 827.541 2328.17 823.665 2324.02 817.573C2320.42 812.865 2315.44 803.451 2312.95 796.805C2309.62 789.052 2308.24 776.591 2308.24 759.424C2308.24 738.102 2309.35 730.903 2315.44 715.95C2319.59 705.982 2324.58 691.583 2327.07 684.107C2329.84 674.138 2331.5 651.709 2332.33 603.805C2332.88 567.254 2332.33 536.242 2331.22 535.134C2330.11 533.749 2322.36 535.688 2314.05 539.288C2306.02 542.887 2297.99 548.148 2296.33 551.194C2294.39 554.794 2292.45 605.744 2291.07 692.414C2289.96 766.9 2287.75 848.032 2286.36 872.399C2284.7 896.766 2280.82 931.102 2278.06 948.547C2275.01 965.991 2269.2 991.466 2265.32 1005.31C2261.44 1019.16 2252.86 1041.31 2246.21 1055.15C2239.84 1069 2230.71 1085.61 2226 1092.54C2221.57 1099.46 2207.72 1115.52 2195.82 1128.26C2183.63 1140.99 2170.62 1153.18 2166.19 1155.11C2162.03 1157.33 2154.28 1158.99 2149.02 1158.99C2142.37 1158.99 2137.11 1156.78 2132.41 1152.07C2127.7 1147.36 2125.48 1142.1 2125.48 1135.45C2125.48 1130.19 2126.87 1122.99 2128.81 1119.39C2130.47 1116.07 2141.27 1103.33 2152.34 1091.15C2163.7 1078.97 2177.54 1062.08 2183.08 1053.77C2188.62 1045.46 2196.65 1029.12 2200.8 1017.77C2205.23 1006.42 2211.6 982.052 2215.48 963.776C2219.08 945.501 2224.06 915.596 2226.28 897.32C2228.49 879.045 2230.98 856.616 2232.92 830.864L2222.68 830.587C2216.31 830.31 2207.72 826.987 2199.42 821.726C2192.22 816.742 2183.36 807.604 2179.48 800.959C2175.6 794.59 2170.62 781.853 2168.13 772.715C2165.63 762.469 2164.25 748.071 2165.63 714.566L2176.71 712.904C2182.8 712.074 2185.85 710.966 2183.63 710.689C2180.86 710.504 2180.49 709.674 2182.53 708.197C2184.46 707.089 2186.4 690.198 2187.79 664.724C2188.89 641.741 2188.89 612.389 2186.4 574.731H2175.33C2167.02 574.731 2163.42 573.346 2161.48 569.193C2160.1 566.147 2158.71 558.947 2158.71 553.133C2158.71 546.764 2162.87 534.303 2170.06 519.351C2176.43 506.336 2185.29 490.276 2189.72 483.354C2194.43 476.431 2204.12 464.801 2211.05 457.602C2217.97 450.125 2229.88 440.988 2237.63 437.111Z" fill="#2929CF"/>
<path d="M2164.25 714.565V644.786V574.73H2187.79L2188.62 597.436C2189.17 610.174 2188.62 640.079 2187.23 664.169C2185.85 689.644 2183.91 707.643 2182.25 707.643C2180.86 707.643 2181.42 708.75 2183.63 710.135C2186.68 712.073 2184.46 712.904 2164.25 714.565Z" fill="#DFDFEE"/>
<path d="M2250.64 498.026C2254.24 494.703 2262.55 488.888 2269.47 485.012C2277.5 480.581 2286.09 477.812 2293.01 478.089C2299.1 478.089 2306.58 479.197 2309.62 480.581C2314.05 482.52 2312.67 483.074 2304.08 483.074C2297.99 483.074 2286.36 486.673 2278.33 490.55C2268.09 495.534 2260.89 501.349 2255.35 509.933C2250.92 516.579 2245.66 530.424 2243.44 540.669C2241.23 551.191 2237.35 583.865 2234.86 613.494C2232.64 643.122 2230.71 689.918 2230.71 717.332C2230.71 752.775 2229.87 768.281 2227.38 770.496C2225.44 772.435 2219.91 774.096 2214.92 774.096C2209.66 774.096 2203.85 771.881 2201.35 769.112C2198.86 766.62 2195.26 761.913 2193.6 758.867C2191.66 754.99 2190.83 724.808 2192.22 573.343L2199.14 565.036C2202.74 560.606 2214.37 544.822 2224.89 530.424C2235.41 516.025 2247.04 501.349 2250.64 498.026Z" fill="white"/>
<path d="M2232.65 735.335C2232.37 749.734 2231.81 736.719 2231.81 706.26C2231.81 675.801 2232.37 663.894 2232.65 679.955C2233.2 696.015 2233.2 720.936 2232.65 735.335Z" fill="#DFDFEE"/>
</g>
<rect x="2.65625" y="3.19141" width="3495" height="1995" stroke="#00009C" stroke-width="5"/>
<defs>
<clipPath id="clip0_101_22">
<rect x="0.15625" y="0.691406" width="3500" height="2000" fill="white"/>
</clipPath>
</defs>
</svg>
