<svg width="351" height="201" viewBox="0 0 351 201" fill="none" xmlns="http://www.w3.org/2000/svg">
<rect x="0.40625" y="0.572266" width="349.5" height="199.5" fill="white"/>
<path d="M155.511 18.8523C156.505 18.5812 158.086 18.2197 159.013 18.0616C160.12 17.8582 162.085 17.7905 164.774 17.8356C168.276 17.9034 169.157 17.9938 171.213 18.5134C172.523 18.8523 174.76 19.5753 176.183 20.1401C177.607 20.7049 179.211 21.4279 180.702 22.2639H215.563C249.836 22.2639 250.423 22.2639 252.208 22.7157C253.383 23.0094 254.648 23.5516 255.801 24.252C256.772 24.8394 258.082 25.8787 258.692 26.5565C259.325 27.2343 260.161 28.4995 260.59 29.3806C260.997 30.2617 261.449 31.6173 261.562 32.4307C261.72 33.4247 261.81 50.2338 261.81 84.3943C261.81 126.123 261.743 135.138 261.494 136.358C261.336 137.171 260.861 138.459 260.477 139.227C260.093 140.018 259.212 141.215 258.534 141.893C257.744 142.684 256.682 143.43 253.812 144.83L233.343 144.943L234.767 146.683C235.557 147.654 236.619 149.055 237.116 149.801C237.636 150.546 238.562 152.173 239.172 153.416C239.805 154.658 240.686 156.805 241.138 158.16C241.59 159.516 242.493 163.266 244.301 172.348L269.899 172.168L270.441 172.687C270.734 172.958 271.051 173.117 271.164 173.026C271.277 172.913 271.299 173.071 271.209 173.343C271.141 173.636 271.141 173.862 271.254 173.862C271.344 173.862 271.367 174.246 271.322 174.721C271.277 175.173 271.073 175.783 270.87 176.076C270.667 176.37 270.147 176.686 269.718 176.799C269.289 176.89 224.555 176.935 170.309 176.89C90.624 176.822 71.6234 176.754 71.3748 176.528C71.2167 176.37 70.923 175.918 70.7422 175.557C70.5389 175.127 70.4485 174.585 70.5389 174.088C70.6067 173.659 70.9004 173.071 71.1941 172.8C71.646 172.348 71.9623 172.303 77.1134 172.168L77.8138 167.875C78.2205 165.503 78.8531 162.453 79.2372 161.097C79.6438 159.742 80.525 157.437 81.2028 156.014C81.9031 154.59 83.1006 152.444 83.8913 151.269C84.6821 150.094 86.1506 148.174 87.1447 147.022C88.1614 145.892 88.9747 144.921 88.9747 144.875C88.9747 144.853 86.3991 144.853 83.2813 144.898C78.1527 144.943 77.4072 144.921 76.0968 144.514C75.2156 144.243 74.0634 143.655 73.2275 143.045C72.4367 142.481 71.3974 141.464 70.923 140.809C70.4259 140.176 69.7256 139.024 69.3641 138.278C69.0026 137.533 68.6411 136.652 68.5507 136.313C68.483 135.951 68.4152 112.161 68.37 31.188L68.8444 29.9454C69.1156 29.2676 69.5448 28.3187 69.8159 27.8669C70.1096 27.3924 70.9456 26.3984 71.6911 25.6302C72.5723 24.7491 73.589 23.9809 74.6282 23.4839C75.5093 23.0546 76.8197 22.6027 77.5653 22.4898C78.4012 22.3542 91.9118 22.2639 147.942 22.2639L149.23 21.4957C149.953 21.089 151.241 20.4338 152.122 20.0497C153.003 19.6657 154.517 19.1234 155.511 18.8523Z" fill="#2929CF"/>
<path d="M244.775 179.51C244.979 178.765 245.046 178.697 246.334 178.471C247.08 178.313 248.322 178.2 249.113 178.177C249.881 178.155 250.762 178.245 251.079 178.381C251.395 178.494 251.802 178.9 251.982 179.284C252.163 179.646 252.321 180.256 252.321 180.64C252.321 181.069 252.073 181.589 251.011 182.786L248.548 182.764C247.125 182.764 245.905 182.651 245.611 182.493C245.295 182.334 245.001 181.86 244.843 181.25C244.685 180.663 244.662 180.007 244.775 179.51Z" fill="#2929CF"/>
<path fill-rule="evenodd" clip-rule="evenodd" d="M68.3474 62.0275C68.3926 74.5214 68.3926 95.0583 68.3474 107.665C68.3248 120.272 68.3022 110.06 68.3022 84.9593C68.3022 59.8586 68.3248 49.5337 68.3474 62.0275ZM83.2136 145.034C85.6988 145.034 86.7606 145.079 85.5858 145.102C84.411 145.147 82.3776 145.147 81.0672 145.102C79.7568 145.079 80.7283 145.034 83.2136 145.034ZM246.447 145.034C249.362 145.034 250.536 145.079 249.045 145.102C247.554 145.147 245.159 145.147 243.736 145.102C242.313 145.079 243.533 145.034 246.447 145.034ZM248.029 162.137C248.209 162.137 251.372 162.363 255.032 162.679C258.693 162.995 263.482 163.447 265.651 163.718C267.82 163.967 271.141 164.373 272.994 164.622C274.869 164.87 276.993 165.254 277.738 165.503C278.484 165.752 279.501 166.294 279.998 166.7C280.585 167.197 281.105 167.92 281.466 168.802C281.85 169.705 282.031 170.541 282.008 171.377C282.008 172.055 281.828 173.139 281.624 173.749C281.421 174.382 280.924 175.218 280.517 175.625C279.862 176.28 279.636 176.348 278.529 176.348C277.829 176.348 276.044 176.009 274.462 175.579C272.384 175.015 271.593 174.879 271.457 175.06C271.345 175.218 271.299 175.015 271.345 174.608C271.39 174.201 271.345 173.862 271.254 173.862C271.141 173.862 271.141 173.636 271.232 173.365C271.322 173.049 271.299 172.913 271.164 173.004C271.051 173.094 270.757 172.981 270.509 172.71C270.26 172.462 269.876 172.258 269.673 172.281C269.447 172.281 269.266 172.168 269.266 172.055C269.266 171.919 268.159 171.829 266.397 171.829C264.115 171.829 263.211 171.716 262.149 171.355C261.404 171.106 259.461 170.609 257.857 170.225C256.252 169.841 254.151 169.253 253.225 168.96C252.299 168.643 250.83 168.011 249.972 167.559C249.113 167.107 247.916 166.294 247.328 165.729C246.718 165.141 246.199 164.419 246.108 164.034C245.995 163.56 246.086 163.199 246.334 162.86C246.538 162.589 246.922 162.317 247.193 162.272C247.464 162.227 247.848 162.159 248.029 162.137ZM253.677 172.168C258.964 172.168 261.087 172.19 258.421 172.213C255.755 172.258 251.418 172.258 248.819 172.213C246.221 172.19 248.39 172.168 253.677 172.168ZM115.521 176.912C125.598 176.912 129.755 176.935 124.784 176.958C119.814 177.003 111.59 177.003 106.484 176.958C101.378 176.935 105.445 176.912 115.521 176.912ZM145.683 176.912C150.97 176.912 153.093 176.935 150.427 176.958C147.761 177.003 143.446 177.003 140.825 176.958C138.205 176.935 140.396 176.912 145.683 176.912ZM185.672 176.912C200.651 176.912 206.751 176.935 199.228 176.958C191.705 177.003 179.459 177.003 172.004 176.958C164.548 176.935 170.693 176.912 185.672 176.912ZM235.829 178.313C236.258 178.336 238.811 178.404 241.477 178.404C244.143 178.426 246.063 178.494 245.724 178.516C245.272 178.584 245.024 178.788 244.843 179.239C244.708 179.578 244.662 180.279 244.73 180.821C244.798 181.341 245.046 181.951 245.272 182.177C245.634 182.561 245.611 182.583 244.527 182.628C243.917 182.651 240.505 182.719 236.958 182.787C232.891 182.854 230.293 182.832 229.909 182.674C229.548 182.561 229.322 182.335 229.39 182.222C229.457 182.109 229.39 181.996 229.277 181.996C229.164 181.996 228.983 181.657 228.915 181.273C228.825 180.866 228.847 180.369 228.96 180.188C229.073 180.008 229.186 179.691 229.209 179.511C229.254 179.33 229.457 178.991 229.661 178.765C230 178.449 230.542 178.358 232.553 178.313C233.908 178.268 235.399 178.268 235.829 178.313Z" fill="#DFDFEE"/>
<path fill-rule="evenodd" clip-rule="evenodd" d="M164.051 22.7158C166.062 22.7158 167.959 22.8514 169.179 23.0773C170.241 23.2806 172.207 23.8229 173.585 24.2747C174.963 24.7492 176.409 25.2914 177.539 25.8788L176.725 26.6696C176.274 27.0988 175.867 27.4603 175.822 27.4603C175.777 27.4603 174.895 27.0537 173.856 26.5792C172.84 26.1048 171.145 25.4496 170.083 25.1333C169.021 24.817 167.146 24.2747 165.903 23.9584C164.661 23.6421 163.012 23.3032 162.221 23.2129C161.453 23.1225 160.82 22.9869 160.82 22.8966C160.82 22.7836 162.266 22.7158 164.028 22.7158L164.051 22.7158ZM184.226 26.9181C184.475 27.0311 198.979 27.1666 217.664 27.2344C244.21 27.3474 250.83 27.4151 251.553 27.6637C252.05 27.8218 252.818 28.1381 253.248 28.364C253.677 28.59 254.422 29.1774 254.874 29.6518C255.326 30.1263 255.936 31.0074 256.727 32.7697L256.817 78.1814C256.84 103.147 256.795 126.395 256.478 136.019L255.823 137.126C255.462 137.736 254.852 138.482 254.49 138.753C254.129 139.047 253.428 139.431 252.954 139.611C252.434 139.837 251.011 140.018 246.131 140.267L245.408 138.256C245.001 137.149 244.436 135.274 244.12 134.099C243.804 132.924 243.397 131.184 243.216 130.258C243.036 129.332 242.674 127.163 242.403 125.446C242.154 123.751 241.951 121.989 241.951 121.56C241.951 121.017 242.132 120.566 242.539 120.136C242.855 119.797 243.397 119.12 243.736 118.623C244.097 118.126 244.572 117.154 244.798 116.476C245.114 115.527 245.227 114.601 245.227 112.636C245.227 110.263 245.159 109.902 244.549 108.456C244.052 107.281 243.51 106.49 242.403 105.383C241.522 104.502 240.437 103.666 239.692 103.305C239.014 102.988 237.794 102.604 236.981 102.446C235.851 102.243 235.196 102.22 234.157 102.424C233.411 102.582 232.191 102.988 231.445 103.35C230.542 103.779 229.683 104.457 228.892 105.315C228.237 106.061 227.424 107.281 226.475 109.427L223.99 109.54C222.634 109.608 220.895 109.834 220.149 110.037C219.403 110.241 218.183 110.693 217.438 111.054C216.692 111.416 215.314 112.206 214.388 112.839C213.462 113.449 211.722 114.804 210.547 115.844C209.372 116.883 207.836 118.08 207.158 118.532C206.48 118.984 205.396 119.617 204.786 119.91C204.153 120.227 202.843 120.746 201.849 121.063C200.855 121.379 199.77 121.695 199.409 121.763C199.07 121.831 198.55 122.147 198.234 122.463C197.827 122.87 197.669 123.277 197.669 123.932C197.669 124.429 197.85 125.107 198.053 125.423C198.302 125.762 198.821 126.078 199.296 126.214C199.906 126.349 200.516 126.327 201.442 126.078C202.165 125.898 203.408 125.536 204.221 125.288C205.034 125.016 206.345 124.497 207.158 124.113C207.971 123.729 209.078 123.096 209.643 122.712C210.208 122.328 211.925 120.972 213.484 119.662C215.043 118.374 216.873 116.996 217.551 116.612C218.229 116.205 219.403 115.64 220.149 115.301C220.895 114.985 222.273 114.601 223.199 114.466C224.125 114.33 225.232 114.149 225.616 114.104C226.181 114.014 226.362 114.081 226.362 114.33C226.362 114.511 226.678 115.301 227.085 116.07C227.469 116.86 228.305 118.035 228.938 118.713C229.57 119.368 230.7 120.362 231.445 120.905C232.191 121.447 233.388 122.079 234.089 122.35C234.812 122.599 235.806 122.802 236.303 122.802C236.958 122.802 237.207 122.893 237.207 123.141C237.207 123.322 237.365 124.678 237.568 126.123C237.749 127.592 238.246 130.416 238.675 132.404C239.104 134.392 239.76 136.923 240.754 140.086L227.492 140.199L225.052 138.663C223.719 137.827 221.008 136.313 219.019 135.319C217.031 134.302 213.62 132.811 211.451 131.998C209.282 131.162 205.667 129.987 203.43 129.354C201.194 128.699 198.618 128.044 197.714 127.863C196.811 127.682 194.709 127.547 189.875 127.547L188.361 125.22C187.525 123.955 186.463 122.102 186.011 121.108C185.559 120.114 184.994 118.532 184.746 117.606C184.52 116.68 184.249 115.008 184.181 113.878C184.091 112.364 184.136 111.528 184.407 110.602C184.61 109.924 185.492 108.14 186.395 106.648C187.276 105.157 188.429 103.079 188.971 102.017C189.513 100.955 190.213 99.3283 190.552 98.402C190.869 97.4757 191.546 95.239 192.043 93.4316C192.518 91.6241 192.925 89.8167 192.925 88.6871L194.461 88.6193C195.613 88.5741 196.314 88.4159 197.443 87.8511C198.392 87.3993 199.431 86.6311 200.38 85.6596C201.194 84.8237 202.233 83.5359 202.685 82.7451C203.159 81.977 203.837 80.531 204.198 79.5369C204.56 78.5429 205.08 76.7128 205.351 75.4702C205.69 73.8435 205.87 72.0135 205.961 69.0312C206.028 66.659 205.983 64.219 205.87 63.383C205.735 62.5697 205.328 61.2593 204.944 60.4459C204.583 59.6326 203.927 58.6385 203.498 58.2093C203.091 57.8026 202.414 57.3055 202.03 57.1474C201.623 56.9666 200.968 56.8311 200.606 56.8311C200.245 56.8311 199.702 56.944 199.431 57.0796C199.138 57.2378 198.844 57.4637 198.754 57.5992C198.663 57.7348 198.573 56.7633 198.573 55.4077C198.573 54.0748 198.46 51.9962 198.324 50.7762C198.189 49.5788 197.805 47.2065 197.443 45.5346C197.014 43.4787 196.494 41.739 195.816 40.2253C195.274 38.9827 194.325 37.1979 193.715 36.2716C193.105 35.3227 191.479 33.4474 190.01 31.9563C188.564 30.533 186.689 28.8611 185.808 28.2511C184.927 27.6411 184.113 27.0537 184 26.9407C183.85 26.7901 183.925 26.7825 184.226 26.9181ZM140.78 27.0537C140.848 27.0311 139.876 28.0477 138.589 29.3129C137.007 30.8944 135.787 32.3856 134.77 33.9445C133.957 35.2323 132.873 37.1527 132.398 38.2371C131.901 39.3442 131.201 41.1516 130.817 42.2587C130.455 43.3657 129.936 45.2635 129.664 46.4384C129.393 47.6132 129.032 49.6014 128.874 50.844C128.693 52.0866 128.535 53.9844 128.535 57.057L127.97 56.8311C127.654 56.6955 126.953 56.6052 126.389 56.6052C125.824 56.6052 125.056 56.7633 124.694 56.944C124.333 57.1248 123.632 57.8252 123.135 58.4578C122.661 59.113 122.096 60.1071 121.893 60.6719C121.667 61.2367 121.35 62.5019 121.17 63.496C120.989 64.4901 120.853 66.772 120.853 68.5794C120.853 70.3868 121.011 72.7817 121.192 73.8887C121.373 74.9958 121.734 76.7354 121.983 77.7295C122.231 78.7236 122.841 80.3729 123.338 81.3896C124.039 82.8581 124.671 83.7166 126.23 85.3207C127.563 86.7215 128.58 87.5574 129.439 87.9641C130.433 88.4385 131.02 88.5741 133.957 88.5741V89.3648C133.957 89.7941 134.273 91.3756 134.635 92.8667C134.996 94.3579 135.719 96.5946 136.216 97.8372C136.713 99.0798 137.843 101.429 138.724 103.034C139.583 104.638 140.645 106.716 141.074 107.597C141.503 108.501 141.978 109.834 142.113 110.534C142.271 111.325 142.294 112.613 142.204 113.765C142.113 114.827 141.752 116.68 141.39 117.877C141.029 119.097 140.351 120.882 139.854 121.831C139.379 122.802 138.566 124.248 138.046 125.062C137.527 125.875 137.052 126.733 136.985 126.982C136.872 127.411 136.691 127.434 131.743 127.434C126.66 127.434 126.592 127.434 123.677 128.202C122.073 128.609 118.91 129.603 116.674 130.371C114.437 131.162 111.794 132.088 110.799 132.472C109.805 132.834 108.54 133.353 107.975 133.602C107.41 133.85 106.303 134.325 105.49 134.664C104.677 135.002 102.53 136.042 100.7 136.945C98.8478 137.872 96.7918 138.979 94.8714 140.199L86.4669 140.131C79.0112 140.086 77.9494 140.041 77.249 139.702C76.8197 139.476 76.0064 138.934 75.4642 138.459C74.8993 137.985 74.2215 137.104 73.4082 135.341V31.8659L73.8827 30.9622C74.1538 30.4652 74.6734 29.7196 75.0801 29.3129C75.4642 28.9063 76.3453 28.2963 78.2657 27.3474L109.444 27.2344C126.592 27.1666 140.69 27.0988 140.78 27.0537ZM187.254 35.7067C189.152 37.5593 189.332 37.8079 189.219 38.4179C189.152 38.7794 188.993 39.7057 188.88 40.4512C188.745 41.1968 188.542 44.4954 188.406 47.7939C188.248 51.7703 188.022 54.6848 187.706 56.4922C187.457 57.9833 187.073 59.5196 186.847 59.8811C186.644 60.2426 186.26 60.5815 186.011 60.6267C185.785 60.6719 185.333 60.4685 185.062 60.1748C184.769 59.8811 184.43 59.4745 184.317 59.2485C184.181 59 184.271 58.4352 184.565 57.5541C184.814 56.8537 185.22 55.1592 185.469 53.781C185.695 52.4029 186.011 50.0758 186.147 48.5847C186.327 46.5965 186.327 44.8569 186.147 42.0327C186.011 39.909 185.808 37.469 185.695 36.5653C185.582 35.6615 185.424 34.6449 185.356 34.306C185.22 33.7863 185.537 34.0123 187.254 35.7067ZM193.038 50.5051C193.218 52.064 193.354 54.3007 193.354 55.4755C193.376 56.6503 193.309 58.2318 193.083 60.333L191.366 58.5256L191.705 57.5541C191.885 57.0344 192.179 55.3174 192.36 53.7133C192.54 52.1318 192.721 50.1436 192.721 49.2625C192.744 47.8391 192.789 47.9747 193.038 50.5051ZM198.324 58.6385C198.482 58.6385 199.07 59.3841 199.612 60.2652C200.132 61.1689 200.697 62.2308 200.832 62.5923C200.968 62.9538 201.148 64.1286 201.216 65.1905C201.284 66.2523 201.216 68.3761 201.058 69.935C200.922 71.4939 200.651 73.5272 200.471 74.4535C200.29 75.3798 199.996 76.7128 199.793 77.3906C199.589 78.0684 199.138 79.198 198.799 79.8758C198.437 80.5536 197.714 81.5477 197.172 82.0448C196.652 82.5644 195.749 83.31 195.184 83.694C194.619 84.0781 194.099 84.3944 194.009 84.3944C193.896 84.3944 193.896 84.0103 193.964 83.5359C194.032 83.084 194.483 81.2314 194.981 79.424C195.478 77.6165 196.155 74.6117 196.517 72.7591C196.878 70.8839 197.24 68.9635 197.308 68.4664C197.398 67.9694 197.646 65.6875 197.872 63.383C198.121 61.0785 198.256 59.0678 198.189 58.9096C198.098 58.7741 198.189 58.6385 198.324 58.6385ZM128.874 59L129.054 61.2367C129.145 62.4793 129.439 65.1679 129.664 67.2238C129.913 69.2798 130.41 72.4654 130.772 74.3406C131.133 76.1932 131.788 79.1755 132.195 80.9377C132.602 82.6999 132.895 84.1685 132.827 84.1685C132.76 84.1685 132.263 83.8974 131.698 83.5359C131.133 83.1744 130.342 82.5418 129.913 82.1125C129.484 81.6833 128.874 80.9377 128.535 80.4407C128.196 79.9436 127.654 78.8592 127.337 78.0006C126.999 77.1647 126.524 75.4928 126.276 74.2728C126.05 73.0754 125.779 70.9742 125.688 69.5961C125.598 68.1275 125.643 66.2975 125.801 65.1227C125.937 64.0382 126.253 62.773 126.479 62.2986C126.705 61.8467 127.36 60.8978 127.88 60.22L128.874 59ZM134.138 61.2593L134.793 62.163C135.155 62.6601 135.968 63.4282 136.578 63.8801C137.188 64.3093 137.866 64.7386 138.092 64.829C138.318 64.9193 138.521 65.2808 138.589 65.7101C138.656 66.1168 138.815 67.8112 138.95 69.5057C139.086 71.1776 139.402 74.0243 139.651 75.8317C139.899 77.6165 140.441 80.4181 140.871 82.0448C141.3 83.6488 142.068 86.0889 142.61 87.467C143.152 88.8226 143.988 90.6978 144.485 91.6467C145.005 92.573 145.841 93.9512 146.383 94.6968C146.925 95.4423 147.942 96.7075 148.643 97.4983C149.32 98.289 150.811 99.6446 151.918 100.526C153.048 101.384 154.833 102.514 155.872 103.056C156.934 103.576 158.561 104.231 159.487 104.479C160.436 104.751 162.153 105.112 163.328 105.293C164.525 105.496 166.649 105.654 168.072 105.654C170.603 105.677 170.671 105.7 169.88 106.038C169.451 106.219 168.276 106.581 167.282 106.852C165.903 107.213 164.909 107.326 162.989 107.304C161.069 107.281 160.075 107.145 158.583 106.694C157.544 106.4 155.85 105.767 154.856 105.315C153.861 104.864 152.19 103.915 151.15 103.214C150.088 102.491 148.258 100.955 147.061 99.7802C145.886 98.5827 144.192 96.6172 143.311 95.3746C142.429 94.132 141.232 92.189 140.69 91.0819C140.125 89.9523 139.289 87.9641 138.837 86.6763C138.385 85.3659 137.504 82.1125 136.894 79.4466C136.284 76.758 135.471 72.6913 135.109 70.4094C134.725 68.1049 134.364 65.1001 134.273 63.7445L134.138 61.2593ZM182.238 103.734C182.283 103.779 182.012 104.344 181.651 104.977C181.267 105.587 180.702 106.739 180.408 107.507C180.092 108.298 179.685 109.653 179.504 110.557C179.301 111.461 179.166 112.636 179.166 113.155C179.166 113.697 179.301 115.03 179.504 116.16C179.685 117.267 180.047 118.939 180.295 119.888C180.566 120.814 181.131 122.328 181.56 123.277C181.99 124.203 182.758 125.491 183.232 126.146C183.729 126.801 184.113 127.366 184.068 127.389C184.046 127.434 174.647 127.434 142.339 127.343L143.356 125.581C143.921 124.632 144.689 123.028 145.073 122.034C145.457 121.04 146.067 119.052 146.451 117.629C147.038 115.414 147.129 114.601 147.151 112.206C147.151 109.97 147.061 109.066 146.7 107.914C146.451 107.1 146.135 106.242 146.044 105.993C145.864 105.609 145.886 105.587 146.293 105.835C146.541 105.993 147.445 106.671 148.326 107.349C149.185 108.027 150.721 109.021 151.715 109.518C152.709 110.037 154.359 110.76 155.375 111.099C156.414 111.461 158.244 111.913 159.442 112.116C161.001 112.364 162.379 112.432 164.141 112.342C165.497 112.274 167.462 112.003 168.479 111.754C169.518 111.506 171.145 110.986 172.094 110.625C173.065 110.263 174.67 109.473 175.664 108.885C176.658 108.275 178.33 107.078 179.391 106.197C180.431 105.293 181.493 104.367 181.741 104.095C181.967 103.824 182.216 103.666 182.238 103.734ZM234.947 107.236C235.218 107.236 235.196 107.304 234.857 107.484C234.608 107.62 234.157 107.959 233.863 108.23C233.569 108.478 233.095 109.043 232.824 109.495C232.53 109.924 232.191 110.693 232.055 111.19C231.92 111.687 231.784 112.568 231.739 113.155C231.717 113.743 231.626 114.149 231.558 114.059C231.468 113.968 231.287 113.539 231.152 113.11C231.016 112.658 230.881 112.003 230.881 111.641C230.881 111.235 231.197 110.489 231.626 109.834C232.033 109.201 232.869 108.365 233.479 107.959C234.089 107.552 234.744 107.236 234.947 107.236ZM239.104 110.467C239.534 110.647 239.986 111.077 240.211 111.528C240.437 111.98 240.618 112.816 240.596 113.449C240.596 114.059 240.415 114.985 240.189 115.482C239.963 115.979 239.489 116.657 239.15 116.996C238.811 117.335 238.359 117.629 238.156 117.629C237.952 117.629 237.568 117.674 237.274 117.742C236.868 117.832 236.777 117.742 236.777 117.335C236.8 117.064 236.732 115.821 236.664 114.579C236.529 112.545 236.551 112.229 236.981 111.528C237.229 111.099 237.658 110.625 237.93 110.467C238.314 110.263 238.54 110.263 239.104 110.467ZM132.376 132.02C132.443 132.043 132.443 132.133 132.398 132.178C132.33 132.246 130.952 132.811 129.348 133.466C127.722 134.099 125.598 134.912 124.604 135.274C123.61 135.658 121.915 136.29 120.876 136.697C119.814 137.126 117.532 138.03 115.792 138.708C114.053 139.408 111.545 140.402 110.257 140.967C108.947 141.509 106.258 142.774 104.27 143.769C102.282 144.763 99.5708 146.299 98.283 147.157C96.9726 148.039 95.1652 149.439 94.2388 150.298C93.3125 151.156 92.0247 152.67 91.3695 153.664C90.7144 154.658 89.8784 156.172 89.4943 157.053C89.1329 157.912 88.5228 159.538 88.1388 160.668C87.7773 161.775 87.3028 163.357 87.1221 164.17C86.9187 164.961 86.6024 166.7 86.4217 168.011C86.2184 169.298 86.0828 170.722 86.1958 171.964L84.3206 172.01C82.7165 172.055 82.4454 172.01 82.3098 171.671C82.242 171.467 82.4002 169.908 82.6713 168.237C82.9424 166.542 83.4169 164.192 83.7106 162.972C84.0269 161.775 84.6595 159.945 85.1113 158.906C85.5858 157.889 86.4443 156.24 87.0543 155.246C87.6643 154.252 88.8617 152.557 89.7429 151.518C90.624 150.456 92.1151 148.852 93.064 147.948C93.9903 147.044 95.6396 145.712 96.7015 145.011C97.7407 144.311 100.452 142.797 102.689 141.667C104.925 140.538 108.585 138.911 110.822 138.007C113.059 137.126 116.199 135.951 117.826 135.364C119.43 134.799 122.028 133.963 123.587 133.534C125.123 133.105 127.722 132.585 129.326 132.359C130.907 132.133 132.285 131.975 132.376 132.02Z" fill="white"/>
<path d="M73.3179 41.3544C73.2953 42.9585 73.2501 41.5578 73.2501 38.1914C73.2501 34.8251 73.2953 33.5147 73.3179 35.2544C73.3631 36.994 73.3631 39.7504 73.3179 41.3544Z" fill="#DFDFEE"/>
<path d="M256.772 38.8692C256.75 39.8633 256.704 38.9596 256.704 36.8359C256.704 34.7121 256.75 33.9214 256.772 35.0284C256.817 36.1355 256.817 37.8751 256.772 38.8692Z" fill="#DFDFEE"/>
<path d="M73.3179 112.409C73.2953 124.767 73.2727 114.714 73.2727 90.0421C73.2727 65.3707 73.2953 55.2491 73.3179 67.5622C73.3631 79.8753 73.3631 100.051 73.3179 112.409Z" fill="#DFDFEE"/>
<path d="M178.104 127.479C176.613 127.524 174.218 127.524 172.794 127.479C171.371 127.456 172.591 127.411 175.506 127.411C178.42 127.411 179.595 127.456 178.104 127.479Z" fill="#DFDFEE"/>
<path d="M256.772 133.082C256.75 134.211 256.704 133.33 256.704 131.161C256.704 128.992 256.75 128.066 256.772 129.128C256.817 130.19 256.817 131.952 256.772 133.082Z" fill="#DFDFEE"/>
<path d="M129.303 133.443C130.907 132.81 132.285 132.178 132.331 132.065C132.376 131.929 132.511 131.907 132.669 131.997C132.805 132.065 145.208 132.133 160.255 132.11C175.28 132.087 189.513 132.155 191.84 132.246C195.252 132.381 196.11 132.472 196.268 132.743C196.404 132.969 196.562 133.014 196.743 132.856C196.924 132.698 197.082 132.743 197.217 132.969C197.33 133.172 197.714 133.308 198.189 133.308C198.641 133.285 198.934 133.33 198.867 133.42C198.821 133.488 200.267 133.963 202.097 134.482C204.018 135.025 205.622 135.363 205.893 135.296C206.164 135.205 206.277 135.228 206.187 135.363C206.119 135.476 206.322 135.589 206.639 135.589C206.977 135.612 207.497 135.748 207.813 135.906C208.13 136.064 209.282 136.538 210.412 136.945C211.519 137.352 213.507 138.142 214.817 138.685C216.128 139.227 217.641 139.927 218.206 140.221C218.771 140.492 220.194 141.283 221.369 141.961C222.544 142.638 224.577 143.971 225.888 144.92C227.198 145.869 228.644 146.999 229.118 147.428C229.593 147.857 230.632 148.987 231.4 149.913C232.168 150.84 233.185 152.218 233.637 152.963C234.089 153.709 234.97 155.652 235.603 157.256C236.235 158.86 236.958 161.006 237.184 162C237.433 162.995 237.817 164.712 238.065 165.841C238.314 166.971 238.675 168.778 238.856 169.908C239.059 171.038 239.15 171.987 239.104 172.054C239.037 172.122 238.992 172.054 238.992 171.941C238.992 171.806 238.54 171.783 237.794 171.874C237.161 171.941 202.753 172.032 86.1507 172.054L86.0829 171.218C86.0603 170.744 86.1733 169.298 86.3766 167.988C86.5799 166.677 86.8962 164.96 87.077 164.147C87.2803 163.333 87.7322 161.775 88.1162 160.645C88.4777 159.515 89.0877 157.911 89.4718 157.03C89.8333 156.149 90.6692 154.635 91.3244 153.641C92.0022 152.647 93.29 151.133 94.1937 150.275C95.12 149.439 96.9275 148.015 98.2379 147.157C99.5482 146.276 102.237 144.74 104.225 143.745C106.213 142.751 108.902 141.486 110.212 140.944C111.522 140.402 114.008 139.385 115.747 138.707C117.487 138.007 119.769 137.103 120.831 136.696C121.893 136.267 123.564 135.635 124.559 135.273C125.553 134.912 127.676 134.076 129.303 133.443Z" fill="#DFDFEE"/>
<path d="M191.095 171.761C175.257 171.806 149.388 171.806 133.596 171.761C117.826 171.738 130.772 171.716 162.402 171.716C194.032 171.716 206.932 171.738 191.095 171.761Z" fill="white"/>
<path d="M214.93 49.4429C215.54 49.104 216.466 48.7199 216.964 48.5392C217.506 48.3585 218.613 48.2681 219.788 48.3133C221.256 48.3585 222.002 48.5166 222.951 48.9459C223.628 49.2622 224.645 49.9626 225.187 50.5048C225.73 51.0696 226.453 52.0863 226.769 52.7641C227.355 53.9813 227.356 54.0965 227.424 59.8409L227.424 59.8808C227.469 63.1116 227.401 66.7717 227.266 68.0143C227.13 69.2569 226.814 70.8836 226.565 71.6291C226.317 72.3747 225.843 73.4818 224.939 75.244L225.639 76.5996C226.159 77.5711 226.34 78.2489 226.34 79.017C226.34 79.627 226.227 80.3048 226.114 80.5533C226.001 80.8018 225.526 81.1633 225.097 81.3441C224.487 81.6152 224.103 81.6378 223.402 81.457C222.792 81.2989 222.318 80.9826 221.979 80.4855C221.685 80.1015 221.279 79.3333 221.075 78.7911C220.804 78.1585 220.691 77.1418 220.691 75.741C220.691 74.0014 220.782 73.414 221.279 72.194C221.618 71.3806 222.024 70.2058 222.228 69.5958C222.454 68.7824 222.589 66.9524 222.657 63.0438C222.702 60.0616 222.657 57.5312 222.567 57.4408C222.476 57.3278 221.844 57.486 221.166 57.7797C220.511 58.0734 219.855 58.5027 219.72 58.7512C219.562 59.0449 219.404 63.202 219.291 70.2736C219.2 76.351 219.019 82.9708 218.906 84.9589C218.771 86.9471 218.455 89.7486 218.229 91.172C217.98 92.5953 217.506 94.6739 217.189 95.8035C216.873 96.9332 216.173 98.7406 215.631 99.8702C215.111 101 214.365 102.355 213.981 102.92C213.62 103.485 212.49 104.795 211.519 105.835C210.525 106.874 209.463 107.868 209.101 108.026C208.762 108.207 208.13 108.343 207.7 108.343C207.158 108.343 206.729 108.162 206.345 107.778C205.961 107.394 205.78 106.964 205.78 106.422C205.78 105.993 205.893 105.406 206.051 105.112C206.187 104.841 207.068 103.801 207.972 102.807C208.898 101.813 210.027 100.435 210.479 99.7573C210.931 99.0795 211.586 97.7465 211.925 96.8202C212.287 95.8939 212.806 93.9057 213.123 92.4146C213.416 90.9235 213.823 88.4834 214.004 86.9923C214.185 85.5012 214.388 83.6711 214.546 81.57L213.71 81.5474C213.19 81.5248 212.49 81.2537 211.812 80.8244C211.225 80.4178 210.502 79.6722 210.186 79.13C209.869 78.6103 209.463 77.5711 209.259 76.8255C209.056 75.9896 208.943 74.8147 209.056 72.081L209.96 71.9454C210.457 71.8777 210.705 71.7873 210.525 71.7647C210.299 71.7496 210.268 71.6819 210.434 71.5614C210.592 71.471 210.75 70.0928 210.863 68.0143C210.954 66.1391 210.954 63.7442 210.75 60.6716H209.847C209.169 60.6716 208.875 60.5586 208.717 60.2197C208.604 59.9712 208.491 59.3838 208.491 58.9093C208.491 58.3897 208.83 57.373 209.417 56.153C209.937 55.0911 210.66 53.7808 211.022 53.2159C211.406 52.6511 212.196 51.7022 212.761 51.1148C213.326 50.5048 214.298 49.7592 214.93 49.4429Z" fill="#2929CF"/>
<path d="M208.943 72.0813V66.3879V60.6719H210.863L210.931 62.5245C210.976 63.5638 210.931 66.0038 210.818 67.9694C210.705 70.0479 210.547 71.5165 210.412 71.5165C210.299 71.5165 210.344 71.6068 210.524 71.7198C210.773 71.8779 210.592 71.9457 208.943 72.0813Z" fill="#DFDFEE"/>
<path d="M215.992 54.4134C216.286 54.1423 216.963 53.6678 217.528 53.3515C218.183 52.99 218.884 52.7641 219.449 52.7867C219.946 52.7867 220.556 52.8771 220.804 52.99C221.166 53.1482 221.053 53.1934 220.352 53.1934C219.855 53.1934 218.906 53.4871 218.251 53.8034C217.415 54.2101 216.828 54.6845 216.376 55.3849C216.014 55.9271 215.585 57.0568 215.404 57.8927C215.224 58.7512 214.907 61.4172 214.704 63.8346C214.523 66.2521 214.365 70.0703 214.365 72.307C214.365 75.1989 214.297 76.4641 214.094 76.6448C213.936 76.803 213.484 76.9385 213.077 76.9385C212.648 76.9385 212.174 76.7578 211.97 76.5318C211.767 76.3285 211.473 75.9444 211.338 75.6959C211.18 75.3796 211.112 72.917 211.225 60.5587L211.79 59.8809C212.083 59.5194 213.032 58.2316 213.891 57.0568C214.749 55.8819 215.698 54.6845 215.992 54.4134Z" fill="white"/>
<path d="M214.523 73.7755C214.501 74.9503 214.456 73.8884 214.456 71.4032C214.456 68.918 214.501 67.9465 214.523 69.2569C214.569 70.5673 214.569 72.6006 214.523 73.7755Z" fill="#DFDFEE"/>
<rect x="0.40625" y="0.572266" width="349.5" height="199.5" stroke="#00009C" stroke-width="0.5"/>
</svg>
