<svg width="351" height="201" viewBox="0 0 351 201" fill="none" xmlns="http://www.w3.org/2000/svg">
<rect x="0.40625" y="0.353027" width="349.5" height="199.5" fill="white"/>
<g clip-path="url(#clip0_9_288)">
<path d="M83.7948 182.603V94.6088V6.61475H265.277V188.097H85.0354V185.882C85.0354 184.659 85 183.578 84.9468 183.489C84.8936 183.4 84.8582 183.152 84.8582 182.957C84.8582 182.674 84.7341 182.603 83.7948 182.603Z" fill="white"/>
<path d="M215.83 99.7664C216.468 99.6246 217.266 99.3765 217.603 99.2347C217.939 99.093 218.294 98.9689 218.382 98.9512C218.471 98.9512 218.595 99.2525 218.684 99.6069C218.79 100.085 218.772 100.316 218.613 100.404C218.489 100.475 218.311 100.546 218.223 100.546C218.134 100.546 217.372 100.83 216.539 101.167C215.706 101.521 215.015 101.822 214.997 101.84C214.962 101.858 215.104 102.584 215.299 103.471C215.476 104.357 215.883 105.774 216.185 106.661C216.486 107.547 216.894 108.699 217.071 109.23C217.266 109.851 217.425 111.056 217.514 112.598C217.585 113.909 217.656 115.132 217.709 115.292C217.762 115.504 218.081 115.664 218.719 115.806C219.215 115.912 219.747 115.947 219.871 115.894C219.977 115.841 220.101 115.877 220.119 115.965C220.155 116.071 220.934 116.231 221.856 116.337C222.778 116.426 224.178 116.461 224.958 116.39C225.737 116.337 226.801 116.16 227.297 116.036C227.811 115.894 228.715 115.54 229.3 115.256C229.885 114.973 230.363 114.618 230.381 114.494C230.381 114.388 230.93 116.071 231.604 118.269C232.259 120.467 233.057 123.09 233.376 124.118C233.683 125.146 234.067 126.439 234.528 127.999L231.958 129.789H227.705V129.204C227.705 128.903 227.598 128.194 227.456 127.662C227.315 127.131 226.943 126.138 226.623 125.447C226.198 124.49 225.755 123.887 224.709 122.877C223.841 122.026 222.937 121.335 222.21 120.981C221.572 120.662 220.58 120.29 219.995 120.13C219.41 119.988 218.737 119.864 218.489 119.864C218.063 119.864 218.046 119.811 218.028 118.836C218.01 118.198 217.851 117.507 217.585 116.94C217.354 116.444 216.947 115.735 216.681 115.345C216.238 114.671 216.22 114.618 216.504 114.317C216.752 114.069 216.805 113.661 216.787 112.19C216.787 111.198 216.663 109.815 216.539 109.142C216.415 108.451 216.167 107.6 215.99 107.228C215.671 106.607 215.618 106.572 214.058 106.661L214.023 105.597C213.987 105.012 213.969 103.559 213.969 102.354C213.969 100.316 213.987 100.174 214.324 100.103C214.519 100.05 215.192 99.9082 215.83 99.7664Z" fill="white"/>
<path d="M235.148 120.254C234.953 119.403 234.794 118.553 234.794 118.358C234.794 118.121 234.853 118.062 234.971 118.18C235.077 118.269 235.432 119.031 235.786 119.864C236.141 120.697 236.779 122.452 237.186 123.763C237.612 125.075 238.126 126.634 238.356 127.219C238.586 127.804 238.994 128.513 239.26 128.814C239.543 129.098 239.774 129.435 239.774 129.523C239.756 129.629 239.49 129.647 239.047 129.559C238.657 129.488 238.126 129.328 237.878 129.204C237.612 129.098 237.275 128.708 237.098 128.371C236.92 128.034 236.531 126.953 236.247 125.979C235.963 125.004 235.662 123.728 235.574 123.143C235.503 122.558 235.449 122.026 235.467 121.938C235.485 121.867 235.343 121.122 235.148 120.254Z" fill="white"/>
<path fill-rule="evenodd" clip-rule="evenodd" d="M161.173 17.603C161.439 17.603 161.74 17.798 161.953 18.0993C162.307 18.5778 162.325 18.755 162.307 49.9473L163.229 50.2663C163.743 50.4435 164.558 50.8689 165.054 51.1879C165.533 51.5246 166.224 52.1272 166.578 52.5525C166.933 52.9779 167.429 53.7223 167.695 54.2008C167.943 54.697 168.28 55.6363 168.422 56.3275C168.563 57.0187 168.776 58.3479 169.13 61.0241H197.93L197.292 60.1911C196.955 59.7126 196.512 58.8264 196.317 58.1884C196.122 57.5504 195.981 56.9124 195.981 56.7706C195.981 56.6288 196.441 56.2566 197.009 55.9731C197.7 55.6009 198.019 55.335 198.019 55.1046C198.019 54.8565 197.682 54.6261 196.725 54.2185C196.016 53.9172 195.289 53.5273 195.094 53.3678C194.74 53.0488 194.74 53.0311 195.183 51.0638C195.431 49.965 195.662 48.9548 195.715 48.8485C195.768 48.7067 196.176 48.6181 196.814 48.6181C197.788 48.6181 197.877 48.5826 199.525 47.023L199.259 46.2786C199.1 45.8533 198.993 45.2153 198.993 44.8608C198.993 44.2582 199.064 44.1519 199.649 43.9038C200.199 43.6734 200.447 43.6557 200.978 43.8152C201.351 43.9215 201.758 44.1696 201.865 44.3646C201.989 44.5595 202.148 44.719 202.219 44.719C202.308 44.719 202.361 44.5418 202.361 44.3291C202.343 44.0987 202.485 43.7797 202.662 43.6025C202.875 43.4075 203.407 43.248 204.169 43.1594C205.303 43.0354 205.356 43.0176 205.445 42.5037C205.516 42.2201 205.551 38.5515 205.551 34.3511C205.551 27.3861 205.586 26.6949 205.87 26.4113C206.029 26.2341 206.331 26.11 206.526 26.11C206.721 26.11 207.022 26.2518 207.199 26.429C207.483 26.7126 207.518 27.2797 207.5 34.8474C207.5 39.2958 207.536 43.0708 207.589 43.2126C207.642 43.3544 207.873 43.4784 208.121 43.4784C208.387 43.4784 208.635 43.6202 208.741 43.8329C208.83 44.0278 208.989 44.6481 209.202 46.2255L210.035 44.9494C210.602 44.0456 210.974 43.6557 211.222 43.6557C211.417 43.6557 211.949 43.7266 212.41 43.8329C212.888 43.9215 213.597 44.2405 214.005 44.5418C214.714 45.038 214.767 45.1089 214.661 45.747C214.607 46.1014 214.448 46.6508 214.306 46.9344C214.111 47.3597 214.093 47.5015 214.271 47.5901C214.395 47.661 214.554 47.7319 214.625 47.7319C214.714 47.7319 215.121 47.98 215.564 48.2636C216.078 48.6003 216.592 48.7953 216.982 48.7953C217.319 48.7953 217.656 48.9016 217.727 49.0257C217.815 49.132 218.081 50.16 218.329 51.2765C218.595 52.393 218.772 53.3678 218.737 53.4564C218.701 53.5273 218.099 53.864 217.425 54.2008C216.433 54.697 216.167 54.9274 216.078 55.3173C216.025 55.5832 216.007 55.7958 216.043 55.8136C216.078 55.8136 216.645 55.9731 217.337 56.168C218.418 56.4516 218.577 56.5579 218.63 56.9478C218.666 57.2137 218.329 58.0998 217.797 59.1632C217.301 60.1379 216.415 61.5912 215.83 62.4065C215.245 63.204 214.661 63.8597 214.536 63.8597C214.43 63.8597 214.271 64.161 214.2 64.5155C214.129 64.8877 214.058 72.544 214.058 81.5472C214.058 94.538 214.111 97.8699 214.271 97.8168C214.395 97.7813 215.245 97.5687 216.149 97.3383C217.727 96.9306 217.797 96.8952 217.709 96.4698C217.656 96.2217 217.567 95.2647 217.514 94.3431C217.408 92.8721 217.425 92.624 217.709 92.3936C217.957 92.1632 218.684 92.1455 226.73 92.2695L227.456 91.1353C227.846 90.515 228.413 89.8238 228.697 89.5934C229.034 89.3275 229.441 89.1857 229.867 89.2035C230.452 89.2035 230.54 89.1503 230.54 88.8136C230.54 88.4414 230.434 88.3882 229.353 88.2819C228.679 88.1933 225.702 88.1401 222.689 88.1401C219.428 88.1401 217.106 88.0692 216.894 87.9629C216.699 87.8742 216.539 87.6261 216.539 87.4312C216.539 87.2362 216.628 86.9172 216.716 86.7223C216.805 86.5273 217.159 86.2792 217.461 86.1906C217.833 86.0842 221.324 86.0133 226.73 86.0133C231.515 86.0133 235.963 86.102 236.655 86.1906C237.346 86.2969 238.321 86.5805 238.852 86.864C239.508 87.1831 239.916 87.5375 240.128 87.9629C240.306 88.2996 240.66 89.487 240.908 90.5858C241.192 91.8973 241.351 93.1025 241.351 94.1304C241.351 94.9811 241.227 96.1685 241.085 96.7888C240.944 97.3914 240.571 98.3839 240.27 99.0042C239.987 99.6068 239.402 100.457 238.994 100.865C238.586 101.29 237.878 101.84 237.399 102.07C236.938 102.301 235.981 102.584 235.272 102.691C234.386 102.815 233.305 103.187 231.692 103.913C230.434 104.481 228.839 105.083 228.148 105.243C227.315 105.455 226.482 105.526 225.578 105.473C224.603 105.42 223.947 105.243 223.114 104.87C222.317 104.498 221.697 104.038 220.988 103.275C220.438 102.691 219.694 101.663 219.322 100.971C218.949 100.298 218.613 99.5713 218.56 99.3587C218.524 99.1283 218.453 98.951 218.4 98.951C218.347 98.951 217.939 99.0928 217.461 99.2878C217 99.465 216.149 99.7131 215.564 99.8372C214.98 99.9435 214.377 100.068 214.235 100.121C214.023 100.174 213.969 100.582 213.969 102.354C213.969 103.559 213.987 105.012 214.058 106.66L214.855 106.625C215.618 106.572 215.671 106.607 215.99 107.245C216.167 107.6 216.415 108.451 216.539 109.142C216.663 109.833 216.787 111.198 216.787 112.19C216.805 113.661 216.752 114.069 216.504 114.317C216.22 114.618 216.238 114.671 216.681 115.345C216.947 115.735 217.354 116.461 217.585 116.94C217.851 117.507 218.01 118.198 218.028 118.836C218.046 119.811 218.063 119.864 218.489 119.864C218.737 119.864 219.41 119.988 219.995 120.13C220.58 120.289 221.572 120.662 222.21 120.981C222.937 121.335 223.841 122.026 224.709 122.877C225.755 123.887 226.198 124.49 226.623 125.447C226.942 126.138 227.315 127.13 227.456 127.662C227.598 128.194 227.705 128.903 227.705 129.789H231.958L234.528 127.999L234.227 126.989C234.067 126.439 233.677 125.145 233.376 124.118C233.057 123.09 232.259 120.467 231.604 118.269C230.93 116.071 230.381 114.388 230.381 114.512C230.363 114.618 229.884 114.973 229.3 115.256C228.715 115.54 227.74 115.93 227.12 116.089C226.375 116.284 225.312 116.39 223.806 116.39C222.583 116.39 221.289 116.337 220.917 116.266C220.296 116.142 220.261 116.107 220.261 115.486C220.261 115.114 220.332 114.636 220.403 114.423C220.491 114.104 220.686 114.015 221.324 113.962C221.767 113.927 222.21 113.962 222.299 114.033C222.388 114.104 223.168 114.175 224.018 114.175C224.958 114.193 225.578 114.122 225.578 114.015C225.578 113.927 225.72 113.891 225.879 113.945C226.056 113.998 226.712 113.874 227.35 113.661C227.988 113.448 228.75 113.112 229.034 112.899C229.317 112.704 229.831 112.296 230.735 111.446L231.391 111.8C231.834 112.048 232.118 112.35 232.242 112.775C232.401 113.236 232.401 113.431 232.242 113.537C232.118 113.608 232.1 113.714 232.224 113.803C232.313 113.874 232.862 115.274 233.429 116.94C233.996 118.606 234.652 120.591 234.882 121.37C235.13 122.15 235.396 122.948 235.467 123.143C235.556 123.338 235.786 124.171 235.999 125.004C236.194 125.837 236.548 126.989 236.761 127.573C236.991 128.158 237.31 128.779 237.488 128.956C237.665 129.115 238.143 129.346 238.551 129.452C239.1 129.594 239.668 129.594 240.554 129.452C241.245 129.346 242.308 129.062 242.946 128.814C243.584 128.566 244.151 128.265 244.222 128.141C244.293 128.017 244.577 127.91 244.843 127.893C245.108 127.875 245.427 127.751 245.516 127.627C245.622 127.503 245.8 127.379 245.924 127.361C246.03 127.325 246.331 127.184 246.579 127.042C246.828 126.9 247.023 126.687 247.023 126.599C247.023 126.51 247.111 126.457 247.2 126.51C247.288 126.563 247.838 126.244 248.387 125.819C248.954 125.394 249.947 124.49 250.62 123.816C251.276 123.16 251.825 122.522 251.843 122.434C251.861 122.345 251.967 122.15 252.056 122.026C252.162 121.902 252.393 121.654 252.552 121.495C252.712 121.335 252.818 121.14 252.782 121.069C252.729 120.981 252.782 120.927 252.871 120.927C252.96 120.927 253.013 120.839 252.96 120.75C252.906 120.662 252.96 120.573 253.048 120.573C253.137 120.573 253.172 120.484 253.084 120.378C253.013 120.272 253.066 120.13 253.19 120.059C253.367 119.97 253.261 119.51 252.694 118.003C252.286 116.94 251.595 114.973 251.17 113.661C250.727 112.35 250.124 110.311 249.84 109.142C249.468 107.671 249.273 106.395 249.202 104.977C249.149 103.772 249.202 102.106 249.326 100.901C249.451 99.784 249.575 98.6143 249.575 98.3307C249.592 98.0472 249.681 97.7459 249.77 97.675C249.858 97.6041 249.947 97.1788 249.947 96.7357C249.947 96.2926 250 95.9382 250.071 95.9382C250.159 95.9382 250.177 95.7432 250.124 95.4951C250.071 95.247 250.106 95.0343 250.213 95.0166C250.301 94.9811 250.425 94.1659 250.496 93.1911C250.585 91.8442 250.532 91.1175 250.301 90.1782C250.142 89.487 249.77 88.4591 249.451 87.8742C249.096 87.1831 248.281 86.2083 247.164 85.0918C246.207 84.1347 245.179 83.2309 244.896 83.0891C244.4 82.841 244.329 82.8409 243.637 83.3195C243.23 83.5853 242.698 83.9398 242.432 84.0993C242.184 84.2588 241.847 84.4892 241.706 84.6132C241.511 84.7905 241.493 84.8614 241.652 84.8968C241.777 84.9323 241.847 85.0386 241.794 85.1272C241.741 85.2335 241.865 85.4639 242.06 85.6589C242.255 85.8538 242.397 86.0665 242.361 86.1197C242.344 86.1729 242.645 86.8463 243.035 87.6084C243.691 88.9199 243.726 89.044 243.478 89.4516C243.283 89.7529 243.106 89.8415 242.858 89.7706C242.663 89.7174 242.344 89.5756 242.149 89.4339C241.954 89.2921 241.316 88.4945 240.731 87.6439C239.756 86.226 239.561 86.0488 238.462 85.5348C237.665 85.1449 237.169 84.755 236.92 84.3828C236.708 84.0284 236.566 83.479 236.566 83.0005C236.566 82.5219 236.708 81.9725 236.92 81.6358C237.115 81.3168 237.541 80.8914 237.842 80.6965C238.197 80.4838 238.746 80.342 239.171 80.342C239.597 80.342 240.199 80.4484 240.5 80.5901C240.82 80.7142 241.245 80.98 241.44 81.1573C241.652 81.3522 241.847 81.6003 241.883 81.7421C241.954 81.9371 242.078 81.9016 242.468 81.5649C242.751 81.3345 243.372 80.9269 244.719 80.1648L246.172 81.2813C246.969 81.8839 248.352 83.1777 249.238 84.1702C250.195 85.2335 251.063 86.421 251.382 87.0944C251.701 87.7147 252.074 88.7072 252.233 89.2921C252.393 89.8769 252.57 91.0289 252.623 91.8619C252.694 93.0316 252.641 93.7937 252.339 95.2292C252.127 96.2572 251.843 97.6395 251.701 98.3307C251.56 99.0219 251.4 100.883 251.347 102.496C251.258 104.498 251.294 105.898 251.453 106.926C251.56 107.759 252.144 109.868 252.729 111.623C253.296 113.377 254.058 115.717 254.395 116.816C254.732 117.897 254.998 119.084 254.998 119.421C254.998 119.758 254.909 120.077 254.821 120.13C254.714 120.183 254.732 120.396 254.891 120.715C255.033 120.981 255.317 121.991 255.512 122.966C255.707 123.94 256.026 125.783 256.221 127.042C256.398 128.3 256.717 130.338 256.93 131.561C257.142 132.784 257.55 135.247 257.851 137.055C258.135 138.863 258.613 141.894 258.915 143.79C259.198 145.686 259.535 147.848 259.677 148.575C259.818 149.302 260.297 151.942 260.74 154.424C261.183 156.905 262.105 162.328 262.796 166.475C263.469 170.622 264.143 174.326 264.285 174.716C264.462 175.23 264.48 175.532 264.355 175.78C264.231 176.028 264.231 176.719 264.391 178.084C264.515 179.147 264.568 180.246 264.515 180.529C264.444 180.813 264.178 181.114 263.859 181.274C263.381 181.504 253.243 181.54 175.812 181.54C98.1326 181.54 88.261 181.504 87.9242 181.274C87.6938 181.132 87.5166 180.831 87.5166 180.618C87.5166 180.388 87.6229 180.051 87.7647 179.856C87.9951 179.537 88.2432 179.502 92.479 179.413L92.5322 143.56C92.5853 111.144 92.6208 107.547 92.8866 105.952C93.0461 104.977 93.3474 103.541 93.5424 102.761C93.7551 101.982 94.2336 100.741 94.6412 100.014C95.0311 99.2878 95.7223 98.2598 96.1654 97.7282C96.6262 97.1965 97.5123 96.2394 98.1503 95.6191C98.7884 94.9811 100.649 93.3329 102.315 91.9505C103.963 90.5858 106.126 88.8667 107.1 88.1755C108.075 87.4666 109.546 86.545 110.379 86.1197C111.212 85.6766 112.435 85.1981 113.126 85.0386C113.8 84.8791 114.65 84.7727 114.987 84.8259C115.324 84.8614 115.731 84.9322 115.873 84.9677C116.068 85.0209 116.121 84.9145 116.068 84.5069C116.05 84.2233 116.139 83.5321 116.299 83.0005C116.44 82.4688 116.6 81.9016 116.671 81.7598C116.742 81.5649 116.618 81.4763 116.192 81.4408C115.873 81.4231 115.501 81.2991 115.377 81.175C115.253 81.0687 115.147 80.8205 115.164 80.661C115.164 80.4838 115.43 80.0939 115.731 79.7926C116.121 79.4382 116.423 79.2786 116.618 79.3495C116.848 79.4204 116.972 79.3318 117.096 78.9774C117.185 78.6938 117.557 78.1798 117.947 77.7899C118.319 77.4177 119.223 76.762 119.949 76.3366C120.747 75.8759 121.757 75.4505 122.466 75.291C123.14 75.1492 124.221 75.0252 124.912 75.0252C125.585 75.0252 126.596 75.1492 127.127 75.291C127.659 75.4328 128.137 75.6455 128.191 75.7341C128.244 75.8404 128.332 75.9113 128.403 75.9113C128.492 75.9113 128.545 73.3947 128.545 64.7636L127.482 64.6573C126.897 64.5864 125.851 64.4091 125.178 64.2674C124.487 64.1256 123.529 63.842 123.051 63.6471C122.555 63.4344 121.793 63.009 121.314 62.6723C120.853 62.3533 120.481 61.9811 120.481 61.8748C120.481 61.7507 120.658 61.3963 121.279 60.5278L122.874 61.3608C123.742 61.8393 124.912 62.3001 125.444 62.4065C125.975 62.5128 126.897 62.69 127.482 62.7964C128.067 62.885 128.9 62.9736 129.343 62.9736C129.945 62.9736 130.353 62.8141 131.009 62.3887C131.487 62.0875 132.107 61.4849 132.391 61.0773C132.745 60.5101 133.011 60.3152 133.33 60.3152C133.649 60.3152 133.773 60.4038 133.773 60.6696C133.773 61.0241 133.897 61.0241 153.446 61.0241L153.552 60.0139C153.605 59.4467 153.8 58.3834 153.995 57.6567C154.19 56.9301 154.757 55.4945 155.253 54.4666C155.945 53.0665 156.423 52.3399 157.238 51.5069C158.054 50.6739 158.532 50.3549 159.968 49.9473L160.039 34.1562C160.092 18.9322 160.11 18.3297 160.429 17.9752C160.606 17.7625 160.96 17.603 161.173 17.603V17.603ZM128.067 24.6745C128.226 24.7276 128.421 24.834 128.492 24.9403C128.563 25.0466 128.634 30.7888 128.634 50.3017L129.36 50.6562C129.768 50.8512 130.388 51.2588 130.743 51.5601C131.097 51.8614 131.664 52.6234 132.001 53.2437C132.586 54.3071 132.621 54.4843 132.604 55.8844C132.586 57.0187 132.497 57.5858 132.214 58.1884C132.001 58.6315 131.434 59.3581 130.938 59.8367C130.459 60.2974 129.591 60.8823 129.024 61.1481C128.279 61.5026 127.677 61.6444 126.684 61.6976C125.514 61.7507 125.231 61.6976 124.38 61.2722C123.848 60.9886 123.033 60.4215 122.59 59.9784C122.147 59.5176 121.615 58.8442 121.42 58.4543C121.208 58.0644 120.96 57.2668 120.836 56.682C120.658 55.7958 120.676 55.4414 120.907 54.5198C121.066 53.8995 121.385 53.102 121.598 52.7475C121.828 52.3753 122.307 51.8082 122.661 51.5069C123.033 51.1879 123.636 50.7625 124.026 50.5676C124.416 50.3726 125.178 50.16 126.702 49.9473L126.684 37.5413C126.684 29.0875 126.737 25.0644 126.879 24.9226C126.968 24.8162 127.216 24.6922 127.411 24.6567C127.606 24.6213 127.889 24.639 128.067 24.6745ZM142.103 52.3399C142.245 52.3221 142.493 52.4639 142.635 52.6234C142.777 52.7829 143.042 52.9779 143.202 53.0665C143.432 53.1728 143.645 53.1197 143.964 52.8716C144.248 52.6412 144.567 52.5525 144.85 52.6057C145.151 52.6589 145.329 52.8538 145.4 53.1906C145.47 53.5628 145.4 53.7754 144.584 54.5552L145.116 55.0869C145.417 55.3882 145.648 55.6718 145.648 55.7604C145.648 55.8313 145.488 56.1326 145.293 56.4161C145.098 56.7174 144.886 56.9478 144.797 56.9478C144.726 56.9478 144.354 56.6643 143.255 55.6895L142.67 56.3098C142.369 56.6643 141.979 56.9478 141.837 56.9478C141.695 56.9478 141.447 56.7529 141.306 56.5047C141.164 56.2566 141.04 55.9022 141.04 55.7072C141.04 55.4945 141.288 55.1933 142.298 54.5552L141.766 54.0235C141.465 53.74 141.199 53.3146 141.181 53.102C141.164 52.8716 141.306 52.6412 141.5 52.5348C141.678 52.4285 141.961 52.3399 142.103 52.3399ZM237.86 70.7717C240.944 70.7717 241.192 70.7894 241.528 71.1261C241.723 71.3211 241.883 71.6401 241.883 71.835C241.883 72.0713 241.723 72.2368 241.404 72.3313C241.121 72.4022 239.508 72.4553 237.807 72.4376C236.105 72.4199 234.492 72.3667 234.227 72.2958C233.854 72.2249 233.73 72.0654 233.713 71.7641C233.695 71.4806 233.837 71.2325 234.103 71.0375C234.457 70.8248 235.13 70.7717 237.86 70.7717ZM237.629 72.8984C239.242 72.8984 240.731 72.9339 240.961 72.987C241.28 73.0579 241.351 73.1997 241.351 73.6959C241.351 74.0327 241.227 74.4403 241.068 74.5821C240.855 74.7948 240.217 74.8479 237.789 74.8479C235.361 74.8479 234.741 74.7948 234.528 74.5821C234.386 74.4403 234.244 74.0858 234.227 73.82C234.209 73.5542 234.297 73.2351 234.439 73.1111C234.616 72.9693 235.591 72.8984 237.629 72.8984ZM243.744 75.6986C247.554 75.7341 250.797 75.8404 250.975 75.929C251.134 76.0176 251.329 76.3544 251.382 76.6734C251.436 76.9747 251.4 77.4 251.294 77.595C251.081 77.9494 250.939 77.9494 238.64 77.8963C227.332 77.8431 226.163 77.8077 225.879 77.5418C225.702 77.3646 225.56 77.1165 225.56 76.9747C225.56 76.8329 225.72 76.4962 226.287 75.7341L231.568 75.6986C234.457 75.6632 239.933 75.6632 243.744 75.6986ZM221.945 88.849C224.461 88.849 224.727 88.8844 225.046 89.2035C225.241 89.3984 225.401 89.6465 225.401 89.7351C225.401 89.8415 225.206 90.1073 224.958 90.3554C224.55 90.7808 224.444 90.7985 222.175 90.7985C220.084 90.8162 219.765 90.7631 219.339 90.4441C219.056 90.2491 218.843 89.9655 218.825 89.806C218.825 89.6643 218.896 89.3807 219.003 89.1857C219.198 88.8844 219.428 88.849 221.945 88.849Z" fill="#2929CF"/>
<path fill-rule="evenodd" clip-rule="evenodd" d="M126.631 31.6043C126.666 34.8653 126.666 40.2885 126.631 43.6559C126.613 47.0232 126.596 44.3471 126.596 37.7187C126.596 31.0903 126.613 28.3433 126.631 31.6043ZM207.625 28.4142C207.66 29.4421 207.66 31.0372 207.625 31.9588C207.607 32.8804 207.571 32.0474 207.571 30.0979C207.571 28.1483 207.607 27.3863 207.625 28.4142ZM205.498 30.7182C205.533 32.8095 205.533 36.3186 205.498 38.5162C205.48 40.7139 205.462 38.9947 205.462 34.7058C205.462 30.4169 205.48 28.6269 205.498 30.7182ZM214.182 66.5184C214.218 67.5463 214.218 69.2477 214.182 70.3288C214.164 71.4099 214.129 70.5592 214.129 68.4679C214.129 66.3766 214.164 65.4904 214.182 66.5184ZM250.886 73.0936C251.028 73.0758 251.099 73.3949 251.099 74.1392C251.099 75.114 251.063 75.2026 250.744 75.114C250.549 75.0608 250.39 74.9545 250.39 74.8481C250.39 74.7418 250.479 74.7063 250.567 74.7595C250.673 74.8127 250.744 74.6 250.744 74.2633C250.727 73.7316 250.727 73.7139 250.496 74.0506C250.266 74.3696 250.23 74.3873 250.142 74.086C250.089 73.9265 250.018 73.6784 250 73.5366C249.965 73.3949 250.106 73.2353 250.301 73.1999C250.496 73.1467 250.762 73.1113 250.886 73.0936ZM231.781 75.6279C234.652 75.6279 235.822 75.6634 234.351 75.6811C232.897 75.7165 230.54 75.7165 229.122 75.6811C227.705 75.6634 228.91 75.6279 231.781 75.6279ZM244.01 75.6457C247.661 75.6457 249.149 75.6634 247.288 75.6811C245.427 75.7165 242.45 75.7165 240.642 75.6811C238.835 75.6634 240.359 75.6457 244.01 75.6457ZM237.275 77.9496C243.372 77.9496 245.835 77.9674 242.769 77.9851C239.703 78.0205 234.705 78.0205 231.692 77.9851C228.679 77.9674 231.178 77.9496 237.275 77.9496ZM244.329 82.8234C244.4 82.8234 244.719 82.9829 245.038 83.1779C245.339 83.3728 246.349 84.2767 247.253 85.1628C248.299 86.2085 249.096 87.201 249.451 87.8744C249.77 88.4593 250.142 89.4872 250.301 90.1784C250.532 91.1177 250.585 91.8444 250.496 93.1913C250.425 94.1661 250.301 94.9813 250.213 94.999C250.106 95.0345 250.071 95.2472 250.124 95.4953C250.177 95.7434 250.159 95.9383 250.089 95.9383C250 95.9383 249.947 96.2928 249.947 96.7359C249.947 97.179 249.858 97.6043 249.77 97.6752C249.681 97.7461 249.592 98.0474 249.575 98.3309C249.575 98.6145 249.451 99.7842 249.327 100.901C249.202 102.106 249.149 103.772 249.202 104.977C249.273 106.395 249.468 107.671 249.84 109.142C250.124 110.312 250.727 112.35 251.17 113.661C251.595 114.973 252.286 116.94 252.694 118.003C253.261 119.51 253.367 119.971 253.19 120.059C253.066 120.13 253.013 120.272 253.101 120.378C253.172 120.485 253.137 120.573 253.048 120.573C252.96 120.573 252.907 120.662 252.96 120.75C253.013 120.839 252.96 120.928 252.871 120.928C252.782 120.928 252.729 120.981 252.782 121.052C252.818 121.14 252.712 121.335 252.552 121.495C252.393 121.654 252.162 121.902 252.056 122.026C251.967 122.15 251.861 122.345 251.843 122.434C251.825 122.523 251.276 123.161 250.62 123.816C249.947 124.49 248.954 125.394 248.405 125.819C247.838 126.244 247.288 126.563 247.2 126.51C247.111 126.457 247.023 126.51 247.023 126.599C247.023 126.688 246.828 126.9 246.579 127.042C246.331 127.184 246.03 127.326 245.924 127.343C245.8 127.379 245.622 127.503 245.516 127.627C245.427 127.769 245.108 127.893 244.825 127.893C244.541 127.91 244.275 128.034 244.205 128.159C244.151 128.283 243.584 128.584 242.946 128.832C242.308 129.062 241.351 129.328 240.82 129.417C240.288 129.505 239.827 129.523 239.809 129.47C239.792 129.399 239.543 129.098 239.26 128.814C238.994 128.531 238.586 127.804 238.356 127.219C238.126 126.634 237.612 125.075 237.186 123.763C236.779 122.452 236.141 120.697 235.786 119.864C235.432 119.031 235.077 118.269 234.971 118.181C234.853 118.062 234.794 118.121 234.794 118.358C234.794 118.553 234.953 119.386 235.131 120.219C235.308 121.052 235.45 122.044 235.467 122.434C235.485 123.054 235.432 122.966 235.042 121.725C234.794 120.945 234.244 119.35 233.819 118.181C233.411 117.011 232.915 115.575 232.738 114.99C232.561 114.406 232.33 113.874 232.242 113.785C232.1 113.697 232.1 113.626 232.242 113.519C232.401 113.431 232.401 113.236 232.242 112.775C232.118 112.35 231.834 112.048 230.735 111.446L230.15 111.995C229.831 112.297 229.317 112.704 229.034 112.899C228.75 113.112 227.988 113.449 227.35 113.661C226.712 113.874 226.056 113.998 225.897 113.945C225.72 113.892 225.578 113.927 225.578 114.016C225.578 114.122 224.958 114.193 224.036 114.175C223.168 114.175 222.388 114.104 222.299 114.033C222.211 113.963 221.767 113.927 221.324 113.963C220.686 114.016 220.491 114.104 220.403 114.423C220.332 114.636 220.261 115.132 220.243 115.522C220.243 115.912 220.208 116.125 220.155 116.001C220.119 115.894 219.977 115.841 219.871 115.894C219.747 115.947 219.215 115.912 218.719 115.806C218.081 115.664 217.762 115.504 217.709 115.292C217.656 115.132 217.585 113.909 217.514 112.598C217.425 111.056 217.266 109.851 217.071 109.231C216.894 108.699 216.486 107.547 216.185 106.661C215.883 105.775 215.476 104.357 215.281 103.471C215.015 102.23 214.997 101.84 215.175 101.751C215.281 101.663 215.83 101.432 216.362 101.237C216.894 101.025 217.691 100.724 218.932 100.245L219.463 101.237C219.747 101.787 220.438 102.708 220.988 103.293C221.679 104.038 222.317 104.516 223.114 104.871C223.947 105.243 224.603 105.42 225.578 105.473C226.482 105.526 227.297 105.456 228.148 105.243C228.839 105.066 229.902 104.693 230.54 104.41C231.178 104.126 231.94 103.878 232.224 103.86C232.508 103.86 233.039 103.985 233.376 104.162C233.837 104.41 234.209 104.463 234.882 104.392C235.396 104.321 236.389 103.967 237.275 103.524C238.25 103.028 239.136 102.407 239.756 101.787C240.306 101.255 240.961 100.458 241.209 100.015C241.475 99.5715 241.847 98.7031 242.042 98.0651C242.255 97.4271 242.503 96.3991 242.61 95.7611C242.716 95.1231 242.858 93.6167 242.929 92.3938C243.035 90.6924 243.141 90.0366 243.744 89.0264L243.035 87.6263C242.645 86.8465 242.344 86.173 242.379 86.1199C242.397 86.0667 242.255 85.854 242.06 85.6591C241.865 85.4641 241.741 85.2337 241.794 85.1274C241.847 85.0211 241.794 84.9502 241.706 84.9502C241.617 84.9502 241.564 84.8438 241.617 84.7198C241.653 84.6134 241.901 84.4008 242.149 84.2767C242.397 84.1704 242.964 83.7805 243.407 83.4437C243.85 83.107 244.276 82.8234 244.329 82.8234ZM224.603 88.2112C227.049 88.2112 228.077 88.2466 226.907 88.2644C225.737 88.2998 223.735 88.2998 222.476 88.2644C221.218 88.2466 222.175 88.2112 224.603 88.2112ZM222.919 92.1102C225.117 92.1102 225.985 92.1457 224.869 92.1634C223.752 92.1988 221.945 92.1988 220.881 92.1634C219.818 92.1457 220.722 92.1102 222.919 92.1102ZM134.305 181.611C136.201 181.611 136.963 181.646 135.989 181.664C135.014 181.699 133.454 181.699 132.533 181.664C131.611 181.646 132.409 181.611 134.305 181.611Z" fill="#DFDFEE"/>
<path fill-rule="evenodd" clip-rule="evenodd" d="M205.852 45.5522C206.508 45.6054 207.075 45.6586 207.093 45.6763C207.111 45.694 207.057 46.013 206.969 46.4029C206.845 46.9523 206.88 47.2536 207.111 47.7322C207.376 48.2638 207.518 48.3702 208.156 48.4411C208.564 48.4942 209.007 48.636 209.131 48.7601C209.255 48.8841 209.539 48.9728 209.751 48.9728C209.982 48.9728 210.354 48.7601 210.602 48.4942C210.85 48.2107 211.311 47.6081 211.612 47.1119C211.931 46.6333 212.197 46.1903 212.233 46.1371C212.268 46.0839 212.339 46.1016 212.41 46.1725C212.498 46.2434 212.303 46.7397 212.02 47.2891C211.488 48.2461 211.488 48.2638 211.807 48.7424C211.984 49.0259 212.392 49.7526 212.693 50.3729C213.012 50.9932 213.402 51.578 213.562 51.6489C213.757 51.7375 214.182 51.7375 214.59 51.6312C215.033 51.5249 215.37 51.3122 215.494 51.0641C215.653 50.7273 215.724 50.7096 215.848 50.9223C215.937 51.0641 216.008 51.3653 216.008 51.5957C216.008 51.9148 215.848 52.0388 215.157 52.2515C214.696 52.3755 214.235 52.6059 214.111 52.73C213.969 52.8718 213.881 53.7579 213.845 55.1403C213.792 57.3025 213.792 57.338 214.235 57.6924C214.483 57.8696 214.98 58.1355 215.352 58.2418C215.706 58.3659 216.008 58.5077 216.008 58.5963C216.008 58.6672 215.813 58.7203 215.564 58.7203C215.316 58.7203 214.696 58.5786 213.26 58.1355L212.321 59.1811C211.807 59.7483 211.4 60.3863 211.4 60.5812C211.4 60.918 211.293 60.9357 207.713 60.9003C205.693 60.8825 203.584 60.8648 203.017 60.8471C202.414 60.8471 202.042 60.7762 202.095 60.6699C202.148 60.5812 201.865 60.1027 201.475 59.6065C201.085 59.128 200.553 58.614 200.305 58.5077C199.897 58.295 199.809 58.3304 199.508 58.6849C199.277 58.9507 199.135 59.0039 199.082 58.8621C199.047 58.7381 198.923 58.4191 198.816 58.1532C198.675 57.7279 198.692 57.657 198.94 57.657C199.118 57.657 199.437 57.5329 199.649 57.3911C200.021 57.143 200.057 56.9835 200.057 55.5834C200.057 54.715 199.986 53.6161 199.791 52.1806L198.586 52.092C197.611 52.0034 197.399 51.9325 197.399 51.6844C197.399 51.5071 197.469 51.259 197.54 51.1349C197.647 50.9577 197.771 50.9754 198.196 51.1881C198.48 51.3299 198.994 51.454 199.295 51.454C199.614 51.454 199.933 51.3476 200.004 51.2413C200.092 51.1172 200.27 50.6564 200.429 50.2134C200.589 49.7703 200.872 49.3449 201.067 49.2386C201.262 49.1323 201.563 48.9373 201.723 48.7955C201.936 48.6183 202.006 48.3879 201.918 48.0866C201.812 47.679 201.865 47.6967 202.485 48.2993C202.857 48.6715 203.318 48.9728 203.513 48.9728C203.708 48.955 204.133 48.7778 204.47 48.5651C204.807 48.3525 205.179 48.0157 205.321 47.8208C205.445 47.6258 205.551 47.36 205.551 47.2536C205.551 47.1296 205.427 47.0232 205.285 47.0232C205.143 47.0232 204.931 46.8637 204.842 46.6688C204.736 46.4738 204.665 46.1194 204.665 45.8713C204.647 45.4459 204.665 45.4459 205.852 45.5522ZM160.978 51.8084C161.173 51.8084 161.457 51.897 161.598 52.0034C161.829 52.1452 161.776 52.2338 161.35 52.5705C161.067 52.7832 160.464 53.244 160.021 53.5807C159.578 53.9352 158.958 54.6441 158.639 55.1758C158.284 55.7961 158.001 56.5936 157.876 57.3911C157.77 58.0823 157.699 59.1102 157.77 60.7585L156.76 60.8116C156.211 60.8294 155.75 60.7939 155.75 60.723C155.75 60.6344 155.909 59.7483 156.104 58.7203C156.352 57.4088 156.654 56.4695 157.114 55.5657C157.487 54.839 158.089 53.882 158.461 53.4389C158.834 52.9781 159.472 52.4287 159.879 52.216C160.287 51.9856 160.765 51.8084 160.978 51.8084ZM126.897 52.2515C127.269 52.3047 127.872 52.4819 128.226 52.6768C128.598 52.8541 129.165 53.3149 129.484 53.687C129.803 54.0592 130.14 54.6618 130.229 54.9985C130.317 55.3353 130.353 55.9378 130.282 56.3278C130.211 56.7177 129.91 57.3911 129.626 57.8342C129.325 58.2595 128.758 58.809 128.368 59.0216C127.978 59.2343 127.393 59.447 127.074 59.5001C126.773 59.571 126.206 59.5356 125.834 59.4293C125.479 59.3406 124.859 59.0039 124.487 58.6849C124.097 58.3659 123.6 57.7101 123.37 57.2139C123.157 56.7354 122.962 56.0087 122.962 55.6188C122.962 55.1403 123.122 54.6441 123.459 54.1124C123.725 53.6693 124.274 53.1199 124.646 52.8895C125.036 52.6414 125.55 52.3933 125.798 52.3224C126.046 52.2338 126.542 52.216 126.897 52.2515ZM133.596 63.0624L140.1 63.0979C143.698 63.1333 146.906 63.1865 147.243 63.2397C147.579 63.2928 147.792 63.3992 147.721 63.4701C147.633 63.541 147.26 63.7182 146.871 63.86C146.498 64.0018 145.577 64.6221 144.815 65.2069C144.053 65.8095 142.83 67.0146 142.085 67.8653C141.341 68.7338 140.455 69.8858 140.118 70.4174C139.764 70.9491 139.25 71.8707 138.966 72.4556C138.665 73.0404 138.257 74.0683 138.062 74.7595C137.867 75.4507 137.602 76.4609 137.513 77.0281C137.407 77.5952 137.158 78.1978 136.963 78.3927C136.769 78.5877 136.609 78.9599 136.609 79.2434C136.591 79.5093 136.698 79.8106 136.822 79.9346C136.999 80.0941 142.493 80.1827 160.18 80.2714C172.905 80.3245 183.468 80.3777 183.663 80.36C183.858 80.36 184.16 80.2005 184.337 80.041C184.514 79.8637 184.656 79.5624 184.638 79.3675C184.638 79.1725 184.514 78.8181 184.337 78.57C184.177 78.3218 183.982 77.5243 183.894 76.7622C183.823 76.0001 183.468 74.476 183.114 73.3949C182.759 72.2961 182.228 70.9491 181.944 70.4174C181.643 69.8858 181.076 68.9642 180.686 68.3793C180.278 67.7945 179.339 66.7134 178.612 65.9867C177.868 65.2601 176.84 64.3739 176.344 64.0372C175.847 63.7005 175.422 63.3637 175.422 63.2928C175.422 63.2042 183.628 63.1511 211.931 63.1511V85.1274C211.931 105.987 211.914 107.104 211.612 106.997C211.453 106.944 210.708 106.732 209.982 106.537C209.06 106.306 208.369 106.218 207.713 106.289C207.217 106.342 206.419 106.59 205.941 106.82C205.48 107.033 204.842 107.547 204.523 107.919C204.204 108.291 203.796 109.036 203.602 109.55C203.407 110.046 203.247 110.684 203.247 110.967C203.247 111.357 203.212 111.41 203.034 111.216C202.91 111.091 202.627 111.003 202.396 111.003C202.166 111.003 201.758 111.215 200.996 111.978L200.766 116.231C200.642 118.624 200.589 121.92 200.642 123.763C200.73 126.723 200.819 127.45 201.546 131.207C202.006 133.493 202.414 135.514 202.45 135.691C202.503 135.85 202.574 136.152 202.627 136.347C202.715 136.701 202.609 136.701 197.664 136.754C194.882 136.772 192.613 136.754 192.613 136.701C192.613 136.648 193.021 136.222 193.517 135.726C193.996 135.248 194.722 134.362 195.112 133.777C195.502 133.192 195.857 132.465 195.91 132.182C195.981 131.898 195.928 131.473 195.821 131.26C195.626 130.852 195.555 130.852 192.613 130.852C189.742 130.852 189.6 130.87 189.512 131.207C189.423 131.526 189.264 131.561 187.545 131.615C185.684 131.65 185.648 131.668 185.276 132.146C185.046 132.465 184.868 133.015 184.833 133.564C184.78 134.326 184.868 134.681 185.879 136.701L171.275 136.612L170.903 134.22C170.69 132.908 170.3 130.746 170.052 129.435C169.804 128.123 169.467 126.244 169.308 125.27C169.148 124.295 168.847 123.108 168.652 122.611C168.439 122.133 168.049 121.442 167.801 121.105C167.535 120.768 166.897 120.166 166.366 119.776C165.834 119.386 164.895 118.907 164.257 118.677C163.619 118.464 162.236 118.198 161.155 118.092C160.074 118.003 158.16 117.897 156.902 117.879C154.934 117.862 154.421 117.915 153.446 118.251C152.808 118.464 151.762 119.049 151.089 119.528C150.433 120.006 149.175 121.211 148.288 122.221C147.402 123.214 146.268 124.579 145.789 125.27C145.311 125.961 144.726 126.936 144.478 127.45C144.248 127.946 143.875 128.992 143.663 129.754C143.361 130.817 143.273 131.632 143.273 133.422C143.255 134.681 143.308 135.939 143.521 136.701L141.678 136.666C140.668 136.63 139.781 136.577 139.711 136.524C139.657 136.471 139.781 134.592 139.976 132.359C140.189 130.126 140.437 127.84 140.508 127.308C140.597 126.776 140.632 126.28 140.597 126.209C140.544 126.12 140.632 125.961 140.792 125.855C140.951 125.731 141.199 125.412 141.323 125.146C141.465 124.862 141.518 124.525 141.43 124.348C141.359 124.189 141.146 123.994 140.951 123.923C140.756 123.852 140.402 123.834 140.154 123.887C139.905 123.941 139.586 124.1 139.445 124.224C139.214 124.419 139.179 124.313 139.25 123.356C139.285 122.753 139.392 122.097 139.516 121.885C139.622 121.672 140.154 120.892 140.685 120.148C141.217 119.403 142.032 118.145 142.511 117.33C142.972 116.532 143.663 115.168 144.035 114.282C144.425 113.395 144.957 111.854 145.222 110.826C145.541 109.603 145.701 108.486 145.701 107.547C145.719 106.359 145.648 106.005 145.293 105.332C144.974 104.764 144.62 104.41 144.053 104.126C143.503 103.861 142.936 103.736 142.227 103.736C141.589 103.736 140.845 103.878 140.225 104.144C139.551 104.41 138.948 104.835 138.31 105.509C137.726 106.129 137.229 106.873 136.963 107.547C136.609 108.468 136.538 109.018 136.343 114.636L135.953 114.016C135.758 113.679 134.908 112.757 134.092 111.978C133.295 111.198 132.249 110.365 131.771 110.152C131.31 109.939 130.849 109.762 130.76 109.762C130.636 109.762 130.601 105.775 130.619 98.0474C130.654 91.614 130.707 86.2794 130.76 86.2262C130.814 86.1554 131.009 86.0136 131.204 85.9072C131.399 85.8009 131.735 85.4464 131.966 85.1097C132.178 84.773 132.444 84.1172 132.55 83.621C132.675 83.0007 132.675 82.4158 132.533 81.6715C132.426 81.0866 132.161 80.2182 131.93 79.7219C131.7 79.2434 131.221 78.4105 130.867 77.9142C130.459 77.2939 130.3 76.9572 130.441 76.9217C130.619 76.8686 130.69 75.4685 130.707 70.8073C130.76 65.2069 130.778 64.7461 131.062 64.6575C131.239 64.6043 131.877 64.2322 132.48 63.8245L133.596 63.0624ZM155.803 62.9738C156.565 62.9738 156.636 63.0093 156.6 63.3637C156.565 63.665 156.388 63.7891 155.856 63.8954C155.466 63.984 154.509 64.2144 153.729 64.4271C152.95 64.6398 151.514 65.1892 150.539 65.6677C149.494 66.1817 148.023 67.1033 146.995 67.9185C146.02 68.6983 144.85 69.7794 144.389 70.3465C143.946 70.9137 143.22 71.9771 142.794 72.7214C142.351 73.448 141.802 74.5646 141.536 75.2026C141.288 75.8229 141.04 76.6382 140.88 77.6838L142.068 77.7193C143.149 77.7724 143.078 77.7724 141.518 77.861C140.561 77.8965 139.746 77.8965 139.728 77.861C139.693 77.8079 139.888 77.0458 140.136 76.1774C140.402 75.2912 140.88 74.0152 141.199 73.3417C141.518 72.6505 142.156 71.534 142.599 70.8605C143.042 70.1693 144.017 69.0173 144.762 68.273C145.488 67.5463 146.622 66.5893 147.26 66.1639C147.881 65.7386 149.21 64.9942 150.185 64.498C151.301 63.9486 152.506 63.5055 153.463 63.3106C154.279 63.1333 155.342 62.9916 155.803 62.9738ZM168.404 63.1865C170.105 63.2397 170.3 63.2928 171.718 64.0018C172.533 64.4271 173.827 65.1715 174.589 65.6854C175.334 66.1817 175.954 66.6602 175.954 66.7311C175.954 66.802 175.706 66.6956 175.387 66.5007C175.068 66.3057 174.376 65.9158 173.845 65.6323C173.295 65.3664 172.303 64.9942 171.629 64.8347C170.938 64.6575 169.786 64.4094 169.06 64.2676C168.315 64.1435 167.5 64.0372 167.234 64.0372C166.968 64.0372 166.702 63.9131 166.667 63.7714C166.614 63.6119 166.578 63.4169 166.596 63.2928C166.614 63.1688 167.163 63.1333 168.404 63.1865ZM239.313 82.1145C239.419 82.1145 239.614 82.2918 239.738 82.5044C239.951 82.8589 239.933 82.9475 239.614 83.2665C239.295 83.5678 239.225 83.5855 238.976 83.3551C238.817 83.1956 238.675 82.9652 238.657 82.8057C238.64 82.6639 238.746 82.4335 238.888 82.3272C239.012 82.2032 239.207 82.1145 239.313 82.1145ZM124.469 83.8337C124.575 83.8868 125.302 84.4185 126.082 85.0034C126.861 85.6059 127.535 86.1022 127.588 86.1199C127.624 86.1554 127.535 86.3503 127.393 86.5807C127.234 86.7934 126.826 87.2542 126.507 87.5909C126.17 87.9276 125.532 88.353 125.107 88.5302C124.664 88.7252 123.937 88.9378 123.476 88.991C122.679 89.0974 122.643 89.0974 120.765 87.2542L121.385 86.5807C121.74 86.2262 122.236 85.6414 122.519 85.3047C122.785 84.9502 123.281 84.4717 123.636 84.2058C123.99 83.94 124.363 83.7805 124.469 83.8337ZM114.243 87.0769C114.562 87.0769 115.235 87.1656 115.749 87.2719C116.263 87.3782 116.919 87.5909 117.22 87.7327C117.504 87.8922 118.124 88.3884 118.603 88.8315C119.081 89.2746 119.613 89.9126 119.79 90.2671C119.95 90.6038 120.233 91.4013 120.41 92.0393C120.623 92.8723 120.676 93.599 120.623 94.6978C120.552 95.8852 120.375 96.6296 119.772 98.2424C119.365 99.3589 118.496 101.344 117.823 102.673C117.167 103.985 116.511 105.491 116.352 106.04C116.192 106.572 116.05 107.565 116.033 108.256C116.015 109.124 116.121 109.691 116.352 110.188C116.529 110.56 117.078 111.233 117.575 111.659C118.053 112.084 118.815 112.616 119.258 112.828C119.932 113.147 120.357 113.218 124.203 113.218L124.079 113.661C124.026 113.892 123.849 114.866 123.423 117.543L122.129 116.444C121.421 115.841 120.074 114.654 119.117 113.821C118.16 112.988 117.043 111.907 116.618 111.428C116.121 110.861 115.767 110.205 115.572 109.585C115.324 108.681 115.324 108.468 115.59 106.927C115.767 105.987 116.263 104.197 116.706 102.939C117.149 101.663 117.592 100.351 117.699 100.015C117.787 99.6602 117.823 99.2526 117.77 99.0753C117.699 98.8804 117.468 98.774 117.167 98.7563C116.901 98.7563 116.44 98.8095 116.157 98.8627C115.661 98.969 115.572 99.0931 115.093 100.599C114.81 101.486 114.385 102.868 114.154 103.648C113.924 104.428 113.622 105.704 113.481 106.483C113.339 107.263 113.215 108.451 113.215 109.142C113.215 110.117 113.321 110.577 113.693 111.357C114.012 112.013 114.721 112.881 115.962 114.104C116.954 115.079 118.833 116.727 120.144 117.773C121.456 118.819 122.856 119.847 123.246 120.059C123.725 120.325 124.097 120.396 124.433 120.325C124.699 120.254 124.965 120.077 125.018 119.9C125.089 119.722 125.408 118.269 125.727 116.674C126.064 115.061 126.472 113.555 126.613 113.342C126.755 113.13 126.879 112.757 126.879 112.545C126.879 112.332 126.667 111.942 126.418 111.712C125.975 111.286 125.834 111.251 123.264 111.162C121.261 111.109 120.428 111.003 119.967 110.772C119.613 110.613 119.205 110.383 119.063 110.258C118.904 110.117 118.638 109.745 118.461 109.408C118.23 108.929 118.16 108.539 118.23 107.813C118.301 107.068 118.603 106.289 119.524 104.534C120.18 103.258 120.995 101.539 121.332 100.724C121.669 99.8906 122.094 98.7386 122.271 98.1537C122.448 97.5689 122.697 96.4878 122.803 95.7612C122.927 94.9636 122.962 93.7585 122.803 91.1532L123.902 91.1C124.611 91.0646 125.355 90.8874 125.993 90.6038C126.525 90.3557 127.305 89.824 128.474 88.672V136.524H124.309C120.162 136.524 120.127 136.524 119.914 136.914C119.772 137.162 119.666 138.296 119.631 139.891C119.577 141.557 119.631 142.585 119.967 143.258H145.134V144.003C145.134 144.41 145.293 145.509 145.488 146.449C145.683 147.37 146.02 148.469 146.233 148.912C146.445 149.337 146.835 149.834 147.083 150.029C147.314 150.206 147.579 150.365 147.668 150.383C147.757 150.419 147.881 151.553 147.969 152.917C148.076 154.92 148.058 155.576 147.845 156.373C147.686 156.905 147.509 157.454 147.438 157.614C147.367 157.756 147.066 157.933 146.782 158.004C146.498 158.093 146.179 158.287 146.055 158.447C145.949 158.624 145.843 158.925 145.843 159.12C145.843 159.315 146.055 159.705 146.817 160.503L154.172 160.272V179.413H146.321C138.807 179.413 138.488 179.395 138.771 179.094C138.948 178.935 139.392 177.765 139.799 176.524C140.225 175.16 140.508 173.937 140.508 173.423C140.508 172.856 140.366 172.324 140.047 171.792C139.675 171.119 139.604 170.835 139.693 170.109C139.764 169.524 139.994 168.886 140.402 168.248C140.756 167.698 141.146 166.901 141.306 166.475C141.465 166.015 141.589 165.129 141.589 164.437C141.571 163.498 141.465 162.966 141.164 162.311C140.933 161.814 140.473 161.159 140.136 160.857C139.817 160.538 139.25 160.166 138.878 160.007C138.505 159.865 137.761 159.723 137.194 159.723C136.627 159.723 135.882 159.847 135.51 159.989C135.138 160.148 134.518 160.556 134.11 160.928C133.72 161.3 133.259 161.832 133.1 162.133C132.94 162.417 132.71 162.984 132.568 163.374C132.426 163.799 132.302 165.182 132.249 167.007C132.161 169.914 132.161 169.931 131.824 169.577C131.629 169.382 131.434 169.098 131.399 168.957C131.345 168.797 130.849 168.425 130.3 168.106C129.733 167.805 129.059 167.539 128.829 167.539C128.581 167.539 128.084 167.61 127.712 167.716C127.34 167.805 126.773 168.177 126.418 168.549C126.046 168.939 125.674 169.577 125.532 170.109C125.39 170.587 125.266 171.367 125.266 171.828C125.266 172.289 125.444 173.122 125.656 173.689C125.94 174.415 126.383 175.053 128.457 177.198L128.474 179.413L122.838 179.502L122.75 178.793C122.714 178.403 122.466 177.694 122.2 177.233C121.846 176.595 121.527 176.294 120.871 175.993C120.02 175.603 120.003 175.585 119.825 174.539C119.737 173.954 119.241 171.278 118.727 168.602C118.23 165.908 117.575 162.399 117.291 160.804C116.99 159.191 116.476 156.391 116.139 154.601C115.802 152.793 115.253 149.834 114.916 148.044C114.579 146.236 114.136 143.843 113.941 142.727C113.747 141.593 113.268 138.845 112.86 136.612C112.453 134.362 112.027 131.934 111.886 131.207C111.762 130.463 111.496 128.761 111.283 127.396C111.088 126.032 110.645 123.108 110.308 120.928C109.972 118.73 109.653 116.71 109.599 116.444C109.511 115.983 109.546 115.948 110.22 115.877C110.692 115.818 111.011 115.652 111.177 115.38C111.336 115.168 111.567 114.264 111.708 113.395C111.85 112.509 112.134 111.038 112.329 110.117C112.524 109.177 112.683 108.274 112.683 108.079C112.683 107.884 112.541 107.618 112.382 107.494C112.205 107.387 111.815 107.281 111.496 107.281C111.035 107.281 110.875 107.37 110.68 107.76C110.539 108.025 110.273 109.124 110.06 110.205C109.865 111.269 109.653 112.598 109.599 113.165C109.546 113.732 109.458 114.193 109.422 114.193C109.369 114.193 108.607 113.75 107.738 113.218C106.852 112.669 105.434 112.013 104.584 111.729C103.733 111.446 101.996 111.038 100.738 110.826C99.4619 110.595 97.5655 110.418 94.6235 110.383L94.6944 109.851C94.7476 109.55 94.8362 108.593 94.8894 107.724C94.9603 106.838 95.1198 105.562 95.2438 104.888C95.3679 104.197 95.6869 103.081 95.935 102.407C96.2009 101.716 96.5731 100.883 96.7857 100.546C96.9984 100.192 97.5833 99.3943 98.0972 98.774C98.6112 98.136 99.6037 97.0904 100.313 96.4701C101.004 95.832 102.209 94.8396 102.953 94.2547C103.715 93.6699 105.47 92.3052 106.87 91.2241C108.27 90.143 109.972 88.9201 110.663 88.4948C111.336 88.0694 112.293 87.5732 112.789 87.4137C113.268 87.2365 113.924 87.0947 114.243 87.0769ZM230.718 91.3304C230.788 91.3304 230.842 91.809 230.824 92.3938C230.824 93.2799 230.788 93.404 230.611 93.1382C230.416 92.8723 230.292 93.1382 229.743 94.875C229.388 95.9916 229.087 97.1435 229.087 97.4448C229.087 97.7284 229.122 98.0651 229.193 98.1892C229.264 98.3132 229.229 98.4196 229.14 98.4196C229.034 98.4196 228.821 97.9942 228.662 97.4803C228.467 96.8245 228.396 96.1865 228.467 95.3181C228.52 94.3965 228.679 93.8116 229.069 93.1204C229.353 92.5888 229.796 91.9685 230.079 91.7381C230.345 91.5077 230.647 91.3304 230.718 91.3304ZM226.305 94.1661L226.163 95.0877C226.092 95.6017 226.039 96.5055 226.056 97.0904C226.056 97.6752 226.198 98.4728 226.375 98.8627C226.535 99.2526 226.907 99.8374 227.173 100.192C227.439 100.529 228.006 100.989 228.431 101.202C229.034 101.521 229.53 101.61 230.558 101.627C231.285 101.645 231.799 101.681 231.71 101.716C231.604 101.751 230.842 102.035 230.026 102.319C229.193 102.62 227.988 102.992 227.368 103.134C226.482 103.329 226.021 103.347 225.365 103.205C224.904 103.098 224.231 102.868 223.859 102.691C223.487 102.514 222.884 102.017 222.512 101.574C222.122 101.149 221.555 100.245 221.236 99.5716C220.917 98.8804 220.421 97.5512 220.119 96.5941C219.818 95.6371 219.57 94.6978 219.57 94.5028C219.57 94.1661 219.676 94.1484 226.305 94.1661ZM236.247 97.7107C236.336 97.7107 236.442 97.7816 236.495 97.8879C236.531 97.9765 236.938 98.136 237.381 98.2424C237.807 98.331 238.179 98.4728 238.179 98.5436C238.179 98.6145 238.037 98.8804 237.86 99.1108C237.683 99.3589 237.186 99.7665 236.761 100.05C236.088 100.458 235.769 100.546 234.758 100.546C234.103 100.546 233.518 100.458 233.482 100.369C233.429 100.263 233.429 100.05 233.482 99.8729C233.518 99.6956 234.014 99.2703 234.581 98.9158C235.148 98.5614 235.715 98.136 235.839 97.9765C235.981 97.8347 236.158 97.7107 236.247 97.7107ZM142.511 105.863C142.688 105.863 142.989 106.076 143.184 106.342C143.503 106.749 143.556 106.98 143.45 107.813C143.397 108.344 143.184 109.372 142.989 110.117C142.794 110.843 142.351 112.155 142.015 113.041C141.678 113.909 141.04 115.185 140.614 115.877C140.171 116.55 139.64 117.472 139.019 118.712L138.966 114.104C138.931 110.4 138.966 109.284 139.197 108.433C139.338 107.848 139.604 107.228 139.764 107.051C139.941 106.873 140.561 106.537 141.146 106.306C141.731 106.058 142.334 105.863 142.511 105.863ZM130.814 112.066C130.938 112.066 131.363 112.332 131.771 112.633C132.178 112.952 132.816 113.573 133.171 114.016C133.525 114.441 134.305 115.522 134.89 116.408C135.492 117.277 136.166 118.393 136.414 118.89C136.698 119.474 136.893 120.254 136.981 121.193C137.088 122.292 137.07 122.682 136.875 122.966C136.733 123.161 136.627 123.48 136.627 123.675C136.627 123.887 136.29 123.515 135.741 122.7C135.244 121.956 134.535 120.928 134.163 120.396C133.773 119.847 133.047 118.659 132.515 117.738C131.983 116.798 131.345 115.575 131.079 114.99C130.76 114.282 130.601 113.614 130.601 112.988C130.601 112.35 130.672 112.066 130.814 112.066ZM203.141 113.626L203.672 113.697C204.151 113.732 204.222 113.838 204.505 114.813C204.665 115.398 204.948 116.142 205.108 116.497C205.285 116.834 206.012 117.684 206.738 118.393C207.447 119.102 208.263 119.722 208.528 119.793C209.007 119.9 209.007 119.917 208.139 120.361C207.66 120.626 206.916 121.229 206.49 121.725C206.065 122.204 205.516 123.019 205.285 123.533C205.037 124.047 204.718 125.004 204.576 125.66C204.417 126.315 204.24 127.698 204.045 130.587L203.637 129.346C203.424 128.655 203.158 127.574 203.052 126.953C202.946 126.315 202.857 124.242 202.857 122.345C202.857 120.431 202.91 117.702 202.999 116.267L203.141 113.626ZM214.838 116.78C215.015 116.958 215.405 117.489 215.671 117.986C215.954 118.464 216.185 119.049 216.185 119.262C216.185 119.652 216.132 119.669 214.377 119.669C213.367 119.669 212.321 119.616 211.488 119.439L212.374 118.978C212.853 118.712 213.473 118.234 213.739 117.897C214.023 117.543 214.306 117.082 214.377 116.869C214.501 116.461 214.519 116.461 214.838 116.78ZM130.76 119.935L131.523 121.069C131.93 121.707 132.728 122.7 133.277 123.285C133.844 123.87 134.305 124.419 134.305 124.49C134.305 124.561 134.004 124.543 133.649 124.454C133.277 124.348 132.87 124.277 132.745 124.277C132.621 124.277 132.285 124.508 132.001 124.809C131.7 125.11 131.469 125.518 131.469 125.784C131.469 126.014 131.593 126.457 131.735 126.758C131.983 127.237 131.966 127.751 131.611 131.898C131.257 136.01 131.168 136.506 130.902 136.506C130.601 136.506 130.601 136.152 130.672 130.959C130.725 127.91 130.76 124.189 130.76 122.682V119.935ZM153.393 120.555C153.546 120.555 153.57 120.626 153.463 120.768C153.357 120.892 153.269 121.176 153.233 121.388C153.215 121.601 153.056 121.92 152.914 122.097C152.755 122.275 152.134 122.842 151.549 123.391C150.947 123.923 150.132 124.632 149.706 124.986C149.299 125.323 148.767 125.784 148.537 125.996C148.306 126.209 148.076 126.404 148.04 126.404C147.987 126.404 148.023 126.262 148.111 126.085C148.2 125.908 148.767 125.217 149.37 124.543C149.99 123.852 151.089 122.682 151.815 121.92C152.56 121.158 153.269 120.555 153.393 120.555ZM211.984 121.442C212.055 121.442 212.144 121.548 212.197 121.707C212.25 121.849 212.286 122.062 212.303 122.186C212.303 122.31 212.233 122.363 212.162 122.292C212.091 122.221 211.577 122.328 211.045 122.523C210.513 122.718 209.822 123.072 209.503 123.303C209.184 123.551 208.741 124.029 208.511 124.401C208.263 124.774 207.944 125.5 207.784 126.05C207.607 126.617 207.306 129.116 207.057 132.075C206.809 134.84 206.544 138.101 206.437 139.289C206.349 140.476 206.154 141.681 206.012 141.947C205.888 142.213 205.657 142.532 205.533 142.656C205.392 142.78 204.789 142.975 204.186 143.099C203.566 143.223 203.07 143.4 203.07 143.507C203.07 143.595 203.194 144.003 203.353 144.393C203.513 144.783 203.814 145.332 204.399 146.13L203.602 146.006C203.158 145.935 202.379 145.793 200.908 145.456L201.032 144.659C201.085 144.215 201.173 143.507 201.227 143.099C201.298 142.425 201.333 142.372 201.652 142.532C201.847 142.62 202.325 142.709 202.715 142.709C203.105 142.709 203.743 142.55 204.133 142.355C204.523 142.142 204.966 141.752 205.108 141.468C205.25 141.167 205.445 140.387 205.533 139.732C205.622 139.076 205.746 137.534 205.817 136.329C205.87 135.106 205.994 132.944 206.1 131.544C206.189 130.126 206.366 128.371 206.473 127.645C206.561 126.9 206.792 125.908 206.951 125.429C207.128 124.933 207.536 124.153 207.873 123.692C208.209 123.214 208.794 122.629 209.184 122.363C209.574 122.097 210.336 121.796 210.868 121.672C211.4 121.566 211.914 121.459 211.984 121.442ZM134.181 126.758H134.961C135.67 126.758 135.723 126.776 135.634 127.148C135.599 127.361 135.475 127.928 135.368 128.389C135.28 128.85 135.067 130.25 134.925 131.49C134.766 132.731 134.589 134.362 134.518 135.106C134.411 136.382 134.376 136.488 133.951 136.559C133.702 136.612 133.49 136.63 133.472 136.612C133.454 136.595 133.543 135.514 133.685 134.202C133.827 132.873 134.004 130.658 134.075 129.275L134.181 126.758ZM232.578 131.579C232.773 131.561 233.199 131.597 233.553 131.65C234.138 131.756 234.173 131.792 234.085 133.139L228.591 133.227V131.721L230.399 131.668C231.409 131.65 232.383 131.597 232.578 131.579ZM226.411 132.696C226.446 132.891 226.198 134.415 225.844 136.063C225.507 137.729 225.064 139.678 224.869 140.405C224.674 141.132 224.444 142.053 224.373 142.443C224.284 142.886 224.249 142.089 224.284 140.405C224.32 138.81 224.461 137.18 224.603 136.506C224.763 135.868 225.206 134.681 225.613 133.848C226.127 132.82 226.375 132.465 226.411 132.696ZM190.221 133.67L190.079 134.326C190.008 134.698 189.955 135.372 189.955 136.683H188.271L187.686 135.319C187.367 134.557 187.102 133.883 187.102 133.812C187.119 133.724 187.81 133.67 190.221 133.67ZM233.872 134.946C233.89 134.929 233.872 135.248 233.837 135.673C233.784 136.081 233.73 136.524 233.73 136.648C233.73 136.807 233.021 136.861 227.882 136.861L227.953 136.471C227.988 136.24 228.077 135.85 228.236 135.088L231.019 135.035C232.561 135.017 233.837 134.982 233.872 134.946ZM172.746 139.076C175.475 139.076 175.954 139.111 175.954 139.342C175.954 139.483 175.901 139.873 175.688 140.777L169.751 140.76V140.281C169.733 139.997 169.698 139.625 169.644 139.43C169.556 139.094 169.644 139.076 172.746 139.076ZM227.474 139.076C227.598 139.129 228.998 139.164 233.465 139.164L233.323 140.635C233.252 141.433 232.986 143.524 232.738 145.279C232.49 147.033 232.011 150.543 231.675 153.077C231.338 155.611 230.753 159.634 230.363 162.027C229.955 164.42 229.371 168.212 229.034 170.445C228.697 172.696 228.236 175.638 227.651 179.484L226.783 179.449C226.056 179.395 225.915 179.342 225.861 179.006C225.808 178.775 225.613 177.286 225.401 175.674C225.188 174.061 224.851 171.509 224.674 170.002C224.497 168.496 224.178 166.174 223.983 164.863C223.788 163.551 223.628 162.009 223.628 160.432H224.904C225.755 160.432 226.322 160.343 226.588 160.166C226.836 160.007 226.996 159.723 226.996 159.422C226.996 159.138 226.889 158.784 226.765 158.589C226.641 158.394 226.234 158.217 225.755 158.146C225.011 158.057 224.958 158.004 224.851 157.419C224.798 157.082 224.621 156.533 224.444 156.232C224.284 155.913 224.089 155.611 224.018 155.576C223.947 155.523 223.947 155.151 224.018 154.725C224.089 154.318 224.142 153.148 224.142 152.155C224.16 150.33 224.16 150.33 224.709 149.851C225.011 149.568 225.383 149.142 225.507 148.877C225.684 148.522 225.702 148.221 225.578 147.813C225.489 147.494 225.241 147.069 225.046 146.874C224.709 146.519 224.709 146.502 225.028 145.899C225.206 145.562 225.507 144.818 226.021 143.241H227.616C228.679 143.241 229.3 143.17 229.441 143.028C229.566 142.904 229.654 142.603 229.654 142.355C229.654 142.106 229.583 141.823 229.512 141.717C229.441 141.61 229.211 141.433 228.981 141.327C228.768 141.203 228.254 141.114 227.829 141.114C227.421 141.132 227.031 141.096 226.996 141.043C226.943 140.99 226.978 140.511 227.084 139.98C227.208 139.289 227.332 139.005 227.474 139.076ZM121.934 139.342C122.005 139.342 122.076 139.395 122.076 139.483C122.076 139.554 122.927 139.678 123.973 139.767C125.018 139.856 126.56 139.944 127.393 139.962C128.35 139.997 128.988 139.944 129.148 139.82C129.307 139.678 130.264 139.625 132.249 139.661C133.809 139.678 135.138 139.767 135.191 139.838C135.227 139.927 135.546 139.98 135.9 139.98C136.237 139.997 136.769 139.997 137.088 140.015C137.477 140.051 137.672 140.139 137.672 140.316C137.672 140.529 137.265 140.6 135.492 140.689C134.305 140.742 130.707 140.76 121.704 140.671L121.74 140.015C121.757 139.643 121.846 139.342 121.934 139.342ZM192.861 139.537C193.943 139.537 195.201 139.59 195.662 139.661C196.14 139.732 196.583 139.909 196.672 140.051C196.778 140.228 196.955 140.281 197.204 140.192C197.416 140.104 197.576 140.122 197.576 140.228C197.576 140.334 197.735 140.405 197.93 140.405C198.125 140.405 198.285 140.494 198.285 140.582C198.285 140.706 194.882 140.724 188.218 140.653C182.689 140.582 178.151 140.529 178.134 140.511C178.116 140.511 178.134 140.334 178.187 140.139C178.276 139.803 178.435 139.785 184.496 139.732C187.917 139.714 190.77 139.661 190.806 139.608C190.859 139.554 191.78 139.519 192.861 139.537ZM213.225 142.567C213.314 142.798 213.331 143.471 213.278 144.091C213.207 144.694 213.03 145.509 212.853 145.899C212.693 146.289 212.02 147.211 210.248 149.249H202.662C195.289 149.267 195.059 149.284 194.067 149.656C193.393 149.922 192.755 150.365 192.153 150.95C191.674 151.429 191.107 152.155 190.912 152.545C190.646 153.112 190.575 153.626 190.575 155.026C190.575 156.001 190.752 158.199 190.965 159.9C191.196 161.602 191.568 164.792 191.816 166.989C192.064 169.187 192.418 172.235 192.968 176.56L192.347 177.357C191.993 177.8 191.674 178.438 191.55 179.395H178.258V178.917C178.24 178.633 178.098 178.102 177.903 177.712C177.726 177.322 177.212 176.666 176.751 176.258C176.308 175.833 175.493 175.284 174.926 175.018C174.376 174.752 173.88 174.522 173.863 174.522C173.827 174.522 174.235 173.937 174.749 173.21C175.263 172.483 176.397 170.942 177.283 169.772C178.151 168.602 179.286 167.078 179.782 166.387C180.278 165.696 181.625 163.888 182.759 162.381C183.876 160.875 185.099 159.085 185.453 158.394C185.843 157.649 186.162 156.728 186.251 156.09C186.339 155.416 186.322 154.672 186.215 154.052C186.109 153.52 185.825 152.758 185.613 152.368C185.382 151.978 184.922 151.393 184.603 151.057C184.284 150.72 183.486 150.206 181.714 149.355L169.928 149.267V142.975L171.381 143.117C172.197 143.188 178.754 143.241 199.082 143.241L198.958 143.719C198.887 144.003 198.763 144.641 198.692 145.137C198.55 146.059 198.551 146.059 199.259 146.75C199.649 147.122 200.429 147.601 200.979 147.813C201.687 148.079 202.591 148.239 203.903 148.309C205.073 148.38 206.295 148.345 207.057 148.221C207.731 148.115 208.777 147.796 209.361 147.512C209.946 147.246 210.779 146.661 211.222 146.236C211.701 145.74 212.162 145.048 212.41 144.428C212.64 143.879 212.8 143.188 212.782 142.922C212.764 142.638 212.817 142.355 212.906 142.284C212.995 142.213 213.136 142.355 213.225 142.567ZM244.967 144.215L245.286 145.279C245.463 145.864 245.959 148.097 246.402 150.241C246.828 152.386 247.466 155.381 247.802 156.887C248.139 158.394 249.185 163.037 250.106 167.22C251.046 171.385 251.808 174.876 251.808 174.965C251.808 175.071 251.701 175.142 251.577 175.142C251.453 175.142 250.957 175.248 250.479 175.39C249.929 175.55 249.256 175.939 248.706 176.436C248.104 176.967 247.661 177.57 246.845 179.395H242.858L242.999 177.942C243.07 177.127 243.372 174.717 243.655 172.572C243.939 170.428 244.346 167.238 244.559 165.483C244.754 163.728 244.949 161.531 244.949 160.609C244.984 158.925 244.967 158.89 244.151 157.242C243.708 156.32 243.283 155.416 243.23 155.257C243.159 155.08 243.248 154.158 243.389 153.219C243.531 152.262 243.797 150.684 243.992 149.71C244.169 148.735 244.47 147.104 244.648 146.076L244.967 144.215ZM169.432 159.741C169.893 159.741 170.283 159.758 170.283 159.812C170.283 159.865 169.91 160.396 169.485 161.017C169.042 161.619 168.156 162.789 167.518 163.622C166.88 164.455 165.55 166.21 164.558 167.521C163.583 168.833 162.573 170.197 162.307 170.534C162.041 170.871 161.084 172.271 160.18 173.635C159.259 175 158.479 176.241 158.444 176.383C158.408 176.524 158.515 176.772 158.674 176.914C158.904 177.109 159.649 177.215 161.581 177.286C162.998 177.357 164.363 177.322 164.611 177.233C164.983 177.109 165.143 177.18 165.675 177.676C166.011 177.995 166.614 178.474 167.004 178.722C167.394 178.97 167.872 179.218 168.067 179.271C168.262 179.307 165.657 179.36 156.193 179.395L156.317 174.22C156.388 171.367 156.459 167.043 156.459 160.166L158.975 160.272C160.358 160.343 162.095 160.326 162.839 160.237C163.566 160.148 164.842 160.077 165.675 160.06C166.49 160.042 167.5 159.971 167.89 159.9C168.28 159.829 168.971 159.758 169.432 159.741ZM203.247 160.432H212.374C220.314 160.432 221.502 160.467 221.59 160.698C221.626 160.84 221.679 161.07 221.679 161.194C221.679 161.354 219.712 161.407 203.247 161.407V160.432ZM137.247 161.85C137.69 161.85 138.009 162.009 138.47 162.47C138.807 162.807 139.055 163.232 139.037 163.409C139.002 163.604 138.824 163.728 138.452 163.746C138.169 163.746 137.318 163.764 136.574 163.782C135.617 163.799 135.12 163.888 134.925 164.065C134.784 164.207 134.66 164.26 134.66 164.154C134.66 164.065 134.73 163.782 134.837 163.533C134.925 163.285 135.386 162.807 135.829 162.47C136.396 162.045 136.857 161.85 137.247 161.85ZM221.537 163.675C221.608 163.64 221.697 164.207 221.767 164.916C221.821 165.607 221.98 166.919 222.122 167.787C222.264 168.673 222.654 171.456 222.99 173.99C223.345 176.524 223.646 178.775 223.717 179.395H202.627L202.928 173.246C203.105 169.843 203.283 166.334 203.424 163.799L212.41 163.764C217.354 163.728 221.466 163.693 221.537 163.675ZM128.705 169.683C128.9 169.719 129.325 170.091 129.644 170.534C129.963 170.977 130.211 171.349 130.176 171.367C130.158 171.385 129.608 171.296 128.988 171.19C128.049 171.012 127.818 170.906 127.783 170.623C127.748 170.428 127.854 170.126 128.031 169.949C128.208 169.772 128.492 169.666 128.705 169.683Z" fill="white"/>
<path fill-rule="evenodd" clip-rule="evenodd" d="M162.13 51.9854C162.325 51.9854 162.91 52.2512 163.424 52.5702C163.92 52.8892 164.576 53.3855 164.841 53.6867C165.107 53.9703 165.568 54.6792 165.834 55.2641C166.135 55.8667 166.472 57.0186 166.614 57.9225C166.756 58.7909 166.915 59.8011 167.057 60.7582L157.699 60.8468L157.77 58.9327C157.805 57.8871 157.947 56.7174 158.089 56.3275C158.231 55.9376 158.55 55.2818 158.816 54.8565C159.082 54.4488 159.861 53.6867 160.535 53.1905C161.226 52.6765 161.793 52.198 161.775 52.1271C161.775 52.0385 161.935 51.9854 162.13 51.9854ZM207.412 60.9177C209.166 60.9177 209.84 60.9531 208.918 60.9709C207.997 61.0063 206.561 61.0063 205.728 60.9709C204.895 60.9531 205.657 60.9177 207.412 60.9177ZM163.016 63.009C166.277 63.0267 168.421 63.0622 167.766 63.0976C167.092 63.133 166.561 63.2217 166.561 63.328C166.561 63.4343 166.596 63.6293 166.649 63.7711C166.702 63.9128 166.951 64.0369 167.216 64.0369C167.5 64.0369 168.315 64.1432 169.042 64.285C169.768 64.4091 170.92 64.6572 171.612 64.8344C172.303 65.0117 173.295 65.3661 173.827 65.6497C174.359 65.9155 175.05 66.3054 175.333 66.5004C175.617 66.6953 175.918 66.8194 175.989 66.7662C176.078 66.7308 176.663 67.2093 177.318 67.8296C178.134 68.5917 178.807 69.4601 179.427 70.5235C179.924 71.3919 180.526 72.6502 180.792 73.3414C181.058 74.0326 181.43 75.3087 181.607 76.1771C181.802 77.0455 181.909 77.8076 181.873 77.8608C181.82 77.9139 172.356 77.9494 160.836 77.9671C149.316 77.9671 140.65 77.9316 141.571 77.8608C143.166 77.7544 143.184 77.7544 140.862 77.6835L140.969 77.0278C141.022 76.6556 141.288 75.8403 141.536 75.2023C141.784 74.5643 142.351 73.4478 142.776 72.7211C143.202 71.9945 143.928 70.9311 144.389 70.364C144.832 69.7968 146.002 68.698 146.977 67.9359C147.969 67.1561 149.493 66.1814 150.433 65.7206C151.354 65.2598 152.754 64.6927 153.534 64.48C154.314 64.2496 155.289 64.0192 155.714 63.966C156.193 63.8951 156.494 63.7533 156.583 63.5584C156.636 63.3812 156.778 63.1862 156.884 63.1153C156.99 63.0444 159.755 62.9913 163.016 63.009ZM189.246 63.0622C196.707 63.0622 199.738 63.0799 195.981 63.0976C192.223 63.133 186.127 63.133 182.423 63.0976C178.718 63.0799 181.785 63.0622 189.246 63.0622ZM130.707 67.5815C130.743 69.0879 130.743 71.64 130.707 73.2528C130.689 74.8656 130.654 73.625 130.654 70.5058C130.654 67.3865 130.689 66.075 130.707 67.5815ZM165.94 80.2356C168.28 80.2356 169.272 80.2711 168.156 80.2888C167.039 80.3242 165.125 80.3242 163.902 80.2888C162.679 80.2711 163.601 80.2356 165.94 80.2356ZM177.372 80.2356C180.243 80.2356 181.412 80.2711 179.941 80.2888C178.47 80.3242 176.131 80.3242 174.713 80.2888C173.295 80.2711 174.5 80.2356 177.372 80.2356ZM230.558 93.1379C230.647 93.3328 230.806 93.4037 230.93 93.3328C231.072 93.2383 231.113 93.2797 231.054 93.4569C231.001 93.6164 231.249 93.9886 231.674 94.3962C232.082 94.7507 232.49 95.0519 232.578 95.0519C232.667 95.0519 233.11 95.5836 233.553 96.2217C233.996 96.8774 234.599 97.6218 235.414 98.3484L234.563 98.9155C233.73 99.4827 233.73 99.4827 233.411 99.1282C233.252 98.9333 232.826 98.7206 232.49 98.6497C231.976 98.5611 231.799 98.6142 231.426 99.0041C231.036 99.4118 230.912 99.4472 230.363 99.3054C230.026 99.2168 229.548 98.9864 229.3 98.7915C229.051 98.5965 228.963 98.437 229.069 98.4193C229.193 98.4193 229.246 98.313 229.193 98.2066C229.122 98.0826 229.069 97.7281 229.087 97.4445C229.087 97.161 229.388 95.9913 229.743 94.8747C230.239 93.3151 230.434 92.9075 230.558 93.1379ZM138.86 113.218C138.895 114.193 138.895 115.823 138.86 116.851C138.842 117.879 138.807 117.081 138.807 115.079C138.807 113.076 138.842 112.243 138.86 113.218ZM94.5171 112.775H96.6438C97.8135 112.775 99.32 112.863 100.011 112.952C100.685 113.058 102.085 113.342 103.113 113.59C104.141 113.856 105.31 114.228 106.48 114.813V179.413L94.5171 179.36V112.775ZM155.909 119.864C156.015 119.864 156.104 119.953 156.104 120.041C156.104 120.148 157.345 120.236 159.33 120.272C162.148 120.325 162.697 120.378 163.548 120.715C164.079 120.927 164.877 121.406 165.302 121.76C165.728 122.133 166.259 122.806 166.472 123.231C166.702 123.674 167.004 124.667 167.163 125.447C167.323 126.226 167.801 128.903 168.227 131.384C168.67 133.883 169.113 136.559 169.254 137.374C169.467 138.739 169.52 138.845 169.928 138.863C170.336 138.881 170.336 138.881 169.963 138.952C169.609 139.005 169.573 139.093 169.662 140.688L168.244 140.635C167.464 140.617 166.188 140.511 165.409 140.423C164.629 140.316 163.317 140.104 162.484 139.944C161.651 139.802 160.889 139.607 160.801 139.519C160.694 139.43 160.482 139.359 160.304 139.359C160.127 139.359 159.897 139.625 159.72 140.033C159.489 140.6 159.471 140.759 159.684 141.185C159.808 141.468 160.145 141.752 160.446 141.858C160.73 141.947 162.165 142.195 163.636 142.39C165.09 142.585 166.667 142.726 167.978 142.726V149.461L157.965 149.373L157.841 146.891C157.77 145.527 157.628 143.205 157.522 141.716C157.416 140.157 157.238 138.81 157.097 138.526C156.973 138.26 156.547 137.764 155.484 136.86L151.319 136.967L151.408 135.549C151.461 134.769 151.549 133.812 151.602 133.422C151.656 132.997 151.975 132.323 152.4 131.738C152.825 131.171 153.091 130.569 153.091 130.285C153.091 129.913 152.949 129.718 152.56 129.523C152.258 129.381 151.868 129.257 151.673 129.257C151.478 129.257 151.035 129.523 150.681 129.842C150.22 130.267 149.954 130.71 149.706 131.561C149.529 132.199 149.299 133.564 149.192 134.574C149.086 135.602 149.015 136.541 149.015 136.665C149.015 136.825 148.607 136.878 146.179 136.878L146.055 136.045C145.967 135.584 145.913 134.166 145.913 132.89C145.931 130.834 145.984 130.462 146.392 129.346C146.658 128.672 147.065 127.733 147.314 127.272C147.579 126.811 147.845 126.421 147.952 126.421C148.04 126.421 148.306 126.244 148.536 126.032C148.767 125.801 149.281 125.358 149.706 125.004C150.114 124.667 150.947 123.958 151.549 123.409C152.134 122.877 152.754 122.292 152.896 122.115C153.056 121.938 153.198 121.619 153.233 121.406C153.268 121.193 153.375 120.927 153.481 120.803C153.587 120.679 153.836 120.573 154.048 120.573C154.35 120.573 154.367 120.537 154.155 120.396C153.96 120.254 154.101 120.236 154.686 120.307C155.289 120.378 155.395 120.36 155.129 120.218C154.846 120.077 154.881 120.059 155.342 120.13C155.714 120.183 155.891 120.165 155.821 120.041C155.767 119.953 155.803 119.864 155.909 119.864ZM215.812 122.079C218.418 122.168 219.552 122.292 220.35 122.54C221.041 122.753 221.767 123.178 222.441 123.71C222.99 124.188 223.735 124.968 224.089 125.447C224.426 125.943 224.887 126.935 225.117 127.662C225.347 128.406 225.578 129.239 225.631 129.523C225.72 129.966 225.613 130.179 225.028 130.817C224.656 131.224 224.249 131.561 224.16 131.561C224.054 131.561 223.983 131.721 223.983 131.916C223.983 132.11 223.894 132.27 223.805 132.27C223.699 132.27 223.664 132.359 223.717 132.447C223.77 132.554 223.681 132.678 223.54 132.713C223.398 132.766 223.309 132.89 223.362 132.979C223.416 133.085 223.416 133.28 223.362 133.422C223.309 133.581 223.185 133.635 223.061 133.564C222.902 133.457 222.902 133.546 223.008 133.865C223.114 134.202 223.114 134.273 222.955 134.184C222.813 134.095 222.76 134.149 222.778 134.361C222.813 134.521 222.76 134.999 222.689 135.425C222.618 135.832 222.512 136.169 222.423 136.169C222.352 136.169 222.281 136.665 222.246 137.286C222.21 137.888 222.14 138.402 222.069 138.438C221.998 138.455 221.962 140.83 221.98 143.701C222.015 147.76 221.98 148.912 221.821 148.805C221.661 148.699 221.643 148.788 221.838 149.55L216.202 149.461C213.083 149.426 210.478 149.319 210.389 149.249C210.318 149.178 210.761 148.593 211.382 147.919C212.002 147.264 212.658 146.395 212.835 146.005C213.012 145.615 213.207 144.906 213.278 144.41C213.331 143.932 213.349 143.223 213.278 142.868C213.207 142.407 213.101 142.248 212.959 142.337C212.8 142.425 212.782 142.195 212.888 141.397C212.959 140.812 213.225 139.217 213.455 137.853C213.703 136.488 213.987 134.875 214.111 134.273C214.253 133.54 214.265 133.115 214.147 132.997C214.04 132.89 213.686 132.766 213.349 132.695C212.935 132.624 212.64 132.672 212.463 132.837C212.303 132.979 212.02 133.954 211.789 135.194C211.559 136.364 211.258 137.924 211.116 138.65C210.956 139.395 210.797 140.104 210.744 140.245C210.691 140.405 210.62 140.919 210.584 141.397C210.549 141.894 210.425 142.301 210.336 142.337C210.23 142.354 210.212 142.585 210.283 142.868C210.389 143.258 210.354 143.311 210.159 143.17C209.964 143.028 209.946 143.081 210.035 143.4C210.123 143.701 210.017 143.949 209.485 144.499C209.113 144.906 208.44 145.349 207.89 145.562C207.288 145.793 206.809 145.881 206.473 145.793C206.118 145.704 206.029 145.722 206.118 145.881C206.224 146.041 206.012 146.094 205.267 146.058C204.523 146.023 204.222 145.917 204.009 145.651C203.867 145.456 203.584 144.96 203.406 144.552C203.229 144.127 203.07 143.701 203.07 143.577C203.07 143.435 203.531 143.258 204.169 143.134C204.789 143.01 205.391 142.797 205.533 142.691C205.657 142.567 205.888 142.248 206.012 141.982C206.154 141.716 206.331 140.511 206.437 139.324C206.526 138.119 206.809 134.875 207.057 132.093C207.305 129.151 207.607 126.634 207.784 126.067C207.944 125.535 208.263 124.791 208.493 124.436C208.723 124.064 209.184 123.568 209.485 123.338C209.804 123.09 210.513 122.735 211.045 122.54C211.577 122.345 212.073 122.257 212.162 122.31C212.232 122.381 212.303 122.327 212.321 122.186C212.339 121.991 212.906 121.973 215.812 122.079ZM253.615 123.497C253.722 123.568 253.793 123.905 253.775 124.259C253.775 124.631 253.846 125.234 253.934 125.624C254.023 126.014 254.537 129.168 255.069 132.624C255.618 136.098 256.256 140.157 256.504 141.663C256.735 143.187 257.231 146.165 257.603 148.309C258.046 150.95 258.206 152.385 258.117 152.74C258.028 153.041 257.55 153.697 257.018 154.211C256.398 154.796 255.565 155.363 254.679 155.771C253.934 156.125 252.623 156.657 251.754 156.923C250.904 157.206 250.124 157.401 250.035 157.348C249.929 157.312 249.858 157.082 249.858 156.869C249.858 156.639 249.575 155.15 249.22 153.537C248.866 151.942 248.369 149.337 247.607 144.942L248.121 144.233C248.405 143.843 248.706 143.276 248.795 142.957C248.937 142.514 248.901 142.23 248.653 141.716C248.423 141.185 248.228 141.043 247.82 140.99C247.519 140.954 247.2 141.043 247.076 141.167C246.952 141.291 246.774 141.805 246.686 142.283C246.579 142.78 246.455 143.223 246.402 143.258C246.349 143.311 246.03 143.028 245.693 142.638C245.357 142.248 245.108 141.823 245.162 141.663C245.197 141.521 245.445 139.802 245.693 137.853C245.941 135.903 246.136 134.095 246.136 133.83C246.136 133.564 246.012 133.227 245.87 133.068C245.729 132.926 245.357 132.802 245.073 132.802C244.665 132.802 244.506 132.908 244.346 133.298C244.24 133.564 244.01 134.982 243.815 136.435C243.62 137.906 243.265 140.529 243.017 142.283C242.787 144.038 242.415 146.519 242.22 147.778C242.025 149.054 241.706 150.968 241.511 152.031C241.316 153.112 241.121 154.388 241.068 154.867C240.961 155.717 241.014 155.824 242.858 158.553L242.84 160.609C242.84 161.743 242.609 164.348 242.344 166.387C242.096 168.442 241.794 170.8 241.706 171.615C241.599 172.448 241.351 174.45 241.174 176.046C240.979 177.658 240.819 179.076 240.819 179.2C240.819 179.377 239.579 179.413 235.237 179.413C229.991 179.413 229.654 179.395 229.76 179.112C229.814 178.934 229.938 178.367 230.026 177.818C230.115 177.286 230.576 174.131 231.072 170.817C231.568 167.503 232.242 163.037 232.578 160.892C232.915 158.748 233.429 155.133 233.73 152.829C234.032 150.542 234.386 147.795 234.528 146.714C234.67 145.651 234.9 143.861 235.06 142.726C235.201 141.61 235.573 138.827 235.857 136.523C236.158 134.237 236.389 132.146 236.389 131.88C236.389 131.614 236.442 131.384 236.513 131.384C236.601 131.384 237.257 131.508 237.984 131.667C239.083 131.898 239.543 131.898 240.642 131.721C241.369 131.614 242.609 131.313 243.389 131.047C244.169 130.781 245.445 130.232 246.225 129.824C247.005 129.417 248.316 128.584 249.149 127.963C249.982 127.343 251.276 126.191 252.02 125.394C252.782 124.596 253.403 123.816 253.42 123.674C253.438 123.515 253.527 123.444 253.615 123.497ZM137.105 126.829C137.885 126.829 138.523 126.882 138.541 126.935C138.558 127.006 138.452 127.733 138.31 128.548C138.169 129.381 137.974 131.1 137.867 132.359C137.761 133.635 137.619 135.123 137.495 136.701L135.581 136.683C134.535 136.665 133.844 136.63 134.039 136.594C134.34 136.523 134.411 136.329 134.518 135.141C134.589 134.397 134.766 132.766 134.908 131.526C135.067 130.285 135.28 128.885 135.368 128.424C135.475 127.963 135.581 127.414 135.616 127.201C135.687 126.847 135.794 126.829 137.105 126.829ZM231.426 133.227C232.933 133.227 233.571 133.262 232.844 133.298C232.118 133.333 230.877 133.333 230.097 133.298C229.317 133.262 229.92 133.227 231.426 133.227ZM124.292 136.612C126.631 136.612 127.623 136.63 126.507 136.665C125.39 136.683 123.476 136.683 122.253 136.665C121.031 136.63 121.952 136.612 124.292 136.612ZM125.851 138.969C128.12 139.04 133.171 139.093 144.212 139.093L144.318 139.714C144.389 140.104 144.372 140.352 144.247 140.387C144.141 140.405 144.088 140.493 144.123 140.564C144.159 140.635 142.227 140.688 139.834 140.688C137.424 140.688 135.953 140.671 136.556 140.653C137.406 140.617 137.672 140.547 137.672 140.334C137.672 140.157 137.477 140.068 137.087 140.05C136.786 140.033 136.237 140.015 135.9 140.015C135.563 139.997 135.244 139.944 135.191 139.855C135.138 139.784 133.826 139.696 132.249 139.678C130.264 139.643 129.325 139.696 129.148 139.838C128.988 139.962 128.35 140.033 127.393 139.997C126.56 139.962 125.054 139.873 124.026 139.802C122.75 139.696 122.076 139.572 121.863 139.377C121.704 139.217 121.598 139.04 121.651 138.969C121.704 138.898 123.583 138.898 125.851 138.969ZM178.506 139.005C178.63 139.129 182.547 139.164 189.689 139.111C195.732 139.076 200.748 139.022 200.854 139.005C200.943 138.987 201.102 138.987 201.209 139.005C201.297 139.022 201.918 139.022 202.573 139.022C203.619 139.005 203.779 139.058 203.761 139.324C203.761 139.483 203.725 139.536 203.672 139.412C203.637 139.288 203.424 139.182 203.194 139.182C202.857 139.164 202.839 139.217 203.017 139.448C203.212 139.66 203.194 139.784 202.963 140.033C202.733 140.281 202.733 140.369 202.928 140.476C203.087 140.564 203.052 140.6 202.804 140.6C202.609 140.6 202.184 140.405 201.865 140.157C201.563 139.909 201.315 139.625 201.333 139.501C201.368 139.395 201.227 139.271 201.032 139.235C200.837 139.182 200.5 139.2 200.27 139.253C200.057 139.324 199.915 139.448 199.968 139.536C200.021 139.643 199.968 139.767 199.88 139.802C199.773 139.855 199.702 139.802 199.702 139.678C199.702 139.554 199.472 139.696 199.188 139.979C198.781 140.423 198.745 140.529 198.976 140.617C199.224 140.706 199.224 140.742 198.94 140.848C198.763 140.901 198.533 140.848 198.373 140.688C198.231 140.547 197.983 140.423 197.841 140.423C197.7 140.423 197.576 140.352 197.576 140.245C197.576 140.157 197.416 140.121 197.221 140.157C197.026 140.21 196.76 140.139 196.636 140.015C196.53 139.891 195.821 139.714 195.094 139.643C194.368 139.572 192.489 139.554 190.93 139.625C189.37 139.696 185.879 139.749 183.185 139.767C178.984 139.802 178.258 139.838 178.187 140.068C178.151 140.228 178.098 140.05 178.063 139.696C178.045 139.359 178.08 139.022 178.169 138.952C178.24 138.881 178.399 138.916 178.506 139.005ZM149.192 139.005V141.362C149.192 142.656 149.139 144.499 148.962 147.246L148.643 146.626C148.466 146.289 148.111 145.367 147.881 144.587C147.633 143.808 147.26 142.372 147.065 141.397C146.87 140.423 146.711 139.483 146.711 139.324C146.711 139.058 146.888 139.005 149.192 139.005ZM230.54 139.076C232.242 139.076 232.915 139.111 232.047 139.146C231.16 139.182 229.778 139.182 228.945 139.146C228.112 139.111 228.839 139.076 230.54 139.076ZM184.815 140.688C188.572 140.688 190.079 140.706 188.183 140.742C186.286 140.759 183.202 140.759 181.359 140.742C179.498 140.706 181.058 140.688 184.815 140.688ZM127.393 143.17C131.54 143.17 133.206 143.187 131.115 143.223C129.024 143.24 125.621 143.24 123.583 143.223C121.527 143.187 123.246 143.17 127.393 143.17ZM140.685 143.17C142.971 143.17 143.893 143.187 142.723 143.223C141.554 143.24 139.675 143.24 138.558 143.223C137.442 143.187 138.399 143.17 140.685 143.17ZM178.169 143.17C181.678 143.17 183.149 143.187 181.448 143.223C179.746 143.24 176.875 143.24 175.068 143.223C173.26 143.187 174.66 143.17 178.169 143.17ZM195.094 143.17C197.292 143.17 198.16 143.187 197.044 143.223C195.927 143.24 194.12 143.24 193.056 143.223C191.975 143.187 192.897 143.17 195.094 143.17ZM176.928 151.446L178.967 151.535C180.083 151.588 181.359 151.73 181.802 151.871C182.245 152.013 182.777 152.244 182.99 152.385C183.22 152.527 183.557 152.97 183.752 153.36C183.947 153.768 184.106 154.424 184.106 154.867C184.106 155.31 183.929 156.125 183.734 156.692C183.521 157.242 182.937 158.34 182.423 159.12C181.909 159.9 180.828 161.424 180.048 162.488C179.25 163.569 177.903 165.359 177.053 166.475C176.202 167.592 174.695 169.648 173.685 171.048C172.693 172.43 171.824 173.6 171.736 173.635C171.665 173.671 170.566 173.068 169.29 172.271C168.014 171.473 166.667 170.534 165.586 169.559L166.1 168.939C166.366 168.62 167.411 167.273 168.404 165.979C169.379 164.685 170.779 162.807 171.488 161.814C172.196 160.822 173.189 159.421 173.685 158.677C174.181 157.95 174.873 156.993 175.227 156.55C175.582 156.125 176.432 155.079 177.123 154.246C178.134 153.059 178.364 152.687 178.24 152.439C178.151 152.261 177.815 151.978 177.496 151.783L176.928 151.446ZM222.033 151.428L222.051 155.416L220.934 155.646C220.332 155.788 217.78 156.409 210.691 158.163H199.525L199.082 158.606C198.763 158.925 198.674 159.156 198.763 159.439C198.834 159.652 199.047 159.971 199.259 160.148C199.472 160.325 199.933 160.449 201.209 160.467L201.173 162.363C201.156 163.409 201.049 166.192 200.961 168.531C200.854 170.87 200.748 173.582 200.677 176.382L198.55 176.506C197.381 176.559 196.105 176.595 195.715 176.559C195.059 176.506 195.006 176.471 194.97 175.886C194.935 175.532 194.722 173.458 194.492 171.278C194.244 169.08 193.889 165.731 193.677 163.834C193.482 161.92 193.145 159.333 192.95 158.075C192.755 156.798 192.613 155.274 192.649 154.689C192.702 153.856 192.826 153.467 193.198 152.953C193.464 152.598 193.942 152.173 194.261 151.996C194.775 151.712 195.644 151.677 202.361 151.606C206.508 151.552 212.64 151.482 222.033 151.428ZM154.296 164.986C154.332 167.609 154.332 171.952 154.296 174.645C154.261 177.322 154.243 175.159 154.243 169.86C154.243 164.543 154.261 162.346 154.296 164.986ZM156.423 163.923C156.459 165.483 156.459 168.07 156.423 169.683C156.388 171.278 156.37 170.002 156.37 166.847C156.37 163.675 156.388 162.363 156.423 163.923ZM212.906 161.424C216.521 161.424 218.028 161.442 216.273 161.477C214.519 161.513 211.577 161.513 209.716 161.477C207.873 161.442 209.308 161.424 212.906 161.424ZM139.25 164.189C139.267 164.791 139.179 165.447 138.984 165.961C138.824 166.387 138.541 167.007 138.363 167.326C138.186 167.645 137.956 167.911 137.85 167.911C137.761 167.911 137.725 167.982 137.761 168.088C137.814 168.177 137.796 168.265 137.725 168.265C137.655 168.265 137.566 168.478 137.513 168.744C137.477 169.01 137.442 169.825 137.424 170.569C137.424 171.65 137.495 172.058 137.885 172.873C138.151 173.405 138.328 174.025 138.293 174.238C138.239 174.504 138.133 174.592 138.009 174.504C137.85 174.415 137.832 174.486 137.938 174.823C138.08 175.177 138.062 175.23 137.85 175.088C137.655 174.947 137.637 174.982 137.761 175.354C137.903 175.709 137.885 175.762 137.672 175.62C137.477 175.478 137.46 175.514 137.584 175.886C137.725 176.24 137.708 176.294 137.495 176.152C137.3 176.01 137.282 176.046 137.406 176.418C137.548 176.772 137.531 176.825 137.318 176.684C137.141 176.542 137.105 176.577 137.212 176.896C137.282 177.127 137.247 177.304 137.141 177.304C137.052 177.304 137.017 177.41 137.052 177.57C137.105 177.711 137.07 177.836 136.963 177.836C136.875 177.836 136.839 177.942 136.875 178.101C136.928 178.243 136.91 178.349 136.839 178.349C136.768 178.349 136.609 178.544 136.485 178.793C136.29 179.2 136.166 179.236 134.482 179.165L134.5 171.544C134.518 167.344 134.553 164.012 134.589 164.136C134.642 164.313 134.73 164.295 134.943 164.1C135.138 163.905 135.634 163.817 136.591 163.817C137.336 163.799 138.186 163.781 138.47 163.764C138.753 163.746 139.019 163.622 139.09 163.48C139.143 163.32 139.214 163.639 139.25 164.189ZM217.957 163.728C219.871 163.728 220.615 163.746 219.641 163.781C218.666 163.817 217.124 163.817 216.185 163.781C215.263 163.746 216.061 163.728 217.957 163.728ZM127.694 170.977L128.829 171.172C129.608 171.313 130.158 171.526 130.548 171.845C130.867 172.111 131.328 172.341 131.558 172.341C131.877 172.341 132.072 172.465 132.178 172.784C132.285 173.015 132.355 173.671 132.355 174.238C132.355 174.805 132.302 175.354 132.231 175.461C132.16 175.567 131.682 175.709 130.229 175.886L129.236 174.947C128.687 174.433 128.137 173.759 127.996 173.44C127.872 173.121 127.747 172.448 127.73 171.916L127.694 170.977ZM164.221 171.473C164.239 171.455 165.09 172.005 166.082 172.66C167.075 173.334 168.351 174.149 168.918 174.486C169.485 174.823 169.946 175.142 169.946 175.23C169.928 175.301 169.733 175.673 169.485 176.063C169.095 176.701 169.006 176.754 168.652 176.577C168.439 176.453 167.695 175.992 167.004 175.532C166.33 175.088 165.409 174.521 164.966 174.291C164.54 174.061 163.92 173.724 163.016 173.228L163.601 172.359C163.92 171.863 164.203 171.473 164.221 171.473ZM131.026 177.836C131.186 177.836 131.292 177.96 131.292 178.101C131.292 178.243 131.203 178.367 131.079 178.367C130.902 178.349 130.902 178.403 131.079 178.633C131.203 178.775 131.452 178.863 131.647 178.81C131.883 178.751 132.001 178.81 132.001 178.988C132.001 179.182 131.824 179.253 131.381 179.253C130.778 179.253 130.76 179.236 130.76 178.544C130.76 178.03 130.849 177.836 131.026 177.836Z" fill="#DFDFEE"/>
<path d="M190.93 78.8711C190.93 78.8533 193.517 78.8002 196.69 78.747C199.862 78.6938 203.07 78.6229 203.814 78.6052C205.072 78.5698 205.232 78.6052 205.64 79.0128C205.888 79.261 206.083 79.6509 206.083 79.899C206.083 80.1471 205.888 80.537 205.214 81.2282H198.462C194.386 81.2282 191.55 81.1573 191.284 81.051C191.036 80.9446 190.752 80.6965 190.646 80.4661C190.487 80.1648 190.487 79.9344 190.681 79.4914C190.823 79.1724 190.93 78.8888 190.93 78.8711Z" fill="#2929CF"/>
<path d="M170.229 88.1224C170.407 87.9629 170.655 87.8034 170.779 87.7679C170.885 87.7325 178.789 87.7148 205.64 87.7857L206.065 88.1756C206.349 88.4769 206.455 88.7073 206.384 89.0263C206.331 89.2744 206.118 89.6643 205.586 90.3555H170.779L170.353 89.877C170.123 89.5934 169.928 89.1681 169.928 88.9022C169.91 88.6186 170.052 88.2819 170.229 88.1224Z" fill="#2929CF"/>
<path d="M141.66 89.4339C141.944 89.0972 142.511 88.7073 142.901 88.5832C143.344 88.406 143.911 88.3528 144.407 88.4237C144.85 88.4769 145.488 88.6895 145.825 88.8668C146.162 89.0617 146.622 89.4693 146.853 89.7884C147.065 90.1074 147.296 90.7099 147.367 91.153C147.42 91.6138 147.384 92.1278 147.26 92.3404C147.101 92.6949 147.136 92.8367 147.615 93.4038C147.916 93.776 148.483 94.5381 148.855 95.1052C149.245 95.6546 149.529 96.1331 149.494 96.1686C149.476 96.1863 149.192 96.3813 148.873 96.6117C148.572 96.8243 148.217 97.0016 148.129 97.0016C148.023 97.0016 147.526 96.4699 146.995 95.8141C146.481 95.1407 145.913 94.5026 145.754 94.3963C145.524 94.2014 145.364 94.2368 144.797 94.609C144.425 94.8748 143.893 95.052 143.556 95.052C143.255 95.052 142.723 94.9457 142.404 94.8217C142.103 94.6976 141.625 94.3077 141.359 93.971C141.093 93.6342 140.827 93.0139 140.756 92.5708C140.685 92.0569 140.721 91.4543 140.88 90.9049C141.022 90.4264 141.376 89.7529 141.66 89.4339Z" fill="#2929CF"/>
<path d="M169.91 97.3383C169.91 97.0902 170.07 96.718 170.282 96.5053C170.637 96.1154 170.726 96.1154 176.184 96.1154C181.483 96.1154 181.731 96.1154 182.104 96.4699C182.334 96.6648 182.511 97.037 182.511 97.3029C182.511 97.5864 182.352 97.9763 182.157 98.189C181.802 98.5966 181.785 98.5966 176.22 98.5966C170.655 98.5966 170.637 98.5966 170.282 98.189C170.087 97.9763 169.91 97.5864 169.91 97.3383Z" fill="#2929CF"/>
<path d="M223.008 97.9409C223.114 97.6573 223.433 97.3206 223.806 97.1434C224.142 96.9661 224.532 96.8243 224.639 96.8243C224.763 96.8243 225.064 97.0193 225.312 97.2674C225.56 97.5155 225.755 97.9054 225.755 98.1536C225.755 98.4371 225.578 98.7384 225.259 98.9511C224.993 99.1638 224.568 99.3233 224.284 99.3055C224.018 99.3055 223.593 99.1106 223.309 98.8802C222.884 98.508 222.849 98.4017 223.008 97.9409Z" fill="#2929CF"/>
<path d="M201.138 99.465C201.138 98.9334 201.28 98.6143 201.652 98.2244C202.077 97.7814 202.29 97.7105 203.052 97.7105C203.796 97.7105 204.062 97.7991 204.505 98.189C204.878 98.5257 205.072 98.9156 205.143 99.3942C205.202 99.8668 205.137 100.292 204.948 100.67C204.789 100.989 204.417 101.379 204.133 101.521C203.85 101.663 203.336 101.787 203.017 101.787C202.715 101.787 202.272 101.663 202.042 101.521C201.829 101.379 201.528 101.007 201.386 100.723C201.244 100.44 201.12 99.8727 201.138 99.465Z" fill="#2929CF"/>
<path d="M170.123 103.594C170.3 103.187 170.531 102.956 170.903 102.85C171.186 102.779 176.202 102.691 192.613 102.673L193.056 103.116C193.304 103.364 193.499 103.719 193.499 103.913C193.499 104.108 193.269 104.516 192.471 105.331H182.033C176.025 105.331 171.346 105.26 170.991 105.154C170.655 105.065 170.265 104.817 170.123 104.587C169.91 104.233 169.91 104.091 170.123 103.594Z" fill="#2929CF"/>
<path d="M158.319 107.653C158.798 107.423 159.401 107.174 159.649 107.086C159.897 107.015 160.446 106.944 160.889 106.944C161.332 106.926 162.077 107.068 162.555 107.228C163.122 107.44 163.672 107.813 164.062 108.273C164.416 108.663 164.806 109.39 164.948 109.868C165.107 110.4 165.161 111.144 165.107 111.8C165.054 112.474 164.824 113.236 164.523 113.838C164.239 114.37 163.654 115.168 163.211 115.628C162.768 116.071 161.917 116.656 161.332 116.94C160.482 117.347 160.021 117.454 159.117 117.454C158.479 117.454 157.611 117.33 157.168 117.17C156.724 116.993 156.086 116.55 155.697 116.16C155.289 115.699 155.005 115.185 154.934 114.76C154.864 114.405 154.846 113.555 154.899 112.864C154.952 112.048 155.147 111.286 155.448 110.648C155.697 110.116 156.246 109.319 156.671 108.876C157.079 108.433 157.823 107.883 158.319 107.653Z" fill="#2929CF"/>
<path d="M169.928 113.342C169.928 113.129 170.017 112.793 170.141 112.598C170.353 112.243 170.548 112.243 181.696 112.243C190.628 112.243 193.11 112.279 193.287 112.456C193.411 112.58 193.499 112.952 193.499 113.253C193.499 113.679 193.375 113.927 193.003 114.193C192.542 114.547 192.312 114.565 170.637 114.547L170.282 114.14C170.087 113.927 169.928 113.572 169.928 113.342Z" fill="#2929CF"/>
<path d="M170.566 126.297C170.761 126.032 171.115 125.748 171.364 125.695C171.594 125.624 176.078 125.571 190.876 125.624L191.302 126.103C191.55 126.386 191.692 126.741 191.639 126.9C191.585 127.077 191.408 127.361 191.231 127.538C190.947 127.822 190.185 127.857 181.448 127.946C175.706 128.017 171.718 127.999 171.346 127.893C170.974 127.786 170.619 127.538 170.46 127.255C170.212 126.829 170.229 126.758 170.566 126.297Z" fill="#2929CF"/>
<path d="M200.323 78.6938C199.153 78.7292 197.274 78.7292 196.158 78.6938C195.041 78.6761 195.998 78.6406 198.285 78.6406C200.571 78.6406 201.492 78.6761 200.323 78.6938Z" fill="#DFDFEE"/>
<path d="M196.424 87.7325C191.745 87.7679 184.124 87.7679 179.498 87.7325C174.873 87.7147 178.701 87.697 188.005 87.697C197.31 87.697 201.102 87.7147 196.424 87.7325Z" fill="#DFDFEE"/>
<path d="M178.789 96.0622C177.372 96.0977 174.979 96.0977 173.473 96.0622C171.966 96.0445 173.118 96.009 176.042 96.009C178.967 96.009 180.207 96.0445 178.789 96.0622Z" fill="#DFDFEE"/>
<path d="M179.055 98.7206C177.602 98.7561 175.121 98.7561 173.561 98.7206C172.002 98.7029 173.189 98.6675 176.22 98.6675C179.232 98.6675 180.526 98.7029 179.055 98.7206Z" fill="#DFDFEE"/>
<path d="M143.096 91.1886C143.255 90.9582 143.539 90.7101 143.734 90.6392C143.929 90.5506 144.23 90.5329 144.389 90.5861C144.549 90.6392 144.779 90.7633 144.903 90.8696C145.027 90.976 145.134 91.2595 145.134 91.5076C145.116 91.7558 145.01 92.1102 144.886 92.3052C144.744 92.5001 144.407 92.7128 144.124 92.766C143.769 92.8369 143.485 92.766 143.22 92.5356C142.989 92.3583 142.812 92.0748 142.812 91.8976C142.812 91.738 142.936 91.419 143.096 91.1886Z" fill="white"/>
<path d="M158.869 109.709C159.241 109.443 159.844 109.142 160.18 109.053C160.517 108.965 161.049 108.947 161.332 108.982C161.616 109.036 162.077 109.231 162.343 109.426C162.644 109.62 162.874 109.993 162.945 110.329C162.998 110.648 162.945 111.304 162.839 111.8C162.733 112.279 162.449 113.006 162.219 113.395C161.988 113.785 161.581 114.264 161.297 114.477C161.031 114.671 160.535 114.973 160.234 115.132C159.915 115.31 159.277 115.434 158.816 115.434C158.284 115.416 157.823 115.31 157.593 115.115C157.398 114.955 157.132 114.636 157.026 114.406C156.902 114.193 156.849 113.697 156.919 113.271C156.973 112.846 157.274 111.995 157.593 111.357C157.983 110.613 158.426 110.028 158.869 109.709Z" fill="#DFDFEE"/>
</g>
<rect x="0.40625" y="0.353027" width="349.5" height="199.5" stroke="#00009C" stroke-width="0.5"/>
<defs>
<clipPath id="clip0_9_288">
<rect width="180.242" height="165" fill="white" transform="translate(85.0354 17.603)"/>
</clipPath>
</defs>
</svg>
