<svg width="3501" height="2001" viewBox="0 0 3501 2001" fill="none" xmlns="http://www.w3.org/2000/svg">
<g clip-path="url(#clip0_101_78)">
<rect x="0.93457" y="0.472656" width="3500" height="2000" fill="white"/>
<g clip-path="url(#clip1_101_78)">
<path d="M558.873 2014.36V866.235V-281.891H2926.81V2086.05H575.06V2057.14C575.06 2041.18 574.598 2027.08 573.904 2025.92C573.21 2024.77 572.748 2021.53 572.748 2018.98C572.748 2015.29 571.129 2014.36 558.873 2014.36Z" fill="white"/>
<path d="M2281.64 933.528C2289.96 931.678 2300.37 928.44 2304.76 926.591C2309.16 924.741 2313.78 923.122 2314.94 922.891C2316.09 922.891 2317.71 926.822 2318.87 931.447C2320.26 937.69 2320.03 940.696 2317.94 941.853C2316.33 942.778 2314.01 943.703 2312.86 943.703C2311.7 943.703 2301.76 947.402 2290.89 951.796C2280.02 956.421 2271 960.352 2270.77 960.583C2270.31 960.815 2272.16 970.296 2274.7 981.858C2277.01 993.42 2282.33 1011.92 2286.26 1023.48C2290.2 1035.04 2295.51 1050.07 2297.83 1057.01C2300.37 1065.11 2302.45 1080.83 2303.61 1100.95C2304.53 1118.06 2305.46 1134.02 2306.15 1136.1C2306.84 1138.87 2311.01 1140.95 2319.33 1142.8C2325.81 1144.19 2332.74 1144.65 2334.36 1143.96C2335.75 1143.27 2337.37 1143.73 2337.6 1144.88C2338.06 1146.27 2348.24 1148.35 2360.26 1149.74C2372.29 1150.9 2390.56 1151.36 2400.73 1150.43C2410.9 1149.74 2424.78 1147.43 2431.25 1145.81C2437.96 1143.96 2449.75 1139.33 2457.38 1135.63C2465.02 1131.94 2471.26 1127.31 2471.49 1125.69C2471.49 1124.3 2478.66 1146.27 2487.45 1174.95C2496 1203.62 2506.41 1237.84 2510.57 1251.26C2514.58 1264.67 2519.59 1281.55 2525.6 1301.9L2492.07 1325.25H2436.57V1317.62C2436.57 1313.69 2435.19 1304.44 2433.34 1297.51C2431.49 1290.57 2426.63 1277.62 2422.47 1268.6C2416.92 1256.11 2411.14 1248.25 2397.49 1235.07C2386.16 1223.97 2374.37 1214.95 2364.89 1210.33C2356.56 1206.16 2343.61 1201.31 2335.98 1199.23C2328.35 1197.38 2319.56 1195.76 2316.33 1195.76C2310.78 1195.76 2310.54 1195.06 2310.31 1182.35C2310.08 1174.02 2308 1165 2304.53 1157.6C2301.53 1151.13 2296.21 1141.88 2292.74 1136.79C2286.96 1128 2286.73 1127.31 2290.43 1123.38C2293.66 1120.14 2294.36 1114.82 2294.13 1095.63C2294.13 1082.68 2292.51 1064.64 2290.89 1055.86C2289.27 1046.84 2286.03 1035.74 2283.72 1030.88C2279.56 1022.79 2278.86 1022.33 2258.51 1023.48L2258.05 1009.61C2257.59 1001.98 2257.36 983.014 2257.36 967.289C2257.36 940.696 2257.59 938.846 2261.98 937.921C2264.53 937.228 2273.31 935.378 2281.64 933.528Z" fill="white"/>
<path d="M2533.69 1200.85C2531.15 1189.75 2529.07 1178.65 2529.07 1176.1C2529.07 1173.02 2529.84 1172.25 2531.38 1173.79C2532.77 1174.95 2537.39 1184.89 2542.02 1195.76C2546.64 1206.63 2554.97 1229.52 2560.29 1246.63C2565.84 1263.74 2572.54 1284.09 2575.55 1291.72C2578.56 1299.36 2583.87 1308.61 2587.34 1312.54C2591.04 1316.24 2594.05 1320.63 2594.05 1321.79C2593.82 1323.17 2590.35 1323.4 2584.57 1322.25C2579.48 1321.32 2572.54 1319.24 2569.31 1317.62C2565.84 1316.24 2561.44 1311.15 2559.13 1306.76C2556.82 1302.36 2551.73 1288.26 2548.03 1275.54C2544.33 1262.82 2540.4 1246.17 2539.24 1238.54C2538.32 1230.91 2537.63 1223.97 2537.86 1222.81C2538.09 1221.89 2536.24 1212.18 2533.69 1200.85Z" fill="white"/>
<path fill-rule="evenodd" clip-rule="evenodd" d="M1568.48 -138.523C1571.95 -138.523 1575.88 -135.98 1578.66 -132.049C1583.28 -125.805 1583.51 -123.493 1583.28 283.496L1595.31 287.659C1602.01 289.971 1612.65 295.521 1619.13 299.684C1625.37 304.077 1634.39 311.939 1639.01 317.489C1643.64 323.039 1650.11 332.751 1653.58 338.995C1656.82 345.47 1661.21 357.726 1663.06 366.744C1664.91 375.763 1667.69 393.106 1672.31 428.024H2048.08L2039.76 417.155C2035.36 410.912 2029.58 399.35 2027.04 391.025C2024.5 382.7 2022.65 374.375 2022.65 372.525C2022.65 370.675 2028.66 365.819 2036.06 362.119C2045.08 357.263 2049.24 353.795 2049.24 350.788C2049.24 347.551 2044.85 344.545 2032.36 339.226C2023.11 335.295 2013.63 330.208 2011.08 328.127C2006.46 323.964 2006.46 323.733 2012.24 298.065C2015.48 283.728 2018.48 270.547 2019.18 269.159C2019.87 267.309 2025.19 266.153 2033.51 266.153C2046.23 266.153 2047.39 265.691 2068.89 245.341L2065.43 235.629C2063.35 230.079 2061.96 221.754 2061.96 217.13C2061.96 209.267 2062.88 207.88 2070.51 204.642C2077.68 201.636 2080.92 201.405 2087.86 203.486C2092.71 204.874 2098.03 208.111 2099.42 210.655C2101.04 213.198 2103.12 215.28 2104.04 215.28C2105.2 215.28 2105.89 212.967 2105.89 210.192C2105.66 207.186 2107.51 203.024 2109.83 200.711C2112.6 198.168 2119.54 196.086 2129.48 194.93C2144.28 193.311 2144.97 193.08 2146.13 186.374C2147.06 182.674 2147.52 134.807 2147.52 80.002C2147.52 -10.8769 2147.98 -19.8954 2151.68 -23.5953C2153.76 -25.9077 2157.69 -27.5264 2160.24 -27.5264C2162.78 -27.5264 2166.71 -25.6765 2169.02 -23.364C2172.72 -19.6641 2173.19 -12.2643 2172.95 86.4768C2172.95 144.519 2173.42 193.774 2174.11 195.624C2174.8 197.474 2177.81 199.092 2181.05 199.092C2184.52 199.092 2187.75 200.942 2189.14 203.717C2190.3 206.261 2192.38 214.355 2195.15 234.935L2206.02 218.286C2213.42 206.492 2218.28 201.405 2221.52 201.405C2224.06 201.405 2231 202.33 2237.01 203.717C2243.25 204.874 2252.5 209.036 2257.82 212.967C2267.07 219.442 2267.76 220.367 2266.38 228.692C2265.68 233.317 2263.6 240.485 2261.75 244.185C2259.21 249.735 2258.98 251.585 2261.29 252.741C2262.91 253.666 2264.99 254.591 2265.91 254.591C2267.07 254.591 2272.39 257.828 2278.17 261.528C2284.88 265.922 2291.58 268.466 2296.67 268.466C2301.06 268.466 2305.46 269.853 2306.38 271.472C2307.54 272.859 2311.01 286.271 2314.24 300.84C2317.71 315.408 2320.03 328.127 2319.56 329.283C2319.1 330.208 2311.24 334.601 2302.45 338.995C2289.5 345.47 2286.03 348.476 2284.88 353.563C2284.18 357.032 2283.95 359.807 2284.41 360.038C2284.88 360.038 2292.28 362.119 2301.29 364.663C2315.4 368.363 2317.48 369.75 2318.18 374.838C2318.64 378.306 2314.24 389.869 2307.31 403.743C2300.83 416.462 2289.27 435.424 2281.64 446.061C2274.01 456.467 2266.38 465.023 2264.76 465.023C2263.37 465.023 2261.29 468.954 2260.36 473.579C2259.44 478.435 2258.51 578.332 2258.51 695.804C2258.51 865.306 2259.21 908.78 2261.29 908.086C2262.91 907.624 2274.01 904.849 2285.8 901.842C2306.38 896.524 2307.31 896.061 2306.15 890.511C2305.46 887.274 2304.3 874.787 2303.61 862.762C2302.22 843.569 2302.45 840.332 2306.15 837.325C2309.39 834.319 2318.87 834.088 2423.85 835.707L2433.34 820.907C2438.42 812.814 2445.82 803.795 2449.52 800.789C2453.92 797.32 2459.23 795.47 2464.78 795.702C2472.42 795.702 2473.57 795.008 2473.57 790.614C2473.57 785.758 2472.18 785.064 2458.08 783.677C2449.29 782.521 2410.44 781.827 2371.13 781.827C2328.58 781.827 2298.29 780.902 2295.51 779.514C2292.97 778.358 2290.89 775.121 2290.89 772.577C2290.89 770.033 2292.05 765.871 2293.2 763.327C2294.36 760.784 2298.98 757.546 2302.91 756.39C2307.77 755.003 2353.32 754.078 2423.85 754.078C2486.29 754.078 2544.33 755.234 2553.35 756.39C2562.37 757.778 2575.09 761.477 2582.02 765.177C2590.58 769.34 2595.9 773.965 2598.67 779.514C2600.99 783.908 2605.61 799.401 2608.85 813.739C2612.55 830.851 2614.63 846.575 2614.63 859.987C2614.63 871.087 2613.01 886.58 2611.16 894.674C2609.31 902.536 2604.46 915.486 2600.52 923.579C2596.82 931.442 2589.19 942.541 2583.87 947.86C2578.56 953.41 2569.31 960.578 2563.06 963.584C2557.05 966.591 2544.56 970.291 2535.31 971.678C2523.75 973.297 2509.65 978.153 2488.6 987.634C2472.18 995.034 2451.37 1002.9 2442.35 1004.98C2431.49 1007.75 2420.62 1008.68 2408.82 1007.98C2396.1 1007.29 2387.55 1004.98 2376.68 1000.12C2366.27 995.265 2358.18 989.253 2348.93 979.309C2341.76 971.678 2332.05 958.266 2327.19 949.247C2322.34 940.46 2317.94 930.979 2317.25 928.204C2316.79 925.198 2315.86 922.886 2315.17 922.886C2314.48 922.886 2309.16 924.736 2302.91 927.279C2296.9 929.592 2285.8 932.829 2278.17 934.448C2270.54 935.835 2262.68 937.454 2260.83 938.148C2258.05 938.841 2257.36 944.16 2257.36 967.284C2257.36 983.009 2257.59 1001.97 2258.51 1023.48L2268.92 1023.01C2278.86 1022.32 2279.56 1022.78 2283.72 1031.11C2286.03 1035.73 2289.27 1046.83 2290.89 1055.85C2292.51 1064.87 2294.13 1082.68 2294.13 1095.62C2294.36 1114.82 2293.66 1120.14 2290.43 1123.37C2286.73 1127.31 2286.96 1128 2292.74 1136.79C2296.21 1141.87 2301.53 1151.35 2304.53 1157.6C2308 1165 2310.08 1174.02 2310.31 1182.34C2310.54 1195.06 2310.78 1195.75 2316.33 1195.75C2319.56 1195.75 2328.35 1197.37 2335.98 1199.22C2343.61 1201.3 2356.56 1206.16 2364.89 1210.32C2374.37 1214.95 2386.16 1223.97 2397.49 1235.06C2411.14 1248.25 2416.92 1256.11 2422.47 1268.6C2426.63 1277.61 2431.49 1290.56 2433.34 1297.5C2435.19 1304.44 2436.57 1313.69 2436.57 1325.25H2492.07L2525.6 1301.89L2521.67 1288.71C2519.59 1281.54 2514.5 1264.66 2510.57 1251.25C2506.41 1237.84 2496 1203.62 2487.45 1174.94C2478.66 1146.27 2471.49 1124.3 2471.49 1125.92C2471.26 1127.31 2465.02 1131.93 2457.38 1135.63C2449.75 1139.33 2437.04 1144.42 2428.94 1146.5C2419.23 1149.04 2405.35 1150.43 2385.7 1150.43C2369.74 1150.43 2352.86 1149.74 2348.01 1148.81C2339.91 1147.19 2339.45 1146.73 2339.45 1138.64C2339.45 1133.78 2340.38 1127.54 2341.3 1124.76C2342.46 1120.6 2345 1119.44 2353.32 1118.75C2359.11 1118.29 2364.89 1118.75 2366.04 1119.67C2367.2 1120.6 2377.37 1121.52 2388.47 1121.52C2400.73 1121.76 2408.82 1120.83 2408.82 1119.44C2408.82 1118.29 2410.67 1117.82 2412.75 1118.52C2415.07 1119.21 2423.62 1117.59 2431.95 1114.82C2440.27 1112.04 2450.22 1107.65 2453.92 1104.87C2457.62 1102.33 2464.32 1097.01 2476.12 1085.91L2484.67 1090.54C2490.45 1093.77 2494.15 1097.71 2495.77 1103.26C2497.85 1109.27 2497.85 1111.81 2495.77 1113.2C2494.15 1114.12 2493.92 1115.51 2495.54 1116.67C2496.7 1117.59 2503.86 1135.86 2511.26 1157.6C2518.66 1179.33 2527.22 1205.23 2530.23 1215.41C2533.46 1225.58 2536.93 1235.99 2537.86 1238.53C2539.01 1241.08 2542.02 1251.95 2544.79 1262.81C2547.34 1273.68 2551.96 1288.71 2554.74 1296.34C2557.74 1303.98 2561.91 1312.07 2564.22 1314.38C2566.53 1316.46 2572.78 1319.47 2578.09 1320.86C2585.26 1322.71 2592.66 1322.71 2604.22 1320.86C2613.24 1319.47 2627.12 1315.77 2635.44 1312.53C2643.77 1309.29 2651.17 1305.36 2652.09 1303.74C2653.02 1302.13 2656.72 1300.74 2660.19 1300.51C2663.65 1300.28 2667.82 1298.66 2668.97 1297.04C2670.36 1295.42 2672.67 1293.8 2674.29 1293.57C2675.68 1293.11 2679.61 1291.26 2682.85 1289.41C2686.08 1287.56 2688.63 1284.78 2688.63 1283.63C2688.63 1282.47 2689.78 1281.78 2690.94 1282.47C2692.1 1283.16 2699.27 1279 2706.43 1273.45C2713.83 1267.9 2726.78 1256.11 2735.57 1247.32C2744.13 1238.76 2751.3 1230.44 2751.53 1229.28C2751.76 1228.13 2753.15 1225.58 2754.3 1223.97C2755.69 1222.35 2758.7 1219.11 2760.78 1217.03C2762.86 1214.95 2764.25 1212.4 2763.78 1211.48C2763.09 1210.32 2763.78 1209.63 2764.94 1209.63C2766.1 1209.63 2766.79 1208.47 2766.1 1207.32C2765.4 1206.16 2766.1 1205 2767.25 1205C2768.41 1205 2768.87 1203.85 2767.71 1202.46C2766.79 1201.07 2767.48 1199.22 2769.1 1198.3C2771.41 1197.14 2770.03 1191.13 2762.63 1171.47C2757.31 1157.6 2748.29 1131.93 2742.74 1114.82C2736.96 1097.71 2729.1 1071.11 2725.4 1055.85C2720.54 1036.66 2718 1020.01 2717.07 1001.51C2716.38 985.784 2717.07 964.047 2718.69 948.322C2720.31 933.754 2721.93 918.492 2721.93 914.792C2722.16 911.092 2723.32 907.161 2724.47 906.236C2725.63 905.311 2726.78 899.761 2726.78 893.98C2726.78 888.199 2727.48 883.574 2728.4 883.574C2729.56 883.574 2729.79 881.03 2729.1 877.793C2728.4 874.556 2728.86 871.781 2730.25 871.549C2731.41 871.087 2733.03 860.45 2733.95 847.731C2735.11 830.157 2734.41 820.676 2731.41 808.42C2729.33 799.401 2724.47 785.989 2720.31 778.358C2715.68 769.34 2705.05 756.621 2690.48 742.053C2677.99 729.566 2664.58 717.772 2660.88 715.922C2654.4 712.685 2653.48 712.685 2644.46 718.929C2639.14 722.397 2632.2 727.022 2628.74 729.103C2625.5 731.185 2621.11 734.191 2619.26 735.809C2616.71 738.122 2616.48 739.047 2618.56 739.509C2620.18 739.972 2621.11 741.359 2620.41 742.515C2619.72 743.903 2621.34 746.909 2623.88 749.453C2626.42 751.996 2628.27 754.771 2627.81 755.465C2627.58 756.159 2631.51 764.946 2636.6 774.89C2645.15 792.002 2645.62 793.62 2642.38 798.939C2639.84 802.87 2637.52 804.026 2634.29 803.101C2631.74 802.408 2627.58 800.558 2625.04 798.708C2622.49 796.858 2614.17 786.452 2606.54 775.352C2593.82 756.853 2591.27 754.54 2576.94 747.834C2566.53 742.747 2560.06 737.659 2556.82 732.803C2554.04 728.178 2552.19 721.01 2552.19 714.766C2552.19 708.523 2554.04 701.354 2556.82 696.96C2559.36 692.798 2564.91 687.248 2568.84 684.704C2573.47 681.93 2580.64 680.08 2586.19 680.08C2591.74 680.08 2599.6 681.467 2603.53 683.317C2607.69 684.936 2613.24 688.404 2615.79 690.717C2618.56 693.261 2621.11 696.498 2621.57 698.348C2622.49 700.892 2624.11 700.429 2629.2 696.035C2632.9 693.029 2640.99 687.711 2658.57 677.767L2677.53 692.336C2687.93 700.198 2705.97 717.079 2717.53 730.028C2730.02 743.903 2741.35 759.396 2745.51 768.184C2749.68 776.277 2754.53 789.227 2756.61 796.858C2758.7 804.489 2761.01 819.52 2761.7 830.388C2762.63 845.65 2761.93 855.594 2758 874.324C2755.23 887.737 2751.53 905.774 2749.68 914.792C2747.83 923.811 2745.75 948.091 2745.05 969.134C2743.9 995.265 2744.36 1013.53 2746.44 1026.95C2747.83 1037.81 2755.46 1065.33 2763.09 1088.22C2770.49 1111.12 2780.43 1141.64 2784.83 1155.98C2789.22 1170.09 2792.69 1185.58 2792.69 1189.97C2792.69 1194.37 2791.53 1198.53 2790.38 1199.22C2788.99 1199.92 2789.22 1202.69 2791.3 1206.85C2793.15 1210.32 2796.85 1223.5 2799.39 1236.22C2801.94 1248.94 2806.1 1272.99 2808.64 1289.41C2810.96 1305.83 2815.12 1332.42 2817.89 1348.37C2820.67 1364.33 2825.99 1396.47 2829.92 1420.06C2833.62 1443.65 2839.86 1483.19 2843.79 1507.93C2847.49 1532.68 2851.89 1560.89 2853.74 1570.37C2855.59 1579.85 2861.83 1614.3 2867.61 1646.68C2873.39 1679.05 2885.42 1749.81 2894.44 1803.92C2903.22 1858.04 2912.01 1906.37 2913.86 1911.45C2916.17 1918.16 2916.4 1922.09 2914.78 1925.33C2913.17 1928.56 2913.17 1937.58 2915.25 1955.39C2916.87 1969.26 2917.56 1983.6 2916.87 1987.3C2915.94 1991 2912.47 1994.93 2908.31 1997.01C2902.07 2000.02 2769.79 2000.48 1759.49 2000.48C745.949 2000.48 617.146 2000.02 612.753 1997.01C609.747 1995.16 607.434 1991.23 607.434 1988.46C607.434 1985.45 608.822 1981.06 610.672 1978.51C613.678 1974.35 616.915 1973.89 672.182 1972.73L672.876 1504.93C673.57 1081.98 674.032 1035.04 677.501 1014.23C679.582 1001.51 683.513 982.778 686.057 972.603C688.832 962.428 695.076 946.241 700.394 936.76C705.482 927.279 714.5 913.867 720.281 906.93C726.293 899.992 737.856 887.505 746.18 879.412C754.505 871.087 778.786 849.581 800.523 831.544C822.028 813.739 850.24 791.308 862.959 782.289C875.677 773.04 894.87 761.015 905.739 755.465C916.607 749.684 932.563 743.44 941.581 741.359C950.369 739.278 961.468 737.891 965.862 738.584C970.256 739.047 975.574 739.972 977.424 740.434C979.968 741.128 980.662 739.741 979.968 734.422C979.737 730.722 980.893 721.703 982.974 714.766C984.824 707.829 986.905 700.429 987.83 698.579C988.755 696.035 987.136 694.879 981.587 694.417C977.424 694.186 972.568 692.567 970.949 690.948C969.331 689.561 967.943 686.323 968.174 684.242C968.174 681.93 971.643 676.842 975.574 672.911C980.662 668.286 984.593 666.205 987.136 667.13C990.143 668.055 991.761 666.899 993.38 662.274C994.536 658.574 999.392 651.868 1004.48 646.781C1009.34 641.924 1021.13 633.368 1030.61 627.818C1041.02 621.806 1054.2 616.256 1063.45 614.175C1072.23 612.325 1086.34 610.706 1095.36 610.706C1104.15 610.706 1117.33 612.325 1124.26 614.175C1131.2 616.025 1137.44 618.8 1138.14 619.956C1138.83 621.344 1139.99 622.269 1140.91 622.269C1142.07 622.269 1142.76 589.432 1142.76 476.816L1128.89 475.429C1121.26 474.504 1107.61 472.191 1098.83 470.341C1089.81 468.492 1077.32 464.792 1071.08 462.248C1064.6 459.473 1054.66 453.923 1048.42 449.53C1042.4 445.367 1037.55 440.511 1037.55 439.124C1037.55 437.505 1039.86 432.88 1047.95 421.549L1068.77 432.417C1080.1 438.661 1095.36 444.673 1102.3 446.061C1109.23 447.448 1121.26 449.761 1128.89 451.148C1136.52 452.305 1147.39 453.461 1153.17 453.461C1161.03 453.461 1166.35 451.38 1174.91 445.83C1181.15 441.898 1189.24 434.036 1192.94 428.718C1197.57 421.318 1201.04 418.774 1205.2 418.774C1209.36 418.774 1210.98 419.93 1210.98 423.399C1210.98 428.024 1212.6 428.024 1467.66 428.024L1469.05 414.843C1469.74 407.443 1472.29 393.569 1474.83 384.088C1477.37 374.607 1484.77 355.876 1491.25 342.464C1500.27 324.195 1506.51 314.714 1517.15 303.846C1527.78 292.978 1534.03 288.815 1552.76 283.496L1553.68 77.4583C1554.38 -121.18 1554.61 -129.042 1558.77 -133.667C1561.08 -136.442 1565.71 -138.523 1568.48 -138.523V-138.523ZM1136.52 -46.2572C1138.6 -45.5634 1141.14 -44.176 1142.07 -42.7885C1142.99 -41.401 1143.92 33.522 1143.92 288.121L1153.4 292.746C1158.72 295.29 1166.81 300.609 1171.44 304.54C1176.06 308.471 1183.46 318.414 1187.86 326.508C1195.49 340.382 1195.95 342.695 1195.72 360.963C1195.49 375.763 1194.33 383.163 1190.63 391.025C1187.86 396.806 1180.46 406.287 1173.98 412.531C1167.74 418.543 1156.41 426.174 1149.01 429.643C1139.29 434.267 1131.43 436.117 1118.48 436.811C1103.22 437.505 1099.52 436.811 1088.42 431.261C1081.48 427.561 1070.85 420.162 1065.07 414.38C1059.28 408.368 1052.35 399.581 1049.8 394.494C1047.03 389.406 1043.79 379 1042.17 371.369C1039.86 359.807 1040.09 355.182 1043.1 343.157C1045.18 335.064 1049.34 324.658 1052.12 320.033C1055.12 315.177 1061.37 307.777 1065.99 303.846C1070.85 299.684 1078.71 294.134 1083.8 291.59C1088.88 289.046 1098.83 286.271 1118.71 283.496L1118.48 121.626C1118.48 11.3225 1119.18 -41.1698 1121.03 -43.0198C1122.18 -44.4072 1125.42 -46.0259 1127.96 -46.4884C1130.51 -46.9509 1134.21 -46.7196 1136.52 -46.2572ZM1319.67 314.714C1321.52 314.483 1324.75 316.333 1326.6 318.414C1328.45 320.496 1331.92 323.039 1334 324.195C1337.01 325.583 1339.78 324.889 1343.95 321.652C1347.65 318.646 1351.81 317.489 1355.51 318.183C1359.44 318.877 1361.75 321.421 1362.68 325.814C1363.6 330.67 1362.68 333.445 1352.04 343.62L1358.98 350.557C1362.91 354.488 1365.91 358.188 1365.91 359.344C1365.91 360.269 1363.83 364.201 1361.29 367.9C1358.75 371.832 1355.97 374.838 1354.81 374.838C1353.89 374.838 1349.03 371.138 1334.7 358.419L1327.06 366.513C1323.13 371.138 1318.05 374.838 1316.2 374.838C1314.35 374.838 1311.11 372.294 1309.26 369.057C1307.41 365.819 1305.79 361.194 1305.79 358.651C1305.79 355.876 1309.03 351.945 1322.21 343.62L1315.27 336.683C1311.34 332.983 1307.87 327.433 1307.64 324.658C1307.41 321.652 1309.26 318.646 1311.8 317.258C1314.12 315.871 1317.82 314.714 1319.67 314.714ZM2569.08 555.208C2609.31 555.208 2612.55 555.439 2616.94 559.833C2619.49 562.377 2621.57 566.539 2621.57 569.083C2621.57 572.166 2619.49 574.324 2615.32 575.557C2611.62 576.482 2590.58 577.176 2568.38 576.945C2546.18 576.714 2525.14 576.02 2521.67 575.095C2516.81 574.17 2515.2 572.089 2514.96 568.158C2514.73 564.458 2516.58 561.22 2520.05 558.677C2524.68 555.902 2533.46 555.208 2569.08 555.208ZM2566.07 582.957C2587.11 582.957 2606.54 583.42 2609.54 584.113C2613.71 585.038 2614.63 586.888 2614.63 593.363C2614.63 597.757 2613.01 603.075 2610.93 604.925C2608.16 607.7 2599.83 608.394 2568.15 608.394C2536.47 608.394 2528.38 607.7 2525.6 604.925C2523.75 603.075 2521.9 598.451 2521.67 594.982C2521.44 591.513 2522.6 587.351 2524.45 585.732C2526.76 583.882 2539.48 582.957 2566.07 582.957ZM2645.85 619.494C2695.57 619.956 2737.88 621.344 2740.2 622.5C2742.28 623.656 2744.82 628.05 2745.51 632.212C2746.21 636.143 2745.75 641.693 2744.36 644.237C2741.58 648.862 2739.73 648.862 2579.25 648.168C2431.72 647.474 2416.45 647.012 2412.75 643.543C2410.44 641.231 2408.59 637.993 2408.59 636.143C2408.59 634.293 2410.67 629.9 2418.07 619.956L2486.98 619.494C2524.68 619.031 2596.13 619.031 2645.85 619.494ZM2361.42 791.077C2394.25 791.077 2397.72 791.539 2401.89 795.702C2404.43 798.245 2406.51 801.483 2406.51 802.639C2406.51 804.026 2403.97 807.495 2400.73 810.732C2395.41 816.282 2394.02 816.513 2364.42 816.513C2337.14 816.745 2332.98 816.051 2327.43 811.889C2323.73 809.345 2320.95 805.645 2320.72 803.564C2320.72 801.714 2321.64 798.014 2323.03 795.47C2325.58 791.539 2328.58 791.077 2361.42 791.077Z" fill="#2929CF"/>
<path fill-rule="evenodd" clip-rule="evenodd" d="M1117.79 44.164C1118.25 86.7128 1118.25 157.473 1117.79 201.41C1117.56 245.346 1117.33 210.428 1117.33 123.943C1117.33 37.4579 1117.56 1.61512 1117.79 44.164ZM2174.57 2.54009C2175.04 15.9522 2175.04 36.7642 2174.57 48.7889C2174.34 60.8135 2173.88 49.9451 2173.88 24.5083C2173.88 -0.928563 2174.34 -10.872 2174.57 2.54009ZM2146.82 32.6018C2147.29 59.8886 2147.29 105.675 2146.82 134.349C2146.59 163.023 2146.36 140.593 2146.36 84.6316C2146.36 28.6707 2146.59 5.31502 2146.82 32.6018ZM2260.13 499.714C2260.6 513.126 2260.6 535.326 2260.13 549.432C2259.9 563.538 2259.44 552.438 2259.44 525.151C2259.44 497.864 2259.9 486.302 2260.13 499.714ZM2739.04 585.506C2740.89 585.274 2741.81 589.437 2741.81 599.149C2741.81 611.867 2741.35 613.024 2737.19 611.867C2734.65 611.174 2732.56 609.786 2732.56 608.399C2732.56 607.011 2733.72 606.549 2734.88 607.243C2736.26 607.936 2737.19 605.161 2737.19 600.768C2736.96 593.83 2736.96 593.599 2733.95 597.993C2730.95 602.155 2730.48 602.386 2729.33 598.455C2728.63 596.374 2727.71 593.137 2727.48 591.287C2727.01 589.437 2728.86 587.356 2731.41 586.893C2733.95 586.199 2737.42 585.737 2739.04 585.506ZM2489.76 618.574C2527.22 618.574 2542.48 619.036 2523.29 619.267C2504.33 619.73 2473.57 619.73 2455.07 619.267C2436.57 619.036 2452.3 618.574 2489.76 618.574ZM2649.32 618.805C2696.95 618.805 2716.38 619.036 2692.1 619.267C2667.82 619.73 2628.97 619.73 2605.38 619.267C2581.79 619.036 2601.68 618.805 2649.32 618.805ZM2561.44 648.866C2640.99 648.866 2673.14 649.098 2633.13 649.329C2593.12 649.791 2527.91 649.791 2488.6 649.329C2449.29 649.098 2481.9 648.866 2561.44 648.866ZM2653.48 712.458C2654.4 712.458 2658.57 714.54 2662.73 717.083C2666.66 719.627 2679.84 731.421 2691.63 742.983C2705.28 756.626 2715.68 769.576 2720.31 778.363C2724.47 785.994 2729.33 799.406 2731.41 808.425C2734.41 820.681 2735.11 830.162 2733.95 847.736C2733.03 860.455 2731.41 871.092 2730.25 871.323C2728.86 871.786 2728.4 874.56 2729.1 877.798C2729.79 881.035 2729.56 883.579 2728.63 883.579C2727.48 883.579 2726.78 888.204 2726.78 893.985C2726.78 899.766 2725.63 905.316 2724.47 906.241C2723.31 907.166 2722.16 911.097 2721.93 914.797C2721.93 918.497 2720.31 933.759 2718.69 948.327C2717.07 964.052 2716.38 985.789 2717.07 1001.51C2718 1020.01 2720.54 1036.66 2725.4 1055.86C2729.1 1071.12 2736.96 1097.71 2742.74 1114.82C2748.29 1131.93 2757.31 1157.6 2762.63 1171.48C2770.03 1191.13 2771.41 1197.15 2769.1 1198.3C2767.48 1199.23 2766.79 1201.08 2767.94 1202.46C2768.87 1203.85 2768.41 1205.01 2767.25 1205.01C2766.09 1205.01 2765.4 1206.16 2766.1 1207.32C2766.79 1208.48 2766.09 1209.63 2764.94 1209.63C2763.78 1209.63 2763.09 1210.33 2763.78 1211.25C2764.24 1212.41 2762.86 1214.95 2760.78 1217.03C2758.7 1219.11 2755.69 1222.35 2754.3 1223.97C2753.15 1225.59 2751.76 1228.13 2751.53 1229.29C2751.3 1230.44 2744.13 1238.77 2735.57 1247.33C2726.78 1256.11 2713.83 1267.91 2706.67 1273.46C2699.27 1279.01 2692.1 1283.17 2690.94 1282.47C2689.78 1281.78 2688.63 1282.47 2688.63 1283.63C2688.63 1284.79 2686.08 1287.56 2682.85 1289.41C2679.61 1291.26 2675.68 1293.11 2674.29 1293.34C2672.67 1293.81 2670.36 1295.42 2668.97 1297.04C2667.82 1298.89 2663.65 1300.51 2659.95 1300.51C2656.25 1300.74 2652.79 1302.36 2651.86 1303.98C2651.17 1305.6 2643.77 1309.53 2635.44 1312.77C2627.12 1315.77 2614.63 1319.24 2607.69 1320.4C2600.76 1321.55 2594.74 1321.79 2594.51 1321.09C2594.28 1320.17 2591.04 1316.24 2587.34 1312.54C2583.87 1308.84 2578.56 1299.36 2575.55 1291.72C2572.54 1284.09 2565.84 1263.74 2560.29 1246.63C2554.97 1229.52 2546.64 1206.63 2542.02 1195.76C2537.39 1184.89 2532.77 1174.95 2531.38 1173.79C2529.84 1172.25 2529.07 1173.02 2529.07 1176.1C2529.07 1178.65 2531.15 1189.51 2533.46 1200.38C2535.78 1211.25 2537.63 1224.2 2537.86 1229.29C2538.09 1237.38 2537.39 1236.23 2532.31 1220.04C2529.07 1209.86 2521.9 1189.05 2516.35 1173.79C2511.03 1158.53 2504.56 1139.8 2502.25 1132.17C2499.93 1124.54 2496.93 1117.6 2495.77 1116.44C2493.92 1115.29 2493.92 1114.36 2495.77 1112.97C2497.85 1111.82 2497.85 1109.27 2495.77 1103.26C2494.15 1097.71 2490.45 1093.78 2476.12 1085.92L2468.48 1093.09C2464.32 1097.02 2457.62 1102.34 2453.92 1104.88C2450.22 1107.65 2440.27 1112.05 2431.95 1114.82C2423.62 1117.6 2415.07 1119.22 2412.99 1118.52C2410.67 1117.83 2408.82 1118.29 2408.82 1119.45C2408.82 1120.84 2400.73 1121.76 2388.71 1121.53C2377.37 1121.53 2367.2 1120.6 2366.04 1119.68C2364.89 1118.75 2359.11 1118.29 2353.32 1118.75C2345 1119.45 2342.46 1120.6 2341.3 1124.77C2340.38 1127.54 2339.45 1134.02 2339.22 1139.1C2339.22 1144.19 2338.76 1146.97 2338.06 1145.35C2337.6 1143.96 2335.75 1143.27 2334.36 1143.96C2332.74 1144.65 2325.81 1144.19 2319.33 1142.8C2311.01 1140.95 2306.84 1138.87 2306.15 1136.1C2305.46 1134.02 2304.53 1118.06 2303.61 1100.95C2302.45 1080.83 2300.37 1065.11 2297.83 1057.01C2295.51 1050.07 2290.2 1035.04 2286.26 1023.48C2282.33 1011.92 2277.01 993.42 2274.47 981.858C2271 965.67 2270.77 960.583 2273.08 959.427C2274.47 958.271 2281.64 955.265 2288.58 952.721C2295.51 949.946 2305.92 946.015 2322.11 939.771L2329.04 952.721C2332.74 959.889 2341.76 971.914 2348.93 979.545C2357.95 989.257 2366.27 995.501 2376.68 1000.13C2387.55 1004.98 2396.1 1007.29 2408.82 1007.99C2420.62 1008.68 2431.25 1007.76 2442.35 1004.98C2451.37 1002.67 2465.25 997.813 2473.57 994.113C2481.9 990.414 2491.84 987.176 2495.54 986.945C2499.24 986.945 2506.18 988.564 2510.57 990.876C2516.58 994.114 2521.44 994.807 2530.23 993.882C2536.93 992.957 2549.88 988.332 2561.44 982.551C2574.16 976.076 2585.72 967.983 2593.82 959.889C2600.99 952.952 2609.54 942.546 2612.78 936.765C2616.25 930.984 2621.11 919.653 2623.65 911.328C2626.42 903.003 2629.66 889.591 2631.05 881.266C2632.44 872.942 2634.29 853.286 2635.21 837.33C2636.6 815.131 2637.99 806.575 2645.85 793.394L2636.6 775.126C2631.51 764.951 2627.58 756.164 2628.04 755.47C2628.27 754.776 2626.42 752.001 2623.88 749.458C2621.34 746.914 2619.72 743.908 2620.41 742.52C2621.11 741.133 2620.41 740.208 2619.26 740.208C2618.1 740.208 2617.41 738.82 2618.1 737.202C2618.56 735.814 2621.8 733.039 2625.04 731.42C2628.27 730.033 2635.67 724.946 2641.45 720.552C2647.24 716.158 2652.79 712.458 2653.48 712.458ZM2396.1 782.757C2428.02 782.757 2441.43 783.219 2426.17 783.45C2410.9 783.913 2384.77 783.913 2368.36 783.45C2351.94 783.219 2364.42 782.757 2396.1 782.757ZM2374.14 833.63C2402.81 833.63 2414.14 834.093 2399.57 834.324C2385.01 834.786 2361.42 834.786 2347.54 834.324C2333.67 834.093 2345.46 833.63 2374.14 833.63ZM1217.92 2001.41C1242.66 2001.41 1252.6 2001.87 1239.89 2002.11C1227.17 2002.57 1206.82 2002.57 1194.79 2002.11C1182.77 2001.87 1193.17 2001.41 1217.92 2001.41Z" fill="#DFDFEE"/>
<path fill-rule="evenodd" clip-rule="evenodd" d="M2151.45 226.15C2160.01 226.843 2167.4 227.537 2167.64 227.768C2167.87 228 2167.17 232.162 2166.02 237.249C2164.4 244.418 2164.86 248.349 2167.87 254.593C2171.34 261.53 2173.19 262.917 2181.51 263.842C2186.83 264.536 2192.61 266.386 2194.23 268.005C2195.85 269.624 2199.55 270.78 2202.32 270.78C2205.33 270.78 2210.19 268.005 2213.42 264.536C2216.66 260.836 2222.67 252.974 2226.6 246.499C2230.77 240.256 2234.23 234.474 2234.7 233.781C2235.16 233.087 2236.08 233.318 2237.01 234.243C2238.17 235.168 2235.62 241.643 2231.92 248.812C2224.98 261.299 2224.98 261.53 2229.15 267.774C2231.46 271.474 2236.78 280.954 2240.71 289.048C2244.87 297.142 2249.96 304.773 2252.04 305.698C2254.58 306.854 2260.13 306.854 2265.45 305.466C2271.23 304.079 2275.63 301.304 2277.25 298.067C2279.33 293.673 2280.25 293.442 2281.87 296.217C2283.03 298.067 2283.95 301.998 2283.95 305.004C2283.95 309.166 2281.87 310.785 2272.85 313.56C2266.84 315.179 2260.83 318.185 2259.21 319.803C2257.36 321.653 2256.2 333.216 2255.74 351.253C2255.05 379.464 2255.05 379.927 2260.83 384.552C2264.07 386.864 2270.54 390.333 2275.4 391.72C2280.02 393.339 2283.95 395.189 2283.95 396.345C2283.95 397.27 2281.41 397.964 2278.17 397.964C2274.93 397.964 2266.84 396.114 2248.11 390.333L2235.85 403.976C2229.15 411.376 2223.83 419.701 2223.83 422.244C2223.83 426.638 2222.44 426.869 2175.73 426.407C2149.37 426.176 2121.85 425.944 2114.45 425.713C2106.59 425.713 2101.73 424.788 2102.43 423.401C2103.12 422.244 2099.42 416.001 2094.33 409.526C2089.24 403.282 2082.31 396.576 2079.07 395.189C2073.75 392.414 2072.6 392.876 2068.66 397.501C2065.66 400.97 2063.81 401.664 2063.11 399.814C2062.65 398.195 2061.03 394.033 2059.65 390.564C2057.8 385.014 2058.03 384.089 2061.26 384.089C2063.58 384.089 2067.74 382.471 2070.51 380.621C2075.37 377.383 2075.83 375.302 2075.83 357.034C2075.83 345.703 2074.91 331.366 2072.36 312.635L2056.64 311.479C2043.92 310.322 2041.15 309.397 2041.15 306.16C2041.15 303.848 2042.07 300.61 2043 298.992C2044.38 296.679 2046 296.91 2051.55 299.685C2055.25 301.535 2061.96 303.154 2065.89 303.154C2070.05 303.154 2074.21 301.766 2075.14 300.379C2076.29 298.76 2078.61 292.748 2080.69 286.967C2082.77 281.186 2086.47 275.636 2089.01 274.248C2091.56 272.861 2095.49 270.317 2097.57 268.467C2100.34 266.155 2101.27 263.149 2100.11 259.218C2098.73 253.899 2099.42 254.13 2107.51 261.993C2112.37 266.849 2118.38 270.78 2120.93 270.78C2123.47 270.549 2129.02 268.236 2133.41 265.461C2137.81 262.686 2142.66 258.293 2144.51 255.749C2146.13 253.205 2147.52 249.737 2147.52 248.349C2147.52 246.73 2145.9 245.343 2144.05 245.343C2142.2 245.343 2139.42 243.262 2138.27 240.718C2136.88 238.174 2135.96 233.55 2135.96 230.312C2135.72 224.762 2135.96 224.762 2151.45 226.15ZM1565.94 307.779C1568.48 307.779 1572.18 308.935 1574.03 310.322C1577.04 312.172 1576.35 313.329 1570.8 317.722C1567.1 320.497 1559.23 326.51 1553.45 330.903C1547.67 335.528 1539.58 344.778 1535.42 351.715C1530.79 359.809 1527.09 370.215 1525.47 380.621C1524.08 389.639 1523.16 403.051 1524.08 424.557L1510.9 425.251C1503.74 425.482 1497.72 425.019 1497.72 424.094C1497.72 422.938 1499.8 411.376 1502.35 397.964C1505.59 380.852 1509.52 368.596 1515.53 356.802C1520.38 347.321 1528.25 334.834 1533.1 329.053C1537.96 323.041 1546.28 315.872 1551.6 313.097C1556.92 310.091 1563.16 307.779 1565.94 307.779ZM1121.26 313.56C1126.11 314.254 1133.98 316.566 1138.6 319.11C1143.46 321.422 1150.86 327.435 1155.02 332.291C1159.18 337.147 1163.58 345.009 1164.73 349.403C1165.89 353.796 1166.35 361.659 1165.43 366.746C1164.5 371.833 1160.57 380.621 1156.87 386.402C1152.94 391.952 1145.54 399.12 1140.45 401.895C1135.36 404.67 1127.73 407.445 1123.57 408.139C1119.64 409.064 1112.24 408.601 1107.38 407.214C1102.76 406.057 1094.67 401.664 1089.81 397.501C1084.72 393.339 1078.25 384.783 1075.24 378.308C1072.47 372.065 1069.92 362.584 1069.92 357.496C1069.92 351.253 1072 344.778 1076.4 337.84C1079.87 332.059 1087.03 324.891 1091.89 321.885C1096.98 318.647 1103.68 315.41 1106.92 314.485C1110.16 313.329 1116.63 313.097 1121.26 313.56ZM1208.67 454.619L1293.53 455.081C1340.48 455.544 1382.33 456.237 1386.73 456.931C1391.12 457.625 1393.89 459.012 1392.97 459.937C1391.81 460.862 1386.96 463.175 1381.87 465.025C1377.01 466.875 1364.99 474.968 1355.05 482.599C1345.1 490.461 1329.15 506.186 1319.43 517.286C1309.72 528.617 1298.16 543.647 1293.77 550.585C1289.14 557.522 1282.44 569.547 1278.74 577.178C1274.8 584.809 1269.49 598.221 1266.94 607.24C1264.4 616.258 1260.93 629.439 1259.77 636.839C1258.39 644.239 1255.15 652.101 1252.6 654.644C1250.06 657.188 1247.98 662.044 1247.98 665.744C1247.75 669.213 1249.14 673.144 1250.75 674.763C1253.07 676.844 1324.75 678 1555.53 679.156C1721.57 679.85 1859.39 680.544 1861.93 680.313C1864.48 680.313 1868.41 678.231 1870.72 676.15C1873.03 673.838 1874.88 669.907 1874.65 667.363C1874.65 664.819 1873.03 660.194 1870.72 656.957C1868.64 653.72 1866.09 643.314 1864.94 633.37C1864.01 623.427 1859.39 603.54 1854.76 589.434C1850.14 575.097 1843.2 557.522 1839.5 550.585C1835.57 543.647 1828.17 531.623 1823.08 523.992C1817.76 516.361 1805.51 502.255 1796.03 492.774C1786.32 483.293 1772.9 471.731 1766.43 467.337C1759.95 462.943 1754.4 458.55 1754.4 457.625C1754.4 456.469 1861.47 455.775 2230.77 455.775V742.517C2230.77 1014.69 2230.53 1029.26 2226.6 1027.87C2224.52 1027.18 2214.81 1024.4 2205.33 1021.86C2193.3 1018.85 2184.29 1017.7 2175.73 1018.62C2169.25 1019.32 2158.85 1022.55 2152.61 1025.56C2146.59 1028.33 2138.27 1035.04 2134.11 1039.9C2129.94 1044.75 2124.63 1054.46 2122.08 1061.17C2119.54 1067.65 2117.46 1075.97 2117.46 1079.67C2117.46 1084.76 2116.99 1085.45 2114.68 1082.91C2113.06 1081.29 2109.36 1080.13 2106.36 1080.13C2103.35 1080.13 2098.03 1082.91 2088.09 1092.85L2085.08 1148.35C2083.46 1179.57 2082.77 1222.58 2083.46 1246.63C2084.62 1285.25 2085.78 1294.73 2095.26 1343.75C2101.27 1373.58 2106.59 1399.94 2107.05 1402.26C2107.74 1404.34 2108.67 1408.27 2109.36 1410.81C2110.52 1415.44 2109.13 1415.44 2044.61 1416.13C2008.31 1416.36 1978.71 1416.13 1978.71 1415.44C1978.71 1414.74 1984.03 1409.19 1990.5 1402.72C1996.75 1396.47 2006.23 1384.91 2011.32 1377.28C2016.4 1369.65 2021.03 1360.17 2021.72 1356.47C2022.65 1352.77 2021.95 1347.22 2020.57 1344.44C2018.02 1339.13 2017.1 1339.13 1978.71 1339.13C1941.25 1339.13 1939.4 1339.36 1938.24 1343.75C1937.09 1347.91 1935.01 1348.38 1912.57 1349.07C1888.29 1349.53 1887.83 1349.76 1882.98 1356.01C1879.97 1360.17 1877.66 1367.34 1877.19 1374.51C1876.5 1384.45 1877.66 1389.07 1890.84 1415.44L1700.29 1414.28L1695.44 1383.06C1692.66 1365.95 1687.57 1337.74 1684.34 1320.63C1681.1 1303.51 1676.71 1279 1674.62 1266.28C1672.54 1253.57 1668.61 1238.07 1666.07 1231.6C1663.29 1225.35 1658.21 1216.34 1654.97 1211.94C1651.5 1207.55 1643.18 1199.69 1636.24 1194.6C1629.3 1189.51 1617.04 1183.27 1608.72 1180.26C1600.4 1177.49 1582.36 1174.02 1568.25 1172.63C1554.15 1171.47 1529.17 1170.09 1512.75 1169.86C1487.09 1169.62 1480.38 1170.32 1467.66 1174.71C1459.34 1177.49 1445.69 1185.12 1436.91 1191.36C1428.35 1197.6 1411.93 1213.33 1400.37 1226.51C1388.81 1239.46 1374.01 1257.27 1367.76 1266.28C1361.52 1275.3 1353.89 1288.02 1350.65 1294.73C1347.65 1301.2 1342.79 1314.85 1340.01 1324.79C1336.08 1338.66 1334.93 1349.3 1334.93 1372.66C1334.7 1389.07 1335.39 1405.49 1338.16 1415.44L1314.12 1414.97C1300.93 1414.51 1289.37 1413.82 1288.45 1413.12C1287.75 1412.43 1289.37 1387.92 1291.92 1358.78C1294.69 1329.65 1297.93 1299.81 1298.85 1292.88C1300.01 1285.94 1300.47 1279.47 1300.01 1278.54C1299.32 1277.38 1300.47 1275.3 1302.55 1273.92C1304.63 1272.3 1307.87 1268.13 1309.49 1264.67C1311.34 1260.97 1312.03 1256.57 1310.88 1254.26C1309.95 1252.18 1307.18 1249.63 1304.63 1248.71C1302.09 1247.78 1297.47 1247.55 1294.23 1248.25C1290.99 1248.94 1286.83 1251.02 1284.98 1252.64C1281.97 1255.18 1281.51 1253.8 1282.44 1241.31C1282.9 1233.45 1284.28 1224.89 1285.9 1222.12C1287.29 1219.34 1294.23 1209.17 1301.17 1199.45C1308.1 1189.74 1318.74 1173.32 1324.98 1162.69C1331 1152.28 1340.01 1134.48 1344.87 1122.91C1349.96 1111.35 1356.9 1091.23 1360.36 1077.82C1364.53 1061.86 1366.61 1047.3 1366.61 1035.04C1366.84 1019.55 1365.91 1014.92 1361.29 1006.14C1357.13 998.735 1352.5 994.11 1345.1 990.411C1337.93 986.942 1330.53 985.323 1321.28 985.323C1312.96 985.323 1303.25 987.173 1295.15 990.642C1286.37 994.11 1278.5 999.66 1270.18 1008.45C1262.55 1016.54 1256.07 1026.25 1252.6 1035.04C1247.98 1047.07 1247.05 1054.23 1244.51 1127.54L1239.42 1119.44C1236.88 1115.05 1225.78 1103.03 1215.14 1092.85C1204.74 1082.68 1191.09 1071.81 1184.85 1069.03C1178.84 1066.26 1172.83 1063.95 1171.67 1063.95C1170.05 1063.95 1169.59 1011.92 1169.82 911.094C1170.28 827.152 1170.98 757.548 1171.67 756.854C1172.36 755.929 1174.91 754.079 1177.45 752.692C1179.99 751.304 1184.39 746.68 1187.39 742.286C1190.17 737.892 1193.64 729.336 1195.02 722.861C1196.64 714.768 1196.64 707.137 1194.79 697.425C1193.41 689.794 1189.94 678.463 1186.93 671.988C1183.93 665.744 1177.68 654.876 1173.06 648.401C1167.74 640.307 1165.66 635.914 1167.51 635.451C1169.82 634.758 1170.74 616.489 1170.98 555.672C1171.67 482.599 1171.9 476.587 1175.6 475.431C1177.91 474.737 1186.24 469.881 1194.1 464.562L1208.67 454.619ZM1498.42 453.462C1508.36 453.462 1509.29 453.925 1508.82 458.55C1508.36 462.481 1506.05 464.1 1499.11 465.487C1494.02 466.643 1481.54 469.649 1471.36 472.424C1461.19 475.199 1442.46 482.368 1429.74 488.611C1416.09 495.318 1396.9 507.342 1383.49 517.979C1370.77 528.154 1355.51 542.26 1349.5 549.66C1343.71 557.06 1334.23 570.934 1328.68 580.646C1322.9 590.127 1315.73 604.696 1312.27 613.021C1309.03 621.114 1305.79 631.751 1303.71 645.395L1319.2 645.857C1333.31 646.551 1332.38 646.551 1312.03 647.707C1299.55 648.17 1288.91 648.17 1288.68 647.707C1288.22 647.013 1290.76 637.07 1294 625.739C1297.47 614.177 1303.71 597.527 1307.87 588.74C1312.03 579.721 1320.36 565.153 1326.14 556.366C1331.92 547.347 1344.64 532.317 1354.35 522.604C1363.83 513.123 1378.63 500.636 1386.96 495.086C1395.05 489.536 1412.39 479.824 1425.11 473.349C1439.68 466.181 1455.41 460.4 1467.89 457.856C1478.53 455.544 1492.4 453.694 1498.42 453.462ZM1662.83 456.237C1685.03 456.931 1687.57 457.625 1706.07 466.875C1716.71 472.424 1733.59 482.137 1743.54 488.843C1753.25 495.318 1761.34 501.561 1761.34 502.486C1761.34 503.411 1758.1 502.024 1753.94 499.48C1749.78 496.936 1740.76 491.849 1733.82 488.149C1726.65 484.68 1713.7 479.824 1704.92 477.743C1695.9 475.431 1680.87 472.193 1671.39 470.343C1661.67 468.724 1651.04 467.337 1647.57 467.337C1644.1 467.337 1640.63 465.718 1640.17 463.868C1639.48 461.787 1639.01 459.243 1639.24 457.625C1639.48 456.006 1646.64 455.544 1662.83 456.237ZM2588.04 703.206C2589.43 703.206 2591.97 705.518 2593.59 708.293C2596.36 712.918 2596.13 714.074 2591.97 718.237C2587.81 722.168 2586.88 722.399 2583.64 719.393C2581.56 717.312 2579.71 714.305 2579.48 712.224C2579.25 710.374 2580.64 707.368 2582.49 705.981C2584.11 704.362 2586.65 703.206 2588.04 703.206ZM1089.58 725.636C1090.97 726.33 1100.45 733.267 1110.62 740.898C1120.8 748.761 1129.58 755.236 1130.28 755.467C1130.74 755.929 1129.58 758.473 1127.73 761.479C1125.65 764.254 1120.33 770.266 1116.17 774.66C1111.78 779.054 1103.45 784.604 1097.9 786.916C1092.12 789.46 1082.64 792.235 1076.63 792.928C1066.22 794.316 1065.76 794.316 1041.25 770.266L1049.34 761.479C1053.97 756.854 1060.44 749.223 1064.14 744.83C1067.61 740.205 1074.08 733.961 1078.71 730.492C1083.33 727.024 1088.19 724.943 1089.58 725.636ZM956.15 767.954C960.312 767.954 969.1 769.11 975.806 770.498C982.512 771.885 991.068 774.66 994.999 776.51C998.699 778.591 1006.79 785.066 1013.04 790.847C1019.28 796.628 1026.22 804.953 1028.53 809.578C1030.61 813.971 1034.31 824.377 1036.62 832.702C1039.4 843.571 1040.09 853.052 1039.4 867.389C1038.47 882.882 1036.16 892.594 1028.3 913.638C1022.98 928.206 1011.65 954.105 1002.86 971.448C994.305 988.561 985.749 1008.22 983.668 1015.38C981.587 1022.32 979.737 1035.27 979.506 1044.29C979.274 1055.62 980.662 1063.02 983.668 1069.5C985.98 1074.35 993.149 1083.14 999.624 1088.69C1005.87 1094.24 1015.81 1101.18 1021.59 1103.95C1030.38 1108.11 1035.93 1109.04 1086.11 1109.04L1084.49 1114.82C1083.8 1117.83 1081.48 1130.54 1075.93 1165.46L1059.05 1151.12C1049.8 1143.26 1032.23 1127.77 1019.74 1116.9C1007.25 1106.03 992.687 1091.93 987.137 1085.68C980.662 1078.28 976.037 1069.73 973.493 1061.63C970.256 1049.84 970.256 1047.07 973.725 1026.95C976.037 1014.69 982.512 991.335 988.293 974.917C994.074 958.268 999.855 941.156 1001.24 936.762C1002.4 932.137 1002.86 926.818 1002.17 924.506C1001.24 921.962 998.236 920.575 994.305 920.344C990.837 920.344 984.824 921.037 981.124 921.731C974.65 923.119 973.493 924.737 967.25 944.393C963.55 955.955 958 973.992 954.994 984.167C951.988 994.342 948.057 1010.99 946.207 1021.17C944.357 1031.34 942.738 1046.83 942.738 1055.85C942.738 1068.57 944.125 1074.58 948.981 1084.76C953.144 1093.31 962.394 1104.64 978.581 1120.6C991.53 1133.32 1016.04 1154.82 1033.15 1168.47C1050.27 1182.11 1068.53 1195.52 1073.62 1198.3C1079.87 1201.77 1084.72 1202.69 1089.12 1201.77C1092.58 1200.84 1096.05 1198.53 1096.75 1196.22C1097.67 1193.91 1101.83 1174.94 1106 1154.13C1110.39 1133.09 1115.71 1113.43 1117.56 1110.66C1119.41 1107.88 1121.03 1103.03 1121.03 1100.25C1121.03 1097.48 1118.25 1092.39 1115.01 1089.38C1109.23 1083.83 1107.38 1083.37 1073.85 1082.21C1047.72 1081.52 1036.85 1080.13 1030.84 1077.13C1026.22 1075.05 1020.9 1072.04 1019.05 1070.42C1016.97 1068.57 1013.5 1063.71 1011.19 1059.32C1008.18 1053.08 1007.25 1047.99 1008.18 1038.51C1009.1 1028.8 1013.04 1018.62 1025.06 995.729C1033.62 979.08 1044.25 956.649 1048.65 946.012C1053.04 935.143 1058.59 920.112 1060.9 912.481C1063.22 904.85 1066.45 890.744 1067.84 881.263C1069.46 870.857 1069.92 855.133 1067.84 821.14L1082.18 820.446C1091.43 819.984 1101.14 817.671 1109.46 813.971C1116.4 810.734 1126.58 803.797 1141.84 788.766V1413.12H1087.5C1033.39 1413.12 1032.92 1413.12 1030.15 1418.21C1028.3 1421.45 1026.91 1436.25 1026.45 1457.06C1025.75 1478.8 1026.45 1492.21 1030.84 1501H1359.21V1510.71C1359.21 1516.03 1361.29 1530.36 1363.83 1542.62C1366.38 1554.65 1370.77 1568.98 1373.55 1574.76C1376.32 1580.31 1381.41 1586.79 1384.64 1589.33C1387.65 1591.64 1391.12 1593.73 1392.28 1593.96C1393.43 1594.42 1395.05 1609.22 1396.21 1627.02C1397.59 1653.16 1397.36 1661.71 1394.59 1672.12C1392.51 1679.05 1390.19 1686.22 1389.27 1688.3C1388.34 1690.15 1384.41 1692.47 1380.71 1693.39C1377.01 1694.55 1372.85 1697.09 1371.23 1699.17C1369.85 1701.49 1368.46 1705.42 1368.46 1707.96C1368.46 1710.5 1371.23 1715.59 1381.18 1726L1477.14 1722.99V1972.73H1374.7C1276.65 1972.73 1272.49 1972.5 1276.19 1968.57C1278.5 1966.49 1284.28 1951.23 1289.6 1935.04C1295.15 1917.24 1298.85 1901.28 1298.85 1894.57C1298.85 1887.17 1297 1880.24 1292.84 1873.3C1287.98 1864.51 1287.06 1860.81 1288.22 1851.33C1289.14 1843.7 1292.15 1835.38 1297.47 1827.05C1302.09 1819.88 1307.18 1809.48 1309.26 1803.93C1311.34 1797.91 1312.96 1786.35 1312.96 1777.33C1312.73 1765.08 1311.34 1758.14 1307.41 1749.58C1304.4 1743.11 1298.39 1734.55 1294 1730.62C1289.83 1726.46 1282.44 1721.6 1277.58 1719.52C1272.72 1717.67 1263.01 1715.82 1255.61 1715.82C1248.21 1715.82 1238.5 1717.44 1233.64 1719.29C1228.79 1721.37 1220.69 1726.69 1215.37 1731.55C1210.29 1736.4 1204.27 1743.34 1202.19 1747.27C1200.11 1750.97 1197.11 1758.37 1195.26 1763.46C1193.41 1769.01 1191.79 1787.05 1191.09 1810.86C1189.94 1848.79 1189.94 1849.02 1185.54 1844.39C1183 1841.85 1180.46 1838.15 1179.99 1836.3C1179.3 1834.22 1172.83 1829.36 1165.66 1825.2C1158.26 1821.27 1149.47 1817.8 1146.46 1817.8C1143.23 1817.8 1136.75 1818.73 1131.9 1820.11C1127.04 1821.27 1119.64 1826.13 1115.01 1830.98C1110.16 1836.07 1105.3 1844.39 1103.45 1851.33C1101.6 1857.57 1099.98 1867.75 1099.98 1873.76C1099.98 1879.77 1102.3 1890.64 1105.07 1898.04C1108.77 1907.52 1114.55 1915.85 1141.61 1943.83L1141.84 1972.73L1068.3 1973.89L1067.15 1964.64C1066.68 1959.55 1063.45 1950.3 1059.98 1944.29C1055.35 1935.97 1051.19 1932.04 1042.64 1928.1C1031.54 1923.02 1031.3 1922.79 1028.99 1909.14C1027.84 1901.51 1021.36 1866.59 1014.65 1831.68C1008.18 1796.53 999.624 1750.74 995.924 1729.93C991.993 1708.89 985.287 1672.35 980.893 1648.99C976.499 1625.41 969.331 1586.79 964.937 1563.43C960.544 1539.85 954.763 1508.63 952.219 1494.06C949.675 1479.26 943.432 1443.42 938.113 1414.28C932.794 1384.91 927.245 1353.23 925.395 1343.75C923.776 1334.04 920.307 1311.84 917.532 1294.03C914.989 1276.23 909.208 1238.07 904.814 1209.63C900.42 1180.96 896.258 1154.59 895.564 1151.12C894.408 1145.11 894.87 1144.65 903.658 1143.73C909.824 1142.95 913.987 1140.8 916.145 1137.25C918.226 1134.48 921.232 1122.68 923.082 1111.35C924.932 1099.79 928.632 1080.6 931.176 1068.57C933.719 1056.31 935.801 1044.52 935.801 1041.98C935.801 1039.43 933.951 1035.97 931.869 1034.35C929.557 1032.96 924.47 1031.57 920.307 1031.57C914.295 1031.57 912.214 1032.73 909.67 1037.82C907.82 1041.28 904.351 1055.62 901.576 1069.73C899.033 1083.6 896.258 1100.95 895.564 1108.34C894.87 1115.74 893.714 1121.76 893.252 1121.76C892.558 1121.76 882.615 1115.98 871.284 1109.04C859.721 1101.87 841.222 1093.31 830.122 1089.61C819.022 1085.91 796.361 1080.6 779.942 1077.82C763.293 1074.81 738.55 1072.5 700.163 1072.04L701.088 1065.1C701.782 1061.17 702.938 1048.68 703.632 1037.35C704.557 1025.79 706.638 1009.14 708.257 1000.35C709.875 991.335 714.038 976.767 717.275 967.98C720.744 958.961 725.6 948.093 728.375 943.699C731.15 939.074 738.781 928.668 745.487 920.575C752.193 912.25 765.143 898.607 774.392 890.513C783.411 882.188 799.135 869.239 808.848 861.608C818.791 853.977 841.684 836.171 859.953 822.065C878.221 807.959 900.42 792.003 909.439 786.453C918.226 780.904 930.713 774.429 937.188 772.348C943.432 770.035 951.988 768.185 956.15 767.954ZM2475.88 823.452C2476.81 823.452 2477.5 829.696 2477.27 837.327C2477.27 848.889 2476.81 850.508 2474.5 847.039C2471.95 843.571 2470.33 847.039 2463.17 869.701C2458.54 884.27 2454.61 899.3 2454.61 903.232C2454.61 906.931 2455.07 911.325 2456 912.944C2456.92 914.563 2456.46 915.95 2455.3 915.95C2453.92 915.95 2451.14 910.4 2449.06 903.694C2446.52 895.138 2445.59 886.813 2446.52 875.482C2447.21 863.458 2449.29 855.827 2454.38 846.808C2458.08 839.871 2463.86 831.777 2467.56 828.771C2471.03 825.765 2474.96 823.452 2475.88 823.452ZM2418.3 860.451L2416.45 872.476C2415.53 879.182 2414.84 890.976 2415.07 898.607C2415.07 906.238 2416.92 916.644 2419.23 921.731C2421.31 926.818 2426.17 934.449 2429.64 939.074C2433.1 943.468 2440.5 949.48 2446.05 952.255C2453.92 956.418 2460.39 957.574 2473.8 957.805C2483.28 958.036 2489.99 958.499 2488.83 958.961C2487.45 959.424 2477.5 963.124 2466.87 966.824C2456 970.755 2440.27 975.611 2432.18 977.461C2420.62 980.005 2414.6 980.236 2406.05 978.386C2400.04 976.998 2391.25 973.992 2386.39 971.68C2381.54 969.367 2373.67 962.892 2368.82 957.111C2363.73 951.561 2356.33 939.768 2352.17 930.981C2348.01 921.962 2341.53 904.619 2337.6 892.132C2333.67 879.645 2330.43 867.389 2330.43 864.845C2330.43 860.451 2331.82 860.22 2418.3 860.451ZM2548.03 906.7C2549.19 906.7 2550.58 907.625 2551.27 909.013C2551.73 910.169 2557.05 912.25 2562.83 913.638C2568.38 914.794 2573.24 916.644 2573.24 917.569C2573.24 918.494 2571.39 921.962 2569.08 924.968C2566.76 928.206 2560.29 933.525 2554.74 937.224C2545.95 942.543 2541.79 943.699 2528.61 943.699C2520.05 943.699 2512.42 942.543 2511.96 941.387C2511.26 939.999 2511.26 937.224 2511.96 934.912C2512.42 932.6 2518.9 927.05 2526.3 922.425C2533.7 917.8 2541.1 912.25 2542.71 910.169C2544.56 908.319 2546.88 906.7 2548.03 906.7ZM1324.98 1013.07C1327.3 1013.07 1331.23 1015.85 1333.77 1019.32C1337.93 1024.63 1338.63 1027.64 1337.24 1038.51C1336.55 1045.45 1333.77 1058.86 1331.23 1068.57C1328.68 1078.05 1322.9 1095.16 1318.51 1106.73C1314.12 1118.06 1305.79 1134.71 1300.24 1143.73C1294.46 1152.51 1287.52 1164.54 1279.43 1180.72L1278.74 1120.6C1278.27 1072.27 1278.74 1057.7 1281.74 1046.6C1283.59 1038.97 1287.06 1030.88 1289.14 1028.57C1291.45 1026.25 1299.55 1021.86 1307.18 1018.85C1314.81 1015.62 1322.67 1013.07 1324.98 1013.07ZM1172.36 1094.01C1173.98 1094.01 1179.53 1097.48 1184.85 1101.41C1190.17 1105.57 1198.49 1113.66 1203.12 1119.44C1207.74 1124.99 1217.92 1139.1 1225.55 1150.66C1233.41 1161.99 1242.2 1176.56 1245.44 1183.04C1249.14 1190.67 1251.68 1200.84 1252.84 1213.1C1254.22 1227.44 1253.99 1232.52 1251.45 1236.22C1249.6 1238.77 1248.21 1242.93 1248.21 1245.47C1248.21 1248.25 1243.82 1243.39 1236.65 1232.75C1230.17 1223.04 1220.92 1209.63 1216.07 1202.69C1210.98 1195.52 1201.5 1180.03 1194.56 1168.01C1187.63 1155.75 1179.3 1139.79 1175.83 1132.16C1171.67 1122.91 1169.59 1114.2 1169.59 1106.03C1169.59 1097.71 1170.51 1094.01 1172.36 1094.01ZM2116.07 1114.36L2123.01 1115.28C2129.25 1115.74 2130.17 1117.13 2133.87 1129.85C2135.96 1137.48 2139.66 1147.19 2141.74 1151.82C2144.05 1156.21 2153.53 1167.31 2163.01 1176.56C2172.26 1185.81 2182.9 1193.91 2186.37 1194.83C2192.61 1196.22 2192.61 1196.45 2181.28 1202.23C2175.04 1205.7 2165.32 1213.56 2159.77 1220.04C2154.22 1226.28 2147.06 1236.92 2144.05 1243.62C2140.81 1250.33 2136.65 1262.82 2134.8 1271.37C2132.72 1279.93 2130.41 1297.96 2127.86 1335.66L2122.54 1319.47C2119.77 1310.45 2116.3 1296.35 2114.91 1288.25C2113.53 1279.93 2112.37 1252.87 2112.37 1228.13C2112.37 1203.15 2113.06 1167.54 2114.22 1148.81L2116.07 1114.36ZM2268.69 1155.52C2271 1157.83 2276.09 1164.77 2279.56 1171.24C2283.26 1177.49 2286.26 1185.12 2286.26 1187.89C2286.26 1192.98 2285.57 1193.21 2262.68 1193.21C2249.5 1193.21 2235.85 1192.52 2224.98 1190.21L2236.55 1184.19C2242.79 1180.72 2250.88 1174.48 2254.35 1170.09C2258.05 1165.46 2261.75 1159.45 2262.68 1156.67C2264.3 1151.36 2264.53 1151.36 2268.69 1155.52ZM1171.67 1196.68L1181.61 1211.48C1186.93 1219.8 1197.34 1232.75 1204.51 1240.39C1211.91 1248.02 1217.92 1255.18 1217.92 1256.11C1217.92 1257.03 1213.99 1256.8 1209.36 1255.65C1204.51 1254.26 1199.19 1253.33 1197.57 1253.33C1195.95 1253.33 1191.56 1256.34 1187.86 1260.27C1183.93 1264.2 1180.92 1269.52 1180.92 1272.99C1180.92 1276 1182.54 1281.78 1184.39 1285.71C1187.63 1291.95 1187.39 1298.66 1182.77 1352.77C1178.14 1406.42 1176.99 1412.89 1173.52 1412.89C1169.59 1412.89 1169.59 1408.27 1170.51 1340.51C1171.21 1300.74 1171.67 1252.18 1171.67 1232.52V1196.68ZM1466.97 1204.77C1468.97 1204.77 1469.28 1205.7 1467.89 1207.55C1466.51 1209.17 1465.35 1212.87 1464.89 1215.64C1464.66 1218.42 1462.57 1222.58 1460.72 1224.89C1458.64 1227.2 1450.55 1234.6 1442.92 1241.77C1435.06 1248.71 1424.42 1257.96 1418.87 1262.58C1413.55 1266.98 1406.61 1272.99 1403.61 1275.77C1400.6 1278.54 1397.59 1281.08 1397.13 1281.08C1396.44 1281.08 1396.9 1279.23 1398.06 1276.92C1399.21 1274.61 1406.61 1265.59 1414.48 1256.8C1422.57 1247.78 1436.91 1232.52 1446.39 1222.58C1456.1 1212.64 1465.35 1204.77 1466.97 1204.77ZM2231.46 1216.34C2232.38 1216.34 2233.54 1217.72 2234.23 1219.8C2234.93 1221.65 2235.39 1224.43 2235.62 1226.05C2235.62 1227.67 2234.7 1228.36 2233.77 1227.44C2232.85 1226.51 2226.14 1227.9 2219.2 1230.44C2212.27 1232.99 2203.25 1237.61 2199.09 1240.62C2194.92 1243.85 2189.14 1250.1 2186.14 1254.95C2182.9 1259.81 2178.74 1269.29 2176.65 1276.46C2174.34 1283.86 2170.41 1316.46 2167.17 1355.08C2163.94 1391.16 2160.47 1433.7 2159.08 1449.2C2157.92 1464.69 2155.38 1480.42 2153.53 1483.88C2151.91 1487.35 2148.91 1491.52 2147.29 1493.13C2145.44 1494.75 2137.57 1497.3 2129.71 1498.92C2121.62 1500.53 2115.14 1502.85 2115.14 1504.23C2115.14 1505.39 2116.76 1510.71 2118.84 1515.8C2120.93 1520.88 2124.86 1528.05 2132.49 1538.46L2122.08 1536.84C2116.3 1535.91 2106.13 1534.06 2086.93 1529.67L2088.55 1519.27C2089.24 1513.48 2090.4 1504.23 2091.09 1498.92C2092.02 1490.13 2092.48 1489.43 2096.64 1491.52C2099.19 1492.67 2105.43 1493.83 2110.52 1493.83C2115.61 1493.83 2123.93 1491.75 2129.02 1489.2C2134.11 1486.43 2139.89 1481.34 2141.74 1477.64C2143.59 1473.71 2146.13 1463.54 2147.29 1454.98C2148.44 1446.42 2150.06 1426.31 2150.99 1410.58C2151.68 1394.62 2153.3 1366.41 2154.69 1348.14C2155.84 1329.65 2158.16 1306.75 2159.54 1297.27C2160.7 1287.56 2163.71 1274.61 2165.79 1268.37C2168.1 1261.89 2173.42 1251.72 2177.81 1245.7C2182.2 1239.46 2189.84 1231.83 2194.92 1228.36C2200.01 1224.89 2209.95 1220.96 2216.89 1219.34C2223.83 1217.95 2230.53 1216.57 2231.46 1216.34ZM1216.3 1285.71H1226.47C1235.72 1285.71 1236.42 1285.94 1235.26 1290.8C1234.8 1293.57 1233.18 1300.97 1231.79 1306.98C1230.64 1313 1227.86 1331.26 1226.01 1347.45C1223.93 1363.64 1221.62 1384.91 1220.69 1394.62C1219.31 1411.27 1218.84 1412.66 1213.29 1413.59C1210.06 1414.28 1207.28 1414.51 1207.05 1414.28C1206.82 1414.05 1207.97 1399.94 1209.82 1382.83C1211.67 1365.49 1213.99 1336.58 1214.91 1318.55L1216.3 1285.71ZM2500.16 1348.61C2502.71 1348.38 2508.26 1348.84 2512.88 1349.53C2520.51 1350.92 2520.98 1351.38 2519.82 1368.96L2448.14 1370.11V1350.46L2471.72 1349.76C2484.9 1349.53 2497.62 1348.84 2500.16 1348.61ZM2419.69 1363.18C2420.15 1365.72 2416.92 1385.61 2412.29 1407.11C2407.9 1428.85 2402.12 1454.29 2399.57 1463.77C2397.03 1473.25 2394.02 1485.27 2393.1 1490.36C2391.94 1496.14 2391.48 1485.73 2391.94 1463.77C2392.41 1442.95 2394.26 1421.68 2396.11 1412.89C2398.19 1404.57 2403.97 1389.07 2409.29 1378.21C2415.99 1364.79 2419.23 1360.17 2419.69 1363.18ZM1947.49 1375.89L1945.64 1384.45C1944.72 1389.31 1944.02 1398.09 1944.02 1415.21H1922.06L1914.42 1397.4C1910.26 1387.46 1906.79 1378.67 1906.79 1377.74C1907.02 1376.59 1916.04 1375.89 1947.49 1375.89ZM2517.05 1392.54C2517.28 1392.31 2517.05 1396.47 2516.58 1402.02C2515.89 1407.34 2515.2 1413.12 2515.2 1414.74C2515.2 1416.82 2505.95 1417.52 2438.89 1417.52L2439.81 1412.43C2440.27 1409.42 2441.43 1404.34 2443.51 1394.39L2479.82 1393.7C2499.93 1393.47 2516.58 1393.01 2517.05 1392.54ZM1719.49 1446.42C1755.1 1446.42 1761.34 1446.89 1761.34 1449.89C1761.34 1451.74 1760.65 1456.83 1757.87 1468.62L1680.41 1468.39V1462.15C1680.17 1458.45 1679.71 1453.59 1679.02 1451.05C1677.86 1446.65 1679.02 1446.42 1719.49 1446.42ZM2433.57 1446.42C2435.19 1447.12 2453.45 1447.58 2511.73 1447.58L2509.88 1466.77C2508.95 1477.18 2505.48 1504.47 2502.25 1527.36C2499.01 1550.25 2492.77 1596.04 2488.37 1629.11C2483.98 1662.17 2476.35 1714.67 2471.26 1745.88C2465.94 1777.1 2458.31 1826.59 2453.92 1855.72C2449.52 1885.09 2443.51 1923.48 2435.88 1973.66L2424.55 1973.2C2415.07 1972.5 2413.22 1971.81 2412.52 1967.42C2411.83 1964.41 2409.29 1944.98 2406.51 1923.94C2403.74 1902.9 2399.34 1869.6 2397.03 1849.94C2394.72 1830.29 2390.56 1799.99 2388.01 1782.88C2385.47 1765.77 2383.39 1745.65 2383.39 1725.07H2400.04C2411.14 1725.07 2418.54 1723.92 2422 1721.6C2425.24 1719.52 2427.32 1715.82 2427.32 1711.89C2427.32 1708.19 2425.94 1703.57 2424.32 1701.02C2422.7 1698.48 2417.38 1696.17 2411.14 1695.24C2401.42 1694.09 2400.73 1693.39 2399.34 1685.76C2398.65 1681.37 2396.34 1674.2 2394.02 1670.27C2391.94 1666.1 2389.4 1662.17 2388.47 1661.71C2387.55 1661.02 2387.55 1656.16 2388.47 1650.61C2389.4 1645.29 2390.09 1630.03 2390.09 1617.08C2390.32 1593.26 2390.32 1593.26 2397.49 1587.02C2401.42 1583.32 2406.28 1577.77 2407.9 1574.3C2410.21 1569.68 2410.44 1565.74 2408.82 1560.43C2407.67 1556.26 2404.43 1550.71 2401.89 1548.17C2397.49 1543.55 2397.49 1543.31 2401.65 1535.45C2403.97 1531.06 2407.9 1521.35 2414.6 1500.77H2435.42C2449.29 1500.77 2457.38 1499.84 2459.23 1497.99C2460.85 1496.37 2462.01 1492.44 2462.01 1489.2C2462.01 1485.97 2461.08 1482.27 2460.16 1480.88C2459.23 1479.49 2456.23 1477.18 2453.22 1475.79C2450.45 1474.17 2443.74 1473.02 2438.19 1473.02C2432.87 1473.25 2427.79 1472.79 2427.32 1472.09C2426.63 1471.4 2427.09 1465.15 2428.48 1458.22C2430.1 1449.2 2431.72 1445.5 2433.57 1446.42ZM1056.51 1449.89C1057.43 1449.89 1058.36 1450.59 1058.36 1451.74C1058.36 1452.67 1069.46 1454.29 1083.1 1455.44C1096.75 1456.6 1116.86 1457.75 1127.73 1457.99C1140.22 1458.45 1148.54 1457.75 1150.63 1456.14C1152.71 1454.29 1165.19 1453.59 1191.09 1454.05C1211.44 1454.29 1228.79 1455.44 1229.48 1456.37C1229.94 1457.52 1234.11 1458.22 1238.73 1458.22C1243.12 1458.45 1250.06 1458.45 1254.22 1458.68C1259.31 1459.14 1261.85 1460.3 1261.85 1462.61C1261.85 1465.39 1256.54 1466.31 1233.41 1467.47C1217.92 1468.16 1170.98 1468.39 1053.5 1467.24L1053.97 1458.68C1054.2 1453.82 1055.35 1449.89 1056.51 1449.89ZM1981.95 1452.44C1996.05 1452.44 2012.47 1453.13 2018.48 1454.05C2024.73 1454.98 2030.51 1457.29 2031.66 1459.14C2033.05 1461.45 2035.36 1462.15 2038.6 1460.99C2041.38 1459.84 2043.46 1460.07 2043.46 1461.45C2043.46 1462.84 2045.54 1463.77 2048.08 1463.77C2050.63 1463.77 2052.71 1464.92 2052.71 1466.08C2052.71 1467.7 2008.31 1467.93 1921.36 1467C1849.21 1466.08 1790.02 1465.39 1789.78 1465.15C1789.55 1465.15 1789.78 1462.84 1790.48 1460.3C1791.63 1455.9 1793.72 1455.67 1872.8 1454.98C1917.43 1454.75 1954.66 1454.05 1955.12 1453.36C1955.82 1452.67 1967.84 1452.2 1981.95 1452.44ZM2247.65 1491.98C2248.8 1494.98 2249.03 1503.77 2248.34 1511.87C2247.42 1519.73 2245.1 1530.36 2242.79 1535.45C2240.71 1540.54 2231.92 1552.56 2208.8 1579.16H2109.83C2013.63 1579.39 2010.62 1579.62 1997.67 1584.48C1988.88 1587.94 1980.56 1593.73 1972.7 1601.36C1966.45 1607.6 1959.05 1617.08 1956.51 1622.17C1953.04 1629.57 1952.12 1636.27 1952.12 1654.54C1952.12 1667.26 1954.43 1695.94 1957.2 1718.13C1960.21 1740.33 1965.07 1781.96 1968.3 1810.63C1971.54 1839.31 1976.17 1879.08 1983.34 1935.5L1975.24 1945.91C1970.62 1951.69 1966.45 1960.02 1964.84 1972.5H1791.4V1966.26C1791.17 1962.56 1789.32 1955.62 1786.78 1950.53C1784.47 1945.45 1777.76 1936.89 1771.75 1931.57C1765.97 1926.02 1755.33 1918.85 1747.93 1915.39C1740.76 1911.92 1734.29 1908.91 1734.05 1908.91C1733.59 1908.91 1738.91 1901.28 1745.62 1891.8C1752.32 1882.32 1767.12 1862.2 1778.68 1846.94C1790.02 1831.68 1804.81 1811.79 1811.29 1802.77C1817.76 1793.75 1835.34 1770.16 1850.14 1750.51C1864.71 1730.85 1880.66 1707.5 1885.29 1698.48C1890.37 1688.77 1894.54 1676.74 1895.69 1668.42C1896.85 1659.63 1896.62 1649.92 1895.23 1641.82C1893.84 1634.89 1890.14 1624.94 1887.37 1619.86C1884.36 1614.77 1878.35 1607.14 1874.19 1602.74C1870.03 1598.35 1859.62 1591.64 1836.5 1580.54L1682.72 1579.39V1497.3L1701.68 1499.15C1712.32 1500.07 1797.88 1500.77 2063.11 1500.77L2061.5 1507.01C2060.57 1510.71 2058.95 1519.03 2058.03 1525.51C2056.18 1537.53 2056.18 1537.53 2065.43 1546.55C2070.51 1551.41 2080.69 1557.65 2087.86 1560.43C2097.11 1563.9 2108.9 1565.98 2126.01 1566.9C2141.27 1567.83 2157.23 1567.36 2167.17 1565.75C2175.96 1564.36 2189.6 1560.2 2197.24 1556.5C2204.87 1553.03 2215.74 1545.4 2221.52 1539.85C2227.76 1533.37 2233.77 1524.35 2237.01 1516.26C2240.02 1509.09 2242.1 1500.07 2241.87 1496.6C2241.63 1492.9 2242.33 1489.2 2243.48 1488.28C2244.64 1487.35 2246.49 1489.2 2247.65 1491.98ZM2661.8 1513.48L2665.97 1527.36C2668.28 1534.99 2674.75 1564.13 2680.54 1592.11C2686.09 1620.09 2694.41 1659.17 2698.8 1678.82C2703.2 1698.48 2716.84 1759.06 2728.86 1813.64C2741.12 1867.98 2751.06 1913.54 2751.06 1914.69C2751.06 1916.08 2749.68 1917 2748.06 1917C2746.44 1917 2739.96 1918.39 2733.72 1920.24C2726.55 1922.32 2717.77 1927.41 2710.6 1933.89C2702.73 1940.82 2696.95 1948.68 2686.32 1972.5H2634.29L2636.14 1953.54C2637.06 1942.9 2640.99 1911.45 2644.69 1883.47C2648.39 1855.49 2653.71 1813.87 2656.49 1790.98C2659.03 1768.08 2661.57 1739.41 2661.57 1727.38C2662.04 1705.42 2661.8 1704.95 2651.17 1683.45C2645.39 1671.42 2639.84 1659.63 2639.14 1657.55C2638.22 1655.24 2639.37 1643.21 2641.22 1630.96C2643.07 1618.47 2646.54 1597.89 2649.09 1585.17C2651.4 1572.45 2655.33 1551.18 2657.64 1537.76L2661.8 1513.48ZM1676.24 1716.05C1682.26 1716.05 1687.34 1716.28 1687.34 1716.98C1687.34 1717.67 1682.49 1724.61 1676.94 1732.7C1671.16 1740.57 1659.59 1755.83 1651.27 1766.7C1642.94 1777.56 1625.6 1800.46 1612.65 1817.57C1599.93 1834.68 1586.75 1852.49 1583.28 1856.88C1579.81 1861.27 1567.33 1879.54 1555.53 1897.35C1543.51 1915.15 1533.33 1931.34 1532.87 1933.19C1532.41 1935.04 1533.8 1938.28 1535.88 1940.13C1538.88 1942.67 1548.6 1944.06 1573.8 1944.98C1592.3 1945.91 1610.11 1945.45 1613.34 1944.29C1618.2 1942.67 1620.28 1943.6 1627.22 1950.07C1631.61 1954.23 1639.48 1960.48 1644.56 1963.72C1649.65 1966.95 1655.89 1970.19 1658.44 1970.88C1660.98 1971.35 1626.99 1972.04 1503.5 1972.5L1505.12 1904.98C1506.05 1867.75 1506.97 1811.33 1506.97 1721.6L1539.81 1722.99C1557.85 1723.92 1580.51 1723.68 1590.22 1722.53C1599.7 1721.37 1616.35 1720.45 1627.22 1720.22C1637.86 1719.98 1651.04 1719.06 1656.12 1718.13C1661.21 1717.21 1670.23 1716.28 1676.24 1716.05ZM2117.46 1725.07H2236.55C2340.14 1725.07 2355.64 1725.53 2356.79 1728.54C2357.26 1730.39 2357.95 1733.4 2357.95 1735.02C2357.95 1737.1 2332.28 1737.79 2117.46 1737.79V1725.07ZM1256.3 1743.57C1262.09 1743.57 1266.25 1745.65 1272.26 1751.67C1276.65 1756.06 1279.89 1761.61 1279.66 1763.92C1279.2 1766.46 1276.89 1768.08 1272.03 1768.31C1268.33 1768.31 1257.23 1768.55 1247.52 1768.78C1235.03 1769.01 1228.56 1770.16 1226.01 1772.48C1224.16 1774.33 1222.54 1775.02 1222.54 1773.63C1222.54 1772.48 1223.47 1768.78 1224.86 1765.54C1226.01 1762.3 1232.02 1756.06 1237.8 1751.67C1245.2 1746.12 1251.22 1743.57 1256.3 1743.57ZM2356.1 1767.39C2357.02 1766.93 2358.18 1774.33 2359.11 1783.58C2359.8 1792.6 2361.88 1809.71 2363.73 1821.04C2365.58 1832.6 2370.67 1868.91 2375.06 1901.97C2379.69 1935.04 2383.62 1964.41 2384.54 1972.5H2109.36L2113.29 1892.26C2115.61 1847.86 2117.92 1802.08 2119.77 1769.01L2237.01 1768.55C2301.53 1768.08 2355.17 1767.62 2356.1 1767.39ZM1144.84 1845.78C1147.39 1846.24 1152.94 1851.1 1157.1 1856.88C1161.26 1862.66 1164.5 1867.52 1164.04 1867.75C1163.81 1867.98 1156.64 1866.82 1148.54 1865.44C1136.29 1863.12 1133.28 1861.74 1132.82 1858.04C1132.36 1855.49 1133.75 1851.56 1136.06 1849.25C1138.37 1846.94 1142.07 1845.55 1144.84 1845.78Z" fill="white"/>
<path fill-rule="evenodd" clip-rule="evenodd" d="M1580.97 310.094C1583.51 310.094 1591.15 313.562 1597.85 317.725C1604.33 321.887 1612.88 328.362 1616.35 332.293C1619.82 335.993 1625.83 345.243 1629.3 352.874C1633.23 360.736 1637.63 375.767 1639.48 387.56C1641.33 398.891 1643.41 412.072 1645.26 424.559L1523.16 425.716L1524.08 400.741C1524.55 387.098 1526.4 371.836 1528.25 366.748C1530.1 361.661 1534.26 353.105 1537.73 347.555C1541.2 342.237 1551.37 332.293 1560.16 325.818C1569.18 319.112 1576.58 312.869 1576.35 311.944C1576.35 310.787 1578.43 310.094 1580.97 310.094ZM2171.8 426.641C2194.69 426.641 2203.48 427.103 2191.45 427.334C2179.43 427.797 2160.7 427.797 2149.83 427.334C2138.96 427.103 2148.91 426.641 2171.8 426.641ZM1592.53 453.927C1635.08 454.159 1663.06 454.621 1654.51 455.084C1645.72 455.546 1638.78 456.702 1638.78 458.09C1638.78 459.477 1639.24 462.021 1639.94 463.871C1640.63 465.721 1643.87 467.34 1647.34 467.34C1651.04 467.34 1661.67 468.727 1671.16 470.577C1680.64 472.196 1695.67 475.433 1704.69 477.745C1713.7 480.058 1726.65 484.683 1733.59 488.383C1740.53 491.851 1749.55 496.939 1753.25 499.482C1756.95 502.026 1760.88 503.645 1761.8 502.951C1762.96 502.489 1770.59 508.732 1779.15 516.826C1789.78 526.769 1798.57 538.1 1806.66 551.975C1813.14 563.306 1821 579.724 1824.47 588.743C1827.94 597.761 1832.79 614.411 1835.11 625.742C1837.65 637.072 1839.04 647.016 1838.58 647.71C1837.88 648.403 1714.4 648.866 1564.09 649.097C1413.78 649.097 1300.7 648.635 1312.73 647.71C1333.54 646.322 1333.77 646.322 1303.48 645.397L1304.87 636.841C1305.56 631.985 1309.03 621.348 1312.27 613.023C1315.5 604.698 1322.9 590.13 1328.45 580.649C1334 571.168 1343.48 557.293 1349.5 549.894C1355.28 542.494 1370.54 528.157 1383.26 518.213C1396.21 508.038 1416.09 495.32 1428.35 489.308C1440.37 483.295 1458.64 475.896 1468.82 473.121C1478.99 470.114 1491.71 467.108 1497.26 466.415C1503.5 465.49 1507.44 463.64 1508.59 461.096C1509.28 458.784 1511.13 456.24 1512.52 455.315C1513.91 454.39 1549.98 453.696 1592.53 453.927ZM1934.77 454.621C2032.13 454.621 2071.67 454.852 2022.65 455.084C1973.62 455.546 1894.07 455.546 1845.74 455.084C1797.41 454.852 1837.42 454.621 1934.77 454.621ZM1170.98 513.588C1171.44 533.244 1171.44 566.543 1170.98 587.586C1170.74 608.629 1170.28 592.442 1170.28 551.744C1170.28 511.045 1170.74 493.933 1170.98 513.588ZM1630.69 678.696C1661.21 678.696 1674.16 679.159 1659.59 679.39C1645.02 679.853 1620.05 679.853 1604.09 679.39C1588.14 679.159 1600.16 678.696 1630.69 678.696ZM1779.84 678.696C1817.3 678.696 1832.56 679.159 1813.37 679.39C1794.18 679.853 1763.65 679.853 1745.15 679.39C1726.65 679.159 1742.38 678.696 1779.84 678.696ZM2473.8 847.042C2474.96 849.586 2477.04 850.51 2478.66 849.586C2480.51 848.352 2481.05 848.892 2480.28 851.204C2479.58 853.285 2482.82 858.142 2488.37 863.46C2493.69 868.085 2499.01 872.016 2500.16 872.016C2501.32 872.016 2507.1 878.953 2512.88 887.278C2518.66 895.834 2526.53 905.547 2537.16 915.028L2526.06 922.427C2515.2 929.827 2515.2 929.827 2511.03 925.202C2508.95 922.659 2503.4 919.884 2499.01 918.959C2492.3 917.802 2489.99 918.496 2485.13 923.583C2480.05 928.902 2478.43 929.365 2471.26 927.515C2466.87 926.358 2460.62 923.352 2457.38 920.809C2454.15 918.265 2452.99 916.184 2454.38 915.953C2456 915.953 2456.69 914.565 2456 913.178C2455.07 911.559 2454.38 906.934 2454.61 903.234C2454.61 899.534 2458.54 884.272 2463.17 869.704C2469.64 849.354 2472.18 844.036 2473.8 847.042ZM1277.35 1109.04C1277.81 1121.76 1277.81 1143.03 1277.35 1156.45C1277.12 1169.86 1276.65 1159.45 1276.65 1133.32C1276.65 1107.19 1277.12 1096.32 1277.35 1109.04ZM698.775 1103.26H726.525C741.787 1103.26 761.443 1104.42 770.461 1105.57C779.248 1106.96 797.517 1110.66 810.929 1113.9C824.341 1117.37 839.603 1122.22 854.865 1129.85V1972.74L698.775 1972.04V1103.26ZM1499.8 1195.76C1501.19 1195.76 1502.35 1196.91 1502.35 1198.07C1502.35 1199.46 1518.53 1200.61 1544.43 1201.08C1581.2 1201.77 1588.37 1202.46 1599.47 1206.86C1606.41 1209.63 1616.81 1215.88 1622.36 1220.5C1627.91 1225.36 1634.85 1234.14 1637.63 1239.69C1640.63 1245.47 1644.56 1258.42 1646.64 1268.6C1648.72 1278.77 1654.97 1313.69 1660.52 1346.07C1666.3 1378.67 1672.08 1413.59 1673.93 1424.23C1676.71 1442.03 1677.4 1443.42 1682.72 1443.65C1688.04 1443.88 1688.04 1443.88 1683.18 1444.81C1678.56 1445.5 1678.09 1446.66 1679.25 1467.47L1660.75 1466.78C1650.57 1466.54 1633.93 1465.16 1623.75 1464C1613.58 1462.61 1596.46 1459.84 1585.6 1457.76C1574.73 1455.91 1564.78 1453.36 1563.63 1452.21C1562.24 1451.05 1559.46 1450.13 1557.15 1450.13C1554.84 1450.13 1551.83 1453.59 1549.52 1458.91C1546.52 1466.31 1546.28 1468.39 1549.06 1473.94C1550.68 1477.64 1555.07 1481.34 1559 1482.73C1562.7 1483.89 1581.43 1487.12 1600.63 1489.67C1619.59 1492.21 1640.17 1494.06 1657.28 1494.06V1581.93L1526.63 1580.78L1525.01 1548.4C1524.08 1530.6 1522.23 1500.31 1520.85 1480.88C1519.46 1460.53 1517.15 1442.96 1515.3 1439.26C1513.68 1435.79 1508.13 1429.31 1494.25 1417.52L1439.91 1418.91L1441.07 1400.41C1441.76 1390.23 1442.92 1377.75 1443.61 1372.66C1444.31 1367.11 1448.47 1358.32 1454.02 1350.69C1459.57 1343.29 1463.04 1335.43 1463.04 1331.73C1463.04 1326.87 1461.19 1324.33 1456.1 1321.79C1452.17 1319.94 1447.08 1318.32 1444.54 1318.32C1441.99 1318.32 1436.21 1321.79 1431.59 1325.95C1425.57 1331.5 1422.11 1337.28 1418.87 1348.38C1416.56 1356.7 1413.55 1374.51 1412.16 1387.69C1410.78 1401.1 1409.85 1413.36 1409.85 1414.98C1409.85 1417.06 1404.53 1417.75 1372.85 1417.75L1371.23 1406.88C1370.08 1400.87 1369.38 1382.37 1369.38 1365.72C1369.61 1338.9 1370.31 1334.04 1375.63 1319.47C1379.09 1310.69 1384.41 1298.43 1387.65 1292.42C1391.12 1286.41 1394.59 1281.32 1395.98 1281.32C1397.13 1281.32 1400.6 1279.01 1403.61 1276.23C1406.61 1273.22 1413.32 1267.44 1418.87 1262.82C1424.19 1258.42 1435.06 1249.17 1442.92 1242.01C1450.55 1235.07 1458.64 1227.44 1460.49 1225.13C1462.57 1222.81 1464.42 1218.65 1464.89 1215.88C1465.35 1213.1 1466.74 1209.63 1468.12 1208.01C1469.51 1206.39 1472.75 1205.01 1475.52 1205.01C1479.45 1205.01 1479.69 1204.54 1476.91 1202.69C1474.37 1200.84 1476.22 1200.61 1483.85 1201.54C1491.71 1202.46 1493.1 1202.23 1489.63 1200.38C1485.93 1198.53 1486.39 1198.3 1492.4 1199.23C1497.26 1199.92 1499.57 1199.69 1498.65 1198.07C1497.95 1196.91 1498.42 1195.76 1499.8 1195.76ZM2281.41 1224.66C2315.4 1225.82 2330.2 1227.44 2340.61 1230.68C2349.62 1233.45 2359.11 1239 2367.89 1245.94C2375.06 1252.18 2384.77 1262.36 2389.4 1268.6C2393.79 1275.07 2399.8 1288.02 2402.81 1297.5C2405.82 1307.22 2408.82 1318.09 2409.52 1321.79C2410.67 1327.57 2409.29 1330.34 2401.65 1338.67C2396.8 1343.98 2391.48 1348.38 2390.32 1348.38C2388.94 1348.38 2388.01 1350.46 2388.01 1353C2388.01 1355.55 2386.86 1357.63 2385.7 1357.63C2384.31 1357.63 2383.85 1358.78 2384.54 1359.94C2385.24 1361.33 2384.08 1362.95 2382.23 1363.41C2380.38 1364.1 2379.22 1365.72 2379.92 1366.88C2380.61 1368.27 2380.61 1370.81 2379.92 1372.66C2379.22 1374.74 2377.61 1375.43 2375.99 1374.51C2373.91 1373.12 2373.91 1374.28 2375.29 1378.44C2376.68 1382.83 2376.68 1383.76 2374.6 1382.6C2372.75 1381.45 2372.06 1382.14 2372.29 1384.91C2372.75 1387 2372.06 1393.24 2371.13 1398.79C2370.21 1404.11 2368.82 1408.5 2367.66 1408.5C2366.74 1408.5 2365.81 1414.98 2365.35 1423.07C2364.89 1430.93 2363.96 1437.64 2363.04 1438.1C2362.11 1438.33 2361.65 1469.32 2361.88 1506.78C2362.34 1559.74 2361.88 1574.77 2359.8 1573.38C2357.72 1571.99 2357.49 1573.15 2360.03 1583.09L2286.5 1581.93C2245.8 1581.47 2211.8 1580.08 2210.65 1579.16C2209.72 1578.23 2215.5 1570.6 2223.6 1561.82C2231.69 1553.26 2240.25 1541.93 2242.56 1536.84C2244.87 1531.75 2247.41 1522.51 2248.34 1516.03C2249.03 1509.79 2249.26 1500.54 2248.34 1495.91C2247.41 1489.9 2246.03 1487.82 2244.18 1488.97C2242.1 1490.13 2241.87 1487.12 2243.25 1476.72C2244.18 1469.09 2247.65 1448.28 2250.65 1430.47C2253.89 1412.66 2257.59 1391.62 2259.21 1383.76C2261.06 1374.2 2261.21 1368.65 2259.67 1367.11C2258.28 1365.72 2253.66 1364.1 2249.26 1363.18C2243.87 1362.25 2240.02 1362.87 2237.7 1365.03C2235.62 1366.88 2231.92 1379.6 2228.92 1395.78C2225.91 1411.05 2221.98 1431.39 2220.13 1440.88C2218.05 1450.59 2215.97 1459.84 2215.27 1461.69C2214.58 1463.77 2213.65 1470.48 2213.19 1476.72C2212.73 1483.19 2211.11 1488.51 2209.95 1488.97C2208.57 1489.21 2208.33 1492.21 2209.26 1495.91C2210.65 1501 2210.18 1501.69 2207.64 1499.84C2205.1 1497.99 2204.87 1498.69 2206.02 1502.85C2207.18 1506.78 2205.79 1510.02 2198.85 1517.19C2194 1522.51 2185.21 1528.29 2178.04 1531.06C2170.18 1534.07 2163.94 1535.22 2159.54 1534.07C2154.92 1532.91 2153.76 1533.14 2154.92 1535.22C2156.31 1537.3 2153.53 1538 2143.82 1537.54C2134.11 1537.07 2130.17 1535.69 2127.4 1532.22C2125.55 1529.67 2121.85 1523.2 2119.54 1517.88C2117.22 1512.33 2115.14 1506.78 2115.14 1505.16C2115.14 1503.31 2121.16 1501 2129.48 1499.38C2137.57 1497.76 2145.44 1494.99 2147.29 1493.6C2148.91 1491.98 2151.91 1487.82 2153.53 1484.35C2155.38 1480.88 2157.69 1465.16 2159.08 1449.66C2160.24 1433.94 2163.94 1391.62 2167.17 1355.32C2170.41 1316.93 2174.34 1284.09 2176.65 1276.69C2178.74 1269.76 2182.9 1260.04 2185.9 1255.42C2188.91 1250.56 2194.92 1244.09 2198.85 1241.08C2203.02 1237.84 2212.27 1233.22 2219.2 1230.68C2226.14 1228.13 2232.62 1226.98 2233.77 1227.67C2234.7 1228.59 2235.62 1227.9 2235.85 1226.05C2236.08 1223.51 2243.48 1223.28 2281.41 1224.66ZM2774.65 1243.16C2776.04 1244.09 2776.96 1248.48 2776.73 1253.11C2776.73 1257.96 2777.66 1265.82 2778.81 1270.91C2779.97 1276 2786.68 1317.16 2793.61 1362.25C2800.78 1407.58 2809.11 1460.53 2812.34 1480.19C2815.35 1500.07 2821.82 1538.92 2826.68 1566.9C2832.46 1601.36 2834.54 1620.09 2833.39 1624.71C2832.23 1628.65 2825.99 1637.2 2819.05 1643.91C2810.96 1651.54 2800.09 1658.94 2788.53 1664.26C2778.81 1668.88 2761.7 1675.82 2750.37 1679.29C2739.27 1682.99 2729.1 1685.53 2727.94 1684.84C2726.55 1684.38 2725.63 1681.37 2725.63 1678.59C2725.63 1675.59 2721.93 1656.16 2717.3 1635.12C2712.68 1614.31 2706.2 1580.32 2696.26 1522.97L2702.97 1513.72C2706.67 1508.63 2710.6 1501.23 2711.75 1497.07C2713.6 1491.29 2713.14 1487.59 2709.9 1480.88C2706.9 1473.94 2704.35 1472.09 2699.03 1471.4C2695.1 1470.94 2690.94 1472.09 2689.32 1473.71C2687.7 1475.33 2685.39 1482.04 2684.23 1488.28C2682.85 1494.76 2681.23 1500.54 2680.53 1501C2679.84 1501.69 2675.68 1497.99 2671.28 1492.91C2666.89 1487.82 2663.65 1482.27 2664.35 1480.19C2664.81 1478.34 2668.05 1455.91 2671.28 1430.47C2674.52 1405.03 2677.07 1381.45 2677.07 1377.98C2677.07 1374.51 2675.45 1370.12 2673.6 1368.03C2671.75 1366.18 2666.89 1364.57 2663.19 1364.57C2657.87 1364.57 2655.79 1365.95 2653.71 1371.04C2652.32 1374.51 2649.32 1393.01 2646.77 1411.97C2644.23 1431.16 2639.6 1465.39 2636.37 1488.28C2633.36 1511.17 2628.5 1543.55 2625.96 1559.97C2623.42 1576.62 2619.26 1601.59 2616.71 1615.46C2614.17 1629.57 2611.62 1646.22 2610.93 1652.46C2609.54 1663.56 2610.24 1664.95 2634.29 1700.56L2634.05 1727.39C2634.05 1742.19 2631.05 1776.18 2627.58 1802.77C2624.34 1829.6 2620.41 1860.35 2619.26 1870.99C2617.87 1881.86 2614.63 1907.99 2612.32 1928.8C2609.77 1949.84 2607.69 1968.34 2607.69 1969.96C2607.69 1972.27 2591.51 1972.74 2534.85 1972.74C2466.4 1972.74 2462.01 1972.51 2463.4 1968.81C2464.09 1966.49 2465.71 1959.09 2466.87 1951.92C2468.02 1944.99 2474.03 1903.83 2480.51 1860.58C2486.98 1817.34 2495.77 1759.07 2500.16 1731.09C2504.56 1703.11 2511.26 1655.93 2515.2 1625.87C2519.13 1596.04 2523.75 1560.2 2525.6 1546.09C2527.45 1532.22 2530.46 1508.86 2532.54 1494.06C2534.39 1479.49 2539.24 1443.19 2542.94 1413.13C2546.88 1383.3 2549.88 1356.01 2549.88 1352.54C2549.88 1349.07 2550.58 1346.07 2551.5 1346.07C2552.66 1346.07 2561.21 1347.68 2570.69 1349.77C2585.03 1352.77 2591.04 1352.77 2605.38 1350.46C2614.86 1349.07 2631.05 1345.14 2641.22 1341.67C2651.4 1338.2 2668.05 1331.04 2678.22 1325.72C2688.4 1320.4 2705.51 1309.53 2716.38 1301.44C2727.25 1293.34 2744.13 1278.31 2753.84 1267.91C2763.78 1257.5 2771.88 1247.32 2772.11 1245.47C2772.34 1243.39 2773.49 1242.47 2774.65 1243.16ZM1254.45 1286.64C1264.63 1286.64 1272.95 1287.33 1273.19 1288.02C1273.42 1288.95 1272.03 1298.43 1270.18 1309.07C1268.33 1319.94 1265.79 1342.37 1264.4 1358.78C1263.01 1375.43 1261.16 1394.86 1259.54 1415.44L1234.57 1415.21C1220.92 1414.98 1211.91 1414.51 1214.45 1414.05C1218.38 1413.13 1219.31 1410.58 1220.69 1395.09C1221.62 1385.38 1223.93 1364.1 1225.78 1347.92C1227.86 1331.73 1230.64 1313.46 1231.79 1307.45C1233.18 1301.44 1234.57 1294.27 1235.03 1291.49C1235.95 1286.87 1237.34 1286.64 1254.45 1286.64ZM2485.13 1370.12C2504.79 1370.12 2513.11 1370.58 2503.63 1371.04C2494.15 1371.5 2477.97 1371.5 2467.79 1371.04C2457.62 1370.58 2465.48 1370.12 2485.13 1370.12ZM1087.26 1414.28C1117.79 1414.28 1130.74 1414.51 1116.17 1414.98C1101.6 1415.21 1076.63 1415.21 1060.67 1414.98C1044.72 1414.51 1056.74 1414.28 1087.26 1414.28ZM1107.61 1445.04C1137.21 1445.96 1203.12 1446.66 1347.18 1446.66L1348.57 1454.75C1349.5 1459.84 1349.26 1463.08 1347.65 1463.54C1346.26 1463.77 1345.56 1464.93 1346.03 1465.85C1346.49 1466.78 1321.28 1467.47 1290.07 1467.47C1258.62 1467.47 1239.42 1467.24 1247.29 1467.01C1258.39 1466.54 1261.85 1465.62 1261.85 1462.84C1261.85 1460.53 1259.31 1459.38 1254.22 1459.14C1250.29 1458.91 1243.12 1458.68 1238.73 1458.68C1234.34 1458.45 1230.17 1457.76 1229.48 1456.6C1228.79 1455.68 1211.67 1454.52 1191.09 1454.29C1165.19 1453.83 1152.94 1454.52 1150.63 1456.37C1148.54 1457.99 1140.22 1458.91 1127.73 1458.45C1116.86 1457.99 1097.21 1456.83 1083.8 1455.91C1067.15 1454.52 1058.36 1452.9 1055.58 1450.36C1053.5 1448.28 1052.12 1445.96 1052.81 1445.04C1053.5 1444.11 1078.02 1444.11 1107.61 1445.04ZM1794.64 1445.5C1796.26 1447.12 1847.36 1447.58 1940.55 1446.89C2019.41 1446.43 2084.85 1445.73 2086.24 1445.5C2087.39 1445.27 2089.48 1445.27 2090.86 1445.5C2092.02 1445.73 2100.11 1445.73 2108.67 1445.73C2122.31 1445.5 2124.39 1446.19 2124.16 1449.66C2124.16 1451.74 2123.7 1452.44 2123.01 1450.82C2122.54 1449.2 2119.77 1447.81 2116.76 1447.81C2112.37 1447.58 2112.14 1448.28 2114.45 1451.28C2116.99 1454.06 2116.76 1455.68 2113.76 1458.91C2110.75 1462.15 2110.75 1463.31 2113.29 1464.69C2115.37 1465.85 2114.91 1466.31 2111.68 1466.31C2109.13 1466.31 2103.58 1463.77 2099.42 1460.53C2095.49 1457.29 2092.25 1453.59 2092.48 1451.98C2092.94 1450.59 2091.09 1448.97 2088.55 1448.51C2086.01 1447.81 2081.61 1448.04 2078.61 1448.74C2075.83 1449.66 2073.98 1451.28 2074.68 1452.44C2075.37 1453.83 2074.68 1455.44 2073.52 1455.91C2072.13 1456.6 2071.21 1455.91 2071.21 1454.29C2071.21 1452.67 2068.2 1454.52 2064.5 1458.22C2059.18 1464 2058.72 1465.39 2061.73 1466.54C2064.96 1467.7 2064.96 1468.16 2061.26 1469.55C2058.95 1470.24 2055.95 1469.55 2053.86 1467.47C2052.01 1465.62 2048.78 1464 2046.93 1464C2045.08 1464 2043.46 1463.08 2043.46 1461.69C2043.46 1460.53 2041.38 1460.07 2038.83 1460.53C2036.29 1461.23 2032.82 1460.3 2031.2 1458.68C2029.81 1457.06 2020.56 1454.75 2011.08 1453.83C2001.6 1452.9 1977.09 1452.67 1956.74 1453.59C1936.39 1454.52 1890.84 1455.21 1855.69 1455.44C1800.88 1455.91 1791.4 1456.37 1790.48 1459.38C1790.01 1461.46 1789.32 1459.14 1788.86 1454.52C1788.63 1450.13 1789.09 1445.73 1790.25 1444.81C1791.17 1443.88 1793.25 1444.34 1794.64 1445.5ZM1412.16 1445.5V1476.26C1412.16 1493.14 1411.47 1517.19 1409.16 1553.03L1404.99 1544.94C1402.68 1540.54 1398.06 1528.52 1395.05 1518.34C1391.81 1508.17 1386.96 1489.44 1384.41 1476.72C1381.87 1464 1379.79 1451.74 1379.79 1449.66C1379.79 1446.19 1382.1 1445.5 1412.16 1445.5ZM2473.57 1446.43C2495.77 1446.43 2504.56 1446.89 2493.23 1447.35C2481.66 1447.81 2463.63 1447.81 2452.76 1447.35C2441.89 1446.89 2451.37 1446.43 2473.57 1446.43ZM1876.96 1467.47C1925.99 1467.47 1945.64 1467.7 1920.9 1468.16C1896.16 1468.39 1855.92 1468.39 1831.87 1468.16C1807.59 1467.7 1827.94 1467.47 1876.96 1467.47ZM1127.73 1499.84C1181.84 1499.84 1203.58 1500.07 1176.29 1500.54C1149.01 1500.77 1104.61 1500.77 1078.02 1500.54C1051.19 1500.07 1073.62 1499.84 1127.73 1499.84ZM1301.17 1499.84C1331 1499.84 1343.02 1500.07 1327.76 1500.54C1312.5 1500.77 1287.98 1500.77 1273.42 1500.54C1258.85 1500.07 1271.34 1499.84 1301.17 1499.84ZM1790.25 1499.84C1836.03 1499.84 1855.23 1500.07 1833.03 1500.54C1810.83 1500.77 1773.37 1500.77 1749.78 1500.54C1726.19 1500.07 1744.46 1499.84 1790.25 1499.84ZM2011.08 1499.84C2039.76 1499.84 2051.09 1500.07 2036.52 1500.54C2021.95 1500.77 1998.37 1500.77 1984.49 1500.54C1970.38 1500.07 1982.41 1499.84 2011.08 1499.84ZM1774.06 1607.83L1800.65 1608.99C1815.22 1609.68 1831.87 1611.53 1837.65 1613.38C1843.43 1615.23 1850.37 1618.24 1853.14 1620.09C1856.15 1621.94 1860.54 1627.72 1863.09 1632.81C1865.63 1638.13 1867.71 1646.68 1867.71 1652.46C1867.71 1658.25 1865.4 1668.88 1862.86 1676.28C1860.08 1683.45 1852.45 1697.79 1845.74 1707.96C1839.04 1718.14 1824.93 1738.02 1814.76 1751.9C1804.35 1766 1786.78 1789.36 1775.68 1803.93C1764.58 1818.5 1744.92 1845.32 1731.74 1863.59C1718.79 1881.63 1707.46 1896.89 1706.3 1897.35C1705.38 1897.81 1691.04 1889.95 1674.39 1879.55C1657.74 1869.14 1640.17 1856.88 1626.06 1844.17L1632.77 1836.07C1636.24 1831.91 1649.88 1814.33 1662.83 1797.45C1675.55 1780.57 1693.82 1756.06 1703.07 1743.11C1712.32 1730.16 1725.27 1711.89 1731.74 1702.18C1738.22 1692.7 1747.23 1680.21 1751.86 1674.43C1756.48 1668.88 1767.58 1655.24 1776.6 1644.37C1789.78 1628.88 1792.79 1624.02 1791.17 1620.78C1790.01 1618.47 1785.62 1614.77 1781.46 1612.23L1774.06 1607.83ZM2362.57 1607.6L2362.81 1659.63L2348.24 1662.64C2340.37 1664.49 2307.08 1672.58 2214.58 1695.48H2068.89L2063.11 1701.26C2058.95 1705.42 2057.8 1708.42 2058.95 1712.12C2059.88 1714.9 2062.65 1719.06 2065.43 1721.37C2068.2 1723.69 2074.21 1725.31 2090.86 1725.54L2090.4 1750.28C2090.17 1763.92 2088.78 1800.23 2087.63 1830.75C2086.24 1861.28 2084.85 1896.66 2083.93 1933.19L2056.18 1934.81C2040.91 1935.51 2024.26 1935.97 2019.18 1935.51C2010.62 1934.81 2009.93 1934.35 2009.47 1926.72C2009 1922.09 2006.23 1895.04 2003.22 1866.6C1999.98 1837.92 1995.36 1794.22 1992.58 1769.47C1990.04 1744.5 1985.65 1710.74 1983.1 1694.32C1980.56 1677.67 1978.71 1657.78 1979.17 1650.15C1979.87 1639.28 1981.48 1634.2 1986.34 1627.49C1989.81 1622.86 1996.05 1617.31 2000.22 1615C2006.92 1611.3 2018.25 1610.84 2105.89 1609.92C2160 1609.22 2240.02 1608.3 2362.57 1607.6ZM1478.76 1784.5C1479.22 1818.73 1479.22 1875.38 1478.76 1910.53C1478.3 1945.45 1478.07 1917.24 1478.07 1848.1C1478.07 1778.72 1478.3 1750.05 1478.76 1784.5ZM1506.51 1770.63C1506.97 1790.98 1506.97 1824.74 1506.51 1845.78C1506.05 1866.6 1505.82 1849.95 1505.82 1808.78C1505.82 1767.39 1506.05 1750.28 1506.51 1770.63ZM2243.48 1738.02C2290.66 1738.02 2310.31 1738.26 2287.42 1738.72C2264.53 1739.18 2226.14 1739.18 2201.86 1738.72C2177.81 1738.26 2196.54 1738.02 2243.48 1738.02ZM1282.43 1774.1C1282.67 1781.96 1281.51 1790.52 1278.97 1797.22C1276.88 1802.77 1273.19 1810.87 1270.87 1815.03C1268.56 1819.19 1265.55 1822.66 1264.17 1822.66C1263.01 1822.66 1262.55 1823.58 1263.01 1824.97C1263.7 1826.13 1263.47 1827.28 1262.55 1827.28C1261.62 1827.28 1260.47 1830.06 1259.77 1833.53C1259.31 1837 1258.85 1847.63 1258.62 1857.35C1258.62 1871.45 1259.54 1876.77 1264.63 1887.41C1268.1 1894.34 1270.41 1902.44 1269.95 1905.21C1269.25 1908.68 1267.87 1909.84 1266.25 1908.68C1264.17 1907.53 1263.94 1908.45 1265.32 1912.84C1267.17 1917.47 1266.94 1918.16 1264.17 1916.31C1261.62 1914.46 1261.39 1914.93 1263.01 1919.78C1264.86 1924.41 1264.63 1925.1 1261.85 1923.25C1259.31 1921.4 1259.08 1921.86 1260.7 1926.72C1262.55 1931.34 1262.32 1932.04 1259.54 1930.19C1257 1928.34 1256.77 1928.8 1258.39 1933.66C1260.24 1938.28 1260 1938.97 1257.23 1937.13C1254.92 1935.28 1254.45 1935.74 1255.84 1939.9C1256.77 1942.91 1256.3 1945.22 1254.92 1945.22C1253.76 1945.22 1253.3 1946.61 1253.76 1948.69C1254.45 1950.54 1253.99 1952.16 1252.6 1952.16C1251.45 1952.16 1250.99 1953.54 1251.45 1955.62C1252.14 1957.47 1251.91 1958.86 1250.99 1958.86C1250.06 1958.86 1247.98 1961.41 1246.36 1964.64C1243.82 1969.96 1242.2 1970.42 1220.23 1969.5L1220.46 1870.06C1220.69 1815.26 1221.16 1771.79 1221.62 1773.4C1222.31 1775.72 1223.47 1775.49 1226.24 1772.94C1228.79 1770.4 1235.26 1769.24 1247.75 1769.24C1257.46 1769.01 1268.56 1768.78 1272.26 1768.55C1275.96 1768.32 1279.43 1766.7 1280.35 1764.85C1281.05 1762.77 1281.97 1766.93 1282.43 1774.1ZM2309.39 1768.09C2334.36 1768.09 2344.07 1768.32 2331.36 1768.78C2318.64 1769.24 2298.52 1769.24 2286.26 1768.78C2274.24 1768.32 2284.65 1768.09 2309.39 1768.09ZM1131.66 1862.66L1146.46 1865.21C1156.64 1867.06 1163.81 1869.83 1168.89 1874C1173.06 1877.46 1179.07 1880.47 1182.07 1880.47C1186.24 1880.47 1188.78 1882.09 1190.17 1886.25C1191.56 1889.26 1192.48 1897.81 1192.48 1905.21C1192.48 1912.61 1191.79 1919.78 1190.86 1921.17C1189.94 1922.56 1183.69 1924.41 1164.73 1926.72L1151.78 1914.46C1144.61 1907.76 1137.44 1898.97 1135.59 1894.81C1133.98 1890.65 1132.36 1881.86 1132.13 1874.92L1131.66 1862.66ZM1608.26 1869.14C1608.49 1868.91 1619.59 1876.08 1632.54 1884.63C1645.49 1893.42 1662.14 1904.06 1669.54 1908.45C1676.94 1912.84 1682.95 1917.01 1682.95 1918.16C1682.72 1919.09 1680.17 1923.94 1676.94 1929.03C1671.85 1937.36 1670.69 1938.05 1666.07 1935.74C1663.29 1934.12 1653.58 1928.11 1644.56 1922.09C1635.78 1916.31 1623.75 1908.91 1617.97 1905.91C1612.42 1902.9 1604.33 1898.51 1592.53 1892.03L1600.16 1880.7C1604.33 1874.23 1608.03 1869.14 1608.26 1869.14ZM1175.14 1952.16C1177.22 1952.16 1178.61 1953.77 1178.61 1955.62C1178.61 1957.47 1177.45 1959.09 1175.83 1959.09C1173.52 1958.86 1173.52 1959.56 1175.83 1962.56C1177.45 1964.41 1180.69 1965.57 1183.23 1964.87C1186.31 1964.1 1187.86 1964.87 1187.86 1967.19C1187.86 1969.73 1185.54 1970.66 1179.76 1970.66C1171.9 1970.66 1171.67 1970.42 1171.67 1961.41C1171.67 1954.7 1172.83 1952.16 1175.14 1952.16Z" fill="#DFDFEE"/>
<path d="M1956.74 660.891C1956.74 660.659 1990.5 659.966 2031.9 659.272C2073.29 658.578 2115.14 657.653 2124.86 657.422C2141.27 656.96 2143.36 657.422 2148.67 662.741C2151.91 665.978 2154.46 671.065 2154.46 674.303C2154.46 677.54 2151.91 682.628 2143.12 691.646H2055.02C2001.83 691.646 1964.84 690.721 1961.37 689.334C1958.13 687.946 1954.43 684.709 1953.04 681.703C1950.96 677.772 1950.96 674.765 1953.5 668.984C1955.35 664.822 1956.74 661.122 1956.74 660.891Z" fill="#2929CF"/>
<path d="M1686.65 781.6C1688.96 779.519 1692.2 777.438 1693.82 776.975C1695.2 776.513 1798.34 776.281 2148.67 777.206L2154.22 782.294C2157.92 786.225 2159.31 789.231 2158.39 793.393C2157.69 796.631 2154.92 801.718 2147.98 810.737H1693.82L1688.27 804.493C1685.26 800.793 1682.72 795.243 1682.72 791.775C1682.49 788.075 1684.34 783.681 1686.65 781.6Z" fill="#2929CF"/>
<path d="M1313.88 798.712C1317.58 794.318 1324.98 789.231 1330.07 787.612C1335.85 785.3 1343.25 784.606 1349.73 785.531C1355.51 786.225 1363.83 789 1368.23 791.312C1372.62 793.856 1378.63 799.174 1381.64 803.337C1384.41 807.499 1387.42 815.362 1388.34 821.143C1389.04 827.155 1388.58 833.861 1386.96 836.636C1384.88 841.261 1385.34 843.111 1391.58 850.511C1395.51 855.367 1402.91 865.31 1407.77 872.71C1412.86 879.879 1416.56 886.122 1416.09 886.585C1415.86 886.816 1412.16 889.36 1408 892.366C1404.07 895.141 1399.44 897.453 1398.29 897.453C1396.9 897.453 1390.43 890.516 1383.49 881.96C1376.78 873.173 1369.38 864.848 1367.3 863.46C1364.3 860.917 1362.21 861.379 1354.81 866.235C1349.96 869.704 1343.02 872.016 1338.63 872.016C1334.7 872.016 1327.76 870.629 1323.6 869.01C1319.67 867.391 1313.42 862.304 1309.95 857.91C1306.48 853.517 1303.02 845.423 1302.09 839.642C1301.17 832.936 1301.63 825.074 1303.71 817.905C1305.56 811.662 1310.18 802.874 1313.88 798.712Z" fill="#2929CF"/>
<path d="M1682.49 901.847C1682.49 898.609 1684.57 893.753 1687.34 890.978C1691.97 885.891 1693.12 885.891 1764.35 885.891C1833.49 885.891 1836.73 885.891 1841.58 890.516C1844.59 893.059 1846.9 897.916 1846.9 901.384C1846.9 905.084 1844.82 910.172 1842.28 912.946C1837.65 918.265 1837.42 918.265 1764.81 918.265C1692.2 918.265 1691.97 918.265 1687.34 912.946C1684.8 910.172 1682.49 905.084 1682.49 901.847Z" fill="#2929CF"/>
<path d="M2375.29 909.709C2376.68 906.009 2380.84 901.616 2385.7 899.303C2390.09 896.991 2395.18 895.141 2396.57 895.141C2398.19 895.141 2402.12 897.684 2405.35 900.922C2408.59 904.159 2411.14 909.247 2411.14 912.484C2411.14 916.184 2408.82 920.115 2404.66 922.89C2401.19 925.665 2395.64 927.746 2391.94 927.515C2388.47 927.515 2382.92 924.971 2379.22 921.965C2373.67 917.109 2373.21 915.721 2375.29 909.709Z" fill="#2929CF"/>
<path d="M2089.94 929.596C2089.94 922.659 2091.79 918.496 2096.64 913.409C2102.19 907.628 2104.97 906.703 2114.91 906.703C2124.62 906.703 2128.09 907.859 2133.87 912.946C2138.73 917.34 2141.27 922.427 2142.2 928.671C2142.97 934.838 2142.12 940.387 2139.66 945.321C2137.57 949.483 2132.72 954.57 2129.02 956.42C2125.32 958.27 2118.61 959.889 2114.45 959.889C2110.52 959.889 2104.74 958.27 2101.73 956.42C2098.96 954.57 2095.03 949.714 2093.18 946.014C2091.33 942.314 2089.71 934.915 2089.94 929.596Z" fill="#2929CF"/>
<path d="M1685.26 983.476C1687.57 978.157 1690.58 975.151 1695.44 973.764C1699.14 972.839 1764.58 971.682 1978.71 971.451L1984.49 977.232C1987.73 980.47 1990.27 985.095 1990.27 987.638C1990.27 990.182 1987.27 995.5 1976.86 1006.14H1840.66C1762.27 1006.14 1701.22 1005.21 1696.59 1003.83C1692.2 1002.67 1687.11 999.432 1685.26 996.425C1682.49 991.801 1682.49 989.951 1685.26 983.476Z" fill="#2929CF"/>
<path d="M1531.25 1036.43C1537.5 1033.42 1545.36 1030.19 1548.6 1029.03C1551.83 1028.11 1559 1027.18 1564.78 1027.18C1570.56 1026.95 1580.28 1028.8 1586.52 1030.88C1593.92 1033.66 1601.09 1038.51 1606.18 1044.52C1610.8 1049.61 1615.89 1059.09 1617.74 1065.34C1619.82 1072.27 1620.51 1081.99 1619.82 1090.54C1619.13 1099.33 1616.12 1109.27 1612.19 1117.13C1608.49 1124.07 1600.86 1134.48 1595.08 1140.49C1589.3 1146.27 1578.2 1153.9 1570.56 1157.6C1559.46 1162.92 1553.45 1164.31 1541.66 1164.31C1533.33 1164.31 1522 1162.69 1516.22 1160.61C1510.44 1158.3 1502.12 1152.52 1497.03 1147.43C1491.71 1141.42 1488.01 1134.71 1487.09 1129.16C1486.16 1124.53 1485.93 1113.43 1486.62 1104.42C1487.32 1093.78 1489.86 1083.84 1493.79 1075.51C1497.03 1068.57 1504.2 1058.17 1509.75 1052.39C1515.07 1046.61 1524.78 1039.44 1531.25 1036.43Z" fill="#2929CF"/>
<path d="M1682.72 1110.66C1682.72 1107.88 1683.87 1103.49 1685.49 1100.95C1688.27 1096.32 1690.81 1096.32 1836.26 1096.32C1952.81 1096.32 1985.18 1096.79 1987.5 1099.1C1989.12 1100.72 1990.27 1105.57 1990.27 1109.5C1990.27 1115.05 1988.65 1118.29 1983.8 1121.76C1977.78 1126.38 1974.78 1126.62 1691.97 1126.38L1687.34 1121.07C1684.8 1118.29 1682.72 1113.67 1682.72 1110.66Z" fill="#2929CF"/>
<path d="M1691.04 1279.7C1693.59 1276.23 1698.21 1272.53 1701.45 1271.84C1704.45 1270.91 1762.96 1270.22 1956.05 1270.91L1961.6 1277.16C1964.84 1280.86 1966.69 1285.48 1965.99 1287.56C1965.3 1289.87 1962.99 1293.57 1960.67 1295.89C1956.97 1299.59 1947.03 1300.05 1833.03 1301.2C1758.1 1302.13 1706.07 1301.9 1701.22 1300.51C1696.36 1299.12 1691.74 1295.89 1689.66 1292.19C1686.42 1286.64 1686.65 1285.71 1691.04 1279.7Z" fill="#2929CF"/>
<path d="M2079.3 658.573C2064.04 659.035 2039.53 659.035 2024.96 658.573C2010.39 658.341 2022.88 657.879 2052.71 657.879C2082.54 657.879 2094.56 658.341 2079.3 658.573Z" fill="#DFDFEE"/>
<path d="M2028.43 776.507C1967.38 776.969 1867.94 776.969 1807.59 776.507C1747.23 776.276 1797.18 776.044 1918.59 776.044C2039.99 776.044 2089.48 776.276 2028.43 776.507Z" fill="#DFDFEE"/>
<path d="M1798.34 885.192C1779.84 885.654 1748.62 885.654 1728.97 885.192C1709.31 884.96 1724.34 884.498 1762.5 884.498C1800.65 884.498 1816.84 884.96 1798.34 885.192Z" fill="#DFDFEE"/>
<path d="M1801.81 919.878C1782.85 920.341 1750.47 920.341 1730.12 919.878C1709.77 919.647 1725.27 919.184 1764.81 919.184C1804.12 919.184 1821 919.647 1801.81 919.878Z" fill="#DFDFEE"/>
<path d="M1332.61 821.608C1334.7 818.602 1338.4 815.364 1340.94 814.439C1343.48 813.283 1347.41 813.052 1349.5 813.746C1351.58 814.439 1354.58 816.058 1356.2 817.446C1357.82 818.833 1359.21 822.533 1359.21 825.77C1358.98 829.008 1357.59 833.633 1355.97 836.176C1354.12 838.72 1349.73 841.495 1346.03 842.189C1341.4 843.114 1337.7 842.189 1334.23 839.183C1331.23 836.87 1328.91 833.17 1328.91 830.858C1328.91 828.777 1330.53 824.614 1332.61 821.608Z" fill="white"/>
<path d="M1538.42 1063.25C1543.28 1059.78 1551.14 1055.85 1555.53 1054.7C1559.93 1053.54 1566.86 1053.31 1570.56 1053.77C1574.26 1054.46 1580.28 1057.01 1583.75 1059.55C1587.68 1062.09 1590.68 1066.95 1591.61 1071.34C1592.3 1075.51 1591.61 1084.06 1590.22 1090.54C1588.83 1096.78 1585.13 1106.26 1582.13 1111.35C1579.12 1116.44 1573.8 1122.68 1570.1 1125.46C1566.63 1128 1560.16 1131.93 1556.23 1134.01C1552.07 1136.32 1543.74 1137.94 1537.73 1137.94C1530.79 1137.71 1524.78 1136.32 1521.77 1133.78C1519.23 1131.7 1515.76 1127.54 1514.37 1124.53C1512.75 1121.76 1512.06 1115.28 1512.99 1109.73C1513.68 1104.18 1517.61 1093.08 1521.77 1084.76C1526.86 1075.04 1532.64 1067.41 1538.42 1063.25Z" fill="#DFDFEE"/>
</g>
</g>
<rect x="3.43457" y="2.97266" width="3495" height="1995" stroke="#00009C" stroke-width="5"/>
<defs>
<clipPath id="clip0_101_78">
<rect x="0.93457" y="0.472656" width="3500" height="2000" fill="white"/>
</clipPath>
<clipPath id="clip1_101_78">
<rect width="2351.75" height="2152.88" fill="white" transform="translate(575.06 -138.523)"/>
</clipPath>
</defs>
</svg>
