<svg width="3501" height="2001" viewBox="0 0 3501 2001" fill="none" xmlns="http://www.w3.org/2000/svg">
<g clip-path="url(#clip0_101_104)">
<rect x="0.93457" y="0.628906" width="3500" height="2000" fill="white"/>
<g clip-path="url(#clip1_101_104)">
<path fill-rule="evenodd" clip-rule="evenodd" d="M257.099 -411.002H3140.23V1441.63H2640.47L2622.17 1448.11C2612.03 1451.77 2596.83 1459.65 2588.38 1465.85C2579.93 1472.04 2570.08 1481.05 2566.7 1485.56C2562.2 1491.75 2560.22 1492.6 2559.1 1489.5C2558.53 1487.25 2555.72 1479.08 2553.47 1471.2C2550.93 1463.6 2545.02 1451.49 2540.52 1444.45C2535.73 1437.41 2526.72 1427.56 2519.96 1422.49C2513.49 1417.42 2501.38 1410.66 2493.5 1407.85C2479.7 1402.78 2467.59 1401.93 2213.91 1397.99V1309.3H2830.52L2832.21 1300.29C2833.33 1295.23 2833.61 1235.82 2833.05 1168.53C2832.49 1101.23 2832.21 891.756 2833.33 360.461H2846C2853.04 360.461 2861.21 359.334 2864.3 357.645C2867.4 355.956 2871.91 350.888 2874.16 346.383C2876.41 341.878 2878.38 334.839 2878.38 330.897C2878.38 326.955 2875 319.353 2870.5 314.004C2866.28 308.373 2858.95 302.742 2854.45 301.052C2849.38 299.363 2802.36 298.518 2737.6 298.518C2677.91 298.8 2626.95 298.237 2624.14 297.392C2619.63 295.703 2619.35 291.198 2620.48 242.77C2621.04 213.77 2622.45 185.051 2623.57 178.857C2625.55 169.566 2624.7 166.469 2613.72 154.925H876.24L862.444 169.003L863.851 288.101L759.676 285.848C685.064 284.44 653.811 284.722 649.306 286.974C645.646 288.664 641.704 292.606 640.015 295.703C638.044 299.926 638.325 303.586 642.267 309.78C645.364 315.412 649.869 318.79 655.5 319.635C660.287 320.48 708.714 321.606 862.444 322.451L862.162 335.12C861.88 342.159 861.317 345.538 860.754 342.723C860.191 340.189 858.783 337.936 857.657 337.936C856.249 337.654 848.366 337.091 839.919 335.965C831.473 335.12 811.201 335.965 794.87 337.936C774.88 340.47 766.996 342.159 770.938 343.849C774.317 345.257 767.278 346.101 752.637 346.101C739.404 346.101 729.268 346.946 730.113 347.509C730.957 348.354 760.802 349.198 796.278 349.198C847.803 349.48 862.162 350.325 866.667 353.703C872.298 357.645 872.298 357.926 866.949 366.936C861.599 375.664 861.317 383.548 861.317 661.725C861.317 877.678 862.162 950.883 864.696 961.582C867.512 973.407 867.512 976.504 863.851 981.854C861.317 985.796 859.628 994.805 859.628 1022.12H1069.11C1251.55 1022.12 1279.43 1021.55 1283.09 1017.89C1286.18 1014.8 1287.59 1008.32 1287.59 978.475L1376.85 976.223C1426.12 975.096 1502.7 974.252 1628.27 974.252L1618.98 986.077C1613.92 992.834 1605.47 1008.04 1590.26 1041.83H1506.64C1424.71 1041.83 1422.74 1041.83 1422.74 1036.19C1422.74 1033.1 1420.21 1029.16 1417.11 1027.75C1414.01 1026.06 1408.94 1024.93 1405.85 1024.93C1402.75 1024.93 1395.99 1026.9 1391.21 1029.72C1386.14 1032.25 1367.27 1046.61 1349.53 1061.82C1331.8 1076.74 1315.47 1092.22 1313.5 1095.6C1310.68 1100.95 1310.12 1121.51 1311.52 1271.29L676.617 1272.7L677.743 887.533C678.306 675.803 678.025 465.481 675.209 337.936H659.161C647.054 337.936 642.549 339.062 641.423 342.159C640.578 344.412 638.607 413.956 636.918 496.17C634.947 597.53 634.665 752.667 636.354 974.252C637.762 1154.73 639.733 1303.95 640.859 1305.64C642.549 1308.46 712.938 1309.3 1315.75 1309.3L1314.62 1316.91C1313.78 1321.41 1313.21 1341.96 1312.93 1400.81H1134.14L1120.07 1408.41C1112.47 1412.63 1101.48 1420.24 1095.85 1425.3C1090.5 1430.37 1083.46 1438.26 1080.37 1443.04C1077.27 1447.55 1071.36 1459.37 1067.13 1468.94C1059.81 1486.4 1059.53 1488.09 1058.69 1614.79L1057 1558.48C1055.31 1505.27 1054.75 1501.32 1047.71 1486.68C1043.48 1478.24 1034.47 1465.85 1027.44 1459.09C1020.4 1452.61 1009.13 1444.45 990.552 1434.6L471.081 1433.19L457.004 1457.12L467.703 1459.09C473.334 1459.94 483.188 1462.47 489.382 1464.72C498.392 1467.54 548.791 1468.38 741.375 1468.66C978.445 1468.94 982.386 1469.23 991.959 1474.86C998.435 1478.52 1005.19 1486.68 1021.52 1516.25L1022.93 1607.75H1011.1C1004.35 1607.75 998.435 1607.47 997.59 1606.63C996.746 1606.06 996.746 1591.14 997.872 1573.4C998.998 1548.06 998.435 1539.62 995.056 1532.01C992.522 1526.66 984.92 1517.94 977.881 1512.87C970.561 1507.8 958.736 1502.45 949.726 1500.48C939.59 1498.23 921.289 1497.95 897.638 1499.07C870.89 1500.2 858.502 1501.89 851.181 1505.55C845.832 1508.36 839.638 1513.99 837.948 1518.22C835.977 1522.72 834.851 1527.51 835.696 1528.92C836.541 1530.61 854.279 1531.73 880.182 1531.73C903.551 1531.73 928.046 1533.14 934.24 1534.83C940.435 1536.8 948.881 1541.87 953.386 1546.09C957.609 1550.6 960.988 1555.66 960.988 1557.07C960.988 1558.48 959.017 1559.89 956.765 1559.89C954.512 1559.89 945.784 1556.51 922.978 1544.4H797.967L786.424 1533.14C780.229 1526.95 773.19 1517.94 770.938 1513.43C766.996 1505.27 767.278 1504.98 776.569 1499.92C781.919 1497.38 786.424 1493.72 786.424 1492.31C786.424 1490.91 783.608 1489.78 780.229 1489.78C776.569 1490.06 764.181 1488.65 752.637 1486.68C739.967 1484.43 722.229 1483.87 707.588 1484.99C694.355 1485.84 682.53 1488.09 680.84 1489.78C678.869 1491.75 680.559 1494.85 686.471 1499.92C691.258 1503.86 699.141 1510.9 704.491 1515.68C709.559 1520.75 716.598 1529.76 719.695 1535.96C723.074 1542.99 726.171 1557.07 727.579 1573.97C728.986 1588.61 729.831 1610 730.113 1620.99C730.113 1635.06 731.239 1641.82 733.773 1642.67C735.744 1643.23 730.394 1649.99 706.18 1673.92L707.025 1626.05C707.588 1595.08 706.743 1577.06 704.772 1575.37C703.083 1573.97 701.957 1568.62 701.957 1564.11C701.957 1559.61 698.578 1550.03 694.073 1542.99C689.85 1535.96 680.277 1526.38 672.957 1521.88C660.568 1513.99 659.724 1512.59 659.724 1501.32C659.724 1489.78 659.442 1489.5 649.306 1487.53C643.393 1486.4 624.811 1485.56 607.636 1485.56C590.742 1485.28 544.004 1485.56 431.664 1486.68L429.13 1497.1C427.722 1503.01 423.78 1519.06 420.683 1533.14C417.586 1547.22 415.333 1558.76 415.615 1559.04C415.896 1559.32 456.722 1560.45 506.276 1561.3C555.83 1562.42 599.189 1563.55 602.849 1564.39C606.228 1564.96 612.985 1568.62 617.49 1572.56C622.277 1576.5 625.374 1581 624.529 1582.41C623.685 1584.1 585.674 1585.23 519.79 1585.23C462.635 1585.23 414.489 1586.35 412.518 1587.48C409.702 1588.89 409.139 1594.8 410.547 1611.98C411.392 1624.36 413.644 1644.64 415.052 1657.02C416.741 1669.41 420.964 1694.75 424.625 1713.34C428.566 1731.92 434.761 1756.69 438.702 1768.24C442.644 1779.78 452.78 1803.43 461.227 1820.33C469.392 1837.22 480.654 1858.34 495.858 1882.27L520.917 1884.24C534.431 1885.37 567.373 1887.9 642.267 1893.53L643.956 1906.2C644.801 1913.24 645.646 1941.11 645.646 1968.14C645.646 1995.17 647.054 2021.92 648.461 2027.27C650.151 2032.62 652.966 2037.97 654.937 2039.1C656.626 2040.22 661.413 2041.35 665.355 2041.35C669.297 2041.35 674.646 2039.1 677.462 2036.28C681.967 2031.77 682.53 2022.76 682.248 1904.79C682.248 1798.36 682.811 1776.12 686.471 1765.42C688.724 1758.38 697.452 1744.02 705.617 1733.04C713.501 1722.35 727.86 1705.45 737.151 1695.6C746.443 1685.74 761.647 1672.51 770.938 1666.32C780.229 1660.4 794.87 1653.36 803.317 1650.83C816.832 1646.89 863.288 1646.32 1190.46 1644.92C1394.87 1644.35 1577.31 1643.51 1595.9 1643.51C1627.43 1643.23 1630.81 1643.79 1646.58 1651.39C1656.15 1655.9 1670.23 1666.32 1679.24 1675.04C1687.68 1683.77 1697.82 1697 1707.96 1718.97L1708.24 1876.07C1708.52 2012.35 1709.08 2033.46 1712.74 2035.72C1714.99 2037.12 1720.91 2038.53 1725.69 2038.53C1730.2 2038.53 1735.55 2036.84 1737.52 2034.87C1740.05 2032.34 1740.9 1996.02 1740.9 1883.68C1740.9 1774.71 1739.77 1729.1 1736.96 1710.52C1734.98 1696.44 1731.89 1682.36 1729.92 1678.7C1727.38 1673.64 1727.66 1671.95 1731.04 1668.85C1734.98 1666.03 1735.55 1654.77 1735.27 1517.65H1749.34L1749.63 1567.49C1749.91 1595.08 1750.75 1640.13 1751.88 1667.72C1753.29 1707.7 1754.41 1718.4 1757.79 1720.37C1760.04 1721.78 1765.11 1723.19 1769.05 1723.19C1772.99 1723.19 1778.34 1720.94 1781.16 1718.12C1785.66 1713.62 1786.23 1705.73 1785.95 1512.02L1807.91 1511.46C1819.73 1511.18 1838.6 1510.9 1869.85 1510.62L1871.54 1523.29C1872.38 1530.32 1873.23 1588.61 1873.23 1652.8C1873.23 1736.7 1874.35 1780.91 1877.45 1809.06C1879.7 1830.74 1881.67 1865.38 1881.67 1923.09L1906.45 1921.69L1907.58 1983.63C1908.42 2037.12 1908.99 2046.98 1913.49 2053.45C1916.87 2059.09 1920.25 2060.77 1925.88 2060.21C1930.95 2059.93 1934.89 2057.11 1937.14 2052.61C1939.96 2047.26 1940.8 2008.69 1940.8 1886.49C1940.8 1795.83 1942.21 1718.97 1943.62 1707.7C1945.59 1695.03 1949.25 1683.49 1954.32 1675.61C1958.54 1668.85 1966.7 1659.28 1983.6 1645.76L2356.94 1644.35C2647.22 1643.23 2733.94 1643.79 2746.05 1646.33C2754.5 1648.3 2770.83 1649.99 2782.09 1649.99C2796.45 1649.99 2805.46 1651.67 2813.06 1655.33C2818.69 1658.15 2830.52 1668 2839.25 1677.01C2849.66 1687.71 2859.24 1701.79 2876.97 1738.68L2878.38 1878.33C2879.79 2013.19 2880.07 2018.54 2885.42 2024.17C2888.52 2027.55 2893.87 2030.37 2897.53 2030.09C2900.91 2030.09 2906.26 2026.71 2909.35 2022.2C2914.98 2014.88 2915.27 2010.66 2914.98 1849.89L2925.68 1848.48C2931.31 1847.64 2936.38 1847.36 2936.38 1847.64C2936.66 1848.2 2937.51 1862 2940.32 1909.02L2917.52 1904.79L2918.36 1926.75C2918.93 1938.58 2920.05 1948.43 2921.18 1948.43C2922.3 1948.43 2924.84 1946.74 2926.81 1944.77C2928.78 1942.8 2936.38 1937.17 2943.98 1932.1C2954.4 1924.78 2957.78 1920.56 2960.31 1910.99C2962 1904.51 2964.54 1895.22 2965.95 1890.72C2967.35 1886.21 2968.48 1820.61 2968.48 1744.87C2968.48 1619.86 2969.04 1606.91 2973.55 1597.9C2976.08 1592.27 2979.74 1588.32 2981.15 1588.89C2982.84 1589.45 2989.6 1585.51 2996.64 1579.88C3003.67 1574.53 3013.81 1568.33 3019.16 1566.36C3024.51 1564.39 3038.31 1562.98 3069.84 1562.7L3068.15 1552.29C3067.02 1546.37 3063.93 1533.7 3055.76 1506.39L3041.68 1507.8C3028.17 1509.21 3027.61 1508.93 3030.7 1496.54L2966.51 1494.57C2931.31 1493.16 2861.21 1492.31 2810.81 1492.6C2750.56 1492.88 2711.98 1491.75 2698.19 1489.5C2686.64 1487.53 2668.9 1486.68 2658.77 1487.25C2647.79 1488.09 2637.09 1490.62 2632.02 1494C2627.52 1496.82 2622.17 1501.32 2620.2 1503.58C2618.51 1505.83 2617.66 1508.64 2618.22 1510.05C2618.79 1511.18 2618.22 1512.02 2616.54 1512.02C2615.13 1512.02 2611.75 1517.09 2609.5 1523.29C2607.24 1529.48 2604.99 1539.33 2604.99 1545.25C2604.71 1550.88 2605.55 1565.8 2608.93 1600.71L2600.77 1602.68C2596.26 1603.53 2591.76 1603.81 2590.63 1603.25C2589.22 1602.68 2589.22 1584.1 2590.07 1562.14C2590.91 1539.9 2593.17 1517.37 2594.86 1512.02C2596.54 1506.67 2602.46 1497.1 2607.81 1491.19C2613.44 1485.28 2622.17 1478.52 2627.23 1476.27C2634.55 1473.17 2677.35 1472.89 2867.96 1474.29C2995.23 1475.14 3108.69 1475.7 3140.23 1475.42V2472.13H276.808L275.4 2386.25L257.099 2384.85L257.099 -411.002ZM2752.53 360.742C2809.12 360.461 2810.81 360.742 2810.81 366.092C2810.81 370.315 2808.84 371.723 2803.77 371.723C2799.83 371.723 2795.89 373.412 2795.04 375.101C2793.92 377.072 2793.35 579.792 2793.92 1272.7H2563.88C2437.18 1272.7 2306.54 1271.86 2213.07 1268.48L2216.73 1067.17L2236.15 1048.86L2236.44 1021.27C2236.44 1004.94 2237.56 993.961 2239.25 993.961C2240.94 993.961 2242.63 997.058 2243.47 1001C2244.32 1004.94 2246.29 1008.04 2247.7 1008.04C2249.39 1008.04 2251.08 1006.63 2251.92 1005.22C2252.77 1003.53 2255.58 1003.25 2259.8 1004.94C2263.18 1006.35 2271.07 1008.88 2277.26 1010.85C2283.45 1012.54 2290.49 1014.23 2292.75 1014.51C2295 1015.08 2298.94 1016.49 2301.19 1017.89C2303.73 1019.58 2368.2 1020.99 2627.8 1022.12V994.524C2628.08 975.378 2626.67 964.679 2623.57 958.766C2619.91 951.446 2619.35 914.562 2619.63 656.094C2619.91 494.199 2620.48 364.121 2621.04 366.655C2621.6 369.47 2623.29 371.723 2624.42 371.723C2625.83 371.723 2627.8 370.878 2628.92 369.47C2630.05 368.344 2645.25 366.092 2662.43 364.402C2679.89 362.713 2720.15 361.024 2752.53 360.742ZM1432.59 1075.89C1434.56 1075.61 1435.69 1132.2 1436.82 1402.22H1419.92L1419.36 1240.6C1418.52 1080.96 1418.52 1078.71 1424.15 1077.58C1427.24 1076.74 1431.19 1076.17 1432.59 1075.89ZM1993.17 1115.31C2003.87 1115.31 2010.91 1115.87 2009.22 1116.72C2007.25 1117.28 2005.56 1120.94 2005.56 1124.88C2005.56 1128.83 2007.53 1133.89 2009.78 1136.15C2012.6 1138.96 2022.17 1140.93 2038.78 1141.78C2052.3 1142.62 2075.39 1144.59 2090.03 1146.28C2104.67 1147.97 2129.16 1149.38 2171.68 1148.82L2172.52 1180.35C2172.8 1197.81 2172.8 1254.4 2171.68 1399.4H2087.21V1350.69C2087.21 1316.06 2086.37 1300.86 2083.83 1297.2C2081.39 1293.63 2075.48 1291.38 2066.09 1290.44C2053.99 1289.31 2051.17 1289.88 2046.39 1295.23C2042.72 1299.45 2041.04 1304.8 2041.88 1321.97L1970.93 1320.85C1922.22 1320.28 1898.01 1320.85 1893.78 1323.1C1890.12 1324.79 1885.62 1329.57 1883.36 1333.8C1881.39 1338.3 1878.3 1347.88 1876.61 1355.76C1874.92 1363.36 1872.95 1395.18 1872.1 1426.15C1871.26 1457.12 1870.13 1482.74 1869.85 1482.74C1869.29 1483.02 1850.7 1483.59 1787.35 1485.28L1785.95 1295.23L1778.91 1292.41C1774.97 1291 1768.49 1290.44 1764.27 1291.57C1760.32 1292.97 1754.41 1296.91 1751.6 1300.86C1748.78 1304.8 1746.25 1310.99 1746.53 1321.97L1591.67 1320.57L1592.52 1305.36C1592.8 1296.91 1592.24 1290.72 1591.11 1291.28C1589.7 1291.85 1588.58 1289.03 1588.58 1284.53C1588.29 1280.3 1588.29 1276.36 1588.29 1275.52C1588.01 1274.67 1588.86 1269.89 1589.98 1264.82C1591.39 1256.65 1591.11 1255.81 1584.63 1255.81C1580.13 1255.81 1575.34 1252.99 1571.68 1247.92C1568.59 1243.7 1565.21 1237.22 1564.36 1233.28C1563.24 1229.06 1564.64 1223.15 1567.18 1218.36C1569.99 1214.14 1571.96 1208.22 1571.96 1205.13C1571.96 1202.03 1568.3 1196.96 1563.52 1193.87C1559.01 1190.77 1553.94 1188.23 1552.25 1188.23C1550.85 1188.23 1549.44 1185.7 1549.44 1182.6C1549.44 1179.51 1547.75 1176.97 1546.06 1176.97C1544.09 1177.25 1537.61 1172.19 1531.98 1165.71C1526.07 1159.52 1521.28 1152.76 1521.28 1150.79C1521 1149.1 1522.69 1146 1524.66 1144.31C1526.63 1142.62 1530.86 1140.65 1533.95 1139.81C1537.05 1138.96 1542.12 1139.53 1545.22 1140.93C1549.44 1143.19 1551.41 1142.9 1552.82 1140.09C1554.23 1137.27 1565.49 1135.58 1593.64 1134.18C1615.04 1133.05 1690.22 1130.23 1760.61 1127.7C1831 1125.45 1908.7 1122.91 1933.2 1122.07C1961.64 1121.22 1976.84 1119.53 1975.71 1117.85C1974.59 1116.16 1981.06 1115.03 1993.17 1115.31ZM1546.91 1281.15C1552.82 1281.15 1560.14 1281.99 1562.95 1282.84C1567.18 1284.53 1566.9 1285.37 1560.7 1289.88C1553.66 1294.94 1553.66 1294.94 1552.25 1402.22H1527.76C1507.77 1402.5 1503.55 1401.65 1506.08 1398.84C1508.05 1396.87 1513.96 1392.64 1519.59 1389.55C1524.94 1386.45 1530.29 1381.38 1531.14 1378.28C1531.7 1375.19 1532.55 1354.92 1532.55 1333.24C1532.55 1311.56 1533.39 1291 1534.24 1287.34C1535.64 1282.27 1537.9 1281.15 1546.91 1281.15ZM1702.89 1438.82C1705.98 1438.82 1712.74 1441.63 1718.09 1445.01C1723.44 1448.67 1731.32 1455.99 1735.83 1461.34C1742.3 1468.95 1744.28 1474.86 1745.12 1486.68C1745.68 1495.13 1745.68 1499.63 1744.84 1496.54C1743.43 1491.75 1742.87 1491.47 1740.62 1495.13C1738.64 1497.95 1738.36 1495.69 1739.49 1488.09C1740.62 1479.93 1740.33 1478.24 1738.36 1482.46C1735.83 1487.81 1735.55 1487.53 1735.55 1481.05C1735.27 1477.11 1732.45 1468.95 1728.79 1462.75C1724.57 1455.15 1718.37 1449.24 1709.93 1445.01C1701.76 1441.07 1699.23 1438.82 1702.89 1438.82ZM2726.34 1530.89C2754.5 1531.17 2766.89 1532.58 2774.21 1535.67C2779.56 1538.21 2785.75 1542.71 2787.72 1545.81C2789.41 1548.91 2790.26 1551.44 2789.13 1551.44C2787.72 1551.44 2780.68 1549.47 2772.8 1546.94C2765.2 1544.68 2744.92 1541.87 2727.75 1541.02C2710.86 1540.18 2691.99 1540.18 2686.36 1541.3C2677.35 1542.71 2675.1 1544.4 2672.85 1552C2671.44 1557.07 2669.75 1570.02 2668.06 1600.71L2647.51 1602.12V1590.01C2647.51 1583.54 2648.91 1570.59 2650.89 1561.58C2652.86 1552.29 2657.36 1542.15 2660.74 1538.49C2664.68 1534.55 2670.88 1531.73 2677.63 1531.17C2683.55 1530.61 2705.51 1530.61 2726.34 1530.89Z" fill="white"/>
<path fill-rule="evenodd" clip-rule="evenodd" d="M875.113 156.333L2612.31 153.799L2618.79 159.993C2622.17 163.372 2624.98 169.566 2624.98 174.071C2624.98 178.294 2623.01 186.741 2620.76 192.935C2617.94 201.1 2616.82 217.712 2616.54 298.518H2627.23C2632.87 298.8 2684.95 298.8 2742.67 298.518C2829.67 298.518 2849.1 299.363 2857.27 302.742C2862.61 304.994 2868.81 310.062 2870.5 313.723C2873.6 319.635 2873.31 321.888 2862.9 336.247L2616.54 333.713V644.269C2616.54 913.718 2615.97 955.951 2608.09 974.252H2236.43L2236.15 1048.86L2216.73 1067.17L2213.07 1268.48L2273.32 1270.73C2306.54 1271.86 2437.18 1272.7 2793.92 1272.7L2793.63 825.591C2793.35 579.793 2793.92 377.073 2795.04 375.383C2795.89 373.412 2799.83 371.723 2803.77 371.723C2809.4 371.723 2810.81 370.315 2810.81 364.684C2810.81 358.49 2811.93 357.645 2820.66 358.49C2826.01 358.771 2830.52 360.461 2830.8 361.869C2830.8 363.558 2830.8 575.006 2831.08 832.066C2831.08 1089.13 2830.8 1301.7 2830.8 1304.52C2830.52 1309.02 2814.19 1309.3 2213.91 1307.9L2213.91 1397.99L2346.24 1400.25C2467.59 1401.94 2479.7 1402.78 2493.21 1407.85C2501.38 1410.66 2513.49 1417.42 2519.96 1422.49C2526.72 1427.56 2535.73 1437.41 2540.52 1444.45C2545.02 1451.49 2550.93 1463.6 2553.47 1471.2C2555.72 1479.08 2558.53 1487.25 2559.1 1489.5C2560.22 1492.6 2562.2 1491.75 2566.7 1485.56C2570.08 1481.05 2579.65 1472.32 2587.53 1466.41C2595.7 1460.5 2608.37 1453.18 2615.69 1450.36C2628.64 1445.29 2641.88 1445.01 3140.23 1443.04V1474.01L2891.9 1473.17C2755.06 1472.61 2639.06 1472.89 2633.99 1473.73C2628.92 1474.86 2619.63 1480.49 2612.03 1487.53C2604.99 1494.29 2597.67 1504.14 2595.42 1510.62C2593.17 1516.81 2590.91 1539.62 2590.07 1562.14C2589.22 1584.1 2589.22 1602.68 2590.35 1602.97C2591.76 1603.53 2597.95 1603.53 2616.54 1602.12V1577.63C2616.54 1563.83 2618.22 1546.65 2620.48 1538.77C2623.01 1530.32 2628.36 1520.75 2633.99 1515.4C2639.06 1510.05 2646.38 1504.14 2650.32 1502.17C2654.26 1500.2 2662.43 1497.66 2668.62 1496.54C2674.82 1495.41 2681.29 1493.72 2682.7 1492.6C2684.11 1491.75 2679.88 1490.06 2672.85 1488.94C2665.81 1487.81 2669.75 1487.81 2681.29 1488.65C2692.84 1489.5 2721.27 1491.19 2744.64 1492.31C2767.73 1493.16 2783.78 1494.29 2779.84 1494.57C2773.92 1495.13 2775.9 1497.1 2791.1 1505.27C2801.24 1510.62 2811.09 1516.53 2813.06 1518.5C2815.03 1520.47 2816.72 1526.95 2816.72 1533.14C2816.72 1540.18 2814.75 1546.37 2811.65 1549.47C2808.84 1552.29 2803.77 1554.54 2800.11 1554.26C2796.73 1554.26 2791.66 1551.16 2788.85 1547.78C2786.31 1544.12 2779.56 1538.77 2774.21 1535.96C2766.04 1531.73 2757.59 1531.17 2724.93 1531.17C2703.25 1531.45 2681.57 1531.45 2676.79 1531.45C2671.44 1531.73 2665.24 1534.27 2661.3 1538.49C2657.08 1542.43 2653.14 1551.44 2650.89 1561.58C2648.91 1570.59 2647.51 1583.82 2647.51 1603.53L2664.96 1600.71C2674.82 1599.31 2702.97 1597.9 2727.75 1597.9C2755.06 1597.9 2779.84 1599.59 2791.1 1601.84C2801.24 1604.09 2817 1609.16 2826.29 1613.38C2835.59 1617.33 2848.82 1625.77 2855.58 1631.97C2862.33 1637.88 2872.75 1650.55 2879.23 1659.84C2885.42 1669.13 2894.15 1684.34 2898.37 1693.63C2902.31 1702.92 2907.38 1717.56 2909.35 1726.01C2911.89 1737.27 2912.73 1778.94 2912.17 1880.86C2911.89 2007 2911.32 2020.79 2907.1 2025.3C2904.57 2028.11 2899.78 2030.37 2896.68 2030.37C2893.59 2030.37 2888.52 2027.55 2885.42 2024.17C2880.07 2018.54 2879.79 2013.19 2876.97 1738.68L2865.99 1716.15C2859.24 1701.79 2849.66 1687.71 2839.25 1677.01C2830.52 1668 2818.69 1658.15 2812.78 1655.33C2805.46 1651.67 2796.17 1649.99 2781.81 1649.99C2770.83 1649.99 2756.47 1648.58 2750.27 1647.17C2743.8 1645.76 2583.03 1644.07 2377.21 1643.23C2148.87 1642.38 2009.22 1642.67 1998.52 1644.35C1986.98 1646.33 1978.53 1649.7 1971.77 1655.33C1966.42 1659.56 1958.54 1668.85 1954.32 1675.61C1949.25 1683.49 1945.59 1695.03 1943.62 1707.7C1942.21 1718.97 1940.8 1795.83 1940.8 1886.49C1940.8 2008.69 1939.96 2047.26 1937.14 2052.61C1934.89 2057.11 1930.95 2059.93 1925.88 2060.49C1920.53 2060.78 1917.15 2059.09 1914.34 2054.86C1911.24 2049.79 1910.11 2024.74 1908.7 1937.17C1907.86 1876.07 1907.01 1825.68 1907.01 1825.39C1907.01 1824.83 1904.76 1826.52 1901.95 1829.05C1899.13 1831.59 1893.78 1833 1888.71 1832.43C1880.55 1831.59 1880.27 1831.03 1878.3 1813.29C1877.17 1803.15 1875.2 1718.4 1874.07 1624.65C1872.67 1530.89 1872.66 1432.06 1873.51 1405.03C1874.35 1378 1876.61 1351.25 1878.3 1345.91C1879.99 1340.56 1883.65 1332.95 1891.53 1322.54L2042.16 1323.38L2041.32 1312.4C2041.04 1304.52 2042.44 1299.73 2046.39 1295.23C2051.17 1289.88 2053.99 1289.31 2066.09 1290.44C2075.48 1291.38 2081.39 1293.63 2083.83 1297.2C2086.37 1300.86 2087.21 1316.06 2087.21 1399.4L2174.49 1399.4V1109.4L2072.29 1111.09C2016.26 1112.21 1969.8 1113.9 1968.96 1114.75C1968.11 1115.59 1881.39 1117 1776.09 1117.56C1651.64 1118.13 1571.4 1117.28 1546.62 1115.31C1525.79 1113.62 1492.56 1111.93 1436.82 1110.81V1093.35C1436.82 1076.46 1436.54 1075.61 1430.34 1077.02C1426.96 1077.86 1422.46 1078.43 1420.49 1078.43C1417.95 1078.43 1417.11 1099.54 1417.11 1175C1417.11 1227.93 1417.95 1300.86 1421.33 1402.22L1552.25 1402.22L1552.82 1348.44C1553.66 1298.32 1553.94 1294.38 1559.29 1290.72C1562.39 1288.47 1570.27 1286.78 1576.75 1286.78C1583.51 1286.78 1588.86 1288.19 1588.86 1289.59C1588.86 1291 1589.7 1291.85 1590.83 1291.28C1592.24 1290.72 1592.8 1296.91 1591.67 1320.57L1746.53 1321.97L1746.53 1314.93C1746.25 1310.99 1748.78 1304.8 1751.6 1300.86C1754.41 1296.91 1760.32 1292.97 1764.27 1291.85C1768.49 1290.44 1775.25 1291 1787.35 1295.51L1784.82 1505.83C1783.13 1656.74 1781.72 1717.28 1779.19 1719.81C1777.5 1721.78 1772.99 1723.47 1769.05 1723.19C1765.11 1723.19 1760.04 1721.78 1757.79 1720.37C1754.13 1718.12 1753.29 1700.67 1751.88 1601.56C1750.47 1487.25 1750.19 1484.99 1743.99 1474.01C1740.33 1467.82 1734.14 1459.09 1730.2 1454.87C1725.97 1450.36 1719.22 1445.01 1714.71 1442.76C1710.49 1440.51 1704.86 1438.82 1702.04 1438.82C1699.51 1438.82 1702.89 1441.63 1709.93 1445.01C1718.37 1449.52 1724.57 1455.15 1728.79 1462.75C1734.7 1473.73 1734.7 1475.42 1733.3 1571.15C1732.45 1624.65 1730.76 1669.69 1729.35 1671.1C1728.23 1672.79 1728.51 1676.45 1730.2 1679.55C1731.89 1682.65 1734.7 1696.44 1736.67 1710.52C1739.49 1729.67 1739.77 1773.03 1736.67 2037.12L1726.82 2037.97C1721.47 2038.25 1714.99 2037.41 1712.74 2035.72C1709.08 2033.46 1708.52 2012.35 1707.96 1718.97L1701.48 1704.89C1697.82 1697.29 1687.68 1683.77 1679.24 1675.04C1669.95 1666.03 1656.43 1656.18 1629.68 1643.51L1234.1 1644.07C991.114 1644.35 831.472 1645.76 820.21 1647.45C810.074 1648.86 793.744 1654.21 783.608 1659C770.938 1665.19 758.268 1675.04 742.501 1690.53C730.112 1703.2 713.501 1722.06 705.335 1733.04C697.17 1744.03 689.005 1758.38 686.753 1765.42C683.374 1775.28 681.966 1805.4 680.559 1906.2C679.432 1994.33 677.743 2035.44 675.491 2037.97C673.801 2039.94 669.015 2041.63 664.51 2041.35C660.287 2041.35 654.937 2039.38 652.685 2037.12C650.432 2034.87 647.898 2027.55 647.053 2021.08C646.209 2014.32 645.083 1918.87 644.519 1809.06C643.956 1613.1 643.675 1608.88 638.044 1597.9C634.947 1591.7 627.063 1581.85 620.587 1576.22C614.393 1570.31 606.228 1564.96 602.568 1564.39C599.189 1563.55 555.83 1562.42 506.276 1561.3C456.722 1560.45 415.896 1559.32 415.615 1559.04C415.333 1558.76 417.586 1548.34 420.683 1535.96C423.498 1523.57 426.032 1513.15 426.032 1512.87C426.032 1512.3 464.324 1512.02 596.373 1512.02L611.859 1519.63C620.306 1523.85 627.626 1528.07 627.908 1529.48C628.471 1530.61 633.82 1528.64 640.015 1524.69C646.209 1520.75 654.655 1517.65 658.879 1517.65C663.384 1517.65 671.549 1520.75 677.18 1524.69C683.093 1528.64 691.258 1537.64 695.481 1545.25C703.083 1558.2 703.365 1559.32 705.617 1673.92L717.724 1662.09C724.481 1655.34 737.151 1645.2 745.598 1639.57C754.326 1633.66 761.365 1628.02 761.083 1626.9C761.083 1625.49 761.928 1624.93 763.054 1625.21C764.462 1625.49 770.093 1624.36 775.724 1622.39C781.637 1620.42 786.423 1617.61 786.423 1616.2C786.423 1614.79 787.55 1613.95 789.239 1614.79C790.647 1615.64 795.152 1615.64 799.093 1614.79C803.035 1613.95 805.569 1612.54 805.006 1611.41C804.443 1610 811.763 1608.88 821.055 1608.6C830.628 1608.03 838.793 1606.91 839.074 1605.78C839.637 1604.37 868.638 1603.81 968.027 1605.22L966.338 1584.66C965.493 1571.99 962.677 1560.45 959.299 1554.54C956.483 1549.19 949.444 1542.15 944.095 1539.05C935.366 1533.98 928.046 1532.86 835.696 1530.32L836.54 1523.29C837.104 1519.34 838.793 1514.56 840.764 1512.3C842.735 1510.05 848.647 1506.39 853.997 1504.14C859.909 1501.89 878.211 1499.63 899.046 1498.79C921.007 1497.66 940.153 1498.51 949.726 1500.48C958.736 1502.45 970.561 1507.8 977.881 1512.87C984.92 1517.94 992.522 1526.66 995.056 1532.01C998.435 1539.62 998.998 1548.06 997.872 1573.4C996.746 1591.14 996.746 1606.06 997.59 1606.63C998.435 1607.47 1004.35 1607.75 1022.93 1607.75L1021.52 1516.25L1011.67 1498.51C1005.47 1487.25 998.153 1478.24 982.105 1468.38L742.782 1467.82C569.344 1467.54 500.081 1466.69 490.79 1464.16C483.751 1462.47 473.334 1459.94 457.004 1457.12L471.081 1433.19L990.552 1434.6L1002.38 1441.07C1009.13 1444.45 1020.4 1452.62 1027.44 1459.37C1034.47 1465.85 1043.77 1478.24 1047.71 1486.68C1055.03 1501.61 1055.31 1504.14 1056.15 1558.48C1056.72 1591.42 1058.12 1613.67 1059.53 1611.98C1060.94 1610.57 1062.35 1578.75 1063.76 1474.01L1072.2 1457.12C1076.71 1447.83 1086.28 1434.88 1093.32 1428.12C1100.36 1421.08 1111.9 1412.63 1119.22 1408.97C1132.74 1402.22 1133.58 1402.22 1312.93 1402.22L1313.21 1363.64C1313.21 1342.25 1313.78 1321.41 1315.75 1309.3L641.422 1307.9L639.17 1271.29C638.044 1251.3 637.481 1035.07 638.044 791.241C638.325 547.414 639.733 345.538 640.859 342.723C642.549 339.063 646.209 337.936 676.617 337.936L676.617 1272.7L1311.52 1272.7L1312.37 1185.98C1312.93 1138.4 1313.78 1097.57 1314.34 1095.32C1314.9 1093.07 1330.39 1078.43 1348.69 1062.66C1366.99 1047.17 1386.14 1032.25 1390.92 1029.72C1395.99 1026.9 1402.75 1024.93 1405.85 1024.93C1408.94 1024.93 1414.01 1026.34 1417.11 1027.75C1420.21 1029.16 1422.74 1033.1 1422.74 1036.19C1422.74 1041.83 1424.71 1041.83 1590.26 1041.83L1600.12 1020.15C1605.47 1008.04 1613.92 992.834 1628.27 974.252L1252.96 975.941C878.211 977.912 877.929 977.912 863.851 966.368L863.007 671.017C862.162 391.15 862.443 375.383 867.23 366.373C870.89 359.053 871.453 356.519 868.638 355.674C866.385 355.111 865.259 349.199 865.259 321.043H761.647C704.772 321.043 655.782 320.198 652.685 319.635C649.587 318.791 644.801 314.286 641.985 309.781C637.762 302.179 637.481 300.771 645.646 287.256H863.851L863.288 227.848C862.725 169.848 862.725 168.44 868.919 162.527L875.113 156.333ZM3030.42 1512.3C3034.08 1512.02 3034.08 1512.3 3030.42 1514.56C3027.04 1516.81 3026.48 1520.47 3030.42 1547.22L3018.31 1550.31C3009.87 1552.57 3002.83 1557.64 2993.82 1567.49C2986.78 1575.09 2978.05 1587.76 2967.07 1609.16L2965.66 1756.98C2964.82 1838.06 2963.13 1907.05 2962 1909.58C2960.31 1913.8 2958.63 1914.08 2950.74 1911.55C2945.96 1910.14 2941.17 1908.17 2940.32 1907.33C2939.48 1906.2 2938.07 1874.39 2936.95 1836.09C2935.82 1798.08 2934.13 1729.38 2933 1683.77C2931.6 1624.08 2931.88 1596.77 2934.13 1586.64C2936.1 1578.75 2941.45 1566.36 2945.96 1559.04C2950.46 1551.72 2960.31 1541.02 2967.63 1535.11C2975.24 1529.2 2988.19 1522.16 2996.64 1519.63C3005.08 1517.09 3015.22 1514.28 3019.16 1513.71C3023.1 1513.15 3028.17 1512.59 3030.42 1512.3Z" fill="#2929CF"/>
<path fill-rule="evenodd" clip-rule="evenodd" d="M1177.79 156.333C1341.09 156.333 1407.54 156.614 1325.6 156.896C1243.67 157.459 1109.93 157.459 1028.56 156.896C947.192 156.614 1014.48 156.333 1177.79 156.333ZM2617.66 201.382L2618.79 247.838C2619.35 280.217 2620.48 294.858 2623.01 296.266C2625.26 297.767 2624.79 298.518 2621.6 298.518C2616.82 298.518 2616.54 294.576 2617.1 249.809L2617.66 201.382ZM696.326 285.848C721.948 285.848 732.647 286.13 720.258 286.693C707.87 287.256 687.035 287.256 673.802 286.693C660.569 286.13 670.705 285.848 696.326 285.848ZM2876.13 320.198C2877.82 321.043 2878.66 325.266 2878.66 329.771C2878.38 334.276 2876.41 341.878 2874.16 346.664C2871.91 351.169 2867.4 356.237 2864.3 357.926C2861.21 359.334 2853.04 360.742 2846 360.742C2838.4 360.742 2832.77 361.868 2832.21 364.121C2831.27 366.373 2830.8 366.185 2830.8 363.558C2830.52 359.897 2822.63 359.334 2774.77 359.897C2744.36 360.179 2699.03 362.15 2674.54 364.121C2650.04 366.092 2629.49 368.626 2628.92 369.752C2628.36 370.878 2626.39 372.004 2624.98 372.004C2623.29 372.004 2621.6 369.752 2621.04 366.936C2620.48 364.121 2619.91 494.481 2619.63 656.375C2619.35 914.844 2619.91 951.446 2623.57 959.048C2626.67 964.679 2627.8 975.66 2627.8 1022.4L2466.47 1021.55C2368.2 1020.99 2303.73 1019.86 2301.19 1018.17C2298.94 1016.49 2295 1015.08 2292.75 1014.8C2290.49 1014.51 2283.45 1012.82 2277.26 1010.85C2271.07 1009.16 2263.18 1006.35 2259.52 1004.94C2255.58 1003.53 2252.77 1003.53 2251.92 1005.5C2251.08 1006.91 2249.11 1008.32 2247.7 1008.32C2246.01 1008.32 2244.32 1004.94 2243.47 1001.28C2242.63 997.339 2240.66 994.242 2239.25 994.242C2237.56 994.242 2236.44 989.737 2236.44 974.533H2608.09L2612.31 964.679C2615.97 955.951 2616.54 913.999 2616.54 333.994L2863.74 336.81L2868.53 327.8C2871.34 322.732 2874.72 319.353 2876.13 320.198ZM863.852 321.324C864.697 321.324 865.26 328.082 865.26 336.81C865.26 350.043 864.415 352.014 860.192 350.888C857.658 350.324 826.968 349.48 792.055 348.917C749.54 348.635 736.589 347.79 752.637 346.664C765.87 345.82 774.036 344.412 770.938 343.567C767.841 342.722 778.54 340.188 794.871 338.218C811.201 336.247 831.473 335.402 839.92 336.247C848.366 337.091 856.25 337.936 857.376 337.936C858.502 337.936 859.91 340.188 860.755 343.004C861.318 345.82 861.881 341.878 862.162 334.557C862.162 327.237 863.007 321.324 863.852 321.324ZM797.686 322.45C832.599 322.45 846.395 322.732 828.657 323.295C810.919 323.858 782.201 323.858 765.307 323.295C748.132 322.732 762.773 322.45 797.686 322.45ZM678.588 494.481C679.151 522.073 679.151 568.53 678.588 597.249C678.307 625.686 677.744 602.88 677.744 546.569C677.744 489.976 678.307 466.607 678.588 494.481ZM2832.49 638.074C2833.05 712.124 2833.05 834.6 2832.49 909.776C2832.21 984.669 2831.93 923.853 2831.93 774.629C2831.93 625.123 2832.21 563.744 2832.49 638.074ZM861.599 614.142C862.162 658.065 862.162 729.017 861.599 771.813C861.318 814.328 860.755 778.289 860.755 691.57C860.755 604.569 861.318 569.938 861.599 614.142ZM636.355 626.812C636.918 668.482 636.918 736.337 636.355 777.444C636.073 818.27 635.51 784.202 635.51 701.424C635.51 618.365 636.073 584.86 636.355 626.812ZM874.833 975.096C878.774 977.067 959.299 977.63 1142.59 977.067C1286.47 976.223 1377.97 976.223 1287.59 977.349V995.65C1287.59 1008.6 1286.19 1015.08 1283.09 1018.17C1279.15 1021.83 1251.55 1022.4 859.628 1022.4V1005.5C859.628 995.087 861.318 985.232 864.133 980.164C868.075 973.125 869.483 972.562 874.833 975.096ZM678.588 1037.88C679.151 1057.87 679.151 1090.25 678.588 1109.4C678.307 1128.83 677.744 1112.5 677.744 1073.08C677.744 1033.38 678.307 1017.61 678.588 1037.88ZM1419.08 1136.43C1419.64 1168.81 1419.64 1222.58 1419.08 1256.09C1418.8 1289.31 1418.23 1262.56 1418.23 1196.96C1418.23 1131.08 1418.8 1103.77 1419.08 1136.43ZM1437.1 1111.09L1472.86 1111.65C1492.57 1111.93 1525.79 1113.62 1546.62 1115.59C1571.12 1117.56 1651.64 1118.13 1776.09 1117.56C1881.39 1117 1968.11 1115.87 1968.96 1114.75C1969.8 1113.9 2016.26 1112.21 2174.49 1109.68L2173.93 1159.52C2173.37 1192.46 2173.09 1199.21 2171.68 1149.1L2144.09 1149.38C2129.16 1149.38 2104.67 1148.25 2090.03 1146.56C2075.39 1144.87 2052.02 1142.9 2038.5 1142.06C2022.17 1140.93 2012.6 1139.24 2009.78 1136.43C2007.53 1133.89 2005.56 1128.83 2005.56 1125.17C2005.56 1121.22 2006.97 1117.56 2008.94 1116.72C2010.91 1116.16 2003.87 1115.59 1993.45 1115.31C1981.63 1115.31 1975.15 1116.16 1976 1118.13C1976.84 1119.82 1961.07 1121.22 1932.92 1122.07C1908.7 1122.91 1831 1125.45 1760.61 1127.98C1690.22 1130.23 1615.04 1133.05 1593.64 1134.18C1565.49 1135.86 1554.23 1137.27 1552.82 1140.09C1551.41 1142.9 1549.16 1143.19 1545.22 1141.21C1542.12 1139.52 1537.05 1138.96 1533.95 1139.81C1530.86 1140.65 1526.63 1142.62 1524.66 1144.31C1522.69 1146.28 1521 1149.1 1521 1151.07C1521.28 1153.04 1526.07 1159.8 1531.7 1165.99C1537.61 1172.19 1543.81 1177.25 1545.78 1177.25C1547.75 1177.25 1549.44 1179.51 1549.44 1182.88C1549.44 1185.98 1550.57 1188.52 1552.26 1188.52C1553.66 1188.52 1558.73 1190.77 1563.52 1194.15C1568.02 1197.24 1571.96 1202.03 1571.96 1205.41C1571.96 1208.51 1569.71 1214.42 1567.18 1218.64C1564.36 1223.43 1563.24 1229.06 1564.36 1233.56C1565.21 1237.22 1568.59 1243.98 1571.68 1248.21C1575.34 1252.99 1580.13 1256.09 1584.63 1256.09C1590.55 1256.09 1591.39 1256.93 1589.98 1262.28C1588.86 1265.66 1588.29 1272.7 1588.86 1287.06L1575.34 1285.37C1568.02 1284.53 1556.48 1283.12 1549.44 1282.27C1537.9 1280.87 1536.49 1281.43 1534.52 1287.34C1533.39 1291 1532.55 1311.56 1532.55 1333.52C1532.55 1355.2 1531.7 1375.19 1530.86 1378.57C1529.73 1381.66 1522.69 1388.14 1514.53 1393.21C1500.45 1402.5 1499.6 1402.5 1436.82 1402.5V1346.75C1436.82 1316.06 1436.25 1244.26 1435.69 1187.11C1435.13 1129.67 1435.13 1089.13 1437.1 1111.09ZM1312.09 1119.53C1312.65 1131.64 1312.65 1152.76 1312.09 1165.99C1311.53 1178.94 1311.24 1168.81 1311.24 1143.47C1311.24 1117.85 1311.53 1107.15 1312.09 1119.53ZM2173.65 1264.54C2174.21 1288.47 2174.21 1329.01 2173.65 1354.63C2173.37 1379.97 2172.8 1360.55 2172.8 1310.99C2172.8 1261.16 2173.37 1240.32 2173.65 1264.54ZM1191.86 1271.29C1223.68 1271.29 1236.35 1271.57 1220.02 1272.14C1203.69 1272.7 1177.79 1272.7 1162.3 1272.14C1146.82 1271.57 1160.05 1271.29 1191.86 1271.29ZM2263.18 1307.9C2291.06 1307.9 2301.76 1308.18 2287.12 1308.74C2272.47 1309.3 2249.67 1309.3 2236.44 1308.74C2223.2 1308.18 2235.31 1307.9 2263.18 1307.9ZM1968.96 1321.97C2002.18 1321.97 2015.41 1322.25 1998.52 1322.82C1981.35 1323.38 1954.32 1323.38 1937.99 1322.82C1921.66 1322.25 1935.73 1321.97 1968.96 1321.97ZM1205.94 1400.81C1242.26 1400.81 1256.9 1401.09 1238.32 1401.65C1219.74 1402.22 1189.89 1402.22 1172.16 1401.65C1154.42 1401.09 1169.62 1400.81 1205.94 1400.81ZM2858.67 1443.04C2980.31 1443.04 3029.58 1443.32 2968.48 1443.89C2907.38 1444.45 2807.71 1444.45 2747.46 1443.89C2686.92 1443.32 2737.04 1443.04 2858.67 1443.04ZM1871.82 1461.62C1872.67 1461.62 1872.95 1476.27 1872.67 1494.57C1872.38 1512.87 1871.82 1523.85 1870.13 1510.9H1849.86C1838.6 1511.18 1819.73 1511.46 1785.95 1512.3L1784.54 1716.43L1783.69 1629.15C1783.13 1581 1783.41 1528.63 1784.26 1512.87C1785.38 1495.13 1787.07 1484.43 1788.76 1485.56C1790.17 1486.12 1809.32 1485.84 1870.41 1482.74V1472.04C1870.41 1466.13 1870.98 1461.62 1871.82 1461.62ZM544.286 1468.38C568.218 1468.38 578.354 1468.66 566.811 1469.23C555.267 1469.79 535.558 1469.79 523.169 1469.23C510.781 1468.66 520.354 1468.38 544.286 1468.38ZM787.832 1468.38C869.764 1468.38 904.114 1468.66 863.852 1469.23C823.589 1469.79 756.298 1469.79 714.627 1469.23C672.676 1468.66 705.618 1468.38 787.832 1468.38ZM2945.96 1474.01C3025.64 1474.01 3058.02 1474.29 3017.75 1474.86C2977.49 1475.42 2912.17 1475.42 2872.75 1474.86C2833.33 1474.29 2866.28 1474.01 2945.96 1474.01ZM1739.77 1478.52C1740.33 1478.52 1740.33 1483.02 1739.49 1488.94C1738.36 1496.54 1738.65 1498.23 1740.62 1495.41C1743.15 1491.75 1743.71 1492.03 1743.99 1496.82C1744.28 1499.92 1745.4 1497.38 1746.25 1491.19C1747.65 1483.02 1748.78 1490.34 1750.19 1517.94C1751.6 1538.77 1752.16 1572.84 1751.6 1593.96C1750.75 1626.05 1750.47 1623.24 1749.34 1517.94H1735.27L1734.42 1591.7C1733.86 1632.53 1733.58 1626.33 1734.14 1578.47C1734.42 1530.32 1735.55 1488.09 1736.67 1484.71C1737.8 1481.33 1739.21 1478.52 1739.77 1478.52ZM611.859 1485.84C631.287 1486.4 649.87 1487.25 653.248 1488.09C658.598 1489.5 659.724 1491.47 659.724 1502.45C659.724 1510.05 661.132 1515.4 663.103 1516.25C665.074 1516.81 663.102 1517.37 658.879 1517.65C654.655 1517.65 646.209 1521.03 640.015 1524.97C633.821 1528.63 628.471 1530.89 627.908 1529.48C627.626 1528.35 620.306 1523.85 596.373 1512.02L511.063 1512.02C444.897 1512.02 426.033 1511.46 426.033 1508.64C426.033 1506.67 427.159 1501.04 431.664 1486.96L504.024 1485.84C544.005 1485.28 592.432 1485.28 611.859 1485.84ZM718.851 1484.43C728.987 1484.15 745.317 1485.56 755.453 1487.25C765.589 1488.94 776.57 1490.34 779.948 1490.06C783.608 1489.78 786.424 1490.91 786.424 1492.6C786.424 1494 781.919 1497.38 776.57 1500.2C766.997 1504.98 766.997 1505.27 770.938 1513.71C773.191 1518.22 780.23 1526.95 797.968 1544.68H922.979L937.619 1552.29C945.785 1556.51 954.794 1559.89 957.328 1559.89C960.707 1559.89 963.053 1562.98 964.367 1569.18C965.775 1574.25 966.62 1584.38 966.62 1605.22L903.27 1604.37C868.357 1604.09 839.637 1604.66 839.074 1605.78C838.793 1606.91 830.628 1608.32 821.055 1608.6C811.482 1608.88 804.443 1610.29 805.006 1611.41C805.569 1612.54 803.036 1614.23 799.094 1615.07C795.152 1615.64 790.647 1615.64 789.24 1615.07C787.55 1614.23 786.424 1614.79 786.424 1616.48C786.424 1617.89 781.638 1620.7 775.725 1622.67C770.094 1624.36 764.181 1625.77 763.055 1625.49C761.929 1624.93 761.083 1625.77 761.083 1626.9C761.083 1628.02 756.016 1632.53 749.822 1636.75C743.628 1640.98 736.87 1643.79 734.899 1642.95C732.647 1642.1 730.676 1628.59 729.268 1598.74C727.86 1574.81 725.045 1550.88 722.792 1544.4C720.54 1538.21 716.035 1529.48 712.938 1524.97C709.559 1520.19 700.549 1511.74 693.229 1505.83C685.627 1499.92 679.714 1493.72 680.278 1491.75C680.841 1489.78 685.627 1487.53 690.977 1486.4C696.045 1485.56 708.715 1484.71 718.851 1484.43ZM1061.5 1513.71C1062.07 1530.61 1062.07 1559.61 1061.5 1578.47C1060.94 1597.05 1060.66 1582.97 1060.66 1547.5C1060.66 1511.74 1060.94 1496.54 1061.5 1513.71ZM2658.77 1488.37C2664.12 1488.94 2672 1489.5 2676.23 1489.5C2680.45 1489.5 2683.55 1490.62 2682.98 1491.75C2682.42 1492.88 2676.79 1494.85 2670.31 1495.97C2663.84 1497.1 2655.11 1499.92 2650.89 1502.17C2646.66 1504.14 2639.06 1510.33 2633.99 1515.4C2628.36 1521.03 2623.01 1530.61 2620.48 1539.05C2618.23 1546.65 2616.54 1564.11 2616.54 1577.63C2616.54 1595.36 2615.41 1602.4 2612.88 1602.4C2610.62 1602.4 2608.65 1594.52 2606.96 1579.03C2605.55 1566.36 2604.71 1551.16 2604.99 1545.25C2604.99 1539.33 2607.24 1529.76 2609.5 1523.57C2611.75 1517.09 2614.85 1512.3 2616.54 1512.3C2617.94 1512.3 2618.79 1511.18 2618.22 1510.05C2617.38 1508.93 2618.51 1506.11 2620.2 1503.58C2622.17 1501.32 2626.67 1497.38 2630.61 1494.85C2634.56 1492.31 2640.19 1489.78 2643.28 1488.94C2646.38 1487.81 2653.42 1487.81 2658.77 1488.37ZM2838.4 1492.88C2867.4 1492.31 2922.31 1492.88 3030.7 1496.82L3029.01 1503.01C3027.61 1509.21 3028.17 1509.21 3055.76 1506.67L3060.83 1524.13C3063.93 1533.7 3067.02 1546.37 3069.84 1562.98H3049.29C3038.02 1562.98 3024.51 1564.67 3019.16 1566.64C3013.81 1568.33 3003.11 1574.81 2995.79 1580.44C2988.47 1586.35 2981.99 1589.73 2981.15 1588.32C2980.31 1586.64 2982 1581.85 2984.81 1577.63C2987.91 1573.4 2994.66 1565.8 3000.3 1560.73C3006.21 1555.38 3014.94 1550.88 3030.42 1548.91L3028.17 1533.14C3026.48 1520.75 3027.04 1516.81 3030.42 1514.84C3033.24 1512.87 3031.27 1512.59 3023.38 1513.71C3017.19 1514.56 3005.08 1517.37 2996.64 1519.91C2988.19 1522.44 2974.96 1529.48 2967.64 1535.39C2960.32 1541.02 2950.46 1552 2945.96 1559.32C2941.17 1566.64 2936.1 1579.03 2934.13 1586.92C2931.88 1596.77 2931.6 1624.08 2932.72 1681.24C2933.85 1725.16 2935.54 1780.63 2938.92 1846.51L2914.98 1849.89L2914.14 1932.39C2913.58 1978.84 2913.01 1955.19 2913.01 1878.05C2912.73 1780.91 2911.89 1737.27 2909.35 1726.01C2907.38 1717.56 2902.31 1702.92 2898.09 1693.63C2893.87 1684.62 2885.42 1669.13 2879.23 1659.84C2872.75 1650.83 2862.05 1638.16 2855.29 1631.97C2848.54 1625.77 2835.59 1617.61 2826.29 1613.38C2817 1609.16 2801.24 1604.09 2791.1 1601.84C2779.27 1599.31 2754.78 1597.9 2722.12 1597.9C2691.43 1597.9 2670.59 1597.05 2669.47 1595.08C2668.34 1593.67 2668.06 1585.51 2668.9 1576.78C2669.75 1568.33 2671.44 1557.35 2672.57 1552.29C2674.54 1544.68 2676.51 1542.99 2685.8 1541.3C2691.71 1540.46 2710.01 1540.18 2726.34 1541.02C2743.8 1541.87 2765.76 1545.25 2804.9 1555.66L2810.81 1550.03C2814.75 1546.37 2816.72 1541.02 2816.72 1533.14C2816.72 1524.13 2815.31 1520.75 2808.84 1515.68C2804.61 1512.3 2794.76 1506.67 2787.16 1503.01C2775.33 1497.66 2774.21 1496.54 2779.56 1495.13C2783.22 1494.57 2809.68 1493.44 2838.4 1492.88ZM706.744 1597.9C707.307 1610.29 707.307 1631.4 706.744 1644.35C706.181 1657.59 705.899 1647.45 705.899 1621.83C705.899 1596.49 706.181 1585.79 706.744 1597.9ZM627.345 1584.1C628.753 1584.38 633.258 1590.01 644.238 1609.16V1759.79C644.238 1842.85 643.957 1906.76 642.549 1893.53L594.121 1890.15C567.374 1887.9 534.431 1885.37 495.858 1882.27L486.004 1866.78C480.655 1858.34 469.392 1837.5 461.227 1820.33C452.78 1803.43 442.644 1780.06 438.702 1768.24C435.042 1756.69 429.13 1735.86 426.314 1721.78C423.217 1707.99 418.712 1683.21 416.46 1666.88C414.207 1650.83 411.673 1626.33 410.829 1612.82C409.703 1599.31 409.421 1588.04 409.703 1587.48C410.266 1587.2 458.693 1586.35 517.538 1585.51C576.383 1584.66 625.656 1584.1 627.345 1584.1ZM2967.64 1690.81C2968.2 1726.57 2968.2 1785.41 2967.64 1821.73C2967.35 1858.34 2966.79 1829.05 2966.79 1756.98C2966.79 1685.18 2967.35 1655.33 2967.64 1690.81ZM1875.2 1676.73C1875.76 1697.01 1875.76 1728.54 1875.2 1747.12C1874.92 1765.99 1874.36 1749.37 1874.36 1710.52C1874.36 1671.95 1874.92 1656.74 1875.2 1676.73ZM2135.08 1642.95C2205.46 1642.95 2233.9 1643.23 2198.43 1643.79C2162.67 1644.35 2105.23 1644.35 2070.32 1643.79C2035.4 1643.23 2064.69 1642.95 2135.08 1642.95ZM1179.19 1645.76C1303.08 1645.76 1354.32 1646.04 1293.22 1646.61C1232.13 1646.89 1130.77 1646.89 1067.98 1646.61C1005.19 1646.04 1055.31 1645.76 1179.19 1645.76ZM1740.05 1847.07C1740.62 1880.58 1740.62 1936.33 1740.05 1970.96C1739.77 2005.87 1739.21 1978.84 1739.21 1910.42C1739.21 1842.29 1739.77 1813.85 1740.05 1847.07ZM1905.89 1825.68C1906.45 1825.96 1907.3 1872.98 1907.86 1930.13C1908.42 1987.57 1908.42 2008.97 1906.73 1921.69L1881.67 1923.09L1881.68 1880.86C1881.68 1857.77 1880.83 1837.22 1880.27 1835.25C1879.14 1832.71 1881.39 1832.15 1887.87 1832.72C1893.78 1833.56 1898.57 1832.15 1901.1 1829.62C1903.36 1827.08 1905.33 1825.39 1905.89 1825.68ZM681.404 1921.69C681.967 1941.96 681.967 1975.46 681.404 1996.3C681.122 2017.42 680.559 2000.8 680.559 1959.7C680.559 1918.87 681.122 1901.7 681.404 1921.69ZM2922.59 1906.48C2925.4 1906.48 2933.29 1907.61 2940.32 1909.3C2947.36 1910.99 2954.4 1912.68 2956.37 1913.52C2958.63 1914.37 2959.19 1916.62 2957.78 1919.43C2956.65 1921.97 2950.18 1927.88 2943.14 1932.67C2936.1 1937.45 2928.78 1942.8 2926.81 1945.06C2924.56 1947.03 2922.02 1948.72 2921.18 1948.72C2920.05 1948.72 2918.64 1939.14 2918.36 1927.6C2917.52 1908.73 2918.08 1906.48 2922.59 1906.48Z" fill="#DFDFEE"/>
<path fill-rule="evenodd" clip-rule="evenodd" d="M2574.3 233.76L2572.61 240.236C2571.77 243.615 2570.36 402.412 2569.52 592.744C2568.67 783.076 2567.83 939.339 2567.54 939.62C2567.54 939.902 2514.05 939.057 2449.01 937.65C2383.97 936.242 2296.97 934.834 2255.3 934.834C2180.41 934.834 2180.12 934.834 2175.9 941.028C2173.65 944.688 2171.68 952.572 2171.68 958.766C2171.68 964.96 2173.09 971.718 2175.06 973.407C2177.03 975.378 2178.15 977.63 2177.31 978.475C2176.46 979.32 2168.3 980.728 2142.68 984.106L2144.37 972.844C2145.21 966.65 2146.9 954.543 2148.03 946.096C2148.87 937.65 2152.81 915.125 2156.47 895.979C2160.13 877.115 2163.23 857.406 2163.23 852.338C2163.23 845.862 2160.98 841.076 2146.06 826.435L1945.59 827.28C1760.04 827.843 1744.56 828.124 1738.36 832.911C1734.7 835.445 1729.35 842.202 1726.54 847.552C1723.72 852.901 1718.09 870.076 1714.15 885.562C1709.93 901.047 1705.14 928.64 1700.07 979.883H1676.14L1678.96 970.592C1680.64 965.805 1681.77 955.951 1681.77 936.242L903.269 938.213L905.522 928.921C906.648 923.572 907.493 766.745 907.493 240.799L1479.9 239.955C1794.39 239.673 2145.21 238.265 2258.96 237.139C2372.71 235.731 2490.4 234.605 2574.3 233.76ZM1758.35 860.785L1777.22 862.474C1787.35 863.6 1869.01 864.445 2121 864.445L2119.59 872.329C2118.74 876.552 2115.93 892.038 2113.11 906.678C2110.58 921.319 2107.48 933.708 2106.08 934.271C2104.95 934.552 2097.35 934.834 2089.46 934.834C2074.54 934.834 2074.54 934.834 2063.28 910.902L1938.83 910.339C1819.45 909.494 1813.54 909.776 1801.43 915.125C1791.58 919.349 1787.07 920.193 1781.72 917.941C1776.09 915.688 1773.84 916.251 1770.46 920.193C1768.21 922.727 1763.14 934.552 1759.2 946.096C1755.26 957.64 1752.16 970.028 1752.16 973.689C1752.16 978.475 1750.47 979.883 1736.67 979.883L1738.93 953.698C1740.05 939.62 1742.87 917.659 1744.84 905.271C1747.09 892.882 1750.75 877.678 1753.57 871.766L1758.35 860.785ZM2028.65 943.844C2032.87 943.281 2033.72 945.815 2033.72 982.698L2020.2 982.417C2012.88 982.135 2009.78 981.572 2013.16 981.009C2019.36 979.883 2019.64 979.883 2009.78 960.456L1985.85 959.611C1972.62 959.048 1934.04 958.766 1838.03 959.329L1835.78 968.058C1834.09 975.66 1834.66 977.349 1840 979.601C1845.64 982.135 1845.35 982.417 1826.77 982.698V946.096L1925.32 945.252C1979.37 944.97 2026.11 944.407 2028.65 943.844ZM1924.47 1010.85C2177.59 1010.85 2194.48 1011.14 2198.71 1015.64C2202.93 1020.43 2202.93 1020.71 2197.3 1022.68C2193.92 1024.09 2068.35 1025.21 1918.28 1025.49C1646.29 1026.34 1645.17 1026.34 1646.86 1020.71C1647.98 1017.61 1649.95 1014.23 1651.93 1013.11C1653.62 1011.98 1776.37 1010.85 1924.47 1010.85ZM1755.26 1041.26C1799.18 1041.54 1841.98 1042.39 1850.7 1042.67C1859.15 1043.23 1822.83 1043.8 1769.62 1044.08C1716.68 1044.36 1673.89 1043.8 1674.45 1042.39C1675.01 1041.26 1711.33 1040.7 1755.26 1041.26ZM2137.05 1040.42C2157.6 1040.42 2174.49 1041.26 2174.49 1042.39C2174.49 1043.8 2133.67 1044.36 2083.55 1044.08C2002.18 1043.51 1998.52 1043.23 2046.39 1041.83C2075.67 1040.98 2116.49 1040.42 2137.05 1040.42ZM1382.48 1095.6C1383.04 1095.32 1383.32 1100.11 1383.32 1116.44L1366.99 1120.1C1358.26 1122.07 1349.82 1122.91 1348.69 1121.51C1347.28 1120.38 1354.32 1113.9 1364.18 1107.43C1373.75 1100.95 1382.2 1095.6 1382.48 1095.6ZM1746.25 1357.73C1749.91 1358.58 1750.75 1363.92 1751.31 1388.98C1751.88 1405.6 1751.03 1419.11 1749.91 1419.11C1748.78 1419.39 1745.97 1417.14 1743.71 1414.6C1741.18 1412.07 1736.96 1408.69 1733.86 1407C1730.76 1405.31 1721.47 1402.5 1698.1 1397.99L1704.58 1389.83C1709.93 1383.35 1712.74 1381.94 1719.78 1383.35C1724.29 1384.2 1730.48 1385.6 1733.01 1386.45C1737.24 1387.86 1738.36 1385.6 1740.05 1372.37C1741.46 1360.55 1742.87 1357.17 1746.25 1357.73ZM1907.02 1357.17H1929.82L1930.95 1405.88L1921.09 1410.1C1915.46 1412.35 1910.11 1415.45 1908.99 1417.42C1907.86 1419.11 1907.02 1406.16 1907.02 1388.7V1357.17ZM1586.04 1359.98H1602.93V1402.22H1586.04V1359.98ZM1515.65 1429.25C1538.18 1429.53 1586.89 1431.5 1624.05 1433.19C1661.22 1435.16 1692.19 1437.13 1693.03 1437.69C1693.88 1438.54 1693.88 1439.66 1693.03 1440.23C1692.19 1441.07 1688.53 1442.2 1684.59 1443.04C1680.64 1443.89 1588.29 1445.29 1479.05 1446.14C1369.81 1446.98 1279.43 1448.67 1278.3 1449.52C1277.18 1450.64 1276.33 1455.99 1276.89 1461.34C1277.46 1468.95 1279.15 1471.48 1284.78 1473.17C1288.72 1474.01 1353.48 1475.14 1566.33 1475.42L1579.57 1490.06C1586.89 1497.95 1595.05 1507.8 1597.59 1511.74C1599.84 1515.96 1604.06 1525.54 1606.6 1533.14C1609.41 1541.02 1612.51 1560.45 1615.6 1605.22L1591.67 1604.94L1593.64 1577.63C1595.05 1555.66 1594.49 1547.5 1590.83 1537.36C1588.29 1530.04 1581.54 1520.47 1574.22 1513.71C1567.46 1507.52 1555.07 1499.35 1531.14 1488.09L1405.85 1486.68C1336.86 1485.56 1278.02 1484.15 1274.92 1483.3C1271.83 1482.46 1238.04 1481.33 1199.75 1480.77C1133.58 1479.93 1130.2 1479.93 1124.29 1485.28C1120.91 1488.37 1116.13 1494.57 1114.15 1498.79C1111.34 1504.42 1109.93 1520.47 1109.37 1555.66C1108.8 1604.66 1108.8 1604.94 1096.13 1604.94L1096.7 1542.43C1097.54 1481.33 1097.54 1479.36 1104.58 1467.54C1108.52 1460.78 1116.69 1451.49 1122.88 1446.98C1129.08 1442.48 1139.78 1437.41 1146.81 1436C1153.85 1434.6 1199.47 1433.19 1248.17 1432.91C1296.88 1432.91 1367.84 1431.78 1405.85 1430.65C1443.86 1429.53 1493.13 1428.96 1515.65 1429.25ZM2249.11 1434.6C2452.39 1434.88 2460.55 1435.16 2484.2 1445.86L1942.21 1446.98L1932.36 1455.15C1927.01 1459.65 1918.84 1470.07 1914.34 1478.52C1906.17 1493.44 1905.89 1495.13 1901.95 1603.53L1902.51 1545.81C1902.79 1495.41 1903.35 1486.96 1907.86 1478.24C1910.96 1472.89 1916.59 1465 1920.53 1460.5C1924.75 1455.99 1931.79 1450.64 1936.58 1448.11C1941.08 1445.58 1948.69 1442.48 1953.47 1441.07C1957.98 1439.66 1979.09 1437.41 1999.93 1436.28C2020.76 1434.88 2132.82 1434.31 2249.11 1434.6ZM2208.84 1472.61C2344.83 1472.61 2456.05 1473.73 2456.05 1474.86C2456.05 1475.98 2454.36 1477.39 2452.39 1477.67C2450.42 1477.95 2339.77 1479.08 2206.03 1479.64C2054.27 1480.77 1960.51 1482.18 1956.29 1483.87C1952.06 1485.84 1948.97 1485.84 1948.97 1484.15C1948.69 1482.74 1951.5 1479.64 1955.16 1477.11C1961.07 1473.17 1989.51 1472.61 2208.84 1472.61ZM1633.91 1475.42C1664.03 1475.42 1689.94 1476.83 1693.03 1478.24C1696.13 1479.93 1698.66 1483.02 1698.66 1485.28C1698.66 1488.65 1696.69 1489.22 1690.78 1487.81C1686.56 1486.68 1661.5 1485.56 1635.31 1485.28C1608.85 1484.99 1585.76 1483.87 1583.79 1483.02C1581.82 1481.9 1580.41 1479.93 1580.41 1478.24C1580.41 1476.55 1600.12 1475.42 1633.91 1475.42ZM2481.95 1501.61C2483.08 1501.04 2486.46 1504.98 2488.99 1510.05C2492.65 1517.09 2493.78 1527.23 2494.34 1552.85C2494.62 1571.43 2494.34 1580.16 2493.78 1571.99C2492.65 1558.76 2491.52 1556.23 2481.95 1548.63C2476.32 1544.12 2465.06 1538.21 2457.46 1535.39C2447.32 1532.01 2434.09 1530.61 2411 1530.61C2380.03 1530.32 2378.06 1530.89 2367.36 1538.21C2356.66 1545.53 2354.97 1545.81 2315.27 1541.59L2316.96 1548.63C2318.65 1554.82 2317.8 1554.54 2312.17 1546.09C2308.51 1540.74 2299.79 1532.58 2280.92 1519.06L2193.08 1517.09C2144.93 1515.96 2101.01 1515.68 2095.66 1516.53C2090.31 1517.65 2083.83 1519.06 2081.58 1519.91C2078.58 1521.03 2078.11 1520.56 2080.17 1518.5C2081.58 1516.81 2090.59 1513.15 2099.88 1510.33C2114.8 1506.11 2135.92 1505.27 2298.38 1503.86C2398.33 1502.73 2480.83 1501.89 2481.95 1501.61ZM1434 1505.27C1512.56 1505.27 1520.44 1505.83 1528.32 1510.62C1532.83 1513.43 1539.58 1518.5 1543.25 1521.6C1546.62 1524.97 1549.44 1529.76 1549.44 1532.58C1549.44 1535.39 1545.22 1539.62 1539.3 1542.43C1531.14 1546.37 1528.6 1546.65 1523.82 1543.84C1519.03 1540.74 1518.47 1541.02 1518.47 1545.81C1518.47 1548.91 1517.34 1551.72 1516.22 1551.72C1515.09 1551.72 1509.46 1549.75 1503.55 1547.5C1495.1 1543.84 1477.92 1542.99 1409.22 1543.28C1347.28 1543.28 1323.63 1544.12 1318.56 1546.65C1314.62 1548.63 1310.96 1552.85 1310.68 1555.95C1310.12 1559.04 1312.09 1563.83 1315.19 1566.93C1319.97 1571.71 1320.53 1575.09 1317.16 1605.5L1305.89 1603.81C1299.7 1602.68 1294.35 1601.56 1293.79 1601.28C1293.51 1600.99 1292.94 1586.92 1292.66 1569.74C1291.82 1542.99 1292.66 1537.36 1297.73 1527.51C1301.11 1521.31 1305.89 1514.56 1308.71 1512.02C1311.52 1509.77 1321.38 1507.24 1330.95 1506.39C1340.24 1505.83 1386.7 1505.27 1434 1505.27ZM2532.07 1514.84H2542.49C2552.9 1514.84 2553.19 1515.12 2555.16 1528.35C2556.56 1535.67 2557.41 1555.38 2557.41 1602.12L2527.85 1602.4L2529.82 1580.44C2531.22 1568.33 2532.07 1548.91 2532.07 1536.8V1514.84ZM2064.97 1526.1C2066.09 1526.1 2063.56 1530.89 2059.34 1536.52C2054.83 1542.43 2049.76 1551.72 2048.07 1557.07C2046.39 1562.42 2044.98 1570.59 2044.98 1575.37C2044.98 1579.88 2044.13 1588.04 2043.01 1593.11C2041.04 1600.99 2039.63 1602.12 2022.45 1602.12V1586.64C2022.45 1575.65 2023.86 1569.74 2027.52 1566.08C2030.05 1563.55 2034.28 1556.79 2036.53 1551.44C2038.78 1546.09 2045.82 1538.21 2051.73 1533.98C2057.93 1529.76 2063.84 1526.1 2064.97 1526.1ZM1946.43 1542.99H1988.67L1986.98 1556.23C1986.13 1563.83 1984.72 1575.37 1983.88 1582.41C1983.04 1589.45 1981.91 1593.39 1981.35 1591.42C1980.5 1589.45 1975.15 1588.04 1966.71 1588.04C1957.98 1588.32 1952.35 1586.92 1949.81 1583.82C1948.12 1581.57 1946.71 1577.34 1947.28 1574.53C1947.56 1571.71 1951.22 1568.9 1964.73 1566.08L1955.44 1565.8C1946.71 1565.52 1946.43 1564.96 1946.43 1554.26V1542.99ZM2101.57 1563.83C2102.98 1565.52 2104.1 1574.81 2104.1 1602.12H2081.58L2081.86 1590.01C2081.86 1583.54 2083.27 1575.09 2084.4 1571.15C2085.8 1567.49 2089.46 1563.55 2092.84 1562.7C2096.5 1561.58 2100.16 1562.42 2101.57 1563.83ZM2396.92 1600.43C2439.44 1600.43 2456.61 1600.99 2434.93 1601.28C2413.25 1601.84 2378.34 1601.84 2357.5 1601.28C2336.67 1600.99 2354.41 1600.43 2396.92 1600.43ZM1693.6 1610.57C1701.2 1610.57 1701.48 1611.13 1699.79 1620.99C1698.95 1626.9 1697.54 1632.25 1696.97 1633.09C1696.41 1633.94 1690.5 1630.84 1671.92 1618.17L1678.96 1614.51C1682.9 1612.54 1689.37 1610.57 1693.6 1610.57ZM876.521 1696.44C894.26 1697.29 941.842 1697.85 982.105 1698.13C1022.37 1698.41 1177.22 1698.41 1326.17 1698.13C1501.86 1697.85 1599.27 1698.69 1602.93 1700.67C1606.03 1702.07 1609.69 1705.73 1611.1 1708.27C1613.35 1713.05 1606.31 1713.34 1473.7 1712.49C1337.15 1711.93 1334.05 1711.65 1329.83 1706.02C1325.6 1700.38 1322.79 1700.38 1194.68 1700.38C1111.9 1700.67 1060.1 1701.79 1053.9 1703.48C1048.55 1705.17 1032.5 1707.14 1018.71 1707.99C1004.63 1708.55 959.017 1710.24 917.347 1711.65C853.152 1713.34 839.638 1714.46 831.473 1718.69C826.123 1721.5 817.395 1728.26 803.317 1744.31L805.288 1734.45C806.133 1729.1 809.23 1719.81 812.045 1713.9C816.269 1705.45 819.929 1702.64 830.628 1699.26C840.482 1696.44 853.152 1695.6 876.521 1696.44Z" fill="white"/>
<path fill-rule="evenodd" clip-rule="evenodd" d="M603.413 306.965C609.326 306.965 612.704 308.936 614.957 313.441C616.928 316.819 617.491 324.421 616.364 330.897C615.52 337.091 612.986 343.849 611.296 345.82C609.326 347.79 604.539 349.48 600.597 349.48C596.656 349.198 591.869 347.79 589.898 345.82C587.927 343.849 586.238 337.091 586.238 330.897C585.956 324.421 587.927 316.819 590.743 313.159C593.558 309.217 598.345 306.965 603.413 306.965ZM808.667 1503.58C812.89 1503.58 817.677 1504.98 819.648 1506.96C821.619 1508.93 823.026 1512.87 823.026 1515.4C823.026 1518.22 819.929 1522.44 815.987 1524.69C809.793 1528.35 808.104 1528.35 801.91 1524.69C797.968 1522.44 794.589 1518.22 794.308 1515.4C794.026 1512.59 795.434 1508.93 797.686 1506.96C799.939 1504.98 804.725 1503.58 808.667 1503.58ZM1217.77 1669.13C1571.68 1669.69 1614.48 1670.26 1628.28 1674.2C1640.38 1677.86 1647.42 1682.36 1659.53 1694.75C1672.76 1707.99 1676.42 1713.9 1681.49 1730.23C1687.4 1749.37 1687.4 1753.88 1687.4 1916.9C1687.4 2072.04 1687.12 2083.86 1682.33 2088.09C1679.52 2090.62 1674.17 2092.03 1669.1 2091.46C1662.63 2090.9 1659.53 2088.09 1655.59 2080.77C1651.64 2073.16 1650.52 2063.59 1650.24 2037.12C1650.24 2018.54 1649.67 1943.08 1648.55 1735.86L1640.38 1724.88C1636.16 1718.68 1628.84 1711.08 1624.33 1707.99C1618.7 1703.76 1615.89 1703.2 1615.32 1705.73C1614.48 1707.99 1610.82 1706.86 1593.08 1694.47L1324.2 1697.01C1176.38 1698.13 1049.68 1698.98 1042.64 1698.98C1035.6 1698.69 989.426 1697.57 939.872 1696.44C860.755 1694.47 847.803 1694.75 833.444 1698.98C820.211 1702.64 816.55 1705.17 812.609 1712.77C810.075 1717.56 806.978 1726.29 805.288 1731.64C803.88 1736.99 801.91 1812.72 800.783 1899.73C799.094 2053.74 798.812 2058.24 793.463 2062.18C790.366 2064.72 785.579 2066.69 782.764 2066.69C780.23 2066.69 775.443 2064.15 772.346 2061.06C766.715 2055.43 766.715 2052.05 768.123 1724.6L775.725 1708.55C780.23 1698.98 788.395 1688.28 794.871 1683.21C800.783 1678.14 809.793 1672.51 814.298 1671.1C819.929 1669.13 960.144 1668.57 1217.77 1669.13ZM2726.91 1667.44C2744.08 1667.16 2754.78 1668.29 2761.54 1671.1C2766.89 1673.35 2777.3 1680.67 2784.62 1687.43C2791.66 1693.91 2799.83 1704.33 2802.64 1710.52C2807.43 1720.94 2807.99 1732.76 2807.99 1879.45C2807.99 2015.44 2807.43 2037.97 2803.77 2043.6C2801.24 2047.26 2797.29 2049.51 2793.35 2049.23C2789.97 2048.67 2784.34 2044.44 2781.25 2039.94C2776.46 2033.18 2775.05 2025.02 2773.36 1999.11C2772.24 1981.38 2771.39 1916.06 2771.39 1854.11C2771.11 1776.97 2769.98 1736.14 2767.73 1724.6C2764.35 1708.55 2763.51 1707.42 2739.01 1695.03L2021.05 1694.75L2012.88 1701.23C2008.38 1704.89 2002.46 1712.21 2000.21 1717.56C1996.27 1726.01 1995.71 1750.5 1994.3 2076.54L1987.82 2083.02C1984.44 2086.4 1979.66 2089.21 1977.4 2089.21C1975.15 2089.21 1970.37 2087.24 1960.51 2080.77V1906.2C1960.51 1738.68 1960.79 1731.07 1966.14 1716.71C1969.24 1708.83 1975.72 1697.57 1980.78 1691.94C1985.85 1686.59 1994.58 1679.55 1999.93 1676.45C2009.5 1671.38 2020.76 1671.1 2356.1 1669.69C2546.43 1668.85 2713.39 1668 2726.91 1667.44ZM1194.68 1701.51C1319.69 1702.07 1328.42 1702.35 1328.98 1707.14C1329.54 1710.8 1327.86 1711.93 1320.82 1711.93C1315.75 1711.93 1307.3 1712.77 1302.23 1713.9C1297.17 1715.31 1293.22 1717 1293.22 1718.4C1293.22 1719.53 1296.32 1720.37 1300.26 1720.37C1304.2 1720.37 1318.28 1725.72 1332.08 1732.2C1347.28 1739.52 1362.49 1749.37 1372.06 1758.67C1382.2 1767.96 1390.64 1779.5 1404.44 1809.06V1943.08C1404.44 2073.44 1404.16 2077.67 1398.81 2083.3C1395.71 2086.68 1389.8 2089.49 1385.57 2089.21C1380.51 2089.21 1376 2086.96 1373.47 2083.02C1369.81 2077.67 1368.68 2055.43 1364.74 1817.51L1357.7 1803.43C1353.48 1795.27 1345.31 1785.41 1337.99 1780.06C1331.23 1775 1319.41 1768.8 1311.53 1766.27C1299.98 1762.61 1276.61 1761.76 1177.79 1760.64C1095.01 1759.51 1054.46 1760.07 1046.3 1762.33C1038.98 1764.3 1029.12 1770.21 1021.24 1777.53C1013.92 1784.01 1005.47 1794.42 1002.1 1800.62C996.465 1811.6 996.183 1815.82 994.775 1949.28C993.649 2067.25 992.804 2086.96 989.144 2089.21C986.892 2090.9 981.824 2091.46 977.882 2090.34C973.94 2089.49 969.717 2087.52 968.027 2086.11C966.62 2084.43 964.367 2070.91 962.959 2055.99C961.833 2041.07 959.862 1985.04 958.736 1931.54C957.328 1878.05 957.328 1825.68 958.736 1814.7C960.144 1801.46 964.086 1788.51 970.561 1775.28C977.319 1761.48 985.202 1751.06 996.465 1740.36C1005.76 1732.2 1018.71 1722.06 1025.75 1718.12C1032.79 1714.18 1039.26 1709.96 1040.39 1708.83C1041.51 1707.7 1046.58 1705.45 1051.65 1704.04C1057.28 1702.35 1111.62 1701.23 1194.68 1701.51ZM2564.45 1703.48C2565.29 1703.48 2570.92 1706.01 2577.12 1709.11C2583.31 1712.21 2594.29 1720.09 2601.33 1726.85C2608.65 1733.33 2616.25 1742.05 2618.22 1746.56C2620.48 1750.78 2622.17 1756.41 2622.17 1759.23C2622.17 1762.33 2619.91 1760.35 2616.25 1754.16C2612.88 1748.81 2605.84 1739.52 2600.21 1733.61C2594.29 1727.69 2583.88 1719.25 2576.55 1714.46C2568.95 1709.96 2563.04 1705.73 2563.04 1704.89C2563.04 1704.04 2563.6 1703.48 2564.45 1703.48ZM2402.55 1709.39C2483.08 1709.39 2500.25 1709.96 2519.4 1714.18C2531.79 1717 2548.68 1723.19 2557.13 1727.69C2565.29 1732.2 2576.55 1740.65 2581.62 1746.56C2586.97 1752.19 2594.57 1763.73 2606.68 1786.54L2605.84 1904.79C2604.99 2009.25 2604.43 2024.17 2600.21 2032.9C2596.55 2040.5 2593.45 2043.04 2586.97 2043.6C2582.47 2044.16 2577.12 2043.04 2575.71 2041.35C2574.02 2039.38 2572.33 1990.67 2570.08 1788.79L2562.76 1779.22C2558.82 1773.87 2549.53 1766.83 2542.49 1763.45C2534.04 1759.23 2523.9 1756.98 2515.18 1756.98C2503.07 1756.98 2501.1 1757.82 2501.1 1762.61C2501.1 1766.83 2499.97 1767.68 2496.31 1766.27C2493.5 1764.86 2451.26 1763.73 2402.55 1763.17C2316.12 1762.61 2313.3 1762.61 2297.25 1768.8C2281.2 1775 2280.08 1776.12 2266 1809.06L2264.59 1943.08C2263.18 2072.6 2262.9 2077.67 2257.55 2083.3C2254.46 2086.68 2248.82 2089.49 2244.88 2089.49C2240.94 2089.49 2235.59 2087.24 2232.78 2084.43C2227.99 2079.64 2227.71 2069.78 2226.58 1794.99L2235.03 1778.37C2240.1 1768.24 2248.82 1757.26 2256.99 1750.22C2264.59 1743.74 2276.7 1733.61 2283.74 1727.13C2291.06 1720.66 2299.5 1714.18 2302.6 1712.49C2306.54 1710.24 2338.08 1709.39 2402.55 1709.39Z" fill="#2929CF"/>
<path fill-rule="evenodd" clip-rule="evenodd" d="M2571.49 191.527V233.76L2463.65 235.168C2404.52 236.013 2174.21 237.984 1952.06 239.392C1729.92 241.081 1419.36 242.207 1262.25 242.207C1105.14 242.207 960.988 241.362 907.21 237.984L908.9 195.75L1512.84 194.343C1845.07 193.498 2218.98 192.653 2571.49 191.527ZM2570.64 482.937C2571.2 551.074 2571.2 661.443 2570.64 727.891C2570.36 794.338 2570.08 738.871 2570.08 604.006C2570.08 469.141 2570.36 414.801 2570.64 482.937ZM2066.09 826.153C2107.76 826.153 2125.5 826.717 2105.51 826.998C2085.24 827.561 2051.17 827.561 2029.49 826.998C2007.81 826.717 2024.14 826.153 2066.09 826.153ZM2570.64 871.484C2571.2 883.872 2571.2 904.708 2570.64 917.941C2570.36 931.174 2569.8 921.038 2569.8 895.416C2569.8 869.795 2570.36 859.095 2570.64 871.484ZM1946.43 863.037C2037.09 863.037 2073.7 863.319 2028.08 863.6C1982.47 864.163 1908.42 864.163 1863.37 863.6C1818.32 863.319 1855.77 863.037 1946.43 863.037ZM1783.41 918.785C1790.17 921.319 1791.86 923.29 1790.45 927.795C1789.61 930.892 1788.76 944.407 1788.76 982.698L1771.02 981.854C1754.69 981.291 1753.57 980.728 1752.72 974.252C1752.44 970.31 1755.26 957.64 1759.2 946.096C1763.14 934.552 1768.21 922.727 1770.74 920.193C1774.12 916.251 1776.09 915.97 1783.41 918.785ZM1633.91 935.96C1660.93 935.96 1671.63 936.523 1657.84 936.805C1643.76 937.368 1621.8 937.368 1608.57 936.805C1595.33 936.523 1606.88 935.96 1633.91 935.96ZM2073.41 934.552L2109.73 936.242L2108.05 955.951C2107.2 966.931 2105.79 977.349 2105.23 979.038C2104.67 981.291 2098.47 982.698 2073.13 982.698L2073.41 934.552ZM2277.26 936.242C2331.32 936.242 2353 936.523 2325.12 937.086C2297.25 937.368 2252.76 937.368 2226.58 937.086C2200.11 936.523 2222.92 936.242 2277.26 936.242ZM1903.07 959.048C1938.55 959.048 1977.12 959.329 2009.78 960.174L2019.64 979.883L2010.35 981.291C2005.56 982.135 1966.42 982.417 1923.91 982.135C1881.39 982.135 1843.67 980.728 1840 979.601C1835.22 977.63 1834.09 975.66 1835.5 970.873C1836.34 967.213 1837.47 963.271 1838.03 961.582C1838.31 959.892 1862.25 958.766 1903.07 959.048ZM1917.43 1025.49C2105.79 1026.06 2150.84 1026.62 2070.32 1027.75C1981.06 1028.87 1963.33 1029.72 1988.67 1031.41C2006.4 1032.53 2058.77 1033.94 2104.67 1034.79C2176.74 1035.91 2188.57 1036.76 2188.57 1040.42C2188.57 1042.95 2185.75 1044.64 2181.53 1044.64C2177.59 1044.64 2174.49 1043.8 2174.49 1042.67C2174.49 1041.26 2157.6 1040.7 2137.05 1040.98C2116.77 1041.26 2075.67 1041.83 2046.38 1042.11C2005.56 1042.67 1998.24 1043.23 2015.41 1044.64C2027.8 1045.77 1990.92 1046.33 1933.76 1046.33C1876.32 1046.61 1837.75 1045.77 1847.89 1044.64C1858.02 1043.8 1823.96 1042.39 1771.87 1041.83C1711.61 1040.98 1675.86 1041.54 1672.76 1043.23C1670.23 1044.92 1667.13 1045.2 1666.28 1044.08C1665.44 1042.67 1665.44 1040.7 1666.28 1039.01C1667.13 1037.32 1687.4 1035.63 1713.3 1034.5C1738.64 1033.66 1761.17 1031.69 1763.42 1030.28C1765.96 1028.59 1745.96 1028.03 1709.08 1028.31C1676.98 1028.87 1650.8 1028.31 1650.8 1027.18C1650.8 1025.78 1770.74 1025.21 1917.43 1025.49ZM1378.25 1118.13C1383.04 1117.85 1383.32 1126.29 1383.32 1402.22H1349.53V1265.66C1349.53 1190.49 1348.69 1127.14 1347.28 1124.88C1345.87 1121.51 1346.72 1120.94 1350.94 1122.07C1354.04 1122.91 1360.23 1122.35 1365.02 1120.94C1369.52 1119.53 1375.72 1118.13 1378.25 1118.13ZM1742.3 1357.17L1740.05 1371.81C1738.64 1379.97 1737.52 1387.01 1737.24 1387.29C1736.95 1387.58 1731.04 1386.17 1724.28 1384.48C1712.46 1381.1 1711.9 1381.38 1697.54 1397.99L1707.39 1399.68C1712.74 1400.81 1691.34 1401.65 1602.93 1402.22V1359.98L1593.64 1359.14C1588.86 1358.58 1620.11 1357.73 1742.3 1357.17ZM1930.1 1356.32L1960.23 1358.29C1976.56 1359.14 2004.43 1359.98 2053.42 1359.98L2052.02 1402.22L1996.27 1403.06C1965.86 1403.34 1938.55 1403.62 1935.73 1403.62C1931.51 1403.62 1930.95 1400.53 1930.67 1379.97L1930.1 1356.32ZM1337.99 1473.73C1365.02 1473.73 1376 1474.29 1361.92 1474.86C1348.13 1475.14 1325.88 1475.14 1312.65 1474.86C1299.42 1474.29 1310.96 1473.73 1337.99 1473.73ZM1636.44 1473.73C1662.06 1473.73 1672.76 1474.29 1660.37 1474.86C1647.98 1475.14 1627.15 1475.14 1613.92 1474.86C1600.68 1474.29 1610.82 1473.73 1636.44 1473.73ZM1174.69 1479.64C1195.52 1480.49 1226.78 1481.33 1243.67 1481.62C1260.84 1481.9 1282.24 1483.59 1291.53 1485.28C1301.39 1487.53 1305.33 1488.94 1300.83 1489.22C1296.6 1489.5 1289 1493.16 1283.93 1497.66C1278.86 1502.17 1270.98 1512.59 1266.48 1520.75C1258.87 1534.55 1258.03 1539.33 1254.93 1604.94H1109.93L1108.24 1593.11C1107.4 1586.35 1107.4 1571.43 1108.24 1559.89C1109.09 1548.34 1109.93 1531.17 1109.93 1521.88C1109.93 1508.93 1111.34 1502.73 1116.41 1495.13C1120.07 1489.78 1126.26 1483.59 1129.92 1481.62C1134.99 1478.8 1145.97 1478.24 1174.69 1479.64ZM2065.81 1481.33L2050.33 1487.53C2039.63 1491.75 2028.65 1499.35 2014.29 1513.43C2003.02 1524.13 1993.17 1535.39 1992.61 1538.21C1991.48 1542.15 1987.82 1542.99 1946.15 1542.99L1947 1515.68C1947.56 1489.5 1947.84 1488.09 1954.6 1484.71C1959.67 1482.18 1977.12 1481.33 2065.81 1481.33ZM1623.77 1484.43C1639.26 1484.15 1662.06 1484.99 1674.45 1486.4C1691.06 1488.37 1697.54 1488.09 1699.23 1485.84C1700.35 1483.87 1701.2 1511.18 1701.2 1610.57H1694.16C1690.22 1610.57 1684.3 1611.98 1680.93 1613.66C1675.86 1616.2 1671.92 1615.92 1662.62 1612.26C1655.87 1609.72 1642.63 1606.91 1615.32 1604.37L1613.35 1575.94C1612.23 1560.17 1609.13 1541.02 1606.6 1533.14C1604.06 1525.54 1598.99 1514.56 1595.61 1509.21C1592.24 1503.86 1588.86 1496.54 1587.73 1493.16C1586.32 1488.37 1587.17 1486.4 1590.83 1485.84C1593.36 1485.28 1608.28 1484.71 1623.77 1484.43ZM1423.86 1504.7C1457.93 1504.7 1471.17 1505.27 1453.43 1505.83C1435.69 1506.11 1407.82 1506.11 1391.49 1505.83C1375.16 1505.27 1389.8 1504.7 1423.86 1504.7ZM1095.29 1535.96C1095.57 1550.03 1095.57 1571.43 1095.29 1583.82C1094.73 1596.21 1094.16 1584.95 1094.16 1558.48C1094.16 1532.29 1094.73 1522.16 1095.29 1535.96ZM2528.97 1512.02H2557.13L2556.84 1522.72C2556.28 1532.86 2556.28 1532.86 2555.44 1524.13C2554.31 1515.4 2553.75 1514.84 2531.79 1514.84L2530.1 1575.37L2528.97 1512.02ZM1553.38 1534.55C1556.2 1539.62 1557.6 1551.16 1557.6 1604.94H1316.87L1318.84 1588.89C1320.82 1574.81 1320.25 1571.71 1315.19 1566.93C1312.09 1563.83 1310.12 1558.76 1310.4 1555.66C1310.96 1552.57 1314.62 1548.63 1318.28 1546.65C1323.63 1544.12 1347.56 1542.99 1409.22 1542.99C1477.92 1542.99 1494.82 1543.84 1503.55 1547.22C1509.46 1549.75 1515.09 1551.44 1516.22 1551.44C1517.34 1551.44 1518.19 1548.91 1518.19 1545.81C1518.19 1541.02 1519.03 1540.74 1523.82 1543.84C1528.32 1546.65 1531.14 1546.37 1539.3 1542.43C1544.93 1539.62 1549.44 1535.11 1549.44 1532.58C1549.44 1528.63 1550.57 1529.2 1553.38 1534.55ZM2414.94 1530.04C2432.68 1530.61 2451.54 1533.14 2458.58 1535.67C2465.62 1538.21 2475.76 1543.84 2481.11 1548.34C2489.83 1555.38 2491.24 1558.48 2492.93 1572.84C2494.06 1582.13 2495.75 1591.98 2496.59 1595.08C2498.28 1600.71 2497.15 1600.71 2317.52 1600.71L2318.93 1589.45C2319.78 1583.26 2319.77 1570.31 2316.4 1542.43L2337.23 1544.12C2354.41 1545.53 2358.91 1545.25 2363.98 1541.02C2367.36 1538.49 2373.27 1534.55 2376.93 1532.3C2382.28 1529.48 2392.13 1528.92 2414.94 1530.04ZM2103.54 1568.33H2284.02L2284.86 1584.66C2285.43 1593.39 2285.71 1600.99 2285.71 1601.28C2285.71 1601.56 2244.88 1602.12 2105.23 1602.68L2103.54 1568.33ZM3044.22 1573.97C3057.45 1573.97 3069.84 1574.81 3071.81 1575.94C3074.34 1577.63 3076.03 1588.61 3077.16 1611.98C3078.29 1632.53 3077.44 1655.62 3075.47 1671.1C3073.5 1684.9 3066.46 1712.77 3059.7 1733.04C3052.95 1753.03 3041.97 1782.32 3034.93 1797.8C3028.17 1813.29 3015.78 1840.6 3007.9 1858.34C2999.73 1876.07 2992.69 1892.97 2991.85 1895.5C2991.29 1898.32 2989.6 1900.01 2987.91 1899.16C2986.22 1898.32 2985.09 1848.48 2985.09 1620.42L2994.38 1602.12C3000.01 1590.86 3006.77 1582.13 3011.84 1579.03C3018.31 1575.09 3026.2 1573.97 3044.22 1573.97ZM1984.16 1582.41C1985.01 1582.41 1985.57 1588.61 1985.57 1610.57H1975.71C1970.08 1610.57 1966.7 1609.44 1967.27 1607.75C1968.11 1606.06 1965.86 1605.5 1961.07 1606.63C1953.75 1608.03 1953.19 1607.47 1951.78 1588.04H1965.86C1974.87 1588.04 1980.5 1589.45 1981.35 1591.42C1981.91 1593.39 1982.47 1592.27 1982.75 1588.61C1982.75 1585.23 1983.6 1582.41 1984.16 1582.41ZM2070.04 1668C2095.66 1668 2106.36 1668.29 2093.97 1668.85C2081.58 1669.41 2060.74 1669.41 2047.51 1668.85C2034.56 1668.29 2044.7 1668 2070.04 1668ZM2638.78 1668C2673.69 1668 2687.77 1668.57 2669.75 1668.85C2652.01 1669.41 2623.57 1669.41 2606.4 1668.85C2589.51 1668.57 2604.15 1668 2638.78 1668ZM928.327 1696.16C956.201 1696.16 967.182 1696.44 952.259 1697.01C937.618 1697.57 914.812 1697.57 901.579 1697.01C888.628 1696.44 900.453 1696.16 928.327 1696.16ZM1482.99 1696.16C1544.93 1696.16 1569.71 1696.72 1537.9 1697.01C1506.36 1697.57 1455.68 1697.57 1425.27 1697.01C1395.15 1696.72 1421.05 1696.16 1482.99 1696.16ZM1616.73 1703.48C1618.42 1703.48 1623.49 1706.86 1628.56 1711.08C1633.34 1715.31 1639.82 1723.47 1642.92 1728.82C1648.83 1738.39 1648.83 1742.34 1649.11 1864.53C1649.11 1946.74 1648.26 1990.67 1646.29 1990.67C1644.89 1990.67 1617.58 1992.36 1585.76 1994.61C1554.23 1996.86 1509.18 1999.96 1485.81 2001.93C1462.72 2003.62 1435.13 2005.87 1406.13 2008.97L1404.16 1809.06L1395.71 1791.04C1390.36 1779.5 1381.91 1767.96 1371.78 1758.38C1362.2 1749.37 1347.28 1739.52 1331.8 1732.2C1318.28 1725.72 1303.92 1720.37 1299.98 1720.37C1296.32 1720.37 1292.94 1719.25 1292.94 1718.12C1292.94 1717 1297.17 1715.02 1302.23 1713.9C1307.3 1712.77 1374.59 1711.65 1452.02 1711.93C1529.45 1711.93 1597.87 1712.77 1603.78 1714.18C1610.54 1715.31 1614.48 1715.02 1613.92 1713.34C1613.63 1711.65 1613.63 1708.83 1613.63 1706.86C1613.92 1704.89 1615.32 1703.48 1616.73 1703.48ZM1026.31 1706.58C1029.12 1706.58 1033.35 1707.14 1036.16 1707.99C1039.82 1709.39 1037.85 1711.36 1026.87 1717.56C1019.27 1721.78 1006.04 1731.64 997.308 1739.24C988.862 1747.12 977.881 1760.64 973.094 1769.93C968.026 1778.94 962.677 1792.17 960.706 1799.21C958.172 1808.22 957.327 1840.04 957.609 1914.65C958.172 1971.24 959.017 2019.95 959.58 2023.05C960.988 2028.4 959.298 2028.68 882.715 2030.65C823.025 2032.06 804.161 2033.46 802.472 2036.28C801.064 2038.25 800.501 1974.06 801.627 1747.12L810.074 1736.42C814.86 1730.51 823.588 1722.91 829.783 1719.53C840.2 1714.18 848.084 1713.62 921.288 1711.36C965.492 1710.24 1006.04 1708.55 1011.39 1708.27C1017.02 1707.7 1023.49 1706.86 1026.31 1706.58ZM2300.91 1711.93L2285.71 1725.16C2277.26 1732.48 2264.31 1743.74 2256.99 1750.22C2248.82 1756.98 2239.81 1768.52 2226.3 1794.99L2224.89 2001.93L2210.25 2003.06C2202.08 2003.9 2155.63 2007.28 2106.64 2010.38C2057.93 2013.76 2012.6 2017.42 1993.45 2020.23L1994.86 1873.82C1995.42 1774.71 1996.83 1725.16 1999.08 1720.37C2000.77 1716.43 2002.18 1714.74 2001.9 1716.43C2001.9 1718.68 2005 1718.68 2012.6 1715.87C2021.33 1713.05 2054.27 1712.21 2300.91 1711.93ZM2586.13 1711.65L2663.84 1712.77C2706.63 1713.62 2747.18 1715.02 2753.65 1715.87C2761.25 1717 2766.32 1719.25 2767.73 1722.35C2768.86 1725.16 2770.26 1786.26 2771.67 1989.26L2760.97 1987.29C2755.06 1986.16 2721.84 1984.19 2624.7 1980.81L2626.67 1882.27C2628.08 1811.04 2627.8 1780.63 2625.54 1772.46C2623.86 1766.27 2621.6 1757.26 2620.48 1752.75C2619.63 1747.69 2612.31 1737.55 2602.46 1727.98L2586.13 1711.65ZM1959.67 1821.73C1959.95 1867.35 1959.95 1943.37 1959.67 1990.67C1959.1 2037.97 1958.82 2000.52 1958.82 1907.61C1958.82 1814.7 1959.1 1776.12 1959.67 1821.73ZM1689.37 1831.59C1689.65 1876.36 1689.65 1950.69 1689.37 1996.3C1688.81 2041.91 1688.53 2005.31 1688.53 1914.65C1688.53 1823.99 1688.81 1786.54 1689.37 1831.59ZM2514.89 1756.98C2523.9 1756.98 2534.04 1759.23 2542.2 1763.17C2549.52 1766.83 2558.53 1773.87 2569.8 1788.79L2570.08 1896.06C2570.36 1955.19 2570.08 1998.83 2568.11 1983.63L2492.93 1985.88C2451.54 1987.01 2389.88 1989.26 2355.81 1990.67C2321.75 1992.36 2291.06 1994.33 2281.2 1996.3V1898.32C2281.2 1844.54 2281.76 1799.77 2282.61 1798.36C2283.45 1797.24 2287.68 1798.36 2299.5 1805.69L2316.4 1789.92C2328.22 1778.94 2336.39 1773.59 2343.14 1772.46C2348.78 1771.62 2374.68 1771.05 2400.86 1771.05C2427.33 1771.05 2456.05 1772.18 2465.06 1773.87C2473.79 1775.28 2485.05 1779.22 2489.55 1782.32C2494.34 1785.41 2501.38 1787.95 2505.04 1787.95C2508.98 1787.95 2512.08 1787.1 2512.08 1785.7C2512.08 1784.57 2509.54 1779.78 2506.45 1775.28C2503.35 1770.49 2500.82 1764.58 2500.82 1761.76C2500.82 1757.82 2503.35 1756.98 2514.89 1756.98ZM1174.69 1760.64C1276.89 1761.76 1299.7 1762.61 1311.24 1766.27C1319.13 1768.8 1330.95 1775 1337.71 1780.06C1344.75 1785.41 1353.2 1795.27 1364.74 1817.51L1366.15 2013.19L1359.95 2014.32C1356.29 2015.16 1337.15 2016.29 1316.87 2017.13C1296.88 2017.98 1256.34 2019.95 1226.78 2021.36C1197.49 2023.05 1145.41 2025.58 1111.34 2027.27C1077.27 2028.96 1045.17 2031.49 1039.54 2032.9C1034.19 2034.03 1028.84 2034.31 1027.72 2033.46C1026.31 2032.34 1025.46 1983.07 1025.46 1923.66C1025.46 1864.53 1024.62 1816.67 1023.49 1817.23C1022.37 1817.79 1018.14 1824.55 1007.16 1845.67L1008.85 2073.73L994.493 2083.58L995.337 1947.59C995.901 1814.41 996.183 1811.6 1002.1 1800.62C1005.47 1794.42 1013.08 1784.57 1018.99 1778.66C1024.9 1773.03 1034.76 1766.27 1040.95 1764.02C1050.52 1760.35 1070.51 1759.79 1174.69 1760.64ZM2266.56 1845.67C2267.12 1861.15 2267.12 1887.06 2266.56 1903.39C2266 1919.72 2265.72 1907.05 2265.72 1875.23C2265.72 1843.41 2266 1830.18 2266.56 1845.67ZM2608.09 1909.02C2609.21 1919.15 2610.06 1939.42 2610.06 1954.07C2610.06 1968.71 2609.21 1988.42 2608.09 1997.71C2606.68 2008.69 2605.84 1992.92 2605.84 1952.66C2605.84 1911.55 2606.68 1896.91 2608.09 1909.02Z" fill="#DFDFEE"/>
<path d="M1615.6 362.995C1648.27 356.8 1682.9 350.606 1693.03 349.48C1703.17 348.072 1717.53 347.227 1725.13 347.509C1733.86 347.509 1740.05 349.198 1741.74 352.014C1743.15 354.266 1743.71 359.616 1742.59 363.839C1741.18 370.878 1738.93 372.004 1720.63 375.946C1709.36 378.48 1672.2 385.519 1638.13 391.713C1604.06 397.907 1555.35 406.917 1529.73 411.422C1504.11 415.927 1477.64 420.432 1470.6 421.558C1459.34 423.247 1457.37 422.684 1452.87 416.49C1448.64 410.577 1448.36 408.607 1451.46 401.849C1453.99 396.218 1458.22 393.121 1464.97 391.713C1470.32 390.305 1493.13 386.082 1515.65 381.859C1538.18 377.635 1582.94 369.189 1615.6 362.995Z" fill="#2929CF"/>
<path d="M1033.63 467.17C1033.35 421.277 1033.91 383.267 1034.76 382.703C1035.88 382.14 1088.81 381.859 1153.01 382.14C1216.92 382.703 1269.85 383.83 1270.7 384.956C1271.83 386.364 1271.83 455.063 1270.7 538.404C1269.85 621.463 1268.17 690.444 1267.04 691.852C1265.63 692.978 1214.39 692.415 1153.01 690.444C1043.2 687.065 1041.23 686.783 1036.16 680.589C1033.35 677.211 1031.1 672.424 1031.1 670.172C1031.1 667.919 1033.91 663.414 1037.29 660.317C1042.92 654.968 1045.45 654.686 1126.82 656.939C1172.72 658.065 1216.92 660.036 1239.73 663.133V419.587H1156.67C1111.06 419.587 1071.64 420.15 1069.39 420.995C1065.73 422.121 1065.16 431.976 1065.16 485.753C1065.16 545.443 1064.88 549.384 1059.53 554.734C1055.59 558.676 1051.93 559.802 1047.71 558.676C1044.05 557.549 1039.54 555.297 1037.57 553.608C1034.76 551.355 1033.91 531.646 1033.63 467.17Z" fill="#2929CF"/>
<path d="M1943.62 396.218C1943.62 393.684 1945.87 389.179 1948.69 386.364H1948.4C1953.19 381.859 1968.96 381.577 2215.32 382.422C2471.25 383.267 2477.16 383.548 2482.8 388.898C2488.15 393.966 2488.15 394.81 2479.7 409.733L2216.73 410.296C1970.65 410.859 1953.19 410.577 1948.4 406.073C1945.59 403.539 1943.34 399.034 1943.62 396.218Z" fill="#2929CF"/>
<path d="M1884.49 501.802C1884.21 498.986 1886.18 493.918 1889 490.539L1893.5 484.345H2162.1C2427.33 484.345 2430.99 484.345 2436.62 489.976C2439.72 493.073 2442.25 497.297 2442.25 498.986C2442.53 500.957 2440 506.025 2430.99 518.132H2165.48C1903.07 518.413 1900.26 518.132 1892.37 512.501C1888.15 509.404 1884.77 504.617 1884.49 501.802Z" fill="#2929CF"/>
<path d="M1566.61 548.821C1597.02 544.035 1632.5 538.404 1645.45 536.433C1658.68 534.462 1679.52 532.491 1691.91 532.491C1706.83 532.21 1715.84 533.336 1718.09 535.588C1720.06 537.559 1721.75 542.064 1721.75 545.443C1721.75 549.103 1720.06 553.608 1718.09 555.579C1716.12 557.549 1703.17 560.928 1689.09 562.899C1675.29 564.87 1640.38 569.938 1611.66 574.443C1583.23 578.666 1542.96 585.424 1485.53 595.56L1479.61 589.928C1476.23 586.831 1473.7 581.482 1473.7 577.822C1473.7 573.88 1477.08 569.656 1482.99 565.996C1488.06 562.899 1496.51 559.802 1501.86 558.957C1507.49 558.113 1536.49 553.608 1566.61 548.821Z" fill="#2929CF"/>
<path d="M1935.45 612.171C1935.45 609.074 1937.99 603.725 1941.08 600.346L1947 594.152H2209.41C2438.59 594.152 2472.66 594.715 2478.29 598.375C2482.23 600.909 2484.77 605.414 2484.77 610.2C2484.77 614.424 2482.8 620.055 2479.98 622.307C2475.76 625.968 2442.25 626.249 2208.84 625.686C1999.08 625.404 1941.93 624.278 1939.11 621.463C1936.86 619.492 1935.45 615.268 1935.45 612.171Z" fill="#2929CF"/>
<path d="M1261.97 721.415C1261.69 716.91 1263.1 711.842 1265.35 710.153C1267.6 708.182 1271.83 707.619 1275.2 708.463C1278.3 709.308 1283.93 712.968 1287.59 716.347C1291.25 719.444 1295.76 725.92 1297.73 730.706C1299.7 735.211 1300.83 741.687 1300.26 744.784C1299.7 747.881 1296.6 752.949 1293.79 755.765C1288.44 761.114 1285.9 761.114 1200.31 757.736C1151.6 756.046 1105.71 753.512 1097.82 752.667C1089.94 751.541 1081.78 748.726 1078.96 745.629C1076.14 742.813 1073.89 738.308 1074.17 735.493C1074.17 732.959 1076.43 728.454 1078.96 725.638C1082.62 721.696 1088.25 720.57 1103.46 720.852C1114.44 720.852 1145.97 721.978 1173.84 723.667C1201.72 725.357 1233.25 727.046 1262.53 729.298L1261.97 721.415Z" fill="#2929CF"/>
<path d="M1093.04 878.241C1092.76 875.989 1094.45 872.329 1096.42 870.639C1099.23 868.105 1123.73 867.261 1186.51 867.261C1265.35 866.979 1272.95 867.542 1277.17 872.047C1280.55 875.426 1281.4 879.086 1279.99 883.591C1278.86 887.251 1275.49 890.911 1272.39 891.475C1269.29 892.319 1229.87 892.601 1184.82 892.038C1116.97 891.193 1102.05 890.348 1098.11 886.97C1095.57 884.717 1093.32 880.776 1093.04 878.241Z" fill="#2929CF"/>
<path d="M1408.66 882.746C1408.38 880.775 1411.2 876.834 1414.86 874.3C1420.49 870.639 1432.03 870.076 1481.58 870.076C1530.86 870.076 1542.12 870.921 1545.5 874.3C1548.03 876.552 1549.72 881.62 1549.72 885.562C1549.72 890.63 1548.03 892.882 1543.53 894.009C1539.87 894.572 1511.15 895.416 1479.33 895.416C1432.59 895.416 1420.49 894.572 1415.42 891.193C1411.76 888.94 1408.94 884.999 1408.66 882.746Z" fill="#2929CF"/>
<path d="M2251.92 880.494C2255.58 874.581 2257.27 874.3 2314.43 872.892C2346.8 872.047 2393.26 870.921 2417.76 870.639C2441.97 870.358 2463.93 870.639 2466.18 871.484C2468.72 872.329 2470.41 875.707 2470.69 879.086C2470.69 882.746 2467.87 888.096 2464.78 891.193C2458.86 896.542 2454.64 896.824 2360.88 896.824C2272.76 896.824 2262.62 896.261 2255.58 891.756C2248.82 887.251 2248.26 886.406 2251.92 880.494Z" fill="#2929CF"/>
<path d="M2357.5 382.14C2291.62 382.703 2182.66 382.703 2115.37 382.14C2048.07 381.859 2101.85 381.577 2235.03 381.577C2368.2 381.577 2423.39 381.859 2357.5 382.14Z" fill="#DFDFEE"/>
<path d="M1033.35 499.831C1033.07 521.51 1032.5 504.335 1032.5 461.82C1032.5 419.306 1033.07 401.568 1033.35 422.403C1033.91 443.238 1033.91 478.151 1033.35 499.831Z" fill="#DFDFEE"/>
<path d="M1269.29 667.356C1270.14 654.123 1270.98 590.21 1271.26 525.171L1272.11 406.917L1272.67 527.986C1273.23 594.433 1272.39 658.628 1268.16 691.288L1269.29 667.356Z" fill="#DFDFEE"/>
<path d="M2344.55 413.111C2271.91 413.674 2153.94 413.674 2082.71 413.111C2011.47 412.83 2071.16 412.548 2215.04 412.548C2359.19 412.548 2417.48 412.83 2344.55 413.111Z" fill="#DFDFEE"/>
<path d="M1197.21 421.558C1173.28 422.121 1134.71 422.121 1111.34 421.558C1088.25 421.276 1107.96 420.713 1154.98 420.713C1202.28 420.713 1221.43 421.276 1197.21 421.558Z" fill="#DFDFEE"/>
<path d="M1067.13 516.724C1066.57 535.307 1066.29 521.229 1066.29 485.753C1066.29 450.277 1066.57 434.791 1067.13 451.966C1067.7 469.141 1067.7 498.141 1067.13 516.724Z" fill="#DFDFEE"/>
<path d="M1238.88 588.521C1238.32 609.356 1238.04 593.589 1238.04 553.326C1238.04 513.064 1238.32 495.889 1238.88 515.316C1239.45 534.743 1239.45 567.685 1238.88 588.521Z" fill="#DFDFEE"/>
<path d="M2115.08 627.094C2083.55 627.657 2030.9 627.657 1998.24 627.094C1965.86 626.812 1991.76 626.531 2055.96 626.531C2120.43 626.531 2146.9 626.812 2115.08 627.094Z" fill="#DFDFEE"/>
<path d="M2444.5 627.094C2426.77 627.657 2398.33 627.657 2381.15 627.094C2364.26 626.812 2378.9 626.249 2413.53 626.249C2448.45 626.249 2462.52 626.812 2444.5 627.094Z" fill="#DFDFEE"/>
<path d="M1236.63 866.416C1221.99 866.979 1196.65 866.979 1180.32 866.416C1164.27 866.134 1176.1 865.571 1207.07 865.571C1238.04 865.571 1251.55 866.134 1236.63 866.416Z" fill="#DFDFEE"/>
<path d="M2343.14 872.047C2327.1 872.61 2300.91 872.61 2285.43 872.047C2269.94 871.766 2283.45 871.202 2314.99 871.202C2346.8 871.202 2359.47 871.766 2343.14 872.047Z" fill="#DFDFEE"/>
<path d="M1504.11 897.387C1492.56 897.95 1472.86 897.95 1460.47 897.387C1448.08 897.105 1457.65 896.542 1481.58 896.542C1505.8 896.542 1515.93 897.105 1504.11 897.387Z" fill="#DFDFEE"/>
<path d="M2388.19 900.203C2370.46 900.766 2342.02 900.766 2324.84 900.203C2307.95 899.921 2322.59 899.358 2357.22 899.358C2392.14 899.358 2406.21 899.921 2388.19 900.203Z" fill="#DFDFEE"/>
<path d="M1509.46 1530.32C1504.39 1525.54 1498.2 1524.41 1465.25 1523L1426.68 1521.03L1466.66 1521.6C1502.42 1521.88 1507.21 1522.44 1512.27 1527.51C1515.65 1530.61 1517.62 1533.7 1517.06 1534.55C1516.22 1535.39 1512.84 1533.42 1509.46 1530.32Z" fill="#DFDFEE"/>
</g>
</g>
<rect x="3.43457" y="3.12891" width="3495" height="1995" stroke="#00009C" stroke-width="5"/>
<defs>
<clipPath id="clip0_101_104">
<rect x="0.93457" y="0.628906" width="3500" height="2000" fill="white"/>
</clipPath>
<clipPath id="clip1_101_104">
<rect width="2841.02" height="2010.08" fill="white" transform="translate(330.427 121.588)"/>
</clipPath>
</defs>
</svg>
