<svg width="351" height="201" viewBox="0 0 351 201" fill="none" xmlns="http://www.w3.org/2000/svg">
<rect x="0.276123" y="0.509399" width="349.5" height="199.5" fill="white"/>
<g clip-path="url(#clip0_14_2)">
<path fill-rule="evenodd" clip-rule="evenodd" d="M52.4028 -25.9589H289.068V126.117H248.044L246.542 126.649C245.71 126.949 244.462 127.596 243.769 128.105C243.075 128.613 242.267 129.353 241.989 129.722C241.619 130.231 241.458 130.3 241.365 130.046C241.319 129.861 241.088 129.191 240.903 128.544C240.695 127.92 240.21 126.926 239.84 126.348C239.447 125.77 238.707 124.961 238.153 124.545C237.621 124.129 236.627 123.575 235.98 123.344C234.848 122.928 233.854 122.858 213.03 122.535V115.254H263.645L263.784 114.515C263.876 114.099 263.899 109.222 263.853 103.699C263.807 98.1748 263.784 80.9796 263.876 37.3676H264.916C265.494 37.3676 266.164 37.2751 266.418 37.1364C266.673 36.9978 267.042 36.5818 267.227 36.212C267.412 35.8422 267.574 35.2644 267.574 34.9408C267.574 34.6172 267.297 33.9932 266.927 33.5541C266.58 33.0919 265.979 32.6296 265.609 32.491C265.193 32.3523 261.334 32.283 256.018 32.283C251.118 32.3061 246.935 32.2598 246.704 32.1905C246.334 32.0518 246.311 31.682 246.404 27.7068C246.45 25.3263 246.565 22.9689 246.658 22.4604C246.82 21.6977 246.75 21.4435 245.849 20.4959H103.226L102.093 21.6515L102.209 31.4278L93.6574 31.2429C87.5328 31.1274 84.9674 31.1505 84.5976 31.3354C84.2972 31.474 83.9736 31.7976 83.8349 32.0518C83.6731 32.3985 83.6962 32.699 84.0198 33.2074C84.274 33.6697 84.6438 33.947 85.1061 34.0163C85.499 34.0857 89.4742 34.1781 102.093 34.2475L102.07 35.2875C102.047 35.8653 102.001 36.1426 101.955 35.9115C101.908 35.7035 101.793 35.5186 101.7 35.5186C101.585 35.4955 100.938 35.4493 100.244 35.3568C99.551 35.2875 97.8869 35.3568 96.5464 35.5186C94.9055 35.7266 94.2584 35.8653 94.5819 36.004C94.8593 36.1195 94.2815 36.1889 93.0797 36.1889C91.9934 36.1889 91.1614 36.2582 91.2307 36.3044C91.3 36.3737 93.7499 36.4431 96.662 36.4431C100.891 36.4662 102.07 36.5355 102.44 36.8129C102.902 37.1364 102.902 37.1595 102.463 37.8991C102.024 38.6156 102.001 39.2627 102.001 62.0972C102.001 79.824 102.07 85.8331 102.278 86.7113C102.509 87.682 102.509 87.9362 102.209 88.3754C102.001 88.6989 101.862 89.4385 101.862 91.6804H119.057C134.034 91.6804 136.322 91.6341 136.622 91.3337C136.877 91.0795 136.992 90.5479 136.992 88.098L144.319 87.9131C148.363 87.8207 154.65 87.7513 164.957 87.7513L164.195 88.7221C163.779 89.2767 163.085 90.5248 161.837 93.2982H154.973C148.248 93.2982 148.086 93.2982 148.086 92.836C148.086 92.5817 147.878 92.2582 147.624 92.1426C147.369 92.0039 146.953 91.9115 146.699 91.9115C146.445 91.9115 145.89 92.0733 145.497 92.3044C145.081 92.5124 143.533 93.6911 142.077 94.9391C140.621 96.1641 139.28 97.4352 139.118 97.7125C138.887 98.1517 138.841 99.8388 138.957 112.134L86.8395 112.25L86.9319 80.6329C86.9781 63.2528 86.955 45.9883 86.7239 35.5186H85.4065C84.4127 35.5186 84.0429 35.6111 83.9505 35.8653C83.8811 36.0502 83.7194 41.7588 83.5807 48.5075C83.4189 56.8277 83.3958 69.5623 83.5345 87.7513C83.65 102.566 83.8118 114.815 83.9043 114.954C84.0429 115.185 89.8209 115.254 139.303 115.254L139.211 115.878C139.142 116.248 139.095 117.935 139.072 122.766H124.396L123.241 123.39C122.617 123.736 121.715 124.36 121.253 124.777C120.814 125.193 120.236 125.84 119.982 126.233C119.728 126.602 119.242 127.573 118.896 128.359C118.295 129.792 118.272 129.93 118.202 140.331L118.064 135.708C117.925 131.34 117.879 131.017 117.301 129.815C116.954 129.122 116.215 128.105 115.637 127.55C115.059 127.018 114.135 126.348 112.609 125.539L69.9678 125.424L68.8122 127.388L69.6905 127.55C70.1527 127.619 70.9616 127.827 71.4701 128.012C72.2097 128.243 76.3467 128.313 92.1552 128.336C111.615 128.359 111.939 128.382 112.725 128.844C113.256 129.145 113.811 129.815 115.151 132.242L115.267 139.753H114.296C113.742 139.753 113.256 139.73 113.187 139.661C113.118 139.614 113.118 138.389 113.21 136.933C113.303 134.853 113.256 134.16 112.979 133.536C112.771 133.097 112.147 132.38 111.569 131.964C110.968 131.548 109.998 131.109 109.258 130.947C108.426 130.762 106.924 130.739 104.982 130.832C102.787 130.924 101.77 131.063 101.169 131.363C100.73 131.594 100.221 132.057 100.083 132.403C99.9208 132.773 99.8283 133.166 99.8976 133.282C99.967 133.42 101.423 133.513 103.549 133.513C105.468 133.513 107.478 133.628 107.987 133.767C108.495 133.929 109.189 134.345 109.558 134.691C109.905 135.061 110.182 135.477 110.182 135.593C110.182 135.708 110.021 135.824 109.836 135.824C109.651 135.824 108.934 135.547 107.062 134.553H96.8007L95.8531 133.628C95.3446 133.12 94.7668 132.38 94.5819 132.011C94.2584 131.34 94.2815 131.317 95.0442 130.901C95.4833 130.693 95.8531 130.393 95.8531 130.277C95.8531 130.162 95.622 130.069 95.3446 130.069C95.0442 130.092 94.0272 129.977 93.0797 129.815C92.0396 129.63 90.5836 129.584 89.3818 129.676C88.2955 129.746 87.3248 129.93 87.1861 130.069C87.0244 130.231 87.163 130.485 87.6484 130.901C88.0413 131.225 88.6884 131.802 89.1275 132.195C89.5435 132.611 90.1213 133.351 90.3756 133.859C90.6529 134.437 90.9071 135.593 91.0227 136.98C91.1383 138.181 91.2076 139.938 91.2307 140.839C91.2307 141.995 91.3232 142.55 91.5312 142.619C91.6929 142.665 91.2538 143.22 89.2662 145.184L89.3355 141.255C89.3818 138.713 89.3124 137.234 89.1506 137.095C89.012 136.98 88.9195 136.54 88.9195 136.171C88.9195 135.801 88.6422 135.015 88.2724 134.437C87.9257 133.859 87.1399 133.074 86.539 132.704C85.5221 132.057 85.4527 131.941 85.4527 131.017C85.4527 130.069 85.4296 130.046 84.5976 129.884C84.1123 129.792 82.5869 129.722 81.1771 129.722C79.7904 129.699 75.9538 129.722 66.7322 129.815L66.5242 130.67C66.4086 131.155 66.085 132.473 65.8308 133.628C65.5766 134.784 65.3917 135.732 65.4148 135.755C65.4379 135.778 68.7891 135.87 72.8568 135.94C76.9245 136.032 80.4837 136.124 80.7842 136.194C81.0615 136.24 81.6162 136.54 81.986 136.864C82.3789 137.188 82.6331 137.557 82.5638 137.673C82.4944 137.812 79.3743 137.904 73.9662 137.904C69.2745 137.904 65.3223 137.996 65.1606 138.089C64.9294 138.204 64.8832 138.69 64.9988 140.1C65.0681 141.117 65.253 142.781 65.3686 143.798C65.5072 144.814 65.8539 146.895 66.1544 148.42C66.4779 149.945 66.9864 151.979 67.31 152.927C67.6335 153.874 68.4656 155.816 69.1589 157.202C69.8292 158.589 70.7536 160.322 72.0017 162.287L74.0586 162.449C75.168 162.541 77.8721 162.749 84.0198 163.211L84.1585 164.252C84.2278 164.829 84.2972 167.117 84.2972 169.336C84.2972 171.555 84.4127 173.75 84.5283 174.19C84.6669 174.629 84.8981 175.068 85.0598 175.16C85.1985 175.253 85.5914 175.345 85.915 175.345C86.2386 175.345 86.6777 175.16 86.9088 174.929C87.2786 174.559 87.3248 173.82 87.3017 164.136C87.3017 155.4 87.3479 153.574 87.6484 152.696C87.8333 152.118 88.5497 150.939 89.22 150.038C89.8671 149.159 91.0458 147.773 91.8085 146.964C92.5712 146.155 93.8192 145.069 94.5819 144.56C95.3446 144.075 96.5464 143.497 97.2398 143.289C98.3492 142.966 102.163 142.919 129.019 142.804C145.798 142.758 160.774 142.688 162.3 142.688C164.888 142.665 165.165 142.711 166.46 143.335C167.246 143.705 168.401 144.56 169.141 145.277C169.834 145.993 170.666 147.079 171.498 148.882L171.521 161.779C171.544 172.965 171.591 174.698 171.891 174.883C172.076 174.999 172.561 175.114 172.954 175.114C173.324 175.114 173.763 174.975 173.925 174.814C174.133 174.606 174.202 171.624 174.202 162.403C174.202 153.458 174.11 149.714 173.879 148.189C173.717 147.033 173.463 145.878 173.301 145.577C173.093 145.161 173.116 145.022 173.393 144.768C173.717 144.537 173.763 143.613 173.74 132.357H174.896L174.919 136.448C174.942 138.713 175.011 142.411 175.104 144.676C175.219 147.958 175.312 148.836 175.589 148.998C175.774 149.113 176.19 149.229 176.513 149.229C176.837 149.229 177.276 149.044 177.507 148.813C177.877 148.443 177.923 147.796 177.9 131.895L179.703 131.849C180.673 131.826 182.222 131.802 184.787 131.779L184.926 132.819C184.995 133.397 185.065 138.181 185.065 143.451C185.065 150.338 185.157 153.967 185.411 156.278C185.596 158.058 185.758 160.9 185.758 165.638L187.792 165.523L187.884 170.607C187.954 174.999 188 175.807 188.37 176.339C188.647 176.801 188.924 176.94 189.387 176.894C189.803 176.871 190.126 176.639 190.311 176.27C190.542 175.831 190.612 172.664 190.612 162.634C190.612 155.192 190.727 148.882 190.843 147.958C191.004 146.918 191.305 145.97 191.721 145.323C192.068 144.768 192.738 143.982 194.125 142.873L224.771 142.758C248.599 142.665 255.718 142.711 256.711 142.919C257.405 143.081 258.745 143.22 259.67 143.22C260.848 143.22 261.588 143.358 262.212 143.659C262.674 143.89 263.645 144.699 264.361 145.438C265.217 146.317 266.002 147.472 267.458 150.5L267.574 161.963C267.69 173.034 267.713 173.473 268.152 173.935C268.406 174.213 268.845 174.444 269.146 174.421C269.423 174.421 269.862 174.143 270.116 173.774C270.579 173.173 270.602 172.826 270.579 159.629L271.457 159.514C271.919 159.444 272.335 159.421 272.335 159.444C272.358 159.49 272.427 160.623 272.659 164.483L270.787 164.136L270.856 165.939C270.902 166.909 270.995 167.718 271.087 167.718C271.179 167.718 271.387 167.58 271.549 167.418C271.711 167.256 272.335 166.794 272.959 166.378C273.814 165.777 274.092 165.43 274.3 164.644C274.438 164.113 274.646 163.35 274.762 162.98C274.877 162.611 274.97 157.226 274.97 151.008C274.97 140.747 275.016 139.684 275.386 138.944C275.594 138.482 275.894 138.158 276.01 138.204C276.148 138.251 276.703 137.927 277.281 137.465C277.859 137.026 278.691 136.517 279.13 136.356C279.569 136.194 280.701 136.078 283.29 136.055L283.151 135.2C283.059 134.715 282.805 133.675 282.134 131.433L280.979 131.548C279.869 131.664 279.823 131.641 280.077 130.624L274.808 130.462C271.919 130.346 266.164 130.277 262.027 130.3C257.081 130.323 253.915 130.231 252.782 130.046C251.835 129.884 250.379 129.815 249.547 129.861C248.645 129.93 247.767 130.138 247.351 130.416C246.981 130.647 246.542 131.017 246.38 131.202C246.242 131.386 246.172 131.618 246.219 131.733C246.265 131.826 246.219 131.895 246.08 131.895C245.964 131.895 245.687 132.311 245.502 132.819C245.317 133.328 245.132 134.137 245.132 134.622C245.109 135.084 245.179 136.309 245.456 139.175L244.786 139.337C244.416 139.406 244.046 139.429 243.954 139.383C243.838 139.337 243.838 137.812 243.907 136.009C243.977 134.183 244.162 132.334 244.3 131.895C244.439 131.456 244.924 130.67 245.363 130.185C245.826 129.699 246.542 129.145 246.958 128.96C247.559 128.706 251.072 128.682 266.719 128.798C277.165 128.867 286.479 128.914 289.068 128.89V210.706H54.0207L53.9051 203.657L52.4028 203.542L52.4028 -25.9589ZM257.243 37.3907C261.888 37.3676 262.027 37.3907 262.027 37.8298C262.027 38.1765 261.865 38.292 261.449 38.292C261.126 38.292 260.802 38.4307 260.733 38.5694C260.64 38.7312 260.594 55.3717 260.64 112.25H241.758C231.358 112.25 220.634 112.181 212.961 111.903L213.261 95.3783L214.856 93.876L214.879 91.611C214.879 90.2705 214.971 89.3692 215.11 89.3692C215.249 89.3692 215.387 89.6234 215.457 89.947C215.526 90.2705 215.688 90.5248 215.803 90.5248C215.942 90.5248 216.081 90.4092 216.15 90.2936C216.219 90.155 216.451 90.1319 216.797 90.2705C217.075 90.3861 217.722 90.5941 218.23 90.7559C218.739 90.8946 219.316 91.0332 219.501 91.0563C219.686 91.1026 220.01 91.2181 220.195 91.3337C220.403 91.4724 225.695 91.5879 247.004 91.6804V89.4154C247.028 87.8438 246.912 86.9655 246.658 86.4802C246.357 85.8793 246.311 82.8516 246.334 61.635C246.357 48.3457 246.404 37.668 246.45 37.876C246.496 38.1071 246.635 38.292 246.727 38.292C246.843 38.292 247.004 38.2227 247.097 38.1071C247.189 38.0147 248.437 37.8298 249.847 37.6911C251.28 37.5524 254.585 37.4138 257.243 37.3907ZM148.895 96.0947C149.057 96.0716 149.149 100.717 149.241 122.881H147.855L147.808 109.615C147.739 96.5107 147.739 96.3258 148.201 96.2334C148.456 96.1641 148.779 96.1178 148.895 96.0947ZM194.91 99.3304C195.789 99.3304 196.366 99.3766 196.228 99.4459C196.066 99.4922 195.927 99.7926 195.927 100.116C195.927 100.44 196.089 100.856 196.274 101.041C196.505 101.272 197.291 101.434 198.654 101.503C199.764 101.572 201.659 101.734 202.861 101.873C204.063 102.011 206.073 102.127 209.563 102.081L209.633 104.669C209.656 106.102 209.656 110.748 209.563 122.65H202.63V118.652C202.63 115.809 202.56 114.561 202.352 114.261C202.152 113.968 201.667 113.783 200.896 113.706C199.903 113.613 199.671 113.66 199.279 114.099C198.978 114.446 198.839 114.885 198.909 116.294L193.085 116.202C189.086 116.156 187.099 116.202 186.752 116.387C186.451 116.526 186.082 116.918 185.897 117.265C185.735 117.635 185.481 118.421 185.342 119.068C185.203 119.692 185.042 122.304 184.972 124.846C184.903 127.388 184.811 129.491 184.787 129.491C184.741 129.514 183.216 129.561 178.016 129.699L177.9 114.099L177.322 113.868C176.999 113.752 176.467 113.706 176.12 113.798C175.797 113.914 175.312 114.238 175.08 114.561C174.849 114.885 174.641 115.393 174.664 116.294L161.953 116.179L162.022 114.931C162.045 114.238 161.999 113.729 161.907 113.775C161.791 113.821 161.699 113.59 161.699 113.221C161.676 112.874 161.676 112.55 161.676 112.481C161.652 112.412 161.722 112.019 161.814 111.603C161.93 110.933 161.907 110.863 161.375 110.863C161.005 110.863 160.612 110.632 160.312 110.216C160.058 109.869 159.78 109.338 159.711 109.014C159.619 108.668 159.734 108.182 159.942 107.789C160.173 107.443 160.335 106.957 160.335 106.703C160.335 106.449 160.035 106.033 159.642 105.779C159.272 105.524 158.856 105.316 158.717 105.316C158.602 105.316 158.486 105.108 158.486 104.854C158.486 104.6 158.347 104.392 158.209 104.392C158.047 104.415 157.515 103.999 157.053 103.467C156.568 102.959 156.175 102.404 156.175 102.242C156.152 102.104 156.291 101.85 156.452 101.711C156.614 101.572 156.961 101.41 157.215 101.341C157.469 101.272 157.885 101.318 158.139 101.434C158.486 101.618 158.648 101.595 158.763 101.364C158.879 101.133 159.804 100.994 162.115 100.879C163.871 100.786 170.042 100.555 175.82 100.347C181.598 100.162 187.977 99.9544 189.988 99.8851C192.322 99.8157 193.57 99.6771 193.477 99.5384C193.385 99.3997 193.917 99.3073 194.91 99.3304ZM158.278 112.943C158.763 112.943 159.364 113.013 159.595 113.082C159.942 113.221 159.919 113.29 159.411 113.66C158.833 114.076 158.833 114.076 158.717 122.881H156.707C155.066 122.904 154.719 122.835 154.927 122.604C155.089 122.442 155.574 122.096 156.036 121.841C156.475 121.587 156.915 121.171 156.984 120.917C157.03 120.663 157.099 118.999 157.099 117.219C157.099 115.439 157.169 113.752 157.238 113.452C157.354 113.036 157.539 112.943 158.278 112.943ZM171.082 125.886C171.336 125.886 171.891 126.117 172.33 126.394C172.769 126.695 173.416 127.296 173.786 127.735C174.318 128.359 174.48 128.844 174.549 129.815C174.595 130.508 174.595 130.878 174.526 130.624C174.41 130.231 174.364 130.208 174.179 130.508C174.017 130.739 173.994 130.554 174.087 129.93C174.179 129.26 174.156 129.122 173.994 129.468C173.786 129.907 173.763 129.884 173.763 129.353C173.74 129.029 173.509 128.359 173.208 127.85C172.862 127.226 172.353 126.741 171.66 126.394C170.99 126.071 170.782 125.886 171.082 125.886ZM255.094 133.443C257.405 133.467 258.422 133.582 259.023 133.836C259.462 134.044 259.97 134.414 260.132 134.668C260.271 134.923 260.34 135.131 260.248 135.131C260.132 135.131 259.554 134.969 258.907 134.761C258.283 134.576 256.619 134.345 255.209 134.275C253.822 134.206 252.274 134.206 251.812 134.299C251.072 134.414 250.887 134.553 250.702 135.177C250.587 135.593 250.448 136.656 250.309 139.175L248.622 139.291V138.297C248.622 137.765 248.738 136.702 248.9 135.963C249.061 135.2 249.431 134.368 249.709 134.067C250.032 133.744 250.541 133.513 251.095 133.467C251.581 133.42 253.383 133.42 255.094 133.443Z" fill="white"/>
<path fill-rule="evenodd" clip-rule="evenodd" d="M103.133 20.6115L245.733 20.4035L246.265 20.912C246.542 21.1893 246.773 21.6978 246.773 22.0675C246.773 22.4142 246.612 23.1076 246.427 23.616C246.196 24.2863 246.103 25.6499 246.08 32.283H246.958C247.42 32.3061 251.696 32.3061 256.434 32.283C263.576 32.283 265.17 32.3523 265.841 32.6297C266.28 32.8145 266.788 33.2306 266.927 33.531C267.181 34.0164 267.158 34.2013 266.303 35.38L246.08 35.172V60.6643C246.08 82.7823 246.034 86.2491 245.387 87.7514H214.879L214.856 93.876L213.261 95.3783L212.961 111.903L217.907 112.088C220.634 112.181 231.358 112.25 260.64 112.25L260.617 75.5483C260.594 55.3717 260.64 38.7312 260.733 38.5925C260.802 38.4307 261.126 38.292 261.449 38.292C261.912 38.292 262.027 38.1765 262.027 37.7143C262.027 37.2058 262.12 37.1365 262.836 37.2058C263.275 37.2289 263.645 37.3676 263.668 37.4831C263.668 37.6218 263.668 54.9788 263.691 76.0799C263.691 97.181 263.668 114.63 263.668 114.862C263.645 115.231 262.304 115.254 213.03 115.139L213.03 122.535L223.893 122.72C233.854 122.858 234.848 122.928 235.957 123.344C236.627 123.575 237.621 124.129 238.153 124.545C238.707 124.961 239.447 125.77 239.84 126.348C240.21 126.926 240.695 127.92 240.903 128.544C241.088 129.191 241.319 129.861 241.365 130.046C241.458 130.3 241.619 130.231 241.989 129.722C242.267 129.353 243.052 128.636 243.699 128.151C244.37 127.666 245.41 127.065 246.011 126.833C247.074 126.417 248.16 126.394 289.068 126.233V128.775L268.683 128.706C257.451 128.659 247.929 128.682 247.513 128.752C247.097 128.844 246.334 129.306 245.71 129.884C245.132 130.439 244.531 131.248 244.347 131.779C244.162 132.288 243.977 134.16 243.907 136.009C243.838 137.812 243.838 139.337 243.931 139.36C244.046 139.406 244.555 139.406 246.08 139.291V137.28C246.08 136.148 246.219 134.738 246.404 134.091C246.612 133.397 247.051 132.611 247.513 132.172C247.929 131.733 248.53 131.248 248.853 131.086C249.177 130.924 249.847 130.716 250.356 130.624C250.864 130.531 251.396 130.393 251.511 130.3C251.627 130.231 251.28 130.092 250.702 130C250.125 129.907 250.448 129.907 251.396 129.977C252.343 130.046 254.678 130.185 256.596 130.277C258.491 130.346 259.808 130.439 259.485 130.462C258.999 130.508 259.161 130.67 260.409 131.34C261.241 131.779 262.05 132.265 262.212 132.427C262.374 132.588 262.512 133.12 262.512 133.628C262.512 134.206 262.351 134.715 262.096 134.969C261.865 135.2 261.449 135.385 261.149 135.362C260.872 135.362 260.456 135.108 260.224 134.83C260.016 134.53 259.462 134.091 259.023 133.859C258.352 133.513 257.659 133.467 254.978 133.467C253.198 133.49 251.419 133.49 251.026 133.49C250.587 133.513 250.078 133.721 249.755 134.067C249.408 134.391 249.085 135.131 248.9 135.963C248.738 136.702 248.622 137.788 248.622 139.406L250.055 139.175C250.864 139.06 253.175 138.944 255.209 138.944C257.451 138.944 259.485 139.083 260.409 139.268C261.241 139.453 262.536 139.869 263.298 140.215C264.061 140.539 265.147 141.232 265.702 141.741C266.257 142.226 267.112 143.266 267.643 144.029C268.152 144.791 268.868 146.039 269.215 146.802C269.538 147.565 269.954 148.767 270.116 149.46C270.324 150.384 270.394 153.805 270.347 162.171C270.324 172.526 270.278 173.658 269.931 174.028C269.723 174.259 269.33 174.444 269.076 174.444C268.822 174.444 268.406 174.213 268.152 173.935C267.713 173.473 267.69 173.034 267.458 150.5L266.557 148.651C266.002 147.472 265.217 146.317 264.361 145.438C263.645 144.699 262.674 143.89 262.189 143.659C261.588 143.358 260.825 143.22 259.647 143.22C258.745 143.22 257.567 143.104 257.058 142.989C256.527 142.873 243.33 142.734 226.435 142.665C207.691 142.596 196.228 142.619 195.349 142.758C194.402 142.919 193.709 143.197 193.154 143.659C192.715 144.006 192.068 144.768 191.721 145.323C191.305 145.97 191.004 146.918 190.843 147.958C190.727 148.882 190.612 155.192 190.612 162.634C190.612 172.664 190.542 175.831 190.311 176.27C190.126 176.639 189.803 176.871 189.387 176.917C188.948 176.94 188.67 176.801 188.439 176.455C188.185 176.039 188.092 173.982 187.977 166.794C187.907 161.779 187.838 157.642 187.838 157.618C187.838 157.572 187.653 157.711 187.422 157.919C187.191 158.127 186.752 158.242 186.336 158.196C185.666 158.127 185.643 158.081 185.481 156.625C185.388 155.793 185.227 148.836 185.134 141.14C185.018 133.443 185.018 125.331 185.088 123.112C185.157 120.894 185.342 118.698 185.481 118.259C185.619 117.82 185.92 117.196 186.567 116.341L198.932 116.41L198.862 115.509C198.839 114.862 198.955 114.469 199.279 114.099C199.671 113.66 199.903 113.613 200.896 113.706C201.667 113.783 202.152 113.968 202.352 114.261C202.56 114.561 202.63 115.809 202.63 122.65L209.794 122.65V98.845L201.405 98.9837C196.806 99.0762 192.992 99.2148 192.923 99.2842C192.853 99.3535 185.735 99.4691 177.091 99.5153C166.876 99.5615 160.289 99.4922 158.255 99.3304C156.545 99.1917 153.818 99.0531 149.241 98.9606V97.5277C149.241 96.141 149.218 96.0716 148.71 96.1872C148.432 96.2565 148.063 96.3027 147.901 96.3027C147.693 96.3027 147.624 98.0361 147.624 104.23C147.624 108.575 147.693 114.561 147.97 122.881L158.717 122.881L158.763 118.467C158.833 114.353 158.856 114.03 159.295 113.729C159.549 113.544 160.196 113.406 160.728 113.406C161.283 113.406 161.722 113.521 161.722 113.637C161.722 113.752 161.791 113.822 161.884 113.775C161.999 113.729 162.045 114.238 161.953 116.179L174.664 116.294L174.664 115.717C174.641 115.393 174.849 114.885 175.08 114.561C175.312 114.238 175.797 113.914 176.12 113.822C176.467 113.706 177.022 113.752 178.016 114.122L177.808 131.387C177.669 143.774 177.553 148.743 177.345 148.952C177.207 149.113 176.837 149.252 176.513 149.229C176.19 149.229 175.774 149.113 175.589 148.998C175.288 148.813 175.219 147.38 175.104 139.245C174.988 129.861 174.965 129.676 174.456 128.775C174.156 128.266 173.647 127.55 173.324 127.203C172.977 126.833 172.423 126.394 172.053 126.209C171.706 126.025 171.244 125.886 171.013 125.886C170.805 125.886 171.082 126.117 171.66 126.394C172.353 126.764 172.862 127.226 173.208 127.85C173.694 128.752 173.694 128.89 173.578 136.748C173.509 141.14 173.37 144.838 173.255 144.953C173.162 145.092 173.185 145.392 173.324 145.647C173.463 145.901 173.694 147.033 173.855 148.189C174.087 149.76 174.11 153.32 173.855 174.999L173.047 175.068C172.607 175.091 172.076 175.022 171.891 174.883C171.591 174.698 171.544 172.965 171.498 148.882L170.967 147.727C170.666 147.103 169.834 145.993 169.141 145.277C168.378 144.537 167.269 143.728 165.073 142.688L132.601 142.734C112.655 142.758 99.5509 142.873 98.6265 143.012C97.7945 143.127 96.454 143.566 95.6219 143.959C94.5819 144.468 93.5419 145.277 92.2476 146.548C91.2307 147.588 89.8671 149.136 89.1968 150.038C88.5266 150.939 87.8564 152.118 87.6715 152.696C87.3941 153.505 87.2786 155.978 87.163 164.252C87.0706 171.486 86.9319 174.86 86.747 175.068C86.6083 175.23 86.2154 175.368 85.8456 175.345C85.499 175.345 85.0598 175.183 84.8749 174.999C84.69 174.814 84.482 174.213 84.4127 173.681C84.3434 173.126 84.2509 165.292 84.2047 156.278C84.1585 140.192 84.1354 139.845 83.6731 138.944C83.4189 138.436 82.7718 137.627 82.2402 137.164C81.7317 136.679 81.0615 136.24 80.761 136.194C80.4837 136.124 76.9245 136.032 72.8568 135.94C68.7891 135.87 65.4379 135.778 65.4148 135.755C65.3917 135.732 65.5766 134.876 65.8308 133.859C66.0619 132.843 66.2699 131.987 66.2699 131.964C66.2699 131.918 69.4131 131.895 80.2526 131.895L81.5237 132.519C82.2171 132.866 82.818 133.212 82.8411 133.328C82.8873 133.42 83.3264 133.259 83.8349 132.935C84.3434 132.611 85.0367 132.357 85.3834 132.357C85.7532 132.357 86.4234 132.611 86.8857 132.935C87.371 133.259 88.0413 133.998 88.3879 134.622C89.012 135.685 89.0351 135.778 89.22 145.184L90.2138 144.214C90.7685 143.659 91.8085 142.827 92.5018 142.365C93.2183 141.879 93.7961 141.417 93.773 141.325C93.773 141.209 93.8423 141.163 93.9348 141.186C94.0503 141.209 94.5126 141.117 94.9748 140.955C95.4602 140.793 95.8531 140.562 95.8531 140.446C95.8531 140.331 95.9455 140.261 96.0842 140.331C96.1997 140.4 96.5695 140.4 96.8931 140.331C97.2167 140.261 97.4247 140.146 97.3784 140.053C97.3322 139.938 97.9331 139.845 98.6958 139.822C99.4816 139.776 100.152 139.684 100.175 139.591C100.221 139.476 102.602 139.429 110.76 139.545L110.622 137.858C110.552 136.818 110.321 135.87 110.044 135.385C109.813 134.946 109.235 134.368 108.796 134.114C108.079 133.698 107.478 133.605 99.8976 133.397L99.967 132.819C100.013 132.496 100.152 132.103 100.314 131.918C100.475 131.733 100.961 131.433 101.4 131.248C101.885 131.063 103.388 130.878 105.098 130.809C106.901 130.716 108.472 130.786 109.258 130.947C109.998 131.109 110.968 131.548 111.569 131.964C112.147 132.38 112.771 133.097 112.979 133.536C113.256 134.16 113.303 134.853 113.21 136.933C113.118 138.389 113.118 139.614 113.187 139.661C113.256 139.73 113.742 139.753 115.267 139.753L115.151 132.242L114.343 130.786C113.834 129.861 113.233 129.122 111.916 128.313L92.2707 128.266C78.0338 128.243 72.3483 128.174 71.5856 127.966C71.0078 127.827 70.1527 127.619 68.8122 127.388L69.9678 125.424L112.609 125.539L113.58 126.071C114.135 126.348 115.059 127.018 115.637 127.573C116.215 128.105 116.977 129.122 117.301 129.815C117.902 131.04 117.925 131.248 117.994 135.708C118.04 138.413 118.156 140.238 118.272 140.1C118.387 139.984 118.503 137.372 118.618 128.775L119.312 127.388C119.681 126.625 120.467 125.562 121.045 125.008C121.623 124.43 122.57 123.736 123.171 123.436C124.281 122.881 124.35 122.881 139.072 122.881L139.095 119.715C139.095 117.959 139.142 116.248 139.303 115.254L83.9505 115.139L83.7656 112.134C83.6731 110.493 83.6269 92.7435 83.6731 72.7287C83.6962 52.7138 83.8118 36.1427 83.9042 35.9115C84.0429 35.6111 84.3434 35.5186 86.8394 35.5186L86.8395 112.25L138.957 112.25L139.026 105.131C139.072 101.226 139.142 97.8744 139.188 97.6895C139.234 97.5046 140.505 96.3027 142.007 95.0085C143.51 93.7373 145.081 92.5124 145.474 92.3044C145.89 92.0733 146.445 91.9115 146.699 91.9115C146.953 91.9115 147.369 92.027 147.624 92.1426C147.878 92.2582 148.086 92.5817 148.086 92.836C148.086 93.2982 148.248 93.2982 161.837 93.2982L162.646 91.5186C163.085 90.5248 163.779 89.2767 164.957 87.7513L134.149 87.89C103.388 88.0518 103.364 88.0518 102.209 87.1042L102.139 62.8599C102.07 39.8868 102.093 38.5925 102.486 37.8529C102.787 37.252 102.833 37.044 102.602 36.9747C102.417 36.9285 102.324 36.4431 102.324 34.1319H93.8192C89.1506 34.1319 85.1292 34.0626 84.8749 34.0164C84.6207 33.947 84.2278 33.5772 83.9967 33.2074C83.65 32.5834 83.6269 32.4679 84.2971 31.3585H102.209L102.163 26.4819C102.116 21.7209 102.116 21.6053 102.625 21.12L103.133 20.6115ZM280.054 131.918C280.355 131.895 280.355 131.918 280.054 132.103C279.777 132.288 279.731 132.588 280.054 134.784L279.061 135.038C278.367 135.223 277.789 135.639 277.05 136.448C276.472 137.072 275.756 138.112 274.854 139.869L274.739 152.002C274.669 158.658 274.531 164.321 274.438 164.529C274.299 164.876 274.161 164.899 273.514 164.691C273.121 164.575 272.728 164.413 272.659 164.344C272.589 164.252 272.474 161.64 272.381 158.497C272.289 155.377 272.15 149.737 272.058 145.993C271.942 141.093 271.965 138.852 272.15 138.02C272.312 137.372 272.751 136.356 273.121 135.755C273.491 135.154 274.299 134.275 274.9 133.79C275.524 133.305 276.588 132.727 277.281 132.519C277.974 132.311 278.806 132.08 279.13 132.034C279.453 131.987 279.869 131.941 280.054 131.918Z" fill="#2929CF"/>
<path fill-rule="evenodd" clip-rule="evenodd" d="M127.979 20.6115C141.383 20.6115 146.838 20.6346 140.112 20.6577C133.387 20.7039 122.409 20.7039 115.729 20.6577C109.05 20.6346 114.574 20.6115 127.979 20.6115ZM246.172 24.3094L246.265 28.1228C246.311 30.7807 246.404 31.9825 246.612 32.0981C246.796 32.2213 246.758 32.2829 246.496 32.2829C246.103 32.2829 246.08 31.9594 246.126 28.2846L246.172 24.3094ZM88.4573 31.2429C90.5605 31.2429 91.4387 31.266 90.4218 31.3123C89.4049 31.3585 87.6946 31.3585 86.6084 31.3123C85.5221 31.266 86.3541 31.2429 88.4573 31.2429ZM267.389 34.0626C267.528 34.1319 267.597 34.4786 267.597 34.8484C267.574 35.2182 267.412 35.8422 267.227 36.2351C267.042 36.6049 266.673 37.0209 266.418 37.1595C266.164 37.2751 265.494 37.3907 264.916 37.3907C264.292 37.3907 263.83 37.4831 263.784 37.668C263.707 37.8529 263.668 37.8375 263.668 37.6218C263.645 37.3213 262.998 37.2751 259.069 37.3213C256.573 37.3444 252.852 37.5062 250.841 37.668C248.83 37.8298 247.143 38.0378 247.097 38.1302C247.051 38.2227 246.889 38.3151 246.773 38.3151C246.635 38.3151 246.496 38.1302 246.45 37.8991C246.404 37.668 246.357 48.3688 246.334 61.6581C246.311 82.8747 246.357 85.8793 246.658 86.5033C246.912 86.9655 247.004 87.8669 247.004 91.7035L233.761 91.6341C225.695 91.5879 220.403 91.4955 220.195 91.3568C220.01 91.2181 219.686 91.1026 219.501 91.0794C219.317 91.0563 218.739 90.9177 218.23 90.7559C217.722 90.6172 217.075 90.3861 216.774 90.2705C216.451 90.155 216.22 90.155 216.15 90.3168C216.081 90.4323 215.919 90.5479 215.804 90.5479C215.665 90.5479 215.526 90.2705 215.457 89.9701C215.387 89.6465 215.226 89.3923 215.11 89.3923C214.971 89.3923 214.879 89.0225 214.879 87.7745H245.387L245.733 86.9655C246.034 86.2491 246.08 82.8054 246.08 35.195L266.372 35.4262L266.765 34.6866C266.996 34.2706 267.274 33.9932 267.389 34.0626ZM102.209 34.155C102.278 34.155 102.324 34.7097 102.324 35.4262C102.324 36.5124 102.255 36.6742 101.908 36.5817C101.7 36.5355 99.1812 36.4662 96.3153 36.42C92.8255 36.3969 91.7623 36.3275 93.0797 36.2351C94.1659 36.1657 94.8362 36.0502 94.582 35.9808C94.3277 35.9115 95.206 35.7035 96.5465 35.5417C97.8869 35.3799 99.551 35.3106 100.244 35.3799C100.938 35.4493 101.585 35.5186 101.677 35.5186C101.77 35.5186 101.885 35.7035 101.955 35.9346C102.001 36.1657 102.047 35.8422 102.07 35.2413C102.07 34.6404 102.14 34.155 102.209 34.155ZM96.7776 34.2475C99.6434 34.2475 100.776 34.2706 99.3199 34.3168C97.8638 34.363 95.5064 34.363 94.1197 34.3168C92.7099 34.2706 93.9117 34.2475 96.7776 34.2475ZM87.0013 48.3688C87.0475 50.6338 87.0475 54.4472 87.0013 56.8046C86.9782 59.1389 86.9319 57.2668 86.9319 52.6445C86.9319 47.999 86.9782 46.0807 87.0013 48.3688ZM263.807 60.1558C263.853 66.2342 263.853 76.2879 263.807 82.4587C263.784 88.6065 263.761 83.6143 263.761 71.3651C263.761 59.0927 263.784 54.0543 263.807 60.1558ZM102.024 58.1913C102.07 61.7968 102.07 67.6209 102.024 71.1339C102.001 74.6238 101.955 71.6655 101.955 64.5471C101.955 57.4055 102.001 54.5628 102.024 58.1913ZM83.5345 59.2313C83.5807 62.6519 83.5807 68.2218 83.5345 71.5962C83.5114 74.9474 83.4652 72.1509 83.4652 65.356C83.4652 58.538 83.5114 55.7877 83.5345 59.2313ZM103.11 87.8207C103.434 87.9825 110.044 88.0287 125.09 87.9825C136.9 87.9131 144.411 87.9131 136.992 88.0056V89.5079C136.992 90.571 136.877 91.1026 136.622 91.3568C136.299 91.6572 134.034 91.7035 101.862 91.7035V90.3168C101.862 89.4616 102.001 88.6527 102.232 88.2367C102.556 87.6589 102.671 87.6127 103.11 87.8207ZM87.0013 92.9746C87.0475 94.6156 87.0475 97.2734 87.0013 98.845C86.9782 100.44 86.9319 99.0993 86.9319 95.8636C86.9319 92.6048 86.9782 91.3106 87.0013 92.9746ZM147.785 101.064C147.832 103.722 147.832 108.136 147.785 110.886C147.762 113.613 147.716 111.418 147.716 106.033C147.716 100.625 147.762 98.3828 147.785 101.064ZM149.265 98.9837L152.2 99.0299C153.818 99.053 156.545 99.1917 158.255 99.3535C160.266 99.5153 166.876 99.5615 177.091 99.5153C185.735 99.4691 192.853 99.3766 192.923 99.2842C192.992 99.2148 196.806 99.0761 209.794 98.8681L209.748 102.959C209.702 105.663 209.679 106.218 209.563 102.104L207.298 102.127C206.073 102.127 204.063 102.034 202.861 101.896C201.659 101.757 199.741 101.595 198.631 101.526C197.291 101.434 196.505 101.295 196.274 101.064C196.089 100.856 195.927 100.44 195.927 100.139C195.927 99.8157 196.043 99.5153 196.205 99.4459C196.366 99.3997 195.789 99.3535 194.934 99.3304C193.963 99.3304 193.431 99.3997 193.501 99.5615C193.57 99.7002 192.276 99.8157 189.964 99.8851C187.977 99.9544 181.598 100.162 175.82 100.37C170.042 100.555 163.871 100.786 162.115 100.879C159.804 101.018 158.879 101.133 158.763 101.364C158.648 101.595 158.463 101.618 158.139 101.457C157.885 101.318 157.469 101.272 157.215 101.341C156.961 101.41 156.614 101.572 156.452 101.711C156.291 101.873 156.152 102.104 156.152 102.266C156.175 102.427 156.568 102.982 157.03 103.49C157.515 103.999 158.024 104.415 158.186 104.415C158.347 104.415 158.486 104.6 158.486 104.877C158.486 105.131 158.579 105.339 158.717 105.339C158.833 105.339 159.249 105.524 159.642 105.802C160.012 106.056 160.335 106.449 160.335 106.726C160.335 106.98 160.15 107.466 159.942 107.812C159.711 108.205 159.619 108.668 159.711 109.037C159.78 109.338 160.058 109.892 160.312 110.239C160.612 110.632 161.005 110.886 161.375 110.886C161.86 110.886 161.93 110.956 161.814 111.395C161.722 111.672 161.676 112.25 161.722 113.429L160.612 113.29C160.012 113.221 159.064 113.105 158.486 113.036C157.539 112.92 157.423 112.966 157.261 113.452C157.169 113.752 157.099 115.439 157.099 117.242C157.099 119.022 157.03 120.663 156.961 120.94C156.868 121.194 156.291 121.726 155.62 122.142C154.465 122.904 154.395 122.904 149.241 122.904V118.328C149.241 115.809 149.195 109.916 149.149 105.224C149.103 100.509 149.103 97.181 149.265 98.9837ZM139.003 99.6771C139.049 100.671 139.049 102.404 139.003 103.49C138.957 104.554 138.934 103.722 138.934 101.642C138.934 99.5384 138.957 98.6601 139.003 99.6771ZM209.725 111.58C209.771 113.544 209.771 116.872 209.725 118.975C209.702 121.055 209.656 119.461 209.656 115.393C209.656 111.302 209.702 109.592 209.725 111.58ZM129.134 112.134C131.746 112.134 132.786 112.157 131.445 112.204C130.105 112.25 127.979 112.25 126.707 112.204C125.436 112.157 126.522 112.134 129.134 112.134ZM217.075 115.139C219.363 115.139 220.241 115.162 219.039 115.208C217.837 115.254 215.965 115.254 214.879 115.208C213.793 115.162 214.787 115.139 217.075 115.139ZM192.923 116.294C195.65 116.294 196.736 116.318 195.35 116.364C193.94 116.41 191.721 116.41 190.38 116.364C189.04 116.318 190.196 116.294 192.923 116.294ZM130.29 122.766C133.271 122.766 134.473 122.789 132.948 122.835C131.422 122.881 128.972 122.881 127.516 122.835C126.06 122.789 127.308 122.766 130.29 122.766ZM265.956 126.233C275.94 126.233 279.985 126.256 274.97 126.302C269.955 126.348 261.773 126.348 256.827 126.302C251.858 126.256 255.972 126.233 265.956 126.233ZM184.949 127.758C185.019 127.758 185.042 128.96 185.019 130.462C184.995 131.964 184.949 132.866 184.811 131.802H183.146C182.222 131.826 180.674 131.849 177.9 131.918L177.785 148.674L177.715 141.509C177.669 137.557 177.692 133.259 177.761 131.964C177.854 130.508 177.993 129.63 178.131 129.722C178.247 129.769 179.818 129.746 184.834 129.491V128.613C184.834 128.128 184.88 127.758 184.949 127.758ZM75.9769 128.313C77.9414 128.313 78.7735 128.336 77.8259 128.382C76.8783 128.428 75.2605 128.428 74.2435 128.382C73.2266 128.336 74.0124 128.313 75.9769 128.313ZM95.9687 128.313C102.694 128.313 105.514 128.336 102.209 128.382C98.9039 128.428 93.3801 128.428 89.9596 128.382C86.5159 128.336 89.22 128.313 95.9687 128.313ZM273.121 128.775C279.661 128.775 282.319 128.798 279.014 128.844C275.709 128.89 270.347 128.89 267.112 128.844C263.876 128.798 266.58 128.775 273.121 128.775ZM174.11 129.145C174.156 129.145 174.156 129.514 174.087 130C173.994 130.624 174.017 130.762 174.179 130.531C174.387 130.231 174.433 130.254 174.456 130.647C174.48 130.901 174.572 130.693 174.641 130.185C174.757 129.514 174.849 130.115 174.965 132.38C175.08 134.091 175.127 136.887 175.08 138.62C175.011 141.255 174.988 141.024 174.896 132.38H173.74L173.671 138.436C173.624 141.787 173.601 141.278 173.648 137.349C173.671 133.397 173.763 129.93 173.856 129.653C173.948 129.376 174.064 129.145 174.11 129.145ZM81.5238 129.746C83.1185 129.792 84.6439 129.861 84.9212 129.93C85.3603 130.046 85.4528 130.208 85.4528 131.109C85.4528 131.733 85.5683 132.172 85.7301 132.242C85.8919 132.288 85.7301 132.334 85.3834 132.357C85.0367 132.357 84.3434 132.635 83.835 132.958C83.3265 133.259 82.8873 133.443 82.8411 133.328C82.818 133.235 82.2171 132.866 80.2526 131.895L73.2497 131.895C67.8184 131.895 66.27 131.849 66.27 131.618C66.27 131.456 66.3624 130.994 66.7322 129.838L72.6719 129.746C75.9538 129.699 79.9291 129.699 81.5238 129.746ZM90.3063 129.63C91.1383 129.607 92.4788 129.722 93.3108 129.861C94.1428 130 95.0442 130.115 95.3215 130.092C95.622 130.069 95.8531 130.162 95.8531 130.3C95.8531 130.416 95.4833 130.693 95.0442 130.924C94.2584 131.317 94.2584 131.34 94.582 132.034C94.7668 132.403 95.3446 133.12 96.8007 134.576H107.062L108.264 135.2C108.934 135.547 109.674 135.824 109.882 135.824C110.159 135.824 110.352 136.078 110.46 136.587C110.575 137.003 110.645 137.835 110.645 139.545L105.445 139.476C102.579 139.452 100.221 139.499 100.175 139.591C100.152 139.684 99.4816 139.799 98.6958 139.822C97.91 139.845 97.3322 139.961 97.3784 140.053C97.4247 140.146 97.2167 140.285 96.8931 140.354C96.5696 140.4 96.1998 140.4 96.0842 140.354C95.9455 140.285 95.8531 140.331 95.8531 140.469C95.8531 140.585 95.4602 140.816 94.9749 140.978C94.5126 141.117 94.0273 141.232 93.9348 141.209C93.8424 141.163 93.773 141.232 93.773 141.325C93.773 141.417 93.357 141.787 92.8486 142.133C92.3401 142.48 91.7854 142.711 91.6236 142.642C91.4387 142.573 91.277 141.463 91.1614 139.013C91.0458 137.049 90.8147 135.084 90.6298 134.553C90.4449 134.044 90.0751 133.328 89.8209 132.958C89.5436 132.565 88.804 131.872 88.2031 131.386C87.5791 130.901 87.0937 130.393 87.1399 130.231C87.1862 130.069 87.5791 129.884 88.0182 129.792C88.4342 129.722 89.4742 129.653 90.3063 129.63ZM118.433 132.034C118.48 133.42 118.48 135.801 118.433 137.349C118.387 138.875 118.364 137.719 118.364 134.807C118.364 131.872 118.387 130.624 118.433 132.034ZM249.547 129.954C249.986 130 250.633 130.046 250.98 130.046C251.326 130.046 251.581 130.138 251.534 130.231C251.488 130.323 251.026 130.485 250.494 130.578C249.963 130.67 249.246 130.901 248.9 131.086C248.553 131.248 247.929 131.756 247.513 132.172C247.051 132.635 246.612 133.42 246.404 134.114C246.219 134.738 246.08 136.171 246.08 137.28C246.08 138.736 245.988 139.314 245.78 139.314C245.595 139.314 245.433 138.667 245.294 137.396C245.179 136.356 245.109 135.107 245.132 134.622C245.132 134.137 245.317 133.351 245.502 132.843C245.687 132.311 245.941 131.918 246.08 131.918C246.196 131.918 246.265 131.826 246.219 131.733C246.149 131.641 246.242 131.41 246.38 131.202C246.542 131.017 246.912 130.693 247.236 130.485C247.559 130.277 248.021 130.069 248.276 130C248.53 129.907 249.108 129.907 249.547 129.954ZM264.292 130.323C266.673 130.277 271.179 130.323 280.078 130.647L279.939 131.155C279.823 131.664 279.87 131.664 282.134 131.456L282.55 132.889C282.805 133.675 283.059 134.715 283.29 136.078H281.603C280.678 136.078 279.569 136.217 279.13 136.379C278.691 136.517 277.813 137.049 277.212 137.511C276.611 137.996 276.079 138.274 276.01 138.158C275.94 138.02 276.079 137.627 276.31 137.28C276.565 136.933 277.119 136.309 277.581 135.893C278.067 135.454 278.783 135.084 280.054 134.923L279.87 133.628C279.731 132.611 279.777 132.288 280.054 132.126C280.286 131.964 280.124 131.941 279.477 132.034C278.968 132.103 277.974 132.334 277.281 132.542C276.588 132.75 275.501 133.328 274.9 133.813C274.3 134.275 273.491 135.177 273.121 135.778C272.728 136.379 272.312 137.396 272.15 138.043C271.965 138.852 271.942 141.093 272.035 145.785C272.127 149.391 272.266 153.944 272.543 159.352L270.579 159.629L270.509 166.401C270.463 170.214 270.417 168.273 270.417 161.94C270.394 153.967 270.324 150.384 270.116 149.46C269.954 148.767 269.539 147.565 269.192 146.802C268.845 146.062 268.152 144.791 267.643 144.029C267.112 143.289 266.234 142.249 265.679 141.741C265.124 141.232 264.061 140.562 263.298 140.215C262.536 139.869 261.241 139.453 260.409 139.268C259.439 139.06 257.428 138.944 254.747 138.944C252.228 138.944 250.517 138.875 250.425 138.713C250.333 138.597 250.309 137.927 250.379 137.211C250.448 136.517 250.587 135.616 250.679 135.2C250.841 134.576 251.003 134.437 251.766 134.299C252.251 134.229 253.753 134.206 255.094 134.275C256.527 134.345 258.329 134.622 261.542 135.477L262.027 135.015C262.351 134.715 262.512 134.275 262.512 133.628C262.512 132.889 262.397 132.611 261.865 132.195C261.519 131.918 260.71 131.456 260.086 131.155C259.115 130.716 259.023 130.624 259.462 130.508C259.762 130.462 261.935 130.37 264.292 130.323ZM89.3125 138.944C89.3587 139.961 89.3587 141.694 89.3125 142.758C89.2662 143.844 89.2431 143.012 89.2431 140.909C89.2431 138.828 89.2662 137.95 89.3125 138.944ZM82.7949 137.812C82.9105 137.835 83.2803 138.297 84.1816 139.869V152.233C84.1816 159.051 84.1585 164.298 84.043 163.211L80.0677 162.934C77.8721 162.749 75.168 162.541 72.0017 162.287L71.1928 161.016C70.7537 160.322 69.8292 158.612 69.1589 157.202C68.4656 155.816 67.6335 153.897 67.31 152.927C67.0095 151.979 66.5242 150.269 66.2931 149.113C66.0388 147.981 65.669 145.947 65.4842 144.606C65.2993 143.289 65.0913 141.278 65.0219 140.169C64.9295 139.06 64.9064 138.135 64.9295 138.089C64.9757 138.066 68.9509 137.996 73.7813 137.927C78.6117 137.858 82.6562 137.812 82.7949 137.812ZM274.9 146.571C274.947 149.506 274.947 154.337 274.9 157.318C274.877 160.322 274.831 157.919 274.831 152.002C274.831 146.109 274.877 143.659 274.9 146.571ZM185.227 145.415C185.273 147.079 185.273 149.668 185.227 151.193C185.203 152.742 185.157 151.378 185.157 148.189C185.157 145.022 185.203 143.774 185.227 145.415ZM206.559 142.642C212.337 142.642 214.671 142.665 211.759 142.711C208.824 142.757 204.109 142.757 201.243 142.711C198.377 142.665 200.781 142.642 206.559 142.642ZM128.094 142.873C138.263 142.873 142.47 142.896 137.454 142.942C132.439 142.966 124.119 142.966 118.965 142.942C113.811 142.896 117.925 142.873 128.094 142.873ZM174.133 159.398C174.179 162.148 174.179 166.724 174.133 169.567C174.11 172.433 174.064 170.214 174.064 164.598C174.064 159.005 174.11 156.671 174.133 159.398ZM187.746 157.642C187.792 157.665 187.861 161.524 187.908 166.216C187.954 170.931 187.954 172.687 187.815 165.523L185.758 165.638L185.758 162.171C185.758 160.276 185.689 158.589 185.643 158.427C185.55 158.219 185.735 158.173 186.267 158.219C186.752 158.289 187.145 158.173 187.353 157.965C187.538 157.757 187.7 157.618 187.746 157.642ZM87.2324 165.523C87.2786 167.187 87.2786 169.937 87.2324 171.647C87.2093 173.381 87.1631 172.017 87.1631 168.643C87.1631 165.292 87.2093 163.882 87.2324 165.523ZM271.203 164.275C271.434 164.275 272.081 164.367 272.659 164.506C273.236 164.644 273.814 164.783 273.976 164.852C274.161 164.922 274.207 165.107 274.092 165.338C273.999 165.546 273.468 166.031 272.89 166.424C272.312 166.817 271.711 167.256 271.549 167.441C271.364 167.603 271.156 167.741 271.087 167.741C270.995 167.741 270.879 166.956 270.856 166.008C270.787 164.46 270.833 164.275 271.203 164.275Z" fill="#DFDFEE"/>
<path fill-rule="evenodd" clip-rule="evenodd" d="M242.613 26.9672L242.475 27.4988C242.405 27.7761 242.29 40.8112 242.22 56.4348C242.151 72.0584 242.082 84.8855 242.059 84.9086C242.059 84.9317 237.667 84.8624 232.328 84.7468C226.99 84.6313 219.848 84.5157 216.427 84.5157C210.28 84.5157 210.257 84.5157 209.91 85.0242C209.725 85.3246 209.563 85.9717 209.563 86.4802C209.563 86.9887 209.679 87.5433 209.841 87.682C210.002 87.8438 210.095 88.0287 210.026 88.098C209.956 88.1674 209.286 88.2829 207.183 88.5603L207.321 87.6358C207.391 87.1273 207.529 86.1335 207.622 85.4402C207.691 84.7468 208.015 82.8979 208.315 81.3263C208.616 79.7778 208.87 78.1599 208.87 77.7439C208.87 77.2124 208.685 76.8195 207.46 75.6176L191.004 75.687C175.774 75.7332 174.503 75.7563 173.994 76.1492C173.694 76.3572 173.255 76.9119 173.023 77.351C172.792 77.7902 172.33 79.2 172.007 80.4711C171.66 81.7423 171.267 84.0072 170.851 88.2136H168.886L169.118 87.4509C169.256 87.058 169.349 86.2491 169.349 84.6313L105.444 84.793L105.629 84.0303C105.722 83.5912 105.791 70.7179 105.791 27.545L152.778 27.4757C178.593 27.4526 207.391 27.337 216.728 27.2446C226.065 27.129 235.726 27.0366 242.613 26.9672ZM175.635 78.4373L177.184 78.576C178.016 78.6684 184.718 78.7377 205.403 78.7377L205.288 79.3849C205.218 79.7315 204.987 81.0027 204.756 82.2045C204.548 83.4063 204.294 84.4233 204.178 84.4695C204.086 84.4926 203.462 84.5157 202.815 84.5157C201.59 84.5157 201.59 84.5157 200.665 82.5512L190.45 82.505C180.65 82.4356 180.165 82.4587 179.171 82.8979C178.362 83.2445 177.993 83.3139 177.553 83.129C177.091 82.9441 176.906 82.9903 176.629 83.3139C176.444 83.5219 176.028 84.4926 175.704 85.4402C175.381 86.3877 175.127 87.4047 175.127 87.7051C175.127 88.098 174.988 88.2136 173.855 88.2136L174.04 86.0642C174.133 84.9086 174.364 83.1059 174.526 82.089C174.711 81.072 175.011 79.824 175.242 79.3386L175.635 78.4373ZM197.822 85.2553C198.169 85.2091 198.238 85.4171 198.238 88.4447L197.129 88.4216C196.528 88.3985 196.274 88.3523 196.551 88.306C197.06 88.2136 197.083 88.2136 196.274 86.6189L194.309 86.5495C193.223 86.5033 190.057 86.4802 182.176 86.5264L181.991 87.2429C181.852 87.8669 181.898 88.0056 182.338 88.1905C182.8 88.3985 182.777 88.4216 181.251 88.4447V85.4402L189.34 85.3708C193.778 85.3477 197.614 85.3015 197.822 85.2553ZM189.271 90.7559C210.049 90.7559 211.435 90.779 211.782 91.1488C212.129 91.5417 212.129 91.5648 211.666 91.7266C211.389 91.8422 201.081 91.9346 188.763 91.9577C166.437 92.027 166.344 92.027 166.483 91.5648C166.575 91.3106 166.737 91.0332 166.899 90.9408C167.038 90.8483 177.114 90.7559 189.271 90.7559ZM175.381 93.252C178.986 93.2751 182.499 93.3444 183.216 93.3675C183.909 93.4137 180.928 93.46 176.56 93.4831C172.215 93.5062 168.702 93.46 168.748 93.3444C168.794 93.252 171.775 93.2057 175.381 93.252ZM206.721 93.1826C208.408 93.1826 209.794 93.252 209.794 93.3444C209.794 93.46 206.443 93.5062 202.329 93.4831C195.65 93.4369 195.35 93.4137 199.279 93.2982C201.682 93.2289 205.033 93.1826 206.721 93.1826ZM144.781 97.7126C144.827 97.6894 144.85 98.0823 144.85 99.4228L143.51 99.7233C142.793 99.8851 142.1 99.9544 142.007 99.8388C141.892 99.7464 142.47 99.2148 143.279 98.6833C144.064 98.1517 144.758 97.7126 144.781 97.7126ZM174.641 119.23C174.942 119.299 175.011 119.738 175.057 121.795C175.104 123.159 175.034 124.268 174.942 124.268C174.849 124.291 174.618 124.106 174.433 123.898C174.225 123.69 173.879 123.413 173.624 123.274C173.37 123.136 172.607 122.904 170.689 122.535L171.221 121.864C171.66 121.333 171.891 121.217 172.469 121.333C172.839 121.402 173.347 121.518 173.555 121.587C173.902 121.703 173.994 121.518 174.133 120.431C174.248 119.461 174.364 119.183 174.641 119.23ZM187.838 119.183H189.71L189.803 123.182L188.994 123.528C188.532 123.713 188.092 123.968 188 124.129C187.908 124.268 187.838 123.205 187.838 121.772V119.183ZM161.491 119.415H162.877V122.881H161.491V119.415ZM155.713 125.1C157.562 125.123 161.56 125.285 164.611 125.424C167.662 125.585 170.204 125.747 170.273 125.793C170.343 125.863 170.343 125.955 170.273 126.001C170.204 126.071 169.903 126.163 169.58 126.233C169.256 126.302 161.676 126.417 152.708 126.487C143.741 126.556 136.322 126.695 136.229 126.764C136.137 126.857 136.068 127.296 136.114 127.735C136.16 128.359 136.299 128.567 136.761 128.706C137.085 128.775 142.4 128.867 159.873 128.89L160.959 130.092C161.56 130.739 162.23 131.548 162.438 131.872C162.623 132.219 162.97 133.004 163.178 133.628C163.409 134.275 163.663 135.87 163.917 139.545L161.953 139.522L162.115 137.28C162.23 135.477 162.184 134.807 161.884 133.975C161.676 133.374 161.121 132.588 160.52 132.034C159.965 131.525 158.948 130.855 156.984 129.93L146.699 129.815C141.037 129.722 136.206 129.607 135.952 129.538C135.698 129.468 132.924 129.376 129.781 129.33C124.35 129.26 124.073 129.26 123.587 129.699C123.31 129.954 122.917 130.462 122.755 130.809C122.524 131.271 122.409 132.588 122.362 135.477C122.316 139.499 122.316 139.522 121.276 139.522L121.322 134.391C121.392 129.376 121.392 129.214 121.969 128.243C122.293 127.689 122.963 126.926 123.472 126.556C123.98 126.186 124.858 125.77 125.436 125.655C126.014 125.539 129.758 125.424 133.756 125.401C137.755 125.401 143.579 125.308 146.699 125.216C149.819 125.123 153.864 125.077 155.713 125.1ZM215.919 125.539C232.606 125.562 233.276 125.585 235.217 126.464L190.727 126.556L189.918 127.226C189.479 127.596 188.809 128.451 188.439 129.145C187.769 130.37 187.746 130.508 187.422 139.406L187.468 134.668C187.491 130.531 187.538 129.838 187.907 129.122C188.162 128.682 188.624 128.035 188.948 127.665C189.294 127.296 189.872 126.857 190.265 126.649C190.635 126.441 191.259 126.186 191.652 126.071C192.021 125.955 193.755 125.77 195.465 125.678C197.175 125.562 206.374 125.516 215.919 125.539ZM212.614 128.659C223.777 128.659 232.906 128.752 232.906 128.844C232.906 128.937 232.768 129.052 232.606 129.075C232.444 129.098 223.361 129.191 212.383 129.237C199.926 129.33 192.229 129.445 191.883 129.584C191.536 129.746 191.282 129.746 191.282 129.607C191.259 129.491 191.49 129.237 191.79 129.029C192.276 128.706 194.61 128.659 212.614 128.659ZM165.42 128.89C167.893 128.89 170.019 129.006 170.273 129.122C170.527 129.26 170.735 129.514 170.735 129.699C170.735 129.977 170.574 130.023 170.088 129.907C169.742 129.815 167.685 129.722 165.535 129.699C163.363 129.676 161.468 129.584 161.306 129.514C161.144 129.422 161.028 129.26 161.028 129.122C161.028 128.983 162.646 128.89 165.42 128.89ZM235.033 131.04C235.125 130.994 235.402 131.317 235.61 131.733C235.911 132.311 236.003 133.143 236.049 135.246C236.073 136.772 236.049 137.488 236.003 136.818C235.911 135.732 235.818 135.524 235.033 134.899C234.57 134.53 233.646 134.044 233.022 133.813C232.19 133.536 231.104 133.42 229.208 133.42C226.666 133.397 226.504 133.443 225.626 134.044C224.748 134.645 224.609 134.668 221.35 134.322L221.489 134.899C221.628 135.408 221.558 135.385 221.096 134.691C220.796 134.252 220.079 133.582 218.531 132.473L211.32 132.311C207.368 132.219 203.762 132.195 203.323 132.265C202.884 132.357 202.352 132.473 202.167 132.542C201.921 132.635 201.882 132.596 202.052 132.427C202.167 132.288 202.907 131.987 203.67 131.756C204.895 131.41 206.628 131.34 219.964 131.225C228.168 131.132 234.94 131.063 235.033 131.04ZM149.01 131.34C155.458 131.34 156.106 131.387 156.753 131.779C157.123 132.011 157.677 132.427 157.978 132.681C158.255 132.958 158.486 133.351 158.486 133.582C158.486 133.813 158.139 134.16 157.654 134.391C156.984 134.715 156.776 134.738 156.383 134.507C155.99 134.252 155.944 134.275 155.944 134.668C155.944 134.923 155.851 135.154 155.759 135.154C155.666 135.154 155.204 134.992 154.719 134.807C154.026 134.507 152.616 134.437 146.976 134.46C141.892 134.46 139.95 134.53 139.534 134.738C139.211 134.899 138.91 135.246 138.887 135.5C138.841 135.755 139.003 136.148 139.257 136.402C139.65 136.795 139.696 137.072 139.419 139.568L138.494 139.429C137.986 139.337 137.547 139.245 137.501 139.221C137.477 139.198 137.431 138.043 137.408 136.633C137.339 134.437 137.408 133.975 137.824 133.166C138.102 132.658 138.494 132.103 138.726 131.895C138.957 131.71 139.766 131.502 140.551 131.433C141.314 131.386 145.127 131.34 149.01 131.34ZM239.146 132.126H240.002C240.857 132.126 240.88 132.149 241.042 133.235C241.157 133.836 241.226 135.454 241.226 139.291L238.8 139.314L238.962 137.511C239.077 136.517 239.146 134.923 239.146 133.929V132.126ZM200.804 133.051C200.896 133.051 200.688 133.443 200.342 133.906C199.972 134.391 199.556 135.154 199.417 135.593C199.279 136.032 199.163 136.702 199.163 137.095C199.163 137.465 199.094 138.135 199.001 138.551C198.839 139.198 198.724 139.291 197.314 139.291V138.02C197.314 137.118 197.43 136.633 197.73 136.332C197.938 136.124 198.285 135.57 198.47 135.131C198.654 134.691 199.232 134.044 199.718 133.698C200.226 133.351 200.711 133.051 200.804 133.051ZM191.074 134.437H194.541L194.402 135.524C194.333 136.148 194.217 137.095 194.148 137.673C194.078 138.251 193.986 138.574 193.94 138.412C193.87 138.251 193.431 138.135 192.738 138.135C192.021 138.158 191.559 138.043 191.351 137.788C191.212 137.604 191.097 137.257 191.143 137.026C191.166 136.795 191.467 136.564 192.576 136.332L191.813 136.309C191.097 136.286 191.074 136.24 191.074 135.362V134.437ZM203.808 136.148C203.924 136.286 204.016 137.049 204.016 139.291H202.167L202.191 138.297C202.191 137.765 202.306 137.072 202.399 136.748C202.514 136.448 202.815 136.124 203.092 136.055C203.392 135.963 203.693 136.032 203.808 136.148ZM228.053 139.152C231.543 139.152 232.952 139.198 231.173 139.221C229.393 139.268 226.527 139.268 224.817 139.221C223.107 139.198 224.563 139.152 228.053 139.152ZM170.319 139.984C170.943 139.984 170.967 140.03 170.828 140.839C170.759 141.325 170.643 141.764 170.597 141.833C170.551 141.902 170.065 141.648 168.54 140.608L169.118 140.308C169.441 140.146 169.973 139.984 170.319 139.984ZM103.249 147.033C104.705 147.103 108.611 147.149 111.916 147.172C115.221 147.195 127.932 147.195 140.158 147.172C154.58 147.149 162.577 147.218 162.877 147.38C163.132 147.495 163.432 147.796 163.548 148.004C163.733 148.397 163.155 148.42 152.269 148.351C141.06 148.304 140.806 148.281 140.459 147.819C140.112 147.357 139.881 147.357 129.365 147.357C122.57 147.38 118.318 147.472 117.809 147.611C117.37 147.75 116.053 147.911 114.92 147.981C113.765 148.027 110.021 148.166 106.6 148.281C101.331 148.42 100.221 148.512 99.551 148.859C99.1118 149.09 98.3954 149.645 97.2398 150.962L97.4016 150.153C97.4709 149.714 97.7251 148.951 97.9563 148.466C98.3029 147.773 98.6034 147.542 99.4816 147.264C100.291 147.033 101.331 146.964 103.249 147.033Z" fill="white"/>
<path fill-rule="evenodd" clip-rule="evenodd" d="M80.8304 32.9763C81.3158 32.9763 81.5931 33.1381 81.778 33.5079C81.9398 33.7852 81.986 34.4092 81.8936 34.9408C81.8242 35.4493 81.6162 36.004 81.4775 36.1657C81.3158 36.3275 80.9229 36.4662 80.5993 36.4662C80.2757 36.4431 79.8828 36.3275 79.721 36.1657C79.5593 36.004 79.4206 35.4493 79.4206 34.9408C79.3975 34.4092 79.5593 33.7852 79.7904 33.4848C80.0215 33.1612 80.4144 32.9763 80.8304 32.9763ZM97.6789 131.202C98.0256 131.202 98.4185 131.317 98.5803 131.479C98.7421 131.641 98.8576 131.964 98.8576 132.172C98.8576 132.403 98.6034 132.75 98.2798 132.935C97.7714 133.235 97.6327 133.235 97.1243 132.935C96.8007 132.75 96.5233 132.403 96.5002 132.172C96.4771 131.941 96.5927 131.641 96.7776 131.479C96.9625 131.317 97.3554 131.202 97.6789 131.202ZM131.26 144.791C160.312 144.838 163.825 144.884 164.957 145.207C165.951 145.508 166.529 145.878 167.523 146.895C168.609 147.981 168.91 148.466 169.326 149.807C169.811 151.378 169.811 151.748 169.811 165.13C169.811 177.864 169.788 178.835 169.395 179.182C169.164 179.39 168.725 179.505 168.309 179.459C167.777 179.413 167.523 179.182 167.199 178.581C166.876 177.957 166.783 177.171 166.76 174.999C166.76 173.473 166.714 167.279 166.622 150.269L165.951 149.367C165.605 148.859 165.004 148.235 164.634 147.981C164.172 147.634 163.941 147.588 163.894 147.796C163.825 147.981 163.525 147.888 162.068 146.871L139.997 147.079C127.863 147.172 117.463 147.241 116.885 147.241C116.307 147.218 112.517 147.126 108.449 147.033C101.955 146.871 100.891 146.895 99.7128 147.241C98.6265 147.542 98.3261 147.75 98.0025 148.374C97.7945 148.767 97.5403 149.483 97.4016 149.922C97.286 150.361 97.1243 156.578 97.0318 163.72C96.8931 176.362 96.87 176.732 96.4309 177.055C96.1767 177.263 95.7838 177.425 95.5527 177.425C95.3446 177.425 94.9517 177.217 94.6975 176.963C94.2353 176.501 94.2353 176.223 94.3508 149.344L94.9749 148.027C95.3446 147.241 96.0149 146.363 96.5465 145.947C97.0318 145.531 97.7714 145.069 98.1412 144.953C98.6034 144.791 110.113 144.745 131.26 144.791ZM255.14 144.653C256.55 144.63 257.428 144.722 257.983 144.953C258.422 145.138 259.277 145.739 259.878 146.294C260.456 146.825 261.126 147.68 261.357 148.189C261.75 149.044 261.796 150.015 261.796 162.056C261.796 173.219 261.75 175.068 261.449 175.53C261.241 175.831 260.918 176.015 260.594 175.992C260.317 175.946 259.855 175.599 259.6 175.23C259.208 174.675 259.092 174.005 258.953 171.878C258.861 170.422 258.792 165.06 258.792 159.976C258.768 153.643 258.676 150.292 258.491 149.344C258.214 148.027 258.144 147.935 256.134 146.918L197.198 146.895L196.528 147.426C196.158 147.727 195.673 148.327 195.488 148.767C195.165 149.46 195.118 151.471 195.003 178.234L194.471 178.766C194.194 179.043 193.801 179.274 193.616 179.274C193.431 179.274 193.038 179.112 192.229 178.581V164.252C192.229 150.5 192.253 149.876 192.692 148.697C192.946 148.05 193.477 147.126 193.893 146.663C194.31 146.224 195.026 145.646 195.465 145.392C196.251 144.976 197.175 144.953 224.702 144.838C240.325 144.768 254.03 144.699 255.14 144.653ZM129.365 147.449C139.627 147.495 140.343 147.519 140.39 147.911C140.436 148.212 140.297 148.304 139.719 148.304C139.303 148.304 138.61 148.374 138.194 148.466C137.778 148.582 137.454 148.72 137.454 148.836C137.454 148.928 137.709 148.998 138.032 148.998C138.356 148.998 139.511 149.437 140.644 149.968C141.892 150.569 143.14 151.378 143.926 152.141C144.758 152.904 145.451 153.851 146.584 156.278V167.279C146.584 177.98 146.56 178.327 146.121 178.789C145.867 179.066 145.382 179.297 145.035 179.274C144.619 179.274 144.249 179.089 144.041 178.766C143.741 178.327 143.648 176.501 143.325 156.971L142.747 155.816C142.4 155.145 141.73 154.337 141.129 153.897C140.574 153.481 139.604 152.973 138.957 152.765C138.009 152.464 136.091 152.395 127.979 152.303C121.184 152.21 117.856 152.256 117.185 152.441C116.584 152.603 115.776 153.089 115.128 153.689C114.527 154.221 113.834 155.076 113.557 155.585C113.095 156.486 113.071 156.833 112.956 167.788C112.863 177.471 112.794 179.089 112.494 179.274C112.309 179.413 111.893 179.459 111.569 179.367C111.246 179.297 110.899 179.136 110.76 179.02C110.645 178.881 110.46 177.772 110.344 176.547C110.252 175.322 110.09 170.723 109.998 166.332C109.882 161.94 109.882 157.642 109.998 156.74C110.113 155.654 110.437 154.591 110.968 153.505C111.523 152.372 112.17 151.517 113.095 150.639C113.857 149.968 114.92 149.136 115.498 148.813C116.076 148.489 116.608 148.143 116.7 148.05C116.792 147.958 117.208 147.773 117.624 147.657C118.087 147.519 122.547 147.426 129.365 147.449ZM241.804 147.611C241.874 147.611 242.336 147.819 242.844 148.073C243.353 148.327 244.254 148.975 244.832 149.529C245.433 150.061 246.057 150.777 246.219 151.147C246.404 151.494 246.542 151.956 246.542 152.187C246.542 152.441 246.357 152.28 246.057 151.771C245.78 151.332 245.202 150.569 244.74 150.084C244.254 149.599 243.399 148.905 242.798 148.512C242.174 148.143 241.689 147.796 241.689 147.727C241.689 147.657 241.735 147.611 241.804 147.611ZM228.515 148.096C235.125 148.096 236.535 148.143 238.106 148.489C239.123 148.72 240.51 149.229 241.203 149.599C241.874 149.968 242.798 150.662 243.214 151.147C243.653 151.609 244.277 152.557 245.271 154.429L245.202 164.136C245.132 172.71 245.086 173.935 244.74 174.652C244.439 175.276 244.185 175.484 243.653 175.53C243.283 175.576 242.844 175.484 242.729 175.345C242.59 175.183 242.451 171.185 242.267 154.614L241.666 153.828C241.342 153.389 240.579 152.811 240.002 152.534C239.308 152.187 238.476 152.002 237.76 152.002C236.766 152.002 236.604 152.072 236.604 152.464C236.604 152.811 236.512 152.88 236.211 152.765C235.98 152.649 232.513 152.557 228.515 152.511C221.42 152.464 221.189 152.464 219.871 152.973C218.554 153.481 218.461 153.574 217.306 156.278L217.19 167.279C217.075 177.911 217.052 178.327 216.612 178.789C216.358 179.066 215.896 179.297 215.572 179.297C215.249 179.297 214.81 179.112 214.579 178.881C214.186 178.488 214.163 177.679 214.07 155.122L214.763 153.759C215.179 152.927 215.896 152.025 216.566 151.448C217.19 150.916 218.184 150.084 218.762 149.552C219.363 149.021 220.056 148.489 220.31 148.351C220.634 148.166 223.222 148.096 228.515 148.096Z" fill="#2929CF"/>
<path fill-rule="evenodd" clip-rule="evenodd" d="M242.382 23.5005V26.9672L233.53 27.0828C228.677 27.1521 209.771 27.3139 191.536 27.4295C173.301 27.5681 147.808 27.6606 134.912 27.6606C122.016 27.6606 110.182 27.5913 105.768 27.3139L105.907 23.8471L155.482 23.7316C182.754 23.6622 213.446 23.5929 242.382 23.5005ZM242.313 47.4212C242.359 53.0143 242.359 62.0741 242.313 67.5285C242.29 72.9829 242.266 68.4299 242.266 57.3593C242.266 46.2887 242.29 41.8281 242.313 47.4212ZM200.896 75.5945C204.317 75.5945 205.773 75.6407 204.132 75.6639C202.468 75.7101 199.671 75.7101 197.892 75.6639C196.112 75.6407 197.453 75.5945 200.896 75.5945ZM242.313 79.3155C242.359 80.3324 242.359 82.0427 242.313 83.129C242.29 84.2152 242.243 83.3832 242.243 81.28C242.243 79.1769 242.29 78.2986 242.313 79.3155ZM191.074 78.6222C198.516 78.6222 201.52 78.6453 197.776 78.6684C194.032 78.7146 187.954 78.7146 184.256 78.6684C180.558 78.6453 183.632 78.6222 191.074 78.6222ZM177.692 83.1983C178.247 83.4063 178.385 83.5681 178.27 83.9379C178.2 84.1921 178.131 85.3015 178.131 88.4447L176.675 88.3754C175.335 88.3291 175.242 88.2829 175.173 87.7513C175.15 87.4278 175.381 86.3877 175.704 85.4402C176.028 84.4926 176.444 83.5219 176.652 83.3139C176.929 82.9903 177.091 82.9672 177.692 83.1983ZM165.42 84.6081C167.638 84.6081 168.517 84.6544 167.384 84.6775C166.229 84.7237 164.426 84.7237 163.34 84.6775C162.253 84.6544 163.201 84.6081 165.42 84.6081ZM201.497 84.4926L204.479 84.6312L204.34 86.2491C204.271 87.1504 204.155 88.0056 204.109 88.1442C204.063 88.3291 203.554 88.4447 201.474 88.4447L201.497 84.4926ZM218.23 84.6312C222.668 84.6312 224.447 84.6544 222.159 84.7006C219.871 84.7237 216.219 84.7237 214.07 84.7006C211.898 84.6544 213.77 84.6312 218.23 84.6312ZM187.515 86.5033C190.427 86.5033 193.593 86.5264 196.274 86.5958L197.083 88.2136L196.32 88.3291C195.927 88.3985 192.715 88.4216 189.225 88.3985C185.735 88.3985 182.638 88.2829 182.338 88.1905C181.945 88.0287 181.852 87.8669 181.968 87.474C182.037 87.1736 182.129 86.85 182.176 86.7113C182.199 86.5726 184.163 86.4802 187.515 86.5033ZM188.693 91.9577C204.155 92.0039 207.853 92.0501 201.243 92.1426C193.917 92.235 192.46 92.3044 194.541 92.443C195.997 92.5355 200.295 92.6511 204.063 92.7204C209.979 92.8128 210.95 92.8822 210.95 93.1826C210.95 93.3906 210.719 93.5293 210.372 93.5293C210.049 93.5293 209.794 93.46 209.794 93.3675C209.794 93.252 208.408 93.2057 206.72 93.2289C205.056 93.252 201.682 93.2982 199.278 93.3213C195.927 93.3675 195.326 93.4137 196.736 93.5293C197.753 93.6217 194.725 93.668 190.034 93.668C185.319 93.6911 182.153 93.6217 182.985 93.5293C183.817 93.46 181.02 93.3444 176.744 93.2982C171.798 93.2289 168.863 93.2751 168.609 93.4137C168.401 93.5524 168.147 93.5755 168.077 93.4831C168.008 93.3675 168.008 93.2057 168.077 93.0671C168.147 92.9284 169.811 92.7897 171.937 92.6973C174.017 92.6279 175.866 92.4662 176.051 92.3506C176.259 92.2119 174.618 92.1657 171.59 92.1888C168.956 92.235 166.806 92.1888 166.806 92.0964C166.806 91.9808 176.652 91.9346 188.693 91.9577ZM144.434 99.5615C144.827 99.5384 144.85 100.232 144.85 122.881H142.077V111.672C142.077 105.501 142.007 100.301 141.892 100.116C141.776 99.8388 141.846 99.7926 142.192 99.8851C142.446 99.9544 142.955 99.9082 143.348 99.7926C143.718 99.677 144.226 99.5615 144.434 99.5615ZM174.318 119.183L174.133 120.385C174.017 121.055 173.925 121.633 173.902 121.656C173.879 121.68 173.393 121.564 172.839 121.425C171.868 121.148 171.822 121.171 170.643 122.535L171.452 122.673C171.891 122.766 170.134 122.835 162.877 122.881V119.415L162.115 119.345C161.722 119.299 164.287 119.23 174.318 119.183ZM189.733 119.114L192.206 119.276C193.547 119.345 195.835 119.415 199.856 119.415L199.741 122.881L195.165 122.951C192.668 122.974 190.427 122.997 190.196 122.997C189.849 122.997 189.803 122.743 189.779 121.055L189.733 119.114ZM141.129 128.752C143.348 128.752 144.249 128.798 143.094 128.844C141.961 128.867 140.135 128.867 139.049 128.844C137.963 128.798 138.91 128.752 141.129 128.752ZM165.628 128.752C167.731 128.752 168.609 128.798 167.592 128.844C166.575 128.867 164.865 128.867 163.779 128.844C162.692 128.798 163.524 128.752 165.628 128.752ZM127.724 129.237C129.435 129.306 132 129.376 133.387 129.399C134.796 129.422 136.553 129.561 137.316 129.699C138.125 129.884 138.448 130 138.078 130.023C137.732 130.046 137.108 130.346 136.692 130.716C136.276 131.086 135.628 131.941 135.259 132.611C134.635 133.744 134.565 134.137 134.311 139.522H122.409L122.27 138.551C122.201 137.996 122.201 136.772 122.27 135.824C122.339 134.876 122.409 133.467 122.409 132.704C122.409 131.641 122.524 131.132 122.94 130.508C123.241 130.069 123.749 129.561 124.049 129.399C124.465 129.168 125.367 129.122 127.724 129.237ZM200.873 129.376L199.602 129.884C198.724 130.231 197.822 130.855 196.644 132.01C195.719 132.889 194.91 133.813 194.864 134.044C194.772 134.368 194.471 134.437 191.051 134.437L191.12 132.195C191.166 130.046 191.189 129.93 191.744 129.653C192.16 129.445 193.593 129.376 200.873 129.376ZM164.588 129.63C165.859 129.607 167.731 129.676 168.748 129.792C170.111 129.954 170.643 129.93 170.782 129.746C170.874 129.584 170.943 131.826 170.943 139.984H170.366C170.042 139.984 169.557 140.1 169.279 140.238C168.863 140.446 168.54 140.423 167.777 140.123C167.222 139.915 166.136 139.684 163.894 139.476L163.732 137.141C163.64 135.847 163.386 134.275 163.178 133.628C162.97 133.004 162.554 132.103 162.276 131.664C161.999 131.225 161.722 130.624 161.629 130.346C161.514 129.954 161.583 129.792 161.884 129.746C162.092 129.699 163.316 129.653 164.588 129.63ZM148.178 131.294C150.975 131.294 152.061 131.34 150.605 131.386C149.149 131.41 146.861 131.41 145.52 131.386C144.18 131.34 145.382 131.294 148.178 131.294ZM121.207 133.859C121.23 135.015 121.23 136.772 121.207 137.788C121.16 138.805 121.114 137.881 121.114 135.708C121.114 133.559 121.16 132.727 121.207 133.859ZM238.892 131.895H241.203L241.18 132.773C241.134 133.605 241.134 133.605 241.065 132.889C240.972 132.172 240.926 132.126 239.123 132.126L238.985 137.095L238.892 131.895ZM158.81 133.744C159.041 134.16 159.156 135.107 159.156 139.522H139.396L139.557 138.204C139.719 137.049 139.673 136.795 139.257 136.402C139.003 136.148 138.841 135.732 138.864 135.477C138.91 135.223 139.211 134.899 139.511 134.738C139.95 134.53 141.915 134.437 146.976 134.437C152.616 134.437 154.002 134.507 154.719 134.784C155.204 134.992 155.666 135.131 155.759 135.131C155.851 135.131 155.921 134.923 155.921 134.668C155.921 134.275 155.99 134.252 156.383 134.507C156.753 134.738 156.984 134.715 157.654 134.391C158.116 134.16 158.486 133.79 158.486 133.582C158.486 133.259 158.579 133.305 158.81 133.744ZM229.532 133.374C230.988 133.42 232.536 133.628 233.114 133.836C233.692 134.044 234.524 134.507 234.963 134.876C235.68 135.454 235.795 135.708 235.934 136.887C236.026 137.65 236.165 138.459 236.234 138.713C236.373 139.175 236.281 139.175 221.535 139.175L221.651 138.251C221.72 137.742 221.72 136.679 221.443 134.391L223.153 134.53C224.563 134.645 224.933 134.622 225.349 134.275C225.626 134.067 226.111 133.744 226.412 133.559C226.851 133.328 227.66 133.282 229.532 133.374ZM203.97 136.517H218.785L218.854 137.858C218.9 138.574 218.924 139.198 218.924 139.221C218.924 139.245 215.572 139.291 204.109 139.337L203.97 136.517ZM281.187 136.98C282.273 136.98 283.29 137.049 283.452 137.141C283.66 137.28 283.798 138.181 283.891 140.1C283.983 141.787 283.914 143.682 283.752 144.953C283.59 146.086 283.013 148.374 282.458 150.038C281.903 151.679 281.002 154.082 280.424 155.353C279.869 156.625 278.852 158.866 278.205 160.322C277.535 161.779 276.957 163.165 276.888 163.373C276.842 163.604 276.703 163.743 276.564 163.674C276.426 163.604 276.333 159.514 276.333 140.793L277.096 139.291C277.558 138.366 278.113 137.65 278.529 137.396C279.06 137.072 279.708 136.98 281.187 136.98ZM194.171 137.673C194.24 137.673 194.286 138.181 194.286 139.984H193.477C193.015 139.984 192.738 139.892 192.784 139.753C192.853 139.614 192.668 139.568 192.276 139.661C191.675 139.776 191.628 139.73 191.513 138.135H192.668C193.408 138.135 193.87 138.251 193.94 138.412C193.986 138.574 194.032 138.482 194.055 138.181C194.055 137.904 194.125 137.673 194.171 137.673ZM201.22 144.699C203.323 144.699 204.201 144.722 203.184 144.768C202.167 144.814 200.457 144.814 199.371 144.768C198.308 144.722 199.14 144.699 201.22 144.699ZM247.906 144.699C250.772 144.699 251.927 144.745 250.448 144.768C248.992 144.814 246.658 144.814 245.248 144.768C243.861 144.745 245.063 144.699 247.906 144.699ZM107.501 147.01C109.789 147.01 110.691 147.033 109.466 147.079C108.264 147.126 106.392 147.126 105.306 147.079C104.243 147.033 105.213 147.01 107.501 147.01ZM153.032 147.01C158.116 147.01 160.15 147.056 157.538 147.079C154.95 147.126 150.79 147.126 148.294 147.079C145.821 147.056 147.947 147.01 153.032 147.01ZM164.01 147.611C164.148 147.611 164.564 147.888 164.981 148.235C165.373 148.582 165.905 149.252 166.159 149.691C166.645 150.477 166.645 150.8 166.668 160.831C166.668 167.58 166.598 171.185 166.437 171.185C166.321 171.185 164.079 171.324 161.468 171.509C158.879 171.694 155.181 171.948 153.263 172.11C151.368 172.248 149.103 172.433 146.722 172.687L146.56 156.278L145.867 154.799C145.428 153.851 144.735 152.904 143.903 152.118C143.117 151.378 141.892 150.569 140.621 149.968C139.511 149.437 138.333 148.998 138.009 148.998C137.709 148.998 137.431 148.905 137.431 148.813C137.431 148.72 137.778 148.559 138.194 148.466C138.61 148.374 144.134 148.281 150.489 148.304C156.845 148.304 162.461 148.374 162.947 148.489C163.501 148.582 163.825 148.559 163.779 148.42C163.756 148.281 163.756 148.05 163.756 147.888C163.779 147.727 163.894 147.611 164.01 147.611ZM115.544 147.865C115.775 147.865 116.122 147.911 116.353 147.981C116.654 148.096 116.492 148.258 115.591 148.767C114.967 149.113 113.88 149.922 113.164 150.546C112.47 151.193 111.569 152.303 111.176 153.065C110.76 153.805 110.321 154.891 110.159 155.469C109.951 156.209 109.882 158.82 109.905 164.945C109.951 169.59 110.021 173.589 110.067 173.843C110.182 174.282 110.044 174.305 103.757 174.467C98.8576 174.583 97.3091 174.698 97.1704 174.929C97.0548 175.091 97.0086 169.821 97.1011 151.193L97.7944 150.315C98.1873 149.83 98.9038 149.206 99.4123 148.928C100.267 148.489 100.915 148.443 106.924 148.258C110.552 148.166 113.88 148.027 114.319 148.004C114.782 147.958 115.313 147.888 115.544 147.865ZM220.172 148.304L218.924 149.391C218.23 149.992 217.167 150.916 216.566 151.448C215.896 152.002 215.156 152.95 214.047 155.122L213.931 172.11L212.73 172.202C212.059 172.271 208.246 172.549 204.224 172.803C200.226 173.08 196.505 173.381 194.933 173.612L195.049 161.594C195.095 153.458 195.211 149.391 195.396 148.998C195.534 148.674 195.65 148.535 195.627 148.674C195.627 148.859 195.881 148.859 196.505 148.628C197.222 148.397 199.926 148.327 220.172 148.304ZM243.584 148.281L249.963 148.374C253.476 148.443 256.804 148.559 257.335 148.628C257.959 148.72 258.375 148.905 258.491 149.159C258.583 149.391 258.699 154.406 258.815 171.069L257.936 170.908C257.451 170.815 254.724 170.653 246.75 170.376L246.912 162.287C247.027 156.44 247.004 153.944 246.819 153.273C246.681 152.765 246.496 152.025 246.403 151.656C246.334 151.24 245.733 150.408 244.924 149.622L243.584 148.281ZM192.16 157.318C192.183 161.062 192.183 167.302 192.16 171.185C192.114 175.068 192.091 171.994 192.091 164.367C192.091 156.74 192.114 153.574 192.16 157.318ZM169.973 158.127C169.996 161.802 169.996 167.903 169.973 171.647C169.926 175.391 169.903 172.387 169.903 164.945C169.903 157.503 169.926 154.429 169.973 158.127ZM237.737 152.002C238.476 152.002 239.308 152.187 239.978 152.511C240.579 152.811 241.319 153.389 242.243 154.614L242.266 163.419C242.29 168.273 242.266 171.855 242.105 170.607L235.934 170.792C232.536 170.885 227.475 171.07 224.678 171.185C221.882 171.324 219.363 171.486 218.554 171.647V163.604C218.554 159.19 218.6 155.515 218.669 155.4C218.739 155.307 219.085 155.4 220.056 156.001L221.443 154.706C222.413 153.805 223.084 153.366 223.638 153.273C224.101 153.204 226.227 153.158 228.376 153.158C230.549 153.158 232.906 153.25 233.646 153.389C234.362 153.505 235.287 153.828 235.656 154.082C236.049 154.337 236.627 154.545 236.928 154.545C237.251 154.545 237.505 154.475 237.505 154.36C237.505 154.267 237.297 153.874 237.043 153.505C236.789 153.112 236.581 152.626 236.581 152.395C236.581 152.072 236.789 152.002 237.737 152.002ZM127.724 152.303C136.114 152.395 137.986 152.464 138.933 152.765C139.581 152.973 140.551 153.481 141.106 153.897C141.684 154.337 142.377 155.145 143.325 156.971L143.44 173.034L142.932 173.126C142.631 173.196 141.06 173.288 139.396 173.358C137.755 173.427 134.427 173.589 132 173.704C129.596 173.843 125.321 174.051 122.524 174.19C119.728 174.328 117.093 174.536 116.631 174.652C116.191 174.744 115.752 174.767 115.66 174.698C115.544 174.606 115.475 170.561 115.475 165.684C115.475 160.831 115.406 156.902 115.313 156.948C115.221 156.994 114.874 157.549 113.973 159.282L114.111 178.003L112.933 178.812L113.002 167.649C113.048 156.717 113.071 156.486 113.557 155.585C113.834 155.076 114.458 154.267 114.943 153.782C115.429 153.32 116.238 152.765 116.746 152.58C117.532 152.28 119.173 152.233 127.724 152.303ZM217.352 159.282C217.398 160.554 217.398 162.68 217.352 164.02C217.306 165.361 217.283 164.321 217.283 161.709C217.283 159.098 217.306 158.011 217.352 159.282ZM245.387 164.483C245.479 165.315 245.548 166.979 245.548 168.181C245.548 169.382 245.479 171 245.387 171.763C245.271 172.664 245.202 171.37 245.202 168.065C245.202 164.691 245.271 163.489 245.387 164.483Z" fill="#DFDFEE"/>
<path d="M163.917 37.5756C166.598 37.0671 169.441 36.5586 170.273 36.4662C171.105 36.3506 172.284 36.2813 172.908 36.3044C173.624 36.3044 174.133 36.4431 174.271 36.6742C174.387 36.8591 174.433 37.2982 174.341 37.6449C174.225 38.2227 174.04 38.3151 172.538 38.6387C171.614 38.8467 168.563 39.4245 165.766 39.933C162.97 40.4414 158.971 41.181 156.868 41.5508C154.765 41.9206 152.593 42.2904 152.015 42.3828C151.09 42.5215 150.929 42.4753 150.559 41.9668C150.212 41.4815 150.189 41.3197 150.443 40.765C150.651 40.3028 150.998 40.0485 151.553 39.933C151.992 39.8174 153.864 39.4707 155.713 39.1241C157.562 38.7774 161.236 38.084 163.917 37.5756Z" fill="#2929CF"/>
<path d="M116.145 46.1269C116.122 42.3597 116.168 39.2396 116.238 39.1934C116.33 39.1472 120.675 39.1241 125.945 39.1472C131.191 39.1934 135.536 39.2858 135.605 39.3783C135.698 39.4939 135.698 45.1331 135.605 51.9742C135.536 58.7922 135.397 64.4546 135.305 64.5702C135.189 64.6626 130.983 64.6164 125.945 64.4546C116.931 64.1773 116.769 64.1542 116.353 63.6457C116.122 63.3684 115.937 62.9755 115.937 62.7906C115.937 62.6057 116.168 62.2359 116.446 61.9817C116.908 61.5425 117.116 61.5194 123.795 61.7043C127.562 61.7968 131.191 61.9585 133.063 62.2128V42.221H126.245C122.501 42.221 119.265 42.2673 119.08 42.3366C118.78 42.429 118.734 43.238 118.734 47.6523C118.734 52.552 118.711 52.8756 118.272 53.3147C117.948 53.6383 117.648 53.7307 117.301 53.6383C117 53.5458 116.631 53.3609 116.469 53.2223C116.238 53.0374 116.168 51.4196 116.145 46.1269Z" fill="#2929CF"/>
<path d="M190.843 40.3028C190.843 40.0948 191.028 39.725 191.259 39.4939H191.236C191.628 39.1241 192.923 39.1009 213.146 39.1703C234.154 39.2396 234.64 39.2627 235.102 39.7019C235.541 40.1179 235.541 40.1872 234.848 41.4121L213.261 41.4584C193.061 41.5046 191.628 41.4815 191.236 41.1117C191.004 40.9037 190.82 40.5339 190.843 40.3028Z" fill="#2929CF"/>
<path d="M185.989 48.9697C185.966 48.7386 186.128 48.3226 186.359 48.0452L186.729 47.5368H208.777C230.549 47.5368 230.849 47.5368 231.311 47.999C231.566 48.2532 231.774 48.5999 231.774 48.7386C231.797 48.9004 231.589 49.3164 230.849 50.3102H209.055C187.515 50.3333 187.283 50.3102 186.636 49.848C186.29 49.5937 186.012 49.2008 185.989 48.9697Z" fill="#2929CF"/>
<path d="M159.896 52.8294C162.392 52.4365 165.304 51.9742 166.367 51.8125C167.453 51.6507 169.164 51.4889 170.181 51.4889C171.406 51.4658 172.145 51.5582 172.33 51.7431C172.492 51.9049 172.631 52.2747 172.631 52.552C172.631 52.8525 172.492 53.2223 172.33 53.3841C172.168 53.5458 171.105 53.8232 169.95 53.985C168.817 54.1468 165.951 54.5628 163.594 54.9326C161.26 55.2792 157.955 55.8339 153.24 56.6659L152.754 56.2037C152.477 55.9495 152.269 55.5104 152.269 55.2099C152.269 54.8863 152.546 54.5397 153.032 54.2392C153.448 53.985 154.141 53.7307 154.58 53.6614C155.042 53.5921 157.423 53.2223 159.896 52.8294Z" fill="#2929CF"/>
<path d="M190.172 58.0295C190.172 57.7753 190.38 57.3362 190.635 57.0588L191.12 56.5504H212.66C231.473 56.5504 234.27 56.5966 234.732 56.8971C235.056 57.1051 235.264 57.4749 235.264 57.8678C235.264 58.2144 235.102 58.6767 234.871 58.8616C234.524 59.162 231.774 59.1851 212.614 59.1389C195.396 59.1158 190.704 59.0234 190.473 58.7922C190.288 58.6304 190.172 58.2838 190.172 58.0295Z" fill="#2929CF"/>
<path d="M134.889 66.9969C134.866 66.6271 134.981 66.2111 135.166 66.0725C135.351 65.9107 135.698 65.8644 135.975 65.9338C136.229 66.0031 136.692 66.3036 136.992 66.5809C137.293 66.8352 137.662 67.3667 137.824 67.7596C137.986 68.1294 138.078 68.661 138.032 68.9152C137.986 69.1694 137.732 69.5855 137.501 69.8166C137.061 70.2557 136.853 70.2557 129.827 69.9784C125.829 69.8397 122.062 69.6317 121.415 69.5623C120.768 69.4699 120.097 69.2388 119.866 68.9846C119.635 68.7534 119.45 68.3836 119.473 68.1525C119.473 67.9445 119.658 67.5747 119.866 67.3436C120.167 67.02 120.629 66.9276 121.877 66.9507C122.778 66.9507 125.367 67.0432 127.655 67.1818C129.943 67.3205 132.532 67.4592 134.935 67.6441L134.889 66.9969Z" fill="#2929CF"/>
<path d="M121.022 79.8702C120.999 79.6853 121.137 79.3849 121.299 79.2462C121.53 79.0382 123.541 78.9689 128.695 78.9689C135.166 78.9457 135.79 78.992 136.137 79.3618C136.414 79.6391 136.484 79.9396 136.368 80.3093C136.276 80.6098 135.998 80.9103 135.744 80.9565C135.49 81.0258 132.254 81.0489 128.556 81.0027C122.986 80.9334 121.761 80.864 121.438 80.5867C121.23 80.4018 121.045 80.0782 121.022 79.8702Z" fill="#2929CF"/>
<path d="M146.93 80.24C146.907 80.0782 147.138 79.7547 147.439 79.5467C147.901 79.2462 148.848 79.2 152.916 79.2C156.961 79.2 157.885 79.2693 158.163 79.5467C158.371 79.7316 158.509 80.1476 158.509 80.4711C158.509 80.8871 158.371 81.072 158.001 81.1645C157.7 81.2107 155.343 81.28 152.731 81.28C148.895 81.28 147.901 81.2107 147.485 80.9334C147.184 80.7485 146.953 80.4249 146.93 80.24Z" fill="#2929CF"/>
<path d="M216.15 80.0551C216.451 79.5698 216.589 79.5467 221.281 79.4311C223.939 79.3618 227.752 79.2693 229.763 79.2462C231.751 79.2231 233.553 79.2462 233.738 79.3155C233.946 79.3849 234.085 79.6622 234.108 79.9396C234.108 80.24 233.877 80.6791 233.623 80.9334C233.137 81.3725 232.791 81.3956 225.094 81.3956C217.86 81.3956 217.028 81.3494 216.451 80.9796C215.896 80.6098 215.85 80.5405 216.15 80.0551Z" fill="#2929CF"/>
<path d="M224.817 39.1472C219.409 39.1934 210.465 39.1934 204.941 39.1472C199.417 39.124 203.832 39.1009 214.763 39.1009C225.695 39.1009 230.225 39.124 224.817 39.1472Z" fill="#DFDFEE"/>
<path d="M116.122 48.8079C116.099 50.5875 116.053 49.1777 116.053 45.6878C116.053 42.1979 116.099 40.7419 116.122 42.4522C116.168 44.1624 116.168 47.0283 116.122 48.8079Z" fill="#DFDFEE"/>
<path d="M135.49 62.5594C135.559 61.4732 135.629 56.2268 135.652 50.888L135.721 41.181L135.767 51.1191C135.813 56.5735 135.744 61.843 135.397 64.524L135.49 62.5594Z" fill="#DFDFEE"/>
<path d="M223.754 41.6895C217.791 41.7357 208.107 41.7357 202.26 41.6895C196.413 41.6664 201.312 41.6432 213.122 41.6432C224.956 41.6432 229.74 41.6664 223.754 41.6895Z" fill="#DFDFEE"/>
<path d="M129.573 42.3828C127.609 42.429 124.442 42.429 122.524 42.3828C120.629 42.3597 122.247 42.3135 126.106 42.3135C129.989 42.3135 131.561 42.3597 129.573 42.3828Z" fill="#DFDFEE"/>
<path d="M118.896 50.1946C118.849 51.72 118.826 50.5644 118.826 47.6523C118.826 44.7402 118.849 43.4691 118.896 44.8789C118.942 46.2887 118.942 48.6692 118.896 50.1946Z" fill="#DFDFEE"/>
<path d="M132.994 56.0881C132.948 57.7984 132.924 56.5042 132.924 53.1992C132.924 49.8942 132.948 48.4843 132.994 50.0791C133.04 51.6738 133.04 54.3779 132.994 56.0881Z" fill="#DFDFEE"/>
<path d="M204.918 59.2545C202.329 59.3007 198.007 59.3007 195.326 59.2545C192.669 59.2313 194.795 59.2082 200.064 59.2082C205.357 59.2082 207.529 59.2313 204.918 59.2545Z" fill="#DFDFEE"/>
<path d="M231.959 59.2545C230.503 59.3007 228.168 59.3007 226.758 59.2545C225.372 59.2313 226.574 59.1851 229.416 59.1851C232.282 59.1851 233.438 59.2313 231.959 59.2545Z" fill="#DFDFEE"/>
<path d="M132.809 78.8995C131.607 78.9457 129.527 78.9457 128.187 78.8995C126.869 78.8764 127.84 78.8302 130.382 78.8302C132.924 78.8302 134.034 78.8764 132.809 78.8995Z" fill="#DFDFEE"/>
<path d="M223.638 79.3617C222.321 79.408 220.172 79.408 218.9 79.3617C217.629 79.3386 218.739 79.2924 221.327 79.2924C223.939 79.2924 224.979 79.3386 223.638 79.3617Z" fill="#DFDFEE"/>
<path d="M154.765 81.4418C153.818 81.488 152.2 81.488 151.183 81.4418C150.166 81.4187 150.952 81.3725 152.916 81.3725C154.904 81.3725 155.736 81.4187 154.765 81.4418Z" fill="#DFDFEE"/>
<path d="M227.336 81.6729C225.88 81.7192 223.546 81.7192 222.136 81.6729C220.749 81.6498 221.951 81.6036 224.794 81.6036C227.66 81.6036 228.815 81.6498 227.336 81.6729Z" fill="#DFDFEE"/>
<path d="M155.204 133.397C154.788 133.004 154.28 132.912 151.576 132.796L148.409 132.635L151.691 132.681C154.626 132.704 155.019 132.75 155.435 133.166C155.713 133.42 155.874 133.675 155.828 133.744C155.759 133.813 155.482 133.651 155.204 133.397Z" fill="#DFDFEE"/>
</g>
<rect x="0.276123" y="0.509399" width="349.5" height="199.5" stroke="#00009C" stroke-width="0.5"/>
<defs>
<clipPath id="clip0_14_2">
<rect width="233.208" height="165" fill="white" transform="translate(58.422 17.7594)"/>
</clipPath>
</defs>
</svg>
