<svg width="351" height="201" viewBox="0 0 351 201" fill="none" xmlns="http://www.w3.org/2000/svg">
<rect x="0.40625" y="1.08984" width="349.5" height="199.5" fill="white"/>
<g clip-path="url(#clip0_9_457)">
<path fill-rule="evenodd" clip-rule="evenodd" d="M84.1431 6.74023H266.123V47.4064C266.123 84.9266 266.105 88.0903 265.839 88.4991C265.679 88.748 265.448 89.0146 265.341 89.1212C265.217 89.2278 264.95 89.5655 264.737 89.8855C264.524 90.1876 264.381 90.5253 264.435 90.632C264.488 90.7386 264.435 90.8452 264.346 90.8986C264.257 90.9519 264.168 91.2007 264.168 91.4851C264.186 91.9117 264.15 91.9472 263.884 91.6984C263.617 91.4496 263.617 91.4673 263.724 91.8761C263.795 92.1783 263.724 92.5515 263.475 93.0314C263.262 93.4224 263.102 93.8135 263.102 93.9201C263.12 94.0267 262.995 94.2045 262.835 94.3289C262.693 94.4355 262.604 94.6488 262.658 94.7732C262.711 94.8799 262.533 95.2353 262.267 95.5375C261.964 95.893 261.467 96.1774 260.969 96.3195C260.525 96.4262 260.027 96.6572 259.85 96.8172C259.583 97.066 259.494 97.066 259.405 96.8883C259.317 96.7106 259.014 96.9416 258.392 97.6526C257.895 98.2035 257.237 98.95 256.917 99.3055C256.615 99.6788 256.313 100.105 256.26 100.283C256.206 100.443 256.082 100.585 255.993 100.585C255.904 100.585 255.816 100.71 255.816 100.852C255.816 100.994 255.727 101.118 255.638 101.118C255.549 101.118 255.496 101.278 255.549 101.474C255.608 101.711 255.549 101.829 255.371 101.829C255.229 101.829 255.14 101.918 255.194 102.007C255.247 102.096 254.803 102.683 254.216 103.305C253.505 104.016 253.185 104.495 253.256 104.673C253.328 104.869 253.292 104.904 253.079 104.798C252.865 104.709 252.794 104.78 252.794 105.118C252.794 105.366 252.706 105.562 252.617 105.562C252.528 105.562 252.474 105.402 252.528 105.206C252.581 105.011 252.528 104.851 252.439 104.851C252.35 104.851 252.243 104.993 252.226 105.171C252.226 105.331 252.208 105.597 252.226 105.74C252.243 105.882 252.03 106.095 251.764 106.219C251.497 106.344 250.431 107.535 249.329 108.957C248.263 110.325 247.285 111.552 247.179 111.676C247.072 111.783 247.019 111.978 247.054 112.085C247.09 112.209 247.001 112.316 246.894 112.316C246.77 112.298 246.521 112.44 246.343 112.618C246.095 112.849 246.041 113.08 246.13 113.471C246.237 113.987 246.219 113.987 245.917 113.702C245.615 113.436 245.579 113.436 245.224 113.791C245.01 114.004 244.637 114.484 244.388 114.84C244.122 115.213 243.98 115.551 244.086 115.604C244.175 115.657 244.264 115.799 244.264 115.906C244.282 116.084 244.229 116.084 244.051 115.924C243.873 115.746 243.713 115.799 243.287 116.226C243.002 116.528 242.86 116.759 242.967 116.759C243.091 116.759 243.198 116.955 243.198 117.204C243.198 117.488 243.091 117.648 242.931 117.648C242.789 117.648 242.629 117.559 242.576 117.47C242.522 117.364 242.345 117.452 242.167 117.63C242.007 117.826 241.669 118.234 241.421 118.537C241.172 118.857 240.71 119.39 240.408 119.745C240.088 120.118 239.821 120.51 239.821 120.616C239.821 120.741 239.715 120.883 239.59 120.918C239.43 120.972 239.43 121.025 239.608 121.22C239.732 121.363 239.821 121.523 239.821 121.594C239.821 121.683 239.679 121.683 239.519 121.594C239.27 121.487 239.253 121.54 239.341 121.86C239.412 122.109 239.395 122.269 239.27 122.269C239.164 122.269 238.968 122.394 238.826 122.536C238.684 122.678 238.577 122.945 238.577 123.104C238.577 123.282 238.453 123.549 238.311 123.691C238.186 123.833 237.777 124.26 237.44 124.615C237.084 124.988 236.676 125.486 236.533 125.735C236.391 125.984 236.16 126.179 236.036 126.179C235.929 126.179 235.716 126.339 235.592 126.535C235.485 126.73 235.254 126.89 235.112 126.89C234.97 126.89 234.614 127.264 234.312 127.726C234.01 128.223 233.779 128.828 233.779 129.148C233.779 129.503 233.637 129.858 233.423 130.036C233.121 130.303 233.068 130.534 233.104 131.458C233.139 132.062 233.121 132.578 233.068 132.613C233.015 132.649 228.199 132.631 211.707 132.489L212.098 132.133C212.311 131.938 212.684 131.458 212.897 131.067C213.128 130.676 213.359 130.001 213.431 129.556C213.513 129.023 213.46 128.472 213.271 127.903C212.986 127.104 213.004 127.05 213.395 126.517C213.715 126.073 213.804 125.682 213.839 124.526C213.893 123.478 213.804 122.607 213.519 121.38C213.306 120.456 212.755 118.448 212.329 116.937C211.884 115.426 211.049 112.938 210.463 111.427C209.876 109.916 208.988 107.961 208.508 107.073C208.01 106.184 207.282 104.993 206.891 104.407C206.482 103.82 205.433 102.611 204.563 101.723C203.514 100.674 202.359 99.7499 201.257 99.0745C200.333 98.5057 198.805 97.6881 197.881 97.2793C196.956 96.8705 194.948 96.1596 193.438 95.6975C191.927 95.2353 190.523 94.7732 190.328 94.6844C190.008 94.5422 189.954 94.24 189.741 91.5562C189.617 89.921 189.528 88.0548 189.528 86.1885L190.114 86.0997C190.416 86.0464 191.003 85.7442 191.376 85.442C191.767 85.1221 192.407 84.3756 192.833 83.7891C193.242 83.2026 193.846 82.2072 194.166 81.5674C194.628 80.6432 194.753 80.181 194.753 79.3279C194.771 78.4748 194.699 78.1371 194.415 77.8349C194.22 77.6216 193.758 77.2839 192.727 76.7685L192.993 76.0042C193.153 75.5954 193.331 74.8134 193.384 74.2802C193.438 73.747 193.402 72.8227 193.295 72.2362C193.171 71.6497 192.869 70.6188 192.585 69.9256C192.3 69.2325 191.678 68.0772 191.181 67.3485C190.683 66.6197 189.723 65.4467 189.066 64.7535C188.391 64.0781 187.484 63.2961 187.04 63.0472C186.596 62.7806 185.725 62.4429 185.085 62.2652C184.339 62.0697 183.272 61.963 182.064 61.963C180.731 61.963 179.576 62.0874 177.976 62.4251C176.75 62.674 174.6 63.225 173.178 63.616C171.756 64.0248 169.962 64.6469 169.18 65.0379C168.202 65.5178 167.456 66.051 166.745 66.7619C166.194 67.3307 165.554 68.1838 165.341 68.6815C164.986 69.4102 164.914 69.8545 164.914 71.2587C164.914 72.7694 164.968 73.0538 165.412 73.9247C165.696 74.4579 166.158 75.1511 166.976 75.9687L166.763 77.7461C166.62 78.8836 166.585 80.5187 166.656 82.2783C166.727 83.7891 166.852 85.5842 166.958 86.2774C167.065 86.9706 167.26 88.0015 167.402 88.588C167.562 89.1745 167.847 90.0988 168.06 90.632C168.273 91.1652 168.718 92.0539 169.055 92.5871C169.393 93.1203 169.766 93.6179 169.873 93.689C170.015 93.7957 169.979 93.8845 169.802 94.009C169.659 94.0978 169.144 94.3111 168.646 94.4711C168.167 94.631 166.958 95.1465 165.981 95.6086C164.808 96.1774 163.742 96.8528 162.871 97.5992C162.142 98.2213 161.182 99.1455 160.756 99.6254C160.329 100.105 159.619 101.047 159.174 101.741C158.73 102.434 158.143 103.465 157.877 104.051C157.61 104.638 157.219 105.668 156.597 107.606L156.384 107.073C156.26 106.788 155.78 106.202 155.3 105.775C154.82 105.349 154.109 104.922 153.718 104.798C153.185 104.638 149.062 104.584 137.724 104.584C123.151 104.584 122.405 104.602 121.819 104.922C121.481 105.1 120.93 105.491 120.61 105.811C120.272 106.113 119.864 106.664 119.668 107.019C119.437 107.481 119.331 108.05 119.331 108.797C119.331 109.419 119.455 110.432 119.615 111.072C119.757 111.712 120.113 113.382 120.397 114.804C120.681 116.226 121.303 119.336 121.801 121.736C122.281 124.135 122.938 127.175 123.24 128.49C123.667 130.392 123.88 131.032 124.307 131.547C124.609 131.92 124.786 132.276 124.733 132.347C124.68 132.436 119.295 132.489 112.755 132.489C106.215 132.489 100.83 132.436 100.777 132.347C100.724 132.276 100.83 131.974 101.026 131.689C101.221 131.405 101.381 130.872 101.381 130.534C101.381 130.196 101.221 128.97 101.008 127.814C100.813 126.677 100.457 124.811 100.226 123.691C100.013 122.571 99.6931 121.345 99.5332 120.972C99.3377 120.527 99.1422 120.332 98.9467 120.367C98.6624 120.403 98.6268 120.616 98.6624 121.914C98.6801 122.749 98.8934 124.669 99.1422 126.179C99.391 127.69 99.6043 129.361 99.6043 129.876C99.6043 130.729 99.5509 130.854 97.916 132.596L95.3391 132.578C92.8333 132.56 92.7622 132.578 92.5134 132.969C92.3535 133.253 92.3357 133.484 92.4601 133.733C92.6201 134.053 92.8866 134.106 95.4457 134.213C97.0096 134.284 109.592 134.337 123.418 134.337C139.057 134.337 155.62 134.444 167.225 134.622C177.497 134.782 185.92 134.96 185.974 134.995C186.027 135.048 185.423 135.084 184.641 135.084C183.859 135.084 183.326 135.119 183.45 135.173C183.592 135.226 183.539 135.351 182.864 135.937L183.29 135.99C183.592 136.026 183.734 136.15 183.734 136.435C183.752 136.63 183.823 136.879 183.894 136.968C183.983 137.039 184.516 137.11 185.067 137.11C185.725 137.11 186.205 137.199 186.4 137.377C186.631 137.59 186.649 137.679 186.471 137.768C186.317 137.863 186.359 137.91 186.596 137.91C186.791 137.91 187.235 138.034 187.573 138.194C187.911 138.372 188.355 138.496 188.55 138.496C188.746 138.496 190.221 138.443 191.838 138.39C194.113 138.283 195.037 138.319 196.015 138.532C196.708 138.674 197.898 138.799 198.68 138.799C199.462 138.799 200.546 138.923 201.079 139.065C201.613 139.225 202.377 139.421 202.768 139.492C203.372 139.634 203.567 139.598 204.101 139.225C204.438 138.994 205.042 138.763 205.433 138.71C205.824 138.656 206.34 138.461 206.589 138.301C206.962 138.052 207.513 137.999 209.876 137.999C212.169 137.981 212.809 138.034 213.146 138.248C213.519 138.514 213.626 138.514 214.301 138.248C214.728 138.088 215.172 138.017 215.385 138.088C215.581 138.159 216.025 138.301 216.363 138.425C216.701 138.532 218.3 138.692 219.917 138.799C221.534 138.887 223.774 138.923 224.893 138.852C226.919 138.728 226.955 138.745 227.95 139.261C228.501 139.545 229.016 139.918 229.069 140.078C229.123 140.256 229.247 140.398 229.336 140.398C229.425 140.398 229.514 140.274 229.514 140.132C229.514 139.918 229.585 139.901 229.922 140.061C230.136 140.167 230.527 140.523 230.793 140.825C231.078 141.127 231.291 141.429 231.291 141.5C231.291 141.589 231.469 141.642 231.7 141.625C231.913 141.607 232.197 141.607 232.322 141.625C232.428 141.642 232.535 141.696 232.535 141.767C232.535 141.856 200.493 141.891 161.325 141.873C98.6446 141.838 90.0432 141.856 89.6878 142.087C89.4567 142.247 89.2968 142.531 89.2968 142.798C89.2968 143.047 89.3857 143.402 89.4745 143.598C89.5811 143.793 89.901 144.077 90.1854 144.22C90.6297 144.433 91.7315 144.486 102.625 144.486V162.758C102.625 174.293 102.696 181.26 102.803 181.686C102.91 182.042 103.212 182.54 103.514 182.788C103.816 183.037 104.349 183.286 104.722 183.339C105.078 183.411 105.682 183.357 106.055 183.251C106.553 183.108 106.784 182.913 106.979 182.433C107.21 181.9 107.246 179.411 107.157 144.397L131.237 144.433C144.477 144.468 155.424 144.522 155.549 144.575C155.673 144.628 155.762 144.966 155.744 145.428C155.727 146.121 155.709 146.139 155.442 145.108L155.424 145.641C155.389 146.139 155.371 146.157 155.211 145.784C155.122 145.553 155.016 145.375 154.962 145.375C154.909 145.375 154.909 145.535 154.962 145.73C155.016 145.926 154.98 146.086 154.874 146.086C154.785 146.086 154.66 145.997 154.607 145.908C154.554 145.801 154.305 145.801 153.949 145.961C153.63 146.068 153.31 146.264 153.239 146.352C153.167 146.441 153.096 146.583 153.096 146.672C153.096 146.743 153.239 146.921 153.416 147.081C153.63 147.277 153.665 147.401 153.505 147.472C153.399 147.543 153.221 147.792 153.132 148.041C153.043 148.29 152.972 148.734 152.99 149.054C153.008 149.445 152.919 149.658 152.705 149.712C152.528 149.783 152.279 150.085 152.137 150.387C151.995 150.707 151.799 151.169 151.692 151.418C151.533 151.791 151.533 151.738 151.692 150.263L151.248 151.329C151.017 151.916 150.608 152.946 150.342 153.64C150.075 154.333 149.791 154.973 149.702 155.062C149.613 155.15 149.542 155.275 149.542 155.328C149.542 155.381 149.667 155.417 149.809 155.417C149.969 155.417 150.111 155.186 150.182 154.795C150.253 154.351 150.324 154.244 150.431 154.439C150.52 154.582 150.555 154.83 150.52 154.973C150.484 155.115 150.395 155.435 150.342 155.684C150.271 155.932 150.289 156.039 150.377 155.932C150.448 155.826 150.697 155.684 150.928 155.613C151.142 155.559 151.355 155.328 151.408 155.097C151.444 154.884 151.621 154.386 151.781 153.995C151.959 153.604 152.101 153.249 152.119 153.195C152.119 153.142 152.421 152.484 152.794 151.72C153.15 150.974 153.541 150.352 153.63 150.352C153.736 150.352 153.807 150.192 153.807 149.996C153.807 149.747 153.932 149.623 154.216 149.605C154.429 149.605 154.731 149.587 154.874 149.605C155.016 149.605 155.193 149.516 155.265 149.41C155.371 149.25 155.407 149.25 155.407 149.427C155.407 149.534 155.496 149.641 155.584 149.641C155.691 149.641 155.833 149.338 155.94 148.983C156.029 148.61 156.135 147.543 156.189 146.619C156.242 145.695 156.331 144.788 156.384 144.628C156.455 144.38 156.668 144.308 157.362 144.308C157.859 144.308 158.375 144.255 158.517 144.184C158.694 144.095 158.232 145.446 157.219 147.952C156.349 150.103 155.496 152.307 155.318 152.84C155.122 153.48 155.051 154.048 155.122 154.493C155.229 155.15 155.229 155.15 154.216 155.666C153.647 155.95 152.545 156.555 151.764 157.017C150.982 157.479 149.542 158.421 148.565 159.114C147.587 159.807 146.237 160.82 145.544 161.389C144.85 161.94 143.873 162.829 143.34 163.344C142.824 163.877 141.989 164.908 141.492 165.637C140.994 166.366 140.319 167.628 139.999 168.445C139.679 169.245 139.288 170.436 139.128 171.093C138.915 172 138.861 172.817 138.933 174.346C138.986 175.661 139.164 176.87 139.412 177.723C139.626 178.452 140.017 179.536 140.301 180.122C140.585 180.709 141.065 181.562 141.9 182.877L142.362 182.557C142.611 182.397 142.842 182.131 142.896 181.989C142.949 181.846 142.7 181.171 142.362 180.478C142.025 179.785 141.527 178.523 141.261 177.634C140.87 176.319 140.781 175.679 140.763 173.99C140.763 172.48 140.834 171.662 141.083 170.88C141.261 170.294 141.58 169.405 141.794 168.925C142.007 168.427 142.682 167.325 143.269 166.437C143.873 165.548 144.904 164.322 145.579 163.7C146.237 163.077 147.392 162.118 148.12 161.549C148.849 160.998 150.004 160.18 150.697 159.754C151.39 159.309 153.061 158.35 154.429 157.603C155.798 156.857 157.806 155.861 158.872 155.417C159.956 154.955 161.751 154.226 162.871 153.782C163.99 153.337 165.465 152.786 166.158 152.555C167.065 152.236 167.776 152.129 168.824 152.129C169.606 152.129 171.081 152.218 172.112 152.307C173.143 152.413 174.938 152.733 176.11 153C177.283 153.284 179.043 153.817 180.02 154.173C180.998 154.546 182.917 155.346 184.285 155.95C185.654 156.555 187.893 157.621 189.261 158.296C190.63 158.99 192.993 160.109 194.504 160.785C196.015 161.46 198.04 162.331 198.982 162.722C200.635 163.38 200.688 163.433 200.315 163.664C200.102 163.806 199.498 164.073 199 164.251C198.485 164.428 197.792 164.57 197.49 164.553C196.956 164.535 197.01 164.499 197.881 164.215C198.858 163.913 198.858 163.913 198.378 163.7C198.023 163.557 197.49 163.557 196.512 163.682C195.748 163.771 193.331 163.931 191.127 164.037C188.924 164.144 186.009 164.339 184.641 164.482C183.272 164.624 180.873 165.033 179.309 165.388C177.745 165.726 174.671 166.614 172.467 167.343C169.748 168.25 167.616 169.103 165.803 169.991C164.346 170.702 162.746 171.609 162.249 172C161.769 172.391 161.005 173.173 160.56 173.742C160.116 174.31 159.619 175.217 159.441 175.768C159.281 176.301 159.139 177.03 159.139 177.367C159.139 177.705 159.263 178.345 159.405 178.789C159.565 179.234 159.903 179.874 160.169 180.211C160.436 180.549 161.182 181.153 161.858 181.58C162.515 182.006 163.155 182.344 163.279 182.344C163.386 182.362 163.599 182.255 163.706 182.131C163.901 181.953 163.706 181.651 162.764 180.656C161.698 179.536 161.591 179.358 161.698 178.878C161.769 178.594 161.982 178.025 162.195 177.634C162.391 177.243 162.924 176.425 163.386 175.821C163.83 175.217 164.257 174.773 164.328 174.844C164.399 174.915 164.399 176.657 164.239 182.433L164.666 182.557C164.897 182.628 165.234 182.7 165.412 182.7C165.572 182.7 165.785 182.557 165.874 182.38C165.963 182.22 166.141 180.353 166.265 178.256C166.389 176.159 166.496 174.417 166.496 174.382C166.514 174.364 166.869 174.541 167.314 174.773C167.758 175.021 168.629 175.341 169.268 175.483C169.962 175.661 171.241 175.768 172.467 175.768C173.871 175.768 174.582 175.839 174.742 175.981C174.866 176.106 174.955 176.354 174.955 176.514C174.955 176.692 175.097 176.87 175.275 176.923C175.435 176.976 175.595 177.19 175.613 177.403C175.648 177.634 175.737 177.901 175.844 177.99C175.962 178.108 176.022 178.061 176.022 177.847C176.022 177.687 176.11 177.545 176.199 177.545C176.288 177.545 176.377 177.67 176.377 177.812C176.377 177.954 176.501 178.078 176.644 178.078C176.786 178.078 176.91 178.167 176.91 178.256C176.91 178.345 177.035 178.434 177.177 178.434C177.319 178.434 177.426 178.541 177.39 178.647C177.354 178.772 177.479 179.02 177.657 179.18C177.87 179.394 177.976 179.423 177.976 179.269C177.988 179.127 178.065 179.145 178.207 179.323C178.332 179.483 178.758 179.785 179.185 179.998C179.594 180.211 179.967 180.336 180.02 180.247C180.073 180.176 180.145 180.265 180.198 180.425C180.251 180.638 180.464 180.744 180.784 180.744C181.051 180.744 181.353 180.816 181.442 180.922C181.531 181.011 182.33 181.189 183.219 181.313C184.534 181.491 184.73 181.562 184.285 181.669C184.001 181.74 184.996 181.775 186.507 181.74C188.302 181.686 189.279 181.598 189.315 181.473C189.332 181.367 189.439 181.313 189.528 181.367C189.617 181.42 189.741 181.331 189.794 181.189C189.848 181.047 189.972 180.922 190.061 180.922C190.15 180.922 190.239 181.064 190.239 181.224C190.221 181.509 190.257 181.509 190.523 181.278C190.701 181.118 190.736 180.993 190.612 180.958C190.505 180.94 190.416 180.833 190.416 180.744C190.416 180.656 190.541 180.602 190.683 180.656C190.843 180.709 191.198 180.478 191.554 180.069C191.874 179.714 192.46 179.056 192.851 178.612C193.224 178.167 193.846 177.421 194.237 176.941C194.628 176.443 195.055 175.946 195.179 175.821C195.357 175.643 196.21 175.59 198.556 175.59C201.524 175.59 201.755 175.572 202.501 175.181C202.963 174.932 203.443 174.506 203.638 174.15C203.834 173.813 203.994 173.262 203.976 172.924C203.976 172.586 203.745 171.875 203.461 171.342C203.176 170.809 202.697 170.098 201.844 169.103L202.235 168.481C202.448 168.143 202.874 167.361 203.194 166.739C203.496 166.135 203.958 164.73 204.207 163.628C204.474 162.402 204.651 161.087 204.669 160.216C204.669 159.434 204.58 156.199 204.474 153.018C204.367 149.836 204.207 146.655 204.136 145.944C204.047 144.966 204.065 144.664 204.243 144.664C204.349 144.664 204.492 144.842 204.527 145.055C204.58 145.286 204.776 147.152 204.989 149.196C205.202 151.24 205.593 154.848 205.878 157.194C206.162 159.54 206.517 162.864 206.677 164.57C206.837 166.277 207.211 169.636 207.495 172.035C207.797 174.435 208.17 177.634 208.33 179.163C208.532 181.011 208.721 182.036 208.899 182.237C209.041 182.397 209.361 182.54 209.61 182.54C209.858 182.522 210.196 182.433 210.392 182.309C210.676 182.113 210.712 181.935 210.623 181.189C210.552 180.691 210.107 177.19 209.627 173.368C209.13 169.547 208.597 165.033 208.455 163.326C208.295 161.62 208.028 158.901 207.833 157.283C207.637 155.666 207.317 152.786 207.104 150.885C206.908 148.983 206.66 147.01 206.571 146.53C206.482 146.033 206.411 145.375 206.411 144.486L213.697 144.397V146.299C213.697 147.881 213.644 148.219 213.431 148.219C213.288 148.219 213.128 148.112 213.093 147.988C213.04 147.881 212.986 148.379 212.933 150.44L212.809 149.463C212.737 148.93 212.684 156.057 212.631 182.166L213.04 182.006C213.359 181.864 213.519 181.935 213.999 182.397C214.301 182.717 214.906 183.073 215.332 183.197C215.759 183.339 216.381 183.393 216.718 183.339C217.056 183.286 217.5 183.073 217.696 182.86C217.98 182.557 218.051 182.202 218.14 179.323L218.726 179.411C219.029 179.465 219.811 179.607 220.433 179.714C221.055 179.838 221.605 180.051 221.623 180.158C221.659 180.282 221.783 180.389 221.872 180.389C221.961 180.389 222.512 180.602 223.08 180.851C223.72 181.153 224.36 181.313 224.804 181.295C225.195 181.278 225.728 181.242 226.013 181.224C226.368 181.207 226.475 181.118 226.386 180.922C226.297 180.709 226.368 180.691 226.706 180.798C227.044 180.904 227.097 180.887 226.99 180.656C226.884 180.478 226.937 180.389 227.168 180.353C227.328 180.353 227.594 180.318 227.737 180.318C227.879 180.3 227.985 180.14 227.985 179.945C227.968 179.749 228.056 179.483 228.199 179.358C228.341 179.251 228.536 179.18 228.625 179.234C228.714 179.287 229.105 178.914 229.478 178.416C229.834 177.901 230.225 177.456 230.313 177.385C230.42 177.332 230.9 176.799 231.38 176.212C231.877 175.626 232.304 175.11 232.357 175.057C232.41 175.004 233.05 174.257 233.779 173.386C234.508 172.515 235.254 171.627 235.432 171.396C235.592 171.164 235.645 170.969 235.556 170.969C235.467 170.969 235.378 170.88 235.378 170.791C235.378 170.702 235.503 170.649 235.645 170.702C235.787 170.756 236.071 170.631 236.267 170.436C236.462 170.24 236.587 169.991 236.533 169.903C236.48 169.814 236.551 169.547 236.693 169.316C236.836 169.103 237.173 168.872 237.458 168.818C237.795 168.729 238.151 168.41 238.542 167.841C238.862 167.361 239.11 167.059 239.11 167.148C239.11 167.236 239.448 166.881 239.857 166.366C240.283 165.832 240.941 165.068 241.332 164.659C241.723 164.268 242.825 163.024 243.766 161.904C244.708 160.785 245.899 159.416 246.397 158.883C246.894 158.35 247.534 157.585 247.818 157.194C248.103 156.803 248.654 156.163 249.062 155.772C249.453 155.381 249.773 154.973 249.773 154.884C249.773 154.795 249.969 154.546 250.218 154.351C250.466 154.155 250.68 153.853 250.662 153.675C250.662 153.515 250.768 153.373 250.893 153.373C250.999 153.355 251.444 152.982 251.87 152.52C252.297 152.058 252.848 151.365 253.096 150.974C253.345 150.583 253.647 150.192 253.754 150.12C253.896 150.014 253.878 149.943 253.736 149.889C253.612 149.854 253.505 149.729 253.505 149.641C253.505 149.552 253.665 149.463 253.861 149.463C254.056 149.463 254.198 149.356 254.181 149.232C254.145 149.107 254.287 148.787 254.483 148.539C254.767 148.165 254.891 148.112 255.069 148.272C255.247 148.432 255.282 148.432 255.282 148.219C255.282 148.076 255.194 147.845 255.069 147.703C254.874 147.508 254.891 147.49 255.194 147.579C255.46 147.668 255.602 147.579 255.78 147.206C255.904 146.921 256.064 146.761 256.135 146.832C256.206 146.903 256.384 146.815 256.526 146.637C256.669 146.459 256.988 146.21 257.237 146.086C257.486 145.961 258.126 145.357 258.677 144.771C259.228 144.166 260.276 143.047 260.987 142.247C261.716 141.447 262.658 140.327 263.102 139.758C263.528 139.19 264.399 138.194 266.123 136.399V188.743H85.3871L85.3693 186.112C85.3515 184.672 85.2982 183.055 85.085 181.544L85.0494 182.38C85.0494 182.86 84.9783 183.233 84.9072 183.233C84.8184 183.233 84.8006 182.895 84.8362 182.469C84.8895 181.846 84.8362 181.704 84.1431 181.455V152.84C84.1431 133.875 84.1964 124.224 84.3208 124.224C84.4274 124.224 84.694 124.402 84.925 124.615C85.1738 124.846 86.0624 126.499 86.8976 128.312C87.7507 130.125 88.7281 132.098 89.0835 132.72C89.6167 133.609 89.8299 133.822 90.1854 133.822C90.4342 133.822 90.7363 133.751 90.8785 133.68C91.0562 133.591 90.9495 133.271 90.3809 132.311C89.9899 131.618 89.3501 130.356 88.9769 129.467C88.5859 128.579 87.8218 126.961 87.2708 125.859C86.5422 124.42 86.1512 123.798 85.7958 123.62C85.5115 123.495 85.0316 123.336 84.1431 123.158L84.1786 120.172C84.1964 118.537 84.2319 117.95 84.3208 120.492L85.6181 120.598C86.3112 120.652 89.2613 120.669 97.3828 120.563L97.4717 119.923C97.525 119.567 97.6316 119.212 97.7205 119.141C97.8093 119.052 97.8982 119.07 97.9337 119.194C97.9693 119.319 98.2003 119.425 98.4491 119.425C98.8756 119.425 98.8756 119.39 98.7157 118.839C98.609 118.537 98.538 117.79 98.538 117.204C98.538 116.617 98.6268 115.426 98.7334 114.538C98.8401 113.649 99.1955 111.854 99.5154 110.538C99.8531 109.223 100.333 107.428 100.582 106.539C100.848 105.651 101.15 104.584 101.275 104.14C101.399 103.696 101.879 102.505 102.341 101.474C102.803 100.443 103.39 99.2877 103.638 98.8967C103.905 98.5057 104.456 97.7948 104.847 97.3149C105.238 96.835 105.949 96.1596 106.428 95.8041C106.908 95.4486 107.566 95.0043 107.886 94.8088C108.206 94.6133 109.13 94.0623 109.947 93.5824C110.765 93.1025 111.938 92.356 112.577 91.9117C113.217 91.4673 113.768 91.0585 113.821 91.0052C113.875 90.9341 114.266 90.6497 114.692 90.3654C115.119 90.0632 115.812 89.4234 116.221 88.9435C116.647 88.4458 117.269 87.5749 117.607 86.9884C117.962 86.4018 118.371 85.4065 118.549 84.7667C118.738 83.9965 118.803 83.2855 118.744 82.6338C118.673 82.1006 118.513 81.2475 118.371 80.7676C118.193 80.181 117.82 79.5412 117.251 78.9191C116.665 78.2615 116.007 77.7816 115.083 77.3195C113.786 76.6974 113.697 76.6796 111.707 76.6796C109.912 76.6796 109.485 76.733 108.312 77.1595C107.584 77.4261 106.428 78.0304 105.735 78.4748C105.06 78.9369 103.94 79.8078 103.247 80.4299C102.572 81.0342 101.452 82.1895 100.759 82.9893C100.084 83.7891 99.1422 84.9444 98.6979 85.5487C98.2536 86.1352 97.1873 87.7882 96.3343 89.2101C95.499 90.632 94.7349 91.9117 94.646 92.0539C94.5572 92.196 94.415 92.2494 94.3439 92.1783C94.255 92.1072 94.3972 91.1119 94.6816 89.9566C94.9481 88.8191 95.3746 86.8817 95.6057 85.6553C95.8367 84.429 96.121 83.0248 96.2454 82.5449C96.3521 82.0473 96.4765 80.6076 96.5298 79.3457C96.5831 78.0482 96.5476 76.1286 96.4232 74.9911C96.3165 73.8714 96.05 72.2718 95.8545 71.4364C95.659 70.601 95.428 69.8368 95.3569 69.7479C95.2858 69.6413 94.9837 68.9303 94.6993 68.1483C94.415 67.3662 93.8818 66.2465 93.5086 65.66C93.1177 65.0734 92.3713 64.1314 91.8203 63.5627C91.2517 62.9939 90.3631 62.283 89.8299 61.9808C89.2968 61.6609 88.4615 61.3054 87.9639 61.181C87.4841 61.0566 86.7199 60.9499 86.2756 60.9677C85.8314 60.9677 85.1738 61.0743 84.1431 61.4831V6.74023ZM86.7199 62.0874C87.3952 62.1408 88.1416 62.3541 88.7637 62.674C89.2968 62.9406 90.1854 63.5804 90.7185 64.0781C91.2517 64.5935 92.0158 65.5533 92.4246 66.2109C92.8155 66.8863 93.4375 68.166 93.793 69.037C94.1306 69.9079 94.5038 71.0809 94.6105 71.6141C94.7171 72.1473 94.8948 73.5159 95.0014 74.6357C95.1081 75.7554 95.1436 77.4084 95.0903 78.2793C95.0192 79.1502 94.806 80.8031 94.6282 81.9229C94.4328 83.0426 94.0773 84.9266 93.8463 86.0997C93.6153 87.2727 93.1532 89.7966 92.8155 91.7162C92.3179 94.6666 92.2646 95.2709 92.4601 95.6264C92.6556 95.9996 92.5667 96.3729 91.7848 98.719C91.305 100.194 90.5763 102.736 90.1854 104.407C89.7944 106.077 89.3146 108.548 89.1369 109.916C88.9414 111.285 88.7459 113.293 88.6748 114.36C88.6215 115.426 88.5326 116.973 88.4082 119.248L85.6536 119.159L85.6003 109.294C85.5648 103.873 85.6359 97.1549 85.7425 94.3644C85.8491 91.574 85.9735 85.8153 86.0268 81.5674C86.0802 77.3195 86.0624 72.9116 85.9735 71.7741C85.8669 70.0678 85.7603 69.6413 85.4759 69.3213C85.2804 69.1258 84.9072 68.9125 84.1431 68.7703V65.66C84.1431 63.9537 84.1608 62.5496 84.1964 62.5496C84.2142 62.5496 84.5518 62.4251 84.9428 62.283C85.4048 62.1052 86.0091 62.0341 86.7199 62.0874ZM84.3208 70.0145C84.4452 70.0145 84.4985 73.036 84.4807 78.7769C84.463 83.5758 84.3919 89.53 84.3208 91.965C84.2497 95.1643 84.1964 92.7293 84.1786 83.2026C84.1608 74.5112 84.1964 70.0145 84.3208 70.0145ZM111.955 77.8882C113.271 77.9238 113.946 78.0304 114.532 78.297C114.977 78.4925 115.634 78.9369 116.025 79.2746C116.398 79.6123 116.86 80.181 117.038 80.5543C117.234 80.9098 117.376 81.5141 117.376 81.8873C117.376 82.2428 117.234 83.1492 117.056 83.878C116.878 84.6067 116.505 85.6198 116.221 86.0997C115.954 86.5973 115.154 87.5571 114.461 88.2503C113.768 88.9435 112.4 90.0277 111.422 90.6675C110.445 91.2896 108.774 92.3205 107.708 92.9603C106.18 93.8668 105.451 94.4533 104.154 95.7863C102.892 97.0838 102.341 97.8303 101.701 99.0745C101.204 100.052 100.386 102.238 99.622 104.673C98.9112 106.877 98.2714 108.957 98.1648 109.294C98.0759 109.632 97.7916 110.965 97.5428 112.227C97.294 113.489 97.0452 115.604 96.8497 119.248H92.3179L92.4068 118.679C92.4423 118.359 92.5667 117.381 92.6734 116.493C92.78 115.604 93.0643 113.773 93.3131 112.405C93.5619 111.036 94.1129 108.637 94.5394 107.073C94.9659 105.509 95.6412 103.393 96.0322 102.363C96.4232 101.332 96.9741 99.9454 97.2584 99.2522C97.5428 98.559 98.0759 97.3682 98.4313 96.5861C98.8045 95.8041 99.4976 94.4355 99.9952 93.5646C100.493 92.6937 101.275 91.4496 101.737 90.8097C102.217 90.1698 103.141 89.139 103.816 88.4991C104.491 87.8593 105.398 87.1128 105.824 86.8106C106.269 86.5262 106.891 86.0819 107.193 85.8331C107.548 85.5665 107.779 85.2288 107.779 84.9977C107.779 84.7311 107.655 84.5534 107.424 84.5C107.228 84.4467 106.66 84.6245 106.144 84.9266C105.629 85.211 104.687 85.9042 104.047 86.4552C103.407 87.0061 102.59 87.7882 102.217 88.197C101.843 88.6058 101.026 89.6722 100.422 90.5431C99.7997 91.414 98.9822 92.6937 98.5735 93.3869C98.1825 94.0801 97.4539 95.5553 96.9741 96.675C96.4765 97.7948 95.8189 99.3588 95.5168 100.141C95.1969 100.923 94.6282 102.523 94.255 103.696C93.8641 104.869 93.1532 107.339 92.6911 109.205C92.2113 111.072 91.6959 113.613 91.536 114.893C91.3761 116.155 91.2339 117.648 91.1628 119.159L90.4164 119.212C89.9899 119.23 89.6522 119.159 89.6522 119.07C89.6522 118.981 89.8122 117.239 90.0077 115.213C90.2031 113.169 90.5053 110.396 90.7007 109.028C90.8962 107.659 91.3761 105.26 91.7848 103.696C92.1758 102.132 92.8511 99.8565 93.2421 98.6301C93.6508 97.4037 94.5572 95.2887 95.268 93.9201C95.9611 92.5515 96.9918 90.6675 97.5605 89.7433C98.1292 88.819 99.1422 87.2905 99.8353 86.3663C100.528 85.4421 101.577 84.1268 102.163 83.4692C102.768 82.7938 103.923 81.6563 104.758 80.9275C105.593 80.1988 106.837 79.3101 107.513 78.9547C108.206 78.5992 109.076 78.1904 109.467 78.066C109.912 77.9238 110.836 77.8527 111.955 77.8882ZM232.322 144.148C232.339 144.148 232.357 144.22 232.357 144.308C232.357 144.397 232.233 144.486 232.091 144.486C231.948 144.486 231.682 144.753 231.522 145.055C231.344 145.375 230.918 145.784 230.58 145.944C230.242 146.121 229.478 146.299 228.892 146.37C228.305 146.424 227.79 146.495 227.737 146.495C227.683 146.512 226.884 146.441 225.959 146.37C224.52 146.264 224.076 146.139 222.974 145.588C222.281 145.233 221.694 144.824 221.694 144.699C221.694 144.54 222.778 144.486 226.457 144.468C229.069 144.451 231.451 144.38 231.735 144.308C232.037 144.237 232.286 144.166 232.322 144.148Z" fill="white"/>
<path fill-rule="evenodd" clip-rule="evenodd" d="M95.6234 70.5488C95.7656 70.9932 96.0144 72.0773 96.1743 72.9483C96.3876 74.0502 96.4764 75.5788 96.4764 77.9249C96.4942 80.5376 96.4231 81.6751 96.1566 82.9904C95.9788 83.9146 95.6412 85.5498 95.4102 86.634C95.1969 87.7182 94.8237 89.3889 94.6282 90.3665C94.3083 91.8239 94.2728 92.1616 94.486 92.2682C94.6638 92.3749 94.646 92.4104 94.415 92.4104C94.2017 92.4104 93.9174 92.8015 93.5442 93.619C93.242 94.2767 92.9399 95.0587 92.8688 95.3786C92.78 95.8407 92.7089 95.9118 92.5312 95.7341C92.4068 95.6097 92.3001 95.3431 92.3179 95.1298C92.3179 94.8987 92.6023 93.0681 92.9399 91.0241C93.2954 88.9979 93.7396 86.5807 93.9351 85.6564C94.1306 84.7322 94.4505 83.0082 94.6638 81.8351C94.9481 80.2888 95.037 78.9735 95.037 77.0362C95.037 75.5788 94.9303 73.6948 94.8059 72.8594C94.6815 72.024 94.5571 71.1531 94.5571 70.9043C94.5394 70.6021 94.6638 70.4066 94.9481 70.2822C95.1614 70.1756 95.3568 70.0334 95.3568 69.9267C95.3746 69.8201 95.4812 70.1045 95.6234 70.5488ZM86.0446 75.8809C86.0801 77.6938 86.0801 80.5732 86.0446 82.2794C86.0268 83.9857 86.009 82.5105 86.009 78.9913C86.009 75.4721 86.0268 74.068 86.0446 75.8809ZM118.673 82.2972C118.744 82.2794 118.797 82.6171 118.797 83.0259C118.797 83.4525 118.673 84.2701 118.513 84.8566C118.371 85.4432 117.962 86.4029 117.607 86.9895C117.269 87.576 116.647 88.4647 116.221 88.9446C115.812 89.4245 115.119 90.0643 114.692 90.3665C114.266 90.6508 113.875 90.9352 113.821 91.0063C113.768 91.0596 113.217 91.4684 112.577 91.9128C111.938 92.3571 110.765 93.1036 109.947 93.5835C109.13 94.0634 108.206 94.6144 107.886 94.8099C107.566 95.0054 106.908 95.4497 106.428 95.8052C105.949 96.1607 105.238 96.8361 104.847 97.316C104.456 97.7959 103.905 98.5068 103.638 98.8978C103.39 99.2888 102.803 100.444 102.341 101.475C101.879 102.506 101.399 103.697 101.275 104.141C101.15 104.585 100.848 105.652 100.582 106.54C100.333 107.429 99.853 109.224 99.5154 110.54C99.1955 111.855 98.8401 113.65 98.7334 114.539C98.6268 115.427 98.5379 116.618 98.5379 117.205C98.5379 117.791 98.609 118.538 98.7157 118.84C98.8756 119.391 98.8756 119.426 98.4491 119.426C98.2003 119.426 97.9693 119.32 97.9337 119.195C97.8804 119.035 97.8093 119.035 97.7027 119.195C97.596 119.338 97.4716 119.338 97.2051 119.142C96.8674 118.893 96.8496 118.751 96.974 116.707C97.0451 115.516 97.2939 113.49 97.5427 112.228C97.7915 110.966 98.0759 109.633 98.1647 109.295C98.2714 108.958 98.9111 106.878 99.622 104.674C100.386 102.239 101.204 100.053 101.701 99.0756C102.341 97.8314 102.892 97.0849 104.154 95.7874C105.451 94.4544 106.18 93.8679 107.708 92.9614C108.774 92.3216 110.445 91.2907 111.422 90.6686C112.4 90.0288 113.768 88.9446 114.461 88.2514C115.154 87.5582 115.954 86.5807 116.238 86.1008C116.505 85.6031 116.896 84.6611 117.091 83.9857C117.376 82.9015 117.5 82.7238 117.98 82.5283C118.282 82.4039 118.584 82.2972 118.673 82.2972ZM266.034 88.1447C266.087 88.1447 266.123 99.0045 266.123 136.4L265.003 137.556C264.399 138.195 263.528 139.191 263.102 139.759C262.658 140.328 261.716 141.448 260.987 142.248C260.276 143.048 259.228 144.167 258.677 144.772C258.126 145.358 257.486 145.963 257.237 146.087C256.988 146.211 256.669 146.46 256.526 146.638C256.384 146.816 256.206 146.905 256.135 146.833C256.064 146.762 255.904 146.922 255.78 147.207C255.602 147.58 255.46 147.669 255.194 147.58C254.891 147.491 254.874 147.509 255.069 147.704C255.194 147.847 255.282 148.078 255.282 148.22C255.282 148.433 255.247 148.433 255.069 148.273C254.891 148.113 254.767 148.166 254.483 148.54C254.287 148.789 254.145 149.108 254.163 149.233C254.198 149.357 254.056 149.464 253.861 149.464C253.665 149.464 253.505 149.553 253.505 149.642C253.505 149.731 253.612 149.855 253.718 149.89C253.878 149.944 253.896 150.015 253.754 150.122C253.647 150.193 253.345 150.584 253.096 150.975C252.848 151.366 252.297 152.059 251.87 152.521C251.444 152.983 250.999 153.356 250.875 153.374C250.768 153.374 250.662 153.516 250.662 153.694C250.68 153.854 250.466 154.156 250.217 154.352C249.969 154.547 249.773 154.796 249.773 154.885C249.773 154.974 249.453 155.383 249.062 155.774C248.654 156.165 248.103 156.804 247.818 157.195C247.534 157.586 246.894 158.351 246.397 158.884C245.899 159.417 244.708 160.786 243.766 161.905C242.825 163.025 241.723 164.269 241.332 164.66C240.941 165.069 240.283 165.833 239.857 166.367C239.448 166.882 239.11 167.238 239.11 167.149C239.11 167.06 238.862 167.362 238.542 167.842C238.151 168.411 237.795 168.731 237.458 168.819C237.173 168.873 236.836 169.104 236.693 169.335C236.551 169.548 236.48 169.815 236.533 169.904C236.587 169.993 236.462 170.241 236.267 170.437C236.071 170.632 235.787 170.757 235.645 170.703C235.503 170.65 235.378 170.703 235.378 170.792C235.378 170.881 235.467 170.97 235.556 170.97C235.645 170.97 235.592 171.166 235.414 171.397C235.254 171.628 234.508 172.516 233.779 173.387C233.05 174.258 232.41 175.005 232.357 175.058C232.304 175.111 231.877 175.627 231.38 176.213C230.9 176.8 230.42 177.333 230.313 177.386C230.225 177.457 229.834 177.902 229.46 178.417C229.105 178.915 228.714 179.288 228.625 179.235C228.536 179.181 228.341 179.253 228.199 179.377C228.056 179.484 227.968 179.75 227.985 179.946C227.985 180.141 227.879 180.301 227.737 180.319C227.594 180.319 227.328 180.355 227.15 180.355C226.937 180.39 226.884 180.479 226.972 180.657C227.097 180.888 227.043 180.906 226.706 180.799C226.368 180.692 226.297 180.71 226.386 180.923C226.475 181.119 226.368 181.208 226.013 181.225C225.728 181.243 225.195 181.279 224.804 181.297C224.36 181.314 223.72 181.154 223.063 180.852C222.512 180.603 221.961 180.39 221.872 180.39C221.783 180.39 221.659 180.283 221.623 180.177C221.605 180.052 221.054 179.839 220.432 179.715C219.81 179.608 219.046 179.466 218.762 179.413C218.478 179.359 218.211 179.306 218.211 179.27C218.193 179.253 218.158 171.379 218.051 144.31L224.715 144.345C230.687 144.381 230.864 144.398 226.528 144.434C222.814 144.47 221.694 144.541 221.694 144.701C221.694 144.825 222.281 145.234 222.974 145.589C224.076 146.14 224.52 146.265 225.959 146.371C226.884 146.442 227.683 146.513 227.737 146.496C227.79 146.496 228.305 146.425 228.892 146.371C229.478 146.3 230.242 146.122 230.58 145.945C230.918 145.785 231.362 145.394 231.557 145.074C231.753 144.754 232.019 144.505 232.126 144.487C232.251 144.487 232.322 144.363 232.268 144.221C232.215 144.061 232.339 143.883 232.535 143.776C232.772 143.658 232.89 143.421 232.89 143.065C232.89 142.781 232.784 142.354 232.659 142.123C232.553 141.91 232.357 141.679 232.268 141.626C232.179 141.555 231.913 141.537 231.682 141.572C231.469 141.608 231.291 141.59 231.291 141.501C231.291 141.43 231.078 141.128 230.793 140.826C230.527 140.524 230.136 140.168 229.905 140.062C229.585 139.902 229.514 139.919 229.514 140.133C229.514 140.275 229.425 140.399 229.336 140.399C229.247 140.399 229.123 140.257 229.069 140.079C229.016 139.919 228.501 139.546 227.95 139.262C226.955 138.746 226.919 138.729 224.893 138.853C223.774 138.924 221.534 138.889 219.917 138.8C218.3 138.693 216.7 138.533 216.363 138.426C216.025 138.302 215.581 138.16 215.385 138.089C215.172 138.018 214.728 138.089 214.301 138.249C213.626 138.515 213.519 138.515 213.146 138.249C212.809 138.035 212.169 137.982 209.876 138C207.513 138 206.962 138.053 206.589 138.302C206.34 138.462 205.824 138.658 205.433 138.711C205.042 138.764 204.438 138.995 204.101 139.226C203.567 139.6 203.372 139.635 202.768 139.493C202.377 139.422 201.613 139.226 201.079 139.066C200.546 138.924 199.462 138.8 198.68 138.8C197.898 138.8 196.69 138.675 196.014 138.533C195.037 138.32 194.113 138.284 191.838 138.391C190.221 138.444 188.746 138.498 188.55 138.498C188.355 138.498 187.911 138.373 187.573 138.195C187.235 138.035 186.791 137.911 186.596 137.911C186.359 137.911 186.317 137.864 186.471 137.769C186.649 137.68 186.631 137.591 186.4 137.378C186.205 137.2 185.725 137.111 185.067 137.111C184.516 137.111 183.983 137.04 183.894 136.969C183.823 136.88 183.752 136.631 183.734 136.436C183.734 136.151 183.592 136.027 182.864 135.938L183.255 135.6C183.527 135.363 183.586 135.221 183.432 135.174C183.326 135.121 183.859 135.067 184.641 135.049C185.423 135.014 184.427 134.943 182.419 134.89C180.411 134.836 190.896 134.818 205.7 134.836C226.795 134.872 232.677 134.836 232.855 134.658C232.979 134.552 233.086 134.196 233.068 133.912C233.068 133.628 232.997 133.254 232.89 133.112C232.784 132.934 232.801 132.804 232.944 132.721C233.086 132.632 233.139 132.206 233.104 131.477C233.068 130.535 233.121 130.304 233.423 130.037C233.637 129.86 233.779 129.504 233.779 129.149C233.779 128.829 234.01 128.224 234.312 127.727C234.614 127.265 234.97 126.891 235.112 126.891C235.254 126.891 235.485 126.731 235.592 126.536C235.716 126.34 235.929 126.18 236.036 126.18C236.16 126.18 236.391 125.985 236.533 125.736C236.676 125.487 237.084 124.99 237.44 124.616C237.777 124.261 238.186 123.834 238.311 123.692C238.453 123.55 238.577 123.283 238.577 123.106C238.577 122.946 238.684 122.679 238.826 122.537C238.968 122.395 239.164 122.27 239.27 122.27C239.395 122.27 239.412 122.11 239.341 121.861C239.252 121.541 239.27 121.488 239.519 121.595C239.679 121.684 239.821 121.684 239.821 121.595C239.821 121.524 239.732 121.364 239.608 121.222C239.43 121.026 239.43 120.973 239.59 120.919C239.715 120.884 239.821 120.742 239.821 120.617C239.821 120.511 240.088 120.12 240.408 119.746C240.71 119.391 241.172 118.858 241.421 118.538C241.669 118.236 242.007 117.827 242.167 117.631C242.345 117.454 242.522 117.365 242.576 117.471C242.629 117.56 242.789 117.649 242.931 117.649C243.091 117.649 243.198 117.489 243.198 117.205C243.198 116.956 243.091 116.76 242.967 116.76C242.86 116.76 242.984 116.529 243.287 116.227C243.713 115.801 243.873 115.747 244.051 115.925C244.229 116.085 244.282 116.085 244.264 115.907C244.264 115.801 244.175 115.658 244.086 115.605C243.98 115.552 244.122 115.214 244.388 114.841C244.637 114.485 245.01 114.005 245.224 113.792C245.579 113.437 245.615 113.437 245.917 113.703C246.219 113.988 246.237 113.988 246.13 113.472C246.041 113.081 246.094 112.85 246.343 112.619C246.521 112.441 246.77 112.299 246.876 112.317C247.001 112.317 247.09 112.21 247.054 112.086C247.019 111.979 247.072 111.784 247.179 111.677C247.285 111.553 248.263 110.326 249.329 108.958C250.431 107.536 251.497 106.345 251.764 106.221C252.03 106.096 252.243 105.883 252.226 105.741C252.208 105.598 252.226 105.332 252.226 105.154C252.243 104.994 252.35 104.852 252.439 104.852C252.528 104.852 252.581 105.012 252.528 105.207C252.474 105.403 252.528 105.563 252.617 105.563C252.706 105.563 252.794 105.367 252.794 105.119C252.794 104.781 252.865 104.71 253.079 104.799C253.292 104.905 253.327 104.87 253.256 104.674C253.185 104.497 253.505 104.017 254.216 103.288C254.803 102.684 255.247 102.097 255.194 102.008C255.14 101.919 255.229 101.83 255.371 101.83C255.549 101.83 255.608 101.712 255.549 101.475C255.496 101.279 255.549 101.12 255.638 101.12C255.727 101.12 255.816 100.995 255.816 100.853C255.816 100.711 255.904 100.586 255.993 100.586C256.082 100.586 256.206 100.444 256.26 100.266C256.313 100.106 256.615 99.6799 256.917 99.3066C257.237 98.9511 257.895 98.2046 258.392 97.6537C259.014 96.9427 259.316 96.7117 259.405 96.8894C259.494 97.0671 259.583 97.0671 259.85 96.8183C260.027 96.6583 260.525 96.4273 260.969 96.3206C261.467 96.1784 261.964 95.8941 262.267 95.5386C262.533 95.2364 262.711 94.881 262.658 94.7566C262.604 94.6499 262.693 94.4366 262.835 94.3122C262.995 94.2056 263.12 94.0278 263.102 93.9212C263.102 93.8145 263.262 93.4235 263.475 93.0325C263.724 92.5526 263.795 92.1794 263.724 91.8772C263.617 91.4684 263.617 91.4507 263.884 91.6995C264.15 91.9483 264.186 91.9128 264.168 91.4684C264.168 91.2018 264.257 90.953 264.346 90.8997C264.435 90.8463 264.488 90.7397 264.435 90.6331C264.381 90.5264 264.524 90.1887 264.737 89.8866C264.968 89.5666 265.323 89.1045 265.554 88.8557C265.768 88.6069 265.963 88.358 265.945 88.2692C265.945 88.1981 265.981 88.1447 266.034 88.1447ZM85.5114 105.385C85.547 106.896 85.547 109.455 85.5114 111.073C85.4937 112.69 85.4581 111.446 85.4581 108.318C85.4581 105.19 85.4937 103.874 85.5114 105.385ZM135.503 104.568C138.879 104.568 140.265 104.603 138.613 104.621C136.942 104.656 134.188 104.656 132.481 104.621C130.775 104.603 132.126 104.568 135.503 104.568ZM88.8525 120.564C90.7007 120.564 91.5004 120.599 90.6296 120.617C89.7411 120.653 88.2305 120.653 87.253 120.617C86.2756 120.599 86.9865 120.564 88.8525 120.564ZM109.29 134.267C115.048 134.267 117.447 134.285 114.621 134.303C111.778 134.339 107.068 134.339 104.136 134.303C101.204 134.285 103.514 134.267 109.29 134.267ZM146.876 134.25C148.387 134.25 149.027 134.285 148.298 134.303C147.569 134.339 146.325 134.339 145.543 134.303C144.762 134.285 145.366 134.25 146.876 134.25ZM96.1388 144.381C99.2666 144.381 100.582 144.416 99.0711 144.434C97.5605 144.47 95.0014 144.47 93.3842 144.434C91.767 144.416 93.011 144.381 96.1388 144.381ZM112.933 144.381C115.616 144.381 116.7 144.416 115.332 144.434C113.964 144.47 111.76 144.47 110.445 144.434C109.13 144.416 110.249 144.381 112.933 144.381ZM130.527 144.398C137.422 144.398 140.248 144.416 136.835 144.434C133.406 144.47 127.772 144.47 124.307 144.434C120.841 144.416 123.631 144.398 130.527 144.398ZM144.122 144.398L149.72 144.345C152.794 144.327 155.584 144.345 155.886 144.398C156.206 144.452 156.437 144.576 156.384 144.665C156.331 144.754 156.26 145.625 156.206 146.567C156.153 147.527 156.029 148.611 155.94 148.966C155.833 149.339 155.673 149.642 155.584 149.642C155.478 149.642 155.407 149.535 155.407 149.411C155.407 149.251 155.371 149.251 155.264 149.411C155.193 149.517 155.016 149.606 154.874 149.606C154.731 149.588 154.429 149.606 154.198 149.606C153.932 149.624 153.807 149.748 153.807 149.997C153.807 150.193 153.718 150.353 153.63 150.353C153.523 150.353 153.15 150.975 152.794 151.721C152.421 152.485 152.119 153.143 152.119 153.196C152.101 153.25 151.959 153.605 151.781 153.996C151.621 154.387 151.444 154.885 151.408 155.098C151.355 155.329 151.142 155.56 150.91 155.614C150.697 155.685 150.448 155.827 150.377 155.934C150.288 156.04 150.271 155.934 150.342 155.685C150.395 155.436 150.484 155.116 150.52 154.974C150.555 154.832 150.52 154.583 150.431 154.441C150.324 154.245 150.253 154.352 150.182 154.796C150.111 155.187 149.969 155.418 149.809 155.418C149.666 155.418 149.542 155.383 149.542 155.329C149.542 155.276 149.613 155.151 149.702 155.063C149.791 154.974 150.075 154.334 150.342 153.641C150.608 152.948 151.017 151.917 151.692 150.264L151.604 151.064C151.532 151.739 151.532 151.792 151.692 151.419C151.799 151.17 151.995 150.708 152.137 150.388C152.279 150.086 152.528 149.784 152.688 149.713C152.919 149.659 153.008 149.446 152.99 149.055C152.972 148.735 153.043 148.291 153.132 148.042C153.221 147.793 153.398 147.544 153.505 147.473C153.665 147.402 153.63 147.278 153.398 147.082C153.239 146.922 153.096 146.745 153.096 146.656C153.096 146.585 153.167 146.442 153.239 146.354C153.31 146.265 153.63 146.069 153.932 145.945C154.305 145.803 154.554 145.803 154.607 145.909C154.66 145.998 154.767 146.087 154.874 146.087C154.962 146.087 155.016 145.927 154.962 145.731C154.909 145.536 154.909 145.376 154.962 145.376C155.016 145.376 155.122 145.554 155.211 145.767C155.371 146.158 155.389 146.14 155.442 145.109L155.584 145.643C155.709 146.105 155.727 146.069 155.673 144.576L144.122 144.398ZM206.233 144.31L213.431 144.398L209.912 144.452C206.748 144.487 206.411 144.523 206.34 144.807C206.286 145.02 206.269 145.003 206.251 144.718L206.233 144.31ZM102.768 145.998C102.785 146.869 102.785 148.238 102.768 149.02C102.732 149.802 102.696 149.073 102.696 147.42C102.696 145.749 102.732 145.109 102.768 145.998ZM213.786 144.487C213.839 144.487 213.875 152.983 213.875 163.363C213.875 178.595 213.839 182.221 213.662 182.043C213.502 181.901 213.306 181.883 212.631 182.167L212.666 165.318C212.684 156.058 212.737 148.931 212.933 150.441L212.968 149.108C213.004 148.38 213.057 147.882 213.093 147.989C213.128 148.113 213.288 148.22 213.431 148.22C213.662 148.22 213.697 147.9 213.697 146.354C213.697 145.323 213.733 144.487 213.786 144.487ZM197.969 163.612C198.271 163.665 198.591 163.772 198.68 163.843C198.787 163.949 198.485 164.092 197.88 164.234C197.081 164.412 196.974 164.483 197.258 164.607C197.543 164.714 197.49 164.749 197.045 164.696C196.725 164.678 196.459 164.731 196.459 164.838C196.459 164.945 196.05 164.963 195.304 164.874C194.664 164.803 194.184 164.803 194.22 164.874C194.273 164.963 193.118 165.069 191.696 165.14C190.257 165.211 188.533 165.229 187.84 165.176C186.88 165.105 186.667 165.123 186.862 165.282C187.075 165.442 186.809 165.46 185.707 165.371C184.925 165.3 184.356 165.318 184.427 165.407C184.516 165.478 183.877 165.638 183.006 165.762C182.153 165.869 181.211 165.922 180.909 165.887C180.447 165.816 180.429 165.833 180.731 165.993C181.033 166.153 180.998 166.153 180.518 166.082C180.091 166.011 179.967 166.047 180.073 166.207C180.162 166.349 180.038 166.367 179.576 166.278C179.161 166.195 179.043 166.207 179.22 166.313C179.434 166.456 179.38 166.509 178.954 166.58C178.67 166.633 178.225 166.633 177.976 166.598C177.639 166.509 177.603 166.544 177.799 166.669C178.012 166.811 177.888 166.882 177.266 166.971C176.821 167.024 176.093 167.166 175.631 167.291C175.186 167.415 174.866 167.575 174.92 167.664C174.991 167.771 174.866 167.771 174.6 167.7C174.351 167.611 174.227 167.611 174.298 167.7C174.387 167.789 173.694 168.108 172.787 168.428C171.881 168.731 171.081 168.944 171.01 168.908C170.939 168.873 170.868 168.891 170.868 168.962C170.868 169.05 170.512 169.21 170.068 169.317C169.624 169.442 169.18 169.655 169.055 169.779C168.931 169.921 168.504 170.17 168.113 170.348C167.722 170.543 167.26 170.668 167.1 170.65C166.923 170.632 166.816 170.668 166.869 170.739C166.905 170.828 166.496 170.988 165.981 171.094C165.448 171.219 164.914 171.432 164.79 171.539C164.666 171.663 164.328 171.894 164.044 172.036C163.759 172.179 163.102 172.694 162.586 173.192C162.053 173.672 161.627 174.187 161.627 174.294C161.627 174.418 161.573 174.525 161.502 174.525C161.431 174.525 161.2 175.022 161.005 175.627C160.809 176.249 160.667 177.102 160.667 177.546C160.667 178.044 160.809 178.595 161.058 179.004C161.271 179.377 161.485 179.644 161.538 179.59C161.591 179.537 162.142 180.035 162.782 180.692C163.724 181.67 163.901 181.936 163.724 182.132C163.599 182.256 163.404 182.363 163.279 182.345C163.155 182.345 162.515 182.008 161.858 181.581C161.2 181.154 160.436 180.55 160.169 180.212C159.903 179.857 159.565 179.235 159.423 178.79C159.263 178.346 159.139 177.706 159.139 177.369C159.139 177.031 159.281 176.302 159.459 175.751C159.618 175.218 160.116 174.312 160.56 173.743C161.005 173.174 161.769 172.392 162.249 172.001C162.746 171.61 164.346 170.703 165.803 169.993C167.616 169.104 169.766 168.251 172.467 167.344C174.671 166.616 177.745 165.727 179.309 165.389C180.873 165.034 183.272 164.625 184.641 164.483C186.009 164.34 188.977 164.127 191.216 164.021C193.473 163.914 195.783 163.772 196.37 163.683C196.956 163.612 197.685 163.576 197.969 163.612ZM102.768 175.591C102.785 176.622 102.785 178.328 102.768 179.413C102.732 180.479 102.696 179.644 102.696 177.546C102.696 175.449 102.732 174.56 102.768 175.591ZM182.739 175.627C193.153 175.591 195.375 175.627 195.179 175.822C195.055 175.947 194.628 176.444 194.237 176.924C193.864 177.422 193.224 178.168 192.851 178.613C192.46 179.057 191.874 179.715 191.554 180.07C191.198 180.479 190.843 180.71 190.683 180.657C190.541 180.603 190.416 180.639 190.416 180.746C190.416 180.834 190.505 180.941 190.612 180.959C190.736 180.994 190.701 181.119 190.523 181.279C190.257 181.51 190.221 181.51 190.239 181.225C190.239 181.066 190.168 180.923 190.061 180.923C189.972 180.923 189.848 181.048 189.794 181.19C189.741 181.332 189.635 181.421 189.528 181.368C189.439 181.314 189.332 181.368 189.315 181.474C189.279 181.599 188.319 181.688 186.507 181.723C184.996 181.759 184.001 181.741 184.285 181.67C184.73 181.563 184.534 181.492 183.219 181.314C182.348 181.19 181.549 181.012 181.442 180.923C181.353 180.817 181.051 180.746 180.784 180.746C180.464 180.746 180.251 180.639 180.198 180.426C180.145 180.266 180.073 180.177 180.02 180.248C179.967 180.337 179.594 180.212 179.185 179.999C178.758 179.786 178.332 179.484 178.207 179.324C178.065 179.146 177.988 179.128 177.976 179.27C177.976 179.424 177.87 179.395 177.657 179.181C177.479 179.022 177.354 178.773 177.39 178.648C177.426 178.542 177.319 178.435 177.177 178.435C177.035 178.435 176.91 178.346 176.91 178.257C176.91 178.151 176.786 178.08 176.644 178.08C176.501 178.08 176.377 177.955 176.377 177.813C176.377 177.671 176.306 177.546 176.199 177.546C176.11 177.546 176.022 177.689 176.022 177.848C176.033 178.062 175.974 178.109 175.844 177.991C175.755 177.884 175.648 177.635 175.631 177.404C175.595 177.191 175.435 176.96 175.275 176.924C175.097 176.871 174.955 176.693 174.973 176.515C174.973 176.355 174.866 176.124 174.742 176C174.6 175.858 173.694 175.769 172.29 175.733C171.063 175.698 175.773 175.645 182.739 175.627Z" fill="#DFDFEE"/>
<path d="M84.1607 62.0174C84.214 61.4842 84.3207 61.3598 84.8538 61.182C85.1915 61.0576 85.8312 60.9687 86.2755 60.9687C86.7198 60.951 87.4662 61.0576 87.9638 61.182C88.4437 61.3064 89.2967 61.6619 89.8298 61.9641C90.363 62.2662 91.2871 63.0305 91.8735 63.6526C92.46 64.2746 93.2242 65.2166 93.5618 65.7499C93.8995 66.2831 94.4326 67.4206 94.7525 68.2737C95.0724 69.1446 95.339 69.8911 95.339 69.9622C95.339 70.0511 95.1435 70.2111 94.8947 70.3177C94.5037 70.5132 94.4326 70.5132 94.2905 70.2288C94.2016 70.0689 93.9173 69.3757 93.6329 68.6825C93.3664 67.9893 92.8688 66.9585 92.5133 66.3719C92.1757 65.7854 91.5714 64.95 91.1627 64.5235C90.7717 64.0969 89.972 63.4215 89.3855 63.0483C88.7813 62.675 87.8927 62.284 87.3418 62.1596C86.6487 62.0174 86.1334 61.9996 85.5647 62.1418C85.1204 62.2307 84.6228 62.3906 84.4273 62.4795C84.143 62.6217 84.1074 62.5684 84.1607 62.0174Z" fill="#2929CF"/>
<path d="M174.778 63.1905C176.093 62.835 178.065 62.3906 179.132 62.1951C180.518 61.9463 181.531 61.8752 182.597 61.9285C183.432 61.9818 184.587 62.1418 185.174 62.3018C185.76 62.444 186.596 62.7817 187.04 63.0483C187.484 63.2971 188.39 64.0791 189.066 64.7545C189.723 65.4477 190.683 66.6208 191.181 67.3495C191.678 68.0782 192.3 69.2335 192.585 69.9267C192.869 70.6198 193.171 71.6507 193.295 72.2372C193.402 72.8238 193.438 73.748 193.384 74.2812C193.331 74.8144 193.153 75.5965 192.727 76.7695L193.402 77.1072C193.757 77.285 194.22 77.6227 194.415 77.836C194.699 78.1381 194.77 78.4758 194.753 79.3289C194.753 80.1821 194.628 80.6442 194.166 81.5684C193.846 82.2083 193.242 83.2036 192.833 83.7901C192.407 84.3767 191.767 85.1232 191.376 85.4431C191.003 85.7452 190.416 86.0474 189.528 86.1896V87.3804C189.528 88.0558 189.617 89.9221 189.741 91.5572C189.954 94.2411 190.008 94.5432 190.328 94.6854C190.523 94.7743 191.927 95.2364 193.438 95.6985C194.948 96.1606 196.956 96.8716 197.88 97.2804C198.805 97.6891 200.333 98.5067 201.257 99.0755C202.359 99.7509 203.514 100.675 204.562 101.724C205.433 102.612 206.482 103.821 206.891 104.408C207.282 104.994 208.01 106.185 208.508 107.074C208.988 107.962 209.876 109.917 210.463 111.428C211.049 112.939 211.884 115.427 212.329 116.938C212.755 118.449 213.306 120.457 213.519 121.381C213.804 122.608 213.893 123.479 213.839 124.527C213.804 125.683 213.715 126.074 213.395 126.518C213.004 127.051 212.986 127.105 213.271 127.904C213.448 128.491 213.502 129.024 213.43 129.557C213.359 130.002 213.199 130.57 213.057 130.837C212.915 131.121 212.56 131.619 211.742 132.579H222.05C232.126 132.579 232.357 132.579 232.713 132.934C232.908 133.13 233.068 133.539 233.068 133.859C233.086 134.178 232.979 134.552 232.855 134.676C232.677 134.854 226.368 134.872 201.435 134.801C184.285 134.765 165.892 134.641 160.56 134.534C155.229 134.427 138.719 134.303 123.862 134.267C109.005 134.232 95.9077 134.196 94.7703 134.178C92.7799 134.178 92.6555 134.161 92.4778 133.77C92.3356 133.468 92.3356 133.29 92.5133 132.97C92.7621 132.579 92.8332 132.561 97.9159 132.597L98.7689 131.69C99.5508 130.855 99.6041 130.73 99.6041 129.859C99.6041 129.362 99.3909 127.691 99.1421 126.18C98.8933 124.67 98.68 122.75 98.6623 121.915C98.6267 120.617 98.6623 120.404 98.9466 120.368C99.1421 120.333 99.3376 120.528 99.5331 120.973C99.693 121.346 100.013 122.572 100.226 123.692C100.457 124.812 100.813 126.678 101.008 127.816C101.221 128.971 101.381 130.197 101.381 130.535C101.381 130.873 101.221 131.406 101.026 131.69C100.83 131.975 100.724 132.277 100.777 132.348C100.83 132.437 106.215 132.49 112.755 132.49C119.295 132.49 124.68 132.437 124.733 132.348C124.786 132.277 124.609 131.921 124.307 131.548C123.88 131.033 123.667 130.393 123.24 128.491C122.938 127.176 122.281 124.136 121.801 121.737C121.303 119.338 120.681 116.227 120.397 114.805L120.397 114.805C120.112 113.383 119.757 111.713 119.615 111.073C119.455 110.433 119.33 109.42 119.33 108.798C119.33 108.14 119.437 107.465 119.615 107.109C119.775 106.807 120.148 106.274 120.468 105.954C120.77 105.616 121.339 105.19 121.73 104.994C122.421 104.639 122.741 104.639 137.628 104.603L137.724 104.603C149.133 104.585 153.185 104.639 153.718 104.799C154.109 104.923 154.82 105.35 155.3 105.776C155.78 106.203 156.26 106.789 156.597 107.607L156.988 106.363C157.219 105.67 157.61 104.639 157.877 104.052C158.143 103.466 158.73 102.435 159.174 101.742C159.618 101.048 160.329 100.106 160.756 99.6265C161.182 99.1466 162.142 98.2224 162.871 97.6003C163.741 96.8538 164.808 96.1784 165.981 95.6096C166.958 95.1475 168.167 94.6321 168.646 94.4721C169.144 94.3121 169.659 94.0989 169.801 94.01C169.979 93.8856 170.015 93.7967 169.873 93.6901C169.766 93.619 169.393 93.1213 169.055 92.5881C168.717 92.0549 168.273 91.1662 168.06 90.633C167.847 90.0998 167.562 89.1756 167.402 88.589C167.26 88.0025 167.065 86.9716 166.958 86.2785C166.851 85.5853 166.727 83.7901 166.656 82.2794C166.585 80.5198 166.62 78.8846 166.976 75.9697L166.443 75.4365C166.158 75.1521 165.696 74.459 165.412 73.9257C164.968 73.0548 164.914 72.7705 164.914 71.2597C164.914 69.8911 164.985 69.4112 165.323 68.7181C165.536 68.2559 166.141 67.4384 166.638 66.8874C167.154 66.3364 168.06 65.6254 168.646 65.3055C169.233 64.9678 170.317 64.5057 171.046 64.2569C171.774 64.0258 173.462 63.5282 174.778 63.1905Z" fill="#2929CF"/>
<path d="M84.374 70.0155C84.2318 70.0155 84.143 69.7667 84.143 69.3935C84.143 68.8069 84.1785 68.7714 84.6406 68.878C84.9071 68.9491 85.2803 69.1446 85.4758 69.3224C85.8312 69.6601 85.8312 69.9089 85.8312 80.5553C85.8312 86.5273 85.7246 95.3963 85.5824 100.231C85.4047 106.523 85.3692 110.468 85.6535 119.16L88.4081 119.249L88.497 117.773C88.5325 116.974 88.6214 115.427 88.6747 114.361C88.7458 113.294 88.9413 111.286 89.1367 109.917C89.3145 108.549 89.8121 106.025 90.203 104.319C90.6118 102.612 91.3582 99.9642 91.8735 98.4534C92.3889 96.9427 92.851 95.4497 92.9221 95.1653C92.9932 94.8809 93.2953 94.1344 93.5796 93.5123C93.8817 92.8903 94.2016 92.4104 94.3616 92.4104C94.5037 92.4104 94.6637 92.2682 94.717 92.0904C94.7525 91.9305 95.4812 90.633 96.3342 89.2111C97.1872 87.7892 98.2535 86.1363 98.6978 85.5497C99.1421 84.9454 100.084 83.7901 100.759 82.9903C101.452 82.1905 102.572 81.0352 103.247 80.4309C103.94 79.8088 105.06 78.9379 105.735 78.4758C106.428 78.0315 107.584 77.4272 108.312 77.1606C109.485 76.734 109.912 76.6807 111.707 76.6807C113.697 76.6807 113.786 76.6984 115.083 77.3205C116.007 77.7826 116.665 78.2625 117.251 78.9202C117.82 79.56 118.193 80.1821 118.371 80.7686C118.513 81.2485 118.62 81.7995 118.62 81.9594C118.62 82.1372 118.424 82.3505 118.175 82.4571C117.927 82.546 117.66 82.6348 117.553 82.6348C117.464 82.6348 117.376 82.3149 117.376 81.9239C117.376 81.5329 117.233 80.9108 117.038 80.5376C116.86 80.1821 116.398 79.6133 116.025 79.2756C115.634 78.9379 114.976 78.4936 114.532 78.2981C113.875 77.9959 113.377 77.9248 111.689 77.9248C109.681 77.9248 109.609 77.9426 108.223 78.6002C107.441 78.9735 106.357 79.6133 105.824 80.0221C105.291 80.4309 104.083 81.5151 103.158 82.4571C102.234 83.3813 100.83 85.0165 100.031 86.1007C99.2309 87.1671 98.1291 88.8201 97.5604 89.7443C96.9917 90.6685 95.961 92.5526 95.2679 93.9211C94.557 95.2897 93.6507 97.4048 93.242 98.6312C92.851 99.8575 92.1757 102.133 91.7847 103.697C91.3759 105.261 90.8961 107.66 90.7006 109.029C90.5051 110.397 90.203 113.17 90.0075 115.196C89.8121 117.24 89.6521 118.982 89.6521 119.071C89.6521 119.16 89.9898 119.231 91.1627 119.16L91.216 118.182C91.2338 117.649 91.3759 116.156 91.5359 114.894C91.6958 113.614 92.2112 111.073 92.691 109.206C93.1531 107.34 93.864 104.87 94.2549 103.697C94.6281 102.524 95.1968 100.924 95.5167 100.142C95.8188 99.3599 96.4764 97.7958 96.974 96.676C97.4538 95.5563 98.1824 94.0811 98.5734 93.3879C98.9821 92.6947 99.7996 91.415 100.422 90.5441C101.026 89.6554 101.843 88.6068 102.217 88.198C102.59 87.7892 103.407 87.0072 104.047 86.4562C104.687 85.9052 105.629 85.212 106.144 84.9277C106.659 84.6255 107.228 84.4478 107.424 84.5011C107.655 84.5544 107.779 84.7321 107.779 84.981C107.779 85.2298 107.548 85.5675 107.193 85.8341C106.89 86.0829 106.268 86.5273 105.824 86.8117C105.398 87.1138 104.491 87.8603 103.816 88.5002C103.141 89.14 102.217 90.1709 101.737 90.8107C101.275 91.4506 100.493 92.677 99.9951 93.5657C99.4975 94.4366 98.8044 95.8051 98.4312 96.5872C98.0758 97.3692 97.5427 98.5601 97.2583 99.2532C96.974 99.9464 96.423 101.333 96.0321 102.364C95.6411 103.394 94.9658 105.51 94.5393 107.074C94.1128 108.638 93.5618 111.037 93.313 112.406C93.0642 113.774 92.7799 115.605 92.6733 116.494C92.5666 117.382 92.4422 118.36 92.3178 119.249L97.3827 119.195V120.582L90.8961 120.528C87.324 120.493 84.374 120.422 84.3207 120.386C84.2674 120.333 84.2318 114.876 84.2318 108.264C84.2318 101.653 84.3207 90.3308 84.4095 83.1147C84.5517 72.6638 84.5339 70.0155 84.374 70.0155Z" fill="#2929CF"/>
<path d="M84.7116 124.492C84.3029 124.225 84.1607 124.012 84.1607 123.639C84.1785 123.159 84.214 123.141 84.7294 123.248C85.0493 123.319 85.5114 123.497 85.7957 123.621C86.1511 123.799 86.5421 124.421 87.2707 125.86C87.8217 126.962 88.5858 128.58 88.9768 129.468C89.35 130.357 89.9898 131.619 90.3807 132.312C90.9494 133.272 91.0561 133.592 90.8783 133.681C90.7362 133.752 90.4341 133.823 90.1853 133.823C89.8476 133.823 89.6166 133.628 89.2256 132.988C88.9413 132.508 87.9461 130.499 86.9864 128.491C85.6002 125.558 85.1559 124.776 84.7116 124.492Z" fill="#2929CF"/>
<path d="M89.2789 142.905C89.2611 142.532 89.3678 142.301 89.6699 142.088C90.0609 141.839 96.9917 141.821 161.093 141.821C224.076 141.821 232.144 141.857 232.482 142.088C232.766 142.283 232.89 142.532 232.89 142.941C232.872 143.314 232.73 143.652 232.002 144.309H218.051V163.398C218.051 182.239 218.051 182.487 217.696 182.861C217.5 183.074 217.056 183.287 216.718 183.34C216.381 183.394 215.741 183.34 215.332 183.198C214.906 183.074 214.408 182.807 214.212 182.612C213.893 182.274 213.875 181.581 213.786 144.398L210.001 144.345C207.939 144.327 206.233 144.363 206.233 144.434C206.233 144.523 206.34 145.216 206.482 145.998C206.624 146.78 206.908 148.984 207.104 150.886C207.317 152.788 207.637 155.667 207.832 157.284C208.028 158.902 208.295 161.621 208.454 163.327C208.597 165.034 209.13 169.548 209.627 173.369C210.107 177.191 210.551 180.692 210.623 181.19C210.711 181.936 210.676 182.114 210.392 182.31C210.196 182.434 209.858 182.523 209.61 182.541C209.361 182.541 209.041 182.398 208.899 182.239C208.721 182.037 208.531 181.012 208.33 179.164C208.17 177.635 207.797 174.436 207.495 172.036C207.21 169.637 206.837 166.278 206.677 164.571C206.517 162.865 206.162 159.542 205.878 157.195C205.593 154.849 205.202 151.241 204.989 149.197C204.776 147.153 204.58 145.287 204.527 145.056C204.491 144.843 204.349 144.665 204.225 144.665C204.065 144.665 204.047 144.967 204.136 145.945C204.207 146.656 204.367 149.837 204.474 153.019C204.58 156.2 204.669 159.435 204.669 160.217C204.651 161.088 204.474 162.403 204.207 163.629C203.958 164.731 203.496 166.136 203.194 166.758C202.874 167.362 202.448 168.144 201.843 169.104L202.394 169.744C202.696 170.099 203.176 170.81 203.461 171.343C203.745 171.876 203.976 172.587 203.976 172.925C203.994 173.263 203.834 173.814 203.638 174.151C203.443 174.507 202.963 174.934 201.701 175.609L168.824 175.502L167.758 174.969L167.598 174.892C167.08 174.641 166.651 174.433 166.603 174.4C166.549 174.365 166.46 175.449 166.372 176.782C166.301 178.133 166.176 179.91 166.105 180.728C166.034 181.563 165.91 182.345 165.803 182.487C165.679 182.683 165.447 182.718 164.203 182.487L164.328 178.737C164.399 176.658 164.399 174.916 164.328 174.845C164.257 174.774 163.848 175.218 163.404 175.822C162.959 176.427 162.462 177.137 162.284 177.422C162.124 177.688 161.875 178.328 161.52 179.768L161.093 179.057C160.809 178.595 160.667 178.062 160.667 177.546C160.649 177.102 160.809 176.249 161.005 175.627C161.2 175.022 161.413 174.525 161.484 174.525C161.573 174.525 161.627 174.418 161.627 174.311C161.627 174.187 162.053 173.689 162.569 173.192C163.102 172.712 163.759 172.179 164.044 172.036C164.328 171.894 164.666 171.663 164.772 171.557C164.897 171.432 165.43 171.219 165.963 171.112C166.496 170.988 166.905 170.828 166.851 170.757C166.816 170.668 166.923 170.632 167.082 170.65C167.26 170.668 167.722 170.543 168.113 170.348C168.504 170.17 168.931 169.921 169.037 169.779C169.162 169.655 169.624 169.441 170.068 169.335C170.512 169.21 170.868 169.05 170.868 168.979C170.868 168.89 170.921 168.873 170.992 168.908C171.081 168.944 171.881 168.731 172.787 168.428C173.693 168.108 174.369 167.789 174.298 167.7C174.209 167.611 174.351 167.611 174.6 167.7C174.866 167.789 174.991 167.771 174.92 167.664C174.849 167.575 175.168 167.415 175.631 167.291C176.093 167.166 176.821 167.024 177.266 166.971C177.87 166.882 177.994 166.811 177.799 166.669C177.603 166.544 177.639 166.527 177.976 166.598C178.225 166.651 178.669 166.633 178.954 166.58C179.38 166.509 179.434 166.455 179.22 166.313C179.043 166.207 179.161 166.195 179.576 166.278C180.038 166.384 180.162 166.349 180.056 166.207C179.967 166.047 180.091 166.011 180.5 166.082C180.98 166.153 181.033 166.153 180.731 165.993C180.429 165.833 180.447 165.816 180.909 165.887C181.193 165.922 182.153 165.869 183.006 165.762C183.876 165.638 184.516 165.478 184.427 165.407C184.356 165.318 184.925 165.318 185.707 165.371C186.809 165.46 187.075 165.442 186.862 165.282C186.649 165.122 186.88 165.105 187.84 165.176C188.533 165.229 190.256 165.211 191.696 165.14C193.118 165.069 194.255 164.962 194.22 164.891C194.184 164.803 194.664 164.803 195.304 164.891C196.05 164.962 196.459 164.945 196.459 164.838C196.459 164.749 196.796 164.643 197.223 164.643C197.632 164.625 198.414 164.465 198.947 164.269C199.48 164.092 200.102 163.807 200.315 163.665C200.688 163.434 200.635 163.381 198.982 162.723C198.04 162.332 196.014 161.461 194.504 160.786C192.993 160.11 190.63 158.991 189.261 158.297C187.893 157.622 185.654 156.556 184.285 155.951C182.917 155.347 180.998 154.547 180.02 154.174C179.043 153.818 177.283 153.285 176.11 153.001C174.937 152.734 173.143 152.414 172.112 152.308C171.081 152.219 169.606 152.13 168.824 152.13C167.776 152.13 167.065 152.237 166.158 152.556C165.465 152.788 163.99 153.339 162.871 153.783C161.751 154.227 159.956 154.956 158.872 155.418C157.788 155.862 155.798 156.858 154.429 157.604C153.061 158.351 151.39 159.31 150.697 159.755C150.004 160.181 148.849 160.999 148.12 161.55C147.392 162.119 146.237 163.078 145.579 163.701C144.904 164.323 143.873 165.549 143.269 166.438C142.682 167.326 142.007 168.446 141.794 168.926C141.58 169.424 141.26 170.295 141.083 170.881C140.834 171.663 140.763 172.481 140.763 173.992C140.781 175.68 140.87 176.32 141.26 177.635C141.527 178.524 142.025 179.786 142.362 180.479C142.7 181.172 142.949 181.847 142.895 181.99C142.842 182.132 142.611 182.398 141.9 182.878L141.349 182.043C141.065 181.563 140.585 180.71 140.301 180.123C140.016 179.537 139.626 178.453 139.412 177.724C139.163 176.871 138.986 175.662 138.932 174.347C138.861 172.818 138.915 172.001 139.128 171.112C139.288 170.437 139.679 169.246 139.999 168.446C140.319 167.629 140.994 166.367 141.492 165.638C141.989 164.909 142.824 163.878 143.34 163.345C143.873 162.83 144.85 161.941 145.543 161.39C146.237 160.821 147.587 159.808 148.565 159.115C149.542 158.422 150.981 157.48 151.763 157.018C152.545 156.556 153.647 155.951 154.216 155.667C155.229 155.151 155.229 155.151 155.122 154.494C155.051 154.049 155.122 153.481 155.318 152.841C155.495 152.308 156.348 150.104 157.219 147.953C158.41 145.003 158.73 144.078 158.481 144.185C158.303 144.256 146.681 144.327 107.157 144.309L107.21 163.061C107.246 179.395 107.21 181.883 106.979 182.434C106.784 182.914 106.553 183.109 106.055 183.252C105.664 183.376 105.078 183.394 104.669 183.323C104.225 183.252 103.745 182.985 102.856 182.079L102.714 173.725C102.643 169.122 102.625 160.697 102.785 144.576L101.95 144.434C101.488 144.363 98.6623 144.309 90.1853 144.309L89.741 143.865C89.4922 143.616 89.2789 143.19 89.2789 142.905Z" fill="#2929CF"/>
<path d="M174.333 65.1284C175.702 64.773 177.941 64.2931 179.309 64.062C180.678 63.831 182.117 63.6354 182.526 63.6354C183.059 63.6177 183.254 63.6888 183.272 63.8843C183.29 64.0442 183.219 64.1331 183.095 64.0798C182.97 64.0442 182.295 64.3819 181.602 64.8263C180.891 65.2884 179.629 66.3015 178.758 67.0835C177.905 67.8656 176.395 69.5008 175.417 70.7094C174.422 71.918 173.32 73.3043 172.947 73.7664C172.592 74.2463 172.289 74.8329 172.289 75.0817C172.289 75.4727 172.361 75.526 173 75.526C173.391 75.526 173.711 75.5971 173.711 75.7038C173.711 75.8104 174.067 75.9526 174.511 76.0592C174.955 76.1659 175.808 76.237 176.412 76.237C177.034 76.237 178.456 76.0237 179.576 75.7749C181.3 75.4016 181.744 75.3483 182.366 75.5083C183.077 75.686 183.112 75.7215 182.935 76.0948C182.775 76.4147 182.792 76.7702 183.041 77.7477C183.326 78.8497 183.361 79.4718 183.254 83.0798C183.183 85.3193 183.023 88.092 182.864 89.2118C182.721 90.3315 182.508 91.6468 182.401 92.1444C182.277 92.6243 182.028 93.3708 181.815 93.7796C181.62 94.1706 181.069 94.8993 180.624 95.3792C180.18 95.8413 179.576 96.3923 179.291 96.6056C179.007 96.8011 178.492 97.0855 178.154 97.2099C177.799 97.3343 177.266 97.3876 176.91 97.3166C176.572 97.2632 175.773 96.9078 175.151 96.5523C174.529 96.179 173.533 95.397 172.947 94.8105C172.361 94.2239 171.561 93.2642 171.152 92.6776C170.761 92.0911 170.228 91.1313 169.944 90.5448C169.677 89.9583 169.286 88.8385 169.108 88.0565C168.913 87.2744 168.664 85.8525 168.557 84.8928C168.469 83.9508 168.38 82.1023 168.38 80.8226C168.38 79.5251 168.469 77.73 168.717 75.2594L168.06 74.7084C167.651 74.3707 167.26 73.7842 167.011 73.1621C166.78 72.5756 166.603 71.758 166.603 71.2603C166.603 70.7627 166.727 70.0695 166.869 69.6963C167.029 69.3408 167.367 68.7365 167.633 68.3632C167.9 67.9722 168.469 67.439 168.913 67.1724C169.357 66.888 170.192 66.4615 170.779 66.2126C171.365 65.9816 172.965 65.4839 174.333 65.1284Z" fill="white"/>
<path d="M189.919 78.6364C190.203 78.6364 190.416 78.5831 190.399 78.512C190.399 78.4409 190.647 78.4765 190.95 78.6009C191.465 78.7964 191.518 78.8675 191.412 79.3474C191.358 79.6495 190.967 80.2005 190.505 80.6448C190.061 81.0536 189.617 81.3913 189.528 81.3913C189.421 81.3913 189.368 80.8404 189.386 80.0228C189.439 78.6364 189.439 78.6364 189.919 78.6364Z" fill="white"/>
<path d="M184.996 96.5701C185.298 96.1968 185.654 95.6281 185.796 95.3437L186.062 94.8105L186.116 95.6992C186.151 96.2501 185.956 97.5476 185.6 99.0761C185.298 100.445 184.872 101.92 184.658 102.364C184.445 102.809 184.072 103.484 183.805 103.875C183.557 104.266 182.881 105.03 182.295 105.564C181.726 106.097 181.086 106.648 180.909 106.772C180.589 106.968 180.624 106.985 181.229 106.897C181.708 106.825 181.851 106.861 181.762 107.021C181.655 107.163 181.193 107.181 180.198 107.11C179.078 107.021 178.51 106.879 177.532 106.381C176.839 106.043 175.986 105.457 175.631 105.084C175.275 104.71 174.777 103.999 174.546 103.52C174.298 103.022 173.924 101.991 173.711 101.209C173.498 100.427 173.267 99.5205 173.16 99.2006C173.054 98.8451 172.894 98.6318 172.68 98.6318C172.521 98.6318 172.165 98.8273 171.934 99.0761C171.685 99.325 171.365 99.5205 171.223 99.5205C171.081 99.5383 170.655 99.716 170.264 99.9293C169.819 100.178 169.375 100.694 168.966 101.387C168.629 101.973 168.149 103.004 167.935 103.697C167.704 104.39 167.385 105.937 167.242 107.163C167.082 108.39 166.887 110.274 166.816 111.34C166.727 112.406 166.62 114.984 166.585 117.028C166.549 119.072 166.532 121.649 166.532 122.715C166.549 124.67 166.549 124.67 165.536 125.47V125.026C165.536 124.777 165.412 124.048 165.252 123.373C165.11 122.715 164.897 121.578 164.808 120.849C164.719 120.12 164.506 118.076 164.346 116.317C164.186 114.557 164.044 112.175 164.026 111.038C164.026 109.9 163.99 108.923 163.937 108.852C163.884 108.798 163.67 108.781 163.457 108.834C163.185 108.905 163.048 109.071 163.048 109.332C163.048 109.563 162.782 109.971 162.426 110.274C161.911 110.736 161.822 110.913 161.822 111.607C161.822 112.051 161.893 112.833 161.946 113.348C162.053 114.077 162.018 114.344 161.787 114.593C161.627 114.753 161.324 115.375 161.129 115.961C160.934 116.548 160.614 117.632 160.418 118.361C160.205 119.089 159.956 120.031 159.867 120.44C159.761 120.867 159.601 121.204 159.494 121.204C159.387 121.204 159.281 120.742 159.227 120.191C159.174 119.623 158.765 117.312 157.521 110.985L158.25 108.496C158.694 107.003 159.334 105.332 159.867 104.319C160.347 103.395 161.058 102.222 161.449 101.742C161.822 101.245 162.355 100.587 162.64 100.249C162.906 99.9115 163.581 99.325 164.115 98.9162C164.648 98.5252 165.643 97.9031 166.336 97.5476C167.029 97.1744 168.326 96.5878 170.868 95.6103L171.703 96.3745C172.183 96.8011 173.071 97.4943 173.711 97.9031C174.351 98.3119 175.311 98.8095 175.844 99.0228C176.608 99.325 177.194 99.4138 178.598 99.4138C180.038 99.4138 180.571 99.325 181.442 98.9873C182.028 98.774 182.952 98.2763 183.486 97.9209C184.019 97.5654 184.712 96.9611 184.996 96.5701Z" fill="white"/>
<path d="M121.161 108.176C121.356 107.608 121.641 107.234 122.032 106.985C122.6 106.63 122.867 106.63 153.772 106.719L154.234 107.163C154.482 107.412 154.82 107.963 154.962 108.407C155.104 108.852 155.655 111.518 156.206 114.362C156.739 117.205 157.504 121.24 157.912 123.337C158.303 125.435 158.677 127.478 158.73 127.869C158.783 128.261 158.783 128.776 158.712 129.025C158.659 129.274 158.357 129.736 158.019 130.073C157.699 130.393 157.077 130.838 156.633 131.069C156.206 131.282 155.442 131.549 154.945 131.673C154.465 131.797 153.825 132.029 153.523 132.206C153.025 132.508 152.225 132.526 128.643 132.491L127.612 131.957C127.026 131.655 126.244 131.069 125.87 130.624C125.355 130.02 125.124 129.576 125 128.847C124.911 128.314 124.591 126.75 124.307 125.381C124.004 124.013 123.542 121.684 123.24 120.227C122.956 118.752 122.387 116.05 121.996 114.184C121.623 112.318 121.196 110.398 121.072 109.918C120.894 109.154 120.894 108.905 121.161 108.176Z" fill="white"/>
<path d="M197.454 115.072C197.507 114.575 197.632 114.006 197.738 113.775C197.827 113.526 198.005 113.384 198.2 113.42C198.36 113.455 198.947 114.077 199.515 114.806C200.066 115.535 200.955 116.85 201.488 117.739C202.003 118.627 202.661 119.729 202.945 120.227C203.23 120.707 203.532 121.258 203.603 121.418C203.709 121.666 203.621 121.755 203.247 121.844C202.981 121.915 202.27 122.111 201.684 122.289C201.097 122.484 200.511 122.626 200.351 122.626C200.191 122.626 199.906 122.111 199.586 121.24C199.302 120.493 198.68 118.983 198.2 117.916C197.418 116.139 197.347 115.872 197.454 115.072Z" fill="white"/>
<path d="M161.804 125.026C162.195 124.635 162.64 124.048 162.8 123.728C162.977 123.426 163.173 123.159 163.262 123.159C163.333 123.159 163.493 123.782 163.599 124.528C163.724 125.292 163.901 126.199 164.026 126.536C164.186 126.945 164.203 127.23 164.079 127.336C163.99 127.425 163.848 127.798 163.599 128.758L163.581 128.136C163.581 127.638 163.439 127.407 162.924 126.981C162.568 126.696 162 126.288 161.093 125.737L161.804 125.026Z" fill="white"/>
<path d="M201.417 124.226C202.359 124.03 203.354 123.853 203.638 123.817C203.94 123.782 204.438 123.728 204.758 123.71C205.078 123.71 205.753 123.782 206.269 123.888C206.784 123.995 207.513 124.261 207.904 124.492C208.295 124.724 208.774 125.079 208.97 125.292C209.254 125.594 209.343 126.003 209.396 127.141C209.45 128.154 209.379 128.9 209.148 129.647C208.97 130.287 208.65 130.909 208.348 131.193C208.081 131.478 207.939 131.691 208.063 131.709C208.17 131.709 207.779 131.886 207.193 132.1C206.197 132.455 205.824 132.473 200.262 132.491C195.464 132.491 194.042 132.437 192.353 132.171C191.234 131.993 188.319 131.424 185.867 130.891C183.432 130.358 181.033 129.807 180.535 129.665C180.056 129.505 179.256 129.38 178.758 129.38C178.278 129.38 176.839 129.469 175.559 129.576C174.298 129.665 173 129.825 172.68 129.931C172.218 130.056 172.094 130.038 172.094 129.825C172.094 129.682 172.396 129.38 172.752 129.149C173.107 128.936 173.516 128.58 173.64 128.349C173.836 128.029 173.836 127.905 173.658 127.692C173.533 127.532 173.249 127.407 173.036 127.425C172.805 127.425 172.236 127.798 171.721 128.261C171.223 128.74 170.619 129.434 169.944 130.536L168.913 129.469L169.713 128.705C170.139 128.296 170.459 127.869 170.406 127.781C170.37 127.692 170.104 127.603 169.837 127.603C169.57 127.603 168.913 127.869 168.362 128.207C167.829 128.545 167.011 129.025 165.696 129.736L165.643 128.883C165.607 128.42 165.625 127.958 165.661 127.869C165.696 127.781 166.229 127.283 166.834 126.785C167.438 126.288 168.451 125.541 169.073 125.132C170.05 124.51 170.388 124.404 171.117 124.404C171.614 124.404 174.333 124.599 177.159 124.848C180.962 125.186 183.521 125.31 186.844 125.31C189.35 125.31 192.744 125.221 194.397 125.115C196.068 125.008 197.952 124.848 198.574 124.759C199.213 124.652 200.493 124.421 201.417 124.226Z" fill="white"/>
<path d="M182.668 132.668C182.632 132.526 182.579 132.277 182.579 132.135C182.579 131.993 182.686 131.869 182.792 131.869C182.917 131.869 183.414 132.029 184.801 132.544L184.09 132.668C183.699 132.722 183.254 132.811 183.077 132.864C182.899 132.899 182.721 132.811 182.668 132.668Z" fill="white"/>
<path d="M157.717 151.864C158.197 150.495 159.05 148.434 159.618 147.278C160.169 146.141 160.667 145.27 160.72 145.377C160.774 145.483 161.84 145.608 163.119 145.661C164.399 145.714 165.625 145.785 165.838 145.839C166.158 145.892 166.229 146.034 166.247 146.479C166.247 146.798 166.354 147.456 166.478 147.954C166.603 148.434 166.887 149.162 167.456 150.264L166.62 150.495C166.158 150.62 164.719 151.135 163.386 151.633C162.071 152.131 160.063 152.948 158.908 153.481C157.752 154.015 156.811 154.423 156.811 154.388C156.811 154.37 157.219 153.233 157.717 151.864Z" fill="white"/>
<path d="M213.057 31.4098C212.915 31.1254 212.808 30.8766 212.808 30.8232C212.808 30.7699 212.862 30.7344 212.933 30.7344C213.004 30.7344 213.182 31.001 213.342 31.3031C213.502 31.6231 213.893 32.5295 214.195 33.3116C214.497 34.0936 214.959 35.5333 215.19 36.5108C215.439 37.4884 215.794 39.248 216.007 40.421C216.203 41.5941 216.416 43.5492 216.469 44.7756C216.558 46.5174 216.523 47.0862 216.327 47.4416C216.078 47.8682 216.078 47.8682 215.865 46.8195C215.759 46.233 215.527 44.5978 215.385 43.1759C215.225 41.7541 214.977 39.87 214.852 38.9991C214.71 38.1282 214.479 36.7952 214.337 36.0665C214.195 35.3378 213.893 34.0936 213.679 33.3116C213.466 32.5295 213.182 31.6764 213.057 31.4098Z" fill="#DFDFEE"/>
<path d="M199.32 37.5417C199.498 36.2442 199.782 34.6624 199.942 34.0225C200.102 33.3827 200.297 32.8672 200.386 32.8672C200.475 32.8672 200.546 33.1871 200.546 33.5782C200.546 33.9692 200.493 34.2536 200.422 34.218C200.333 34.1825 200.262 34.5913 200.262 35.1422C200.244 35.711 200.137 37.2751 200.031 38.6437C199.924 40.0122 199.817 41.8074 199.817 42.6427C199.782 43.8691 199.764 44.0113 199.658 43.4426C199.586 43.0515 199.551 43.9047 199.569 45.3977C199.604 46.8551 199.586 47.7793 199.533 47.4416C199.498 47.1039 199.355 46.7662 199.249 46.6951C199.089 46.5885 199.089 46.5529 199.267 46.5529C199.373 46.5529 199.48 46.4108 199.48 46.233C199.48 45.9842 199.444 45.9664 199.302 46.1975C199.213 46.3397 199.124 46.393 199.124 46.2863C199.124 46.1797 199.036 46.233 198.947 46.3752C198.822 46.5529 198.787 45.5754 198.876 43.2648C198.929 41.4164 199.142 38.8214 199.32 37.5417Z" fill="#DFDFEE"/>
<path d="M151.319 35.711C151.23 35.3733 151.141 35.0356 151.141 34.9467C151.141 34.8756 151.23 34.8223 151.319 34.8223C151.426 34.8223 151.532 34.9823 151.586 35.1778C151.639 35.3733 151.763 35.5333 151.852 35.5333C151.959 35.5333 152.101 35.8354 152.208 36.1909C152.297 36.5641 152.457 37.2573 152.545 37.755C152.634 38.2349 152.847 39.639 153.007 40.8654C153.15 42.0918 153.31 43.3181 153.363 43.6203C153.398 43.9224 153.487 44.9178 153.558 45.842C153.665 47.1217 153.647 47.4949 153.487 47.3883C153.345 47.2994 153.256 47.4239 153.185 48.2414L146.183 48.2948C142.345 48.3125 139.235 48.2948 139.288 48.2414C139.323 48.1881 142.451 48.1526 153.096 48.1526V47.2639C153.096 46.7662 152.972 45.4687 152.83 44.3668C152.67 43.2826 152.314 41.0076 152.03 39.3546C151.746 37.7017 151.426 36.0487 151.319 35.711Z" fill="#DFDFEE"/>
<path d="M137.404 44.9355C137.44 43.2293 137.493 41.6652 137.546 41.4341V41.4519C137.6 41.2208 137.671 41.0431 137.724 41.0431C137.76 41.0431 137.777 42.6427 137.76 44.5978C137.742 46.8729 137.653 48.1348 137.546 48.0815C137.44 48.0459 137.386 46.8729 137.404 44.9355Z" fill="#DFDFEE"/>
<path d="M208.454 48.2414C204.083 48.2414 201.915 48.1881 203.39 48.1348C204.811 48.0815 206.962 48.0282 208.188 48.0104C209.414 48.0104 211.689 48.0637 213.253 48.1348C215.243 48.2059 213.786 48.2414 208.454 48.2414Z" fill="#DFDFEE"/>
<path d="M204.314 55.7419C204.243 55.6708 204.474 54.9599 204.811 54.1778C205.149 53.378 205.433 52.7737 205.451 52.8271C205.487 52.8804 205.416 53.3425 205.309 53.8579C205.22 54.3734 205.096 54.9421 205.06 55.1021C205.025 55.2798 204.9 55.3865 204.811 55.3331C204.722 55.2798 204.598 55.3865 204.545 55.5464C204.491 55.7242 204.385 55.813 204.314 55.7419Z" fill="#DFDFEE"/>
<path d="M183.308 64.0422C183.29 63.9356 183.272 63.8112 183.29 63.7223C183.308 63.6512 183.539 63.6334 183.805 63.7045C184.072 63.7756 184.463 63.9356 184.694 64.06C184.907 64.2022 185.138 64.5221 185.192 64.7887C185.263 65.0731 185.263 65.6419 185.192 66.0862C185.12 66.5306 184.889 67.3304 184.676 67.8636C184.445 68.3968 183.965 69.321 183.574 69.9076C183.183 70.4941 182.437 71.3828 181.939 71.8982C181.424 72.4136 180.571 73.0535 180.073 73.3023C179.558 73.5689 178.652 73.9422 178.065 74.1199C177.479 74.3154 176.359 74.5287 175.595 74.5998C174.369 74.6887 174.173 74.7598 173.996 75.1152C173.836 75.4352 173.658 75.524 173.054 75.5063C172.361 75.5063 172.289 75.4707 172.289 75.0619C172.289 74.8131 172.592 74.2266 172.965 73.7467C173.32 73.2845 174.422 71.8982 175.417 70.6896C176.395 69.481 177.905 67.8458 178.758 67.0638C179.629 66.2817 180.891 65.2686 181.602 64.8065C182.348 64.3266 182.97 64.0245 183.112 64.0956C183.237 64.1667 183.326 64.1489 183.308 64.0422Z" fill="#DFDFEE"/>
<path d="M182.917 76.1283C183.059 75.8617 183.023 75.7195 182.81 75.5418C182.544 75.3463 182.597 75.3285 183.13 75.4174C183.468 75.4707 183.894 75.6662 184.072 75.8262C184.25 75.9861 184.356 76.1994 184.303 76.3061C184.25 76.4127 184.356 76.786 184.516 77.1414C184.676 77.5147 184.854 77.7813 184.907 77.7457C184.961 77.6924 184.996 79.7186 185.014 82.2247C185.032 85.3173 184.978 86.2771 184.907 85.1929C184.801 83.9487 184.783 84.2331 184.818 86.4371C184.854 88.2678 184.818 89.1209 184.712 88.8365C184.587 88.4988 184.57 88.5699 184.641 89.192C184.676 89.6363 184.676 90.3117 184.605 90.7027C184.534 91.236 184.463 91.3426 184.339 91.1471C184.232 90.9694 184.22 91.0878 184.303 91.5026C184.41 92.018 184.392 92.0891 184.196 91.9469C184.001 91.8047 183.983 91.858 184.072 92.1602C184.143 92.3912 184.125 92.569 184.019 92.569C183.93 92.569 183.876 92.7289 183.93 92.9245C183.983 93.1377 183.876 93.4221 183.663 93.6354C183.468 93.8309 183.343 94.062 183.397 94.1686C183.45 94.2753 183.379 94.3463 183.272 94.3463C183.148 94.3463 183.095 94.3997 183.166 94.4708C183.237 94.5596 183.201 94.7729 183.095 94.9684C182.988 95.1639 182.65 95.6261 182.348 95.9993C182.046 96.3726 181.744 96.6569 181.673 96.6569C181.584 96.6569 181.353 96.8169 181.14 97.0124C180.867 97.2494 180.612 97.3264 180.376 97.2435C180.162 97.1724 180.073 97.1901 180.144 97.2968C180.198 97.3857 180.002 97.4567 179.7 97.4567L179.671 97.4584C179.36 97.4756 179.04 97.4934 178.954 97.5278C178.865 97.5634 178.421 97.5812 177.177 97.5278L177.976 97.2435C178.421 97.0835 179.007 96.7991 179.291 96.5858C179.576 96.3903 180.18 95.8216 180.624 95.3595C181.069 94.8796 181.62 94.1508 181.815 93.7598C182.028 93.351 182.277 92.6045 182.401 92.1246C182.508 91.627 182.721 90.3117 182.864 89.192C183.023 88.0722 183.183 85.2995 183.254 83.0601C183.361 79.452 183.326 78.8299 183.041 77.728C182.81 76.8215 182.775 76.3949 182.917 76.1283Z" fill="#DFDFEE"/>
<path d="M189.794 78.3678C189.99 78.35 190.328 78.2434 190.541 78.119C190.754 77.9946 191.234 77.8879 191.607 77.8702C191.98 77.8702 192.425 77.9235 192.602 78.0123C192.762 78.1012 192.958 78.3856 193.011 78.6522C193.064 78.9366 193.029 79.4876 192.922 79.8964C192.816 80.3229 192.638 80.6606 192.549 80.6606C192.46 80.6606 192.407 80.7317 192.46 80.8384C192.513 80.945 192.46 81.1938 192.336 81.4071C192.229 81.6382 191.785 82.278 191.358 82.829C190.95 83.3978 190.399 83.931 190.15 84.0376C189.901 84.1443 189.706 84.2864 189.706 84.3931C189.706 84.4997 189.617 84.5708 189.528 84.5708C189.421 84.5708 189.35 83.9132 189.35 82.9712C189.35 81.6026 189.386 81.3538 189.67 81.2827C189.83 81.2472 190.274 80.9095 190.63 80.5362C191.003 80.163 191.341 79.612 191.412 79.3276C191.518 78.8477 191.465 78.7766 190.967 78.5633C190.665 78.4567 190.399 78.4211 190.381 78.4922C190.345 78.5811 190.132 78.5811 189.883 78.51C189.51 78.4034 189.51 78.3856 189.794 78.3678Z" fill="#DFDFEE"/>
<path d="M186.293 94.8262C186.364 94.8085 186.613 94.3641 186.844 93.8487C187.075 93.351 187.324 92.9245 187.395 92.9245C187.449 92.9245 187.502 94.6663 187.484 96.7813C187.466 98.9142 187.431 100.834 187.413 101.047C187.413 101.314 187.324 101.402 187.182 101.314C187.022 101.225 187.022 101.314 187.129 101.634C187.253 101.989 187.235 102.042 187.04 101.9C186.844 101.758 186.827 101.811 186.915 102.113C186.986 102.345 186.969 102.522 186.862 102.522C186.755 102.522 186.738 102.664 186.809 102.824C186.915 103.073 186.898 103.109 186.684 102.967C186.471 102.824 186.453 102.86 186.56 103.091C186.631 103.269 186.613 103.411 186.507 103.411C186.418 103.411 186.364 103.5 186.418 103.589C186.471 103.678 186.169 104.211 185.76 104.762C185.334 105.313 184.872 105.81 184.73 105.864C184.587 105.917 184.356 106.077 184.25 106.201C184.125 106.326 183.93 106.397 183.841 106.344C183.752 106.29 183.628 106.379 183.574 106.521C183.521 106.699 183.361 106.752 183.095 106.664C182.792 106.575 182.721 106.61 182.828 106.752C182.899 106.895 182.81 107.001 182.561 107.055C182.33 107.108 182.046 107.143 181.939 107.143C181.815 107.143 181.744 107.055 181.797 106.966C181.851 106.859 181.637 106.823 181.229 106.877C180.624 106.966 180.589 106.948 180.909 106.752C181.086 106.628 181.726 106.077 182.295 105.544C182.881 105.011 183.557 104.246 183.805 103.855C184.072 103.464 184.445 102.789 184.658 102.345C184.872 101.9 185.28 100.443 185.6 99.0919C185.902 97.7589 186.151 96.2481 186.151 95.7682C186.151 95.2706 186.205 94.8618 186.293 94.8262Z" fill="#DFDFEE"/>
<path d="M168.966 101.367C169.375 100.674 169.819 100.158 170.281 99.9095C170.655 99.6785 171.099 99.5007 171.277 99.5007C171.454 99.5007 171.614 99.6607 171.65 99.8917C171.703 100.123 171.792 100.745 171.845 101.278C171.916 101.811 172.218 102.931 172.521 103.766C172.947 104.922 173.285 105.508 173.978 106.237C174.564 106.841 175.293 107.392 176.11 107.783C176.821 108.139 178.012 108.512 178.865 108.672C179.754 108.85 180.891 108.921 181.62 108.885C182.544 108.832 183.183 108.654 184.072 108.245C184.854 107.872 185.636 107.303 186.382 106.557C186.986 105.953 187.733 104.975 188.053 104.388C188.355 103.802 188.799 102.682 189.03 101.918C189.243 101.154 189.528 100.478 189.617 100.443C189.706 100.407 190.63 100.603 191.66 100.905C192.691 101.207 193.882 101.616 194.326 101.829C194.77 102.042 195.606 102.558 196.192 102.967C196.779 103.393 197.667 104.157 198.165 104.673C198.662 105.206 199.48 106.272 199.995 107.055C200.511 107.837 201.328 109.312 201.826 110.343C202.306 111.374 203.194 113.4 203.781 114.875C204.367 116.332 205.149 118.305 205.522 119.229C205.878 120.154 206.233 121.06 206.304 121.22C206.393 121.487 206.286 121.558 205.753 121.611C205.38 121.664 204.687 121.753 204.189 121.807C203.709 121.86 203.39 121.842 203.514 121.771C203.692 121.664 203.674 121.522 203.496 121.185C203.372 120.936 202.928 120.136 202.501 119.407C202.092 118.679 201.506 117.665 201.204 117.186C200.884 116.688 200.173 115.675 199.622 114.91C199.053 114.164 198.467 113.489 198.325 113.4C198.165 113.329 197.969 113.364 197.863 113.453C197.774 113.542 197.632 114.022 197.561 114.502C197.489 114.982 197.347 115.408 197.258 115.444C197.17 115.479 196.939 115.159 196.743 114.751C196.565 114.324 196.21 113.364 195.943 112.6C195.57 111.498 195.41 111.231 195.126 111.231C194.93 111.231 194.593 111.356 194.379 111.498C194.107 111.676 193.971 111.942 193.971 112.298C193.971 112.582 194.575 114.324 195.304 116.155C196.032 118.003 196.814 119.94 197.01 120.474C197.223 121.007 197.578 121.789 198.236 122.962L196.867 123.086C196.103 123.175 192.122 123.229 188.017 123.229C183.095 123.229 179.558 123.14 177.621 122.98C176.004 122.838 173.569 122.713 172.201 122.713C169.908 122.695 169.659 122.731 168.913 123.122C168.469 123.353 167.811 123.78 167.456 124.046C167.082 124.331 166.727 124.508 166.656 124.455C166.567 124.402 166.514 123.548 166.514 122.553C166.514 121.558 166.549 119.052 166.585 117.008C166.62 114.964 166.727 112.387 166.816 111.32C166.887 110.254 167.082 108.37 167.242 107.143C167.385 105.917 167.704 104.371 167.935 103.678C168.149 102.984 168.629 101.953 168.966 101.367Z" fill="#DFDFEE"/>
<path d="M137.546 106.557C134.809 106.592 130.367 106.592 127.683 106.557C125 106.539 127.239 106.521 132.659 106.521C138.079 106.521 140.283 106.539 137.546 106.557Z" fill="#DFDFEE"/>
<path d="M209.165 129.627C209.414 128.81 209.45 128.187 209.379 126.961L209.272 125.361L209.823 125.895C210.125 126.179 210.551 126.819 210.783 127.317C211.014 127.796 211.209 128.507 211.209 128.863C211.209 129.236 211.12 129.538 211.031 129.538C210.942 129.538 210.907 129.645 210.96 129.752C211.014 129.876 210.836 130.249 210.551 130.587C210.285 130.907 209.841 131.298 209.574 131.422C209.29 131.564 208.899 131.618 208.685 131.547C208.383 131.458 208.312 131.493 208.419 131.636C208.49 131.76 208.508 131.849 208.454 131.849C208.401 131.849 208.259 131.795 208.152 131.742C207.992 131.671 208.063 131.493 208.383 131.173C208.65 130.907 208.988 130.214 209.165 129.627Z" fill="#DFDFEE"/>
<path d="M160.702 127.69C160.4 126.161 160.4 126.055 160.685 125.859C160.934 125.699 161.111 125.717 161.627 126.019C161.964 126.215 162.551 126.641 162.924 126.943C163.35 127.299 163.581 127.636 163.581 127.939C163.581 128.187 163.67 128.65 163.759 128.952C163.937 129.52 163.937 129.538 163.404 129.538C163.119 129.538 162.835 129.449 162.782 129.36C162.746 129.272 162.32 129.201 161.005 129.289L160.702 127.69Z" fill="#DFDFEE"/>
<path d="M160.809 145.09C160.845 144.895 160.916 144.628 160.987 144.521V144.504C161.076 144.344 161.787 144.29 165.892 144.29L165.998 144.77C166.105 145.232 166.158 145.268 166.763 145.161C167.118 145.09 170.726 145.072 174.777 145.108C178.847 145.144 183.397 145.215 184.907 145.268C186.436 145.321 189.439 145.428 191.607 145.499C195.215 145.606 195.588 145.659 196.05 145.997C196.334 146.21 196.707 146.636 196.903 146.974C197.187 147.472 197.276 148.076 197.383 150.689C197.454 152.395 197.596 155.043 197.703 156.554C197.809 158.065 197.934 159.522 197.987 159.789C198.023 160.073 198.023 160.287 197.969 160.287C197.934 160.287 196.867 159.789 195.623 159.202C194.379 158.598 191.909 157.425 190.15 156.608C188.39 155.772 186.151 154.724 185.174 154.297C184.196 153.853 182.401 153.124 181.175 152.644C179.967 152.164 178.207 151.578 177.265 151.329C176.341 151.098 174.902 150.76 174.067 150.6C173.249 150.44 171.49 150.262 170.157 150.227C168.842 150.191 167.687 150.156 167.58 150.156C167.491 150.156 167.26 149.854 167.065 149.498C166.887 149.125 166.638 148.414 166.496 147.934C166.372 147.436 166.247 146.779 166.247 146.459C166.247 146.121 166.158 145.854 165.981 145.801C165.838 145.748 165.092 145.712 164.346 145.712C163.581 145.712 162.462 145.659 161.858 145.588C160.88 145.463 160.756 145.41 160.809 145.09Z" fill="#DFDFEE"/>
<path d="M199.853 166.348C200.191 166.241 200.582 166.081 200.706 165.992C200.848 165.921 200.99 165.921 201.026 166.01C201.062 166.099 200.973 166.419 200.813 166.703C200.671 166.987 200.475 167.272 200.368 167.325C200.28 167.378 199.995 167.272 199.764 167.094C199.515 166.934 199.302 166.739 199.284 166.685C199.249 166.614 199.515 166.472 199.853 166.348Z" fill="#DFDFEE"/>
<path d="M191.714 172.942C197.756 172.924 201.115 172.853 201.186 172.746C201.239 172.657 201.47 172.568 201.719 172.568C201.95 172.568 202.163 172.622 202.163 172.693C202.163 172.782 202.039 172.959 201.861 173.102C201.595 173.333 200.386 173.368 192.744 173.297C187.893 173.261 183.574 173.173 183.13 173.102C182.704 173.03 186.56 172.959 191.714 172.942Z" fill="#DFDFEE"/>
<path d="M144.193 23.6784C144.193 19.4127 144.228 18.8262 144.477 18.5773C144.637 18.4174 144.815 18.293 144.886 18.293C144.957 18.293 145.152 18.4352 145.33 18.6129C145.615 18.8795 145.65 19.3416 145.632 28.5128L146.468 28.7439C147.125 28.9216 147.569 29.2238 148.387 30.0769C148.973 30.6812 149.72 31.6588 150.022 32.2453C150.342 32.8318 150.804 33.9871 151.053 34.8225C151.301 35.6578 151.746 37.7018 152.03 39.3548C152.314 41.0255 152.67 43.2828 152.83 44.3847C152.972 45.4689 153.096 46.7842 153.096 48.1527L137.724 48.0639L137.76 44.6869C137.777 42.8384 137.937 39.9946 138.079 38.3772C138.239 36.7598 138.488 34.8403 138.63 34.1115C138.773 33.3828 139.075 32.3875 139.306 31.8898C139.554 31.4099 140.105 30.6634 140.55 30.2547C140.994 29.8281 141.687 29.3304 142.078 29.1349C142.469 28.9394 143.109 28.7261 144.211 28.5128L144.193 23.6784Z" fill="#2929CF"/>
<path d="M207.299 23.3229C207.299 20.9412 207.353 18.8795 207.406 18.7373C207.459 18.5951 207.673 18.4707 207.886 18.4707C208.099 18.4529 208.401 18.5951 208.543 18.7551C208.757 19.0039 208.81 19.8393 208.881 27.8019L209.379 27.9618C209.645 28.0507 210.267 28.3706 210.765 28.6906C211.245 29.0105 211.867 29.5437 212.115 29.8636C212.364 30.2013 212.737 30.7879 212.933 31.1789C213.146 31.5699 213.466 32.5297 213.679 33.3117C213.893 34.0938 214.195 35.3379 214.337 36.0666C214.479 36.7954 214.71 38.1284 214.852 38.9993C214.977 39.8702 215.225 41.8075 215.385 43.265C215.545 44.7402 215.741 46.251 215.83 46.642C215.919 47.033 216.007 47.5129 216.007 47.7084C216.007 48.0633 215.883 48.0639 208.101 48.0992L208.064 48.0994C203.674 48.0994 200.013 48.0639 199.906 48.0105C199.782 47.9395 199.675 46.9086 199.622 45.309C199.569 43.8871 199.587 43.0517 199.658 43.4427C199.764 44.0292 199.782 43.8693 199.818 42.6429C199.818 41.8075 199.924 40.0124 200.031 38.6438C200.137 37.2753 200.244 35.6934 200.262 35.1424C200.262 34.5914 200.315 34.1826 200.368 34.2182C200.422 34.2715 200.635 33.5606 200.866 32.6541C201.079 31.7476 201.453 30.7345 201.666 30.3968C201.879 30.0591 202.448 29.4904 202.945 29.1171C203.425 28.7617 204.189 28.2818 204.634 28.0685C205.113 27.8197 205.789 27.6597 207.299 27.6241V23.3229Z" fill="#2929CF"/>
<path d="M139.963 54.0181C140.461 52.1874 140.781 51.352 141.047 51.1209C141.332 50.8899 141.474 50.8543 141.705 51.0143C141.865 51.1209 141.971 51.4231 141.936 51.6897C141.918 51.9385 141.545 53.3604 141.118 54.8179C140.674 56.2931 140.23 57.8216 140.141 58.2482C140.017 58.6925 139.803 59.0658 139.59 59.1724C139.341 59.2968 139.146 59.2791 138.968 59.1369C138.808 59.0125 138.684 58.7458 138.684 58.5503C138.684 58.3548 138.826 57.8394 138.968 57.3951C139.128 56.9507 139.572 55.4399 139.963 54.0181Z" fill="#2929CF"/>
<path d="M149.258 53.5737C148.938 52.5073 148.653 51.4764 148.653 51.3165C148.653 51.1209 148.796 50.9965 149.009 50.9965C149.204 50.9965 149.542 51.2098 149.773 51.4942C149.986 51.7608 150.377 52.6495 150.644 53.4848C150.91 54.3202 151.373 55.831 152.261 58.7281L151.87 59.048C151.675 59.208 151.39 59.3146 151.266 59.2613C151.159 59.2257 150.946 58.9947 150.839 58.7814C150.715 58.5503 150.448 57.7327 150.235 56.9507C150.04 56.1687 149.595 54.6579 149.258 53.5737Z" fill="#2929CF"/>
<path d="M204.207 52.1518C204.367 51.7608 204.563 51.3342 204.669 51.2276C204.776 51.1032 204.918 50.9965 205.007 50.9965C205.096 50.9965 205.291 51.0321 205.433 51.0854C205.576 51.1387 205.7 51.3698 205.7 51.6186C205.7 51.8674 205.344 52.9161 204.918 53.9825C204.491 55.0312 203.994 56.3642 203.834 56.9507C203.674 57.5372 203.461 58.2837 203.372 58.6037C203.265 58.9591 203.088 59.1724 202.892 59.1724C202.732 59.1902 202.466 59.0658 202.323 58.9058C202.092 58.657 202.092 58.5503 202.359 57.9638C202.537 57.6083 202.963 56.3109 203.301 55.0845C203.656 53.8581 204.047 52.5428 204.207 52.1518Z" fill="#2929CF"/>
<path d="M211.529 51.6186C211.511 51.512 211.6 51.3342 211.742 51.2098C211.884 51.0854 212.169 50.9965 212.4 50.9965C212.737 50.9965 212.897 51.2098 213.324 52.294C213.608 52.9872 214.159 54.6579 214.568 55.9732C215.208 58.1415 215.261 58.4081 215.012 58.7814C214.888 58.9947 214.621 59.1546 214.443 59.1369C214.23 59.1013 213.981 58.5859 213.555 57.2173C213.235 56.1864 212.666 54.5513 212.275 53.5737C211.884 52.5962 211.547 51.7075 211.529 51.6186Z" fill="#2929CF"/>
<path d="M195.943 56.0798C195.943 55.8665 196.139 55.4577 196.37 55.1911C196.601 54.9423 196.885 54.729 196.992 54.729C197.081 54.729 197.33 54.889 197.525 55.0845C197.721 55.28 197.88 55.5999 197.88 55.7954C197.88 55.9909 197.685 56.3464 197.436 56.5952C197.205 56.8441 196.885 57.0396 196.725 57.0396C196.583 57.0396 196.334 56.9152 196.192 56.773C196.05 56.6308 195.926 56.3109 195.943 56.0798Z" fill="#2929CF"/>
<path d="M132.997 56.1509C132.979 55.9021 133.103 55.511 133.281 55.2978C133.441 55.0845 133.725 54.9067 133.903 54.9067C134.099 54.9067 134.383 55.0312 134.525 55.1733C134.667 55.3155 134.792 55.6177 134.792 55.8487C134.809 56.062 134.65 56.453 134.436 56.7374C134.241 57.004 133.974 57.2173 133.85 57.2173C133.743 57.2173 133.494 57.0751 133.317 56.8974C133.139 56.7374 132.997 56.3997 132.997 56.1509Z" fill="#2929CF"/>
<path d="M220.184 56.0265C220.237 55.7421 220.45 55.3866 220.663 55.2267C220.859 55.0489 221.072 54.9067 221.143 54.9067C221.197 54.9067 221.339 54.9778 221.445 55.0489C221.552 55.12 221.73 55.3511 221.854 55.5821C221.996 55.8843 221.996 56.0798 221.819 56.4175C221.712 56.6663 221.463 56.9152 221.285 56.9507C221.126 57.004 220.788 56.9152 220.539 56.773C220.184 56.5597 220.113 56.3997 220.184 56.0265Z" fill="#2929CF"/>
<path d="M157.326 56.1687C157.308 55.9198 157.45 55.5821 157.628 55.4044C157.806 55.2267 158.055 55.0845 158.179 55.0845C158.321 55.0845 158.588 55.2444 158.783 55.4399C158.979 55.6355 159.139 55.9021 159.139 56.0265C159.139 56.1331 159.014 56.4175 158.872 56.6486C158.73 56.8618 158.428 57.0396 158.197 57.0396C157.983 57.0396 157.699 56.9507 157.575 56.8263C157.45 56.7019 157.344 56.3997 157.326 56.1687Z" fill="#2929CF"/>
<path d="M204.029 30.1123C204.42 29.8279 205.113 29.4369 205.611 29.277C206.091 29.0992 206.748 28.957 207.033 28.957C207.317 28.957 207.619 28.9926 207.69 29.0459C207.779 29.0992 207.37 29.5969 206.802 30.1656C206.038 30.9121 205.647 31.4809 205.291 32.3874C205.025 33.045 204.651 34.3602 204.456 35.3022C204.26 36.262 203.994 38.2527 203.852 39.7101C203.71 41.1675 203.514 43.3182 203.301 46.553H202.199C201.133 46.553 201.079 46.5352 201.15 46.1619C201.204 45.9309 201.293 44.5979 201.346 43.176C201.398 41.7991 201.533 39.5056 201.622 37.99L201.63 37.8439C201.737 36.3331 201.932 34.4846 202.075 33.7559C202.235 33.0272 202.572 32.0319 202.857 31.5342C203.123 31.0543 203.656 30.4145 204.029 30.1123Z" fill="white"/>
<path d="M142.06 30.7877C142.309 30.5744 142.967 30.2901 143.5 30.1301C144.033 29.9879 144.85 29.8635 145.312 29.8635C145.792 29.8457 146.201 29.899 146.254 29.9701C146.29 30.059 146.148 30.219 145.934 30.3434C145.721 30.4678 145.366 30.8233 145.153 31.1432C144.921 31.4631 144.548 32.3163 144.299 33.045C144.051 33.7737 143.695 35.1423 143.5 36.0665C143.322 36.9907 143.002 39.1947 142.807 40.9543C142.593 42.7139 142.398 44.6867 142.256 46.553H140.745C139.661 46.553 139.235 46.4996 139.235 46.3397C139.235 46.2153 139.323 44.3135 139.43 42.1095C139.519 39.9056 139.714 37.2751 139.857 36.2442C139.999 35.2134 140.23 33.987 140.372 33.4893C140.514 33.0094 140.852 32.2807 141.118 31.8897C141.367 31.4987 141.794 31.001 142.06 30.7877Z" fill="white"/>
<path d="M147.498 46.1979C144.513 46.1979 144.033 46.1624 144.033 45.9314C144.033 45.7003 144.495 45.6648 147.445 45.7003C149.986 45.7359 150.857 45.807 150.911 45.9669C150.946 46.1446 150.182 46.1979 147.498 46.1979Z" fill="#DFDFEE"/>
<path d="M207.299 46.1979C205.469 46.1979 205.167 46.1624 205.185 45.9136C205.202 45.6648 205.647 45.647 209.183 45.7003C211.725 45.7359 213.146 45.8247 213.128 45.9314C213.093 46.038 213.022 46.0913 212.933 46.0735C212.862 46.038 212.044 45.9669 211.12 45.8781C209.823 45.7892 209.432 45.807 209.432 45.9669C209.432 46.1446 208.881 46.1979 207.299 46.1979Z" fill="#DFDFEE"/>
</g>
<rect x="0.40625" y="1.08984" width="349.5" height="199.5" stroke="#00009C" stroke-width="0.5"/>
<defs>
<clipPath id="clip0_9_457">
<rect width="182.003" height="165" fill="white" transform="translate(84.1548 18.3398)"/>
</clipPath>
</defs>
</svg>
