<svg width="3501" height="2001" viewBox="0 0 3501 2001" fill="none" xmlns="http://www.w3.org/2000/svg">
<g clip-path="url(#clip0_101_33)">
<rect x="0.15625" y="0.210938" width="3500" height="2000" fill="white"/>
<g clip-path="url(#clip1_101_33)">
<path fill-rule="evenodd" clip-rule="evenodd" d="M508.891 -283.133H2990.79V271.484C2990.79 783.195 2990.54 826.343 2986.91 831.918C2984.73 835.312 2981.57 838.948 2980.12 840.402C2978.42 841.857 2974.79 846.462 2971.88 850.826C2968.97 854.946 2967.03 859.552 2967.76 861.006C2968.49 862.461 2967.76 863.915 2966.55 864.642C2965.34 865.37 2964.12 868.763 2964.12 872.642C2964.37 878.459 2963.88 878.944 2960.25 875.551C2956.61 872.157 2956.61 872.399 2958.06 877.975C2959.03 882.095 2958.06 887.186 2954.67 893.731C2951.76 899.064 2949.58 904.396 2949.58 905.851C2949.82 907.305 2948.13 909.729 2945.95 911.426C2944.01 912.88 2942.8 915.789 2943.52 917.486C2944.25 918.941 2941.83 923.789 2938.19 927.91C2934.07 932.758 2927.28 936.636 2920.5 938.575C2914.44 940.03 2907.65 943.181 2905.23 945.362C2901.59 948.756 2900.38 948.756 2899.17 946.332C2897.96 943.908 2893.84 947.059 2885.35 956.755C2878.57 964.27 2869.6 974.451 2865.24 979.299C2861.12 984.389 2857 990.207 2856.27 992.631C2855.54 994.812 2853.84 996.752 2852.63 996.752C2851.42 996.752 2850.21 998.449 2850.21 1000.39C2850.21 1002.33 2849 1004.02 2847.79 1004.02C2846.57 1004.02 2845.85 1006.21 2846.57 1008.87C2847.38 1012.1 2846.57 1013.72 2844.15 1013.72C2842.21 1013.72 2841 1014.93 2841.73 1016.14C2842.45 1017.36 2836.39 1025.36 2828.4 1033.84C2818.7 1043.54 2814.34 1050.08 2815.31 1052.5C2816.28 1055.17 2815.79 1055.66 2812.88 1054.2C2809.98 1052.99 2809.01 1053.96 2809.01 1058.56C2809.01 1061.96 2807.79 1064.62 2806.58 1064.62C2805.37 1064.62 2804.64 1062.44 2805.37 1059.78C2806.1 1057.11 2805.37 1054.93 2804.16 1054.93C2802.95 1054.93 2801.49 1056.87 2801.25 1059.29C2801.25 1061.47 2801.01 1065.11 2801.25 1067.05C2801.49 1068.99 2798.58 1071.9 2794.95 1073.59C2791.31 1075.29 2776.77 1091.53 2761.74 1110.92C2747.2 1129.59 2733.87 1146.31 2732.42 1148.01C2730.96 1149.47 2730.23 1152.13 2730.72 1153.59C2731.2 1155.28 2729.99 1156.74 2728.54 1156.74C2726.84 1156.49 2723.45 1158.43 2721.02 1160.86C2717.63 1164.01 2716.9 1167.16 2718.12 1172.49C2719.57 1179.52 2719.33 1179.52 2715.21 1175.64C2711.09 1172.01 2710.6 1172.01 2705.76 1176.86C2702.85 1179.77 2697.76 1186.31 2694.36 1191.16C2690.73 1196.25 2688.79 1200.85 2690.24 1201.58C2691.45 1202.31 2692.67 1204.25 2692.67 1205.7C2692.91 1208.13 2692.18 1208.13 2689.76 1205.95C2687.33 1203.52 2685.15 1204.25 2679.34 1210.07C2675.46 1214.19 2673.52 1217.34 2674.97 1217.34C2676.67 1217.34 2678.12 1220 2678.12 1223.4C2678.12 1227.28 2676.67 1229.46 2674.49 1229.46C2672.55 1229.46 2670.37 1228.25 2669.64 1227.03C2668.91 1225.58 2666.49 1226.79 2664.07 1229.22C2661.89 1231.88 2657.28 1237.46 2653.89 1241.58C2650.49 1245.94 2644.19 1253.21 2640.07 1258.06C2635.71 1263.15 2632.07 1268.48 2632.07 1269.94C2632.07 1271.64 2630.62 1273.58 2628.92 1274.06C2626.74 1274.79 2626.74 1275.51 2629.17 1278.18C2630.86 1280.12 2632.07 1282.3 2632.07 1283.27C2632.07 1284.48 2630.13 1284.48 2627.95 1283.27C2624.56 1281.82 2624.32 1282.54 2625.53 1286.91C2626.5 1290.3 2626.26 1292.48 2624.56 1292.48C2623.11 1292.48 2620.44 1294.18 2618.5 1296.12C2616.56 1298.06 2615.11 1301.69 2615.11 1303.88C2615.11 1306.3 2613.41 1309.94 2611.47 1311.87C2609.78 1313.81 2604.2 1319.63 2599.6 1324.48C2594.75 1329.57 2589.17 1336.36 2587.23 1339.75C2585.3 1343.14 2582.15 1345.81 2580.45 1345.81C2578.99 1345.81 2576.09 1347.99 2574.39 1350.66C2572.93 1353.33 2569.78 1355.51 2567.85 1355.51C2565.91 1355.51 2561.06 1360.6 2556.94 1366.9C2552.82 1373.69 2549.67 1381.93 2549.67 1386.29C2549.67 1391.14 2547.73 1395.99 2544.82 1398.41C2540.7 1402.05 2539.97 1405.2 2540.46 1417.8C2540.94 1426.05 2540.7 1433.08 2539.97 1433.56C2539.25 1434.05 2473.56 1433.8 2248.64 1431.86L2253.97 1427.02C2256.88 1424.35 2261.97 1417.8 2264.88 1412.47C2268.03 1407.14 2271.18 1397.93 2272.15 1391.87C2273.28 1384.6 2272.55 1377.08 2269.97 1369.32C2266.09 1358.42 2266.33 1357.69 2271.67 1350.42C2276.03 1344.36 2277.24 1339.02 2277.73 1323.27C2278.45 1308.97 2277.24 1297.09 2273.36 1280.36C2270.45 1267.76 2262.94 1240.37 2257.12 1219.76C2251.06 1199.16 2239.67 1165.22 2231.67 1144.62C2223.68 1124.01 2211.56 1097.35 2205.01 1085.23C2198.23 1073.11 2188.29 1056.87 2182.96 1048.87C2177.38 1040.87 2163.08 1024.39 2151.21 1012.27C2136.91 997.964 2121.15 985.359 2106.13 976.148C2093.52 968.391 2072.68 957.24 2060.07 951.665C2047.47 946.09 2020.08 936.394 1999.48 930.091C1978.88 923.789 1959.73 917.486 1957.07 916.274C1952.7 914.335 1951.98 910.214 1949.07 873.611C1947.37 851.31 1946.16 825.858 1946.16 800.406L1954.16 799.194C1958.28 798.467 1966.28 794.346 1971.37 790.225C1976.7 785.862 1985.42 775.681 1991.24 767.682C1996.82 759.682 2005.06 746.108 2009.42 737.381C2015.72 724.776 2017.42 718.474 2017.42 706.839C2017.66 695.203 2016.69 690.598 2012.81 686.477C2010.15 683.568 2003.84 678.962 1989.79 671.933L1993.42 661.509C1995.6 655.934 1998.03 645.268 1998.75 637.996C1999.48 630.724 1999 618.119 1997.54 610.12C1995.85 602.121 1991.73 588.061 1987.85 578.608C1983.97 569.154 1975.49 553.398 1968.7 543.459C1961.91 533.521 1948.83 517.522 1939.86 508.069C1930.65 498.857 1918.29 488.192 1912.23 484.798C1906.17 481.162 1894.29 476.556 1885.57 474.132C1875.39 471.466 1860.84 470.011 1844.36 470.011C1826.19 470.011 1810.43 471.708 1788.62 476.314C1771.89 479.707 1742.57 487.222 1723.18 492.555C1703.79 498.13 1679.31 506.614 1668.64 511.947C1655.31 518.492 1645.13 525.764 1635.44 535.46C1627.92 543.217 1619.2 554.852 1616.29 561.64C1611.44 571.578 1610.47 577.638 1610.47 596.788C1610.47 617.392 1611.2 621.271 1617.26 633.148C1621.14 640.42 1627.44 649.874 1638.59 661.024L1635.68 685.265C1633.74 700.779 1633.26 723.079 1634.23 747.077C1635.2 767.682 1636.89 792.164 1638.35 801.618C1639.8 811.072 1642.47 825.131 1644.41 833.13C1646.59 841.13 1650.47 853.734 1653.37 861.006C1656.28 868.279 1662.34 880.399 1666.95 887.671C1671.55 894.943 1676.64 901.73 1678.1 902.7C1680.03 904.154 1679.55 905.366 1677.13 907.063C1675.19 908.275 1668.16 911.184 1661.37 913.365C1654.83 915.547 1638.35 922.577 1625.02 928.879C1609.02 936.636 1594.48 945.847 1582.6 956.028C1572.66 964.512 1559.58 977.117 1553.76 983.662C1547.94 990.207 1538.25 1003.05 1532.19 1012.51C1526.13 1021.96 1518.13 1036.02 1514.49 1044.02C1510.86 1052.02 1505.53 1066.08 1497.04 1092.5L1494.14 1085.23C1492.44 1081.35 1485.89 1073.35 1479.35 1067.53C1472.81 1061.72 1463.11 1055.9 1457.78 1054.2C1450.51 1052.02 1394.28 1051.29 1239.64 1051.29C1040.9 1051.29 1030.72 1051.53 1022.72 1055.9C1018.12 1058.32 1010.6 1063.65 1006.24 1068.02C1001.63 1072.14 996.06 1079.65 993.394 1084.5C990.243 1090.8 988.788 1098.56 988.788 1108.74C988.788 1117.23 990.485 1131.04 992.666 1139.77C994.605 1148.5 999.453 1171.28 1003.33 1190.67C1007.21 1210.07 1015.69 1252.49 1022.48 1285.21C1029.02 1317.93 1037.99 1359.39 1042.11 1377.32C1047.93 1403.26 1050.84 1411.99 1056.65 1419.02C1060.77 1424.11 1063.2 1428.96 1062.47 1429.92C1061.74 1431.14 988.304 1431.86 899.111 1431.86C809.918 1431.86 736.479 1431.14 735.752 1429.92C735.024 1428.96 736.479 1424.83 739.145 1420.96C741.811 1417.08 743.992 1409.81 743.992 1405.2C743.992 1400.59 741.811 1383.87 738.902 1368.11C736.236 1352.6 731.389 1327.15 728.238 1311.87C725.33 1296.6 720.967 1279.88 718.786 1274.79C716.119 1268.73 713.453 1266.06 710.787 1266.55C706.909 1267.03 706.425 1269.94 706.909 1287.63C707.152 1299.03 710.06 1325.21 713.453 1345.81C716.847 1366.42 719.755 1389.2 719.755 1396.23C719.755 1407.87 719.028 1409.56 696.73 1433.32L661.586 1433.08C627.411 1432.83 626.442 1433.08 623.048 1438.41C620.867 1442.29 620.625 1445.44 622.321 1448.83C624.503 1453.2 628.138 1453.92 663.04 1455.38C684.369 1456.35 855.968 1457.07 1044.53 1457.07C1257.82 1457.07 1483.71 1458.53 1641.98 1460.95C1782.07 1463.13 1896.96 1465.56 1897.69 1466.04C1898.41 1466.77 1890.17 1467.25 1879.51 1467.25C1868.84 1467.25 1861.57 1467.74 1863.27 1468.47C1865.21 1469.19 1864.48 1470.89 1855.27 1478.89L1861.09 1479.62C1865.21 1480.1 1867.15 1481.8 1867.15 1485.68C1867.39 1488.34 1868.36 1491.74 1869.33 1492.95C1870.54 1493.92 1877.81 1494.89 1885.32 1494.89C1894.29 1494.89 1900.84 1496.1 1903.5 1498.52C1906.65 1501.43 1906.9 1502.65 1904.47 1503.86C1902.37 1505.15 1902.94 1505.8 1906.17 1505.8C1908.83 1505.8 1914.89 1507.49 1919.5 1509.68C1924.1 1512.1 1930.16 1513.8 1932.83 1513.8C1935.5 1513.8 1955.61 1513.07 1977.67 1512.34C2008.69 1510.89 2021.3 1511.37 2034.63 1514.28C2044.08 1516.22 2060.32 1517.92 2070.98 1517.92C2081.65 1517.92 2096.43 1519.61 2103.7 1521.55C2110.97 1523.73 2121.4 1526.4 2126.73 1527.37C2134.97 1529.31 2137.63 1528.83 2144.91 1523.73C2149.51 1520.58 2157.75 1517.43 2163.08 1516.7C2168.42 1515.98 2175.44 1513.31 2178.84 1511.13C2183.93 1507.74 2191.44 1507.01 2223.68 1507.01C2254.94 1506.77 2263.67 1507.49 2268.27 1510.4C2273.36 1514.04 2274.82 1514.04 2284.03 1510.4C2289.84 1508.22 2295.9 1507.25 2298.81 1508.22C2301.48 1509.19 2307.54 1511.13 2312.14 1512.83C2316.75 1514.28 2338.56 1516.46 2360.62 1517.92C2382.67 1519.13 2413.21 1519.61 2428.48 1518.64C2456.11 1516.95 2456.6 1517.19 2470.17 1524.22C2477.68 1528.1 2484.71 1533.19 2485.44 1535.37C2486.17 1537.79 2487.86 1539.73 2489.07 1539.73C2490.29 1539.73 2491.5 1538.04 2491.5 1536.1C2491.5 1533.19 2492.47 1532.95 2497.07 1535.13C2499.98 1536.58 2505.31 1541.43 2508.95 1545.55C2512.83 1549.67 2515.73 1553.79 2515.73 1554.76C2515.73 1555.97 2518.16 1556.7 2521.31 1556.46C2524.22 1556.22 2528.1 1556.22 2529.79 1556.46C2531.25 1556.7 2532.7 1557.43 2532.7 1558.4C2532.7 1559.61 2095.7 1560.09 1561.51 1559.85C706.667 1559.37 589.359 1559.61 584.511 1562.76C581.36 1564.94 579.179 1568.82 579.179 1572.46C579.179 1575.85 580.391 1580.7 581.603 1583.37C583.057 1586.03 587.42 1589.91 591.298 1591.85C597.357 1594.76 612.384 1595.49 760.958 1595.49V1844.68C760.958 2001.99 761.928 2097.02 763.382 2102.83C764.836 2107.68 768.957 2114.47 773.077 2117.86C777.197 2121.26 784.469 2124.65 789.558 2125.38C794.406 2126.35 802.646 2125.62 807.736 2124.17C814.523 2122.23 817.674 2119.56 820.34 2113.01C823.49 2105.74 823.975 2071.81 822.763 1594.27L1151.18 1594.76C1331.75 1595.24 1481.05 1595.97 1482.74 1596.7C1484.44 1597.42 1485.65 1602.03 1485.41 1608.33C1485.17 1617.79 1484.92 1618.03 1481.29 1603.97L1481.05 1611.24C1480.56 1618.03 1480.32 1618.27 1478.14 1613.18C1476.93 1610.03 1475.47 1607.61 1474.75 1607.61C1474.02 1607.61 1474.02 1609.79 1474.75 1612.45C1475.47 1615.12 1474.99 1617.3 1473.53 1617.3C1472.32 1617.3 1470.62 1616.09 1469.9 1614.88C1469.17 1613.42 1465.78 1613.42 1460.93 1615.61C1456.57 1617.06 1452.2 1619.73 1451.24 1620.94C1450.27 1622.15 1449.3 1624.09 1449.3 1625.3C1449.3 1626.27 1451.24 1628.69 1453.66 1630.88C1456.57 1633.54 1457.05 1635.24 1454.87 1636.21C1453.42 1637.18 1450.99 1640.57 1449.78 1643.97C1448.57 1647.36 1447.6 1653.42 1447.84 1657.78C1448.08 1663.12 1446.87 1666.02 1443.96 1666.75C1441.54 1667.72 1438.15 1671.84 1436.21 1675.96C1434.27 1680.33 1431.6 1686.63 1430.15 1690.02C1427.97 1695.11 1427.97 1694.39 1430.15 1674.27L1424.09 1688.81C1420.94 1696.81 1415.36 1710.87 1411.73 1720.32C1408.09 1729.78 1404.21 1738.5 1403 1739.72C1401.79 1740.93 1400.82 1742.62 1400.82 1743.35C1400.82 1744.08 1402.52 1744.56 1404.46 1744.56C1406.64 1744.56 1408.58 1741.41 1409.55 1736.08C1410.52 1730.02 1411.49 1728.56 1412.94 1731.23C1414.15 1733.17 1414.64 1736.56 1414.15 1738.5C1413.67 1740.44 1412.46 1744.81 1411.73 1748.2C1410.76 1751.59 1411 1753.05 1412.21 1751.59C1413.18 1750.14 1416.58 1748.2 1419.73 1747.23C1422.64 1746.5 1425.54 1743.35 1426.27 1740.2C1426.76 1737.29 1429.18 1730.5 1431.36 1725.17C1433.78 1719.84 1435.72 1714.99 1435.97 1714.26C1435.97 1713.54 1440.09 1704.57 1445.18 1694.14C1450.02 1683.96 1455.36 1675.48 1456.57 1675.48C1458.02 1675.48 1458.99 1673.3 1458.99 1670.63C1458.99 1667.24 1460.69 1665.54 1464.57 1665.3C1467.47 1665.3 1471.59 1665.06 1473.53 1665.3C1475.47 1665.3 1477.9 1664.09 1478.87 1662.63C1480.32 1660.45 1480.8 1660.45 1480.8 1662.87C1480.8 1664.33 1482.02 1665.78 1483.23 1665.78C1484.68 1665.78 1486.62 1661.66 1488.08 1656.81C1489.29 1651.72 1490.74 1637.18 1491.47 1624.57C1492.2 1611.97 1493.41 1599.61 1494.14 1597.42C1495.1 1594.03 1498.01 1593.06 1507.47 1593.06C1514.25 1593.06 1521.28 1592.33 1523.22 1591.36C1525.64 1590.15 1519.34 1608.58 1505.53 1642.75C1493.65 1672.08 1482.02 1702.14 1479.59 1709.41C1476.93 1718.14 1475.96 1725.9 1476.93 1731.96C1478.38 1740.93 1478.38 1740.93 1464.57 1747.96C1456.81 1751.84 1441.78 1760.08 1431.12 1766.38C1420.45 1772.68 1400.82 1785.53 1387.49 1794.98C1374.16 1804.44 1355.74 1818.25 1346.29 1826.01C1336.84 1833.52 1323.5 1845.64 1316.23 1852.67C1309.2 1859.95 1297.81 1874.01 1291.03 1883.94C1284.24 1893.88 1275.03 1911.09 1270.67 1922.24C1266.3 1933.15 1260.97 1949.39 1258.79 1958.36C1255.88 1970.72 1255.16 1981.88 1256.13 2002.72C1256.85 2020.66 1259.28 2037.14 1262.67 2048.78C1265.58 2058.72 1270.91 2073.5 1274.79 2081.5C1278.67 2089.5 1285.21 2101.14 1296.6 2119.07L1302.9 2114.71C1306.3 2112.53 1309.45 2108.89 1310.17 2106.95C1310.9 2105.02 1307.51 2095.8 1302.9 2086.35C1298.3 2076.9 1291.51 2059.69 1287.88 2047.57C1282.54 2029.63 1281.33 2020.9 1281.09 1997.87C1281.09 1977.27 1282.06 1966.12 1285.45 1955.45C1287.88 1947.45 1292.24 1935.33 1295.15 1928.79C1298.06 1922 1307.27 1906.97 1315.26 1894.85C1323.5 1882.73 1337.56 1866.01 1346.77 1857.52C1355.74 1849.04 1371.49 1835.95 1381.43 1828.19C1391.37 1820.68 1407.12 1809.53 1416.58 1803.71C1426.03 1797.65 1448.81 1784.56 1467.47 1774.38C1486.14 1764.2 1513.52 1750.62 1528.07 1744.56C1542.85 1738.26 1567.33 1728.32 1582.6 1722.26C1597.87 1716.2 1617.99 1708.69 1627.44 1705.54C1639.8 1701.17 1649.5 1699.72 1663.8 1699.72C1674.46 1699.72 1694.58 1700.93 1708.63 1702.14C1722.69 1703.6 1747.17 1707.96 1763.17 1711.6C1779.17 1715.47 1803.16 1722.75 1816.49 1727.59C1829.82 1732.69 1856 1743.59 1874.66 1751.84C1893.32 1760.08 1923.86 1774.62 1942.52 1783.83C1961.19 1793.29 1993.42 1808.56 2014.02 1817.77C2034.63 1826.98 2062.26 1838.86 2075.1 1844.19C2097.64 1853.16 2098.37 1853.89 2093.28 1857.04C2090.37 1858.98 2082.13 1862.61 2075.34 1865.04C2068.32 1867.46 2058.86 1869.4 2054.74 1869.16C2047.47 1868.92 2048.2 1868.43 2060.07 1864.55C2073.41 1860.43 2073.41 1860.43 2066.86 1857.52C2062.01 1855.58 2054.74 1855.58 2041.41 1857.28C2030.99 1858.49 1998.03 1860.67 1967.97 1862.13C1937.92 1863.58 1898.17 1866.25 1879.51 1868.19C1860.84 1870.13 1828.12 1875.7 1806.8 1880.55C1785.47 1885.16 1743.54 1897.28 1713.48 1907.22C1676.4 1919.58 1647.31 1931.21 1622.59 1943.33C1602.72 1953.03 1580.9 1965.39 1574.12 1970.72C1567.57 1976.06 1557.15 1986.72 1551.09 1994.48C1545.03 2002.24 1538.25 2014.6 1535.82 2022.11C1533.64 2029.39 1531.7 2039.32 1531.7 2043.93C1531.7 2048.54 1533.4 2057.26 1535.34 2063.32C1537.52 2069.38 1542.12 2078.11 1545.76 2082.71C1549.4 2087.32 1559.58 2095.56 1568.79 2101.38C1577.75 2107.2 1586.48 2111.8 1588.18 2111.8C1589.63 2112.05 1592.54 2110.59 1593.99 2108.89C1596.66 2106.47 1593.99 2102.35 1581.15 2088.77C1566.6 2073.5 1565.15 2071.08 1566.6 2064.53C1567.57 2060.66 1570.48 2052.9 1573.39 2047.57C1576.06 2042.23 1583.33 2031.08 1589.63 2022.84C1595.69 2014.6 1601.51 2008.54 1602.48 2009.51C1603.45 2010.48 1603.45 2034.23 1601.26 2113.01L1607.08 2114.71C1610.23 2115.68 1614.84 2116.65 1617.26 2116.65C1619.44 2116.65 1622.35 2114.71 1623.56 2112.29C1624.77 2110.11 1627.2 2084.65 1628.89 2056.05C1630.59 2027.45 1632.04 2003.69 1632.04 2003.21C1632.29 2002.96 1637.13 2005.39 1643.19 2008.54C1649.25 2011.93 1661.13 2016.3 1669.86 2018.24C1679.31 2020.66 1696.76 2022.11 1713.48 2022.11C1732.63 2022.11 1742.32 2023.08 1744.51 2025.02C1746.2 2026.72 1747.41 2030.11 1747.41 2032.29C1747.41 2034.72 1749.35 2037.14 1751.78 2037.87C1753.96 2038.6 1756.14 2041.51 1756.38 2044.42C1756.87 2047.57 1758.08 2051.2 1759.53 2052.41C1761.15 2054.03 1761.96 2053.38 1761.96 2050.48C1761.96 2048.29 1763.17 2046.35 1764.38 2046.35C1765.59 2046.35 1766.8 2048.05 1766.8 2049.99C1766.8 2051.93 1768.5 2053.63 1770.44 2053.63C1772.38 2053.63 1774.08 2054.84 1774.08 2056.05C1774.08 2057.26 1775.77 2058.47 1777.71 2058.47C1779.65 2058.47 1781.1 2059.93 1780.62 2061.38C1780.13 2063.08 1781.83 2066.47 1784.25 2068.66C1787.16 2071.56 1788.62 2071.97 1788.62 2069.87C1788.78 2067.93 1789.83 2068.17 1791.77 2070.59C1793.46 2072.78 1799.28 2076.9 1805.1 2079.81C1810.67 2082.71 1815.76 2084.41 1816.49 2083.2C1817.22 2082.23 1818.19 2083.44 1818.91 2085.62C1819.64 2088.53 1822.55 2089.99 1826.91 2089.99C1830.55 2089.99 1834.67 2090.96 1835.88 2092.41C1837.09 2093.62 1848 2096.05 1860.12 2097.74C1878.05 2100.17 1880.72 2101.14 1874.66 2102.59C1870.78 2103.56 1884.35 2104.05 1904.96 2103.56C1929.44 2102.83 1942.77 2101.62 1943.25 2099.93C1943.49 2098.47 1944.95 2097.74 1946.16 2098.47C1947.37 2099.2 1949.07 2097.99 1949.8 2096.05C1950.52 2094.11 1952.22 2092.41 1953.43 2092.41C1954.64 2092.41 1955.85 2094.35 1955.85 2096.53C1955.61 2100.41 1956.1 2100.41 1959.73 2097.26C1962.16 2095.08 1962.64 2093.38 1960.94 2092.9C1959.49 2092.65 1958.28 2091.2 1958.28 2089.99C1958.28 2088.77 1959.97 2088.05 1961.91 2088.77C1964.1 2089.5 1968.94 2086.35 1973.79 2080.78C1978.15 2075.93 1986.15 2066.96 1991.48 2060.9C1996.57 2054.84 2005.06 2044.66 2010.39 2038.11C2015.72 2031.33 2021.54 2024.54 2023.23 2022.84C2025.66 2020.42 2037.29 2019.69 2069.28 2019.69C2109.76 2019.69 2112.91 2019.45 2123.09 2014.11C2129.39 2010.72 2135.94 2004.9 2138.6 2000.06C2141.27 1995.45 2143.45 1987.94 2143.21 1983.33C2143.21 1978.72 2140.06 1969.03 2136.18 1961.76C2132.3 1954.48 2125.76 1944.79 2114.12 1931.21L2119.46 1922.73C2122.36 1918.12 2128.18 1907.46 2132.54 1898.97C2136.66 1890.73 2142.97 1871.58 2146.36 1856.55C2149.99 1839.83 2152.42 1821.89 2152.66 1810.01C2152.66 1799.35 2151.45 1755.23 2149.99 1711.84C2148.54 1668.45 2146.36 1625.06 2145.39 1615.36C2144.18 1602.03 2144.42 1597.91 2146.84 1597.91C2148.3 1597.91 2150.24 1600.33 2150.72 1603.24C2151.45 1606.39 2154.12 1631.85 2157.02 1659.72C2159.93 1687.6 2165.26 1736.81 2169.14 1768.8C2173.02 1800.8 2177.87 1846.13 2180.05 1869.4C2182.23 1892.67 2187.32 1938.49 2191.2 1971.21C2195.32 2003.93 2200.41 2047.57 2202.59 2068.41C2205.34 2093.62 2207.92 2107.6 2210.35 2110.35C2212.28 2112.53 2216.65 2114.47 2220.04 2114.47C2223.43 2114.23 2228.04 2113.01 2230.71 2111.32C2234.58 2108.65 2235.07 2106.23 2233.86 2096.05C2232.89 2089.26 2226.83 2041.51 2220.28 1989.39C2213.5 1937.27 2206.23 1875.7 2204.29 1852.43C2202.1 1829.16 2198.47 1792.07 2195.8 1770.02C2193.14 1747.96 2188.77 1708.69 2185.87 1682.75C2183.2 1656.81 2179.81 1629.91 2178.59 1623.36C2177.38 1616.57 2176.41 1607.61 2176.41 1595.49L2275.79 1594.27V1620.21C2275.79 1641.78 2275.06 1646.39 2272.15 1646.39C2270.21 1646.39 2268.03 1644.94 2267.55 1643.24C2266.82 1641.78 2266.09 1648.57 2265.36 1676.69L2263.67 1663.36C2262.7 1656.09 2261.97 1753.29 2261.24 2109.38L2266.82 2107.2C2271.18 2105.26 2273.36 2106.23 2279.91 2112.53C2284.03 2116.89 2292.27 2121.74 2298.08 2123.44C2303.9 2125.38 2312.38 2126.1 2316.99 2125.38C2321.59 2124.65 2327.65 2121.74 2330.32 2118.83C2334.2 2114.71 2335.17 2109.86 2336.38 2070.59L2344.38 2071.81C2348.5 2072.53 2359.16 2074.47 2367.65 2075.93C2376.13 2077.62 2383.64 2080.53 2383.88 2081.99C2384.37 2083.68 2386.07 2085.14 2387.28 2085.14C2388.49 2085.14 2396 2088.05 2403.76 2091.44C2412.48 2095.56 2421.21 2097.74 2427.27 2097.5C2432.6 2097.26 2439.87 2096.77 2443.75 2096.53C2448.6 2096.29 2450.05 2095.08 2448.84 2092.41C2447.63 2089.5 2448.6 2089.26 2453.2 2090.71C2457.81 2092.17 2458.54 2091.93 2457.08 2088.77C2455.63 2086.35 2456.35 2085.14 2459.5 2084.65C2461.69 2084.65 2465.32 2084.17 2467.26 2084.17C2469.2 2083.93 2470.65 2081.74 2470.65 2079.08C2470.41 2076.41 2471.62 2072.78 2473.56 2071.08C2475.5 2069.62 2478.17 2068.66 2479.38 2069.38C2480.59 2070.11 2485.92 2065.02 2491.01 2058.23C2495.86 2051.2 2501.19 2045.14 2502.4 2044.17C2503.86 2043.45 2510.4 2036.17 2516.95 2028.17C2523.73 2020.17 2529.55 2013.15 2530.28 2012.42C2531 2011.69 2539.73 2001.51 2549.67 1989.63C2559.6 1977.75 2569.78 1965.63 2572.21 1962.48C2574.39 1959.33 2575.12 1956.67 2573.9 1956.67C2572.69 1956.67 2571.48 1955.45 2571.48 1954.24C2571.48 1953.03 2573.18 1952.3 2575.12 1953.03C2577.06 1953.76 2580.93 1952.06 2583.6 1949.39C2586.27 1946.73 2587.96 1943.33 2587.23 1942.12C2586.51 1940.91 2587.48 1937.27 2589.42 1934.12C2591.36 1931.21 2595.96 1928.06 2599.84 1927.33C2604.44 1926.12 2609.29 1921.76 2614.62 1914C2618.99 1907.46 2622.38 1903.34 2622.38 1904.55C2622.38 1905.76 2626.98 1900.91 2632.56 1893.88C2638.38 1886.61 2647.34 1876.19 2652.68 1870.61C2658.01 1865.28 2673.03 1848.31 2685.88 1833.04C2698.73 1817.77 2714.97 1799.1 2721.75 1791.83C2728.54 1784.56 2737.26 1774.14 2741.14 1768.8C2745.02 1763.47 2752.53 1754.74 2758.11 1749.41C2763.44 1744.08 2767.8 1738.5 2767.8 1737.29C2767.8 1736.08 2770.47 1732.69 2773.86 1730.02C2777.26 1727.35 2780.16 1723.23 2779.92 1720.81C2779.92 1718.63 2781.38 1716.69 2783.07 1716.69C2784.53 1716.44 2790.59 1711.35 2796.4 1705.05C2802.22 1698.75 2809.73 1689.3 2813.13 1683.96C2816.52 1678.63 2820.64 1673.3 2822.09 1672.33C2824.03 1670.87 2823.79 1669.9 2821.85 1669.18C2820.15 1668.69 2818.7 1666.99 2818.7 1665.78C2818.7 1664.57 2820.88 1663.36 2823.55 1663.36C2826.21 1663.36 2828.15 1661.9 2827.91 1660.21C2827.43 1658.51 2829.36 1654.15 2832.03 1650.75C2835.91 1645.66 2837.61 1644.94 2840.03 1647.12C2842.45 1649.3 2842.94 1649.3 2842.94 1646.39C2842.94 1644.45 2841.73 1641.3 2840.03 1639.36C2837.36 1636.69 2837.61 1636.45 2841.73 1637.66C2845.36 1638.88 2847.3 1637.66 2849.72 1632.57C2851.42 1628.69 2853.6 1626.51 2854.57 1627.48C2855.54 1628.45 2857.96 1627.24 2859.9 1624.82C2861.84 1622.39 2866.21 1619 2869.6 1617.3C2872.99 1615.61 2881.72 1607.36 2889.23 1599.36C2896.74 1591.12 2911.04 1575.85 2920.74 1564.94C2930.68 1554.03 2943.52 1538.76 2949.58 1531.01C2955.4 1523.25 2967.28 1509.68 2990.79 1485.19V2199.07H525.857L525.615 2163.19C525.372 2143.56 524.645 2121.5 521.737 2100.89L521.252 2112.29C521.252 2118.83 520.282 2123.92 519.313 2123.92C518.101 2123.92 517.859 2119.32 518.344 2113.5C519.071 2105.02 518.344 2103.08 508.891 2099.68V1709.41C508.891 1450.77 509.618 1319.15 511.315 1319.15C512.769 1319.15 516.405 1321.57 519.555 1324.48C522.949 1327.63 535.067 1350.17 546.459 1374.9C558.093 1399.62 571.423 1426.53 576.271 1435.02C583.542 1447.14 586.45 1450.04 591.298 1450.04C594.691 1450.04 598.811 1449.07 600.75 1448.11C603.174 1446.89 601.72 1442.53 593.964 1429.44C588.632 1419.99 579.906 1402.78 574.816 1390.66C569.484 1378.54 559.062 1356.48 551.549 1341.45C541.611 1321.81 536.279 1313.33 531.432 1310.91C527.554 1309.21 521.01 1307.03 508.891 1304.6L509.376 1263.88C509.618 1241.58 510.103 1233.58 511.315 1268.24L529.008 1269.7C538.46 1270.42 578.694 1270.67 689.458 1269.21L690.67 1260.49C691.397 1255.64 692.852 1250.79 694.064 1249.82C695.275 1248.61 696.487 1248.85 696.972 1250.55C697.457 1252.24 700.608 1253.7 704.001 1253.7C709.818 1253.7 709.818 1253.21 707.636 1245.7C706.182 1241.58 705.213 1231.4 705.213 1223.4C705.213 1215.4 706.425 1199.16 707.879 1187.04C709.333 1174.92 714.18 1150.43 718.543 1132.5C723.148 1114.56 729.692 1090.08 733.086 1077.96C736.721 1065.84 740.841 1051.29 742.538 1045.23C744.235 1039.17 750.779 1022.93 757.08 1008.87C763.382 994.813 771.38 979.056 774.774 973.724C778.409 968.391 785.923 958.695 791.255 952.15C796.587 945.605 806.282 936.394 812.826 931.546C819.37 926.698 828.338 920.637 832.701 917.971C837.063 915.305 849.667 907.79 860.816 901.245C871.965 894.7 887.962 884.52 896.687 878.459C905.412 872.399 912.926 866.824 913.653 866.097C914.38 865.127 919.712 861.249 925.529 857.37C931.346 853.25 940.799 844.523 946.373 837.978C952.19 831.191 960.673 819.313 965.278 811.314C970.126 803.315 975.7 789.74 978.124 781.014C980.709 770.51 981.598 760.813 980.79 751.925C979.821 744.653 977.639 733.018 975.7 726.473C973.277 718.474 968.187 709.747 960.431 701.263C952.433 692.294 943.465 685.75 930.861 679.447C913.168 670.963 911.956 670.721 884.811 670.721C860.331 670.721 854.514 671.448 838.518 677.266C828.58 680.901 812.826 689.143 803.374 695.203C794.163 701.506 778.894 713.383 769.441 721.867C760.231 730.109 744.962 745.865 735.509 756.773C726.299 767.682 713.453 783.438 707.394 791.679C701.335 799.679 686.792 822.222 675.158 841.614C663.767 861.006 653.345 878.459 652.133 880.399C650.921 882.338 648.982 883.065 648.013 882.095C646.801 881.126 648.74 867.551 652.618 851.795C656.253 836.281 662.07 809.859 665.221 793.134C668.372 776.408 672.25 757.258 673.947 750.713C675.401 743.926 677.097 724.292 677.825 707.081C678.552 689.386 678.067 663.206 676.37 647.692C674.916 632.421 671.281 610.605 668.614 599.212C665.948 587.819 662.798 577.396 661.828 576.184C660.859 574.729 656.738 565.033 652.86 554.367C648.982 543.702 641.711 528.43 636.621 520.431C631.289 512.432 621.109 499.585 613.596 491.828C605.84 484.071 593.721 474.375 586.45 470.254C579.179 465.891 567.787 461.042 561.001 459.346C554.457 457.649 544.035 456.194 537.976 456.437C531.916 456.437 522.949 457.891 508.891 463.467L508.891 -283.133ZM544.035 471.708C553.245 472.435 563.425 475.344 571.908 479.708C579.179 483.344 591.298 492.07 598.569 498.857C605.84 505.887 616.262 518.977 621.837 527.946C627.169 537.157 635.652 554.61 640.499 566.488C645.104 578.365 650.194 594.364 651.648 601.636C653.103 608.908 655.526 627.573 656.981 642.844C658.435 658.116 658.92 680.659 658.192 692.537C657.223 704.414 654.314 726.958 651.891 742.229C649.225 757.501 644.377 783.195 641.226 799.194C638.076 815.192 631.774 849.614 627.169 875.793C620.382 916.032 619.655 924.273 622.321 929.122C624.987 934.212 623.776 939.302 613.111 971.3C606.567 991.419 596.63 1026.08 591.298 1048.87C585.965 1071.65 579.421 1105.35 576.998 1124.01C574.332 1142.68 571.665 1170.07 570.696 1184.61C569.969 1199.16 568.757 1220.25 567.06 1251.27L529.493 1250.06L528.766 1115.53C528.281 1041.6 529.25 949.968 530.705 911.911C532.159 873.854 533.855 795.315 534.582 737.381C535.31 679.447 535.067 619.331 533.855 603.818C532.401 580.547 530.947 574.729 527.069 570.366C524.403 567.7 519.313 564.791 508.891 562.852V520.431C508.891 497.16 509.133 478.011 509.618 478.011C509.86 478.011 514.466 476.314 519.798 474.375C526.099 471.951 534.34 470.981 544.035 471.708ZM511.315 579.82C513.011 579.82 513.738 621.028 513.496 699.324C513.254 764.773 512.284 845.978 511.315 879.187C510.345 922.819 509.618 889.61 509.376 759.682C509.133 641.148 509.618 579.82 511.315 579.82ZM888.204 687.204C906.139 687.689 915.35 689.143 923.348 692.779C929.407 695.446 938.375 701.506 943.707 706.111C948.797 710.717 955.099 718.474 957.522 723.564C960.189 728.412 962.128 736.654 962.128 741.745C962.128 746.593 960.189 758.955 957.765 768.894C955.341 778.832 950.251 792.649 946.373 799.194C942.738 805.981 931.831 819.071 922.378 828.525C912.926 837.978 894.263 852.765 880.933 861.491C867.602 869.975 844.819 884.035 830.277 892.761C809.433 905.124 799.496 913.123 781.802 931.303C764.594 948.999 757.08 959.179 748.355 976.148C741.569 989.48 730.419 1019.3 719.997 1052.5C710.303 1082.56 701.577 1110.92 700.123 1115.53C698.911 1120.13 695.033 1138.31 691.64 1155.53C688.247 1172.74 684.853 1201.58 682.187 1251.27H620.382L621.594 1243.52C622.079 1239.15 623.776 1225.82 625.23 1213.7C626.684 1201.58 630.562 1176.61 633.955 1157.95C637.348 1139.28 644.862 1106.56 650.679 1085.23C656.496 1063.9 665.706 1035.05 671.038 1020.99C676.37 1006.93 683.884 988.025 687.762 978.572C691.64 969.118 698.911 952.877 703.758 942.211C708.848 931.546 718.301 912.881 725.087 901.003C731.874 889.125 742.538 872.157 748.84 863.43C755.384 854.704 767.987 840.645 777.197 831.918C786.407 823.192 798.768 813.011 804.585 808.89C810.645 805.011 819.128 798.951 823.248 795.558C828.096 791.922 831.246 787.316 831.246 784.165C831.246 780.529 829.55 778.105 826.399 777.378C823.733 776.65 815.977 779.074 808.948 783.195C801.919 787.074 789.074 796.527 780.348 804.042C771.623 811.556 760.474 822.222 755.384 827.797C750.294 833.373 739.145 847.917 730.904 859.794C722.421 871.672 711.272 889.125 705.697 898.579C700.365 908.032 690.428 928.152 683.884 943.423C677.097 958.695 668.13 980.026 664.009 990.692C659.647 1001.36 651.891 1023.17 646.801 1039.17C641.469 1055.17 631.774 1088.86 625.472 1114.32C618.928 1139.77 611.899 1174.43 609.718 1191.89C607.537 1209.1 605.598 1229.46 604.628 1250.06L594.448 1250.79C588.632 1251.03 584.026 1250.06 584.026 1248.85C584.026 1247.64 586.208 1223.88 588.874 1196.25C591.54 1168.37 595.66 1130.56 598.326 1111.89C600.993 1093.23 607.537 1060.5 613.111 1039.17C618.443 1017.84 627.654 986.813 632.986 970.088C638.56 953.362 650.921 924.516 660.616 905.851C670.069 887.186 684.126 861.491 691.882 848.886C699.638 836.281 713.453 815.435 722.906 802.83C732.358 790.225 746.658 772.287 754.657 763.318C762.897 754.107 778.652 738.593 790.043 728.655C801.435 718.716 818.401 706.596 827.611 701.748C837.063 696.9 848.94 691.325 854.272 689.628C860.331 687.689 872.934 686.719 888.204 687.204ZM2529.79 1590.88C2530.03 1590.88 2530.28 1591.85 2530.28 1593.06C2530.28 1594.27 2528.58 1595.49 2526.64 1595.49C2524.7 1595.49 2521.07 1599.12 2518.89 1603.24C2516.46 1607.61 2510.65 1613.18 2506.04 1615.36C2501.44 1617.79 2491.01 1620.21 2483.01 1621.18C2475.02 1621.91 2467.99 1622.88 2467.26 1622.88C2466.53 1623.12 2455.63 1622.15 2443.02 1621.18C2423.39 1619.73 2417.33 1618.03 2402.3 1610.51C2392.85 1605.67 2384.85 1600.09 2384.85 1598.39C2384.85 1596.21 2399.64 1595.49 2449.81 1595.24C2485.44 1595 2517.92 1594.03 2521.79 1593.06C2525.91 1592.09 2529.31 1591.12 2529.79 1590.88Z" fill="white"/>
<path fill-rule="evenodd" clip-rule="evenodd" d="M665.464 587.087C667.403 593.147 670.796 607.934 672.977 619.811C675.886 634.84 677.097 655.687 677.097 687.684C677.34 723.317 676.37 738.831 672.735 756.769C670.311 769.374 665.706 791.675 662.555 806.461C659.647 821.248 654.557 844.034 651.891 857.366C647.528 877.243 647.043 881.848 649.952 883.303C652.375 884.757 652.133 885.242 648.982 885.242C646.074 885.242 642.196 890.575 637.106 901.725C632.986 910.694 628.865 921.36 627.896 925.723C626.684 932.026 625.714 932.995 623.291 930.571C621.594 928.874 620.14 925.238 620.382 922.329C620.382 919.178 624.26 894.211 628.865 866.335C633.713 838.701 639.772 805.734 642.438 793.129C645.104 780.524 649.467 757.011 652.375 741.012C656.253 719.923 657.465 701.986 657.465 675.564C657.465 655.687 656.011 629.992 654.314 618.599C652.618 607.206 650.921 595.329 650.921 591.935C650.679 587.814 652.375 585.148 656.253 583.451C659.162 581.997 661.828 580.057 661.828 578.603C662.07 577.148 663.525 581.027 665.464 587.087ZM534.825 659.808C535.31 684.533 535.31 723.802 534.825 747.073C534.582 770.343 534.34 750.224 534.34 702.228C534.34 654.232 534.582 635.083 534.825 659.808ZM979.821 747.315C980.79 747.073 981.517 751.678 981.517 757.253C981.517 763.071 979.821 774.222 977.639 782.221C975.7 790.22 970.126 803.31 965.278 811.309C960.673 819.308 952.19 831.429 946.373 837.973C940.799 844.518 931.346 853.245 925.529 857.366C919.712 861.244 914.38 865.122 913.653 866.092C912.926 866.819 905.412 872.395 896.687 878.455C887.961 884.515 871.965 894.696 860.816 901.24C849.667 907.785 837.063 915.3 832.701 917.966C828.338 920.633 819.37 926.693 812.826 931.541C806.282 936.389 796.587 945.6 791.255 952.145C785.923 958.69 778.409 968.386 774.773 973.719C771.38 979.052 763.382 994.808 757.08 1008.87C750.779 1022.93 744.235 1039.17 742.538 1045.23C740.841 1051.29 736.721 1065.83 733.085 1077.95C729.692 1090.07 723.148 1114.55 718.543 1132.49C714.18 1150.43 709.333 1174.91 707.879 1187.03C706.424 1199.15 705.213 1215.39 705.213 1223.39C705.213 1231.39 706.182 1241.57 707.636 1245.69C709.818 1253.21 709.818 1253.69 704.001 1253.69C700.608 1253.69 697.457 1252.24 696.972 1250.54C696.245 1248.36 695.275 1248.36 693.821 1250.54C692.367 1252.48 690.67 1252.48 687.035 1249.82C682.43 1246.42 682.187 1244.48 683.884 1216.61C684.853 1200.36 688.247 1172.73 691.64 1155.52C695.033 1138.31 698.911 1120.13 700.123 1115.52C701.577 1110.92 710.302 1082.56 719.997 1052.5C730.419 1019.29 741.568 989.475 748.355 976.143C757.08 959.175 764.594 948.994 781.802 931.298C799.495 913.118 809.433 905.119 830.277 892.756C844.819 884.03 867.602 869.971 880.933 861.486C894.263 852.76 912.926 837.973 922.378 828.52C931.831 819.066 942.738 805.734 946.616 799.189C950.251 792.402 955.583 779.554 958.249 770.343C962.127 755.557 963.824 753.133 970.368 750.466C974.488 748.769 978.609 747.315 979.821 747.315ZM2989.57 827.065C2990.3 827.065 2990.78 975.173 2990.78 1485.19L2975.52 1500.94C2967.27 1509.67 2955.4 1523.24 2949.58 1531C2943.52 1538.76 2930.68 1554.03 2920.74 1564.94C2911.04 1575.85 2896.74 1591.12 2889.23 1599.36C2881.72 1607.36 2872.99 1615.6 2869.6 1617.3C2866.21 1618.99 2861.84 1622.39 2859.9 1624.81C2857.96 1627.24 2855.54 1628.45 2854.57 1627.48C2853.6 1626.51 2851.42 1628.69 2849.72 1632.57C2847.3 1637.66 2845.36 1638.87 2841.73 1637.66C2837.61 1636.45 2837.36 1636.69 2840.03 1639.36C2841.73 1641.29 2842.94 1644.45 2842.94 1646.39C2842.94 1649.29 2842.45 1649.29 2840.03 1647.11C2837.61 1644.93 2835.91 1645.66 2832.03 1650.75C2829.36 1654.14 2827.43 1658.51 2827.67 1660.2C2828.15 1661.9 2826.21 1663.35 2823.55 1663.35C2820.88 1663.35 2818.7 1664.57 2818.7 1665.78C2818.7 1666.99 2820.15 1668.69 2821.61 1669.17C2823.79 1669.9 2824.03 1670.87 2822.09 1672.32C2820.64 1673.29 2816.52 1678.62 2813.13 1683.96C2809.73 1689.29 2802.22 1698.74 2796.4 1705.05C2790.59 1711.35 2784.53 1716.44 2782.83 1716.68C2781.37 1716.68 2779.92 1718.62 2779.92 1721.05C2780.16 1723.23 2777.25 1727.35 2773.86 1730.01C2770.47 1732.68 2767.8 1736.07 2767.8 1737.29C2767.8 1738.5 2763.44 1744.07 2758.11 1749.41C2752.53 1754.74 2745.02 1763.47 2741.14 1768.8C2737.26 1774.13 2728.54 1784.55 2721.75 1791.83C2714.96 1799.1 2698.73 1817.76 2685.88 1833.04C2673.03 1848.31 2658.01 1865.27 2652.68 1870.61C2647.34 1876.18 2638.38 1886.61 2632.56 1893.88C2626.98 1900.91 2622.38 1905.76 2622.38 1904.54C2622.38 1903.33 2618.99 1907.45 2614.62 1914C2609.29 1921.75 2604.44 1926.12 2599.84 1927.33C2595.96 1928.06 2591.36 1931.21 2589.42 1934.36C2587.48 1937.27 2586.51 1940.9 2587.23 1942.12C2587.96 1943.33 2586.27 1946.72 2583.6 1949.39C2580.93 1952.05 2577.05 1953.75 2575.12 1953.02C2573.18 1952.3 2571.48 1953.02 2571.48 1954.24C2571.48 1955.45 2572.69 1956.66 2573.9 1956.66C2575.12 1956.66 2574.39 1959.33 2571.97 1962.48C2569.78 1965.63 2559.6 1977.75 2549.67 1989.63C2539.73 2001.5 2531 2011.69 2530.28 2012.41C2529.55 2013.14 2523.73 2020.17 2516.95 2028.17C2510.4 2036.17 2503.86 2043.44 2502.4 2044.17C2501.19 2045.14 2495.86 2051.2 2490.77 2058.23C2485.92 2065.01 2480.59 2070.1 2479.38 2069.38C2478.17 2068.65 2475.5 2069.62 2473.56 2071.32C2471.62 2072.77 2470.41 2076.41 2470.65 2079.07C2470.65 2081.74 2469.2 2083.92 2467.26 2084.16C2465.32 2084.16 2461.69 2084.65 2459.26 2084.65C2456.35 2085.13 2455.63 2086.35 2456.84 2088.77C2458.53 2091.92 2457.81 2092.16 2453.2 2090.71C2448.6 2089.25 2447.63 2089.5 2448.84 2092.41C2450.05 2095.07 2448.6 2096.28 2443.75 2096.53C2439.87 2096.77 2432.6 2097.25 2427.27 2097.5C2421.21 2097.74 2412.48 2095.56 2403.52 2091.44C2396 2088.04 2388.49 2085.13 2387.28 2085.13C2386.07 2085.13 2384.37 2083.68 2383.88 2082.22C2383.64 2080.53 2376.13 2077.62 2367.65 2075.92C2359.16 2074.47 2348.74 2072.53 2344.86 2071.8C2340.98 2071.07 2337.35 2070.35 2337.35 2069.86C2337.11 2069.62 2336.62 1962.24 2335.17 1593.06L2426.06 1593.54C2507.49 1594.03 2509.92 1594.27 2450.78 1594.75C2400.12 1595.24 2384.85 1596.21 2384.85 1598.39C2384.85 1600.09 2392.85 1605.66 2402.3 1610.51C2417.33 1618.02 2423.39 1619.72 2443.02 1621.18C2455.63 1622.15 2466.53 1623.11 2467.26 1622.87C2467.99 1622.87 2475.02 1621.9 2483.01 1621.18C2491.01 1620.21 2501.43 1617.78 2506.04 1615.36C2510.65 1613.18 2516.7 1607.84 2519.37 1603.48C2522.04 1599.12 2525.67 1595.72 2527.13 1595.48C2528.82 1595.48 2529.79 1593.78 2529.07 1591.84C2528.34 1589.66 2530.03 1587.24 2532.7 1585.78C2535.93 1584.17 2537.55 1580.94 2537.55 1576.09C2537.55 1572.21 2536.09 1566.39 2534.4 1563.24C2532.94 1560.33 2530.28 1557.18 2529.07 1556.45C2527.85 1555.48 2524.22 1555.24 2521.07 1555.73C2518.16 1556.21 2515.73 1555.97 2515.73 1554.76C2515.73 1553.79 2512.83 1549.67 2508.95 1545.55C2505.31 1541.43 2499.98 1536.58 2496.83 1535.12C2492.47 1532.94 2491.5 1533.18 2491.5 1536.09C2491.5 1538.03 2490.29 1539.73 2489.07 1539.73C2487.86 1539.73 2486.17 1537.79 2485.44 1535.37C2484.71 1533.18 2477.68 1528.09 2470.17 1524.21C2456.6 1517.18 2456.11 1516.94 2428.48 1518.64C2413.21 1519.61 2382.67 1519.12 2360.62 1517.91C2338.56 1516.46 2316.75 1514.28 2312.14 1512.82C2307.54 1511.12 2301.48 1509.19 2298.81 1508.22C2295.9 1507.25 2289.84 1508.22 2284.03 1510.4C2274.82 1514.03 2273.36 1514.03 2268.27 1510.4C2263.67 1507.49 2254.94 1506.76 2223.68 1507C2191.44 1507 2183.93 1507.73 2178.84 1511.12C2175.44 1513.31 2168.42 1515.97 2163.08 1516.7C2157.75 1517.43 2149.51 1520.58 2144.91 1523.73C2137.63 1528.82 2134.97 1529.31 2126.73 1527.37C2121.39 1526.4 2110.97 1523.73 2103.7 1521.55C2096.43 1519.61 2081.65 1517.91 2070.98 1517.91C2060.32 1517.91 2043.84 1516.22 2034.63 1514.28C2021.29 1511.37 2008.69 1510.88 1977.67 1512.34C1955.61 1513.06 1935.5 1513.79 1932.83 1513.79C1930.16 1513.79 1924.1 1512.09 1919.5 1509.67C1914.89 1507.49 1908.83 1505.79 1906.17 1505.79C1902.94 1505.79 1902.37 1505.15 1904.47 1503.85C1906.9 1502.64 1906.65 1501.43 1903.5 1498.52C1900.84 1496.1 1894.29 1494.88 1885.32 1494.88C1877.81 1494.88 1870.54 1493.91 1869.33 1492.94C1868.36 1491.73 1867.39 1488.34 1867.15 1485.67C1867.15 1481.79 1865.21 1480.1 1855.27 1478.89L1860.6 1474.28C1864.32 1471.05 1865.13 1469.11 1863.03 1468.46C1861.57 1467.73 1868.84 1467.01 1879.51 1466.77C1890.17 1466.28 1876.6 1465.31 1849.21 1464.58C1821.82 1463.86 1964.82 1463.61 2166.72 1463.86C2454.41 1464.34 2534.64 1463.86 2537.06 1461.43C2538.76 1459.98 2540.21 1455.13 2539.97 1451.25C2539.97 1447.37 2539 1442.28 2537.55 1440.34C2536.09 1437.92 2536.34 1436.14 2538.28 1435.01C2540.21 1433.8 2540.94 1427.98 2540.46 1418.04C2539.97 1405.2 2540.7 1402.04 2544.82 1398.41C2547.73 1395.98 2549.67 1391.14 2549.67 1386.29C2549.67 1381.92 2552.82 1373.68 2556.94 1366.9C2561.06 1360.59 2565.91 1355.5 2567.84 1355.5C2569.78 1355.5 2572.93 1353.32 2574.39 1350.65C2576.09 1347.99 2578.99 1345.81 2580.45 1345.81C2582.14 1345.81 2585.3 1343.14 2587.23 1339.75C2589.17 1336.35 2594.75 1329.57 2599.6 1324.48C2604.2 1319.63 2609.78 1313.81 2611.47 1311.87C2613.41 1309.93 2615.11 1306.29 2615.11 1303.87C2615.11 1301.69 2616.56 1298.05 2618.5 1296.11C2620.44 1294.17 2623.11 1292.48 2624.56 1292.48C2626.26 1292.48 2626.5 1290.3 2625.53 1286.9C2624.32 1282.54 2624.56 1281.81 2627.95 1283.27C2630.13 1284.48 2632.07 1284.48 2632.07 1283.27C2632.07 1282.3 2630.86 1280.12 2629.17 1278.18C2626.74 1275.51 2626.74 1274.78 2628.92 1274.06C2630.62 1273.57 2632.07 1271.63 2632.07 1269.93C2632.07 1268.48 2635.71 1263.15 2640.07 1258.06C2644.19 1253.21 2650.49 1245.94 2653.89 1241.57C2657.28 1237.45 2661.89 1231.88 2664.07 1229.21C2666.49 1226.79 2668.91 1225.57 2669.64 1227.03C2670.37 1228.24 2672.55 1229.45 2674.49 1229.45C2676.67 1229.45 2678.12 1227.27 2678.12 1223.39C2678.12 1220 2676.67 1217.33 2674.97 1217.33C2673.52 1217.33 2675.22 1214.18 2679.34 1210.06C2685.15 1204.24 2687.33 1203.52 2689.76 1205.94C2692.18 1208.12 2692.91 1208.12 2692.67 1205.7C2692.67 1204.24 2691.45 1202.3 2690.24 1201.58C2688.79 1200.85 2690.73 1196.24 2694.36 1191.15C2697.76 1186.31 2702.85 1179.76 2705.75 1176.85C2710.6 1172 2711.09 1172 2715.21 1175.64C2719.33 1179.52 2719.57 1179.52 2718.12 1172.49C2716.9 1167.16 2717.63 1164 2721.02 1160.85C2723.45 1158.43 2726.84 1156.49 2728.3 1156.73C2729.99 1156.73 2731.2 1155.28 2730.72 1153.58C2730.23 1152.13 2730.96 1149.46 2732.42 1148.01C2733.87 1146.31 2747.2 1129.58 2761.74 1110.92C2776.77 1091.53 2791.31 1075.29 2794.95 1073.59C2798.58 1071.89 2801.49 1068.98 2801.25 1067.04C2801.01 1065.1 2801.25 1061.47 2801.25 1059.04C2801.49 1056.86 2802.95 1054.92 2804.16 1054.92C2805.37 1054.92 2806.1 1057.11 2805.37 1059.77C2804.64 1062.44 2805.37 1064.62 2806.58 1064.62C2807.79 1064.62 2809.01 1061.95 2809.01 1058.56C2809.01 1053.95 2809.97 1052.98 2812.88 1054.2C2815.79 1055.65 2816.28 1055.17 2815.31 1052.5C2814.34 1050.08 2818.7 1043.53 2828.4 1033.59C2836.39 1025.35 2842.45 1017.35 2841.73 1016.14C2841 1014.93 2842.21 1013.72 2844.15 1013.72C2846.57 1013.72 2847.38 1012.1 2846.57 1008.87C2845.85 1006.2 2846.57 1004.02 2847.78 1004.02C2849 1004.02 2850.21 1002.32 2850.21 1000.38C2850.21 998.444 2851.42 996.747 2852.63 996.747C2853.84 996.747 2855.54 994.808 2856.27 992.384C2857 990.202 2861.12 984.384 2865.24 979.294C2869.6 974.446 2878.57 964.265 2885.35 956.751C2893.84 947.055 2897.96 943.903 2899.17 946.327C2900.38 948.751 2901.59 948.751 2905.23 945.358C2907.65 943.176 2914.44 940.025 2920.5 938.57C2927.28 936.631 2934.07 932.753 2938.19 927.905C2941.83 923.784 2944.25 918.936 2943.52 917.239C2942.8 915.785 2944.01 912.876 2945.95 911.179C2948.13 909.725 2949.82 907.301 2949.58 905.846C2949.58 904.392 2951.76 899.059 2954.67 893.726C2958.06 887.181 2959.03 882.091 2958.06 877.97C2956.61 872.395 2956.61 872.152 2960.25 875.546C2963.88 878.939 2964.37 878.455 2964.12 872.395C2964.12 868.759 2965.34 865.365 2966.55 864.638C2967.76 863.91 2968.49 862.456 2967.76 861.002C2967.03 859.547 2968.97 854.942 2971.88 850.821C2975.03 846.458 2979.88 840.155 2983.03 836.761C2985.94 833.368 2988.6 829.974 2988.36 828.762C2988.36 827.793 2988.85 827.065 2989.57 827.065ZM527.554 1062.2C528.038 1082.8 528.038 1117.71 527.554 1139.76C527.311 1161.82 526.826 1144.85 526.826 1102.19C526.826 1059.53 527.311 1041.59 527.554 1062.2ZM1209.35 1051.05C1255.4 1051.05 1274.3 1051.53 1251.76 1051.77C1228.98 1052.26 1191.41 1052.26 1168.14 1051.77C1144.88 1051.53 1163.3 1051.05 1209.35 1051.05ZM573.12 1269.21C598.326 1269.21 609.233 1269.69 597.357 1269.93C585.238 1270.42 564.637 1270.42 551.306 1269.93C537.976 1269.69 547.671 1269.21 573.12 1269.21ZM851.848 1456.1C930.377 1456.1 963.097 1456.34 924.56 1456.58C885.78 1457.07 821.551 1457.07 781.56 1456.58C741.568 1456.34 773.077 1456.1 851.848 1456.1ZM1364.47 1455.86C1385.07 1455.86 1393.79 1456.34 1383.86 1456.58C1373.92 1457.07 1356.95 1457.07 1346.29 1456.58C1335.62 1456.34 1343.86 1455.86 1364.47 1455.86ZM672.492 1594.03C715.15 1594.03 733.085 1594.51 712.484 1594.75C691.882 1595.24 656.98 1595.24 634.925 1594.75C612.869 1594.51 629.835 1594.03 672.492 1594.03ZM901.534 1594.03C938.133 1594.03 952.917 1594.51 934.255 1594.75C915.592 1595.24 885.538 1595.24 867.602 1594.75C849.667 1594.51 864.936 1594.03 901.534 1594.03ZM1141.48 1594.27C1235.52 1594.27 1274.06 1594.51 1227.53 1594.75C1180.75 1595.24 1103.92 1595.24 1056.65 1594.75C1009.39 1594.51 1047.44 1594.27 1141.48 1594.27ZM1326.9 1594.27L1403.25 1593.54C1445.18 1593.3 1483.23 1593.54 1487.35 1594.27C1491.71 1595 1494.86 1596.69 1494.13 1597.9C1493.41 1599.12 1492.44 1610.99 1491.71 1623.84C1490.98 1636.93 1489.29 1651.72 1488.08 1656.57C1486.62 1661.66 1484.44 1665.78 1483.23 1665.78C1481.77 1665.78 1480.8 1664.32 1480.8 1662.63C1480.8 1660.44 1480.32 1660.44 1478.87 1662.63C1477.9 1664.08 1475.47 1665.29 1473.53 1665.29C1471.59 1665.05 1467.47 1665.29 1464.32 1665.29C1460.69 1665.54 1458.99 1667.23 1458.99 1670.63C1458.99 1673.29 1457.78 1675.47 1456.57 1675.47C1455.11 1675.47 1450.02 1683.96 1445.18 1694.14C1440.09 1704.56 1435.97 1713.53 1435.97 1714.26C1435.72 1714.99 1433.78 1719.83 1431.36 1725.17C1429.18 1730.5 1426.76 1737.29 1426.27 1740.2C1425.54 1743.35 1422.64 1746.5 1419.48 1747.22C1416.58 1748.19 1413.18 1750.13 1412.21 1751.59C1411 1753.04 1410.76 1751.59 1411.73 1748.19C1412.46 1744.8 1413.67 1740.44 1414.15 1738.5C1414.64 1736.56 1414.15 1733.17 1412.94 1731.23C1411.49 1728.56 1410.52 1730.01 1409.55 1736.07C1408.58 1741.41 1406.64 1744.56 1404.46 1744.56C1402.52 1744.56 1400.82 1744.07 1400.82 1743.35C1400.82 1742.62 1401.79 1740.92 1403 1739.71C1404.21 1738.5 1408.09 1729.77 1411.73 1720.32C1415.36 1710.86 1420.94 1696.81 1430.15 1674.26L1428.94 1685.17C1427.97 1694.38 1427.97 1695.11 1430.15 1690.02C1431.6 1686.62 1434.27 1680.32 1436.21 1675.96C1438.15 1671.84 1441.54 1667.72 1443.72 1666.75C1446.87 1666.02 1448.08 1663.11 1447.84 1657.78C1447.6 1653.42 1448.57 1647.36 1449.78 1643.96C1450.99 1640.57 1453.42 1637.17 1454.87 1636.2C1457.05 1635.23 1456.57 1633.54 1453.42 1630.87C1451.24 1628.69 1449.3 1626.27 1449.3 1625.05C1449.3 1624.08 1450.27 1622.15 1451.24 1620.93C1452.2 1619.72 1456.57 1617.05 1460.69 1615.36C1465.78 1613.42 1469.17 1613.42 1469.9 1614.87C1470.62 1616.09 1472.08 1617.3 1473.53 1617.3C1474.75 1617.3 1475.47 1615.12 1474.75 1612.45C1474.02 1609.78 1474.02 1607.6 1474.75 1607.6C1475.47 1607.6 1476.93 1610.03 1478.14 1612.93C1480.32 1618.27 1480.56 1618.02 1481.29 1603.96L1483.23 1611.24C1484.92 1617.54 1485.17 1617.05 1484.44 1596.69L1326.9 1594.27ZM2173.99 1593.06L2272.15 1594.27L2224.16 1595C2181.02 1595.48 2176.41 1595.97 2175.44 1599.84C2174.72 1602.75 2174.47 1602.51 2174.23 1598.63L2173.99 1593.06ZM762.897 1616.09C763.14 1627.96 763.14 1646.63 762.897 1657.29C762.413 1667.96 761.928 1658.02 761.928 1635.48C761.928 1612.69 762.413 1603.96 762.897 1616.09ZM2277 1595.48C2277.73 1595.48 2278.21 1711.35 2278.21 1852.91C2278.21 2060.65 2277.73 2110.1 2275.3 2107.68C2273.12 2105.74 2270.45 2105.5 2261.24 2109.37L2261.73 1879.58C2261.97 1753.28 2262.7 1656.08 2265.36 1676.69L2265.85 1658.51C2266.33 1648.57 2267.06 1641.78 2267.55 1643.23C2268.03 1644.93 2270.21 1646.39 2272.15 1646.39C2275.3 1646.39 2275.79 1642.02 2275.79 1620.93C2275.79 1606.87 2276.27 1595.48 2277 1595.48ZM2061.29 1856.31C2065.41 1857.03 2069.77 1858.49 2070.98 1859.46C2072.44 1860.91 2068.32 1862.85 2060.07 1864.79C2049.17 1867.21 2047.71 1868.18 2051.59 1869.88C2055.47 1871.33 2054.74 1871.82 2048.68 1871.09C2044.32 1870.85 2040.68 1871.58 2040.68 1873.03C2040.68 1874.49 2035.11 1874.73 2024.93 1873.52C2016.21 1872.55 2009.66 1872.55 2010.15 1873.52C2010.87 1874.73 1995.12 1876.18 1975.73 1877.15C1956.1 1878.12 1932.59 1878.36 1923.13 1877.64C1910.05 1876.67 1907.14 1876.91 1909.8 1879.09C1912.71 1881.27 1909.08 1881.52 1894.05 1880.3C1883.39 1879.33 1875.63 1879.58 1876.6 1880.79C1877.81 1881.76 1869.09 1883.94 1857.21 1885.64C1845.58 1887.09 1832.73 1887.82 1828.61 1887.33C1822.31 1886.36 1822.07 1886.61 1826.19 1888.79C1830.31 1890.97 1829.82 1890.97 1823.28 1890C1817.46 1889.03 1815.76 1889.51 1817.22 1891.7C1818.43 1893.64 1816.73 1893.88 1810.43 1892.67C1804.78 1891.54 1803.16 1891.7 1805.58 1893.15C1808.49 1895.09 1807.76 1895.82 1801.95 1896.79C1798.07 1897.51 1792.01 1897.51 1788.62 1897.03C1784.01 1895.82 1783.53 1896.3 1786.19 1898C1789.1 1899.94 1787.41 1900.91 1778.92 1902.12C1772.86 1902.85 1762.93 1904.79 1756.62 1906.48C1750.57 1908.18 1746.2 1910.36 1746.93 1911.57C1747.9 1913.03 1746.2 1913.03 1742.57 1912.06C1739.17 1910.85 1737.48 1910.85 1738.45 1912.06C1739.66 1913.27 1730.21 1917.63 1717.84 1922C1705.48 1926.12 1694.58 1929.03 1693.61 1928.54C1692.64 1928.06 1691.67 1928.3 1691.67 1929.27C1691.67 1930.48 1686.82 1932.66 1680.76 1934.12C1674.7 1935.81 1668.64 1938.72 1666.95 1940.42C1665.25 1942.36 1659.43 1945.75 1654.1 1948.18C1648.77 1950.84 1642.47 1952.54 1640.29 1952.3C1637.86 1952.05 1636.41 1952.54 1637.13 1953.51C1637.62 1954.72 1632.04 1956.9 1625.02 1958.36C1617.74 1960.05 1610.47 1962.96 1608.78 1964.42C1607.08 1966.11 1602.48 1969.27 1598.6 1971.2C1594.72 1973.14 1585.75 1980.17 1578.72 1986.96C1571.45 1993.51 1565.63 2000.54 1565.63 2001.99C1565.63 2003.69 1564.91 2005.14 1563.94 2005.14C1562.97 2005.14 1559.82 2011.93 1557.15 2020.17C1554.49 2028.65 1552.55 2040.29 1552.55 2046.35C1552.55 2053.14 1554.49 2060.65 1557.88 2066.23C1560.79 2071.32 1563.7 2074.95 1564.42 2074.23C1565.15 2073.5 1572.66 2080.29 1581.39 2089.25C1594.23 2102.59 1596.66 2106.22 1594.23 2108.89C1592.54 2110.59 1589.87 2112.04 1588.18 2111.8C1586.48 2111.8 1577.75 2107.19 1568.79 2101.37C1559.82 2095.56 1549.4 2087.32 1545.76 2082.71C1542.12 2077.86 1537.52 2069.38 1535.58 2063.32C1533.4 2057.26 1531.7 2048.53 1531.7 2043.93C1531.7 2039.32 1533.64 2029.38 1536.07 2021.87C1538.25 2014.59 1545.03 2002.23 1551.09 1994.48C1557.15 1986.72 1567.57 1976.05 1574.12 1970.72C1580.9 1965.39 1602.72 1953.02 1622.59 1943.33C1647.31 1931.21 1676.64 1919.57 1713.48 1907.21C1743.54 1897.27 1785.47 1885.15 1806.8 1880.55C1828.12 1875.7 1860.84 1870.12 1879.51 1868.18C1898.17 1866.24 1938.65 1863.34 1969.18 1861.88C1999.97 1860.43 2031.47 1858.49 2039.47 1857.28C2047.47 1856.31 2057.41 1855.82 2061.29 1856.31ZM762.897 2019.69C763.14 2033.74 763.14 2057.02 762.897 2071.8C762.413 2086.35 761.928 2074.95 761.928 2046.35C761.928 2017.75 762.413 2005.63 762.897 2019.69ZM1853.57 2020.17C1995.6 2019.68 2025.9 2020.17 2023.23 2022.84C2021.54 2024.53 2015.72 2031.32 2010.39 2037.87C2005.3 2044.65 1996.57 2054.83 1991.48 2060.89C1986.15 2066.95 1978.15 2075.92 1973.79 2080.77C1968.94 2086.35 1964.1 2089.5 1961.91 2088.77C1959.97 2088.04 1958.28 2088.53 1958.28 2089.98C1958.28 2091.19 1959.49 2092.65 1960.94 2092.89C1962.64 2093.38 1962.16 2095.07 1959.73 2097.25C1956.1 2100.41 1955.61 2100.41 1955.85 2096.53C1955.85 2094.34 1954.88 2092.41 1953.43 2092.41C1952.22 2092.41 1950.52 2094.1 1949.8 2096.04C1949.07 2097.98 1947.61 2099.19 1946.16 2098.47C1944.95 2097.74 1943.49 2098.47 1943.25 2099.92C1942.77 2101.62 1929.68 2102.83 1904.96 2103.31C1884.35 2103.8 1870.78 2103.56 1874.66 2102.59C1880.72 2101.13 1878.05 2100.16 1860.12 2097.74C1848.24 2096.04 1837.33 2093.62 1835.88 2092.41C1834.67 2090.95 1830.55 2089.98 1826.91 2089.98C1822.55 2089.98 1819.64 2088.53 1818.91 2085.62C1818.19 2083.44 1817.22 2082.22 1816.49 2083.19C1815.76 2084.41 1810.67 2082.71 1805.1 2079.8C1799.28 2076.89 1793.46 2072.77 1791.77 2070.59C1789.83 2068.17 1788.78 2067.92 1788.62 2069.86C1788.62 2071.96 1787.16 2071.56 1784.25 2068.65C1781.83 2066.47 1780.13 2063.08 1780.62 2061.38C1781.1 2059.92 1779.65 2058.47 1777.71 2058.47C1775.77 2058.47 1774.08 2057.26 1774.08 2056.05C1774.08 2054.59 1772.38 2053.62 1770.44 2053.62C1768.5 2053.62 1766.8 2051.92 1766.8 2049.99C1766.8 2048.05 1765.83 2046.35 1764.38 2046.35C1763.17 2046.35 1761.96 2048.29 1761.96 2050.47C1762.12 2053.38 1761.31 2054.03 1759.53 2052.41C1758.32 2050.95 1756.87 2047.56 1756.62 2044.41C1756.14 2041.5 1753.96 2038.35 1751.78 2037.87C1749.35 2037.14 1747.41 2034.71 1747.66 2032.29C1747.66 2030.11 1746.2 2026.96 1744.51 2025.26C1742.57 2023.32 1730.21 2022.11 1711.06 2021.62C1694.33 2021.14 1758.56 2020.41 1853.57 2020.17Z" fill="#DFDFEE"/>
<path d="M509.133 470.735C509.86 463.462 511.315 461.766 518.586 459.342C523.191 457.645 531.916 456.433 537.976 456.433C544.035 456.19 554.215 457.645 561.001 459.342C567.545 461.038 579.179 465.886 586.45 470.007C593.721 474.128 606.325 484.551 614.323 493.036C622.321 501.52 632.743 514.367 637.348 521.639C641.953 528.911 649.225 544.425 653.587 556.06C657.95 567.938 661.586 578.119 661.586 579.088C661.586 580.3 658.919 582.482 655.526 583.936C650.194 586.603 649.225 586.603 647.286 582.724C646.074 580.543 642.196 571.089 638.318 561.635C634.682 552.182 627.896 538.122 623.048 530.123C618.443 522.124 610.203 510.731 604.628 504.913C599.296 499.096 588.389 489.884 580.391 484.794C572.15 479.703 560.031 474.371 552.518 472.674C543.065 470.735 536.037 470.492 528.281 472.431C522.221 473.643 515.435 475.825 512.769 477.037C508.891 478.976 508.406 478.249 509.133 470.735Z" fill="#2929CF"/>
<path d="M1744.99 486.733C1762.93 481.885 1789.83 475.825 1804.37 473.159C1823.28 469.765 1837.09 468.795 1851.63 469.523C1863.03 470.25 1878.78 472.431 1886.78 474.613C1894.78 476.552 1906.17 481.158 1912.23 484.794C1918.29 488.187 1930.65 498.853 1939.86 508.064C1948.83 517.518 1961.91 533.517 1968.7 543.455C1975.49 553.394 1983.97 569.15 1987.85 578.604C1991.73 588.057 1995.85 602.117 1997.54 610.116C1999 618.115 1999.48 630.72 1998.75 637.992C1998.03 645.264 1995.6 655.93 1989.79 671.929L1999 676.534C2003.84 678.958 2010.15 683.564 2012.81 686.473C2016.69 690.594 2017.66 695.199 2017.42 706.834C2017.42 718.47 2015.72 724.772 2009.42 737.377C2005.06 746.104 1996.82 759.678 1991.24 767.677C1985.42 775.677 1976.7 785.858 1971.37 790.221C1966.28 794.342 1958.28 798.463 1946.16 800.402V816.643C1946.16 825.854 1947.37 851.306 1949.07 873.607C1951.98 910.21 1952.7 914.331 1957.07 916.27C1959.73 917.482 1978.88 923.785 1999.48 930.087C2020.08 936.39 2047.47 946.086 2060.07 951.661C2072.68 957.236 2093.52 968.387 2106.13 976.144C2121.15 985.355 2136.91 997.96 2151.21 1012.26C2163.08 1024.38 2177.38 1040.86 2182.96 1048.86C2188.29 1056.86 2198.23 1073.1 2205.01 1085.22C2211.56 1097.34 2223.68 1124.01 2231.67 1144.61C2239.67 1165.22 2251.06 1199.15 2257.12 1219.76C2262.94 1240.36 2270.45 1267.75 2273.36 1280.36C2277.24 1297.08 2278.45 1308.96 2277.73 1323.26C2277.24 1339.02 2276.03 1344.35 2271.67 1350.41C2266.33 1357.68 2266.09 1358.41 2269.97 1369.32C2272.39 1377.32 2273.12 1384.59 2272.15 1391.86C2271.18 1397.92 2269 1405.68 2267.06 1409.32C2265.12 1413.2 2260.27 1419.98 2249.13 1433.07H2389.7H2389.71C2527.13 1433.07 2530.28 1433.07 2535.12 1437.92C2537.79 1440.59 2539.97 1446.16 2539.97 1450.53C2540.21 1454.89 2538.76 1459.98 2537.06 1461.68C2534.64 1464.1 2448.6 1464.34 2108.55 1463.37C1874.66 1462.89 1623.8 1461.19 1551.09 1459.74C1478.38 1458.28 1253.22 1456.59 1050.59 1456.1C847.97 1455.62 669.341 1455.13 653.83 1454.89C626.684 1454.89 624.987 1454.65 622.564 1449.31C620.625 1445.19 620.625 1442.77 623.048 1438.4C626.442 1433.07 627.411 1432.83 696.73 1433.31L708.363 1420.95C719.028 1409.56 719.755 1407.86 719.755 1395.98C719.755 1389.2 716.846 1366.41 713.453 1345.81C710.06 1325.2 707.152 1299.02 706.909 1287.63C706.424 1269.94 706.909 1267.03 710.787 1266.54C713.453 1266.06 716.119 1268.72 718.785 1274.78C720.967 1279.87 725.33 1296.6 728.238 1311.87C731.389 1327.14 736.236 1352.59 738.902 1368.11C741.811 1383.86 743.992 1400.59 743.992 1405.2C743.992 1409.8 741.811 1417.07 739.145 1420.95C736.479 1424.83 735.024 1428.95 735.752 1429.92C736.479 1431.13 809.918 1431.86 899.111 1431.86C988.304 1431.86 1061.74 1431.13 1062.47 1429.92C1063.2 1428.95 1060.77 1424.1 1056.65 1419.01C1050.84 1411.98 1047.93 1403.26 1042.11 1377.32C1037.99 1359.38 1029.02 1317.93 1022.48 1285.21C1015.69 1252.48 1007.21 1210.06 1003.33 1190.67C999.453 1171.28 994.605 1148.49 992.666 1139.77C990.485 1131.04 988.788 1117.22 988.788 1108.74C988.788 1099.77 990.243 1090.56 992.666 1085.71C994.848 1081.59 999.938 1074.32 1004.3 1069.95C1008.42 1065.35 1016.18 1059.53 1021.51 1056.86C1030.94 1052.03 1035.31 1052.02 1238.33 1051.53L1239.64 1051.53C1395.25 1051.29 1450.51 1052.02 1457.78 1054.2C1463.11 1055.89 1472.81 1061.71 1479.35 1067.53C1485.89 1073.35 1492.44 1081.35 1497.04 1092.5L1502.38 1075.53C1505.53 1066.07 1510.86 1052.02 1514.49 1044.02C1518.13 1036.02 1526.13 1021.96 1532.19 1012.5C1538.25 1003.05 1547.94 990.203 1553.76 983.658C1559.58 977.113 1572.66 964.508 1582.6 956.024C1594.48 945.843 1609.02 936.632 1625.02 928.875C1638.35 922.573 1654.83 915.543 1661.37 913.361C1668.16 911.18 1675.19 908.271 1677.13 907.059C1679.55 905.362 1680.03 904.15 1678.1 902.696C1676.64 901.726 1671.55 894.939 1666.95 887.667C1662.34 880.395 1656.28 868.274 1653.37 861.002C1650.47 853.73 1646.59 841.125 1644.41 833.126C1642.47 825.127 1639.8 811.068 1638.35 801.614C1636.89 792.16 1635.2 767.677 1634.23 747.073C1633.26 723.075 1633.74 700.774 1638.59 661.02L1631.32 653.748C1627.44 649.87 1621.14 640.416 1617.26 633.144C1611.2 621.266 1610.47 617.388 1610.47 596.784C1610.47 578.119 1611.44 571.574 1616.05 562.12C1618.96 555.818 1627.2 544.667 1633.98 537.153C1641.01 529.638 1653.37 519.942 1661.37 515.579C1669.37 510.973 1684.16 504.671 1694.09 501.277C1704.03 498.126 1727.06 491.339 1744.99 486.733Z" fill="#2929CF"/>
<path d="M512.042 579.816C510.103 579.816 508.891 576.422 508.891 571.332C508.891 563.332 509.376 562.847 515.677 564.302C519.313 565.271 524.403 567.938 527.069 570.362C531.916 574.968 531.916 578.361 531.916 723.56C531.916 805.007 530.462 925.966 528.523 991.9C526.099 1077.71 525.615 1131.52 529.493 1250.06L567.06 1251.27L568.272 1231.15C568.757 1220.24 569.969 1199.15 570.696 1184.61C571.665 1170.07 574.331 1142.67 576.998 1124.01C579.421 1105.34 586.208 1070.92 591.54 1047.65C597.114 1024.38 607.294 988.264 614.323 967.659C621.352 947.055 627.653 926.693 628.623 922.815C629.592 918.937 633.713 908.756 637.591 900.272C641.711 891.788 646.074 885.243 648.255 885.243C650.194 885.243 652.375 883.303 653.103 880.879C653.587 878.698 663.525 861.002 675.158 841.61C686.792 822.218 701.335 799.675 707.394 791.675C713.453 783.434 726.299 767.677 735.509 756.769C744.962 745.861 760.231 730.105 769.441 721.863C778.894 713.379 794.163 701.502 803.373 695.199C812.826 689.139 828.58 680.897 838.517 677.261C854.514 671.444 860.331 670.716 884.811 670.716C911.956 670.716 913.168 670.959 930.861 679.443C943.465 685.745 952.433 692.29 960.431 701.259C968.187 709.986 973.277 718.47 975.7 726.469C977.639 733.014 979.094 740.528 979.094 742.71C979.094 745.134 976.427 748.043 973.034 749.497C969.641 750.709 966.005 751.921 964.551 751.921C963.339 751.921 962.127 747.558 962.127 742.225C962.127 736.892 960.188 728.408 957.522 723.318C955.099 718.47 948.797 710.713 943.707 706.107C938.375 701.502 929.407 695.442 923.348 692.775C914.38 688.654 907.594 687.685 884.568 687.685C857.18 687.685 856.211 687.927 837.306 696.896C826.641 701.986 811.857 710.713 804.585 716.288C797.314 721.863 780.833 736.65 768.229 749.497C755.626 762.102 736.479 784.403 725.572 799.19C714.665 813.734 699.638 836.277 691.882 848.882C684.126 861.487 670.069 887.182 660.616 905.847C650.921 924.512 638.56 953.358 632.986 970.083C627.653 986.809 618.443 1017.84 613.111 1039.17C607.536 1060.5 600.992 1093.22 598.326 1111.89C595.66 1130.55 591.54 1168.37 588.874 1196C586.208 1223.88 584.026 1247.63 584.026 1248.85C584.026 1250.06 588.631 1251.03 604.628 1250.06L605.355 1236.73C605.598 1229.45 607.536 1209.09 609.718 1191.88C611.899 1174.43 618.928 1139.77 625.472 1114.31C631.774 1088.86 641.469 1055.17 646.801 1039.17C651.891 1023.17 659.647 1001.35 664.009 990.688C668.13 980.022 677.097 958.691 683.884 943.419C690.428 928.148 700.365 908.028 705.697 898.575C711.272 889.121 722.421 871.668 730.904 859.79C739.145 847.67 750.294 833.369 755.384 827.793C760.474 822.218 771.623 811.552 780.348 804.038C789.073 796.523 801.919 787.07 808.948 783.191C815.977 779.07 823.733 776.646 826.399 777.374C829.55 778.101 831.246 780.525 831.246 783.918C831.246 787.312 828.095 791.918 823.248 795.554C819.128 798.947 810.645 805.007 804.585 808.886C798.768 813.007 786.407 823.188 777.197 831.914C767.987 840.641 755.384 854.7 748.84 863.426C742.538 872.153 731.874 888.879 725.087 900.999C718.301 912.877 708.848 931.542 703.758 942.207C698.911 952.873 691.64 969.114 687.762 978.568C683.884 988.021 676.37 1006.93 671.038 1020.99C665.706 1035.05 656.496 1063.89 650.679 1085.22C644.862 1106.56 637.348 1139.28 633.955 1157.95C630.562 1176.61 626.684 1201.58 625.23 1213.7C623.775 1225.82 622.079 1239.15 620.382 1251.27L689.458 1250.54V1269.45L600.992 1268.72C552.276 1268.24 512.042 1267.27 511.315 1266.78C510.587 1266.06 510.103 1191.64 510.103 1101.47C510.103 1011.29 511.315 856.882 512.526 758.466C514.465 615.934 514.223 579.816 512.042 579.816Z" fill="#2929CF"/>
<path d="M516.647 1322.78C511.072 1319.14 509.133 1316.23 509.133 1311.14C509.376 1304.6 509.86 1304.36 516.889 1305.81C521.252 1306.78 527.554 1309.2 531.432 1310.9C536.279 1313.33 541.611 1321.81 551.548 1341.44C559.062 1356.47 569.484 1378.53 574.816 1390.65C579.906 1402.77 588.631 1419.98 593.964 1429.44C601.72 1442.53 603.174 1446.89 600.75 1448.1C598.811 1449.07 594.691 1450.04 591.298 1450.04C586.692 1450.04 583.542 1447.37 578.209 1438.65C574.331 1432.1 560.759 1404.71 547.67 1377.32C528.765 1337.32 522.706 1326.66 516.647 1322.78Z" fill="#2929CF"/>
<path d="M578.937 1573.91C578.694 1568.82 580.148 1565.67 584.269 1562.76C589.601 1559.36 684.126 1559.12 1558.36 1559.12C2417.33 1559.12 2527.37 1559.61 2531.97 1562.76C2535.85 1565.42 2537.55 1568.82 2537.55 1574.39C2537.31 1579.48 2535.37 1584.09 2525.43 1593.06H2335.17V1853.4V1853.42C2335.17 2110.34 2335.17 2113.74 2330.32 2118.83C2327.65 2121.74 2321.59 2124.65 2316.99 2125.37C2312.38 2126.1 2303.66 2125.37 2298.08 2123.43C2292.27 2121.74 2285.48 2118.1 2282.82 2115.43C2278.45 2110.83 2278.21 2101.38 2277 1594.27L2225.37 1593.54C2197.26 1593.3 2173.99 1593.78 2173.99 1594.75C2173.99 1595.97 2175.44 1605.42 2177.38 1616.09C2179.32 1626.75 2183.2 1656.81 2185.87 1682.75C2188.77 1708.68 2193.14 1747.95 2195.8 1770.01C2198.47 1792.07 2202.1 1829.16 2204.29 1852.43C2206.23 1875.7 2213.5 1937.27 2220.28 1989.39C2226.83 2041.5 2232.89 2089.26 2233.86 2096.04C2235.07 2106.22 2234.58 2108.65 2230.71 2111.31C2228.04 2113.01 2223.43 2114.22 2220.04 2114.47C2216.65 2114.47 2212.28 2112.53 2210.35 2110.34C2207.92 2107.6 2205.34 2093.62 2202.59 2068.41C2200.41 2047.56 2195.32 2003.93 2191.2 1971.21C2187.32 1938.48 2182.23 1892.67 2180.05 1869.4C2177.87 1846.13 2173.02 1800.8 2169.14 1768.8C2165.26 1736.8 2159.93 1687.59 2157.02 1659.72C2154.12 1631.84 2151.45 1606.39 2150.72 1603.24C2150.24 1600.33 2148.3 1597.91 2146.6 1597.91C2144.42 1597.91 2144.18 1602.03 2145.39 1615.36C2146.36 1625.05 2148.54 1668.44 2149.99 1711.83C2151.45 1755.22 2152.66 1799.34 2152.66 1810.01C2152.42 1821.89 2150 1839.82 2146.36 1856.55C2142.97 1871.58 2136.66 1890.73 2132.54 1899.21C2128.18 1907.45 2122.36 1918.12 2114.12 1931.21L2121.64 1939.94C2125.76 1944.78 2132.3 1954.48 2136.18 1961.75C2140.06 1969.02 2143.21 1978.72 2143.21 1983.33C2143.45 1987.93 2141.27 1995.45 2138.6 2000.05C2135.94 2004.9 2129.39 2010.72 2112.18 2019.93L1663.8 2018.47L1649.25 2011.2L1647.09 2010.15C1640.02 2006.73 1634.16 2003.89 1633.5 2003.44C1632.77 2002.96 1631.56 2017.75 1630.35 2035.93C1629.38 2054.35 1627.68 2078.59 1626.71 2089.74C1625.74 2101.13 1624.05 2111.8 1622.59 2113.74C1620.9 2116.4 1617.75 2116.89 1600.78 2113.74L1602.48 2062.59C1603.45 2034.23 1603.45 2010.47 1602.48 2009.5C1601.51 2008.54 1595.93 2014.6 1589.87 2022.84C1583.81 2031.08 1577.03 2040.77 1574.6 2044.65C1572.42 2048.29 1569.03 2057.02 1564.18 2076.65L1558.36 2066.95C1554.49 2060.65 1552.55 2053.38 1552.55 2046.35C1552.3 2040.29 1554.49 2028.65 1557.15 2020.17C1559.82 2011.93 1562.73 2005.14 1563.7 2005.14C1564.91 2005.14 1565.64 2003.69 1565.64 2002.23C1565.64 2000.54 1571.45 1993.75 1578.48 1986.96C1585.75 1980.42 1594.72 1973.14 1598.6 1971.21C1602.48 1969.27 1607.08 1966.11 1608.53 1964.66C1610.23 1962.96 1617.5 1960.05 1624.77 1958.6C1632.05 1956.9 1637.62 1954.72 1636.89 1953.75C1636.41 1952.54 1637.86 1952.06 1640.04 1952.3C1642.47 1952.54 1648.77 1950.84 1654.1 1948.18C1659.43 1945.75 1665.25 1942.36 1666.7 1940.42C1668.4 1938.72 1674.7 1935.81 1680.76 1934.36C1686.82 1932.66 1691.67 1930.48 1691.67 1929.51C1691.67 1928.3 1692.4 1928.06 1693.37 1928.54C1694.58 1929.03 1705.48 1926.12 1717.84 1922C1730.21 1917.63 1739.42 1913.27 1738.45 1912.06C1737.23 1910.85 1739.17 1910.85 1742.57 1912.06C1746.2 1913.27 1747.9 1913.03 1746.93 1911.57C1745.96 1910.36 1750.32 1908.18 1756.62 1906.48C1762.93 1904.79 1772.86 1902.85 1778.92 1902.12C1787.16 1900.91 1788.86 1899.94 1786.19 1898C1783.53 1896.3 1784.01 1896.06 1788.62 1897.03C1792.01 1897.76 1798.07 1897.52 1801.95 1896.79C1807.77 1895.82 1808.49 1895.09 1805.58 1893.15C1803.16 1891.7 1804.78 1891.54 1810.43 1892.67C1816.73 1894.12 1818.43 1893.64 1816.98 1891.7C1815.76 1889.52 1817.46 1889.03 1823.03 1890C1829.58 1890.97 1830.31 1890.97 1826.19 1888.79C1822.07 1886.61 1822.31 1886.36 1828.61 1887.33C1832.49 1887.82 1845.58 1887.09 1857.21 1885.64C1869.09 1883.94 1877.81 1881.76 1876.6 1880.79C1875.63 1879.58 1883.39 1879.58 1894.05 1880.3C1909.08 1881.52 1912.71 1881.27 1909.8 1879.09C1906.9 1876.91 1910.05 1876.67 1923.13 1877.64C1932.59 1878.37 1956.1 1878.12 1975.73 1877.15C1995.12 1876.18 2010.63 1874.73 2010.15 1873.76C2009.66 1872.55 2016.21 1872.55 2024.93 1873.76C2035.11 1874.73 2040.69 1874.49 2040.69 1873.03C2040.69 1871.82 2045.29 1870.37 2051.11 1870.37C2056.68 1870.12 2067.35 1867.94 2074.62 1865.28C2081.89 1862.85 2090.37 1858.97 2093.28 1857.03C2098.37 1853.88 2097.64 1853.16 2075.1 1844.19C2062.26 1838.85 2034.63 1826.98 2014.02 1817.76C1993.42 1808.55 1961.19 1793.28 1942.52 1783.83C1923.86 1774.62 1893.32 1760.07 1874.66 1751.83C1856 1743.59 1829.82 1732.68 1816.49 1727.59C1803.16 1722.74 1779.17 1715.47 1763.17 1711.59C1747.17 1707.96 1722.69 1703.59 1708.63 1702.14C1694.58 1700.93 1674.46 1699.71 1663.8 1699.71C1649.5 1699.71 1639.8 1701.17 1627.44 1705.53C1617.99 1708.68 1597.87 1716.2 1582.6 1722.26C1567.33 1728.32 1542.85 1738.26 1528.07 1744.56C1513.28 1750.62 1486.14 1764.19 1467.47 1774.37C1448.81 1784.56 1426.03 1797.65 1416.58 1803.71C1407.12 1809.52 1391.37 1820.67 1381.43 1828.19C1371.49 1835.94 1355.74 1849.03 1346.77 1857.52C1337.56 1866 1323.5 1882.73 1315.26 1894.85C1307.27 1906.97 1298.06 1922.24 1295.15 1928.78C1292.24 1935.57 1287.88 1947.45 1285.45 1955.45C1282.06 1966.11 1281.09 1977.27 1281.09 1997.87C1281.33 2020.9 1282.54 2029.62 1287.88 2047.56C1291.51 2059.68 1298.3 2076.89 1302.9 2086.35C1307.51 2095.8 1310.9 2105.01 1310.17 2106.95C1309.45 2108.89 1306.3 2112.53 1296.6 2119.07L1289.09 2107.68C1285.21 2101.13 1278.67 2089.5 1274.79 2081.5C1270.91 2073.5 1265.58 2058.71 1262.67 2048.77C1259.28 2037.14 1256.85 2020.66 1256.13 2002.72C1255.16 1981.87 1255.88 1970.72 1258.79 1958.6C1260.97 1949.39 1266.3 1933.15 1270.67 1922.24C1275.03 1911.09 1284.24 1893.88 1291.03 1883.94C1297.81 1874 1309.2 1859.94 1316.23 1852.67C1323.5 1845.64 1336.84 1833.52 1346.29 1826.01C1355.74 1818.25 1374.16 1804.43 1387.49 1794.98C1400.82 1785.53 1420.45 1772.68 1431.12 1766.38C1441.78 1760.07 1456.81 1751.83 1464.57 1747.95C1478.38 1740.92 1478.38 1740.92 1476.93 1731.95C1475.96 1725.89 1476.93 1718.14 1479.59 1709.41C1482.02 1702.14 1493.65 1672.08 1505.53 1642.75C1521.77 1602.51 1526.13 1589.91 1522.73 1591.36C1520.31 1592.33 1361.8 1593.3 822.763 1593.06L823.49 1848.79C823.975 2071.56 823.49 2105.5 820.34 2113.01C817.673 2119.56 814.523 2122.22 807.736 2124.16C802.404 2125.86 794.406 2126.1 788.831 2125.13C782.772 2124.16 776.228 2120.53 764.109 2108.16L762.17 1994.23C761.201 1931.45 760.958 1816.55 763.14 1596.69L751.748 1594.75C745.446 1593.78 706.909 1593.06 591.298 1593.06L585.238 1587C581.845 1583.6 578.937 1577.79 578.937 1573.91Z" fill="#2929CF"/>
<path d="M1738.93 513.159C1757.59 508.311 1788.13 501.766 1806.8 498.615C1825.46 495.464 1845.09 492.798 1850.66 492.798C1857.94 492.555 1860.6 493.525 1860.84 496.191C1861.09 498.373 1860.12 499.585 1858.42 498.858C1856.72 498.373 1847.51 502.979 1838.06 509.039C1828.37 515.341 1811.16 529.158 1799.28 539.824C1787.65 550.489 1767.05 572.79 1753.72 589.274C1740.14 605.757 1725.12 624.665 1720.03 630.967C1715.18 637.512 1711.06 645.511 1711.06 648.905C1711.06 654.238 1712.03 654.965 1720.75 654.965C1726.09 654.965 1730.45 655.934 1730.45 657.389C1730.45 658.843 1735.3 660.782 1741.35 662.237C1747.41 663.691 1759.05 664.661 1767.29 664.661C1775.77 664.661 1795.16 661.752 1810.43 658.358C1833.94 653.268 1840 652.541 1848.48 654.722C1858.18 657.146 1858.66 657.631 1856.24 662.722C1854.06 667.085 1854.3 671.933 1857.69 685.265C1861.57 700.294 1862.06 708.778 1860.6 757.986C1859.63 788.529 1857.45 826.343 1855.27 841.615C1853.33 856.886 1850.42 874.824 1848.97 881.611C1847.27 888.156 1843.88 898.337 1840.97 903.912C1838.3 909.245 1830.79 919.183 1824.73 925.728C1818.67 932.031 1810.43 939.545 1806.55 942.454C1802.68 945.12 1795.65 948.999 1791.04 950.696C1786.19 952.393 1778.92 953.12 1774.08 952.15C1769.47 951.423 1758.56 946.575 1750.08 941.727C1741.6 936.636 1728.02 925.971 1720.03 917.971C1712.03 909.972 1701.12 896.882 1695.55 888.883C1690.21 880.884 1682.94 867.794 1679.07 859.795C1675.43 851.796 1670.1 836.524 1667.67 825.859C1665.01 815.193 1661.61 795.801 1660.16 782.711C1658.95 769.864 1657.74 744.654 1657.74 727.201C1657.74 709.505 1658.95 685.023 1662.34 651.329L1653.37 643.814C1647.8 639.209 1642.47 631.209 1639.07 622.725C1635.92 614.726 1633.5 603.576 1633.5 596.788C1633.5 590.001 1635.2 580.547 1637.13 575.457C1639.32 570.609 1643.92 562.367 1647.56 557.277C1651.19 551.944 1658.95 544.672 1665.01 541.036C1671.07 537.157 1682.46 531.34 1690.46 527.946C1698.46 524.795 1720.27 518.007 1738.93 513.159Z" fill="white"/>
<path d="M1951.49 697.385C1955.37 697.385 1958.28 696.658 1958.04 695.688C1958.04 694.719 1961.43 695.204 1965.55 696.9C1972.58 699.567 1973.31 700.536 1971.85 707.081C1971.12 711.202 1965.79 718.717 1959.49 724.777C1953.43 730.352 1947.37 734.958 1946.16 734.958C1944.71 734.958 1943.98 727.443 1944.22 716.293C1944.95 697.385 1944.95 697.385 1951.49 697.385Z" fill="white"/>
<path d="M1884.35 941.969C1888.48 936.879 1893.32 929.122 1895.26 925.244L1898.9 917.971L1899.62 930.092C1900.11 937.606 1897.44 955.301 1892.6 976.148C1888.48 994.813 1882.66 1014.93 1879.75 1020.99C1876.84 1027.05 1871.75 1036.26 1868.12 1041.6C1864.72 1046.93 1855.51 1057.35 1847.51 1064.62C1839.76 1071.9 1831.03 1079.41 1828.61 1081.11C1824.25 1083.77 1824.73 1084.02 1832.97 1082.81C1839.52 1081.84 1841.45 1082.32 1840.24 1084.5C1838.79 1086.44 1832.49 1086.68 1818.91 1085.71C1803.64 1084.5 1795.89 1082.56 1782.56 1075.78C1773.11 1071.17 1761.47 1063.17 1756.62 1058.08C1751.78 1052.99 1744.99 1043.29 1741.84 1036.75C1738.45 1029.96 1733.36 1015.9 1730.45 1005.24C1727.54 994.571 1724.39 982.208 1722.93 977.845C1721.48 972.997 1719.3 970.088 1716.39 970.088C1714.21 970.088 1709.36 972.754 1706.21 976.148C1702.82 979.542 1698.46 982.208 1696.52 982.208C1694.58 982.451 1688.76 984.875 1683.43 987.783C1677.37 991.177 1671.31 998.207 1665.73 1007.66C1661.13 1015.66 1654.59 1029.72 1651.68 1039.17C1648.53 1048.63 1644.16 1069.72 1642.22 1086.44C1640.04 1103.17 1637.38 1128.86 1636.41 1143.41C1635.2 1157.95 1633.74 1193.1 1633.26 1220.97C1632.77 1248.85 1632.53 1284 1632.53 1298.54C1632.77 1325.21 1632.77 1325.21 1618.96 1336.12V1330.06C1618.96 1326.66 1617.26 1316.72 1615.08 1307.51C1613.14 1298.54 1610.23 1283.03 1609.02 1273.09C1607.81 1263.15 1604.9 1235.28 1602.72 1211.28C1600.54 1187.28 1598.6 1154.8 1598.36 1139.28C1598.36 1123.77 1597.87 1110.44 1597.14 1109.47C1596.42 1108.74 1593.51 1108.5 1590.6 1109.23C1586.88 1110.2 1585.02 1112.46 1585.02 1116.01C1585.02 1119.17 1581.39 1124.74 1576.54 1128.86C1569.51 1135.16 1568.3 1137.59 1568.3 1147.04C1568.3 1153.1 1569.27 1163.77 1570 1170.8C1571.45 1180.74 1570.97 1184.37 1567.82 1187.77C1565.63 1189.95 1561.51 1198.43 1558.85 1206.43C1556.18 1214.43 1551.82 1229.22 1549.15 1239.15C1546.25 1249.09 1542.85 1261.94 1541.64 1267.52C1540.19 1273.33 1538 1277.94 1536.55 1277.94C1535.1 1277.94 1533.64 1271.64 1532.91 1264.12C1532.19 1256.37 1526.61 1224.85 1509.65 1138.56L1519.58 1104.62C1525.64 1084.26 1534.37 1061.47 1541.64 1047.66C1548.18 1035.05 1557.88 1019.05 1563.21 1012.51C1568.3 1005.72 1575.57 996.752 1579.45 992.147C1583.09 987.541 1592.3 979.542 1599.57 973.966C1606.84 968.634 1620.41 960.149 1629.86 955.301C1639.32 950.211 1657.01 942.212 1691.67 928.88L1703.06 939.303C1709.6 945.121 1721.72 954.574 1730.45 960.149C1739.17 965.725 1752.26 972.512 1759.53 975.421C1769.95 979.542 1777.95 980.754 1797.1 980.754C1816.73 980.754 1824 979.542 1835.88 974.936C1843.88 972.027 1856.48 965.24 1863.75 960.392C1871.02 955.544 1880.48 947.302 1884.35 941.969Z" fill="white"/>
<path d="M1013.75 1100.26C1016.42 1092.5 1020.3 1087.41 1025.63 1084.02C1033.38 1079.17 1037.02 1079.17 1458.51 1080.38L1464.81 1086.44C1468.2 1089.83 1472.81 1097.35 1474.75 1103.41C1476.68 1109.47 1484.2 1145.83 1491.71 1184.61C1498.98 1223.4 1509.4 1278.42 1514.98 1307.03C1520.31 1335.63 1525.4 1363.51 1526.13 1368.84C1526.86 1374.17 1526.86 1381.2 1525.89 1384.6C1525.16 1387.99 1521.04 1394.29 1516.43 1398.9C1512.07 1403.26 1503.59 1409.32 1497.53 1412.47C1491.71 1415.38 1481.29 1419.02 1474.5 1420.71C1467.96 1422.41 1459.23 1425.56 1455.11 1427.99C1448.33 1432.11 1437.42 1432.35 1115.79 1431.86L1101.73 1424.59C1093.74 1420.47 1083.07 1412.47 1077.98 1406.41C1070.95 1398.17 1067.8 1392.11 1066.11 1382.17C1064.89 1374.9 1060.53 1353.57 1056.65 1334.9C1052.53 1316.24 1046.23 1284.48 1042.11 1264.61C1038.23 1244.49 1030.48 1207.64 1025.14 1182.19C1020.05 1156.74 1014.24 1130.56 1012.54 1124.01C1010.12 1113.59 1010.12 1110.2 1013.75 1100.26Z" fill="white"/>
<path d="M2054.26 1194.31C2054.98 1187.52 2056.68 1179.77 2058.14 1176.61C2059.35 1173.22 2061.77 1171.28 2064.44 1171.77C2066.62 1172.25 2074.62 1180.74 2082.37 1190.67C2089.89 1200.61 2102.01 1218.55 2109.28 1230.67C2116.31 1242.79 2125.27 1257.82 2129.15 1264.61C2133.03 1271.15 2137.15 1278.67 2138.12 1280.85C2139.57 1284.24 2138.36 1285.45 2133.27 1286.67C2129.64 1287.64 2119.94 1290.3 2111.94 1292.73C2103.94 1295.39 2095.95 1297.33 2093.76 1297.33C2091.58 1297.33 2087.71 1290.3 2083.34 1278.42C2079.46 1268.24 2070.98 1247.64 2064.44 1233.09C2053.77 1208.85 2052.8 1205.22 2054.26 1194.31Z" fill="white"/>
<path d="M1568.06 1330.06C1573.39 1324.72 1579.45 1316.72 1581.63 1312.36C1584.06 1308.24 1586.72 1304.6 1587.93 1304.6C1588.9 1304.6 1591.08 1313.09 1592.54 1323.27C1594.23 1333.69 1596.66 1346.05 1598.36 1350.66C1600.54 1356.23 1600.78 1360.11 1599.08 1361.57C1597.87 1362.78 1595.93 1367.87 1592.54 1380.96L1592.3 1372.48C1592.3 1365.69 1590.36 1362.54 1583.33 1356.72C1578.48 1352.84 1570.72 1347.27 1558.36 1339.75L1568.06 1330.06Z" fill="white"/>
<path d="M2108.31 1319.15C2121.15 1316.48 2134.73 1314.06 2138.6 1313.57C2142.72 1313.09 2149.51 1312.36 2153.87 1312.12C2158.24 1312.12 2167.45 1313.09 2174.47 1314.54C2181.5 1316 2191.44 1319.63 2196.77 1322.78C2202.11 1325.93 2208.65 1330.78 2211.32 1333.69C2215.19 1337.81 2216.4 1343.39 2217.13 1358.9C2217.86 1372.72 2216.89 1382.9 2213.74 1393.08C2211.32 1401.81 2206.95 1410.29 2202.83 1414.17C2199.2 1418.05 2197.26 1420.96 2198.95 1421.2C2200.41 1421.2 2195.08 1423.62 2187.08 1426.53C2173.51 1431.38 2168.42 1431.62 2092.55 1431.86C2027.11 1431.86 2007.72 1431.14 1984.7 1427.5C1969.43 1425.08 1929.68 1417.32 1896.23 1410.05C1863.03 1402.78 1830.31 1395.26 1823.52 1393.32C1816.98 1391.14 1806.07 1389.44 1799.28 1389.44C1792.74 1389.44 1773.11 1390.66 1755.65 1392.11C1738.45 1393.32 1720.75 1395.5 1716.39 1396.96C1710.09 1398.66 1708.39 1398.41 1708.39 1395.5C1708.39 1393.56 1712.51 1389.44 1717.36 1386.29C1722.21 1383.38 1727.78 1378.54 1729.48 1375.38C1732.14 1371.02 1732.14 1369.32 1729.72 1366.42C1728.02 1364.23 1724.15 1362.54 1721.24 1362.78C1718.09 1362.78 1710.33 1367.87 1703.3 1374.17C1696.52 1380.72 1688.28 1390.17 1679.07 1405.2L1665.01 1390.66L1675.91 1380.23C1681.73 1374.66 1686.09 1368.84 1685.37 1367.63C1684.88 1366.42 1681.25 1365.2 1677.61 1365.2C1673.98 1365.2 1665.01 1368.84 1657.49 1373.45C1650.22 1378.05 1639.07 1384.6 1621.14 1394.29L1620.41 1382.66C1619.93 1376.35 1620.17 1370.05 1620.65 1368.84C1621.14 1367.63 1628.41 1360.84 1636.65 1354.05C1644.89 1347.27 1658.71 1337.09 1667.19 1331.51C1680.52 1323.03 1685.12 1321.57 1695.06 1321.57C1701.85 1321.57 1738.93 1324.24 1777.47 1327.63C1829.34 1332.24 1864.24 1333.93 1909.56 1333.93C1943.74 1333.93 1990.03 1332.72 2012.57 1331.27C2035.35 1329.81 2061.04 1327.63 2069.53 1326.42C2078.25 1324.97 2095.7 1321.81 2108.31 1319.15Z" fill="white"/>
<path d="M1852.6 1434.29C1852.12 1432.35 1851.39 1428.96 1851.39 1427.02C1851.39 1425.08 1852.85 1423.38 1854.3 1423.38C1856 1423.38 1862.78 1425.56 1881.69 1432.59L1871.99 1434.29C1866.66 1435.02 1860.6 1436.23 1858.18 1436.95C1855.75 1437.44 1853.33 1436.23 1852.6 1434.29Z" fill="white"/>
<path d="M1512.31 1696.08C1518.86 1677.42 1530.49 1649.3 1538.25 1633.54C1545.76 1618.03 1552.55 1606.15 1553.27 1607.61C1554 1609.06 1568.54 1610.76 1585.99 1611.48C1603.45 1612.21 1620.17 1613.18 1623.08 1613.91C1627.44 1614.64 1628.41 1616.58 1628.65 1622.64C1628.65 1627 1630.11 1635.97 1631.8 1642.75C1633.5 1649.3 1637.38 1659.24 1645.13 1674.27L1633.74 1677.42C1627.44 1679.11 1607.81 1686.14 1589.63 1692.93C1571.69 1699.72 1544.31 1710.87 1528.55 1718.14C1512.8 1725.41 1499.95 1730.99 1499.95 1730.5C1499.95 1730.26 1505.53 1714.75 1512.31 1696.08Z" fill="white"/>
<path d="M2267.06 53.3129C2265.12 49.4344 2263.67 46.0408 2263.67 45.3136C2263.67 44.5864 2264.39 44.1016 2265.36 44.1016C2266.33 44.1016 2268.76 47.7376 2270.94 51.8584C2273.12 56.2217 2278.45 68.5842 2282.57 79.2499C2286.69 89.9156 2292.99 109.55 2296.15 122.882C2299.54 136.214 2304.39 160.212 2307.29 176.211C2309.96 192.209 2312.87 218.874 2313.6 235.599C2314.81 259.355 2314.32 267.112 2311.66 271.96C2308.26 277.777 2308.26 277.777 2305.36 263.476C2303.9 255.476 2300.75 233.175 2298.81 213.783C2296.63 194.391 2293.24 168.696 2291.54 156.819C2289.6 144.941 2286.45 126.761 2284.51 116.822C2282.57 106.884 2278.45 89.9156 2275.54 79.2499C2272.64 68.5842 2268.76 56.9489 2267.06 53.3129Z" fill="#DFDFEE"/>
<path d="M2079.71 136.942C2082.13 119.246 2086.01 97.6725 2088.19 88.946C2090.37 80.2195 2093.04 73.1898 2094.25 73.1898C2095.46 73.1898 2096.43 77.5531 2096.43 82.8859C2096.43 88.2188 2095.7 92.0972 2094.73 91.6124C2093.52 91.1276 2092.55 96.7029 2092.55 104.217C2092.31 111.974 2090.86 133.306 2089.4 151.971C2087.95 170.636 2086.49 195.118 2086.49 206.511C2086.01 223.237 2085.77 225.176 2084.31 217.419C2083.34 212.086 2082.86 223.722 2083.1 244.084C2083.58 263.961 2083.34 276.565 2082.62 271.96C2082.13 267.354 2080.19 262.749 2078.74 261.779C2076.56 260.324 2076.56 259.84 2078.98 259.84C2080.43 259.84 2081.89 257.9 2081.89 255.476C2081.89 252.083 2081.4 251.84 2079.46 254.992C2078.25 256.931 2077.04 257.658 2077.04 256.204C2077.04 254.749 2075.83 255.476 2074.62 257.416C2072.92 259.84 2072.44 246.508 2073.65 214.995C2074.37 189.785 2077.28 154.395 2079.71 136.942Z" fill="#DFDFEE"/>
<path d="M1425.06 111.974C1423.85 107.369 1422.64 102.763 1422.64 101.551C1422.64 100.581 1423.85 99.8541 1425.06 99.8541C1426.51 99.8541 1427.97 102.036 1428.69 104.702C1429.42 107.369 1431.12 109.55 1432.33 109.55C1433.78 109.55 1435.72 113.671 1437.18 118.519C1438.39 123.61 1440.57 133.063 1441.78 139.851C1442.99 146.395 1445.9 165.545 1448.08 182.271C1450.02 198.997 1452.2 215.722 1452.93 219.843C1453.42 223.964 1454.63 237.539 1455.6 250.144C1457.05 267.597 1456.81 272.687 1454.63 271.233C1452.69 270.021 1451.48 271.717 1450.51 282.868L1355.01 283.595C1302.66 283.838 1260.25 283.595 1260.97 282.868C1261.46 282.141 1304.11 281.656 1449.3 281.656V269.536C1449.3 262.749 1447.6 245.053 1445.66 230.024C1443.48 215.238 1438.63 184.21 1434.75 161.667C1430.88 139.123 1426.51 116.58 1425.06 111.974Z" fill="#DFDFEE"/>
<path d="M1235.28 237.781C1235.77 214.51 1236.49 193.179 1237.22 190.028V190.27C1237.95 187.119 1238.92 184.695 1239.64 184.695C1240.13 184.695 1240.37 206.511 1240.13 233.175C1239.89 264.203 1238.67 281.413 1237.22 280.686C1235.77 280.201 1235.04 264.203 1235.28 237.781Z" fill="#DFDFEE"/>
<path d="M2204.29 282.868C2144.66 282.868 2115.09 282.141 2135.21 281.413C2154.6 280.686 2183.93 279.959 2200.65 279.717C2217.37 279.717 2248.4 280.444 2269.73 281.413C2296.87 282.383 2277 282.868 2204.29 282.868Z" fill="#DFDFEE"/>
<path d="M2147.81 385.162C2146.84 384.192 2149.99 374.496 2154.6 363.83C2159.21 352.922 2163.08 344.681 2163.33 345.408C2163.81 346.135 2162.84 352.437 2161.39 359.467C2160.17 366.497 2158.48 374.254 2157.99 376.435C2157.51 378.859 2155.81 380.314 2154.6 379.586C2153.39 378.859 2151.69 380.314 2150.96 382.495C2150.24 384.919 2148.78 386.131 2147.81 385.162Z" fill="#DFDFEE"/>
<path d="M1861.33 498.364C1861.09 496.909 1860.84 495.212 1861.09 494C1861.33 493.031 1864.48 492.788 1868.12 493.758C1871.75 494.728 1877.08 496.909 1880.23 498.606C1883.14 500.545 1886.29 504.909 1887.02 508.545C1887.99 512.423 1887.99 520.18 1887.02 526.24C1886.05 532.3 1882.9 543.208 1879.99 550.48C1876.84 557.752 1870.3 570.357 1864.96 578.356C1859.63 586.356 1849.45 598.476 1842.67 605.505C1835.64 612.535 1824 621.262 1817.22 624.655C1810.19 628.291 1797.83 633.382 1789.83 635.806C1781.83 638.472 1766.56 641.381 1756.14 642.351C1739.42 643.563 1736.75 644.532 1734.33 649.38C1732.14 653.744 1729.72 654.956 1721.48 654.713C1712.03 654.713 1711.06 654.228 1711.06 648.653C1711.06 645.259 1715.18 637.26 1720.27 630.715C1725.12 624.413 1740.14 605.505 1753.72 589.022C1767.05 572.539 1787.65 550.238 1799.28 539.572C1811.16 528.906 1828.37 515.089 1838.06 508.787C1848.24 502.242 1856.72 498.121 1858.66 499.091C1860.36 500.06 1861.57 499.818 1861.33 498.364Z" fill="#DFDFEE"/>
<path d="M1856 663.197C1857.94 659.561 1857.45 657.622 1854.54 655.198C1850.91 652.532 1851.63 652.289 1858.91 653.501C1863.51 654.228 1869.33 656.895 1871.75 659.076C1874.17 661.258 1875.63 664.167 1874.9 665.621C1874.17 667.076 1875.63 672.166 1877.81 677.014C1879.99 682.105 1882.42 685.741 1883.14 685.256C1883.87 684.529 1884.35 712.163 1884.6 746.341C1884.84 788.519 1884.11 801.609 1883.14 786.822C1881.69 769.854 1881.45 773.733 1881.93 803.791C1882.42 828.758 1881.93 840.393 1880.48 836.515C1878.78 831.909 1878.54 832.879 1879.51 841.363C1879.99 847.423 1879.99 856.634 1879.02 861.967C1878.05 869.239 1877.08 870.694 1875.39 868.027C1873.93 865.603 1873.77 867.219 1874.9 872.875C1876.36 879.905 1876.11 880.875 1873.45 878.935C1870.78 876.996 1870.54 877.723 1871.75 881.844C1872.72 884.995 1872.48 887.419 1871.02 887.419C1869.81 887.419 1869.09 889.601 1869.81 892.268C1870.54 895.176 1869.09 899.055 1866.18 901.964C1863.51 904.63 1861.81 907.781 1862.54 909.236C1863.27 910.69 1862.3 911.66 1860.84 911.66C1859.15 911.66 1858.42 912.387 1859.39 913.357C1860.36 914.569 1859.88 917.477 1858.42 920.144C1856.97 922.81 1852.36 929.113 1848.24 934.203C1844.12 939.294 1840 943.172 1839.03 943.172C1837.82 943.172 1834.67 945.354 1831.76 948.02C1828.04 951.252 1824.57 952.303 1821.34 951.171C1818.43 950.202 1817.22 950.444 1818.19 951.898C1818.91 953.111 1816.25 954.08 1812.13 954.08L1811.73 954.102C1807.49 954.337 1803.12 954.58 1801.95 955.05C1800.74 955.534 1794.68 955.777 1777.71 955.05L1788.62 951.171C1794.68 948.99 1802.68 945.111 1806.55 942.202C1810.43 939.536 1818.67 931.779 1824.73 925.477C1830.79 918.932 1838.3 908.993 1840.97 903.66C1843.88 898.085 1847.27 887.904 1848.97 881.359C1850.42 874.572 1853.33 856.634 1855.27 841.363C1857.45 826.092 1859.63 788.277 1860.6 757.734C1862.06 708.526 1861.57 700.042 1857.69 685.013C1854.54 672.651 1854.06 666.833 1856 663.197Z" fill="#DFDFEE"/>
<path d="M1949.8 693.74C1952.46 693.498 1957.07 692.043 1959.97 690.346C1962.88 688.65 1969.43 687.195 1974.52 686.953C1979.61 686.953 1985.67 687.68 1988.09 688.892C1990.27 690.104 1992.94 693.982 1993.66 697.618C1994.39 701.497 1993.91 709.011 1992.45 714.587C1991 720.404 1988.57 725.01 1987.36 725.01C1986.15 725.01 1985.42 725.979 1986.15 727.434C1986.88 728.888 1986.15 732.282 1984.45 735.191C1983 738.342 1976.94 747.068 1971.12 754.583C1965.55 762.34 1958.04 769.612 1954.64 771.066C1951.25 772.521 1948.58 774.46 1948.58 775.914C1948.58 777.369 1947.37 778.338 1946.16 778.338C1944.71 778.338 1943.74 769.37 1943.74 756.522C1943.74 737.857 1944.22 734.464 1948.1 733.494C1950.28 733.009 1956.34 728.404 1961.19 723.313C1966.28 718.223 1970.88 710.708 1971.85 706.83C1973.31 700.285 1972.58 699.315 1965.79 696.406C1961.67 694.952 1958.04 694.467 1957.79 695.437C1957.31 696.649 1954.4 696.649 1951.01 695.679C1945.92 694.225 1945.92 693.982 1949.8 693.74Z" fill="#DFDFEE"/>
<path d="M1902.05 918.205C1903.02 917.962 1906.41 911.902 1909.56 904.872C1912.71 898.085 1916.11 892.268 1917.07 892.268C1917.8 892.268 1918.53 916.023 1918.29 944.869C1918.04 973.957 1917.56 1000.14 1917.32 1003.05C1917.32 1006.68 1916.11 1007.89 1914.17 1006.68C1911.99 1005.47 1911.99 1006.68 1913.44 1011.04C1915.14 1015.89 1914.89 1016.62 1912.23 1014.68C1909.56 1012.74 1909.32 1013.47 1910.53 1017.59C1911.5 1020.74 1911.26 1023.16 1909.8 1023.16C1908.35 1023.16 1908.11 1025.1 1909.08 1027.29C1910.53 1030.68 1910.29 1031.16 1907.38 1029.22C1904.47 1027.29 1904.23 1027.77 1905.68 1030.92C1906.65 1033.35 1906.41 1035.28 1904.96 1035.28C1903.74 1035.28 1903.02 1036.5 1903.74 1037.71C1904.47 1038.92 1900.35 1046.19 1894.78 1053.71C1888.96 1061.22 1882.66 1068.01 1880.72 1068.74C1878.78 1069.46 1875.63 1071.65 1874.17 1073.34C1872.48 1075.04 1869.81 1076.01 1868.6 1075.28C1867.39 1074.55 1865.69 1075.77 1864.96 1077.71C1864.24 1080.13 1862.06 1080.86 1858.42 1079.64C1854.3 1078.43 1853.33 1078.92 1854.79 1080.86C1855.75 1082.8 1854.54 1084.25 1851.15 1084.98C1848 1085.7 1844.12 1086.19 1842.67 1086.19C1840.97 1086.19 1840 1084.98 1840.73 1083.77C1841.45 1082.31 1838.55 1081.83 1832.97 1082.55C1824.73 1083.77 1824.25 1083.52 1828.61 1080.86C1831.03 1079.16 1839.76 1071.65 1847.51 1064.37C1855.51 1057.1 1864.72 1046.68 1868.12 1041.34C1871.75 1036.01 1876.84 1026.8 1879.75 1020.74C1882.66 1014.68 1888.23 994.804 1892.6 976.381C1896.72 958.201 1900.11 937.597 1900.11 931.052C1900.11 924.265 1900.84 918.689 1902.05 918.205Z" fill="#DFDFEE"/>
<path d="M1665.73 1007.41C1671.31 997.955 1677.37 990.925 1683.67 987.532C1688.76 984.38 1694.82 981.956 1697.24 981.956C1699.67 981.956 1701.85 984.138 1702.33 987.289C1703.06 990.44 1704.27 998.925 1705 1006.2C1705.97 1013.47 1710.09 1028.74 1714.21 1040.13C1720.03 1055.89 1724.63 1063.89 1734.08 1073.83C1742.08 1082.07 1752.02 1089.58 1763.17 1094.92C1772.86 1099.76 1789.1 1104.85 1800.74 1107.04C1812.85 1109.46 1828.37 1110.43 1838.3 1109.94C1850.91 1109.22 1859.63 1106.79 1871.75 1101.22C1882.42 1096.13 1893.08 1088.37 1903.26 1078.19C1911.5 1069.95 1921.68 1056.62 1926.04 1048.62C1930.16 1040.62 1936.22 1025.35 1939.37 1014.92C1942.28 1004.5 1946.16 995.289 1947.37 994.804C1948.58 994.319 1961.19 996.985 1975.24 1001.11C1989.3 1005.23 2005.54 1010.8 2011.6 1013.71C2017.66 1016.62 2029.05 1023.65 2037.05 1029.22C2045.05 1035.04 2057.17 1045.47 2063.95 1052.5C2070.74 1059.77 2081.89 1074.31 2088.92 1084.98C2095.95 1095.64 2107.09 1115.76 2113.88 1129.82C2120.43 1143.88 2132.54 1171.52 2140.54 1191.63C2148.54 1211.51 2159.21 1238.42 2164.29 1251.02C2169.14 1263.63 2173.99 1275.99 2174.96 1278.17C2176.17 1281.81 2174.72 1282.78 2167.45 1283.5C2162.36 1284.23 2152.9 1285.44 2146.12 1286.17C2139.57 1286.9 2135.21 1286.66 2136.91 1285.69C2139.33 1284.23 2139.09 1282.29 2136.66 1277.69C2134.97 1274.29 2128.91 1263.39 2123.09 1253.45C2117.52 1243.51 2109.52 1229.69 2105.4 1223.15C2101.04 1216.36 2091.34 1202.54 2083.83 1192.12C2076.07 1181.94 2068.07 1172.73 2066.13 1171.52C2063.95 1170.55 2061.29 1171.03 2059.83 1172.24C2058.62 1173.45 2056.68 1180 2055.71 1186.54C2054.74 1193.09 2052.8 1198.91 2051.59 1199.39C2050.38 1199.88 2047.23 1195.51 2044.56 1189.94C2042.14 1184.12 2037.29 1171.03 2033.66 1160.61C2028.57 1145.58 2026.38 1141.94 2022.51 1141.94C2019.84 1141.94 2015.24 1143.64 2012.33 1145.58C2008.61 1148 2006.75 1151.64 2006.75 1156.49C2006.75 1160.36 2014.99 1184.12 2024.93 1209.09C2034.87 1234.3 2045.53 1260.72 2048.2 1267.99C2051.11 1275.26 2055.95 1285.93 2064.92 1301.93L2046.26 1303.62C2035.84 1304.84 1981.55 1305.56 1925.56 1305.56C1858.42 1305.56 1810.19 1304.35 1783.77 1302.17C1761.71 1300.23 1728.51 1298.53 1709.85 1298.53C1678.58 1298.29 1675.19 1298.78 1665.01 1304.11C1658.95 1307.26 1649.98 1313.08 1645.13 1316.71C1640.04 1320.59 1635.2 1323.02 1634.23 1322.29C1633.01 1321.56 1632.29 1309.93 1632.29 1296.35C1632.29 1282.78 1632.77 1248.6 1633.26 1220.72C1633.74 1192.85 1635.2 1157.7 1636.41 1143.15C1637.38 1128.61 1640.04 1102.92 1642.22 1086.19C1644.16 1069.46 1648.53 1048.37 1651.68 1038.92C1654.59 1029.47 1661.13 1015.41 1665.73 1007.41Z" fill="#DFDFEE"/>
<path d="M1237.22 1078.19C1199.89 1078.67 1139.3 1078.67 1102.7 1078.19C1066.11 1077.95 1096.64 1077.71 1170.57 1077.71C1244.49 1077.71 1274.55 1077.95 1237.22 1078.19Z" fill="#DFDFEE"/>
<path d="M2213.98 1392.83C2217.37 1381.68 2217.86 1373.19 2216.89 1356.47L2215.44 1334.65L2222.95 1341.92C2227.07 1345.8 2232.89 1354.53 2236.04 1361.32C2239.19 1367.86 2241.85 1377.56 2241.85 1382.41C2241.85 1387.5 2240.64 1391.62 2239.43 1391.62C2238.22 1391.62 2237.73 1393.07 2238.46 1394.53C2239.19 1396.22 2236.76 1401.31 2232.89 1405.92C2229.25 1410.28 2223.19 1415.61 2219.56 1417.31C2215.68 1419.25 2210.35 1419.98 2207.44 1419.01C2203.32 1417.8 2202.35 1418.28 2203.8 1420.22C2204.77 1421.92 2205.01 1423.13 2204.29 1423.13C2203.56 1423.13 2201.62 1422.4 2200.17 1421.67C2197.98 1420.7 2198.95 1418.28 2203.32 1413.92C2206.95 1410.28 2211.56 1400.83 2213.98 1392.83Z" fill="#DFDFEE"/>
<path d="M1553.03 1366.41C1548.91 1345.56 1548.91 1344.11 1552.79 1341.44C1556.18 1339.26 1558.61 1339.5 1565.63 1343.62C1570.24 1346.29 1578.24 1352.1 1583.33 1356.23C1589.14 1361.07 1592.3 1365.68 1592.3 1369.8C1592.3 1373.19 1593.51 1379.5 1594.72 1383.62C1597.14 1391.37 1597.14 1391.62 1589.87 1391.62C1585.99 1391.62 1582.12 1390.4 1581.39 1389.19C1580.9 1387.98 1575.09 1387.01 1557.15 1388.22L1553.03 1366.41Z" fill="#DFDFEE"/>
<path d="M1554.49 1603.72C1554.97 1601.05 1555.94 1597.42 1556.91 1595.96V1595.72C1558.12 1593.54 1567.82 1592.81 1623.8 1592.81L1625.26 1599.36C1626.71 1605.66 1627.44 1606.14 1635.68 1604.69C1640.53 1603.72 1689.73 1603.48 1744.99 1603.96C1800.49 1604.45 1862.54 1605.42 1883.14 1606.14C1903.99 1606.87 1944.95 1608.32 1974.52 1609.29C2023.72 1610.75 2028.81 1611.48 2035.11 1616.08C2038.99 1618.99 2044.08 1624.81 2046.74 1629.41C2050.62 1636.2 2051.83 1644.44 2053.29 1680.08C2054.26 1703.35 2056.2 1739.46 2057.65 1760.07C2059.11 1780.67 2060.8 1800.55 2061.53 1804.19C2062.01 1808.06 2062.01 1810.97 2061.29 1810.97C2060.8 1810.97 2046.26 1804.19 2029.29 1796.19C2012.33 1787.94 1978.64 1771.95 1954.64 1760.8C1930.65 1749.4 1900.11 1735.1 1886.78 1729.28C1873.45 1723.22 1848.97 1713.28 1832.24 1706.74C1815.76 1700.19 1791.77 1692.2 1778.92 1688.8C1766.32 1685.65 1746.69 1681.04 1735.3 1678.86C1724.15 1676.68 1700.15 1674.26 1681.97 1673.77C1664.04 1673.29 1648.28 1672.8 1646.83 1672.8C1645.62 1672.8 1642.47 1668.68 1639.8 1663.83C1637.38 1658.74 1633.98 1649.05 1632.04 1642.5C1630.35 1635.72 1628.65 1626.75 1628.65 1622.38C1628.65 1617.78 1627.44 1614.14 1625.02 1613.41C1623.08 1612.69 1612.9 1612.2 1602.72 1612.2C1592.3 1612.2 1577.03 1611.48 1568.79 1610.51C1555.46 1608.81 1553.76 1608.08 1554.49 1603.72Z" fill="#DFDFEE"/>
<path d="M2086.98 1893.63C2091.58 1892.18 2096.92 1890 2098.61 1888.78C2100.55 1887.81 2102.49 1887.81 2102.97 1889.03C2103.46 1890.24 2102.25 1894.6 2100.07 1898.48C2098.13 1902.36 2095.46 1906.24 2094.01 1906.96C2092.79 1907.69 2088.92 1906.24 2085.77 1903.81C2082.37 1901.63 2079.46 1898.96 2079.22 1898.24C2078.74 1897.27 2082.37 1895.33 2086.98 1893.63Z" fill="#DFDFEE"/>
<path d="M1975.97 1983.56C2058.38 1983.32 2104.19 1982.35 2105.16 1980.9C2105.88 1979.68 2109.03 1978.47 2112.43 1978.47C2115.58 1978.47 2118.49 1979.2 2118.49 1980.17C2118.49 1981.38 2116.79 1983.81 2114.37 1985.74C2110.73 1988.9 2094.25 1989.38 1990.03 1988.41C1923.86 1987.93 1864.96 1986.71 1858.91 1985.74C1853.09 1984.78 1905.68 1983.81 1975.97 1983.56Z" fill="#DFDFEE"/>
<path d="M1327.87 -52.1263C1327.87 -110.303 1328.35 -118.302 1331.75 -121.696C1333.93 -123.877 1336.35 -125.574 1337.32 -125.574C1338.29 -125.574 1340.96 -123.635 1343.38 -121.211C1347.26 -117.575 1347.74 -111.272 1347.5 13.8072L1358.89 16.9584C1367.86 19.3824 1373.92 23.5033 1385.07 35.1386C1393.07 43.3802 1403.25 56.7124 1407.37 64.7117C1411.73 72.7109 1418.03 88.4671 1421.42 99.86C1424.82 111.253 1430.88 139.129 1434.75 161.673C1438.63 184.458 1443.48 215.244 1445.66 230.272C1447.6 245.059 1449.3 262.997 1449.3 281.662L1239.64 280.45L1240.13 234.393C1240.37 209.183 1242.55 170.399 1244.49 148.34C1246.67 126.282 1250.07 100.102 1252 90.1639C1253.94 80.2254 1258.06 66.6509 1261.22 59.8636C1264.61 53.3187 1272.12 43.1378 1278.18 37.5626C1284.24 31.7449 1293.69 24.9577 1299.03 22.2912C1304.36 19.6248 1313.08 16.716 1328.11 13.8072L1327.87 -52.1263Z" fill="#2929CF"/>
<path d="M2188.53 -56.9743C2188.53 -89.4563 2189.26 -117.575 2189.99 -119.514C2190.71 -121.453 2193.62 -123.15 2196.53 -123.15C2199.44 -123.393 2203.56 -121.453 2205.5 -119.272C2208.41 -115.878 2209.13 -104.485 2210.1 4.11105L2216.89 6.29268C2220.53 7.5047 2229.01 11.8679 2235.79 16.2312C2242.34 20.5944 2250.82 27.8665 2254.22 32.2297C2257.61 36.8354 2262.7 44.8347 2265.36 50.1675C2268.27 55.5004 2272.64 68.5901 2275.54 79.2558C2278.45 89.9215 2282.57 106.89 2284.51 116.828C2286.45 126.767 2289.6 144.947 2291.54 156.825C2293.24 168.702 2296.63 195.124 2298.81 215.001C2300.99 235.121 2303.66 255.725 2304.87 261.058C2306.08 266.39 2307.29 272.935 2307.29 275.602C2307.29 280.442 2305.6 280.45 2199.46 280.932L2198.95 280.935C2139.09 280.935 2089.16 280.45 2087.71 279.723C2086.01 278.753 2084.55 264.694 2083.83 242.877C2083.1 223.485 2083.34 212.092 2084.31 217.425C2085.77 225.424 2086.01 223.243 2086.49 206.517C2086.49 195.124 2087.95 170.642 2089.4 151.977C2090.86 133.312 2092.31 111.738 2092.55 104.223C2092.55 96.7088 2093.28 91.1335 2094.01 91.6183C2094.73 92.3455 2097.64 82.6494 2100.79 70.2869C2103.7 57.9244 2108.79 44.1075 2111.7 39.5018C2114.61 34.8962 2122.36 27.1393 2129.15 22.0488C2135.69 17.2008 2146.12 10.6559 2152.18 7.7471C2158.72 4.35345 2167.93 2.17184 2188.53 1.68703V-56.9743Z" fill="#2929CF"/>
<path d="M1270.18 361.655C1276.97 336.687 1281.33 325.294 1284.97 322.143C1288.85 318.992 1290.78 318.507 1293.94 320.689C1296.12 322.143 1297.57 326.264 1297.09 329.9C1296.84 333.293 1291.75 352.686 1285.94 372.563C1279.88 392.682 1273.82 413.529 1272.61 419.346C1270.91 425.406 1268 430.497 1265.09 431.951C1261.7 433.648 1259.03 433.406 1256.61 431.466C1254.43 429.77 1252.73 426.134 1252.73 423.467C1252.73 420.801 1254.67 413.771 1256.61 407.711C1258.79 401.651 1264.85 381.047 1270.18 361.655Z" fill="#2929CF"/>
<path d="M1396.94 355.595C1392.58 341.05 1388.7 326.991 1388.7 324.809C1388.7 322.143 1390.64 320.446 1393.55 320.446C1396.22 320.446 1400.82 323.355 1403.97 327.233C1406.88 330.869 1412.21 342.99 1415.85 354.383C1419.48 365.775 1425.79 386.38 1437.9 425.891L1432.57 430.254C1429.91 432.436 1426.03 433.891 1424.33 433.163C1422.88 432.678 1419.97 429.527 1418.51 426.618C1416.82 423.467 1413.18 412.317 1410.27 401.651C1407.61 390.985 1401.55 370.381 1396.94 355.595Z" fill="#2929CF"/>
<path d="M2146.36 336.202C2148.54 330.869 2151.21 325.052 2152.66 323.597C2154.12 321.901 2156.05 320.446 2157.27 320.446C2158.48 320.446 2161.14 320.931 2163.08 321.658C2165.02 322.385 2166.72 325.537 2166.72 328.93C2166.72 332.324 2161.87 346.626 2156.05 361.17C2150.24 375.472 2143.45 393.652 2141.27 401.651C2139.09 409.65 2136.18 419.831 2134.97 424.194C2133.51 429.042 2131.09 431.951 2128.42 431.951C2126.24 432.194 2122.61 430.497 2120.67 428.315C2117.52 424.922 2117.52 423.467 2121.15 415.468C2123.58 410.62 2129.39 392.924 2134 376.199C2138.85 359.473 2144.18 341.535 2146.36 336.202Z" fill="#2929CF"/>
<path d="M2246.22 328.93C2245.97 327.476 2247.19 325.052 2249.13 323.355C2251.06 321.658 2254.94 320.446 2258.09 320.446C2262.7 320.446 2264.88 323.355 2270.7 338.142C2274.57 347.595 2282.09 370.381 2287.66 388.319C2296.39 417.892 2297.11 421.528 2293.72 426.618C2292.03 429.527 2288.39 431.709 2285.97 431.466C2283.06 430.982 2279.66 423.952 2273.85 405.287C2269.48 391.228 2261.73 368.927 2256.4 355.595C2251.06 342.262 2246.46 330.142 2246.22 328.93Z" fill="#2929CF"/>
<path d="M2033.66 389.773C2033.66 386.864 2036.32 381.289 2039.47 377.653C2042.62 374.26 2046.5 371.351 2047.96 371.351C2049.17 371.351 2052.56 373.532 2055.23 376.199C2057.89 378.865 2060.07 383.228 2060.07 385.895C2060.07 388.561 2057.41 393.409 2054.02 396.803C2050.86 400.197 2046.5 402.863 2044.32 402.863C2042.38 402.863 2038.99 401.166 2037.05 399.227C2035.11 397.288 2033.41 392.924 2033.66 389.773Z" fill="#2929CF"/>
<path d="M1175.17 390.743C1174.93 387.349 1176.63 382.016 1179.05 379.108C1181.23 376.199 1185.11 373.775 1187.53 373.775C1190.2 373.775 1194.08 375.472 1196.02 377.411C1197.96 379.35 1199.65 383.471 1199.65 386.622C1199.89 389.531 1197.71 394.864 1194.81 398.742C1192.14 402.378 1188.5 405.287 1186.81 405.287C1185.35 405.287 1181.96 403.348 1179.54 400.924C1177.11 398.742 1175.17 394.136 1175.17 390.743Z" fill="#2929CF"/>
<path d="M2364.25 389.046C2364.98 385.168 2367.89 380.32 2370.8 378.138C2373.46 375.714 2376.37 373.775 2377.34 373.775C2378.07 373.775 2380.01 374.744 2381.46 375.714C2382.91 376.684 2385.34 379.835 2387.04 382.986C2388.97 387.107 2388.97 389.773 2386.55 394.379C2385.1 397.773 2381.7 401.166 2379.28 401.651C2377.1 402.378 2372.49 401.166 2369.1 399.227C2364.25 396.318 2363.28 394.137 2364.25 389.046Z" fill="#2929CF"/>
<path d="M1506.98 390.985C1506.74 387.592 1508.68 382.986 1511.1 380.562C1513.52 378.138 1516.92 376.199 1518.61 376.199C1520.55 376.199 1524.19 378.38 1526.86 381.047C1529.52 383.713 1531.7 387.349 1531.7 389.046C1531.7 390.5 1530.01 394.379 1528.07 397.53C1526.13 400.439 1522.01 402.863 1518.86 402.863C1515.95 402.863 1512.07 401.651 1510.37 399.954C1508.68 398.257 1507.22 394.137 1506.98 390.985Z" fill="#2929CF"/>
<path d="M2143.94 35.6155C2149.27 31.7371 2158.72 26.4042 2165.51 24.2226C2172.05 21.7986 2181.02 19.8594 2184.9 19.8594C2188.77 19.8594 2192.89 20.3442 2193.86 21.0714C2195.08 21.7986 2189.5 28.5859 2181.75 36.3427C2171.32 46.5236 2165.99 54.2805 2161.14 66.643C2157.51 75.6119 2152.42 93.5497 2149.75 106.397C2147.09 119.487 2143.45 146.636 2141.51 166.513C2139.57 186.39 2136.91 215.721 2134 259.838H2118.97C2104.43 259.838 2103.7 259.595 2104.67 254.505C2105.4 251.354 2106.61 233.174 2107.34 213.781C2108.04 195.004 2109.88 163.727 2111.1 143.056L2111.22 141.061C2112.67 120.456 2115.34 95.2465 2117.27 85.308C2119.46 75.3695 2124.06 61.795 2127.94 55.0077C2131.57 48.4629 2138.85 39.7364 2143.94 35.6155Z" fill="white"/>
<path d="M1298.78 44.8268C1302.18 41.918 1311.14 38.0396 1318.41 35.8579C1325.69 33.9187 1336.84 32.2219 1343.14 32.2219C1349.68 31.9795 1355.26 32.7067 1355.98 33.6763C1356.47 34.8883 1354.53 37.0699 1351.62 38.7668C1348.71 40.4636 1343.86 45.3116 1340.96 49.6749C1337.8 54.0381 1332.71 65.6734 1329.32 75.6119C1325.93 85.5504 1321.08 104.215 1318.41 116.82C1315.99 129.425 1311.63 159.483 1308.96 183.481C1306.05 207.479 1303.39 234.386 1301.45 259.838H1280.85C1266.06 259.838 1260.25 259.111 1260.25 256.929C1260.25 255.232 1261.46 229.295 1262.91 199.237C1264.12 169.179 1266.79 133.304 1268.73 119.244C1270.67 105.185 1273.82 88.4593 1275.76 81.672C1277.7 75.1271 1282.3 65.1886 1285.94 59.8558C1289.33 54.5229 1295.15 47.7357 1298.78 44.8268Z" fill="white"/>
<path d="M1372.95 254.996C1332.23 254.996 1325.69 254.512 1325.69 251.361C1325.69 248.21 1331.99 247.725 1372.22 248.21C1406.88 248.695 1418.76 249.664 1419.48 251.846C1419.97 254.269 1409.55 254.996 1372.95 254.996Z" fill="#DFDFEE"/>
<path d="M2188.53 254.996C2163.57 254.996 2159.45 254.512 2159.69 251.118C2159.93 247.725 2165.99 247.483 2214.22 248.21C2248.88 248.695 2268.27 249.907 2268.03 251.361C2267.55 252.815 2266.58 253.542 2265.36 253.3C2264.39 252.815 2253.25 251.846 2240.64 250.634C2222.95 249.422 2217.62 249.664 2217.62 251.846C2217.62 254.269 2210.1 254.996 2188.53 254.996Z" fill="#DFDFEE"/>
</g>
</g>
<rect x="2.65625" y="2.71094" width="3495" height="1995" stroke="#00009C" stroke-width="5"/>
<defs>
<clipPath id="clip0_101_33">
<rect x="0.15625" y="0.210938" width="3500" height="2000" fill="white"/>
</clipPath>
<clipPath id="clip1_101_33">
<rect width="2482.21" height="2250.32" fill="white" transform="translate(509.052 -124.949)"/>
</clipPath>
</defs>
</svg>
