<svg width="69" height="61" viewBox="0 0 69 61" fill="none" xmlns="http://www.w3.org/2000/svg">
<g clip-path="url(#clip0_643_13864)">
<path d="M12.8988 41.6947C12.9181 42.5127 12.7655 43.3262 12.4502 44.0873C12.1733 44.7377 11.7386 45.3163 11.1817 45.7758C10.5941 46.2387 9.9105 46.5782 9.17567 46.7722C8.31371 47.0077 7.42043 47.1229 6.52375 47.114C6.07758 47.114 5.55604 47.0963 4.95915 47.061C4.36842 47.0259 3.78092 46.9522 3.20078 46.8405V36.5693C3.79397 36.4665 4.39315 36.398 4.99504 36.3643C5.61765 36.3301 6.15413 36.3113 6.60987 36.3113C7.48037 36.3018 8.34823 36.4041 9.19002 36.6155C9.91672 36.7968 10.5945 37.1237 11.1781 37.5742C11.7407 38.0253 12.1777 38.6018 12.4502 39.2525C12.7674 40.0304 12.9199 40.8604 12.8988 41.6947ZM5.69301 45.0409C5.81143 45.0512 5.946 45.0597 6.1003 45.0649C6.25461 45.07 6.43942 45.0649 6.65294 45.0649C7.89815 45.0649 8.8216 44.7658 9.42328 44.1676C10.025 43.5695 10.324 42.7429 10.3204 41.6878C10.3204 40.5815 10.0333 39.7447 9.45916 39.1773C8.885 38.6099 7.97411 38.3251 6.7265 38.3228C6.54707 38.3228 6.38021 38.3228 6.19899 38.3228C6.02796 38.3269 5.85728 38.3394 5.68762 38.3604L5.69301 45.0409Z" fill="#36A9E1"/>
<path d="M14.0829 36.4377H16.5751V46.9823H14.0829V36.4377Z" fill="#36A9E1"/>
<path d="M23.8384 38.2561C22.6781 38.2561 21.8407 38.5626 21.3264 39.1756C20.812 39.7886 20.5537 40.6282 20.5513 41.6947C20.5449 42.1698 20.6095 42.6434 20.7433 43.1012C20.857 43.4967 21.0522 43.8668 21.3174 44.1899C21.5741 44.492 21.9017 44.7326 22.2738 44.8923C22.6968 45.0673 23.1547 45.153 23.6159 45.1435C23.8946 45.1435 24.1338 45.1384 24.3336 45.1281C24.5084 45.1206 24.6824 45.1 24.8539 45.0666V41.4059H27.3461V46.6235C26.8786 46.7796 26.3985 46.8996 25.9107 46.9824C25.1045 47.1208 24.2861 47.1843 23.4669 47.1721C22.6933 47.1833 21.924 47.0593 21.1972 46.8064C20.544 46.5777 19.9521 46.2141 19.4639 45.7416C18.969 45.251 18.5909 44.6646 18.3551 44.0224C18.0832 43.2742 17.9521 42.4862 17.9675 41.6947C17.9518 40.8946 18.098 40.0991 18.3982 39.3516C18.6636 38.704 19.0668 38.1158 19.5824 37.6238C20.0843 37.1513 20.6862 36.786 21.3479 36.5522C22.0397 36.3054 22.7731 36.1814 23.5118 36.1865C23.9851 36.1827 24.458 36.2159 24.9257 36.2856C25.2921 36.3398 25.6547 36.4157 26.0112 36.5129C26.2685 36.5835 26.5199 36.6727 26.763 36.7795C26.9586 36.8701 27.1003 36.9419 27.1865 36.9932L26.4687 38.8953C26.0939 38.7093 25.7009 38.5588 25.2953 38.4458C24.8221 38.3147 24.3312 38.2508 23.8384 38.2561Z" fill="#36A9E1"/>
<path d="M28.7224 36.4293H31.2146V46.9739H28.7224V36.4293Z" fill="#36A9E1"/>
<path d="M41.8562 36.4293V38.4527H38.5171V46.9739H36.0249V38.4527H32.6804V36.4293H41.8562Z" fill="#36A9E1"/>
<path d="M50.4186 46.9739C50.2948 46.6082 50.1638 46.2322 50.022 45.846C49.8803 45.4597 49.7385 45.0752 49.5968 44.6924H45.2744C45.1345 45.0769 44.9945 45.4614 44.8546 45.8494C44.7146 46.2373 44.5818 46.6099 44.4616 46.9739H41.8743C42.2906 45.8346 42.6853 44.7847 43.0585 43.8242C43.4317 42.8637 43.8001 41.9562 44.1638 41.1017C44.5226 40.2495 44.8749 39.4406 45.2206 38.6749C45.5663 37.9093 45.9251 37.1607 46.2972 36.4293H48.6602C49.019 37.1607 49.3779 37.9093 49.7368 38.6749C50.0956 39.4406 50.4515 40.2495 50.8043 41.1017C51.1632 41.9528 51.5298 42.8603 51.9042 43.8242C52.2786 44.7881 52.6746 45.838 53.092 46.9739H50.4186ZM47.424 38.8185C47.3683 38.9723 47.2876 39.1808 47.1799 39.444C47.0723 39.7072 46.9521 40.0114 46.8211 40.3566C46.6901 40.7018 46.5304 41.0829 46.3617 41.4982C46.1931 41.9135 46.0208 42.3527 45.8468 42.8056H49.0083C48.8396 42.3476 48.6746 41.9118 48.5167 41.4948C48.3588 41.0778 48.2062 40.6967 48.0645 40.3515C47.9228 40.0062 47.7954 39.702 47.6877 39.4388C47.5801 39.1757 47.4903 38.9689 47.424 38.8185Z" fill="#36A9E1"/>
<path d="M61.8696 44.9351V46.9739H54.4737V36.4293H56.9659V44.9351H61.8696Z" fill="#36A9E1"/>
<path d="M63.2548 36.4293H65.747V46.9739H63.2548V36.4293Z" fill="#36A9E1"/>
<path d="M45.5992 8.74823C45.5878 8.68181 45.5575 8.61964 45.5116 8.56843C45.4658 8.51722 45.4061 8.47893 45.339 8.45769L43.1231 7.77409C42.9743 7.35252 42.7894 6.94326 42.5705 6.55043L43.5663 4.54404C43.5964 4.48304 43.6082 4.41527 43.6003 4.34828C43.5924 4.28129 43.5651 4.21772 43.5214 4.16463C42.9599 3.48003 42.3202 2.85697 41.6141 2.30693C41.5547 2.26257 41.483 2.2357 41.4078 2.22963C41.3326 2.22356 41.2571 2.23854 41.1907 2.27275L39.2009 3.31867C39.0969 3.25554 38.9891 3.19847 38.8779 3.14777C38.7218 3.07941 38.5729 3.02813 38.3396 2.94097H38.3181L37.6219 2.72393L36.9204 0.656014C36.9 0.592521 36.8621 0.535396 36.8107 0.490605C36.7592 0.445813 36.6961 0.414995 36.6279 0.40137C36.2003 0.327702 35.7669 0.289391 35.3324 0.286865C35.1674 0.286865 35.0023 0.286865 34.8372 0.303955C34.7866 0.306991 34.7371 0.319549 34.6916 0.340906C34.6461 0.362263 34.6055 0.391995 34.5721 0.428384C34.5388 0.464773 34.5133 0.507099 34.4972 0.552916C34.4811 0.598733 34.4747 0.647133 34.4784 0.695321V6.33509C34.4766 6.36013 34.4766 6.38525 34.4784 6.41029C34.4886 6.49987 34.5333 6.58265 34.6039 6.64264C34.6745 6.70262 34.7659 6.73553 34.8605 6.735C34.8737 6.73586 34.8869 6.73586 34.9 6.735C35.0293 6.72192 35.1593 6.71564 35.2894 6.7162C35.7591 6.71037 36.2257 6.79043 36.6638 6.95205C37.4703 7.25636 38.14 7.81911 38.5576 8.54332C38.9753 9.26753 39.1145 10.1078 38.9515 10.9193C38.7885 11.7309 38.3333 12.4628 37.6645 12.989C36.9956 13.5152 36.155 13.8026 35.2876 13.8018C35.1602 13.8018 35.0328 13.8018 34.9036 13.783C34.8911 13.7821 34.8785 13.7821 34.8659 13.783C34.7712 13.7829 34.6797 13.8162 34.6092 13.8764C34.5386 13.9367 34.4939 14.0197 34.4837 14.1094V19.8005C34.4793 19.8959 34.5145 19.9892 34.5816 20.0602C34.6487 20.1311 34.7425 20.1741 34.8426 20.1799C34.9897 20.1799 35.1369 20.1799 35.2822 20.1799C35.812 20.1804 36.3411 20.1422 36.8647 20.0654C36.935 20.0553 37.0009 20.0268 37.0551 19.983C37.1093 19.9392 37.1497 19.8819 37.1716 19.8176L37.8893 17.7069C38.332 17.5669 38.7612 17.3908 39.1722 17.1805L41.293 18.1461C41.3571 18.1745 41.4282 18.1855 41.4984 18.1779C41.5687 18.1704 41.6354 18.1446 41.6913 18.1034C42.4537 17.5403 43.13 16.8788 43.7009 16.138C43.7429 16.0837 43.7684 16.0193 43.7744 15.9521C43.7804 15.8848 43.7668 15.8173 43.735 15.7569L42.6781 13.7779C42.7822 13.5813 42.8809 13.3814 42.9688 13.1678C43.0567 12.9575 43.1303 12.7473 43.1967 12.5354L45.3911 11.7869C45.458 11.7646 45.517 11.725 45.5614 11.6724C45.6058 11.6199 45.6338 11.5565 45.6423 11.4895C45.6953 11.0853 45.7217 10.6783 45.7212 10.271C45.7211 9.76118 45.6803 9.25213 45.5992 8.74823Z" fill="#36A9E1"/>
<path d="M18.147 55.3173V51.9488H18.4484V55.3173H18.147Z" fill="#575756"/>
<path d="M21.0572 55.3173V53.6646C21.0572 53.1929 20.8078 53.0528 20.4364 53.0528C20.2734 53.0592 20.114 53.1001 19.9697 53.1725C19.8253 53.2449 19.6998 53.3471 19.6021 53.4715V55.3173H19.3276V52.8785H19.6021V53.2476C19.7174 53.1199 19.8588 53.0159 20.0177 52.9419C20.1765 52.8678 20.3495 52.8253 20.5261 52.817C21.0465 52.817 21.3336 53.0596 21.3336 53.6116V55.3207L21.0572 55.3173Z" fill="#575756"/>
<path d="M23.9245 55.3173V53.6646C23.9245 53.1929 23.6751 53.0528 23.3037 53.0528C23.1407 53.0592 22.9813 53.1001 22.8369 53.1725C22.6926 53.2449 22.5671 53.3471 22.4694 53.4715V55.3173H22.1931V52.8785H22.4694V53.2476C22.5847 53.1199 22.7261 53.0159 22.8849 52.9419C23.0438 52.8678 23.2168 52.8253 23.3934 52.817C23.9138 52.817 24.2008 53.0596 24.2008 53.6116V55.3207L23.9245 55.3173Z" fill="#575756"/>
<path d="M24.9113 54.097C24.9113 53.3843 25.3958 52.817 26.144 52.817C26.8922 52.817 27.3802 53.3843 27.3802 54.097C27.3802 54.8097 26.9029 55.3822 26.144 55.3822C25.385 55.3822 24.9113 54.8045 24.9113 54.097ZM27.0824 54.097C27.0824 53.5553 26.7486 53.0562 26.144 53.0562C25.5393 53.0562 25.2092 53.5553 25.2092 54.097C25.2092 54.6388 25.5483 55.1446 26.144 55.1446C26.7397 55.1446 27.0824 54.6439 27.0824 54.097Z" fill="#575756"/>
<path d="M28.7834 55.3173L27.7068 52.8751H28.0155L28.9485 55.0096L29.8725 52.8751H30.1865L29.092 55.3173H28.7834Z" fill="#575756"/>
<path d="M32.275 55.3173V55.0285C32.1656 55.1438 32.031 55.235 31.8807 55.2955C31.7304 55.356 31.5679 55.3845 31.4048 55.3788C31.2891 55.3836 31.1736 55.3662 31.0652 55.3274C30.9568 55.2887 30.8577 55.2294 30.7739 55.1533C30.6901 55.0772 30.6233 54.9857 30.5776 54.8843C30.5318 54.783 30.5081 54.6739 30.5077 54.5636C30.5075 54.4535 30.531 54.3444 30.5766 54.2432C30.6222 54.142 30.6891 54.0508 30.7731 53.9751C30.8572 53.8994 30.9565 53.8408 31.0651 53.803C31.1738 53.7652 31.2894 53.749 31.4048 53.7552C31.5673 53.7479 31.7295 53.7748 31.8799 53.8338C32.0303 53.8929 32.1652 53.9828 32.275 54.097V53.6083C32.275 53.2442 31.9682 53.0477 31.586 53.0477C31.4323 53.0445 31.28 53.0752 31.1408 53.1375C31.0017 53.1998 30.8795 53.2919 30.784 53.4066L30.6297 53.2237C30.7522 53.0897 30.9044 52.9834 31.0755 52.9125C31.2465 52.8415 31.4319 52.8077 31.6183 52.8136C32.1369 52.8136 32.5514 53.0528 32.5514 53.598V55.3173H32.275ZM32.275 54.3004C32.1822 54.1904 32.064 54.1024 31.9295 54.0431C31.7951 53.9838 31.648 53.9549 31.4999 53.9586C31.4113 53.9508 31.3219 53.9606 31.2374 53.9875C31.153 54.0145 31.0754 54.0578 31.0095 54.1149C30.9437 54.172 30.8911 54.2416 30.855 54.3191C30.819 54.3967 30.8003 54.4805 30.8002 54.5653C30.8002 54.9071 31.0765 55.1669 31.4999 55.1669C31.6481 55.171 31.7952 55.1423 31.9298 55.083C32.0643 55.0237 32.1825 54.9354 32.275 54.8251V54.3004Z" fill="#575756"/>
<path d="M33.4647 54.8508V53.111H33.0394V52.8786H33.4629V52.2103H33.7446V52.8786H34.2649V53.111H33.7446V54.8046C33.7446 55.0029 33.8289 55.1464 34.0101 55.1464C34.0638 55.1461 34.1169 55.1355 34.1663 55.1153C34.2156 55.095 34.2601 55.0655 34.2972 55.0285L34.4031 55.2319C34.3454 55.2846 34.2769 55.3253 34.2018 55.3515C34.1268 55.3777 34.0468 55.3887 33.9671 55.384C33.6297 55.3823 33.4647 55.184 33.4647 54.8508Z" fill="#575756"/>
<path d="M34.7978 52.2616C34.7974 52.2214 34.8096 52.182 34.8328 52.1483C34.8559 52.1147 34.889 52.0884 34.9279 52.0727C34.9668 52.057 35.0097 52.0526 35.0512 52.0601C35.0927 52.0676 35.1309 52.0867 35.161 52.1149C35.1911 52.1431 35.2117 52.1792 35.2203 52.2185C35.2289 52.2579 35.2251 52.2988 35.2092 52.3361C35.1934 52.3734 35.1663 52.4054 35.1314 52.428C35.0965 52.4507 35.0553 52.4629 35.0131 52.4633C34.9566 52.4633 34.9024 52.4421 34.8621 52.4044C34.8218 52.3667 34.7987 52.3154 34.7978 52.2616ZM34.8713 55.3207V52.8786H35.1476V55.3173L34.8713 55.3207Z" fill="#575756"/>
<path d="M35.86 54.097C35.86 53.3843 36.3426 52.817 37.0908 52.817C37.839 52.817 38.3289 53.3843 38.3289 54.097C38.3289 54.8097 37.8498 55.3822 37.0908 55.3822C36.3318 55.3822 35.86 54.8045 35.86 54.097ZM38.031 54.097C38.031 53.5553 37.6973 53.0562 37.0908 53.0562C36.4844 53.0562 36.1578 53.5553 36.1578 54.097C36.1578 54.6388 36.4969 55.1446 37.0908 55.1446C37.6847 55.1446 38.031 54.6439 38.031 54.097Z" fill="#575756"/>
<path d="M40.7707 55.3173V53.6646C40.7707 53.1929 40.5213 53.0528 40.1499 53.0528C39.9869 53.0592 39.8275 53.1001 39.6831 53.1725C39.5388 53.2449 39.4133 53.3471 39.3156 53.4715V55.3173H39.0393V52.8785H39.3192V53.2476C39.4345 53.1199 39.5759 53.0159 39.7347 52.9419C39.8936 52.8678 40.0666 52.8253 40.2432 52.817C40.7635 52.817 41.0506 53.0596 41.0506 53.6116V55.3207L40.7707 55.3173Z" fill="#575756"/>
<path d="M43.2917 55.3173V51.9488H43.5949V55.0575H45.3102V55.3173H43.2917Z" fill="#575756"/>
<path d="M47.4975 55.3172V55.0284C47.3881 55.1438 47.2535 55.2349 47.1032 55.2955C46.9528 55.356 46.7904 55.3844 46.6273 55.3788C46.5116 55.3836 46.3961 55.3661 46.2877 55.3274C46.1792 55.2886 46.0802 55.2294 45.9964 55.1532C45.9126 55.0771 45.8458 54.9856 45.8001 54.8843C45.7543 54.783 45.7305 54.6739 45.7302 54.5636C45.7297 54.4533 45.753 54.3442 45.7986 54.2429C45.8441 54.1415 45.911 54.0502 45.9951 53.9744C46.0791 53.8987 46.1786 53.8402 46.2873 53.8024C46.3961 53.7647 46.5118 53.7487 46.6273 53.7552C46.7898 53.7479 46.952 53.7747 47.1024 53.8338C47.2528 53.8928 47.3877 53.9827 47.4975 54.097V53.6082C47.4975 53.2442 47.1889 53.0477 46.8067 53.0477C46.6533 53.0447 46.5013 53.0756 46.3625 53.1378C46.2237 53.2001 46.1018 53.2921 46.0065 53.4066L45.8522 53.2237C45.9739 53.0892 46.1258 52.9826 46.2966 52.9116C46.4674 52.8406 46.6528 52.8071 46.839 52.8135C47.3594 52.8135 47.7738 53.0528 47.7738 53.598V55.3172H47.4975ZM47.4975 54.3004C47.4046 54.1905 47.2863 54.1025 47.1519 54.0432C47.0175 53.9839 46.8705 53.9549 46.7224 53.9586C46.2972 53.9586 46.0208 54.2166 46.0208 54.5653C46.0208 54.9139 46.2972 55.1668 46.7224 55.1668C46.8705 55.1707 47.0176 55.1419 47.1521 55.0826C47.2865 55.0233 47.4048 54.9351 47.4975 54.825V54.3004Z" fill="#575756"/>
<path d="M48.6332 55.3173V51.9488H48.9095V53.2664C49.0091 53.1269 49.1428 53.0125 49.299 52.933C49.4553 52.8535 49.6295 52.8114 49.8066 52.8101C50.492 52.8101 50.9532 53.3228 50.9532 54.0953C50.9532 54.8678 50.4867 55.3754 49.8066 55.3754C49.63 55.3747 49.4561 55.3333 49.2999 55.2548C49.1436 55.1762 49.0097 55.0628 48.9095 54.9242V55.3173H48.6332ZM48.9095 54.7054C49.003 54.8376 49.1287 54.9463 49.2759 55.0222C49.423 55.0981 49.5873 55.1389 49.7546 55.1412C50.327 55.1412 50.6517 54.6901 50.6517 54.0987C50.6517 53.5074 50.327 53.0528 49.7546 53.0528C49.5866 53.0568 49.4221 53.0992 49.275 53.1766C49.1279 53.2539 49.0025 53.3639 48.9095 53.4972V54.7054Z" fill="#575756"/>
<path d="M10.8749 59.9573V59.5677C10.7747 59.7063 10.6407 59.8197 10.4845 59.8983C10.3283 59.9768 10.1544 60.0182 9.97774 60.0189C9.29772 60.0189 8.83121 59.5233 8.83121 58.7388C8.83121 57.9544 9.29772 57.4553 9.97774 57.4553C10.1548 57.4559 10.3291 57.4977 10.4854 57.5769C10.6417 57.6561 10.7754 57.7704 10.8749 57.9099V56.5854H11.1494V59.9573H10.8749ZM10.8749 58.1372C10.7832 58.0027 10.6581 57.8918 10.5107 57.8143C10.3633 57.7368 10.1981 57.6951 10.0298 57.6929C9.46279 57.6929 9.13264 58.1475 9.13264 58.7388C9.13264 59.3301 9.46279 59.7813 10.0298 59.7813C10.1972 59.7796 10.3617 59.739 10.509 59.6631C10.6562 59.5871 10.7818 59.4781 10.8749 59.3455V58.1372Z" fill="#575756"/>
<path d="M13.105 57.4552C13.8855 57.4552 14.3143 58.0465 14.3143 58.7489V58.8207H12.1612C12.1881 59.3505 12.5596 59.7914 13.1642 59.7914C13.3215 59.7935 13.4775 59.7642 13.6221 59.7053C13.7668 59.6465 13.8968 59.5593 14.0039 59.4496L14.1457 59.6205C14.0174 59.7503 13.8616 59.8525 13.6887 59.9206C13.5158 59.9887 13.3297 60.0209 13.1427 60.0153C12.4053 60.0187 11.867 59.4872 11.867 58.7353C11.867 58.026 12.3927 57.4552 13.105 57.4552ZM12.1702 58.6122H14.0326C14.0377 58.4923 14.0174 58.3726 13.9728 58.2603C13.9283 58.148 13.8604 58.0455 13.7734 57.9587C13.6863 57.8719 13.5817 57.8028 13.466 57.7553C13.3502 57.7078 13.2256 57.6831 13.0996 57.6825C12.4932 57.6825 12.1917 58.1884 12.1702 58.6122Z" fill="#575756"/>
<path d="M15.0267 59.9573V56.5854H15.303V59.9573H15.0267Z" fill="#575756"/>
<path d="M17.415 58.2738C17.4049 58.046 17.4438 57.8187 17.5293 57.6057C17.6147 57.3927 17.7449 57.1986 17.9119 57.0352C18.0789 56.8719 18.2791 56.7427 18.5003 56.6556C18.7215 56.5686 18.9591 56.5255 19.1985 56.5289C19.4492 56.5243 19.6975 56.5759 19.9235 56.6795C20.1494 56.7831 20.3467 56.9358 20.4993 57.1254L20.2445 57.2826C20.1226 57.1286 19.9645 57.0039 19.7828 56.9187C19.6011 56.8335 19.401 56.7902 19.1985 56.7921C18.3767 56.7921 17.7343 57.3937 17.7343 58.2738C17.7343 59.154 18.3767 59.7555 19.1985 59.7555C19.401 59.7579 19.6013 59.7147 19.7831 59.6295C19.9648 59.5442 20.1229 59.4194 20.2445 59.2651L20.4993 59.4172C20.3478 59.6082 20.151 59.7624 19.9248 59.867C19.6987 59.9716 19.4498 60.0236 19.1985 60.0187C18.959 60.0224 18.7214 59.9795 18.5 59.8925C18.2787 59.8055 18.0783 59.6764 17.9113 59.5129C17.7443 59.3495 17.6141 59.1553 17.5287 58.9422C17.4434 58.7291 17.4047 58.5017 17.415 58.2738Z" fill="#575756"/>
<path d="M22.7349 59.9572V59.6701C22.6247 59.784 22.4897 59.8736 22.3394 59.9327C22.1891 59.9917 22.0271 60.0188 21.8646 60.0119C21.7489 60.0168 21.6334 59.9993 21.525 59.9605C21.4166 59.9218 21.3175 59.8625 21.2337 59.7864C21.1499 59.7103 21.0831 59.6188 21.0374 59.5175C20.9916 59.4161 20.9679 59.307 20.9675 59.1967C20.9671 59.0865 20.9903 58.9774 21.0359 58.876C21.0814 58.7747 21.1483 58.6833 21.2324 58.6076C21.3165 58.5318 21.4159 58.4733 21.5247 58.4356C21.6334 58.3979 21.7491 58.3818 21.8646 58.3884C22.0271 58.381 22.1893 58.4079 22.3397 58.4669C22.4901 58.526 22.625 58.6159 22.7349 58.7302V58.2345C22.7349 57.8705 22.428 57.674 22.0459 57.674C21.8922 57.6708 21.7398 57.7015 21.6006 57.7638C21.4615 57.826 21.3394 57.9182 21.2438 58.0329L21.0895 57.85C21.212 57.7166 21.364 57.6107 21.5347 57.54C21.7054 57.4694 21.8904 57.4358 22.0764 57.4416C22.5967 57.4416 23.0112 57.6791 23.0112 58.2243V59.9436L22.7349 59.9572ZM22.7349 58.9421C22.6422 58.8319 22.524 58.7437 22.3895 58.6844C22.255 58.625 22.1079 58.5963 21.9597 58.6003C21.5345 58.6003 21.26 58.8583 21.26 59.207C21.26 59.5556 21.5345 59.8086 21.9597 59.8086C22.1079 59.8127 22.2551 59.784 22.3896 59.7247C22.5241 59.6653 22.6423 59.577 22.7349 59.4667V58.9421Z" fill="#575756"/>
<path d="M26.9245 59.9573V58.2483C26.9245 57.9065 26.7702 57.6928 26.4096 57.6928C26.2619 57.7027 26.1188 57.7453 25.9914 57.8171C25.864 57.8889 25.7559 57.9879 25.6757 58.1064V59.9573H25.3958V58.2483C25.3958 57.9065 25.2469 57.6928 24.8809 57.6928C24.7334 57.7057 24.5909 57.75 24.4638 57.8225C24.3368 57.895 24.2285 57.9938 24.147 58.1115V59.9573H23.8725V57.5151H24.147V57.8808C24.2449 57.757 24.3696 57.6546 24.5126 57.5806C24.6556 57.5066 24.8136 57.4627 24.976 57.4519C25.1272 57.4409 25.2777 57.4809 25.401 57.5649C25.5244 57.649 25.6127 57.7717 25.6506 57.9116C25.7434 57.7761 25.8688 57.6637 26.0164 57.5837C26.1641 57.5038 26.3296 57.4585 26.4993 57.4519C26.9712 57.4519 27.2009 57.7048 27.2009 58.1953V59.9539L26.9245 59.9573Z" fill="#575756"/>
<path d="M28.3366 60.8886H28.0603V57.515H28.3366V57.8995C28.438 57.7626 28.5724 57.6508 28.7285 57.5735C28.8845 57.4962 29.0578 57.4557 29.2337 57.4552C29.9191 57.4552 30.3803 57.9508 30.3803 58.7335C30.3803 59.5163 29.9191 60.0187 29.2337 60.0187C29.0568 60.0174 28.8828 59.9754 28.7266 59.8962C28.5704 59.8171 28.4366 59.7031 28.3366 59.5641V60.8886ZM29.1799 57.6928C29.013 57.695 28.8492 57.7356 28.7023 57.8112C28.5555 57.8868 28.43 57.9951 28.3366 58.1268V59.3351C28.4293 59.4685 28.5543 59.5786 28.701 59.6563C28.8478 59.7339 29.0121 59.7767 29.1799 59.7812C29.7541 59.7812 30.077 59.3249 30.077 58.7335C30.077 58.1422 29.7541 57.6928 29.1799 57.6928Z" fill="#575756"/>
<path d="M30.9383 58.7354C30.9383 58.0227 31.421 57.457 32.1692 57.457C32.9174 57.457 33.4072 58.0227 33.4072 58.7354C33.4072 59.448 32.9281 60.0206 32.1692 60.0206C31.4102 60.0206 30.9383 59.4463 30.9383 58.7354ZM33.1094 58.7354C33.1094 58.1953 32.7756 57.6946 32.1692 57.6946C31.5627 57.6946 31.2451 58.1936 31.2451 58.7354C31.2451 59.2771 31.5842 59.783 32.1781 59.783C32.772 59.783 33.1094 59.2806 33.1094 58.7354Z" fill="#575756"/>
<path d="M34.0603 59.4378C34.1623 59.5514 34.2892 59.6425 34.4321 59.7045C34.575 59.7665 34.7304 59.7979 34.8874 59.7967C35.318 59.7967 35.5728 59.5933 35.5728 59.3113C35.5728 58.9969 35.214 58.9063 34.8551 58.8157C34.4245 58.7132 33.958 58.6072 33.958 58.1321C33.958 57.7578 34.2917 57.4485 34.8713 57.4485C35.0423 57.4408 35.2131 57.469 35.3715 57.531C35.5299 57.593 35.6721 57.6874 35.7881 57.8074L35.6356 57.9937C35.5432 57.8871 35.426 57.8025 35.2934 57.7464C35.1607 57.6904 35.0162 57.6644 34.8713 57.6707C34.4729 57.6707 34.2289 57.8569 34.2289 58.1099C34.2289 58.3628 34.5573 58.4637 34.9125 58.5508C35.3539 58.6568 35.8473 58.773 35.8473 59.2942C35.8473 59.689 35.528 60.012 34.8856 60.012C34.7015 60.0218 34.5174 59.9923 34.3467 59.9258C34.176 59.8593 34.023 59.7574 33.8988 59.6275L34.0603 59.4378Z" fill="#575756"/>
<path d="M38.1852 59.9572V59.6701C38.0751 59.784 37.9401 59.8736 37.7898 59.9327C37.6395 59.9917 37.4774 60.0188 37.315 60.0119C37.1993 60.0168 37.0838 59.9993 36.9754 59.9605C36.8669 59.9218 36.7679 59.8625 36.6841 59.7864C36.6003 59.7103 36.5335 59.6188 36.4878 59.5175C36.442 59.4161 36.4182 59.307 36.4179 59.1967C36.4174 59.0865 36.4407 58.9774 36.4863 58.876C36.5318 58.7747 36.5987 58.6833 36.6828 58.6076C36.7668 58.5318 36.8663 58.4733 36.975 58.4356C37.0838 58.3979 37.1995 58.3818 37.315 58.3884C37.4775 58.381 37.6397 58.4079 37.7901 58.4669C37.9405 58.526 38.0754 58.6159 38.1852 58.7302V58.2345C38.1852 57.8705 37.8766 57.674 37.4944 57.674C37.341 57.671 37.189 57.7019 37.0502 57.7642C36.9114 57.8264 36.7895 57.9184 36.6942 58.0329L36.5399 57.85C36.6623 57.7166 36.8144 57.6107 36.9851 57.54C37.1557 57.4694 37.3407 57.4358 37.5267 57.4416C38.0471 57.4416 38.4615 57.6791 38.4615 58.2243V59.9436L38.1852 59.9572ZM38.1852 58.9421C38.0925 58.832 37.9742 58.7438 37.8398 58.6845C37.7053 58.6252 37.5582 58.5964 37.4101 58.6003C36.9849 58.6003 36.7085 58.8583 36.7085 59.207C36.7085 59.5556 36.9849 59.8086 37.4101 59.8086C37.5582 59.8124 37.7053 59.7836 37.8398 59.7243C37.9742 59.665 38.0925 59.5768 38.1852 59.4667V58.9421Z" fill="#575756"/>
<path d="M42.3694 59.9572V58.2482C42.3694 57.9064 42.2151 57.6927 41.8544 57.6927C41.7068 57.7026 41.5636 57.7452 41.4362 57.817C41.3089 57.8888 41.2008 57.9878 41.1206 58.1063V59.9572H40.8443V58.2482C40.8443 57.9064 40.6971 57.6927 40.3293 57.6927C40.1822 57.7059 40.04 57.7503 39.9133 57.8228C39.7866 57.8952 39.6786 57.9939 39.5973 58.1114V59.9572H39.3192V57.515H39.5955V57.8807C39.6932 57.7567 39.8179 57.6543 39.9609 57.5802C40.1039 57.5062 40.262 57.4624 40.4244 57.4518C40.5755 57.4405 40.7259 57.4804 40.849 57.5646C40.9721 57.6487 41.0601 57.7716 41.0973 57.9115C41.1909 57.7764 41.3167 57.6642 41.4645 57.5843C41.6124 57.5044 41.7779 57.459 41.9477 57.4518C42.4196 57.4518 42.6475 57.7047 42.6475 58.1952V59.9538L42.3694 59.9572Z" fill="#575756"/>
<path d="M43.787 60.8886H43.5107V57.515H43.787V57.8995C43.8883 57.7625 44.0226 57.6507 44.1787 57.5734C44.3348 57.496 44.5081 57.4555 44.6841 57.4552C45.3695 57.4552 45.8306 57.9508 45.8306 58.7335C45.8306 59.5163 45.3695 60.0187 44.6841 60.0187C44.5072 60.0174 44.3332 59.9754 44.177 59.8962C44.0208 59.8171 43.887 59.7031 43.787 59.5641V60.8886ZM44.6303 57.6928C44.4634 57.695 44.2995 57.7356 44.1527 57.8112C44.0059 57.8868 43.8804 57.9951 43.787 58.1268V59.3351C43.8796 59.4685 44.0046 59.5786 44.1514 59.6563C44.2982 59.7339 44.4624 59.7767 44.6303 59.7812C45.2044 59.7812 45.5274 59.3249 45.5274 58.7335C45.5274 58.1422 45.2044 57.6928 44.6303 57.6928Z" fill="#575756"/>
<path d="M46.4622 56.8981C46.4632 56.8446 46.486 56.7935 46.5259 56.7559C46.5658 56.7182 46.6196 56.6968 46.6757 56.6964C46.7288 56.7011 46.778 56.7244 46.8139 56.7619C46.8498 56.7993 46.8697 56.8482 46.8697 56.8989C46.8697 56.9496 46.8498 56.9985 46.8139 57.036C46.778 57.0735 46.7288 57.0968 46.6757 57.1014C46.6194 57.1006 46.5656 57.0789 46.5258 57.0409C46.4859 57.003 46.4631 56.9517 46.4622 56.8981ZM46.5376 59.9572V57.515H46.8121V59.9572H46.5376Z" fill="#575756"/>
<path d="M48.7607 57.4552C49.5412 57.4552 49.9718 58.0465 49.9718 58.7489V58.8207H47.8276C47.8528 59.3505 48.2242 59.7914 48.8306 59.7914C48.9876 59.7935 49.1434 59.7642 49.2877 59.7053C49.432 59.6464 49.5618 59.5593 49.6686 59.4496L49.8121 59.6205C49.6838 59.7503 49.5281 59.8525 49.3551 59.9206C49.1822 59.9887 48.9961 60.0209 48.8091 60.0153C48.0609 60.0153 47.5244 59.4838 47.5244 58.7301C47.5244 58.026 48.0501 57.4552 48.7607 57.4552ZM47.8276 58.6122H49.6901C49.6949 58.4922 49.6743 58.3725 49.6296 58.2602C49.5848 58.1479 49.5168 58.0453 49.4296 57.9586C49.3424 57.8719 49.2377 57.8027 49.1219 57.7553C49.006 57.7079 48.8814 57.6831 48.7553 57.6825C48.1506 57.6825 47.8474 58.1884 47.8276 58.6122Z" fill="#575756"/>
<path d="M50.6842 59.9572V57.515H50.9587V57.9354C51.0542 57.7977 51.1824 57.6834 51.333 57.6017C51.4836 57.52 51.6522 57.4734 51.8253 57.4655V57.7526C51.7799 57.7439 51.7335 57.7405 51.6872 57.7423C51.539 57.7575 51.3964 57.8046 51.2701 57.8801C51.1439 57.9557 51.0374 58.0576 50.9587 58.1781V59.9572H50.6842Z" fill="#575756"/>
<path d="M53.4545 57.4552C54.235 57.4552 54.6656 58.0465 54.6656 58.7489V58.8207H52.5125C52.5394 59.3505 52.9108 59.7914 53.5173 59.7914C53.6743 59.7935 53.83 59.7642 53.9743 59.7053C54.1187 59.6464 54.2484 59.5593 54.3552 59.4496L54.4987 59.6205C54.3703 59.7501 54.2145 59.8522 54.0416 59.9203C53.8687 59.9883 53.6827 60.0207 53.4957 60.0153C52.7475 60.0153 52.211 59.4838 52.211 58.7301C52.2182 58.026 52.7439 57.4552 53.4545 57.4552ZM52.5196 58.6122H54.3911C54.3959 58.4922 54.3753 58.3725 54.3305 58.2602C54.2858 58.1479 54.2178 58.0453 54.1306 57.9586C54.0433 57.8719 53.9387 57.8027 53.8229 57.7553C53.707 57.7079 53.5823 57.6831 53.4562 57.6825C52.8444 57.6825 52.5412 58.1884 52.5196 58.6122Z" fill="#575756"/>
<path d="M55.3186 59.4377C55.4202 59.5519 55.547 59.6433 55.69 59.7054C55.833 59.7674 55.9887 59.7986 56.1458 59.7966C56.5764 59.7966 56.8312 59.5932 56.8312 59.3112C56.8312 58.9968 56.4723 58.9062 56.1135 58.8156C55.6847 58.7131 55.2164 58.6071 55.2164 58.132C55.2164 57.7577 55.5501 57.4484 56.1278 57.4484C56.2992 57.4406 56.4703 57.4687 56.629 57.5307C56.7877 57.5928 56.9302 57.6872 57.0465 57.8073L56.8922 57.9936C56.8001 57.8867 56.6829 57.8019 56.5502 57.7458C56.4175 57.6897 56.2729 57.6639 56.1278 57.6706C55.7313 57.6706 55.4855 57.8569 55.4855 58.1098C55.4855 58.3627 55.8156 58.4636 56.1709 58.5507C56.6123 58.6567 57.1057 58.7729 57.1057 59.2942C57.1057 59.6889 56.7863 60.0119 56.144 60.0119C55.9598 60.0217 55.7757 59.9922 55.605 59.9257C55.4343 59.8592 55.2813 59.7573 55.1572 59.6274L55.3186 59.4377Z" fill="#575756"/>
<path d="M58.9018 57.4552C59.6823 57.4552 60.113 58.0465 60.113 58.7489V58.8207H57.9599C57.9868 59.3505 58.3582 59.7914 58.9628 59.7914C59.1201 59.7936 59.2762 59.7644 59.4208 59.7055C59.5655 59.6466 59.6955 59.5594 59.8026 59.4496L59.9461 59.6205C59.8177 59.7501 59.6619 59.8522 59.489 59.9203C59.3161 59.9883 59.1301 60.0207 58.9431 60.0153C58.1931 60.0153 57.6584 59.4838 57.6584 58.7301C57.6656 58.026 58.1895 57.4552 58.9018 57.4552ZM57.967 58.6122H59.8313C59.8361 58.4922 59.8155 58.3725 59.7708 58.2602C59.726 58.1479 59.658 58.0453 59.5708 57.9586C59.4836 57.8719 59.3789 57.8027 59.2631 57.7553C59.1472 57.7079 59.0225 57.6831 58.8965 57.6825C58.2918 57.6825 57.9886 58.1884 57.967 58.6122Z" fill="#575756"/>
<path d="M12.9813 35.2072V24.6625H20.3934V26.6553H15.4736V28.8616H19.8498V30.856H15.4736V35.2072H12.9813Z" fill="#36A9E1"/>
<path d="M21.8629 35.238V24.6933H29.2714V26.686H24.3551V28.8924H28.7331V30.8782H24.3551V35.2311L21.8629 35.238Z" fill="#E6332A"/>
<path d="M30.7445 24.7257H33.2367V35.2687H30.7445V24.7257Z" fill="#36A9E1"/>
<path d="M45.4089 24.7531H47.9011V35.2978H45.4089V24.7531Z" fill="#36A9E1"/>
<path d="M56.7989 35.3218C56.0812 34.1152 55.3091 32.9234 54.4825 31.7465C53.6678 30.5876 52.7829 29.4748 51.8324 28.4139V35.3218H49.3671V24.7771H51.3964C51.7481 25.1121 52.1368 25.5228 52.5627 26.0093C52.9885 26.4958 53.4227 27.0159 53.8653 27.5696C54.3067 28.1211 54.7457 28.6942 55.1823 29.2889C55.6189 29.8837 56.0292 30.4533 56.4131 30.9979V24.7839H58.8892V35.3218H56.7989Z" fill="#36A9E1"/>
<path d="M60.3624 35.3594V24.8147H67.8481V26.8074H62.8547V28.877H67.2793V30.8253H62.8547V33.3666H68.2069V35.3594H60.3624Z" fill="#36A9E1"/>
<path d="M43.29 32.7958L42.6566 33.0846C42.3432 33.2503 42.0076 33.3744 41.659 33.4538C41.1711 33.5709 40.6694 33.6284 40.1662 33.6247C38.9533 33.6247 38.0131 33.2966 37.3743 32.6488C36.7356 32.0011 36.4126 31.0782 36.4126 29.899C36.4042 29.3597 36.5034 28.8239 36.7051 28.3199C36.8843 27.878 37.1581 27.4764 37.5089 27.1407C37.8552 26.8168 38.2707 26.5679 38.7272 26.4109C39.2156 26.2431 39.7314 26.1592 40.2505 26.1631C40.5397 26.161 40.8285 26.1833 41.1136 26.2298C41.3422 26.2675 41.5681 26.3189 41.79 26.3836C41.9578 26.4322 42.1215 26.4928 42.2798 26.5647C42.4108 26.628 42.5023 26.6741 42.5633 26.71L43.1016 27.0193L43.7816 25.2043C43.6973 25.1531 43.5592 25.0813 43.3672 24.9907C43.1355 24.8844 42.8955 24.7953 42.6495 24.7241C42.3193 24.6283 41.9831 24.5524 41.6429 24.4968C41.221 24.4273 40.7935 24.3942 40.3654 24.3977C39.598 24.3907 38.8355 24.5139 38.1136 24.7617C37.4413 24.9922 36.8293 25.3583 36.3193 25.835C35.8036 26.3288 35.4015 26.9196 35.1387 27.5696C34.8386 28.3148 34.6918 29.1079 34.7063 29.9059C34.7063 31.6616 35.1776 33.0157 36.1201 33.9682C37.0627 34.9207 38.4341 35.3975 40.2344 35.3986C40.9824 35.4079 41.7284 35.3246 42.4539 35.1508C42.973 35.0341 43.4729 34.8501 43.9395 34.604L43.29 32.7958Z" fill="#E6332A"/>
<path d="M38.8456 28.1438C39.0255 27.9696 39.2454 27.8374 39.4879 27.7576C39.726 27.6777 39.9765 27.6367 40.2289 27.6362C40.5723 27.6321 40.9146 27.6729 41.2463 27.7576C41.5219 27.8152 41.7906 27.8994 42.0483 28.0088L42.601 28.2276L43.0154 27.2021H43.0047L42.4466 26.8808C42.3928 26.8484 42.3031 26.8022 42.1811 26.7441C42.033 26.677 41.8801 26.6199 41.7236 26.5732C41.5104 26.5116 41.2935 26.4626 41.074 26.4262C40.8019 26.3827 40.5264 26.3615 40.2505 26.363C39.7577 26.3588 39.268 26.438 38.8043 26.5972C38.3767 26.7441 37.9874 26.9773 37.6631 27.2808C37.335 27.5969 37.0785 27.9738 36.9096 28.3882C36.7185 28.8672 36.6247 29.3764 36.6332 29.8887C36.6332 31.0133 36.9365 31.89 37.5304 32.495C38.1243 33.1 39.0124 33.4059 40.1608 33.4059C40.6443 33.4125 41.1268 33.3597 41.5962 33.2487C41.9279 33.176 42.2477 33.061 42.5471 32.9069L43.2002 32.6078L42.6978 31.485L42.156 31.7328C42.0663 31.7738 41.964 31.8165 41.851 31.8626C41.7249 31.9146 41.5947 31.9569 41.4616 31.9891C41.2947 32.0291 41.1259 32.061 40.9556 32.0848C40.7427 32.1122 40.5281 32.1254 40.3133 32.1241C39.9811 32.1347 39.6505 32.0764 39.3444 31.9532C39.0916 31.8466 38.8694 31.6837 38.6966 31.4781C38.5256 31.2654 38.4033 31.0209 38.3378 30.7603C38.2619 30.4668 38.2246 30.1654 38.2265 29.8631C38.2168 29.5144 38.274 29.1669 38.3952 28.8377C38.4919 28.5786 38.6454 28.342 38.8456 28.1438Z" fill="#E6332A"/>
<path d="M11.2768 29.8922C11.2928 30.6683 11.1558 31.4405 10.8731 32.1686C10.6291 32.7845 10.2519 33.3446 9.766 33.8127C9.29301 34.2562 8.72418 34.5962 8.09913 34.809C7.42929 35.0384 6.72241 35.1541 6.01061 35.1508C5.31543 35.1512 4.62557 35.0355 3.97233 34.809C3.34508 34.5933 2.77276 34.2538 2.2929 33.8127C1.79847 33.3471 1.41375 32.7867 1.16431 32.1686C0.871887 31.4425 0.728739 30.6697 0.742655 29.8922C0.726181 29.1145 0.871309 28.3415 1.16969 27.6175C1.43059 26.9972 1.82339 26.4352 2.3234 25.9665C2.80219 25.5225 3.37466 25.1805 4.00283 24.9634C4.64531 24.7362 5.3253 24.6204 6.01061 24.6215C6.70827 24.6195 7.4008 24.7352 8.05607 24.9634C8.68506 25.1789 9.25788 25.5211 9.7355 25.9665C10.2289 26.4355 10.6134 26.998 10.8641 27.6175C11.1531 28.3436 11.2932 29.1158 11.2768 29.8922ZM3.20259 29.8922C3.19604 30.3447 3.26013 30.7957 3.39278 31.2303C3.50594 31.6022 3.69226 31.9502 3.94182 32.2557C4.17646 32.5388 4.47761 32.7653 4.82101 32.9171C5.19493 33.0786 5.60194 33.1585 6.0124 33.1513C6.42221 33.1578 6.82846 33.0778 7.202 32.9171C7.54839 32.7668 7.85223 32.5401 8.08836 32.2557C8.33792 31.9502 8.52424 31.6022 8.63741 31.2303C8.76641 30.7952 8.82688 30.3442 8.81683 29.8922C8.82625 29.4379 8.76581 28.9848 8.63741 28.5472C8.52376 28.1755 8.33748 27.8276 8.08836 27.5218C7.85204 27.2359 7.5484 27.007 7.202 26.8535C6.83054 26.6944 6.42685 26.615 6.01958 26.6211C5.60854 26.6138 5.20114 26.6956 4.82819 26.8604C4.48621 27.0182 4.18577 27.2472 3.949 27.5303C3.69951 27.8359 3.5132 28.1839 3.39996 28.5557C3.26479 28.9894 3.19768 29.4398 3.20079 29.8922H3.20259Z" fill="#36A9E1"/>
<path d="M22.0226 8.49872H20.5764V9.87619H22.0226V8.49872Z" fill="#3AAA35"/>
<path d="M18.1147 5.28229H16.6685V6.65805H18.1147V5.28229Z" fill="#36A9E1"/>
<path d="M29.6661 13.2292H28.2199V14.6067H29.6661V13.2292Z" fill="#F9B233"/>
<path d="M26.144 6.95538H24.6978V8.33114H26.144V6.95538Z" fill="#2D2E83"/>
<path d="M33.2367 0.428711H31.7923V1.80618H33.2367V0.428711Z" fill="#FFED00"/>
<path d="M31.6128 18.8194H30.1685V20.1952H31.6128V18.8194Z" fill="#95C11F"/>
<path d="M23.0454 12.9062H21.601V14.2837H23.0454V12.9062Z" fill="#E94E1B"/>
<path d="M32.9263 9.81287H31.482V11.1886H32.9263V9.81287Z" fill="#00A19A"/>
<path d="M27.6458 2.52393H26.2014V3.89969H27.6458V2.52393Z" fill="#82368C"/>
<path d="M21.6745 18.2213H20.2301V19.597H21.6745V18.2213Z" fill="#009FE3"/>
</g>
<defs>
<clipPath id="clip0_643_13864">
<rect width="67.4625" height="60.6019" fill="white" transform="translate(0.742584 0.286865)"/>
</clipPath>
</defs>
</svg>
