<svg width="60" height="78" viewBox="0 0 60 78" fill="none" xmlns="http://www.w3.org/2000/svg">
<path fill-rule="evenodd" clip-rule="evenodd" d="M1.80723 0H0V1.80886V47.3771C0 63.7862 13.2902 77.0887 29.6845 77.0887C46.0788 77.0887 59.3691 63.7862 59.3691 47.3771V1.80886V0H57.5619H1.80723ZM3.61446 7.09743V47.3771C3.61446 61.7882 15.2864 73.471 29.6845 73.471C37.1572 73.471 43.8956 70.3239 48.6489 65.282L3.61446 7.09743ZM50.9971 62.4085C53.9941 58.1593 55.7547 52.9739 55.7547 47.3771V3.61773H5.49337L50.9971 62.4085ZM45.1712 14.7692C41.4739 14.7692 38.3055 17.9738 38.3055 22.1443C38.3055 26.3147 41.4739 29.5192 45.1712 29.5192V33.1369C39.2886 33.1369 34.6911 28.118 34.6911 22.1443C34.6911 16.1705 39.2886 11.1515 45.1712 11.1515V14.7692ZM16.6235 52.32C16.6235 48.1496 19.792 44.9451 23.4892 44.9451V41.3273C17.6066 41.3273 13.009 46.3463 13.009 52.32C13.009 58.2937 17.6066 63.3128 23.4892 63.3128V59.695C19.792 59.695 16.6235 56.4904 16.6235 52.32Z" fill="#00009C"/>
</svg>
