<svg width="222" height="50" viewBox="0 0 222 50" fill="none" xmlns="http://www.w3.org/2000/svg">
<g clip-path="url(#clip0_643_13822)">
<path d="M37.8696 27.3957C37.8696 33.2855 36.607 37.8572 34.0454 41.286L3.00078 3.01931H37.8696V27.3957ZM32.4657 43.0987C29.0411 46.3585 24.9973 47.9408 20.0967 47.9408C15.071 47.9408 10.6582 46.2664 7.34031 43.111C3.69913 39.5347 1.93038 34.3946 1.93038 27.3957V4.77365L32.7676 42.7853C32.67 42.8929 32.5725 42.9973 32.4657 43.0987ZM0 1.07141V27.3926C0 34.8401 2.01577 40.5947 6.0046 44.5151C9.70068 48.0268 14.5708 49.8887 20.0997 49.8887C25.5158 49.8887 29.9956 48.1313 33.8075 44.5059C37.7842 40.5978 39.803 34.8401 39.803 27.3957V1.07141H0Z" fill="#00009C"/>
<path d="M30.0778 21.767V19.8191C27.4125 19.8191 25.2412 17.6316 25.2412 14.9433C25.2412 12.2549 27.4125 10.0704 30.0778 10.0704V8.12561C26.3451 8.12561 23.3047 11.1857 23.3047 14.9463C23.3077 18.7039 26.3451 21.767 30.0778 21.767Z" fill="#00009C"/>
<path d="M15.5223 41.412V39.4672C12.8539 39.4672 10.6826 37.2796 10.6826 34.5913C10.6826 31.9029 12.8539 29.7185 15.5223 29.7185V27.7706C11.7896 27.7706 8.74921 30.8307 8.74921 34.5944C8.74921 38.355 11.7896 41.412 15.5223 41.412Z" fill="#00009C"/>
<path d="M47.2805 1.03448H54.325V2.60141H49.1438V6.56787H53.9804V8.13172H49.1438V13.5606H47.2805V1.03448Z" fill="#00009C"/>
<path d="M59.4208 6.67236C58.2803 6.67236 57.4173 7.48962 57.28 8.75852C57.28 8.74008 61.1835 8.75852 61.217 8.75852C61.217 7.59408 60.5248 6.67236 59.4208 6.67236ZM59.4544 12.5161C60.1802 12.5161 61.0432 12.1689 61.217 11.2287H62.8394C62.632 12.4976 61.5616 13.7696 59.4208 13.7696C57.1763 13.7696 55.4838 12.0982 55.4838 9.59421C55.4838 7.29606 57.2099 5.41882 59.3354 5.41882C61.4244 5.41882 62.9095 6.96731 62.9095 9.17636V9.90759H57.1763C57.1763 11.5083 58.1949 12.5161 59.4544 12.5161Z" fill="#00009C"/>
<path d="M70.2317 8.89675C70.2317 7.50495 69.2314 6.77372 68.0543 6.77372C67.0693 6.77372 66.1026 7.8337 66.1026 9.55731C66.1026 11.158 66.8619 12.3071 68.0543 12.3071C69.4175 12.3071 70.1768 11.4561 70.2317 10.2885V8.89675ZM71.787 13.5606H70.2317V12.5345C69.695 13.2811 68.8167 13.7696 67.8469 13.7696C66.3099 13.7696 64.4467 12.2395 64.4467 9.69864C64.4467 6.98572 66.2764 5.41879 67.8469 5.41879C68.8136 5.41879 69.695 5.75061 70.2317 6.46341V1.03448H71.787V13.5606Z" fill="#00009C"/>
<path d="M77.6573 6.67236C76.5167 6.67236 75.6537 7.48962 75.5165 8.75852C75.5165 8.74008 79.4199 8.75852 79.4535 8.75852C79.4535 7.59408 78.7612 6.67236 77.6573 6.67236ZM77.6908 12.5161C78.4166 12.5161 79.2796 12.1689 79.4535 11.2287H81.0758C80.8685 12.4976 79.7981 13.7696 77.6573 13.7696C75.4128 13.7696 73.7203 12.0982 73.7203 9.59421C73.7203 7.29606 75.4463 5.41882 77.5719 5.41882C79.6608 5.41882 81.146 6.96731 81.146 9.17636V9.90759H75.4128C75.4128 11.5083 76.4313 12.5161 77.6908 12.5161Z" fill="#00009C"/>
<path d="M83.0795 5.64313H84.6348V7.08715C85.016 6.04254 85.879 5.41577 87.2239 5.41577C87.5349 5.41577 87.7576 5.48644 87.9497 5.5909V6.89667C87.724 6.81064 87.4679 6.79221 87.2239 6.79221C85.5497 6.79221 84.7019 8.37449 84.6684 10.1841L84.6348 13.5607H83.0795V5.64313Z" fill="#00009C"/>
<path d="M90.4534 11.0567C90.4534 12.1013 91.3164 12.4147 92.0087 12.4147C93.1309 12.4147 93.6829 11.8217 93.6829 11.1458V10.9368C93.6493 10.2916 93.1828 9.70174 92.0087 9.70174C91.3195 9.69867 90.4534 10.0121 90.4534 11.0567ZM93.6829 12.6912C93.2682 13.3517 92.5088 13.7696 91.5756 13.7696C90.057 13.7696 88.7944 13.0046 88.7944 11.0567C88.7944 9.52662 90.0722 8.44821 91.661 8.44821C92.6094 8.44821 93.2163 8.78002 93.6798 9.31769V7.81836C93.6798 7.22539 93.3169 6.66929 92.2801 6.66929C91.3469 6.66929 90.8651 7.22539 90.8651 7.81836H89.2061C89.2061 6.445 90.2765 5.41882 92.2282 5.41882C94.3507 5.41882 95.2321 6.67236 95.2321 7.94126V13.5607H93.6768V12.6912H93.6829Z" fill="#00009C"/>
<path d="M103.008 5.62775V7.29606L98.6749 12.3071H103.008V13.5607H96.897V12.0306L101.145 7.09021H97.1044V5.62775H103.008Z" fill="#00009C"/>
<path d="M104.686 5.62775H106.241V13.5607H104.686V5.62775ZM104.686 1.76575H106.241V3.64605H104.686V1.76575Z" fill="#00009C"/>
<path d="M112.093 6.67236C110.952 6.67236 109.882 7.50805 109.882 9.59421C109.882 11.6834 110.952 12.5161 112.093 12.5161C113.233 12.5161 114.371 11.6804 114.371 9.59421C114.374 7.50498 113.233 6.67236 112.093 6.67236ZM112.093 13.7696C110.019 13.7696 108.226 12.3071 108.226 9.59421C108.226 6.67236 110.022 5.41882 112.093 5.41882C114.164 5.41882 116.03 6.67236 116.03 9.59421C116.03 12.3071 114.167 13.7696 112.093 13.7696Z" fill="#00009C"/>
<path d="M124.7 13.5607H123.145V8.88141C123.145 7.88903 122.852 6.88128 121.781 6.88128C120.693 6.88128 119.622 7.85523 119.519 9.24703V13.5607H117.963V5.62775H119.519V6.73995C119.915 6.06095 120.641 5.41882 122.108 5.41882C123.678 5.41882 124.697 6.79218 124.697 8.67249V13.5607H124.7Z" fill="#00009C"/>
<path d="M130.555 6.67236C129.415 6.67236 128.552 7.48962 128.414 8.75852C128.414 8.74008 132.318 8.75852 132.351 8.75852C132.351 7.59408 131.659 6.67236 130.555 6.67236ZM130.589 12.5161C131.314 12.5161 132.178 12.1689 132.348 11.2287H133.971C133.763 12.4976 132.693 13.7696 130.552 13.7696C128.308 13.7696 126.615 12.0982 126.615 9.59421C126.615 7.29606 128.341 5.41882 130.467 5.41882C132.556 5.41882 134.041 6.96731 134.041 9.17636V9.90759H128.308C128.311 11.5083 129.329 12.5161 130.589 12.5161Z" fill="#00009C"/>
<path d="M145.596 8.89675C145.596 7.50495 144.595 6.77372 143.421 6.77372C142.436 6.77372 141.47 7.8337 141.47 9.55731C141.47 11.158 142.229 12.3071 143.421 12.3071C144.784 12.3071 145.544 11.4561 145.596 10.2885V8.89675ZM147.151 13.5606H145.596V12.5345C145.059 13.2811 144.181 13.7696 143.214 13.7696C141.677 13.7696 139.811 12.2395 139.811 9.69864C139.811 6.98572 141.64 5.41879 143.214 5.41879C144.181 5.41879 145.062 5.75061 145.596 6.46341V1.03448H147.151V13.5606Z" fill="#00009C"/>
<path d="M153.024 6.67236C151.884 6.67236 151.021 7.48962 150.884 8.75852C150.884 8.74008 154.787 8.75852 154.821 8.75852C154.817 7.59408 154.128 6.67236 153.024 6.67236ZM153.058 12.5161C153.784 12.5161 154.647 12.1689 154.817 11.2287H156.443C156.236 12.4976 155.165 13.7696 153.024 13.7696C150.78 13.7696 149.087 12.0982 149.087 9.59421C149.087 7.29606 150.813 5.41882 152.939 5.41882C155.028 5.41882 156.513 6.96731 156.513 9.17636V9.90759H150.78C150.777 11.5083 151.795 12.5161 153.058 12.5161Z" fill="#00009C"/>
<path d="M158.446 5.62775H160.002V13.5607H158.446V5.62775ZM158.446 1.76575H160.002V3.64605H158.446V1.76575Z" fill="#00009C"/>
<path d="M175.42 4.75832C175.195 3.34809 173.969 2.28811 172.502 2.28811C170.88 2.28811 168.254 3.33273 168.254 7.29919C168.254 11.0567 170.776 12.3103 172.502 12.3103C174.143 12.3103 175.491 11.2319 175.61 9.63114H177.369C177.128 12.0307 174.917 13.8772 172.499 13.8772C168.943 13.8772 166.281 11.0229 166.281 7.30226C166.287 3.57545 168.946 0.721191 172.502 0.721191C174.85 0.721191 176.887 2.4786 177.18 4.75832H175.42Z" fill="#00009C"/>
<path d="M182.45 6.67236C181.309 6.67236 180.239 7.50805 180.239 9.59421C180.239 11.6834 181.309 12.5161 182.45 12.5161C183.59 12.5161 184.728 11.6804 184.728 9.59421C184.731 7.50498 183.59 6.67236 182.45 6.67236ZM182.45 13.7696C180.376 13.7696 178.58 12.3071 178.58 9.59421C178.58 6.67236 180.376 5.41882 182.45 5.41882C184.52 5.41882 186.387 6.67236 186.387 9.59421C186.387 12.3071 184.523 13.7696 182.45 13.7696Z" fill="#00009C"/>
<path d="M199.756 13.5607H198.201V10.7771C198.201 10.7771 198.234 9.80313 198.201 8.96744C198.167 8.13175 198.064 6.87821 197.027 6.87821C196.127 6.87821 195.075 7.68011 194.834 9.15793V13.5607H193.279V8.96744C193.26 8.11331 193.209 6.87821 192.123 6.87821C191.12 6.87821 190.016 7.68011 189.878 9.15793V13.5607H188.323V5.62775H189.878V7.10557C190.19 6.06095 191.138 5.41882 192.278 5.41882C193.367 5.41882 194.3 6.0118 194.645 6.98574C195.041 6.0118 195.993 5.41882 197.167 5.41882C198.737 5.41882 199.756 6.79218 199.756 8.67249V13.5607Z" fill="#00009C"/>
<path d="M202.104 5.62775H203.659V10.307C203.659 11.2994 203.952 12.3409 205.023 12.3409C206.111 12.3409 207.182 11.3332 207.285 9.94139V5.62775H208.841V13.5607H207.285V12.4485C206.889 13.1275 206.163 13.7696 204.696 13.7696C203.126 13.7696 202.107 12.3962 202.107 10.5159V5.62775H202.104Z" fill="#00009C"/>
<path d="M217.922 13.5607H216.367V8.88141C216.367 7.88903 216.074 6.88128 215.004 6.88128C213.915 6.88128 212.845 7.85523 212.741 9.24703V13.5607H211.186V5.62775H212.741V6.73995C213.137 6.06095 213.863 5.41882 215.33 5.41882C216.901 5.41882 217.919 6.79218 217.919 8.67249V13.5607H217.922Z" fill="#00009C"/>
<path d="M220.27 5.62775H221.826V13.5607H220.27V5.62775ZM220.27 1.76575H221.826V3.64605H220.27V1.76575Z" fill="#00009C"/>
<path d="M52.5135 29.1623C52.5135 27.7705 51.5132 27.0393 50.3391 27.0393C49.3541 27.0393 48.3874 28.0993 48.3874 29.8229C48.3874 31.4236 49.1468 32.5727 50.3391 32.5727C51.7023 32.5727 52.4616 31.7216 52.5135 30.5541V29.1623ZM54.0657 33.8262H52.5104V32.8C51.9737 33.5466 51.0954 34.0351 50.1257 34.0351C48.5887 34.0351 46.7254 32.5051 46.7254 29.9642C46.7254 27.2513 48.5551 25.6844 50.1257 25.6844C51.0924 25.6844 51.9737 26.0162 52.5104 26.729V21.3H54.0657V33.8262Z" fill="#00009C"/>
<path d="M59.9392 26.9349C58.7987 26.9349 57.9356 27.7521 57.7984 29.021C57.7984 29.0026 61.7018 29.021 61.7354 29.021C61.7354 27.8566 61.0431 26.9349 59.9392 26.9349ZM59.9727 32.7816C60.6985 32.7816 61.5616 32.4344 61.7354 31.4943H63.3578C63.1504 32.7632 62.08 34.0352 59.9392 34.0352C57.6947 34.0352 56.0022 32.3638 56.0022 29.8598C56.0022 27.5647 57.7283 25.6844 59.8538 25.6844C61.9428 25.6844 63.4279 27.2329 63.4279 29.4419V30.1732H57.6947C57.6947 31.7739 58.7133 32.7816 59.9727 32.7816Z" fill="#00009C"/>
<path d="M66.9167 21.3H65.3615V33.8262H66.9167V21.3Z" fill="#00009C"/>
<path d="M82.3384 25.0207C82.1127 23.6105 80.8868 22.5505 79.4199 22.5505C77.7975 22.5505 75.1719 23.5951 75.1719 27.5616C75.1719 31.3191 77.6939 32.5727 79.4199 32.5727C81.0606 32.5727 82.4085 31.4943 82.5274 29.8935H84.287C84.0461 32.2931 81.8352 34.1396 79.4169 34.1396C75.8611 34.1396 73.1988 31.2853 73.1988 27.5647C73.1988 23.8409 75.858 20.9897 79.4169 20.9897C81.765 20.9897 83.8021 22.7472 84.0979 25.0269H82.3384V25.0207Z" fill="#00009C"/>
<path d="M87.053 31.3191C87.053 32.3638 87.916 32.6771 88.6083 32.6771C89.7305 32.6771 90.2825 32.0842 90.2825 31.4082V31.1993C90.249 30.5572 89.7824 29.9642 88.6083 29.9642C87.916 29.9642 87.053 30.2776 87.053 31.3191ZM90.2825 32.9567C89.8678 33.6173 89.1084 34.0351 88.1753 34.0351C86.6566 34.0351 85.394 33.2701 85.394 31.3222C85.394 29.7922 86.6718 28.7137 88.2606 28.7137C89.2091 28.7137 89.8159 29.0425 90.2795 29.5832V28.087C90.2795 27.494 89.9166 26.9379 88.8797 26.9379C87.9465 26.9379 87.4647 27.494 87.4647 28.087H85.8057C85.8057 26.7136 86.8761 25.6874 88.8279 25.6874C90.9504 25.6874 91.8317 26.941 91.8317 28.2099V33.8293H90.2764V32.9567H90.2825Z" fill="#00009C"/>
<path d="M105.616 33.8262H104.06V31.0426C104.06 31.0426 104.094 30.0687 104.06 29.233C104.027 28.3973 103.923 27.1438 102.886 27.1438C101.99 27.1438 100.935 27.9426 100.694 29.4235V33.8262H99.1384V29.233C99.1201 28.3789 99.0683 27.1438 97.9826 27.1438C96.9824 27.1438 95.8754 27.9426 95.7381 29.4235V33.8262H94.1829V25.8933H95.7381V27.3711C96.0492 26.3265 96.9976 25.6844 98.1382 25.6844C99.2269 25.6844 100.157 26.2774 100.505 27.2513C100.901 26.2774 101.853 25.6844 103.027 25.6844C104.597 25.6844 105.616 27.0577 105.616 28.9381V33.8262Z" fill="#00009C"/>
<path d="M109.519 30.5541C109.553 31.7186 110.33 32.5727 111.697 32.5727C112.871 32.5727 113.648 31.4236 113.648 29.8229C113.648 28.0993 112.663 27.0393 111.697 27.0393C110.523 27.0393 109.519 27.7705 109.519 29.1623V30.5541ZM107.967 25.8933H109.522V26.729C110.059 26.0162 110.937 25.6844 111.907 25.6844C113.478 25.6844 115.307 27.2513 115.307 29.9642C115.307 32.5051 113.441 34.0352 111.907 34.0352C110.94 34.0352 110.059 33.5466 109.522 32.8001V37.3749H107.967V25.8933Z" fill="#00009C"/>
<path d="M120.729 26.9349C119.589 26.9349 118.518 27.7705 118.518 29.8567C118.518 31.9459 119.589 32.7785 120.729 32.7785C121.87 32.7785 123.007 31.9429 123.007 29.8567C123.007 27.7705 121.867 26.9349 120.729 26.9349ZM120.729 34.0352C118.656 34.0352 116.862 32.5727 116.862 29.8598C116.862 26.9379 118.659 25.6844 120.729 25.6844C122.8 25.6844 124.666 26.9379 124.666 29.8598C124.666 32.5727 122.8 34.0352 120.729 34.0352Z" fill="#00009C"/>
<path d="M127.603 31.4943C127.603 32.0351 128.018 32.7816 128.985 32.7816C129.951 32.7816 130.4 32.2778 130.4 31.737C130.4 31.1963 129.985 30.9874 129.347 30.7969C128.71 30.6064 127.603 30.293 127.603 30.293C126.603 29.9981 125.944 29.1624 125.944 28.1177C125.944 26.9687 126.893 25.6813 129.088 25.6813C131.04 25.6813 131.851 26.8458 131.851 27.9948H130.192C130.192 27.4725 129.811 26.9349 128.863 26.9349C128.103 26.9349 127.603 27.2821 127.603 27.9611C127.603 28.3789 127.881 28.6738 128.329 28.8121L130.195 29.3528C131.68 29.8414 132.059 30.588 132.059 31.737C132.059 32.9906 131.04 34.0321 129.088 34.0321C126.636 34.0321 125.944 32.797 125.944 31.4912H127.603V31.4943Z" fill="#00009C"/>
<path d="M135.044 31.3191C135.044 32.3638 135.907 32.6771 136.599 32.6771C137.722 32.6771 138.274 32.0842 138.274 31.4082V31.1993C138.24 30.5572 137.774 29.9642 136.599 29.9642C135.907 29.9642 135.044 30.2776 135.044 31.3191ZM138.274 32.9567C137.859 33.6173 137.1 34.0351 136.166 34.0351C134.648 34.0351 133.385 33.2701 133.385 31.3222C133.385 29.7922 134.663 28.7137 136.252 28.7137C137.2 28.7137 137.807 29.0425 138.271 29.5832V28.087C138.271 27.494 137.908 26.9379 136.871 26.9379C135.938 26.9379 135.456 27.494 135.456 28.087H133.797C133.797 26.7136 134.867 25.6874 136.819 25.6874C138.942 25.6874 139.823 26.941 139.823 28.2099V33.8293H138.268V32.9567H138.274Z" fill="#00009C"/>
<path d="M153.61 33.8262H152.054V31.0426C152.054 31.0426 152.088 30.0687 152.054 29.233C152.021 28.3973 151.917 27.1438 150.88 27.1438C149.981 27.1438 148.929 27.9426 148.688 29.4235V33.8262H147.132V29.233C147.114 28.3789 147.062 27.1438 145.977 27.1438C144.976 27.1438 143.869 27.9426 143.732 29.4235V33.8262H142.177V25.8933H143.732V27.3711C144.043 26.3265 144.992 25.6844 146.132 25.6844C147.221 25.6844 148.154 26.2774 148.499 27.2513C148.895 26.2774 149.847 25.6844 151.021 25.6844C152.591 25.6844 153.61 27.0577 153.61 28.9381V33.8262Z" fill="#00009C"/>
<path d="M157.513 30.5541C157.547 31.7186 158.324 32.5727 159.691 32.5727C160.865 32.5727 161.642 31.4236 161.642 29.8229C161.642 28.0993 160.657 27.0393 159.691 27.0393C158.517 27.0393 157.513 27.7705 157.513 29.1623V30.5541ZM155.958 25.8933H157.513V26.729C158.05 26.0162 158.928 25.6844 159.895 25.6844C161.466 25.6844 163.295 27.2513 163.295 29.9642C163.295 32.5051 161.432 34.0352 159.895 34.0352C158.928 34.0352 158.047 33.5466 157.513 32.8001V37.3749H155.958V25.8933Z" fill="#00009C"/>
<path d="M165.232 25.8933H166.787V33.8263H165.232V25.8933ZM165.232 22.0283H166.787V23.9086H165.232V22.0283Z" fill="#00009C"/>
<path d="M172.658 26.9349C171.517 26.9349 170.654 27.7521 170.517 29.021C170.517 29.0026 174.42 29.021 174.454 29.021C174.454 27.8566 173.765 26.9349 172.658 26.9349ZM172.694 32.7816C173.42 32.7816 174.283 32.4344 174.454 31.4943H176.076C175.869 32.7632 174.798 34.0352 172.658 34.0352C170.413 34.0352 168.721 32.3638 168.721 29.8598C168.721 27.5647 170.447 25.6844 172.572 25.6844C174.661 25.6844 176.146 27.2329 176.146 29.4419V30.1732H170.413C170.413 31.7739 171.432 32.7816 172.694 32.7816Z" fill="#00009C"/>
<path d="M178.083 25.9087H179.638V27.3527C180.016 26.3081 180.882 25.6813 182.227 25.6813C182.538 25.6813 182.764 25.752 182.953 25.8565V27.1622C182.727 27.0762 182.468 27.0578 182.227 27.0578C180.553 27.0578 179.705 28.6401 179.672 30.4497L179.638 33.8263H178.083V25.9087Z" fill="#00009C"/>
<path d="M187.786 26.9349C186.646 26.9349 185.783 27.7521 185.646 29.021C185.646 29.0026 189.549 29.021 189.583 29.021C189.583 27.8566 188.893 26.9349 187.786 26.9349ZM187.823 32.7816C188.549 32.7816 189.412 32.4344 189.583 31.4943H191.205C190.998 32.7632 189.927 34.0352 187.786 34.0352C185.542 34.0352 183.849 32.3638 183.849 29.8598C183.849 27.5647 185.575 25.6844 187.701 25.6844C189.79 25.6844 191.275 27.2329 191.275 29.4419V30.1732H185.542C185.542 31.7739 186.56 32.7816 187.823 32.7816Z" fill="#00009C"/>
<path d="M194.212 31.4943C194.212 32.0351 194.627 32.7816 195.593 32.7816C196.56 32.7816 197.008 32.2778 197.008 31.737C197.008 31.1963 196.594 30.9874 195.956 30.7969C195.316 30.6064 194.212 30.293 194.212 30.293C193.212 29.9981 192.553 29.1624 192.553 28.1177C192.553 26.9687 193.501 25.6813 195.697 25.6813C197.649 25.6813 198.46 26.8458 198.46 27.9948H196.801C196.801 27.4725 196.42 26.9349 195.471 26.9349C194.712 26.9349 194.212 27.2821 194.212 27.9611C194.212 28.3789 194.489 28.6738 194.938 28.8121L196.804 29.3528C198.289 29.8414 198.667 30.588 198.667 31.737C198.667 32.9906 197.649 34.0321 195.697 34.0321C193.245 34.0321 192.553 32.797 192.553 31.4912H194.212V31.4943Z" fill="#00009C"/>
<path d="M203.986 26.9349C202.845 26.9349 201.982 27.7521 201.845 29.021C201.845 29.0026 205.748 29.021 205.782 29.021C205.782 27.8566 205.093 26.9349 203.986 26.9349ZM204.019 32.7816C204.745 32.7816 205.608 32.4344 205.779 31.4943H207.401C207.194 32.7632 206.123 34.0352 203.983 34.0352C201.738 34.0352 200.046 32.3638 200.046 29.8598C200.046 27.5647 201.772 25.6844 203.897 25.6844C205.986 25.6844 207.471 27.2329 207.471 29.4419V30.1732H201.738C201.741 31.7739 202.76 32.7816 204.019 32.7816Z" fill="#00009C"/>
</g>
<defs>
<clipPath id="clip0_643_13822">
<rect width="221.826" height="49.1676" fill="white" transform="translate(0 0.721191)"/>
</clipPath>
</defs>
</svg>
