<svg width="34" height="29" viewBox="0 0 34 29" fill="none" xmlns="http://www.w3.org/2000/svg">
<path d="M0.958008 28.6248L16.9997 0.916504L33.0413 28.6248H0.958008ZM16.9997 24.2498C17.4129 24.2498 17.7595 24.1098 18.0395 23.8298C18.3185 23.5508 18.458 23.2047 18.458 22.7915C18.458 22.3783 18.3185 22.0322 18.0395 21.7532C17.7595 21.4732 17.4129 21.3332 16.9997 21.3332C16.5865 21.3332 16.2404 21.4732 15.9613 21.7532C15.6813 22.0322 15.5413 22.3783 15.5413 22.7915C15.5413 23.2047 15.6813 23.5508 15.9613 23.8298C16.2404 24.1098 16.5865 24.2498 16.9997 24.2498ZM15.5413 19.8748H18.458V12.5832H15.5413V19.8748Z" fill="#FBBD14"/>
</svg>
